<svg width="3831" height="1418" xmlns="http://www.w3.org/2000/svg" xmlns:xlink="http://www.w3.org/1999/xlink" xml:space="preserve" overflow="hidden"><defs><clipPath id="clip0"><rect x="551" y="481" width="3831" height="1418"/></clipPath><clipPath id="clip1"><rect x="551" y="860" width="331" height="331"/></clipPath><clipPath id="clip2"><rect x="551" y="860" width="331" height="331"/></clipPath><clipPath id="clip3"><rect x="551" y="860" width="331" height="331"/></clipPath></defs><g clip-path="url(#clip0)" transform="translate(-551 -481)"><g clip-path="url(#clip1)"><g clip-path="url(#clip2)"><g clip-path="url(#clip3)"><path d="M771 963.125C771 993.501 746.376 1018.13 716 1018.13 685.624 1018.13 661 993.501 661 963.125 661 932.749 685.624 908.125 716 908.125 746.376 908.125 771 932.749 771 963.125Z"/><path d="M826 1141.88 826 1086.88C826 1078.62 821.875 1070.38 815 1064.88 799.875 1052.5 780.625 1044.25 761.375 1038.75 747.625 1034.62 732.5 1031.88 716 1031.88 700.875 1031.88 685.75 1034.62 670.625 1038.75 651.375 1044.25 632.125 1053.88 617 1064.88 610.125 1070.38 606 1078.62 606 1086.88L606 1141.88 826 1141.88Z"/></g></g></g><text font-family="Calibri,Calibri_MSFontService,sans-serif" font-weight="400" font-size="83" transform="matrix(1 0 0 1 640.044 1216)">User</text><path d="M894 619.668C894 585.61 921.61 558 955.668 558L992.667 558 992.667 558 1140.67 558 1424.33 558C1458.39 558 1486 585.61 1486 619.668L1486 773.833 1486 773.833 1486 866.333 1486 866.332C1486 900.39 1458.39 928 1424.33 928L1140.67 928 907.966 999.422 992.667 928 955.668 928C921.61 928 894 900.39 894 866.332L894 866.333 894 773.833 894 773.833Z" stroke="#000000" stroke-width="10.3125" stroke-miterlimit="8" fill="none" fill-rule="evenodd"/><text font-family="Calibri,Calibri_MSFontService,sans-serif" font-weight="400" font-size="83" transform="matrix(1 0 0 1 949.631 721)">What did Luke </text><text font-family="Calibri,Calibri_MSFontService,sans-serif" font-weight="400" font-size="83" transform="matrix(1 0 0 1 1028.42 820)">Diaz buy?</text><path d="M1777.5 719.003C1777.5 588.939 1882.94 483.5 2013 483.5L4144 483.5C4274.06 483.5 4379.5 588.939 4379.5 719.003L4379.5 1661C4379.5 1791.06 4274.06 1896.5 4144 1896.5L2013 1896.5C1882.94 1896.5 1777.5 1791.06 1777.5 1661Z" stroke="#000000" stroke-width="4.58333" stroke-miterlimit="8" fill="#BDD7EE" fill-rule="evenodd"/><text font-family="Calibri,Calibri_MSFontService,sans-serif" font-weight="400" font-size="83" transform="matrix(1 0 0 1 2734.43 646)">Our Custom Chatbot</text><path d="M1936.5 793.334C1936.5 770.782 1954.78 752.5 1977.33 752.5L2885.67 752.5C2908.22 752.5 2926.5 770.782 2926.5 793.334L2926.5 956.666C2926.5 979.218 2908.22 997.5 2885.67 997.5L1977.33 997.5C1954.78 997.5 1936.5 979.218 1936.5 956.666Z" stroke="#000000" stroke-width="4.58333" stroke-miterlimit="8" fill="#FFD966" fill-rule="evenodd"/><text font-family="Calibri,Calibri_MSFontService,sans-serif" font-weight="400" font-size="83" transform="matrix(1 0 0 1 2070.84 858)">Step 1: </text><text font-family="Calibri,Calibri_MSFontService,sans-serif" font-weight="400" font-size="83" transform="matrix(1 0 0 1 2322.03 858)">Come up with</text><text font-family="Calibri,Calibri_MSFontService,sans-serif" font-weight="400" font-size="83" transform="matrix(1 0 0 1 2178.41 957)">Search Queries</text><path d="M3266.5 826.167C3266.5 812.544 3277.54 801.5 3291.17 801.5L3881.83 801.5C3895.46 801.5 3906.5 812.544 3906.5 826.167L3906.5 924.833C3906.5 938.456 3895.46 949.5 3881.83 949.5L3291.17 949.5C3277.54 949.5 3266.5 938.456 3266.5 924.833Z" stroke="#000000" stroke-width="4.58333" stroke-miterlimit="8" fill="#FBE5D6" fill-rule="evenodd"/><text font-family="Calibri,Calibri_MSFontService,sans-serif" font-weight="400" font-size="83" transform="matrix(1 0 0 1 3393.48 902)">“Luke Diaz”</text><path d="M1936.5 1152.17C1936.5 1129.71 1954.71 1111.5 1977.17 1111.5L2885.83 1111.5C2908.29 1111.5 2926.5 1129.71 2926.5 1152.17L2926.5 1314.83C2926.5 1337.29 2908.29 1355.5 2885.83 1355.5L1977.17 1355.5C1954.71 1355.5 1936.5 1337.29 1936.5 1314.83Z" stroke="#000000" stroke-width="4.58333" stroke-miterlimit="8" fill="#FFD966" fill-rule="evenodd"/><text font-family="Calibri,Calibri_MSFontService,sans-serif" font-weight="400" font-size="83" transform="matrix(1 0 0 1 2004.78 1216)">Step 2: Run Search Query </text><text font-family="Calibri,Calibri_MSFontService,sans-serif" font-weight="400" font-size="83" transform="matrix(1 0 0 1 2129.04 1315)">with Azure Search</text><path d="M3058.5 1128.83C3058.5 1099.93 3081.93 1076.5 3110.83 1076.5L4233.17 1076.5C4262.07 1076.5 4285.5 1099.93 4285.5 1128.83L4285.5 1338.17C4285.5 1367.07 4262.07 1390.5 4233.17 1390.5L3110.83 1390.5C3081.93 1390.5 3058.5 1367.07 3058.5 1338.17Z" stroke="#000000" stroke-width="4.58333" stroke-miterlimit="8" fill="#FBE5D6" fill-rule="evenodd"/><text font-family="Consolas,Consolas_MSFontService,sans-serif" font-weight="400" font-size="73" transform="matrix(1 0 0 1 3105.91 1177)">[{</text><text font-family="Consolas,Consolas_MSFontService,sans-serif" font-weight="400" font-size="73" transform="matrix(1 0 0 1 3186.12 1177)">CustomerName</text><text font-family="Consolas,Consolas_MSFontService,sans-serif" font-weight="400" font-size="73" transform="matrix(1 0 0 1 3667.37 1177)">: “Luke Diaz”,</text><text font-family="Consolas,Consolas_MSFontService,sans-serif" font-weight="400" font-size="73" transform="matrix(1 0 0 1 3146.02 1265)">Description: “Wooden Saw”,</text><text font-family="Consolas,Consolas_MSFontService,sans-serif" font-weight="400" font-size="73" transform="matrix(1 0 0 1 3146.02 1353)">Price: 160.0, …}, …]</text><path d="M1956.5 1551.17C1956.5 1528.71 1974.71 1510.5 1997.17 1510.5L2905.83 1510.5C2928.29 1510.5 2946.5 1528.71 2946.5 1551.17L2946.5 1713.83C2946.5 1736.29 2928.29 1754.5 2905.83 1754.5L1997.17 1754.5C1974.71 1754.5 1956.5 1736.29 1956.5 1713.83Z" stroke="#000000" stroke-width="4.58333" stroke-miterlimit="8" fill="#FFD966" fill-rule="evenodd"/><text font-family="Calibri,Calibri_MSFontService,sans-serif" font-weight="400" font-size="83" transform="matrix(1 0 0 1 2037.88 1615)">Step 3: Answer Question </text><text font-family="Calibri,Calibri_MSFontService,sans-serif" font-weight="400" font-size="83" transform="matrix(1 0 0 1 2236.82 1714)">with Context</text><path d="M2926 868.844 2957.75 868.844 2973.25 868.844 2988.45 868.844 3003.15 868.906 3003.12 868.906 3017.19 868.906 3030.5 868.906 3042.95 868.906 3054.4 868.969 3054.38 868.969 3064.69 868.969 3073.77 868.969 3081.48 869.032 3081.44 869.031 3084.75 869.031 3087.69 869.031 3090.19 869.031 3092.25 869.031 3094.01 869.031 3095.33 869.101 3095.06 869.094 3095.81 869.094 3096.06 869.094 3096.31 869.094 3097.2 869.094 3098.52 869.164 3098.25 869.156 3099.88 869.156 3101.94 869.156 3104.44 869.156 3107.38 869.156 3110.71 869.156 3118.42 869.219 3118.38 869.219 3127.44 869.219 3137.76 869.219 3149.22 869.281 3149.19 869.281 3161.62 869.281 3174.94 869.281 3189.01 869.281 3203.71 869.344 3203.69 869.344 3218.81 869.344 3234.38 869.344 3240.29 869.339 3240.3 879.651 3234.38 879.656 3218.81 879.656 3203.68 879.656 3188.98 879.594 3189 879.594 3174.94 879.594 3161.62 879.594 3149.17 879.594 3137.72 879.531 3137.75 879.531 3127.44 879.531 3118.35 879.531 3110.65 879.469 3110.69 879.469 3107.38 879.469 3104.44 879.469 3101.94 879.469 3099.88 879.469 3098.11 879.469 3096.79 879.399 3097.06 879.406 3096.31 879.406 3096.06 879.406 3095.81 879.406 3094.93 879.406 3093.6 879.337 3093.88 879.344 3092.25 879.344 3090.19 879.344 3087.69 879.344 3084.75 879.344 3081.42 879.344 3073.71 879.281 3073.75 879.281 3064.69 879.281 3054.36 879.281 3042.91 879.219 3042.94 879.219 3030.5 879.219 3017.19 879.219 3003.11 879.219 2988.42 879.156 2988.44 879.156 2973.25 879.156 2957.75 879.156 2926 879.156ZM3235.13 859.031 3266.08 874.473 3235.15 889.968Z"/><path d="M3591.44 949.513 3591.2 951.935 3590.25 954.897 3588.77 957.505 3586.94 959.967 3584.7 962.284 3582.09 964.459 3579.18 966.538 3575.89 968.594 3568.49 972.525 3559.68 976.346 3549.56 980.125 3538.18 983.75 3525.53 987.353 3511.71 990.888 3496.72 994.289 3480.7 997.619 3463.61 1000.89 3445.47 1004.02 3426.47 1007.03 3406.53 1009.98 3385.72 1012.74 3364.18 1015.43 3341.87 1018 3318.89 1020.38 3295.22 1022.64 3271.05 1024.7 3246.32 1026.64 3221.09 1028.4 3195.48 1029.96 3169.49 1031.34 3116.61 1033.53 3062.84 1034.91 3008.73 1035.34 2954.61 1035.84 2954.7 1035.84 2901.01 1037.22 2901.09 1037.21 2848.28 1039.4 2848.35 1039.4 2822.41 1040.84 2822.44 1040.83 2796.82 1042.4 2796.86 1042.39 2771.73 1044.14 2771.78 1044.14 2747.09 1046.08 2747.13 1046.08 2722.94 1048.14 2722.99 1048.13 2699.43 1050.38 2699.47 1050.38 2676.53 1052.75 2676.59 1052.75 2654.34 1055.31 2654.39 1055.3 2632.89 1057.99 2632.93 1057.99 2612.18 1060.74 2612.26 1060.73 2592.38 1063.66 2592.43 1063.66 2573.5 1066.66 2573.57 1066.64 2555.51 1069.77 2555.59 1069.75 2538.59 1073 2538.67 1072.99 2522.67 1076.3 2522.77 1076.28 2507.96 1079.65 2508.09 1079.62 2494.4 1083.12 2494.54 1083.08 2482.04 1086.65 2482.19 1086.6 2471 1090.16 2471.24 1090.08 2461.37 1093.77 2462.28 1093.32 2453.18 1098.96 2447.75 1090.19 2457.28 1084.29 2467.75 1080.38 2479.14 1076.75 2491.78 1073.15 2505.6 1069.61 2520.53 1066.21 2536.62 1062.88 2553.7 1059.61 2571.85 1056.48 2590.85 1053.47 2610.79 1050.52 2631.59 1047.76 2653.14 1045.07 2675.44 1042.5 2698.43 1040.12 2722.04 1037.86 2746.27 1035.8 2771 1033.86 2796.17 1032.1 2821.83 1030.54 2847.81 1029.1 2900.7 1026.91 2954.47 1025.53 3008.65 1025.03 3062.71 1024.59 3062.62 1024.6 3116.31 1023.22 3116.23 1023.22 3169.04 1021.04 3168.98 1021.04 3194.92 1019.66 3194.87 1019.67 3220.44 1018.1 3220.39 1018.11 3245.58 1016.36 3245.54 1016.36 3270.22 1014.42 3270.19 1014.43 3294.31 1012.36 3294.26 1012.37 3317.89 1010.12 3317.85 1010.12 3340.78 1007.75 3340.72 1007.75 3362.97 1005.19 3362.92 1005.2 3384.42 1002.51 3384.39 1002.51 3405.14 999.764 3405.06 999.774 3424.94 996.837 3424.88 996.845 3443.82 993.845 3443.75 993.857 3461.81 990.732 3461.72 990.748 3478.72 987.498 3478.64 987.514 3494.58 984.202 3494.49 984.222 3509.36 980.847 3509.22 980.88 3522.91 977.38 3522.78 977.416 3535.28 973.854 3535.12 973.899 3546.31 970.337 3546.07 970.42 3555.95 966.732 3555.7 966.832 3564.2 963.145 3563.83 963.321 3570.9 959.571 3570.58 959.753 3573.58 957.878 3573.32 958.054 3575.94 956.179 3575.64 956.414 3577.89 954.539 3577.48 954.916 3579.29 953.041 3578.86 953.553 3580.3 951.615 3579.95 952.146 3581.02 950.271 3580.59 951.23 3581.22 949.292 3581 950.362 3581.18 948.487ZM2464.5 1102.88 2431 1111.48 2444.22 1079.52Z"/><path d="M0-5.15625 12.3125-5.15625 24.1875-5.15625 35.3125-5.15625 40.471-5.15625 45.317-5.09332 45.25-5.09375 49.6875-5.09375 53.6875-5.09375 57.1875-5.09375 60.1875-5.09375 62.6545-5.09375 64.4965-5.02797 64.3125-5.03125 65.4375-5.03125 65.8125-5.03125 66.1875-5.03125 67.4045-5.03125 69.2465-4.96546 69.0625-4.96875 71.5-4.96875 74.4375-4.96875 77.9375-4.96875 81.9375-4.96875 86.4085-4.96875 91.2545-4.90582 91.1875-4.90625 96.375-4.90625 105.841-4.90708 105.842 5.40542 96.375 5.40625 91.154 5.40625 86.308 5.34332 86.375 5.34375 81.9375 5.34375 77.9375 5.34375 74.4375 5.34375 71.5 5.34375 68.9705 5.34375 67.1285 5.27796 67.3125 5.28125 66.1875 5.28125 65.8125 5.28125 65.4375 5.28125 64.2205 5.28125 62.3785 5.21547 62.5625 5.21875 60.1875 5.21875 57.1875 5.21875 53.6875 5.21875 49.6875 5.21875 45.2165 5.21875 40.3705 5.15582 40.4375 5.15625 35.3125 5.15625 24.1875 5.15625 12.3125 5.15625 0 5.15625ZM100.683-15.2188 131.623 0.245046 100.687 15.7188Z" transform="matrix(1 0 0 -1 2926 1233.25)"/><path d="M3676.57 1390.88 3676.21 1392.97 3675.05 1395.51 3673.29 1397.76 3671.24 1399.64 3668.88 1401.31 3666.17 1402.96 3663.12 1404.48 3659.8 1405.94 3656.05 1407.45 3651.9 1408.9 3647.47 1410.25 3642.67 1411.66 3632.08 1414.39 3620.13 1417.11 3606.82 1419.76 3592.28 1422.34 3576.51 1424.85 3559.58 1427.29 3541.52 1429.74 3522.46 1432.06 3502.35 1434.25 3481.31 1436.44 3459.39 1438.51 3436.6 1440.45 3413.07 1442.33 3388.85 1444.14 3363.88 1445.77 3338.35 1447.34 3312.25 1448.71 3285.67 1450.03 3258.57 1451.21 3231.16 1452.22 3175.3 1453.84 3118.61 1454.84 3061.45 1455.16 3004.15 1455.59 3004.21 1455.59 2947.52 1456.59 2947.57 1456.59 2891.76 1458.15 2891.81 1458.15 2864.38 1459.22 2864.4 1459.21 2837.4 1460.4 2810.79 1461.65 2810.84 1461.65 2784.77 1463.09 2784.8 1463.08 2759.3 1464.65 2759.32 1464.65 2734.39 1466.27 2734.42 1466.27 2710.17 1468.02 2710.21 1468.02 2686.71 1469.89 2686.75 1469.89 2664.07 1471.89 2664.1 1471.88 2642.16 1473.95 2642.2 1473.94 2621.2 1476.07 2621.25 1476.06 2601.25 1478.31 2601.3 1478.31 2582.23 1480.62 2582.29 1480.61 2564.29 1482.99 2564.35 1482.98 2547.48 1485.42 2547.57 1485.4 2531.88 1487.96 2531.95 1487.95 2517.52 1490.51 2517.62 1490.49 2504.43 1493.12 2504.54 1493.1 2492.73 1495.72 2492.9 1495.68 2482.46 1498.37 2483.32 1498.06 2475.38 1501.7 2471.09 1492.32 2479.45 1488.5 2490.41 1485.67 2502.36 1483.02 2515.66 1480.37 2530.19 1477.79 2545.95 1475.22 2562.91 1472.77 2580.97 1470.38 2600.08 1468.07 2620.13 1465.81 2641.18 1463.68 2663.15 1461.62 2685.87 1459.61 2709.41 1457.73 2733.7 1455.98 2758.66 1454.35 2784.19 1452.79 2810.29 1451.35 2836.95 1450.1 2863.96 1448.91 2891.44 1447.85 2947.31 1446.28 3004.05 1445.28 3061.4 1444.84 3118.52 1444.53 3118.46 1444.53 3175.09 1443.53 3175.03 1443.53 3230.84 1441.91 3230.8 1441.91 3258.18 1440.91 3258.14 1440.91 3285.2 1439.72 3285.17 1439.73 3311.73 1438.41 3311.72 1438.41 3337.78 1437.04 3337.74 1437.04 3363.24 1435.48 3363.22 1435.48 3388.15 1433.85 3388.1 1433.86 3412.29 1432.05 3412.27 1432.05 3435.77 1430.17 3435.74 1430.18 3458.49 1428.24 3458.44 1428.24 3480.32 1426.18 3480.27 1426.18 3501.27 1424 3501.24 1424 3521.31 1421.81 3521.24 1421.82 3540.24 1419.51 3540.17 1419.52 3558.17 1417.08 3558.13 1417.08 3575 1414.65 3574.93 1414.66 3590.61 1412.16 3590.53 1412.17 3604.96 1409.61 3604.86 1409.63 3618.04 1407.01 3617.91 1407.04 3629.72 1404.35 3629.58 1404.38 3640.02 1401.69 3639.85 1401.74 3644.54 1400.37 3644.49 1400.38 3648.8 1399.07 3648.6 1399.13 3652.54 1397.76 3652.31 1397.84 3655.87 1396.41 3655.72 1396.47 3658.85 1395.09 3658.62 1395.2 3661.37 1393.83 3661.01 1394.03 3663.38 1392.59 3663.07 1392.8 3665 1391.42 3664.5 1391.82 3666 1390.45 3665.43 1391.07 3666.55 1389.64 3665.92 1390.68 3666.54 1389.3 3666.16 1390.55 3666.41 1389.12ZM2485.51 1507.74 2451 1510.06 2469.85 1481.06Z"/><path d="M881 1299.67C881 1265.61 908.61 1238 942.668 1238L1365.17 1238 1365.17 1238 1572.67 1238 1649.33 1238C1683.39 1238 1711 1265.61 1711 1299.67L1711 1453.83 1711 1453.83 1711 1546.33 1711 1546.33C1711 1580.39 1683.39 1608 1649.33 1608L1572.67 1608 1733.4 1695.91 1365.17 1608 942.668 1608C908.61 1608 881 1580.39 881 1546.33L881 1546.33 881 1453.83 881 1453.83Z" stroke="#000000" stroke-width="10.3125" stroke-miterlimit="8" fill="none" fill-rule="evenodd"/><text font-family="Consolas,Consolas_MSFontService,sans-serif" font-weight="400" font-size="83" transform="matrix(1 0 0 1 931.785 1352)">Luke Diaz bought </text><text font-family="Consolas,Consolas_MSFontService,sans-serif" font-weight="400" font-size="83" transform="matrix(1 0 0 1 931.785 1451)">a Wooden Saw, a </text><text font-family="Consolas,Consolas_MSFontService,sans-serif" font-weight="400" font-size="83" transform="matrix(1 0 0 1 931.785 1550)">white door,… </text></g></svg>