<svg width="842" height="572" viewBox="0 0 842 572" fill="none" xmlns="http://www.w3.org/2000/svg">
<rect x="0.5" y="0.5" width="841" height="571" fill="white"/>
<rect x="0.5" y="0.5" width="841" height="571" fill="url(#paint0_radial_1_353)" fill-opacity="0.075"/>
<rect x="0.5" y="0.5" width="841" height="571" stroke="#14063D"/>
<g opacity="0.5">
<path d="M419.098 77.8541C419.697 76.0115 422.303 76.0115 422.902 77.8541L471.067 226.089C471.334 226.913 472.102 227.471 472.969 227.471H628.832C630.77 227.471 631.575 229.95 630.008 231.089L503.912 322.704C503.211 323.213 502.917 324.116 503.185 324.94L551.35 473.175C551.948 475.017 549.839 476.55 548.272 475.411L422.176 383.796C421.475 383.287 420.525 383.287 419.824 383.796L293.728 475.411C292.161 476.55 290.052 475.017 290.65 473.175L338.815 324.94C339.083 324.116 338.789 323.213 338.088 322.704L211.992 231.089C210.425 229.95 211.23 227.471 213.168 227.471H369.031C369.898 227.471 370.666 226.913 370.933 226.089L419.098 77.8541Z" fill="url(#paint1_radial_1_353)"/>
<path d="M419.811 78.0859C420.185 76.9342 421.815 76.9342 422.189 78.0859L470.353 226.321C470.721 227.454 471.777 228.221 472.969 228.221H628.832C630.043 228.221 630.547 229.771 629.567 230.482L503.471 322.097C502.507 322.797 502.104 324.038 502.472 325.171L550.636 473.406C551.01 474.558 549.692 475.516 548.713 474.804L422.616 383.19C421.653 382.489 420.347 382.489 419.384 383.19L293.287 474.804C292.308 475.516 290.99 474.558 291.364 473.406L339.528 325.171C339.896 324.038 339.493 322.797 338.529 322.097L212.433 230.482C211.453 229.771 211.957 228.221 213.168 228.221H369.031C370.223 228.221 371.279 227.454 371.647 226.321L419.811 78.0859Z" stroke="url(#paint2_linear_1_353)" stroke-opacity="0.33" stroke-width="1.5"/>
</g>
<path d="M398.5 272.75C398.5 269.298 395.702 266.5 392.25 266.5H369.75C366.298 266.5 363.5 269.298 363.5 272.75V295.25C363.5 298.702 366.298 301.5 369.75 301.5H392.25C395.702 301.5 398.5 298.702 398.5 295.25V272.75ZM366 295.25V291.5H373.5V299H369.75L369.389 298.983C367.487 298.801 366 297.199 366 295.25ZM386 291.5V299H376V291.5H386ZM392.25 299H388.5V291.5H396V295.25L395.983 295.611C395.801 297.513 394.199 299 392.25 299ZM386 279V289H376V279H386ZM388.5 279H396V289H388.5V279ZM386 269V276.5H376V269H386ZM388.5 269H392.25L392.611 269.017C394.513 269.199 396 270.801 396 272.75V276.5H388.5V269ZM373.5 269V276.5H366V272.75L366.017 272.389C366.199 270.487 367.801 269 369.75 269H373.5ZM373.5 279V289H366V279H373.5Z" fill="url(#paint3_linear_1_353)"/>
<path d="M413.148 282.355V278.605C413.828 279.176 414.566 279.605 415.363 279.895C416.16 280.176 416.965 280.316 417.777 280.316C418.254 280.316 418.668 280.273 419.02 280.188C419.379 280.102 419.676 279.984 419.91 279.836C420.152 279.68 420.332 279.5 420.449 279.297C420.566 279.086 420.625 278.859 420.625 278.617C420.625 278.289 420.531 277.996 420.344 277.738C420.156 277.48 419.898 277.242 419.57 277.023C419.25 276.805 418.867 276.594 418.422 276.391C417.977 276.188 417.496 275.98 416.98 275.77C415.668 275.223 414.688 274.555 414.039 273.766C413.398 272.977 413.078 272.023 413.078 270.906C413.078 270.031 413.254 269.281 413.605 268.656C413.957 268.023 414.434 267.504 415.035 267.098C415.645 266.691 416.348 266.395 417.145 266.207C417.941 266.012 418.785 265.914 419.676 265.914C420.551 265.914 421.324 265.969 421.996 266.078C422.676 266.18 423.301 266.34 423.871 266.559V270.062C423.59 269.867 423.281 269.695 422.945 269.547C422.617 269.398 422.277 269.277 421.926 269.184C421.574 269.082 421.223 269.008 420.871 268.961C420.527 268.914 420.199 268.891 419.887 268.891C419.457 268.891 419.066 268.934 418.715 269.02C418.363 269.098 418.066 269.211 417.824 269.359C417.582 269.508 417.395 269.688 417.262 269.898C417.129 270.102 417.062 270.332 417.062 270.59C417.062 270.871 417.137 271.125 417.285 271.352C417.434 271.57 417.645 271.781 417.918 271.984C418.191 272.18 418.523 272.375 418.914 272.57C419.305 272.758 419.746 272.953 420.238 273.156C420.91 273.438 421.512 273.738 422.043 274.059C422.582 274.371 423.043 274.727 423.426 275.125C423.809 275.523 424.102 275.98 424.305 276.496C424.508 277.004 424.609 277.598 424.609 278.277C424.609 279.215 424.43 280.004 424.07 280.645C423.719 281.277 423.238 281.793 422.629 282.191C422.02 282.582 421.309 282.863 420.496 283.035C419.691 283.207 418.84 283.293 417.941 283.293C417.02 283.293 416.141 283.215 415.305 283.059C414.477 282.902 413.758 282.668 413.148 282.355ZM436.996 283H433.492V281.277H433.445C432.641 282.621 431.449 283.293 429.871 283.293C428.707 283.293 427.789 282.965 427.117 282.309C426.453 281.645 426.121 280.762 426.121 279.66C426.121 277.332 427.5 275.988 430.258 275.629L433.516 275.195C433.516 273.883 432.805 273.227 431.383 273.227C429.953 273.227 428.594 273.652 427.305 274.504V271.715C427.82 271.449 428.523 271.215 429.414 271.012C430.312 270.809 431.129 270.707 431.863 270.707C435.285 270.707 436.996 272.414 436.996 275.828V283ZM433.516 278.125V277.316L431.336 277.598C430.133 277.754 429.531 278.297 429.531 279.227C429.531 279.648 429.676 279.996 429.965 280.27C430.262 280.535 430.66 280.668 431.16 280.668C431.855 280.668 432.422 280.43 432.859 279.953C433.297 279.469 433.516 278.859 433.516 278.125ZM443.629 283H439.926V265.234H443.629V283ZM457.527 278.055H449.699C449.824 279.797 450.922 280.668 452.992 280.668C454.312 280.668 455.473 280.355 456.473 279.73V282.402C455.363 282.996 453.922 283.293 452.148 283.293C450.211 283.293 448.707 282.758 447.637 281.688C446.566 280.609 446.031 279.109 446.031 277.188C446.031 275.195 446.609 273.617 447.766 272.453C448.922 271.289 450.344 270.707 452.031 270.707C453.781 270.707 455.133 271.227 456.086 272.266C457.047 273.305 457.527 274.715 457.527 276.496V278.055ZM454.094 275.781C454.094 274.062 453.398 273.203 452.008 273.203C451.414 273.203 450.898 273.449 450.461 273.941C450.031 274.434 449.77 275.047 449.676 275.781H454.094ZM458.945 282.684V279.684C459.555 280.051 460.16 280.324 460.762 280.504C461.371 280.684 461.945 280.773 462.484 280.773C463.141 280.773 463.656 280.684 464.031 280.504C464.414 280.324 464.605 280.051 464.605 279.684C464.605 279.449 464.52 279.254 464.348 279.098C464.176 278.941 463.953 278.805 463.68 278.688C463.414 278.57 463.121 278.465 462.801 278.371C462.48 278.277 462.172 278.172 461.875 278.055C461.398 277.875 460.977 277.684 460.609 277.48C460.25 277.27 459.945 277.027 459.695 276.754C459.453 276.48 459.266 276.164 459.133 275.805C459.008 275.445 458.945 275.02 458.945 274.527C458.945 273.855 459.09 273.277 459.379 272.793C459.676 272.309 460.066 271.914 460.551 271.609C461.043 271.297 461.602 271.07 462.227 270.93C462.859 270.781 463.516 270.707 464.195 270.707C464.727 270.707 465.266 270.75 465.812 270.836C466.359 270.914 466.898 271.031 467.43 271.188V274.047C466.961 273.773 466.457 273.57 465.918 273.438C465.387 273.297 464.863 273.227 464.348 273.227C464.105 273.227 463.875 273.25 463.656 273.297C463.445 273.336 463.258 273.398 463.094 273.484C462.93 273.562 462.801 273.668 462.707 273.801C462.613 273.926 462.566 274.07 462.566 274.234C462.566 274.453 462.637 274.641 462.777 274.797C462.918 274.953 463.102 275.09 463.328 275.207C463.555 275.316 463.805 275.418 464.078 275.512C464.359 275.598 464.637 275.688 464.91 275.781C465.402 275.953 465.848 276.141 466.246 276.344C466.645 276.547 466.984 276.785 467.266 277.059C467.555 277.332 467.773 277.652 467.922 278.02C468.078 278.387 468.156 278.824 468.156 279.332C468.156 280.043 468 280.652 467.688 281.16C467.383 281.66 466.973 282.07 466.457 282.391C465.949 282.703 465.359 282.93 464.688 283.07C464.023 283.219 463.332 283.293 462.613 283.293C461.293 283.293 460.07 283.09 458.945 282.684Z" fill="url(#paint4_linear_1_353)"/>
<path d="M417.703 292.633C417.458 292.492 417.18 292.422 416.867 292.422C415.987 292.422 415.547 292.919 415.547 293.914V295H417.406V296.422H415.555V303H413.742V296.422H412.375V295H413.742V293.703C413.742 292.859 414.018 292.195 414.57 291.711C415.122 291.221 415.812 290.977 416.641 290.977C417.089 290.977 417.443 291.026 417.703 291.125V292.633ZM424.836 303H423.078V301.75H423.047C422.495 302.708 421.685 303.188 420.617 303.188C419.831 303.188 419.214 302.974 418.766 302.547C418.323 302.12 418.102 301.555 418.102 300.852C418.102 299.341 418.971 298.461 420.711 298.211L423.086 297.875C423.086 296.734 422.544 296.164 421.461 296.164C420.508 296.164 419.648 296.492 418.883 297.148V295.562C419.727 295.062 420.701 294.812 421.805 294.812C423.826 294.812 424.836 295.807 424.836 297.797V303ZM423.086 299.07L421.406 299.305C420.885 299.372 420.492 299.5 420.227 299.688C419.966 299.87 419.836 300.193 419.836 300.656C419.836 300.995 419.956 301.273 420.195 301.492C420.44 301.706 420.766 301.812 421.172 301.812C421.724 301.812 422.18 301.62 422.539 301.234C422.904 300.844 423.086 300.354 423.086 299.766V299.07ZM432.781 302.633C432.141 303.003 431.383 303.188 430.508 303.188C429.32 303.188 428.362 302.818 427.633 302.078C426.904 301.333 426.539 300.37 426.539 299.188C426.539 297.87 426.93 296.812 427.711 296.016C428.497 295.214 429.547 294.812 430.859 294.812C431.589 294.812 432.232 294.94 432.789 295.195V296.883C432.232 296.466 431.638 296.258 431.008 296.258C430.242 296.258 429.615 296.518 429.125 297.039C428.635 297.555 428.391 298.232 428.391 299.07C428.391 299.898 428.62 300.552 429.078 301.031C429.542 301.51 430.161 301.75 430.938 301.75C431.589 301.75 432.203 301.518 432.781 301.055V302.633ZM438.805 302.914C438.451 303.091 437.984 303.18 437.406 303.18C435.854 303.18 435.078 302.435 435.078 300.945V296.422H433.742V295H435.078V293.148L436.891 292.633V295H438.805V296.422H436.891V300.422C436.891 300.896 436.977 301.234 437.148 301.438C437.32 301.641 437.607 301.742 438.008 301.742C438.315 301.742 438.581 301.654 438.805 301.477V302.914ZM448.992 302.914C448.638 303.091 448.172 303.18 447.594 303.18C446.042 303.18 445.266 302.435 445.266 300.945V296.422H443.93V295H445.266V293.148L447.078 292.633V295H448.992V296.422H447.078V300.422C447.078 300.896 447.164 301.234 447.336 301.438C447.508 301.641 447.794 301.742 448.195 301.742C448.503 301.742 448.768 301.654 448.992 301.477V302.914ZM456.695 303H454.938V301.75H454.906C454.354 302.708 453.544 303.188 452.477 303.188C451.69 303.188 451.073 302.974 450.625 302.547C450.182 302.12 449.961 301.555 449.961 300.852C449.961 299.341 450.831 298.461 452.57 298.211L454.945 297.875C454.945 296.734 454.404 296.164 453.32 296.164C452.367 296.164 451.508 296.492 450.742 297.148V295.562C451.586 295.062 452.56 294.812 453.664 294.812C455.685 294.812 456.695 295.807 456.695 297.797V303ZM454.945 299.07L453.266 299.305C452.745 299.372 452.352 299.5 452.086 299.688C451.826 299.87 451.695 300.193 451.695 300.656C451.695 300.995 451.815 301.273 452.055 301.492C452.299 301.706 452.625 301.812 453.031 301.812C453.583 301.812 454.039 301.62 454.398 301.234C454.763 300.844 454.945 300.354 454.945 299.766V299.07ZM460.758 301.844H460.727V303H458.914V291.156H460.727V296.406H460.758C461.378 295.344 462.284 294.812 463.477 294.812C464.487 294.812 465.276 295.172 465.844 295.891C466.417 296.604 466.703 297.562 466.703 298.766C466.703 300.104 466.383 301.177 465.742 301.984C465.102 302.786 464.227 303.188 463.117 303.188C462.076 303.188 461.289 302.74 460.758 301.844ZM460.711 298.664V299.656C460.711 300.24 460.896 300.734 461.266 301.141C461.641 301.547 462.115 301.75 462.688 301.75C463.359 301.75 463.885 301.49 464.266 300.969C464.651 300.443 464.844 299.711 464.844 298.773C464.844 297.987 464.664 297.372 464.305 296.93C463.951 296.482 463.469 296.258 462.859 296.258C462.214 296.258 461.693 296.487 461.297 296.945C460.906 297.404 460.711 297.977 460.711 298.664ZM470.375 303H468.555V291.156H470.375V303ZM479.516 299.492H474.062C474.083 300.232 474.31 300.802 474.742 301.203C475.18 301.604 475.779 301.805 476.539 301.805C477.393 301.805 478.177 301.549 478.891 301.039V302.5C478.161 302.958 477.198 303.188 476 303.188C474.823 303.188 473.898 302.826 473.227 302.102C472.56 301.372 472.227 300.349 472.227 299.031C472.227 297.786 472.594 296.773 473.328 295.992C474.068 295.206 474.984 294.812 476.078 294.812C477.172 294.812 478.018 295.164 478.617 295.867C479.216 296.57 479.516 297.547 479.516 298.797V299.492ZM477.766 298.211C477.76 297.56 477.607 297.055 477.305 296.695C477.003 296.331 476.586 296.148 476.055 296.148C475.534 296.148 475.091 296.339 474.727 296.719C474.367 297.099 474.146 297.596 474.062 298.211H477.766Z" fill="url(#paint5_linear_1_353)"/>
<path d="M321.75 66C321.75 57.5777 328.578 50.75 337 50.75H505C513.422 50.75 520.25 57.5777 520.25 66V95C520.25 103.422 513.422 110.25 505 110.25H337C328.578 110.25 321.75 103.422 321.75 95V66Z" fill="white"/>
<path d="M321.75 66C321.75 57.5777 328.578 50.75 337 50.75H505C513.422 50.75 520.25 57.5777 520.25 66V95C520.25 103.422 513.422 110.25 505 110.25H337C328.578 110.25 321.75 103.422 321.75 95V66Z" stroke="#E1E1E1" stroke-width="1.5"/>
<path d="M365.75 72.625C365.75 70.2088 363.791 68.25 361.375 68.25H345.625C343.209 68.25 341.25 70.2088 341.25 72.625V88.375C341.25 90.7912 343.209 92.75 345.625 92.75H361.375C363.791 92.75 365.75 90.7912 365.75 88.375V72.625ZM343 88.375V85.75H348.25V91H345.625L345.372 90.988C344.041 90.8608 343 89.7395 343 88.375ZM357 85.75V91H350V85.75H357ZM361.375 91H358.75V85.75H364V88.375L363.988 88.6278C363.861 89.9589 362.739 91 361.375 91ZM357 77V84H350V77H357ZM358.75 77H364V84H358.75V77ZM357 70V75.25H350V70H357ZM358.75 70H361.375L361.628 70.012C362.959 70.1392 364 71.2605 364 72.625V75.25H358.75V70ZM348.25 70V75.25H343V72.625L343.012 72.3722C343.139 71.0411 344.261 70 345.625 70H348.25ZM348.25 77V84H343V77H348.25Z" fill="#242424"/>
<path d="M387.383 75.5V64.2969H390.617C394.747 64.2969 396.812 66.1172 396.812 69.7578C396.812 71.487 396.24 72.8776 395.094 73.9297C393.948 74.9766 392.411 75.5 390.484 75.5H387.383ZM389.234 65.875V73.9297H390.719C392.026 73.9297 393.042 73.5703 393.766 72.8516C394.495 72.1328 394.859 71.1172 394.859 69.8047C394.859 67.1849 393.503 65.875 390.789 65.875H389.234ZM404.805 75.5H403.047V74.25H403.016C402.464 75.2083 401.654 75.6875 400.586 75.6875C399.799 75.6875 399.182 75.474 398.734 75.0469C398.292 74.6198 398.07 74.0547 398.07 73.3516C398.07 71.8411 398.94 70.9609 400.68 70.7109L403.055 70.375C403.055 69.2344 402.513 68.6641 401.43 68.6641C400.477 68.6641 399.617 68.9922 398.852 69.6484V68.0625C399.695 67.5625 400.669 67.3125 401.773 67.3125C403.794 67.3125 404.805 68.3073 404.805 70.2969V75.5ZM403.055 71.5703L401.375 71.8047C400.854 71.8724 400.461 72 400.195 72.1875C399.935 72.3698 399.805 72.6927 399.805 73.1562C399.805 73.4948 399.924 73.7734 400.164 73.9922C400.409 74.2057 400.734 74.3125 401.141 74.3125C401.693 74.3125 402.148 74.1198 402.508 73.7344C402.872 73.3438 403.055 72.8542 403.055 72.2656V71.5703ZM411.242 75.4141C410.888 75.5911 410.422 75.6797 409.844 75.6797C408.292 75.6797 407.516 74.9349 407.516 73.4453V68.9219H406.18V67.5H407.516V65.6484L409.328 65.1328V67.5H411.242V68.9219H409.328V72.9219C409.328 73.3958 409.414 73.7344 409.586 73.9375C409.758 74.1406 410.044 74.2422 410.445 74.2422C410.753 74.2422 411.018 74.1536 411.242 73.9766V75.4141ZM419.484 71.9922H414.031C414.052 72.7318 414.279 73.3021 414.711 73.7031C415.148 74.1042 415.747 74.3047 416.508 74.3047C417.362 74.3047 418.146 74.0495 418.859 73.5391V75C418.13 75.4583 417.167 75.6875 415.969 75.6875C414.792 75.6875 413.867 75.3255 413.195 74.6016C412.529 73.8724 412.195 72.849 412.195 71.5312C412.195 70.2865 412.562 69.2734 413.297 68.4922C414.036 67.7057 414.953 67.3125 416.047 67.3125C417.141 67.3125 417.987 67.6641 418.586 68.3672C419.185 69.0703 419.484 70.0469 419.484 71.2969V71.9922ZM417.734 70.7109C417.729 70.0599 417.576 69.5547 417.273 69.1953C416.971 68.8307 416.555 68.6484 416.023 68.6484C415.503 68.6484 415.06 68.8385 414.695 69.2188C414.336 69.599 414.115 70.0964 414.031 70.7109H417.734Z" fill="#333333"/>
<path d="M392.855 93.5H391.774V92.353H391.748C391.247 93.2231 390.474 93.6582 389.428 93.6582C388.58 93.6582 387.901 93.3572 387.391 92.7551C386.885 92.1487 386.633 91.3247 386.633 90.2832C386.633 89.167 386.914 88.2727 387.477 87.6003C388.039 86.928 388.788 86.5918 389.724 86.5918C390.652 86.5918 391.326 86.9565 391.748 87.686H391.774V83.5068H392.855V93.5ZM391.774 90.448V89.4526C391.774 88.9077 391.594 88.4463 391.234 88.0684C390.874 87.6904 390.417 87.5015 389.863 87.5015C389.204 87.5015 388.685 87.7432 388.307 88.2266C387.929 88.71 387.74 89.3779 387.74 90.2305C387.74 91.0083 387.92 91.6235 388.281 92.0762C388.646 92.5244 389.133 92.7485 389.744 92.7485C390.346 92.7485 390.834 92.531 391.208 92.0959C391.585 91.6609 391.774 91.1116 391.774 90.448ZM395.598 85.0361C395.404 85.0361 395.24 84.9702 395.103 84.8384C394.967 84.7065 394.899 84.5396 394.899 84.3374C394.899 84.1353 394.967 83.9683 395.103 83.8364C395.24 83.7002 395.404 83.6321 395.598 83.6321C395.795 83.6321 395.962 83.7002 396.099 83.8364C396.239 83.9683 396.31 84.1353 396.31 84.3374C396.31 84.5308 396.239 84.6956 396.099 84.8318C395.962 84.968 395.795 85.0361 395.598 85.0361ZM396.125 93.5H395.044V86.75H396.125V93.5ZM407.898 93.5H406.817V89.624C406.817 88.877 406.7 88.3364 406.468 88.0024C406.239 87.6685 405.852 87.5015 405.307 87.5015C404.846 87.5015 404.453 87.7124 404.127 88.1343C403.807 88.5562 403.646 89.0615 403.646 89.6504V93.5H402.565V89.4922C402.565 88.165 402.053 87.5015 401.029 87.5015C400.555 87.5015 400.164 87.7014 399.856 88.1013C399.548 88.4968 399.395 89.0132 399.395 89.6504V93.5H398.313V86.75H399.395V87.8179H399.421C399.9 87.0005 400.599 86.5918 401.517 86.5918C401.979 86.5918 402.381 86.7214 402.723 86.9807C403.066 87.2356 403.301 87.5718 403.429 87.9893C403.93 87.0576 404.677 86.5918 405.67 86.5918C407.155 86.5918 407.898 87.5081 407.898 89.3406V93.5ZM415.366 90.3953H410.601C410.618 91.1467 410.82 91.7268 411.207 92.1355C411.594 92.5442 412.125 92.7485 412.802 92.7485C413.562 92.7485 414.261 92.498 414.898 91.9971V93.0122C414.305 93.4429 413.521 93.6582 412.545 93.6582C411.592 93.6582 410.842 93.3528 410.297 92.7419C409.752 92.1267 409.48 91.2632 409.48 90.1514C409.48 89.1011 409.777 88.2463 410.37 87.5872C410.968 86.9236 411.708 86.5918 412.591 86.5918C413.475 86.5918 414.158 86.8774 414.641 87.4487C415.125 88.02 415.366 88.8132 415.366 89.8284V90.3953ZM414.259 89.479C414.255 88.855 414.103 88.3694 413.804 88.0222C413.51 87.675 413.099 87.5015 412.572 87.5015C412.062 87.5015 411.629 87.6838 411.273 88.0486C410.917 88.4133 410.697 88.8901 410.614 89.479H414.259ZM422.611 93.5H421.53V89.6504C421.53 88.2178 421.007 87.5015 419.961 87.5015C419.42 87.5015 418.972 87.7058 418.616 88.1145C418.265 88.5188 418.089 89.0308 418.089 89.6504V93.5H417.008V86.75H418.089V87.8706H418.115C418.625 87.0181 419.363 86.5918 420.33 86.5918C421.068 86.5918 421.633 86.8313 422.024 87.3103C422.415 87.7849 422.611 88.4727 422.611 89.3735V93.5ZM424.246 93.2561V92.0959C424.834 92.531 425.483 92.7485 426.19 92.7485C427.139 92.7485 427.614 92.4321 427.614 91.7993C427.614 91.6191 427.572 91.4675 427.489 91.3445C427.41 91.217 427.3 91.105 427.159 91.0083C427.023 90.9116 426.86 90.8259 426.671 90.7512C426.487 90.6721 426.287 90.5908 426.072 90.5073C425.773 90.3887 425.509 90.27 425.281 90.1514C425.056 90.0283 424.867 89.8921 424.714 89.7427C424.564 89.5889 424.45 89.4153 424.371 89.2219C424.296 89.0286 424.259 88.8022 424.259 88.543C424.259 88.2266 424.331 87.9475 424.476 87.7058C424.621 87.4597 424.815 87.2554 425.056 87.0928C425.298 86.9258 425.573 86.8005 425.88 86.717C426.192 86.6335 426.513 86.5918 426.843 86.5918C427.427 86.5918 427.95 86.6929 428.412 86.895V87.9893C427.915 87.6641 427.344 87.5015 426.698 87.5015C426.496 87.5015 426.313 87.5256 426.151 87.574C425.988 87.6179 425.847 87.6816 425.729 87.7651C425.615 87.8486 425.524 87.9497 425.458 88.0684C425.397 88.1826 425.366 88.3101 425.366 88.4507C425.366 88.6265 425.397 88.7737 425.458 88.8923C425.524 89.011 425.619 89.1165 425.742 89.2087C425.865 89.301 426.014 89.3845 426.19 89.4592C426.366 89.5339 426.566 89.6152 426.79 89.7031C427.089 89.8174 427.357 89.936 427.594 90.0591C427.832 90.1777 428.034 90.314 428.201 90.4678C428.368 90.6172 428.495 90.7908 428.583 90.9885C428.675 91.1863 428.721 91.4214 428.721 91.6938C428.721 92.0278 428.647 92.3179 428.497 92.564C428.352 92.8101 428.157 93.0144 427.911 93.177C427.665 93.3396 427.381 93.4604 427.06 93.5396C426.74 93.6187 426.403 93.6582 426.052 93.6582C425.357 93.6582 424.755 93.5242 424.246 93.2561ZM430.943 85.0361C430.75 85.0361 430.585 84.9702 430.448 84.8384C430.312 84.7065 430.244 84.5396 430.244 84.3374C430.244 84.1353 430.312 83.9683 430.448 83.8364C430.585 83.7002 430.75 83.6321 430.943 83.6321C431.141 83.6321 431.308 83.7002 431.444 83.8364C431.584 83.9683 431.655 84.1353 431.655 84.3374C431.655 84.5308 431.584 84.6956 431.444 84.8318C431.308 84.968 431.141 85.0361 430.943 85.0361ZM431.47 93.5H430.389V86.75H431.47V93.5ZM436.48 93.6582C435.482 93.6582 434.685 93.344 434.087 92.7156C433.494 92.0828 433.197 91.2456 433.197 90.2041C433.197 89.0703 433.507 88.1848 434.127 87.5476C434.746 86.9104 435.583 86.5918 436.638 86.5918C437.645 86.5918 438.429 86.9016 438.991 87.5212C439.558 88.1409 439.842 89 439.842 90.0986C439.842 91.1753 439.536 92.0388 438.926 92.6892C438.319 93.3352 437.504 93.6582 436.48 93.6582ZM436.559 87.5015C435.865 87.5015 435.315 87.7388 434.911 88.2134C434.507 88.6836 434.305 89.334 434.305 90.1646C434.305 90.9644 434.509 91.595 434.918 92.0564C435.326 92.5178 435.874 92.7485 436.559 92.7485C437.258 92.7485 437.794 92.5222 438.167 92.0696C438.545 91.6169 438.734 90.9731 438.734 90.1382C438.734 89.2944 438.545 88.644 438.167 88.187C437.794 87.73 437.258 87.5015 436.559 87.5015ZM447.172 93.5H446.091V89.6504C446.091 88.2178 445.568 87.5015 444.522 87.5015C443.981 87.5015 443.533 87.7058 443.177 88.1145C442.826 88.5188 442.65 89.0308 442.65 89.6504V93.5H441.569V86.75H442.65V87.8706H442.676C443.186 87.0181 443.924 86.5918 444.891 86.5918C445.629 86.5918 446.194 86.8313 446.585 87.3103C446.976 87.7849 447.172 88.4727 447.172 89.3735V93.5ZM456.051 93.4341C455.796 93.5747 455.46 93.645 455.042 93.645C453.86 93.645 453.269 92.9858 453.269 91.6675V87.6729H452.109V86.75H453.269V85.1021L454.35 84.7527V86.75H456.051V87.6729H454.35V91.4763C454.35 91.929 454.427 92.252 454.581 92.4453C454.735 92.6387 454.99 92.7354 455.346 92.7354C455.618 92.7354 455.853 92.6606 456.051 92.5112V93.4341ZM462.326 93.5H461.245V92.4453H461.219C460.749 93.2539 460.057 93.6582 459.143 93.6582C458.47 93.6582 457.943 93.4802 457.561 93.1243C457.183 92.7683 456.994 92.2959 456.994 91.707C456.994 90.4458 457.736 89.7119 459.222 89.5054L461.245 89.2219C461.245 88.075 460.782 87.5015 459.854 87.5015C459.042 87.5015 458.308 87.7783 457.653 88.332V87.2246C458.316 86.8027 459.081 86.5918 459.947 86.5918C461.533 86.5918 462.326 87.4312 462.326 89.1099V93.5ZM461.245 90.0854L459.617 90.3096C459.116 90.3799 458.738 90.5051 458.483 90.6853C458.229 90.8611 458.101 91.1753 458.101 91.6279C458.101 91.9575 458.218 92.2278 458.45 92.4387C458.688 92.6453 459.002 92.7485 459.393 92.7485C459.929 92.7485 460.371 92.5618 460.718 92.1882C461.07 91.8103 461.245 91.3335 461.245 90.7578V90.0854ZM465.471 92.5244H465.444V93.5H464.363V83.5068H465.444V87.9365H465.471C466.002 87.04 466.78 86.5918 467.804 86.5918C468.67 86.5918 469.347 86.895 469.834 87.5015C470.327 88.1035 470.573 88.9121 470.573 89.9272C470.573 91.0566 470.298 91.9619 469.749 92.6431C469.199 93.3198 468.448 93.6582 467.494 93.6582C466.602 93.6582 465.928 93.2803 465.471 92.5244ZM465.444 89.802V90.7446C465.444 91.3027 465.625 91.7773 465.985 92.1685C466.35 92.5552 466.811 92.7485 467.369 92.7485C468.024 92.7485 468.536 92.498 468.905 91.9971C469.279 91.4961 469.465 90.7996 469.465 89.9075C469.465 89.156 469.292 88.5671 468.945 88.1409C468.597 87.7146 468.127 87.5015 467.534 87.5015C466.906 87.5015 466.4 87.7212 466.018 88.1606C465.635 88.5957 465.444 89.1428 465.444 89.802ZM473.381 93.5H472.3V83.5068H473.381V93.5ZM480.994 90.3953H476.229C476.246 91.1467 476.448 91.7268 476.835 92.1355C477.222 92.5442 477.753 92.7485 478.43 92.7485C479.19 92.7485 479.889 92.498 480.526 91.9971V93.0122C479.933 93.4429 479.149 93.6582 478.173 93.6582C477.219 93.6582 476.47 93.3528 475.925 92.7419C475.38 92.1267 475.108 91.2632 475.108 90.1514C475.108 89.1011 475.405 88.2463 475.998 87.5872C476.595 86.9236 477.336 86.5918 478.219 86.5918C479.103 86.5918 479.786 86.8774 480.269 87.4487C480.753 88.02 480.994 88.8132 480.994 89.8284V90.3953ZM479.887 89.479C479.883 88.855 479.731 88.3694 479.432 88.0222C479.138 87.675 478.727 87.5015 478.199 87.5015C477.69 87.5015 477.257 87.6838 476.901 88.0486C476.545 88.4133 476.325 88.8901 476.242 89.479H479.887Z" fill="#333333"/>
<path d="M150.75 445C150.75 436.578 157.578 429.75 166 429.75H334C342.422 429.75 349.25 436.578 349.25 445V474C349.25 482.422 342.422 489.25 334 489.25H166C157.578 489.25 150.75 482.422 150.75 474V445Z" fill="white"/>
<path d="M150.75 445C150.75 436.578 157.578 429.75 166 429.75H334C342.422 429.75 349.25 436.578 349.25 445V474C349.25 482.422 342.422 489.25 334 489.25H166C157.578 489.25 150.75 482.422 150.75 474V445Z" stroke="#E1E1E1" stroke-width="1.5"/>
<path d="M194.75 451.625C194.75 449.209 192.791 447.25 190.375 447.25H174.625C172.209 447.25 170.25 449.209 170.25 451.625V467.375C170.25 469.791 172.209 471.75 174.625 471.75H190.375C192.791 471.75 194.75 469.791 194.75 467.375V451.625ZM172 467.375V464.75H177.25V470H174.625L174.372 469.988C173.041 469.861 172 468.739 172 467.375ZM186 464.75V470H179V464.75H186ZM190.375 470H187.75V464.75H193V467.375L192.988 467.628C192.861 468.959 191.739 470 190.375 470ZM186 456V463H179V456H186ZM187.75 456H193V463H187.75V456ZM186 449V454.25H179V449H186ZM187.75 449H190.375L190.628 449.012C191.959 449.139 193 450.261 193 451.625V454.25H187.75V449ZM177.25 449V454.25H172V451.625L172.012 451.372C172.139 450.041 173.261 449 174.625 449H177.25ZM177.25 456V463H172V456H177.25Z" fill="#242424"/>
<path d="M215.867 454.055V452.141C216.039 452.297 216.242 452.438 216.477 452.562C216.716 452.688 216.969 452.794 217.234 452.883C217.5 452.966 217.766 453.031 218.031 453.078C218.297 453.125 218.542 453.148 218.766 453.148C219.547 453.148 220.128 453.018 220.508 452.758C220.893 452.497 221.086 452.12 221.086 451.625C221.086 451.359 221.021 451.13 220.891 450.938C220.766 450.74 220.589 450.56 220.359 450.398C220.13 450.237 219.859 450.083 219.547 449.938C219.24 449.786 218.909 449.63 218.555 449.469C218.174 449.266 217.82 449.06 217.492 448.852C217.164 448.643 216.878 448.414 216.633 448.164C216.393 447.909 216.203 447.622 216.062 447.305C215.927 446.987 215.859 446.615 215.859 446.188C215.859 445.661 215.977 445.206 216.211 444.82C216.451 444.43 216.763 444.109 217.148 443.859C217.539 443.604 217.982 443.417 218.477 443.297C218.971 443.172 219.477 443.109 219.992 443.109C221.164 443.109 222.018 443.242 222.555 443.508V445.344C221.919 444.885 221.102 444.656 220.102 444.656C219.826 444.656 219.549 444.682 219.273 444.734C219.003 444.786 218.758 444.872 218.539 444.992C218.326 445.112 218.151 445.266 218.016 445.453C217.88 445.641 217.812 445.867 217.812 446.133C217.812 446.383 217.865 446.599 217.969 446.781C218.073 446.964 218.224 447.13 218.422 447.281C218.625 447.432 218.87 447.581 219.156 447.727C219.448 447.867 219.784 448.021 220.164 448.188C220.555 448.391 220.922 448.604 221.266 448.828C221.615 449.052 221.919 449.299 222.18 449.57C222.445 449.841 222.654 450.143 222.805 450.477C222.961 450.805 223.039 451.18 223.039 451.602C223.039 452.169 222.924 452.648 222.695 453.039C222.466 453.43 222.156 453.747 221.766 453.992C221.38 454.237 220.935 454.414 220.43 454.523C219.924 454.633 219.391 454.688 218.828 454.688C218.641 454.688 218.409 454.672 218.133 454.641C217.862 454.615 217.583 454.573 217.297 454.516C217.01 454.464 216.74 454.398 216.484 454.32C216.229 454.242 216.023 454.154 215.867 454.055ZM231.039 454.5H229.281V453.25H229.25C228.698 454.208 227.888 454.688 226.82 454.688C226.034 454.688 225.417 454.474 224.969 454.047C224.526 453.62 224.305 453.055 224.305 452.352C224.305 450.841 225.174 449.961 226.914 449.711L229.289 449.375C229.289 448.234 228.747 447.664 227.664 447.664C226.711 447.664 225.852 447.992 225.086 448.648V447.062C225.93 446.562 226.904 446.312 228.008 446.312C230.029 446.312 231.039 447.307 231.039 449.297V454.5ZM229.289 450.57L227.609 450.805C227.089 450.872 226.695 451 226.43 451.188C226.169 451.37 226.039 451.693 226.039 452.156C226.039 452.495 226.159 452.773 226.398 452.992C226.643 453.206 226.969 453.312 227.375 453.312C227.927 453.312 228.383 453.12 228.742 452.734C229.107 452.344 229.289 451.854 229.289 451.266V450.57ZM235.078 454.5H233.258V442.656H235.078V454.5ZM244.219 450.992H238.766C238.786 451.732 239.013 452.302 239.445 452.703C239.883 453.104 240.482 453.305 241.242 453.305C242.096 453.305 242.88 453.049 243.594 452.539V454C242.865 454.458 241.901 454.688 240.703 454.688C239.526 454.688 238.602 454.326 237.93 453.602C237.263 452.872 236.93 451.849 236.93 450.531C236.93 449.286 237.297 448.273 238.031 447.492C238.771 446.706 239.688 446.312 240.781 446.312C241.875 446.312 242.721 446.664 243.32 447.367C243.919 448.07 244.219 449.047 244.219 450.297V450.992ZM242.469 449.711C242.464 449.06 242.31 448.555 242.008 448.195C241.706 447.831 241.289 447.648 240.758 447.648C240.237 447.648 239.794 447.839 239.43 448.219C239.07 448.599 238.849 449.096 238.766 449.711H242.469ZM245.445 454.25V452.57C246.122 453.086 246.87 453.344 247.688 453.344C248.781 453.344 249.328 453.021 249.328 452.375C249.328 452.193 249.281 452.039 249.188 451.914C249.094 451.784 248.966 451.669 248.805 451.57C248.648 451.471 248.461 451.383 248.242 451.305C248.029 451.227 247.789 451.138 247.523 451.039C247.195 450.909 246.898 450.771 246.633 450.625C246.372 450.479 246.154 450.315 245.977 450.133C245.805 449.945 245.674 449.734 245.586 449.5C245.497 449.266 245.453 448.992 245.453 448.68C245.453 448.294 245.544 447.956 245.727 447.664C245.909 447.367 246.154 447.12 246.461 446.922C246.768 446.719 247.117 446.568 247.508 446.469C247.898 446.365 248.302 446.312 248.719 446.312C249.458 446.312 250.12 446.424 250.703 446.648V448.234C250.141 447.849 249.495 447.656 248.766 447.656C248.536 447.656 248.328 447.68 248.141 447.727C247.958 447.773 247.802 447.839 247.672 447.922C247.542 448.005 247.44 448.107 247.367 448.227C247.294 448.341 247.258 448.469 247.258 448.609C247.258 448.781 247.294 448.927 247.367 449.047C247.44 449.167 247.547 449.273 247.688 449.367C247.833 449.456 248.005 449.539 248.203 449.617C248.406 449.69 248.638 449.771 248.898 449.859C249.242 450 249.549 450.143 249.82 450.289C250.096 450.435 250.331 450.602 250.523 450.789C250.716 450.971 250.865 451.185 250.969 451.43C251.073 451.669 251.125 451.956 251.125 452.289C251.125 452.695 251.031 453.049 250.844 453.352C250.656 453.654 250.406 453.904 250.094 454.102C249.781 454.299 249.419 454.445 249.008 454.539C248.602 454.638 248.172 454.688 247.719 454.688C246.844 454.688 246.086 454.542 245.445 454.25ZM254.695 453.32H254.664V458.18H252.852V446.5H254.664V447.906H254.695C255.315 446.844 256.221 446.312 257.414 446.312C258.43 446.312 259.221 446.669 259.789 447.383C260.357 448.096 260.641 449.055 260.641 450.258C260.641 451.591 260.32 452.659 259.68 453.461C259.039 454.263 258.164 454.664 257.055 454.664C256.034 454.664 255.247 454.216 254.695 453.32ZM254.648 450.164V451.156C254.648 451.74 254.833 452.234 255.203 452.641C255.578 453.047 256.052 453.25 256.625 453.25C257.297 453.25 257.823 452.99 258.203 452.469C258.589 451.943 258.781 451.211 258.781 450.273C258.781 449.487 258.602 448.872 258.242 448.43C257.888 447.982 257.406 447.758 256.797 447.758C256.151 447.758 255.63 447.987 255.234 448.445C254.844 448.904 254.648 449.477 254.648 450.164ZM269.266 450.992H263.812C263.833 451.732 264.06 452.302 264.492 452.703C264.93 453.104 265.529 453.305 266.289 453.305C267.143 453.305 267.927 453.049 268.641 452.539V454C267.911 454.458 266.948 454.688 265.75 454.688C264.573 454.688 263.648 454.326 262.977 453.602C262.31 452.872 261.977 451.849 261.977 450.531C261.977 449.286 262.344 448.273 263.078 447.492C263.818 446.706 264.734 446.312 265.828 446.312C266.922 446.312 267.768 446.664 268.367 447.367C268.966 448.07 269.266 449.047 269.266 450.297V450.992ZM267.516 449.711C267.51 449.06 267.357 448.555 267.055 448.195C266.753 447.831 266.336 447.648 265.805 447.648C265.284 447.648 264.841 447.839 264.477 448.219C264.117 448.599 263.896 449.096 263.812 449.711H267.516ZM275.633 448.227C275.414 448.055 275.099 447.969 274.688 447.969C274.151 447.969 273.703 448.211 273.344 448.695C272.984 449.18 272.805 449.839 272.805 450.672V454.5H270.992V446.5H272.805V448.148H272.836C273.013 447.586 273.284 447.148 273.648 446.836C274.018 446.518 274.43 446.359 274.883 446.359C275.211 446.359 275.461 446.409 275.633 446.508V448.227ZM276.523 454.25V452.57C277.201 453.086 277.948 453.344 278.766 453.344C279.859 453.344 280.406 453.021 280.406 452.375C280.406 452.193 280.359 452.039 280.266 451.914C280.172 451.784 280.044 451.669 279.883 451.57C279.727 451.471 279.539 451.383 279.32 451.305C279.107 451.227 278.867 451.138 278.602 451.039C278.273 450.909 277.977 450.771 277.711 450.625C277.451 450.479 277.232 450.315 277.055 450.133C276.883 449.945 276.753 449.734 276.664 449.5C276.576 449.266 276.531 448.992 276.531 448.68C276.531 448.294 276.622 447.956 276.805 447.664C276.987 447.367 277.232 447.12 277.539 446.922C277.846 446.719 278.195 446.568 278.586 446.469C278.977 446.365 279.38 446.312 279.797 446.312C280.536 446.312 281.198 446.424 281.781 446.648V448.234C281.219 447.849 280.573 447.656 279.844 447.656C279.615 447.656 279.406 447.68 279.219 447.727C279.036 447.773 278.88 447.839 278.75 447.922C278.62 448.005 278.518 448.107 278.445 448.227C278.372 448.341 278.336 448.469 278.336 448.609C278.336 448.781 278.372 448.927 278.445 449.047C278.518 449.167 278.625 449.273 278.766 449.367C278.911 449.456 279.083 449.539 279.281 449.617C279.484 449.69 279.716 449.771 279.977 449.859C280.32 450 280.628 450.143 280.898 450.289C281.174 450.435 281.409 450.602 281.602 450.789C281.794 450.971 281.943 451.185 282.047 451.43C282.151 451.669 282.203 451.956 282.203 452.289C282.203 452.695 282.109 453.049 281.922 453.352C281.734 453.654 281.484 453.904 281.172 454.102C280.859 454.299 280.497 454.445 280.086 454.539C279.68 454.638 279.25 454.688 278.797 454.688C277.922 454.688 277.164 454.542 276.523 454.25ZM287.477 454.688C286.242 454.688 285.255 454.315 284.516 453.57C283.781 452.82 283.414 451.828 283.414 450.594C283.414 449.25 283.797 448.201 284.562 447.445C285.333 446.69 286.37 446.312 287.672 446.312C288.922 446.312 289.896 446.68 290.594 447.414C291.292 448.148 291.641 449.167 291.641 450.469C291.641 451.745 291.263 452.768 290.508 453.539C289.758 454.305 288.747 454.688 287.477 454.688ZM287.562 447.758C286.854 447.758 286.294 448.005 285.883 448.5C285.471 448.995 285.266 449.677 285.266 450.547C285.266 451.385 285.474 452.047 285.891 452.531C286.307 453.01 286.865 453.25 287.562 453.25C288.276 453.25 288.823 453.013 289.203 452.539C289.589 452.065 289.781 451.391 289.781 450.516C289.781 449.635 289.589 448.956 289.203 448.477C288.823 447.997 288.276 447.758 287.562 447.758ZM300.617 454.5H298.805V449.992C298.805 448.497 298.276 447.75 297.219 447.75C296.667 447.75 296.211 447.958 295.852 448.375C295.492 448.786 295.312 449.307 295.312 449.938V454.5H293.492V446.5H295.312V447.828H295.344C295.943 446.818 296.807 446.312 297.938 446.312C298.807 446.312 299.471 446.596 299.93 447.164C300.388 447.727 300.617 448.542 300.617 449.609V454.5Z" fill="#333333"/>
<path d="M221.855 472.5H220.774V471.353H220.748C220.247 472.223 219.474 472.658 218.428 472.658C217.58 472.658 216.901 472.357 216.391 471.755C215.885 471.149 215.633 470.325 215.633 469.283C215.633 468.167 215.914 467.273 216.477 466.6C217.039 465.928 217.788 465.592 218.724 465.592C219.652 465.592 220.326 465.957 220.748 466.686H220.774V462.507H221.855V472.5ZM220.774 469.448V468.453C220.774 467.908 220.594 467.446 220.234 467.068C219.874 466.69 219.417 466.501 218.863 466.501C218.204 466.501 217.685 466.743 217.307 467.227C216.929 467.71 216.74 468.378 216.74 469.23C216.74 470.008 216.92 470.624 217.281 471.076C217.646 471.524 218.133 471.749 218.744 471.749C219.346 471.749 219.834 471.531 220.208 471.096C220.585 470.661 220.774 470.112 220.774 469.448ZM224.598 464.036C224.404 464.036 224.24 463.97 224.103 463.838C223.967 463.707 223.899 463.54 223.899 463.337C223.899 463.135 223.967 462.968 224.103 462.836C224.24 462.7 224.404 462.632 224.598 462.632C224.795 462.632 224.962 462.7 225.099 462.836C225.239 462.968 225.31 463.135 225.31 463.337C225.31 463.531 225.239 463.696 225.099 463.832C224.962 463.968 224.795 464.036 224.598 464.036ZM225.125 472.5H224.044V465.75H225.125V472.5ZM236.898 472.5H235.817V468.624C235.817 467.877 235.7 467.336 235.468 467.002C235.239 466.668 234.852 466.501 234.307 466.501C233.846 466.501 233.453 466.712 233.127 467.134C232.807 467.556 232.646 468.062 232.646 468.65V472.5H231.565V468.492C231.565 467.165 231.053 466.501 230.029 466.501C229.555 466.501 229.164 466.701 228.856 467.101C228.548 467.497 228.395 468.013 228.395 468.65V472.5H227.313V465.75H228.395V466.818H228.421C228.9 466 229.599 465.592 230.517 465.592C230.979 465.592 231.381 465.721 231.723 465.981C232.066 466.236 232.301 466.572 232.429 466.989C232.93 466.058 233.677 465.592 234.67 465.592C236.155 465.592 236.898 466.508 236.898 468.341V472.5ZM244.366 469.395H239.601C239.618 470.147 239.82 470.727 240.207 471.135C240.594 471.544 241.125 471.749 241.802 471.749C242.562 471.749 243.261 471.498 243.898 470.997V472.012C243.305 472.443 242.521 472.658 241.545 472.658C240.592 472.658 239.842 472.353 239.297 471.742C238.752 471.127 238.48 470.263 238.48 469.151C238.48 468.101 238.777 467.246 239.37 466.587C239.968 465.924 240.708 465.592 241.591 465.592C242.475 465.592 243.158 465.877 243.641 466.449C244.125 467.02 244.366 467.813 244.366 468.828V469.395ZM243.259 468.479C243.255 467.855 243.103 467.369 242.804 467.022C242.51 466.675 242.099 466.501 241.572 466.501C241.062 466.501 240.629 466.684 240.273 467.049C239.917 467.413 239.697 467.89 239.614 468.479H243.259ZM251.611 472.5H250.53V468.65C250.53 467.218 250.007 466.501 248.961 466.501C248.42 466.501 247.972 466.706 247.616 467.115C247.265 467.519 247.089 468.031 247.089 468.65V472.5H246.008V465.75H247.089V466.871H247.115C247.625 466.018 248.363 465.592 249.33 465.592C250.068 465.592 250.633 465.831 251.024 466.31C251.415 466.785 251.611 467.473 251.611 468.374V472.5ZM253.246 472.256V471.096C253.834 471.531 254.483 471.749 255.19 471.749C256.139 471.749 256.614 471.432 256.614 470.799C256.614 470.619 256.572 470.468 256.489 470.344C256.41 470.217 256.3 470.105 256.159 470.008C256.023 469.912 255.86 469.826 255.671 469.751C255.487 469.672 255.287 469.591 255.072 469.507C254.773 469.389 254.509 469.27 254.281 469.151C254.056 469.028 253.867 468.892 253.714 468.743C253.564 468.589 253.45 468.415 253.371 468.222C253.296 468.029 253.259 467.802 253.259 467.543C253.259 467.227 253.331 466.948 253.476 466.706C253.621 466.46 253.815 466.255 254.056 466.093C254.298 465.926 254.573 465.801 254.88 465.717C255.192 465.634 255.513 465.592 255.843 465.592C256.427 465.592 256.95 465.693 257.412 465.895V466.989C256.915 466.664 256.344 466.501 255.698 466.501C255.496 466.501 255.313 466.526 255.151 466.574C254.988 466.618 254.847 466.682 254.729 466.765C254.615 466.849 254.524 466.95 254.458 467.068C254.397 467.183 254.366 467.31 254.366 467.451C254.366 467.626 254.397 467.774 254.458 467.892C254.524 468.011 254.619 468.116 254.742 468.209C254.865 468.301 255.014 468.385 255.19 468.459C255.366 468.534 255.566 468.615 255.79 468.703C256.089 468.817 256.357 468.936 256.594 469.059C256.832 469.178 257.034 469.314 257.201 469.468C257.368 469.617 257.495 469.791 257.583 469.989C257.675 470.186 257.721 470.421 257.721 470.694C257.721 471.028 257.647 471.318 257.497 471.564C257.352 471.81 257.157 472.014 256.911 472.177C256.665 472.34 256.381 472.46 256.06 472.54C255.74 472.619 255.403 472.658 255.052 472.658C254.357 472.658 253.755 472.524 253.246 472.256ZM259.943 464.036C259.75 464.036 259.585 463.97 259.448 463.838C259.312 463.707 259.244 463.54 259.244 463.337C259.244 463.135 259.312 462.968 259.448 462.836C259.585 462.7 259.75 462.632 259.943 462.632C260.141 462.632 260.308 462.7 260.444 462.836C260.584 462.968 260.655 463.135 260.655 463.337C260.655 463.531 260.584 463.696 260.444 463.832C260.308 463.968 260.141 464.036 259.943 464.036ZM260.47 472.5H259.389V465.75H260.47V472.5ZM265.48 472.658C264.482 472.658 263.685 472.344 263.087 471.716C262.494 471.083 262.197 470.246 262.197 469.204C262.197 468.07 262.507 467.185 263.127 466.548C263.746 465.91 264.583 465.592 265.638 465.592C266.645 465.592 267.429 465.902 267.991 466.521C268.558 467.141 268.842 468 268.842 469.099C268.842 470.175 268.536 471.039 267.926 471.689C267.319 472.335 266.504 472.658 265.48 472.658ZM265.559 466.501C264.865 466.501 264.315 466.739 263.911 467.213C263.507 467.684 263.305 468.334 263.305 469.165C263.305 469.964 263.509 470.595 263.918 471.056C264.326 471.518 264.874 471.749 265.559 471.749C266.258 471.749 266.794 471.522 267.167 471.07C267.545 470.617 267.734 469.973 267.734 469.138C267.734 468.294 267.545 467.644 267.167 467.187C266.794 466.73 266.258 466.501 265.559 466.501ZM276.172 472.5H275.091V468.65C275.091 467.218 274.568 466.501 273.522 466.501C272.981 466.501 272.533 466.706 272.177 467.115C271.826 467.519 271.65 468.031 271.65 468.65V472.5H270.569V465.75H271.65V466.871H271.676C272.186 466.018 272.924 465.592 273.891 465.592C274.629 465.592 275.194 465.831 275.585 466.31C275.976 466.785 276.172 467.473 276.172 468.374V472.5ZM285.051 472.434C284.796 472.575 284.46 472.645 284.042 472.645C282.86 472.645 282.269 471.986 282.269 470.667V466.673H281.109V465.75H282.269V464.102L283.35 463.753V465.75H285.051V466.673H283.35V470.476C283.35 470.929 283.427 471.252 283.581 471.445C283.735 471.639 283.99 471.735 284.346 471.735C284.618 471.735 284.853 471.661 285.051 471.511V472.434ZM291.326 472.5H290.245V471.445H290.219C289.749 472.254 289.057 472.658 288.143 472.658C287.47 472.658 286.943 472.48 286.561 472.124C286.183 471.768 285.994 471.296 285.994 470.707C285.994 469.446 286.736 468.712 288.222 468.505L290.245 468.222C290.245 467.075 289.782 466.501 288.854 466.501C288.042 466.501 287.308 466.778 286.653 467.332V466.225C287.316 465.803 288.081 465.592 288.947 465.592C290.533 465.592 291.326 466.431 291.326 468.11V472.5ZM290.245 469.085L288.617 469.31C288.116 469.38 287.738 469.505 287.483 469.685C287.229 469.861 287.101 470.175 287.101 470.628C287.101 470.958 287.218 471.228 287.45 471.439C287.688 471.645 288.002 471.749 288.393 471.749C288.929 471.749 289.371 471.562 289.718 471.188C290.07 470.81 290.245 470.333 290.245 469.758V469.085ZM294.471 471.524H294.444V472.5H293.363V462.507H294.444V466.937H294.471C295.002 466.04 295.78 465.592 296.804 465.592C297.67 465.592 298.347 465.895 298.834 466.501C299.327 467.104 299.573 467.912 299.573 468.927C299.573 470.057 299.298 470.962 298.749 471.643C298.199 472.32 297.448 472.658 296.494 472.658C295.602 472.658 294.928 472.28 294.471 471.524ZM294.444 468.802V469.745C294.444 470.303 294.625 470.777 294.985 471.168C295.35 471.555 295.811 471.749 296.369 471.749C297.024 471.749 297.536 471.498 297.905 470.997C298.279 470.496 298.465 469.8 298.465 468.907C298.465 468.156 298.292 467.567 297.945 467.141C297.597 466.715 297.127 466.501 296.534 466.501C295.906 466.501 295.4 466.721 295.018 467.161C294.635 467.596 294.444 468.143 294.444 468.802ZM302.381 472.5H301.3V462.507H302.381V472.5ZM309.994 469.395H305.229C305.246 470.147 305.448 470.727 305.835 471.135C306.222 471.544 306.753 471.749 307.43 471.749C308.19 471.749 308.889 471.498 309.526 470.997V472.012C308.933 472.443 308.149 472.658 307.173 472.658C306.219 472.658 305.47 472.353 304.925 471.742C304.38 471.127 304.108 470.263 304.108 469.151C304.108 468.101 304.405 467.246 304.998 466.587C305.595 465.924 306.336 465.592 307.219 465.592C308.103 465.592 308.786 465.877 309.269 466.449C309.753 467.02 309.994 467.813 309.994 468.828V469.395ZM308.887 468.479C308.883 467.855 308.731 467.369 308.432 467.022C308.138 466.675 307.727 466.501 307.199 466.501C306.69 466.501 306.257 466.684 305.901 467.049C305.545 467.413 305.325 467.89 305.242 468.479H308.887Z" fill="#333333"/>
<path d="M492.75 445C492.75 436.578 499.578 429.75 508 429.75H676C684.422 429.75 691.25 436.578 691.25 445V474C691.25 482.422 684.422 489.25 676 489.25H508C499.578 489.25 492.75 482.422 492.75 474V445Z" fill="white"/>
<path d="M492.75 445C492.75 436.578 499.578 429.75 508 429.75H676C684.422 429.75 691.25 436.578 691.25 445V474C691.25 482.422 684.422 489.25 676 489.25H508C499.578 489.25 492.75 482.422 492.75 474V445Z" stroke="#E1E1E1" stroke-width="1.5"/>
<path d="M536.75 451.625C536.75 449.209 534.791 447.25 532.375 447.25H516.625C514.209 447.25 512.25 449.209 512.25 451.625V467.375C512.25 469.791 514.209 471.75 516.625 471.75H532.375C534.791 471.75 536.75 469.791 536.75 467.375V451.625ZM514 467.375V464.75H519.25V470H516.625L516.372 469.988C515.041 469.861 514 468.739 514 467.375ZM528 464.75V470H521V464.75H528ZM532.375 470H529.75V464.75H535V467.375L534.988 467.628C534.861 468.959 533.739 470 532.375 470ZM528 456V463H521V456H528ZM529.75 456H535V463H529.75V456ZM528 449V454.25H521V449H528ZM529.75 449H532.375L532.628 449.012C533.959 449.139 535 450.261 535 451.625V454.25H529.75V449ZM519.25 449V454.25H514V451.625L514.012 451.372C514.139 450.041 515.261 449 516.625 449H519.25ZM519.25 456V463H514V456H519.25Z" fill="#242424"/>
<path d="M557.867 454.055V452.141C558.039 452.297 558.242 452.438 558.477 452.562C558.716 452.688 558.969 452.794 559.234 452.883C559.5 452.966 559.766 453.031 560.031 453.078C560.297 453.125 560.542 453.148 560.766 453.148C561.547 453.148 562.128 453.018 562.508 452.758C562.893 452.497 563.086 452.12 563.086 451.625C563.086 451.359 563.021 451.13 562.891 450.938C562.766 450.74 562.589 450.56 562.359 450.398C562.13 450.237 561.859 450.083 561.547 449.938C561.24 449.786 560.909 449.63 560.555 449.469C560.174 449.266 559.82 449.06 559.492 448.852C559.164 448.643 558.878 448.414 558.633 448.164C558.393 447.909 558.203 447.622 558.062 447.305C557.927 446.987 557.859 446.615 557.859 446.188C557.859 445.661 557.977 445.206 558.211 444.82C558.451 444.43 558.763 444.109 559.148 443.859C559.539 443.604 559.982 443.417 560.477 443.297C560.971 443.172 561.477 443.109 561.992 443.109C563.164 443.109 564.018 443.242 564.555 443.508V445.344C563.919 444.885 563.102 444.656 562.102 444.656C561.826 444.656 561.549 444.682 561.273 444.734C561.003 444.786 560.758 444.872 560.539 444.992C560.326 445.112 560.151 445.266 560.016 445.453C559.88 445.641 559.812 445.867 559.812 446.133C559.812 446.383 559.865 446.599 559.969 446.781C560.073 446.964 560.224 447.13 560.422 447.281C560.625 447.432 560.87 447.581 561.156 447.727C561.448 447.867 561.784 448.021 562.164 448.188C562.555 448.391 562.922 448.604 563.266 448.828C563.615 449.052 563.919 449.299 564.18 449.57C564.445 449.841 564.654 450.143 564.805 450.477C564.961 450.805 565.039 451.18 565.039 451.602C565.039 452.169 564.924 452.648 564.695 453.039C564.466 453.43 564.156 453.747 563.766 453.992C563.38 454.237 562.935 454.414 562.43 454.523C561.924 454.633 561.391 454.688 560.828 454.688C560.641 454.688 560.409 454.672 560.133 454.641C559.862 454.615 559.583 454.573 559.297 454.516C559.01 454.464 558.74 454.398 558.484 454.32C558.229 454.242 558.023 454.154 557.867 454.055ZM573.039 454.5H571.281V453.25H571.25C570.698 454.208 569.888 454.688 568.82 454.688C568.034 454.688 567.417 454.474 566.969 454.047C566.526 453.62 566.305 453.055 566.305 452.352C566.305 450.841 567.174 449.961 568.914 449.711L571.289 449.375C571.289 448.234 570.747 447.664 569.664 447.664C568.711 447.664 567.852 447.992 567.086 448.648V447.062C567.93 446.562 568.904 446.312 570.008 446.312C572.029 446.312 573.039 447.307 573.039 449.297V454.5ZM571.289 450.57L569.609 450.805C569.089 450.872 568.695 451 568.43 451.188C568.169 451.37 568.039 451.693 568.039 452.156C568.039 452.495 568.159 452.773 568.398 452.992C568.643 453.206 568.969 453.312 569.375 453.312C569.927 453.312 570.383 453.12 570.742 452.734C571.107 452.344 571.289 451.854 571.289 451.266V450.57ZM577.078 454.5H575.258V442.656H577.078V454.5ZM586.219 450.992H580.766C580.786 451.732 581.013 452.302 581.445 452.703C581.883 453.104 582.482 453.305 583.242 453.305C584.096 453.305 584.88 453.049 585.594 452.539V454C584.865 454.458 583.901 454.688 582.703 454.688C581.526 454.688 580.602 454.326 579.93 453.602C579.263 452.872 578.93 451.849 578.93 450.531C578.93 449.286 579.297 448.273 580.031 447.492C580.771 446.706 581.688 446.312 582.781 446.312C583.875 446.312 584.721 446.664 585.32 447.367C585.919 448.07 586.219 449.047 586.219 450.297V450.992ZM584.469 449.711C584.464 449.06 584.31 448.555 584.008 448.195C583.706 447.831 583.289 447.648 582.758 447.648C582.237 447.648 581.794 447.839 581.43 448.219C581.07 448.599 580.849 449.096 580.766 449.711H584.469ZM587.445 454.25V452.57C588.122 453.086 588.87 453.344 589.688 453.344C590.781 453.344 591.328 453.021 591.328 452.375C591.328 452.193 591.281 452.039 591.188 451.914C591.094 451.784 590.966 451.669 590.805 451.57C590.648 451.471 590.461 451.383 590.242 451.305C590.029 451.227 589.789 451.138 589.523 451.039C589.195 450.909 588.898 450.771 588.633 450.625C588.372 450.479 588.154 450.315 587.977 450.133C587.805 449.945 587.674 449.734 587.586 449.5C587.497 449.266 587.453 448.992 587.453 448.68C587.453 448.294 587.544 447.956 587.727 447.664C587.909 447.367 588.154 447.12 588.461 446.922C588.768 446.719 589.117 446.568 589.508 446.469C589.898 446.365 590.302 446.312 590.719 446.312C591.458 446.312 592.12 446.424 592.703 446.648V448.234C592.141 447.849 591.495 447.656 590.766 447.656C590.536 447.656 590.328 447.68 590.141 447.727C589.958 447.773 589.802 447.839 589.672 447.922C589.542 448.005 589.44 448.107 589.367 448.227C589.294 448.341 589.258 448.469 589.258 448.609C589.258 448.781 589.294 448.927 589.367 449.047C589.44 449.167 589.547 449.273 589.688 449.367C589.833 449.456 590.005 449.539 590.203 449.617C590.406 449.69 590.638 449.771 590.898 449.859C591.242 450 591.549 450.143 591.82 450.289C592.096 450.435 592.331 450.602 592.523 450.789C592.716 450.971 592.865 451.185 592.969 451.43C593.073 451.669 593.125 451.956 593.125 452.289C593.125 452.695 593.031 453.049 592.844 453.352C592.656 453.654 592.406 453.904 592.094 454.102C591.781 454.299 591.419 454.445 591.008 454.539C590.602 454.638 590.172 454.688 589.719 454.688C588.844 454.688 588.086 454.542 587.445 454.25ZM608.117 454.5H605.945L604.156 451.5C603.995 451.224 603.836 450.99 603.68 450.797C603.529 450.599 603.372 450.438 603.211 450.312C603.055 450.188 602.883 450.096 602.695 450.039C602.508 449.982 602.297 449.953 602.062 449.953H601.312V454.5H599.461V443.297H603.148C603.674 443.297 604.159 443.359 604.602 443.484C605.044 443.609 605.43 443.799 605.758 444.055C606.086 444.305 606.341 444.62 606.523 445C606.711 445.375 606.805 445.815 606.805 446.32C606.805 446.716 606.745 447.081 606.625 447.414C606.51 447.742 606.344 448.036 606.125 448.297C605.911 448.552 605.651 448.771 605.344 448.953C605.042 449.135 604.701 449.276 604.32 449.375V449.406C604.523 449.521 604.701 449.648 604.852 449.789C605.003 449.924 605.146 450.065 605.281 450.211C605.417 450.357 605.549 450.523 605.68 450.711C605.815 450.893 605.964 451.107 606.125 451.352L608.117 454.5ZM601.312 444.805V448.445H602.859C603.146 448.445 603.409 448.401 603.648 448.312C603.893 448.224 604.104 448.096 604.281 447.93C604.458 447.763 604.596 447.56 604.695 447.32C604.794 447.081 604.844 446.812 604.844 446.516C604.844 445.979 604.674 445.56 604.336 445.258C603.997 444.956 603.51 444.805 602.875 444.805H601.312ZM615.578 450.992H610.125C610.146 451.732 610.372 452.302 610.805 452.703C611.242 453.104 611.841 453.305 612.602 453.305C613.456 453.305 614.24 453.049 614.953 452.539V454C614.224 454.458 613.26 454.688 612.062 454.688C610.885 454.688 609.961 454.326 609.289 453.602C608.622 452.872 608.289 451.849 608.289 450.531C608.289 449.286 608.656 448.273 609.391 447.492C610.13 446.706 611.047 446.312 612.141 446.312C613.234 446.312 614.081 446.664 614.68 447.367C615.279 448.07 615.578 449.047 615.578 450.297V450.992ZM613.828 449.711C613.823 449.06 613.669 448.555 613.367 448.195C613.065 447.831 612.648 447.648 612.117 447.648C611.596 447.648 611.154 447.839 610.789 448.219C610.43 448.599 610.208 449.096 610.125 449.711H613.828ZM624.586 453.859C624.586 456.797 623.109 458.266 620.156 458.266C619.115 458.266 618.206 458.091 617.43 457.742V456.086C618.305 456.586 619.135 456.836 619.922 456.836C621.823 456.836 622.773 455.901 622.773 454.031V453.156H622.742C622.143 454.177 621.242 454.688 620.039 454.688C619.065 454.688 618.279 454.333 617.68 453.625C617.086 452.911 616.789 451.956 616.789 450.758C616.789 449.398 617.109 448.318 617.75 447.516C618.391 446.714 619.271 446.312 620.391 446.312C621.448 446.312 622.232 446.745 622.742 447.609H622.773V446.5H624.586V453.859ZM622.789 450.836V449.797C622.789 449.234 622.602 448.755 622.227 448.359C621.857 447.958 621.393 447.758 620.836 447.758C620.148 447.758 619.609 448.013 619.219 448.523C618.833 449.029 618.641 449.737 618.641 450.648C618.641 451.435 618.826 452.065 619.195 452.539C619.57 453.008 620.065 453.242 620.68 453.242C621.305 453.242 621.812 453.018 622.203 452.57C622.594 452.117 622.789 451.539 622.789 450.836ZM627.859 444.82C627.562 444.82 627.307 444.724 627.094 444.531C626.885 444.339 626.781 444.094 626.781 443.797C626.781 443.5 626.885 443.253 627.094 443.055C627.307 442.857 627.562 442.758 627.859 442.758C628.167 442.758 628.427 442.857 628.641 443.055C628.854 443.253 628.961 443.5 628.961 443.797C628.961 444.078 628.854 444.32 628.641 444.523C628.427 444.721 628.167 444.82 627.859 444.82ZM628.758 454.5H626.945V446.5H628.758V454.5ZM634.68 454.688C633.445 454.688 632.458 454.315 631.719 453.57C630.984 452.82 630.617 451.828 630.617 450.594C630.617 449.25 631 448.201 631.766 447.445C632.536 446.69 633.573 446.312 634.875 446.312C636.125 446.312 637.099 446.68 637.797 447.414C638.495 448.148 638.844 449.167 638.844 450.469C638.844 451.745 638.466 452.768 637.711 453.539C636.961 454.305 635.951 454.688 634.68 454.688ZM634.766 447.758C634.057 447.758 633.497 448.005 633.086 448.5C632.674 448.995 632.469 449.677 632.469 450.547C632.469 451.385 632.677 452.047 633.094 452.531C633.51 453.01 634.068 453.25 634.766 453.25C635.479 453.25 636.026 453.013 636.406 452.539C636.792 452.065 636.984 451.391 636.984 450.516C636.984 449.635 636.792 448.956 636.406 448.477C636.026 447.997 635.479 447.758 634.766 447.758ZM647.82 454.5H646.008V449.992C646.008 448.497 645.479 447.75 644.422 447.75C643.87 447.75 643.414 447.958 643.055 448.375C642.695 448.786 642.516 449.307 642.516 449.938V454.5H640.695V446.5H642.516V447.828H642.547C643.146 446.818 644.01 446.312 645.141 446.312C646.01 446.312 646.674 446.596 647.133 447.164C647.591 447.727 647.82 448.542 647.82 449.609V454.5Z" fill="#333333"/>
<path d="M563.855 472.5H562.774V471.353H562.748C562.247 472.223 561.474 472.658 560.428 472.658C559.58 472.658 558.901 472.357 558.391 471.755C557.885 471.149 557.633 470.325 557.633 469.283C557.633 468.167 557.914 467.273 558.477 466.6C559.039 465.928 559.788 465.592 560.724 465.592C561.652 465.592 562.326 465.957 562.748 466.686H562.774V462.507H563.855V472.5ZM562.774 469.448V468.453C562.774 467.908 562.594 467.446 562.234 467.068C561.874 466.69 561.417 466.501 560.863 466.501C560.204 466.501 559.685 466.743 559.307 467.227C558.929 467.71 558.74 468.378 558.74 469.23C558.74 470.008 558.92 470.624 559.281 471.076C559.646 471.524 560.133 471.749 560.744 471.749C561.346 471.749 561.834 471.531 562.208 471.096C562.585 470.661 562.774 470.112 562.774 469.448ZM566.598 464.036C566.404 464.036 566.24 463.97 566.103 463.838C565.967 463.707 565.899 463.54 565.899 463.337C565.899 463.135 565.967 462.968 566.103 462.836C566.24 462.7 566.404 462.632 566.598 462.632C566.795 462.632 566.962 462.7 567.099 462.836C567.239 462.968 567.31 463.135 567.31 463.337C567.31 463.531 567.239 463.696 567.099 463.832C566.962 463.968 566.795 464.036 566.598 464.036ZM567.125 472.5H566.044V465.75H567.125V472.5ZM578.898 472.5H577.817V468.624C577.817 467.877 577.7 467.336 577.468 467.002C577.239 466.668 576.852 466.501 576.307 466.501C575.846 466.501 575.453 466.712 575.127 467.134C574.807 467.556 574.646 468.062 574.646 468.65V472.5H573.565V468.492C573.565 467.165 573.053 466.501 572.029 466.501C571.555 466.501 571.164 466.701 570.856 467.101C570.548 467.497 570.395 468.013 570.395 468.65V472.5H569.313V465.75H570.395V466.818H570.421C570.9 466 571.599 465.592 572.517 465.592C572.979 465.592 573.381 465.721 573.723 465.981C574.066 466.236 574.301 466.572 574.429 466.989C574.93 466.058 575.677 465.592 576.67 465.592C578.155 465.592 578.898 466.508 578.898 468.341V472.5ZM586.366 469.395H581.601C581.618 470.147 581.82 470.727 582.207 471.135C582.594 471.544 583.125 471.749 583.802 471.749C584.562 471.749 585.261 471.498 585.898 470.997V472.012C585.305 472.443 584.521 472.658 583.545 472.658C582.592 472.658 581.842 472.353 581.297 471.742C580.752 471.127 580.48 470.263 580.48 469.151C580.48 468.101 580.777 467.246 581.37 466.587C581.968 465.924 582.708 465.592 583.591 465.592C584.475 465.592 585.158 465.877 585.641 466.449C586.125 467.02 586.366 467.813 586.366 468.828V469.395ZM585.259 468.479C585.255 467.855 585.103 467.369 584.804 467.022C584.51 466.675 584.099 466.501 583.572 466.501C583.062 466.501 582.629 466.684 582.273 467.049C581.917 467.413 581.697 467.89 581.614 468.479H585.259ZM593.611 472.5H592.53V468.65C592.53 467.218 592.007 466.501 590.961 466.501C590.42 466.501 589.972 466.706 589.616 467.115C589.265 467.519 589.089 468.031 589.089 468.65V472.5H588.008V465.75H589.089V466.871H589.115C589.625 466.018 590.363 465.592 591.33 465.592C592.068 465.592 592.633 465.831 593.024 466.31C593.415 466.785 593.611 467.473 593.611 468.374V472.5ZM595.246 472.256V471.096C595.834 471.531 596.483 471.749 597.19 471.749C598.139 471.749 598.614 471.432 598.614 470.799C598.614 470.619 598.572 470.468 598.489 470.344C598.41 470.217 598.3 470.105 598.159 470.008C598.023 469.912 597.86 469.826 597.671 469.751C597.487 469.672 597.287 469.591 597.072 469.507C596.773 469.389 596.509 469.27 596.281 469.151C596.056 469.028 595.867 468.892 595.714 468.743C595.564 468.589 595.45 468.415 595.371 468.222C595.296 468.029 595.259 467.802 595.259 467.543C595.259 467.227 595.331 466.948 595.476 466.706C595.621 466.46 595.815 466.255 596.056 466.093C596.298 465.926 596.573 465.801 596.88 465.717C597.192 465.634 597.513 465.592 597.843 465.592C598.427 465.592 598.95 465.693 599.412 465.895V466.989C598.915 466.664 598.344 466.501 597.698 466.501C597.496 466.501 597.313 466.526 597.151 466.574C596.988 466.618 596.847 466.682 596.729 466.765C596.615 466.849 596.524 466.95 596.458 467.068C596.397 467.183 596.366 467.31 596.366 467.451C596.366 467.626 596.397 467.774 596.458 467.892C596.524 468.011 596.619 468.116 596.742 468.209C596.865 468.301 597.014 468.385 597.19 468.459C597.366 468.534 597.566 468.615 597.79 468.703C598.089 468.817 598.357 468.936 598.594 469.059C598.832 469.178 599.034 469.314 599.201 469.468C599.368 469.617 599.495 469.791 599.583 469.989C599.675 470.186 599.721 470.421 599.721 470.694C599.721 471.028 599.647 471.318 599.497 471.564C599.352 471.81 599.157 472.014 598.911 472.177C598.665 472.34 598.381 472.46 598.06 472.54C597.74 472.619 597.403 472.658 597.052 472.658C596.357 472.658 595.755 472.524 595.246 472.256ZM601.943 464.036C601.75 464.036 601.585 463.97 601.448 463.838C601.312 463.707 601.244 463.54 601.244 463.337C601.244 463.135 601.312 462.968 601.448 462.836C601.585 462.7 601.75 462.632 601.943 462.632C602.141 462.632 602.308 462.7 602.444 462.836C602.584 462.968 602.655 463.135 602.655 463.337C602.655 463.531 602.584 463.696 602.444 463.832C602.308 463.968 602.141 464.036 601.943 464.036ZM602.47 472.5H601.389V465.75H602.47V472.5ZM607.48 472.658C606.482 472.658 605.685 472.344 605.087 471.716C604.494 471.083 604.197 470.246 604.197 469.204C604.197 468.07 604.507 467.185 605.127 466.548C605.746 465.91 606.583 465.592 607.638 465.592C608.645 465.592 609.429 465.902 609.991 466.521C610.558 467.141 610.842 468 610.842 469.099C610.842 470.175 610.536 471.039 609.926 471.689C609.319 472.335 608.504 472.658 607.48 472.658ZM607.559 466.501C606.865 466.501 606.315 466.739 605.911 467.213C605.507 467.684 605.305 468.334 605.305 469.165C605.305 469.964 605.509 470.595 605.918 471.056C606.326 471.518 606.874 471.749 607.559 471.749C608.258 471.749 608.794 471.522 609.167 471.07C609.545 470.617 609.734 469.973 609.734 469.138C609.734 468.294 609.545 467.644 609.167 467.187C608.794 466.73 608.258 466.501 607.559 466.501ZM618.172 472.5H617.091V468.65C617.091 467.218 616.568 466.501 615.522 466.501C614.981 466.501 614.533 466.706 614.177 467.115C613.826 467.519 613.65 468.031 613.65 468.65V472.5H612.569V465.75H613.65V466.871H613.676C614.186 466.018 614.924 465.592 615.891 465.592C616.629 465.592 617.194 465.831 617.585 466.31C617.976 466.785 618.172 467.473 618.172 468.374V472.5ZM627.051 472.434C626.796 472.575 626.46 472.645 626.042 472.645C624.86 472.645 624.269 471.986 624.269 470.667V466.673H623.109V465.75H624.269V464.102L625.35 463.753V465.75H627.051V466.673H625.35V470.476C625.35 470.929 625.427 471.252 625.581 471.445C625.735 471.639 625.99 471.735 626.346 471.735C626.618 471.735 626.853 471.661 627.051 471.511V472.434ZM633.326 472.5H632.245V471.445H632.219C631.749 472.254 631.057 472.658 630.143 472.658C629.47 472.658 628.943 472.48 628.561 472.124C628.183 471.768 627.994 471.296 627.994 470.707C627.994 469.446 628.736 468.712 630.222 468.505L632.245 468.222C632.245 467.075 631.782 466.501 630.854 466.501C630.042 466.501 629.308 466.778 628.653 467.332V466.225C629.316 465.803 630.081 465.592 630.947 465.592C632.533 465.592 633.326 466.431 633.326 468.11V472.5ZM632.245 469.085L630.617 469.31C630.116 469.38 629.738 469.505 629.483 469.685C629.229 469.861 629.101 470.175 629.101 470.628C629.101 470.958 629.218 471.228 629.45 471.439C629.688 471.645 630.002 471.749 630.393 471.749C630.929 471.749 631.371 471.562 631.718 471.188C632.07 470.81 632.245 470.333 632.245 469.758V469.085ZM636.471 471.524H636.444V472.5H635.363V462.507H636.444V466.937H636.471C637.002 466.04 637.78 465.592 638.804 465.592C639.67 465.592 640.347 465.895 640.834 466.501C641.327 467.104 641.573 467.912 641.573 468.927C641.573 470.057 641.298 470.962 640.749 471.643C640.199 472.32 639.448 472.658 638.494 472.658C637.602 472.658 636.928 472.28 636.471 471.524ZM636.444 468.802V469.745C636.444 470.303 636.625 470.777 636.985 471.168C637.35 471.555 637.811 471.749 638.369 471.749C639.024 471.749 639.536 471.498 639.905 470.997C640.279 470.496 640.465 469.8 640.465 468.907C640.465 468.156 640.292 467.567 639.945 467.141C639.597 466.715 639.127 466.501 638.534 466.501C637.906 466.501 637.4 466.721 637.018 467.161C636.635 467.596 636.444 468.143 636.444 468.802ZM644.381 472.5H643.3V462.507H644.381V472.5ZM651.994 469.395H647.229C647.246 470.147 647.448 470.727 647.835 471.135C648.222 471.544 648.753 471.749 649.43 471.749C650.19 471.749 650.889 471.498 651.526 470.997V472.012C650.933 472.443 650.149 472.658 649.173 472.658C648.219 472.658 647.47 472.353 646.925 471.742C646.38 471.127 646.108 470.263 646.108 469.151C646.108 468.101 646.405 467.246 646.998 466.587C647.595 465.924 648.336 465.592 649.219 465.592C650.103 465.592 650.786 465.877 651.269 466.449C651.753 467.02 651.994 467.813 651.994 468.828V469.395ZM650.887 468.479C650.883 467.855 650.731 467.369 650.432 467.022C650.138 466.675 649.727 466.501 649.199 466.501C648.69 466.501 648.257 466.684 647.901 467.049C647.545 467.413 647.325 467.89 647.242 468.479H650.887Z" fill="#333333"/>
<path d="M592.75 221C592.75 212.578 599.578 205.75 608 205.75H776C784.422 205.75 791.25 212.578 791.25 221V250C791.25 258.422 784.422 265.25 776 265.25H608C599.578 265.25 592.75 258.422 592.75 250V221Z" fill="white"/>
<path d="M592.75 221C592.75 212.578 599.578 205.75 608 205.75H776C784.422 205.75 791.25 212.578 791.25 221V250C791.25 258.422 784.422 265.25 776 265.25H608C599.578 265.25 592.75 258.422 592.75 250V221Z" stroke="#E1E1E1" stroke-width="1.5"/>
<path d="M636.75 227.625C636.75 225.209 634.791 223.25 632.375 223.25H616.625C614.209 223.25 612.25 225.209 612.25 227.625V243.375C612.25 245.791 614.209 247.75 616.625 247.75H632.375C634.791 247.75 636.75 245.791 636.75 243.375V227.625ZM614 243.375V240.75H619.25V246H616.625L616.372 245.988C615.041 245.861 614 244.739 614 243.375ZM628 240.75V246H621V240.75H628ZM632.375 246H629.75V240.75H635V243.375L634.988 243.628C634.861 244.959 633.739 246 632.375 246ZM628 232V239H621V232H628ZM629.75 232H635V239H629.75V232ZM628 225V230.25H621V225H628ZM629.75 225H632.375L632.628 225.012C633.959 225.139 635 226.261 635 227.625V230.25H629.75V225ZM619.25 225V230.25H614V227.625L614.012 227.372C614.139 226.041 615.261 225 616.625 225H619.25ZM619.25 232V239H614V232H619.25Z" fill="#242424"/>
<path d="M660.234 226.438V230.5H658.383V219.297H661.781C663.068 219.297 664.065 219.596 664.773 220.195C665.482 220.794 665.836 221.638 665.836 222.727C665.836 223.815 665.466 224.706 664.727 225.398C663.987 226.091 662.987 226.438 661.727 226.438H660.234ZM660.234 220.828V224.922H661.438C662.234 224.922 662.841 224.737 663.258 224.367C663.674 223.997 663.883 223.477 663.883 222.805C663.883 221.487 663.117 220.828 661.586 220.828H660.234ZM672.18 224.227C671.961 224.055 671.646 223.969 671.234 223.969C670.698 223.969 670.25 224.211 669.891 224.695C669.531 225.18 669.352 225.839 669.352 226.672V230.5H667.539V222.5H669.352V224.148H669.383C669.56 223.586 669.831 223.148 670.195 222.836C670.565 222.518 670.977 222.359 671.43 222.359C671.758 222.359 672.008 222.409 672.18 222.508V224.227ZM676.867 230.688C675.633 230.688 674.646 230.315 673.906 229.57C673.172 228.82 672.805 227.828 672.805 226.594C672.805 225.25 673.188 224.201 673.953 223.445C674.724 222.69 675.76 222.312 677.062 222.312C678.312 222.312 679.286 222.68 679.984 223.414C680.682 224.148 681.031 225.167 681.031 226.469C681.031 227.745 680.654 228.768 679.898 229.539C679.148 230.305 678.138 230.688 676.867 230.688ZM676.953 223.758C676.245 223.758 675.685 224.005 675.273 224.5C674.862 224.995 674.656 225.677 674.656 226.547C674.656 227.385 674.865 228.047 675.281 228.531C675.698 229.01 676.255 229.25 676.953 229.25C677.667 229.25 678.214 229.013 678.594 228.539C678.979 228.065 679.172 227.391 679.172 226.516C679.172 225.635 678.979 224.956 678.594 224.477C678.214 223.997 677.667 223.758 676.953 223.758ZM690.156 230.5H688.344V229.141H688.312C687.729 230.172 686.831 230.688 685.617 230.688C684.633 230.688 683.844 230.331 683.25 229.617C682.661 228.898 682.367 227.922 682.367 226.688C682.367 225.365 682.693 224.305 683.344 223.508C684 222.711 684.872 222.312 685.961 222.312C687.039 222.312 687.823 222.745 688.312 223.609H688.344V218.656H690.156V230.5ZM688.367 226.844V225.797C688.367 225.229 688.182 224.747 687.812 224.352C687.443 223.956 686.971 223.758 686.398 223.758C685.721 223.758 685.188 224.01 684.797 224.516C684.411 225.021 684.219 225.721 684.219 226.617C684.219 227.43 684.404 228.073 684.773 228.547C685.148 229.016 685.651 229.25 686.281 229.25C686.901 229.25 687.404 229.023 687.789 228.57C688.174 228.112 688.367 227.536 688.367 226.844ZM699.5 230.5H697.688V229.234H697.656C697.13 230.203 696.312 230.688 695.203 230.688C693.312 230.688 692.367 229.552 692.367 227.281V222.5H694.18V227.094C694.18 228.531 694.734 229.25 695.844 229.25C696.38 229.25 696.82 229.052 697.164 228.656C697.513 228.26 697.688 227.742 697.688 227.102V222.5H699.5V230.5ZM707.594 230.133C706.953 230.503 706.195 230.688 705.32 230.688C704.133 230.688 703.174 230.318 702.445 229.578C701.716 228.833 701.352 227.87 701.352 226.688C701.352 225.37 701.742 224.312 702.523 223.516C703.31 222.714 704.359 222.312 705.672 222.312C706.401 222.312 707.044 222.44 707.602 222.695V224.383C707.044 223.966 706.451 223.758 705.82 223.758C705.055 223.758 704.427 224.018 703.938 224.539C703.448 225.055 703.203 225.732 703.203 226.57C703.203 227.398 703.432 228.052 703.891 228.531C704.354 229.01 704.974 229.25 705.75 229.25C706.401 229.25 707.016 229.018 707.594 228.555V230.133ZM713.617 230.414C713.263 230.591 712.797 230.68 712.219 230.68C710.667 230.68 709.891 229.935 709.891 228.445V223.922H708.555V222.5H709.891V220.648L711.703 220.133V222.5H713.617V223.922H711.703V227.922C711.703 228.396 711.789 228.734 711.961 228.938C712.133 229.141 712.419 229.242 712.82 229.242C713.128 229.242 713.393 229.154 713.617 228.977V230.414Z" fill="#333333"/>
<path d="M663.855 248.5H662.774V247.353H662.748C662.247 248.223 661.474 248.658 660.428 248.658C659.58 248.658 658.901 248.357 658.391 247.755C657.885 247.149 657.633 246.325 657.633 245.283C657.633 244.167 657.914 243.273 658.477 242.6C659.039 241.928 659.788 241.592 660.724 241.592C661.652 241.592 662.326 241.957 662.748 242.686H662.774V238.507H663.855V248.5ZM662.774 245.448V244.453C662.774 243.908 662.594 243.446 662.234 243.068C661.874 242.69 661.417 242.501 660.863 242.501C660.204 242.501 659.685 242.743 659.307 243.227C658.929 243.71 658.74 244.378 658.74 245.23C658.74 246.008 658.92 246.624 659.281 247.076C659.646 247.524 660.133 247.749 660.744 247.749C661.346 247.749 661.834 247.531 662.208 247.096C662.585 246.661 662.774 246.112 662.774 245.448ZM666.598 240.036C666.404 240.036 666.24 239.97 666.103 239.838C665.967 239.707 665.899 239.54 665.899 239.337C665.899 239.135 665.967 238.968 666.103 238.836C666.24 238.7 666.404 238.632 666.598 238.632C666.795 238.632 666.962 238.7 667.099 238.836C667.239 238.968 667.31 239.135 667.31 239.337C667.31 239.531 667.239 239.696 667.099 239.832C666.962 239.968 666.795 240.036 666.598 240.036ZM667.125 248.5H666.044V241.75H667.125V248.5ZM678.898 248.5H677.817V244.624C677.817 243.877 677.7 243.336 677.468 243.002C677.239 242.668 676.852 242.501 676.307 242.501C675.846 242.501 675.453 242.712 675.127 243.134C674.807 243.556 674.646 244.062 674.646 244.65V248.5H673.565V244.492C673.565 243.165 673.053 242.501 672.029 242.501C671.555 242.501 671.164 242.701 670.856 243.101C670.548 243.497 670.395 244.013 670.395 244.65V248.5H669.313V241.75H670.395V242.818H670.421C670.9 242 671.599 241.592 672.517 241.592C672.979 241.592 673.381 241.721 673.723 241.981C674.066 242.236 674.301 242.572 674.429 242.989C674.93 242.058 675.677 241.592 676.67 241.592C678.155 241.592 678.898 242.508 678.898 244.341V248.5ZM686.366 245.395H681.601C681.618 246.147 681.82 246.727 682.207 247.135C682.594 247.544 683.125 247.749 683.802 247.749C684.562 247.749 685.261 247.498 685.898 246.997V248.012C685.305 248.443 684.521 248.658 683.545 248.658C682.592 248.658 681.842 248.353 681.297 247.742C680.752 247.127 680.48 246.263 680.48 245.151C680.48 244.101 680.777 243.246 681.37 242.587C681.968 241.924 682.708 241.592 683.591 241.592C684.475 241.592 685.158 241.877 685.641 242.449C686.125 243.02 686.366 243.813 686.366 244.828V245.395ZM685.259 244.479C685.255 243.855 685.103 243.369 684.804 243.022C684.51 242.675 684.099 242.501 683.572 242.501C683.062 242.501 682.629 242.684 682.273 243.049C681.917 243.413 681.697 243.89 681.614 244.479H685.259ZM693.611 248.5H692.53V244.65C692.53 243.218 692.007 242.501 690.961 242.501C690.42 242.501 689.972 242.706 689.616 243.115C689.265 243.519 689.089 244.031 689.089 244.65V248.5H688.008V241.75H689.089V242.871H689.115C689.625 242.018 690.363 241.592 691.33 241.592C692.068 241.592 692.633 241.831 693.024 242.31C693.415 242.785 693.611 243.473 693.611 244.374V248.5ZM695.246 248.256V247.096C695.834 247.531 696.483 247.749 697.19 247.749C698.139 247.749 698.614 247.432 698.614 246.799C698.614 246.619 698.572 246.468 698.489 246.344C698.41 246.217 698.3 246.105 698.159 246.008C698.023 245.912 697.86 245.826 697.671 245.751C697.487 245.672 697.287 245.591 697.072 245.507C696.773 245.389 696.509 245.27 696.281 245.151C696.056 245.028 695.867 244.892 695.714 244.743C695.564 244.589 695.45 244.415 695.371 244.222C695.296 244.029 695.259 243.802 695.259 243.543C695.259 243.227 695.331 242.948 695.476 242.706C695.621 242.46 695.815 242.255 696.056 242.093C696.298 241.926 696.573 241.801 696.88 241.717C697.192 241.634 697.513 241.592 697.843 241.592C698.427 241.592 698.95 241.693 699.412 241.895V242.989C698.915 242.664 698.344 242.501 697.698 242.501C697.496 242.501 697.313 242.526 697.151 242.574C696.988 242.618 696.847 242.682 696.729 242.765C696.615 242.849 696.524 242.95 696.458 243.068C696.397 243.183 696.366 243.31 696.366 243.451C696.366 243.626 696.397 243.774 696.458 243.892C696.524 244.011 696.619 244.116 696.742 244.209C696.865 244.301 697.014 244.385 697.19 244.459C697.366 244.534 697.566 244.615 697.79 244.703C698.089 244.817 698.357 244.936 698.594 245.059C698.832 245.178 699.034 245.314 699.201 245.468C699.368 245.617 699.495 245.791 699.583 245.989C699.675 246.186 699.721 246.421 699.721 246.694C699.721 247.028 699.647 247.318 699.497 247.564C699.352 247.81 699.157 248.014 698.911 248.177C698.665 248.34 698.381 248.46 698.06 248.54C697.74 248.619 697.403 248.658 697.052 248.658C696.357 248.658 695.755 248.524 695.246 248.256ZM701.943 240.036C701.75 240.036 701.585 239.97 701.448 239.838C701.312 239.707 701.244 239.54 701.244 239.337C701.244 239.135 701.312 238.968 701.448 238.836C701.585 238.7 701.75 238.632 701.943 238.632C702.141 238.632 702.308 238.7 702.444 238.836C702.584 238.968 702.655 239.135 702.655 239.337C702.655 239.531 702.584 239.696 702.444 239.832C702.308 239.968 702.141 240.036 701.943 240.036ZM702.47 248.5H701.389V241.75H702.47V248.5ZM707.48 248.658C706.482 248.658 705.685 248.344 705.087 247.716C704.494 247.083 704.197 246.246 704.197 245.204C704.197 244.07 704.507 243.185 705.127 242.548C705.746 241.91 706.583 241.592 707.638 241.592C708.645 241.592 709.429 241.902 709.991 242.521C710.558 243.141 710.842 244 710.842 245.099C710.842 246.175 710.536 247.039 709.926 247.689C709.319 248.335 708.504 248.658 707.48 248.658ZM707.559 242.501C706.865 242.501 706.315 242.739 705.911 243.213C705.507 243.684 705.305 244.334 705.305 245.165C705.305 245.964 705.509 246.595 705.918 247.056C706.326 247.518 706.874 247.749 707.559 247.749C708.258 247.749 708.794 247.522 709.167 247.07C709.545 246.617 709.734 245.973 709.734 245.138C709.734 244.294 709.545 243.644 709.167 243.187C708.794 242.73 708.258 242.501 707.559 242.501ZM718.172 248.5H717.091V244.65C717.091 243.218 716.568 242.501 715.522 242.501C714.981 242.501 714.533 242.706 714.177 243.115C713.826 243.519 713.65 244.031 713.65 244.65V248.5H712.569V241.75H713.65V242.871H713.676C714.186 242.018 714.924 241.592 715.891 241.592C716.629 241.592 717.194 241.831 717.585 242.31C717.976 242.785 718.172 243.473 718.172 244.374V248.5ZM727.051 248.434C726.796 248.575 726.46 248.645 726.042 248.645C724.86 248.645 724.269 247.986 724.269 246.667V242.673H723.109V241.75H724.269V240.102L725.35 239.753V241.75H727.051V242.673H725.35V246.476C725.35 246.929 725.427 247.252 725.581 247.445C725.735 247.639 725.99 247.735 726.346 247.735C726.618 247.735 726.853 247.661 727.051 247.511V248.434ZM733.326 248.5H732.245V247.445H732.219C731.749 248.254 731.057 248.658 730.143 248.658C729.47 248.658 728.943 248.48 728.561 248.124C728.183 247.768 727.994 247.296 727.994 246.707C727.994 245.446 728.736 244.712 730.222 244.505L732.245 244.222C732.245 243.075 731.782 242.501 730.854 242.501C730.042 242.501 729.308 242.778 728.653 243.332V242.225C729.316 241.803 730.081 241.592 730.947 241.592C732.533 241.592 733.326 242.431 733.326 244.11V248.5ZM732.245 245.085L730.617 245.31C730.116 245.38 729.738 245.505 729.483 245.685C729.229 245.861 729.101 246.175 729.101 246.628C729.101 246.958 729.218 247.228 729.45 247.439C729.688 247.645 730.002 247.749 730.393 247.749C730.929 247.749 731.371 247.562 731.718 247.188C732.07 246.81 732.245 246.333 732.245 245.758V245.085ZM736.471 247.524H736.444V248.5H735.363V238.507H736.444V242.937H736.471C737.002 242.04 737.78 241.592 738.804 241.592C739.67 241.592 740.347 241.895 740.834 242.501C741.327 243.104 741.573 243.912 741.573 244.927C741.573 246.057 741.298 246.962 740.749 247.643C740.199 248.32 739.448 248.658 738.494 248.658C737.602 248.658 736.928 248.28 736.471 247.524ZM736.444 244.802V245.745C736.444 246.303 736.625 246.777 736.985 247.168C737.35 247.555 737.811 247.749 738.369 247.749C739.024 247.749 739.536 247.498 739.905 246.997C740.279 246.496 740.465 245.8 740.465 244.907C740.465 244.156 740.292 243.567 739.945 243.141C739.597 242.715 739.127 242.501 738.534 242.501C737.906 242.501 737.4 242.721 737.018 243.161C736.635 243.596 736.444 244.143 736.444 244.802ZM744.381 248.5H743.3V238.507H744.381V248.5ZM751.994 245.395H747.229C747.246 246.147 747.448 246.727 747.835 247.135C748.222 247.544 748.753 247.749 749.43 247.749C750.19 247.749 750.889 247.498 751.526 246.997V248.012C750.933 248.443 750.149 248.658 749.173 248.658C748.219 248.658 747.47 248.353 746.925 247.742C746.38 247.127 746.108 246.263 746.108 245.151C746.108 244.101 746.405 243.246 746.998 242.587C747.595 241.924 748.336 241.592 749.219 241.592C750.103 241.592 750.786 241.877 751.269 242.449C751.753 243.02 751.994 243.813 751.994 244.828V245.395ZM750.887 244.479C750.883 243.855 750.731 243.369 750.432 243.022C750.138 242.675 749.727 242.501 749.199 242.501C748.69 242.501 748.257 242.684 747.901 243.049C747.545 243.413 747.325 243.89 747.242 244.479H750.887Z" fill="#333333"/>
<path d="M50.75 221C50.75 212.578 57.5777 205.75 66 205.75H234C242.422 205.75 249.25 212.578 249.25 221V250C249.25 258.422 242.422 265.25 234 265.25H66C57.5777 265.25 50.75 258.422 50.75 250V221Z" fill="white"/>
<path d="M50.75 221C50.75 212.578 57.5777 205.75 66 205.75H234C242.422 205.75 249.25 212.578 249.25 221V250C249.25 258.422 242.422 265.25 234 265.25H66C57.5777 265.25 50.75 258.422 50.75 250V221Z" stroke="#E1E1E1" stroke-width="1.5"/>
<path d="M94.75 227.625C94.75 225.209 92.7912 223.25 90.375 223.25H74.625C72.2088 223.25 70.25 225.209 70.25 227.625V243.375C70.25 245.791 72.2088 247.75 74.625 247.75H90.375C92.7912 247.75 94.75 245.791 94.75 243.375V227.625ZM72 243.375V240.75H77.25V246H74.625L74.3722 245.988C73.0411 245.861 72 244.739 72 243.375ZM86 240.75V246H79V240.75H86ZM90.375 246H87.75V240.75H93V243.375L92.988 243.628C92.8608 244.959 91.7395 246 90.375 246ZM86 232V239H79V232H86ZM87.75 232H93V239H87.75V232ZM86 225V230.25H79V225H86ZM87.75 225H90.375L90.6278 225.012C91.9589 225.139 93 226.261 93 227.625V230.25H87.75V225ZM77.25 225V230.25H72V227.625L72.012 227.372C72.1392 226.041 73.2605 225 74.625 225H77.25ZM77.25 232V239H72V232H77.25Z" fill="#242424"/>
<path d="M124.195 230.031C123.352 230.469 122.302 230.688 121.047 230.688C119.422 230.688 118.12 230.174 117.141 229.148C116.161 228.122 115.672 226.776 115.672 225.109C115.672 223.318 116.221 221.87 117.32 220.766C118.424 219.661 119.818 219.109 121.5 219.109C122.583 219.109 123.482 219.263 124.195 219.57V221.414C123.44 220.966 122.607 220.742 121.695 220.742C120.482 220.742 119.497 221.13 118.742 221.906C117.992 222.682 117.617 223.719 117.617 225.016C117.617 226.25 117.969 227.234 118.672 227.969C119.375 228.698 120.299 229.062 121.445 229.062C122.503 229.062 123.419 228.812 124.195 228.312V230.031ZM133.094 230.5H131.281V229.234H131.25C130.724 230.203 129.906 230.688 128.797 230.688C126.906 230.688 125.961 229.552 125.961 227.281V222.5H127.773V227.094C127.773 228.531 128.328 229.25 129.438 229.25C129.974 229.25 130.414 229.052 130.758 228.656C131.107 228.26 131.281 227.742 131.281 227.102V222.5H133.094V230.5ZM134.961 230.25V228.57C135.638 229.086 136.385 229.344 137.203 229.344C138.297 229.344 138.844 229.021 138.844 228.375C138.844 228.193 138.797 228.039 138.703 227.914C138.609 227.784 138.482 227.669 138.32 227.57C138.164 227.471 137.977 227.383 137.758 227.305C137.544 227.227 137.305 227.138 137.039 227.039C136.711 226.909 136.414 226.771 136.148 226.625C135.888 226.479 135.669 226.315 135.492 226.133C135.32 225.945 135.19 225.734 135.102 225.5C135.013 225.266 134.969 224.992 134.969 224.68C134.969 224.294 135.06 223.956 135.242 223.664C135.424 223.367 135.669 223.12 135.977 222.922C136.284 222.719 136.633 222.568 137.023 222.469C137.414 222.365 137.818 222.312 138.234 222.312C138.974 222.312 139.635 222.424 140.219 222.648V224.234C139.656 223.849 139.01 223.656 138.281 223.656C138.052 223.656 137.844 223.68 137.656 223.727C137.474 223.773 137.318 223.839 137.188 223.922C137.057 224.005 136.956 224.107 136.883 224.227C136.81 224.341 136.773 224.469 136.773 224.609C136.773 224.781 136.81 224.927 136.883 225.047C136.956 225.167 137.062 225.273 137.203 225.367C137.349 225.456 137.521 225.539 137.719 225.617C137.922 225.69 138.154 225.771 138.414 225.859C138.758 226 139.065 226.143 139.336 226.289C139.612 226.435 139.846 226.602 140.039 226.789C140.232 226.971 140.38 227.185 140.484 227.43C140.589 227.669 140.641 227.956 140.641 228.289C140.641 228.695 140.547 229.049 140.359 229.352C140.172 229.654 139.922 229.904 139.609 230.102C139.297 230.299 138.935 230.445 138.523 230.539C138.117 230.638 137.688 230.688 137.234 230.688C136.359 230.688 135.602 230.542 134.961 230.25ZM146.586 230.414C146.232 230.591 145.766 230.68 145.188 230.68C143.635 230.68 142.859 229.935 142.859 228.445V223.922H141.523V222.5H142.859V220.648L144.672 220.133V222.5H146.586V223.922H144.672V227.922C144.672 228.396 144.758 228.734 144.93 228.938C145.102 229.141 145.388 229.242 145.789 229.242C146.096 229.242 146.362 229.154 146.586 228.977V230.414ZM151.602 230.688C150.367 230.688 149.38 230.315 148.641 229.57C147.906 228.82 147.539 227.828 147.539 226.594C147.539 225.25 147.922 224.201 148.688 223.445C149.458 222.69 150.495 222.312 151.797 222.312C153.047 222.312 154.021 222.68 154.719 223.414C155.417 224.148 155.766 225.167 155.766 226.469C155.766 227.745 155.388 228.768 154.633 229.539C153.883 230.305 152.872 230.688 151.602 230.688ZM151.688 223.758C150.979 223.758 150.419 224.005 150.008 224.5C149.596 224.995 149.391 225.677 149.391 226.547C149.391 227.385 149.599 228.047 150.016 228.531C150.432 229.01 150.99 229.25 151.688 229.25C152.401 229.25 152.948 229.013 153.328 228.539C153.714 228.065 153.906 227.391 153.906 226.516C153.906 225.635 153.714 224.956 153.328 224.477C152.948 223.997 152.401 223.758 151.688 223.758ZM169.578 230.5H167.766V226.141C167.766 225.302 167.646 224.695 167.406 224.32C167.172 223.945 166.773 223.758 166.211 223.758C165.737 223.758 165.333 223.995 165 224.469C164.672 224.943 164.508 225.51 164.508 226.172V230.5H162.688V225.992C162.688 224.503 162.161 223.758 161.109 223.758C160.62 223.758 160.216 223.982 159.898 224.43C159.586 224.878 159.43 225.458 159.43 226.172V230.5H157.617V222.5H159.43V223.766H159.461C160.039 222.797 160.88 222.312 161.984 222.312C162.536 222.312 163.018 222.466 163.43 222.773C163.846 223.076 164.13 223.474 164.281 223.969C164.875 222.865 165.76 222.312 166.938 222.312C168.698 222.312 169.578 223.398 169.578 225.57V230.5ZM178.562 226.992H173.109C173.13 227.732 173.357 228.302 173.789 228.703C174.227 229.104 174.826 229.305 175.586 229.305C176.44 229.305 177.224 229.049 177.938 228.539V230C177.208 230.458 176.245 230.688 175.047 230.688C173.87 230.688 172.945 230.326 172.273 229.602C171.607 228.872 171.273 227.849 171.273 226.531C171.273 225.286 171.641 224.273 172.375 223.492C173.115 222.706 174.031 222.312 175.125 222.312C176.219 222.312 177.065 222.664 177.664 223.367C178.263 224.07 178.562 225.047 178.562 226.297V226.992ZM176.812 225.711C176.807 225.06 176.654 224.555 176.352 224.195C176.049 223.831 175.633 223.648 175.102 223.648C174.581 223.648 174.138 223.839 173.773 224.219C173.414 224.599 173.193 225.096 173.109 225.711H176.812ZM184.93 224.227C184.711 224.055 184.396 223.969 183.984 223.969C183.448 223.969 183 224.211 182.641 224.695C182.281 225.18 182.102 225.839 182.102 226.672V230.5H180.289V222.5H182.102V224.148H182.133C182.31 223.586 182.581 223.148 182.945 222.836C183.315 222.518 183.727 222.359 184.18 222.359C184.508 222.359 184.758 222.409 184.93 222.508V224.227Z" fill="#333333"/>
<path d="M121.855 248.5H120.774V247.353H120.748C120.247 248.223 119.474 248.658 118.428 248.658C117.58 248.658 116.901 248.357 116.391 247.755C115.885 247.149 115.633 246.325 115.633 245.283C115.633 244.167 115.914 243.273 116.477 242.6C117.039 241.928 117.788 241.592 118.724 241.592C119.652 241.592 120.326 241.957 120.748 242.686H120.774V238.507H121.855V248.5ZM120.774 245.448V244.453C120.774 243.908 120.594 243.446 120.234 243.068C119.874 242.69 119.417 242.501 118.863 242.501C118.204 242.501 117.685 242.743 117.307 243.227C116.929 243.71 116.74 244.378 116.74 245.23C116.74 246.008 116.92 246.624 117.281 247.076C117.646 247.524 118.133 247.749 118.744 247.749C119.346 247.749 119.834 247.531 120.208 247.096C120.585 246.661 120.774 246.112 120.774 245.448ZM124.598 240.036C124.404 240.036 124.24 239.97 124.103 239.838C123.967 239.707 123.899 239.54 123.899 239.337C123.899 239.135 123.967 238.968 124.103 238.836C124.24 238.7 124.404 238.632 124.598 238.632C124.795 238.632 124.962 238.7 125.099 238.836C125.239 238.968 125.31 239.135 125.31 239.337C125.31 239.531 125.239 239.696 125.099 239.832C124.962 239.968 124.795 240.036 124.598 240.036ZM125.125 248.5H124.044V241.75H125.125V248.5ZM136.898 248.5H135.817V244.624C135.817 243.877 135.7 243.336 135.468 243.002C135.239 242.668 134.852 242.501 134.307 242.501C133.846 242.501 133.453 242.712 133.127 243.134C132.807 243.556 132.646 244.062 132.646 244.65V248.5H131.565V244.492C131.565 243.165 131.053 242.501 130.029 242.501C129.555 242.501 129.164 242.701 128.856 243.101C128.548 243.497 128.395 244.013 128.395 244.65V248.5H127.313V241.75H128.395V242.818H128.421C128.9 242 129.599 241.592 130.517 241.592C130.979 241.592 131.381 241.721 131.723 241.981C132.066 242.236 132.301 242.572 132.429 242.989C132.93 242.058 133.677 241.592 134.67 241.592C136.155 241.592 136.898 242.508 136.898 244.341V248.5ZM144.366 245.395H139.601C139.618 246.147 139.82 246.727 140.207 247.135C140.594 247.544 141.125 247.749 141.802 247.749C142.562 247.749 143.261 247.498 143.898 246.997V248.012C143.305 248.443 142.521 248.658 141.545 248.658C140.592 248.658 139.842 248.353 139.297 247.742C138.752 247.127 138.48 246.263 138.48 245.151C138.48 244.101 138.777 243.246 139.37 242.587C139.968 241.924 140.708 241.592 141.591 241.592C142.475 241.592 143.158 241.877 143.641 242.449C144.125 243.02 144.366 243.813 144.366 244.828V245.395ZM143.259 244.479C143.255 243.855 143.103 243.369 142.804 243.022C142.51 242.675 142.099 242.501 141.572 242.501C141.062 242.501 140.629 242.684 140.273 243.049C139.917 243.413 139.697 243.89 139.614 244.479H143.259ZM151.611 248.5H150.53V244.65C150.53 243.218 150.007 242.501 148.961 242.501C148.42 242.501 147.972 242.706 147.616 243.115C147.265 243.519 147.089 244.031 147.089 244.65V248.5H146.008V241.75H147.089V242.871H147.115C147.625 242.018 148.363 241.592 149.33 241.592C150.068 241.592 150.633 241.831 151.024 242.31C151.415 242.785 151.611 243.473 151.611 244.374V248.5ZM153.246 248.256V247.096C153.834 247.531 154.483 247.749 155.19 247.749C156.139 247.749 156.614 247.432 156.614 246.799C156.614 246.619 156.572 246.468 156.489 246.344C156.41 246.217 156.3 246.105 156.159 246.008C156.023 245.912 155.86 245.826 155.671 245.751C155.487 245.672 155.287 245.591 155.072 245.507C154.773 245.389 154.509 245.27 154.281 245.151C154.056 245.028 153.867 244.892 153.714 244.743C153.564 244.589 153.45 244.415 153.371 244.222C153.296 244.029 153.259 243.802 153.259 243.543C153.259 243.227 153.331 242.948 153.476 242.706C153.621 242.46 153.815 242.255 154.056 242.093C154.298 241.926 154.573 241.801 154.88 241.717C155.192 241.634 155.513 241.592 155.843 241.592C156.427 241.592 156.95 241.693 157.412 241.895V242.989C156.915 242.664 156.344 242.501 155.698 242.501C155.496 242.501 155.313 242.526 155.151 242.574C154.988 242.618 154.847 242.682 154.729 242.765C154.615 242.849 154.524 242.95 154.458 243.068C154.397 243.183 154.366 243.31 154.366 243.451C154.366 243.626 154.397 243.774 154.458 243.892C154.524 244.011 154.619 244.116 154.742 244.209C154.865 244.301 155.014 244.385 155.19 244.459C155.366 244.534 155.566 244.615 155.79 244.703C156.089 244.817 156.357 244.936 156.594 245.059C156.832 245.178 157.034 245.314 157.201 245.468C157.368 245.617 157.495 245.791 157.583 245.989C157.675 246.186 157.721 246.421 157.721 246.694C157.721 247.028 157.647 247.318 157.497 247.564C157.352 247.81 157.157 248.014 156.911 248.177C156.665 248.34 156.381 248.46 156.06 248.54C155.74 248.619 155.403 248.658 155.052 248.658C154.357 248.658 153.755 248.524 153.246 248.256ZM159.943 240.036C159.75 240.036 159.585 239.97 159.448 239.838C159.312 239.707 159.244 239.54 159.244 239.337C159.244 239.135 159.312 238.968 159.448 238.836C159.585 238.7 159.75 238.632 159.943 238.632C160.141 238.632 160.308 238.7 160.444 238.836C160.584 238.968 160.655 239.135 160.655 239.337C160.655 239.531 160.584 239.696 160.444 239.832C160.308 239.968 160.141 240.036 159.943 240.036ZM160.47 248.5H159.389V241.75H160.47V248.5ZM165.48 248.658C164.482 248.658 163.685 248.344 163.087 247.716C162.494 247.083 162.197 246.246 162.197 245.204C162.197 244.07 162.507 243.185 163.127 242.548C163.746 241.91 164.583 241.592 165.638 241.592C166.645 241.592 167.429 241.902 167.991 242.521C168.558 243.141 168.842 244 168.842 245.099C168.842 246.175 168.536 247.039 167.926 247.689C167.319 248.335 166.504 248.658 165.48 248.658ZM165.559 242.501C164.865 242.501 164.315 242.739 163.911 243.213C163.507 243.684 163.305 244.334 163.305 245.165C163.305 245.964 163.509 246.595 163.918 247.056C164.326 247.518 164.874 247.749 165.559 247.749C166.258 247.749 166.794 247.522 167.167 247.07C167.545 246.617 167.734 245.973 167.734 245.138C167.734 244.294 167.545 243.644 167.167 243.187C166.794 242.73 166.258 242.501 165.559 242.501ZM176.172 248.5H175.091V244.65C175.091 243.218 174.568 242.501 173.522 242.501C172.981 242.501 172.533 242.706 172.177 243.115C171.826 243.519 171.65 244.031 171.65 244.65V248.5H170.569V241.75H171.65V242.871H171.676C172.186 242.018 172.924 241.592 173.891 241.592C174.629 241.592 175.194 241.831 175.585 242.31C175.976 242.785 176.172 243.473 176.172 244.374V248.5ZM185.051 248.434C184.796 248.575 184.46 248.645 184.042 248.645C182.86 248.645 182.269 247.986 182.269 246.667V242.673H181.109V241.75H182.269V240.102L183.35 239.753V241.75H185.051V242.673H183.35V246.476C183.35 246.929 183.427 247.252 183.581 247.445C183.735 247.639 183.99 247.735 184.346 247.735C184.618 247.735 184.853 247.661 185.051 247.511V248.434ZM191.326 248.5H190.245V247.445H190.219C189.749 248.254 189.057 248.658 188.143 248.658C187.47 248.658 186.943 248.48 186.561 248.124C186.183 247.768 185.994 247.296 185.994 246.707C185.994 245.446 186.736 244.712 188.222 244.505L190.245 244.222C190.245 243.075 189.782 242.501 188.854 242.501C188.042 242.501 187.308 242.778 186.653 243.332V242.225C187.316 241.803 188.081 241.592 188.947 241.592C190.533 241.592 191.326 242.431 191.326 244.11V248.5ZM190.245 245.085L188.617 245.31C188.116 245.38 187.738 245.505 187.483 245.685C187.229 245.861 187.101 246.175 187.101 246.628C187.101 246.958 187.218 247.228 187.45 247.439C187.688 247.645 188.002 247.749 188.393 247.749C188.929 247.749 189.371 247.562 189.718 247.188C190.07 246.81 190.245 246.333 190.245 245.758V245.085ZM194.471 247.524H194.444V248.5H193.363V238.507H194.444V242.937H194.471C195.002 242.04 195.78 241.592 196.804 241.592C197.67 241.592 198.347 241.895 198.834 242.501C199.327 243.104 199.573 243.912 199.573 244.927C199.573 246.057 199.298 246.962 198.749 247.643C198.199 248.32 197.448 248.658 196.494 248.658C195.602 248.658 194.928 248.28 194.471 247.524ZM194.444 244.802V245.745C194.444 246.303 194.625 246.777 194.985 247.168C195.35 247.555 195.811 247.749 196.369 247.749C197.024 247.749 197.536 247.498 197.905 246.997C198.279 246.496 198.465 245.8 198.465 244.907C198.465 244.156 198.292 243.567 197.945 243.141C197.597 242.715 197.127 242.501 196.534 242.501C195.906 242.501 195.4 242.721 195.018 243.161C194.635 243.596 194.444 244.143 194.444 244.802ZM202.381 248.5H201.3V238.507H202.381V248.5ZM209.994 245.395H205.229C205.246 246.147 205.448 246.727 205.835 247.135C206.222 247.544 206.753 247.749 207.43 247.749C208.19 247.749 208.889 247.498 209.526 246.997V248.012C208.933 248.443 208.149 248.658 207.173 248.658C206.219 248.658 205.47 248.353 204.925 247.742C204.38 247.127 204.108 246.263 204.108 245.151C204.108 244.101 204.405 243.246 204.998 242.587C205.595 241.924 206.336 241.592 207.219 241.592C208.103 241.592 208.786 241.877 209.269 242.449C209.753 243.02 209.994 243.813 209.994 244.828V245.395ZM208.887 244.479C208.883 243.855 208.731 243.369 208.432 243.022C208.138 242.675 207.727 242.501 207.199 242.501C206.69 242.501 206.257 242.684 205.901 243.049C205.545 243.413 205.325 243.89 205.242 244.479H208.887Z" fill="#333333"/>
<defs>
<radialGradient id="paint0_radial_1_353" cx="0" cy="0" r="1" gradientUnits="userSpaceOnUse" gradientTransform="translate(126.502 62.6318) rotate(29.0478) scale(924.514 619.381)">
<stop offset="0.198869" stop-color="#8EE3E8"/>
<stop offset="1" stop-color="#19177E"/>
</radialGradient>
<radialGradient id="paint1_radial_1_353" cx="0" cy="0" r="1" gradientUnits="userSpaceOnUse" gradientTransform="translate(421 287) rotate(55.9779) scale(215.366 214.304)">
<stop stop-color="#3477EA" stop-opacity="0.15"/>
<stop offset="1" stop-color="#1D53A4" stop-opacity="0.25"/>
</radialGradient>
<linearGradient id="paint2_linear_1_353" x1="196" y1="71.9999" x2="645.998" y2="522.001" gradientUnits="userSpaceOnUse">
<stop stop-color="#3477EA"/>
<stop offset="1" stop-color="#1D53A4"/>
</linearGradient>
<linearGradient id="paint3_linear_1_353" x1="363.5" y1="266.5" x2="398.5" y2="301.5" gradientUnits="userSpaceOnUse">
<stop stop-color="#3477EA"/>
<stop offset="1" stop-color="#1D53A4"/>
</linearGradient>
<linearGradient id="paint4_linear_1_353" x1="412" y1="257" x2="439.319" y2="305.663" gradientUnits="userSpaceOnUse">
<stop stop-color="#3477EA"/>
<stop offset="1" stop-color="#1D53A4"/>
</linearGradient>
<linearGradient id="paint5_linear_1_353" x1="412" y1="286" x2="423.699" y2="324.439" gradientUnits="userSpaceOnUse">
<stop stop-color="#3477EA"/>
<stop offset="1" stop-color="#1D53A4"/>
</linearGradient>
</defs>
</svg>
