<?xml version="1.0" encoding="UTF-8"?>
<svg xmlns="http://www.w3.org/2000/svg" width="616" height="237.6" xmlns:xlink="http://www.w3.org/1999/xlink" viewBox="0 0 616 237.6">
  <defs>
    <linearGradient id="linear-gradient" x1="22.95817" y1="-311.5116" x2="16.43524" y2="-330.78184" gradientTransform="translate(0 -288.4) scale(1 -1)" gradientUnits="userSpaceOnUse">
      <stop offset="0" stop-color="#114a8b"/>
      <stop offset="1" stop-color="#0669bc"/>
    </linearGradient>
    <linearGradient id="linear-gradient-2" x1="24.94846" y1="-320.4137" x2="23.40187" y2="-320.94128" gradientTransform="translate(0 -288.4) scale(1 -1)" gradientUnits="userSpaceOnUse">
      <stop offset="0" stop-color="#000" stop-opacity=".3"/>
      <stop offset=".07118" stop-color="#000" stop-opacity=".2"/>
      <stop offset=".32103" stop-color="#000" stop-opacity=".1"/>
      <stop offset=".62305" stop-color="#000" stop-opacity=".05"/>
      <stop offset="1" stop-color="#000" stop-opacity="0"/>
    </linearGradient>
    <linearGradient id="linear-gradient-3" x1="24.15425" y1="-310.94931" x2="31.31434" y2="-330.02556" gradientTransform="translate(0 -288.4) scale(1 -1)" gradientUnits="userSpaceOnUse">
      <stop offset="0" stop-color="#3ccbf4"/>
      <stop offset="1" stop-color="#2892df"/>
    </linearGradient>
    <linearGradient id="linear-gradient-4" x1="128.2732" y1="-358.02945" x2="128.2732" y2="-350.03037" gradientTransform="translate(84 -314.4) scale(1 -1)" gradientUnits="userSpaceOnUse">
      <stop offset=".056" stop-color="#2aac94"/>
      <stop offset=".155" stop-color="#239c87"/>
      <stop offset=".372" stop-color="#177e71"/>
      <stop offset=".588" stop-color="#0e6961"/>
      <stop offset=".799" stop-color="#095d57"/>
      <stop offset="1" stop-color="#085954"/>
    </linearGradient>
    <linearGradient id="linear-gradient-5" x1="136.57681" y1="-353.88395" x2="128.85257" y2="-345.4828" gradientTransform="translate(84 -314.4) scale(1 -1)" gradientUnits="userSpaceOnUse">
      <stop offset=".04175" stop-color="#abe88e"/>
      <stop offset=".54893" stop-color="#2aaa92"/>
      <stop offset=".906" stop-color="#117865"/>
    </linearGradient>
    <linearGradient id="linear-gradient-6" x1="119.27385" y1="-351.44935" x2="126.62452" y2="-348.94263" gradientTransform="translate(84 -314.4) scale(1 -1)" gradientUnits="userSpaceOnUse">
      <stop offset="0" stop-color="#6ad6f9"/>
      <stop offset="1" stop-color="#6ad6f9" stop-opacity="0"/>
    </linearGradient>
    <linearGradient id="linear-gradient-7" x1="125.00655" y1="-342.19979" x2="144.57265" y2="-342.19979" gradientTransform="translate(84 -314.4) scale(1 -1)" gradientUnits="userSpaceOnUse">
      <stop offset=".043" stop-color="#25ffd4"/>
      <stop offset=".874" stop-color="#55ddb9"/>
    </linearGradient>
    <linearGradient id="linear-gradient-8" x1="125.70536" y1="-337.9601" x2="143.33057" y2="-346.1444" gradientTransform="translate(84 -314.4) scale(1 -1)" gradientUnits="userSpaceOnUse">
      <stop offset="0" stop-color="#6ad6f9"/>
      <stop offset=".2295" stop-color="#60e9d0"/>
      <stop offset=".65071" stop-color="#6de9bb"/>
      <stop offset=".99354" stop-color="#abe88e"/>
    </linearGradient>
    <linearGradient id="linear-gradient-9" x1="126.76374" y1="-340.42527" x2="136.34755" y2="-342.54496" gradientTransform="translate(84 -314.4) scale(1 -1)" gradientUnits="userSpaceOnUse">
      <stop offset="0" stop-color="#fff" stop-opacity="0"/>
      <stop offset=".45851" stop-color="#fff"/>
      <stop offset="1" stop-color="#fff" stop-opacity="0"/>
    </linearGradient>
    <linearGradient id="linear-gradient-10" x1="131.30169" y1="-349.25686" x2="131.52812" y2="-342.53596" gradientTransform="translate(84 -314.4) scale(1 -1)" gradientUnits="userSpaceOnUse">
      <stop offset=".20464" stop-color="#063d3b" stop-opacity="0"/>
      <stop offset=".58553" stop-color="#063d3b" stop-opacity=".23659"/>
      <stop offset=".87229" stop-color="#063d3b" stop-opacity=".75"/>
    </linearGradient>
    <linearGradient id="linear-gradient-11" x1="122.91905" y1="-347.34504" x2="131.10904" y2="-348.88538" xlink:href="#linear-gradient-9"/>
    <linearGradient id="linear-gradient-12" x1="128.78213" y1="-355.77774" x2="127.18453" y2="-347.96435" gradientTransform="translate(84 -314.4) scale(1 -1)" gradientUnits="userSpaceOnUse">
      <stop offset=".064" stop-color="#063d3b" stop-opacity="0"/>
      <stop offset=".17" stop-color="#063d3b" stop-opacity=".135"/>
      <stop offset=".562" stop-color="#063d3b" stop-opacity=".599"/>
      <stop offset=".85" stop-color="#063d3b" stop-opacity=".9"/>
      <stop offset="1" stop-color="#063d3b"/>
    </linearGradient>
    <linearGradient id="linear-gradient-13" x1="-246.91618" y1="105.60454" x2="-246.91618" y2="108.86473" gradientTransform="translate(564 -54.48401)" gradientUnits="userSpaceOnUse">
      <stop offset="0" stop-color="#50e6ff"/>
      <stop offset="1" stop-color="#32bedd"/>
    </linearGradient>
    <linearGradient id="linear-gradient-14" x1="-246.934" y1="-117.99008" x2="-246.934" y2="-114.72989" gradientTransform="translate(564 -54.4) scale(1 -1)" gradientUnits="userSpaceOnUse">
      <stop offset="0" stop-color="#5e9624"/>
      <stop offset=".183" stop-color="#629c25"/>
      <stop offset=".435" stop-color="#6dae2a"/>
      <stop offset=".726" stop-color="#7fcb30"/>
      <stop offset=".822" stop-color="#86d633"/>
    </linearGradient>
    <linearGradient id="linear-gradient-15" x1="-245.23134" y1="-196.83447" x2="-233.23044" y2="-196.83447" gradientTransform="translate(565.56852 -56.52799) rotate(.147) scale(1 -1)" gradientUnits="userSpaceOnUse">
      <stop offset="0" stop-color="#005ba1"/>
      <stop offset=".068" stop-color="#0060a9"/>
      <stop offset=".356" stop-color="#0071c8"/>
      <stop offset=".517" stop-color="#0078d4"/>
      <stop offset=".642" stop-color="#0074cd"/>
      <stop offset=".82" stop-color="#006abb"/>
      <stop offset="1" stop-color="#005ba1"/>
    </linearGradient>
  </defs>
  <g id="Shapes">
    <rect width="616" height="237.6" fill="#fff"/>
    <g>
      <rect x="211.2" y="30.8" width="391.6" height="193.6" fill="#fff"/>
      <g opacity=".2">
        <rect x="211.2" y="30.8" width="391.6" height="193.6" fill="#71e9b8"/>
      </g>
      <path d="M602.92494,224.52461H211.07485V30.675h391.8501v193.84961ZM211.32485,224.27461h391.3501V30.925H211.32485v193.34961Z" fill="#1c8371"/>
    </g>
    <g>
      <rect x="16.50806" y="30.8" width="155.09194" height="66" fill="#fff"/>
      <g opacity=".25">
        <rect x="16.50806" y="30.8" width="155.09194" height="66" fill="#83b9f9"/>
      </g>
      <path d="M171.72524,96.925H16.38295V30.675h155.34229v66.25ZM16.63295,96.675h154.84229V30.925H16.63295v65.75Z" fill="#1b93eb"/>
    </g>
    <g>
      <path d="M19.72036,22.30967c.13717-.40651.51841-.68022.94745-.68022h6.28208l-6.52042,19.31972c-.13717.40651-.51841.68024-.94745.68024h-4.88917c-.68413,0-1.16626-.67159-.94749-1.31981l6.07501-17.99992Z" fill="url(#linear-gradient)"/>
      <path d="M29.76328,34.62947h-9.90048c-.41599,0-.61686.50953-.31273.7934l6.36174,5.93761c.18519.17283.42903.26897.68232.26897h5.60582l-2.43667-6.99998Z" fill="#0078d4"/>
      <path d="M26.94998,21.62945h-6.99998l-6.75,19.99995h6.99996l1.43727-4.25857,4.56275,4.25857h5.99997l-2.43667-6.99998h-7.2008l4.38751-12.99998Z" fill="url(#linear-gradient-2)"/>
      <path d="M28.67954,22.30967c-.13721-.40651-.51846-.68022-.9475-.68022h-7.03208.03211c.42904,0,.81028.27371.9475.68022l6.07496,17.99992c.21877.64822-.26337,1.31981-.9475,1.31981h-.1071,7.10707c.68413,0,1.16627-.67159.9475-1.31981l-6.07496-17.99992Z" fill="url(#linear-gradient-3)"/>
    </g>
    <g>
      <path d="M208.25121,36.80871l-.3222,1.17922c-.12008.37723-.28828.93134-.37903,1.42446-.12925.34099-.19983.71085-.19983,1.09722,0,1.59314,1.20355,2.90484,2.75083,3.07628.43541.06275.92808.05956,1.48037-.02156l2.53724-.35017c.63798-.088,1.16184-.54861,1.33145-1.17009l1.7462-6.41368-8.94504,1.17834Z" fill="url(#linear-gradient-4)" fill-rule="evenodd"/>
      <path d="M210.72602,37.11246c-2.67427.4143-3.22334,2.4323-3.22334,2.4323l2.56109-9.41021,13.38248-1.81038-1.82506,6.62867c-.09487.35518-.39324.62742-.7631.68379l-.07469.01238-10.1325,1.47626.07513-.01281Z" fill="url(#linear-gradient-5)"/>
      <path d="M210.72602,37.11246c-2.67427.4143-3.22334,2.4323-3.22334,2.4323l2.56109-9.41021,13.38248-1.81038-1.82506,6.62867c-.09487.35518-.39324.62742-.7631.68379l-.07469.01238-10.1325,1.47626.07513-.01281Z" fill="url(#linear-gradient-6)" fill-opacity=".8"/>
      <path d="M212.24365,31.10841l14.81517-2.18849c.35243-.04812.63798-.30612.72779-.64392l1.52895-5.53329c.02112-.07517.03212-.15446.03212-.23604,0-.48444-.39236-.87722-.87722-.87722-.03762,0-.07518.00229-.11137.00687l-14.13644,2.08902c-1.53533.24658-2.7751,1.37907-3.17753,2.85627l-2.03858,7.38853c.40928-1.49458.6609-2.39562,3.2371-2.86173Z" fill="url(#linear-gradient-7)"/>
      <path d="M212.24365,31.10841l14.81517-2.18849c.35243-.04812.63798-.30612.72779-.64392l1.52895-5.53329c.02112-.07517.03212-.15446.03212-.23604,0-.48444-.39236-.87722-.87722-.87722-.03762,0-.07518.00229-.11137.00687l-14.13644,2.08902c-1.53533.24658-2.7751,1.37907-3.17753,2.85627l-2.03858,7.38853c.40928-1.49458.6609-2.39562,3.2371-2.86173Z" fill="url(#linear-gradient-8)"/>
      <path d="M212.24365,31.10841l14.81517-2.18849c.35243-.04812.63798-.30612.72779-.64392l1.52895-5.53329c.02112-.07517.03212-.15446.03212-.23604,0-.48444-.39236-.87722-.87722-.87722-.03762,0-.07518.00229-.11137.00687l-14.13644,2.08902c-1.53533.24658-2.7751,1.37907-3.17753,2.85627l-2.03858,7.38853c.40928-1.49458.6609-2.39562,3.2371-2.86173Z" fill="url(#linear-gradient-9)" fill-opacity=".4"/>
      <path d="M212.24354,31.10879c-2.14539.38818-2.67796,1.07934-3.03269,2.16231l-1.70815,6.27487s.54586-1.99781,3.18759-2.42498l10.09356-1.47027.07474-.01237c.36986-.05637.66823-.32906.7631-.68379l1.50145-5.45308-10.8796,1.60733Z" fill="url(#linear-gradient-10)"/>
      <path d="M212.24354,31.10879c-2.14539.38818-2.67796,1.07934-3.03269,2.16231l-1.70815,6.27487s.54586-1.99781,3.18759-2.42498l10.09356-1.47027.07474-.01237c.36986-.05637.66823-.32906.7631-.68379l1.50145-5.45308-10.8796,1.60733Z" fill="url(#linear-gradient-11)" fill-opacity=".2"/>
      <path d="M210.69038,37.12104c-2.23247.36117-2.96578,1.83969-3.1404,2.29024-.12925.34192-.19983.71179-.19983,1.09815,0,1.59308,1.20355,2.90479,2.75083,3.07622.43541.06281.92808.05956,1.48037-.02156l2.53724-.35012c.63798-.088,1.16184-.54861,1.33145-1.17009l1.59171-5.8477-6.35093.92535-.00044-.0005Z" fill="url(#linear-gradient-12)" fill-rule="evenodd"/>
    </g>
    <g>
      <rect x="34.45062" y="48.4" width="118.45744" height="30.8" fill="#fff"/>
      <path d="M153.03285,79.32539H34.32582v-31.05078h118.70703v31.05078ZM34.57582,79.07539h118.20703v-30.55078H34.57582v30.55078Z" fill="#0078d4"/>
    </g>
    <g>
      <rect x="228.8" y="43.64736" width="356.4" height="30.8" fill="#fff"/>
      <path d="M585.32485,74.57246H228.67494v-31.0498h356.6499v31.0498ZM228.92494,74.32246h356.1499v-30.5498H228.92494v30.5498Z" fill="#1c8371"/>
    </g>
    <g>
      <rect x="228.8" y="114.4" width="356.4" height="92.4" fill="#fff"/>
      <g opacity=".4">
        <rect x="228.8" y="114.4" width="356.4" height="92.4" fill="#4bc5b1"/>
      </g>
      <path d="M585.32485,206.925H228.67494v-92.65039h356.6499v92.65039ZM228.92494,206.675h356.1499v-92.15039H228.92494v92.15039Z" fill="#258277"/>
    </g>
    <g>
      <rect x="16.50806" y="114.4" width="155.55805" height="61.6" fill="#fff"/>
      <g opacity=".6">
        <rect x="16.50806" y="114.4" width="155.55805" height="61.6" fill="#e1ddd8"/>
      </g>
      <path d="M172.19106,176.1252H16.38295v-61.85059h155.80811v61.85059ZM16.63295,175.8752h155.30811v-61.35059H16.63295v61.35059Z" fill="#8e8278"/>
    </g>
    <path d="M162.8,22h13.6c2.2,0,4,1.8,4,4v154.8c0,2.2-1.8,4-4,4h-13.6" fill="none" stroke="#3c3c41" stroke-miterlimit="10" stroke-width=".75"/>
    <g>
      <line x1="180.4" y1="103.39999" x2="207.16337" y2="103.39999" fill="none" stroke="#3c3c41" stroke-miterlimit="10" stroke-width=".75"/>
      <polygon points="206.34269 106.2048 211.2 103.39999 206.34269 100.59518 206.34269 106.2048" fill="#3c3c41"/>
    </g>
    <g>
      <line x1="407.00001" y1="74.16696" x2="407.00001" y2="110.36337" fill="none" stroke="#3c3c41" stroke-miterlimit="10" stroke-width=".75"/>
      <polygon points="404.1952 109.54269 407.00001 114.39999 409.80482 109.54269 404.1952 109.54269" fill="#3c3c41"/>
    </g>
    <g>
      <path d="M315.92644,63.11925c.63205.6411,1.66414.64844,2.30524.01639s.64844-1.66414.01639-2.30524c-.0121-.01227-.02439-.02435-.03687-.03623-.16696-.16273-.36729-.28722-.58713-.36485v-7.00153h-1.04296v6.98183c-.85625.26261-1.33748,1.16963-1.07487,2.02588.07975.26001.2236.49578.41833.68563l.00188-.00188Z" fill="#b3b3b3"/>
      <circle cx="317.08382" cy="52.67746" r="1.63009" fill="url(#linear-gradient-13)"/>
      <g>
        <path d="M314.37375,66.34157l-.62054.6223c-.10973.11004-.28788.11029-.39792.00056h0l-4.58856-4.5756c-.22008-.21946-.22058-.57577-.00113-.79585h0s.62054-.6223.62054-.6223h0l4.98704,4.97296c.11004.10973.11029.28788.00056.39792Z" fill="#50e6ff"/>
        <path d="M313.66167,57.06403l.6223.62054c.11004.10973.11029.28788.00056.39792h0l-4.90078,4.91465h0l-.62297-.62121c-.22008-.21946-.22058-.57577-.00112-.79585h0l4.50342-4.51617c.10973-.11004.28788-.11029.39792-.00056.00022.00022.00044.00044.00066.00066Z" fill="#1490df"/>
        <path d="M324.62249,60.97148l.62054.6223c.21946.22008.21895.57639-.00112.79585h0s-4.58856,4.5756-4.58856,4.5756c-.11004.10973-.28819.10948-.39792-.00056l-.62054-.6223c-.10973-.11004-.10948-.28819.00056-.39792l4.98704-4.97296h0Z" fill="#50e6ff"/>
        <path d="M325.24787,62.37378l-.6223.62054h0l-4.90078-4.91465c-.10973-.11004-.10948-.28819.00056-.39792h0l.6223-.62054c.11004-.10973.28819-.10948.39792.00056h0l4.50342,4.51617c.21946.22008.21895.57639-.00113.79585h0Z" fill="#1490df"/>
      </g>
      <circle cx="317.066" cy="61.95999" r="1.63009" fill="url(#linear-gradient-14)"/>
    </g>
    <g>
      <rect x="237.6" y="123.2" width="338.8" height="30.8" fill="#fff"/>
      <path d="M576.52504,154.1252H237.47524v-31.0498h339.0498v31.0498ZM237.72524,153.8752h338.5498v-30.5498H237.72524v30.5498Z" fill="#1c8371"/>
    </g>
    <g>
      <rect x="237.6" y="167.2" width="88.22006" height="30.31472" fill="#fff"/>
      <path d="M325.94496,197.63984h-88.46973v-30.56445h88.46973v30.56445ZM237.72524,197.38984h87.96973v-30.06445h-87.96973v30.06445Z" fill="#1c8371"/>
    </g>
    <g>
      <rect x="514.79998" y="167.2" width="61.6" height="30.31472" fill="#fff"/>
      <path d="M576.52504,197.63984h-61.8501v-30.56445h61.8501v30.56445ZM514.92494,197.38984h61.3501v-30.06445h-61.3501v30.06445Z" fill="#1c8371"/>
    </g>
    <g id="bdd66f0d-1091-4867-9f64-cdf433204a8a">
      <g>
        <path d="M325.84485,134.97205c-3.31405-.00847-5.99749-.99393-5.99466-2.20153l-.03012,11.62884c0,1.19724,2.63543,2.17611,5.91278,2.20059h.08189c3.31405.00847,6.00313-.96287,6.00596-2.17047l.03012-11.62884c-.00282,1.20853-2.6919,2.17988-6.00596,2.17141Z" fill="url(#linear-gradient-15)"/>
        <path d="M331.8508,132.80158c0,1.20665-2.6919,2.17894-6.00596,2.17047s-5.99749-.99393-5.99466-2.20153,2.69096-2.17894,6.00596-2.17047c3.315.00847,5.99749.99393,5.99466,2.20153" fill="#e6e6e6"/>
        <path d="M330.44744,132.62087c0,.76804-2.06317,1.38454-4.60259,1.37795s-4.596-.63344-4.59412-1.40148,2.06317-1.38454,4.60353-1.37795,4.59789.63344,4.596,1.40148" fill="#50e6ff"/>
        <path d="M325.84955,132.92959c-1.2352-.03226-2.46707.14272-3.64442.51767,1.17302.39366,2.40557.5803,3.64254.55156,1.2365.03489,2.46965-.14537,3.64442-.53273-1.17563-.38128-2.4069-.56263-3.64254-.5365Z" fill="#198ab3"/>
      </g>
    </g>
    <g>
      <line x1="281.71003" y1="167.20001" x2="281.71003" y2="158.03661" fill="none" stroke="#3c3c41" stroke-miterlimit="10" stroke-width=".75"/>
      <polygon points="284.51484 158.85732 281.71003 153.99999 278.90522 158.85732 284.51484 158.85732" fill="#3c3c41"/>
    </g>
    <g>
      <rect x="330" y="167.2" width="88.22006" height="30.31472" fill="#fff"/>
      <path d="M418.34487,197.63984h-88.46973v-30.56445h88.46973v30.56445ZM330.12514,197.38984h87.96973v-30.06445h-87.96973v30.06445Z" fill="#1c8371"/>
    </g>
    <g>
      <line x1="374.11004" y1="167.20001" x2="374.11004" y2="158.03661" fill="none" stroke="#3c3c41" stroke-miterlimit="10" stroke-width=".75"/>
      <polygon points="376.91484 158.85732 374.11004 153.99999 371.30523 158.85732 376.91484 158.85732" fill="#3c3c41"/>
    </g>
    <g>
      <rect x="422.17994" y="167.2" width="88.22006" height="30.31472" fill="#fff"/>
      <path d="M510.52504,197.63984h-88.47021v-30.56445h88.47021v30.56445ZM422.30483,197.38984h87.97021v-30.06445h-87.97021v30.06445Z" fill="#1c8371"/>
    </g>
    <g>
      <line x1="466.28996" y1="167.20001" x2="466.28996" y2="158.03661" fill="none" stroke="#3c3c41" stroke-miterlimit="10" stroke-width=".75"/>
      <polygon points="469.09477 158.85732 466.28996 153.99999 463.48515 158.85732 469.09477 158.85732" fill="#3c3c41"/>
    </g>
    <g>
      <line x1="545.59998" y1="167.20001" x2="545.59998" y2="158.03661" fill="none" stroke="#3c3c41" stroke-miterlimit="10" stroke-width=".75"/>
      <polygon points="548.40479 158.85732 545.59998 153.99999 542.79517 158.85732 548.40479 158.85732" fill="#3c3c41"/>
    </g>
  </g>
  <g id="Text">
    <g>
      <path d="M339.60121,143.8v-9.80273h2.70703c3.4541,0,5.18164,1.59277,5.18164,4.77832,0,1.5127-.47949,2.72852-1.43945,3.64746-.95898.91797-2.24316,1.37695-3.85156,1.37695h-2.59766ZM340.74965,135.03633v7.72461h1.46289c1.28516,0,2.28516-.34375,3.00098-1.03223s1.07324-1.66309,1.07324-2.92578c0-2.51074-1.33496-3.7666-4.00586-3.7666h-1.53125Z" fill="#2f2f2f"/>
      <path d="M354.86684,140.58027h-4.94238c.01855.7793.22754,1.38086.62891,1.80469s.95215.63574,1.6543.63574c.78809,0,1.5127-.25977,2.17383-.7793v1.05273c-.61523.44629-1.42871.66992-2.44043.66992-.98926,0-1.76562-.31836-2.33105-.95312-.56543-.63672-.84766-1.53027-.84766-2.68359,0-1.08887.30859-1.97656.92578-2.66211.61816-.68652,1.38477-1.0293,2.30078-1.0293s1.625.2959,2.12598.88867.75195,1.41504.75195,2.46777v.58789ZM353.7184,139.63008c-.00488-.64746-.16113-1.15039-.46777-1.51074-.30859-.36035-.73535-.54004-1.28223-.54004-.52832,0-.97754.18945-1.34668.56738s-.59668.87305-.68359,1.4834h3.78027Z" fill="#2f2f2f"/>
      <path d="M357.66176,143.8h-1.12109v-10.36328h1.12109v10.36328Z" fill="#2f2f2f"/>
      <path d="M363.11,143.73164c-.26465.14551-.61328.21875-1.0459.21875-1.22559,0-1.83887-.68359-1.83887-2.05078v-4.14258h-1.20312v-.95703h1.20312v-1.70898l1.12109-.3623v2.07129h1.76367v.95703h-1.76367v3.94434c0,.46973.08008.80469.23926,1.00488s.42383.30078.79297.30078c.28223,0,.52637-.07715.73145-.23242v.95703Z" fill="#2f2f2f"/>
      <path d="M369.72719,143.8h-1.12109v-1.09375h-.02734c-.4873.83887-1.20508,1.25781-2.15332,1.25781-.69727,0-1.24316-.18457-1.63672-.55371-.39453-.36914-.5918-.85938-.5918-1.46973,0-1.30762.77051-2.06934,2.31055-2.2832l2.09863-.29395c0-1.18945-.48047-1.78418-1.44238-1.78418-.84277,0-1.60449.28711-2.2832.86133v-1.14844c.68848-.4375,1.48145-.65625,2.37891-.65625,1.64551,0,2.46777.87012,2.46777,2.61133v4.55273ZM368.6061,140.25898l-1.68848.23242c-.51953.07324-.91113.20117-1.17578.38672-.26465.18359-.39648.51074-.39648.98047,0,.3418.12207.62109.36523.83789.24414.21582.56934.32422.97461.32422.55566,0,1.01562-.19531,1.37695-.58398.36328-.39062.54395-.88379.54395-1.48047v-.69727Z" fill="#2f2f2f"/>
      <path d="M376.97328,140.09492v3.70508h-1.14844v-9.80273h2.69336c1.04785,0,1.86035.25488,2.4375.76562.57617.51074.86426,1.23047.86426,2.16016s-.32031,1.69043-.95996,2.2832c-.64062.59277-1.50586.88867-2.59473.88867h-1.29199ZM376.97328,135.03633v4.01953h1.20312c.79297,0,1.39844-.18164,1.81445-.54297.41797-.36328.62598-.87402.62598-1.53516,0-1.29395-.76562-1.94141-2.29688-1.94141h-1.34668Z" fill="#2f2f2f"/>
      <path d="M388.22621,143.8h-1.12109v-1.09375h-.02734c-.4873.83887-1.20508,1.25781-2.15332,1.25781-.69727,0-1.24316-.18457-1.63672-.55371-.39453-.36914-.5918-.85938-.5918-1.46973,0-1.30762.77051-2.06934,2.31055-2.2832l2.09863-.29395c0-1.18945-.48047-1.78418-1.44238-1.78418-.84277,0-1.60449.28711-2.2832.86133v-1.14844c.68848-.4375,1.48145-.65625,2.37891-.65625,1.64551,0,2.46777.87012,2.46777,2.61133v4.55273ZM387.10512,140.25898l-1.68848.23242c-.51953.07324-.91113.20117-1.17578.38672-.26465.18359-.39648.51074-.39648.98047,0,.3418.12207.62109.36523.83789.24414.21582.56934.32422.97461.32422.55566,0,1.01562-.19531,1.37695-.58398.36328-.39062.54395-.88379.54395-1.48047v-.69727Z" fill="#2f2f2f"/>
      <path d="M393.89809,137.93477c-.19629-.15039-.47852-.22559-.84766-.22559-.47852,0-.87891.22559-1.19922.67676-.32227.45117-.48242,1.06641-.48242,1.8457v3.56836h-1.12109v-7h1.12109v1.44238h.02734c.15918-.49219.40332-.87598.73145-1.15137.32812-.27637.69531-.41406,1.10059-.41406.29199,0,.51465.03223.66992.0957v1.16211Z" fill="#2f2f2f"/>
      <path d="M401.10024,147.01973h-1.12109v-4.42285h-.02734c-.4873.91113-1.28516,1.36719-2.39258,1.36719-.87988,0-1.58496-.31348-2.11523-.93945-.53125-.62695-.79688-1.48047-.79688-2.56055,0-1.16211.29199-2.09082.875-2.78516.58301-.69531,1.36719-1.04297,2.35156-1.04297.95703,0,1.64941.37793,2.07812,1.13477h.02734v-.9707h1.12109v10.21973ZM399.97914,140.64863v-1.01855c0-.57422-.1875-1.05957-.56445-1.45605-.375-.39648-.85254-.59473-1.43164-.59473-.6748,0-1.20801.25-1.59961.74805-.3916.5-.58789,1.20215-.58789,2.10938,0,.80664.18945,1.43945.56738,1.89648.37793.45898.86621.6875,1.46289.6875.65625,0,1.17871-.22461,1.56934-.67383.38867-.44824.58398-1.01465.58398-1.69824Z" fill="#2f2f2f"/>
      <path d="M408.92836,143.8h-1.12109v-1.10742h-.02734c-.46484.84766-1.18457,1.27148-2.16016,1.27148-1.66797,0-2.50195-.99316-2.50195-2.98047v-4.18359h1.11426v4.00586c0,1.47656.56543,2.21484,1.69531,2.21484.54688,0,.99707-.20117,1.35059-.60547.35254-.40234.5293-.93066.5293-1.58203v-4.0332h1.12109v7Z" fill="#2f2f2f"/>
      <path d="M416.7477,140.58027h-4.94238c.01855.7793.22754,1.38086.62891,1.80469s.95215.63574,1.6543.63574c.78809,0,1.5127-.25977,2.17383-.7793v1.05273c-.61523.44629-1.42871.66992-2.44043.66992-.98926,0-1.76562-.31836-2.33105-.95312-.56543-.63672-.84766-1.53027-.84766-2.68359,0-1.08887.30859-1.97656.92578-2.66211.61816-.68652,1.38477-1.0293,2.30078-1.0293s1.625.2959,2.12598.88867.75195,1.41504.75195,2.46777v.58789ZM415.59926,139.63008c-.00488-.64746-.16113-1.15039-.46777-1.51074-.30859-.36035-.73535-.54004-1.28223-.54004-.52832,0-.97754.18945-1.34668.56738s-.59668.87305-.68359,1.4834h3.78027Z" fill="#2f2f2f"/>
      <path d="M421.6725,143.73164c-.26465.14551-.61328.21875-1.0459.21875-1.22559,0-1.83887-.68359-1.83887-2.05078v-4.14258h-1.20312v-.95703h1.20312v-1.70898l1.12109-.3623v2.07129h1.76367v.95703h-1.76367v3.94434c0,.46973.08008.80469.23926,1.00488s.42383.30078.79297.30078c.28223,0,.52637-.07715.73145-.23242v.95703Z" fill="#2f2f2f"/>
      <path d="M427.57875,135.02266c-.2002,0-.37109-.06836-.5127-.20508s-.21191-.30957-.21191-.51953.07031-.38379.21191-.52344c.1416-.13867.3125-.20801.5127-.20801.20508,0,.37891.06934.52344.20801.14258.13965.21484.31348.21484.52344,0,.2002-.07227.37109-.21484.5127-.14453.1416-.31836.21191-.52344.21191ZM428.12563,143.8h-1.12109v-7h1.12109v7Z" fill="#2f2f2f"/>
      <path d="M436.05434,143.8h-1.12109v-3.99219c0-1.48535-.54199-2.22852-1.62695-2.22852-.56055,0-1.02441.21094-1.39062.63281-.36719.4209-.55078.95312-.55078,1.5957v3.99219h-1.12109v-7h1.12109v1.16211h.02734c.52832-.88379,1.29395-1.32617,2.29688-1.32617.76562,0,1.35156.24707,1.75684.74219.40527.49414.6084,1.20801.6084,2.14258v4.2793Z" fill="#2f2f2f"/>
      <path d="M446.10317,143.96406c-1.38965,0-2.50293-.45801-3.33984-1.37402-.83594-.91602-1.25391-2.10742-1.25391-3.5752,0-1.57715.42578-2.83496,1.27832-3.77344s2.01172-1.4082,3.47949-1.4082c1.35352,0,2.44336.45605,3.27148,1.36719.82617.91113,1.24023,2.10352,1.24023,3.5752,0,1.59961-.42383,2.86426-1.27148,3.79395s-1.98242,1.39453-3.4043,1.39453ZM446.1852,134.87227c-1.03027,0-1.86621.37109-2.50879,1.11426s-.96387,1.71777-.96387,2.92578.31348,2.17969.93945,2.91504c.62695.73633,1.44434,1.10449,2.45117,1.10449,1.0752,0,1.92285-.35059,2.54297-1.05273s.92969-1.68359.92969-2.94629c0-1.29395-.30078-2.29492-.90234-3.00098s-1.43066-1.05957-2.48828-1.05957Z" fill="#2f2f2f"/>
      <path d="M458.35512,143.8h-1.12109v-3.99219c0-1.48535-.54199-2.22852-1.62695-2.22852-.56055,0-1.02441.21094-1.39062.63281-.36719.4209-.55078.95312-.55078,1.5957v3.99219h-1.12109v-7h1.12109v1.16211h.02734c.52832-.88379,1.29395-1.32617,2.29688-1.32617.76562,0,1.35156.24707,1.75684.74219.40527.49414.6084,1.20801.6084,2.14258v4.2793Z" fill="#2f2f2f"/>
      <path d="M466.05922,140.58027h-4.94238c.01855.7793.22754,1.38086.62891,1.80469s.95215.63574,1.6543.63574c.78809,0,1.5127-.25977,2.17383-.7793v1.05273c-.61523.44629-1.42871.66992-2.44043.66992-.98926,0-1.76562-.31836-2.33105-.95312-.56543-.63672-.84766-1.53027-.84766-2.68359,0-1.08887.30859-1.97656.92578-2.66211.61816-.68652,1.38477-1.0293,2.30078-1.0293s1.625.2959,2.12598.88867.75195,1.41504.75195,2.46777v.58789ZM464.91078,139.63008c-.00488-.64746-.16113-1.15039-.46777-1.51074-.30859-.36035-.73535-.54004-1.28223-.54004-.52832,0-.97754.18945-1.34668.56738s-.59668.87305-.68359,1.4834h3.78027Z" fill="#2f2f2f"/>
      <path d="M472.99086,143.8h-5.08594v-9.80273h1.14844v8.76367h3.9375v1.03906Z" fill="#2f2f2f"/>
      <path d="M479.53578,143.8h-1.12109v-1.09375h-.02734c-.4873.83887-1.20508,1.25781-2.15332,1.25781-.69727,0-1.24316-.18457-1.63672-.55371-.39453-.36914-.5918-.85938-.5918-1.46973,0-1.30762.77051-2.06934,2.31055-2.2832l2.09863-.29395c0-1.18945-.48047-1.78418-1.44238-1.78418-.84277,0-1.60449.28711-2.2832.86133v-1.14844c.68848-.4375,1.48145-.65625,2.37891-.65625,1.64551,0,2.46777.87012,2.46777,2.61133v4.55273ZM478.41469,140.25898l-1.68848.23242c-.51953.07324-.91113.20117-1.17578.38672-.26465.18359-.39648.51074-.39648.98047,0,.3418.12207.62109.36523.83789.24414.21582.56934.32422.97461.32422.55566,0,1.01562-.19531,1.37695-.58398.36328-.39062.54395-.88379.54395-1.48047v-.69727Z" fill="#2f2f2f"/>
      <path d="M487.36684,143.8h-1.57227l-3.08984-3.36328h-.02734v3.36328h-1.12109v-10.36328h1.12109v6.56934h.02734l2.93945-3.20605h1.46973l-3.24707,3.37695,3.5,3.62305Z" fill="#2f2f2f"/>
      <path d="M493.79164,140.58027h-4.94238c.01855.7793.22754,1.38086.62891,1.80469s.95215.63574,1.6543.63574c.78809,0,1.5127-.25977,2.17383-.7793v1.05273c-.61523.44629-1.42871.66992-2.44043.66992-.98926,0-1.76562-.31836-2.33105-.95312-.56543-.63672-.84766-1.53027-.84766-2.68359,0-1.08887.30859-1.97656.92578-2.66211.61816-.68652,1.38477-1.0293,2.30078-1.0293s1.625.2959,2.12598.88867.75195,1.41504.75195,2.46777v.58789ZM492.64321,139.63008c-.00488-.64746-.16113-1.15039-.46777-1.51074-.30859-.36035-.73535-.54004-1.28223-.54004-.52832,0-.97754.18945-1.34668.56738s-.59668.87305-.68359,1.4834h3.78027Z" fill="#2f2f2f"/>
    </g>
    <g>
      <path d="M260.17006,176.99727l-2.76855,9.80273h-1.34668l-2.0166-7.16406c-.08691-.30566-.13867-.6377-.15723-.99805h-.02734c-.02734.33691-.08691.66504-.17773.98438l-2.03027,7.17773h-1.33301l-2.87109-9.80273h1.26465l2.08496,7.51953c.08691.31445.1416.64258.16406.98438h.03418c.02246-.24121.09375-.56934.21191-.98438l2.16699-7.51953h1.10059l2.07812,7.57422c.07324.25977.12793.56543.16406.91602h.02734c.01855-.2373.08008-.55176.18457-.94336l2.00293-7.54688h1.24414Z" fill="#2f2f2f"/>
      <path d="M265.97084,186.8h-1.12109v-1.09375h-.02734c-.4873.83887-1.20508,1.25781-2.15332,1.25781-.69727,0-1.24316-.18457-1.63672-.55371-.39453-.36914-.5918-.85938-.5918-1.46973,0-1.30762.77051-2.06934,2.31055-2.2832l2.09863-.29395c0-1.18945-.48047-1.78418-1.44238-1.78418-.84277,0-1.60449.28711-2.2832.86133v-1.14844c.68848-.4375,1.48145-.65625,2.37891-.65625,1.64551,0,2.46777.87012,2.46777,2.61133v4.55273ZM264.84975,183.25898l-1.68848.23242c-.51953.07324-.91113.20117-1.17578.38672-.26465.18359-.39648.51074-.39648.98047,0,.3418.12207.62109.36523.83789.24414.21582.56934.32422.97461.32422.55566,0,1.01562-.19531,1.37695-.58398.36328-.39062.54395-.88379.54395-1.48047v-.69727Z" fill="#2f2f2f"/>
      <path d="M271.64272,180.93477c-.19629-.15039-.47852-.22559-.84766-.22559-.47852,0-.87891.22559-1.19922.67676-.32227.45117-.48242,1.06641-.48242,1.8457v3.56836h-1.12109v-7h1.12109v1.44238h.02734c.15918-.49219.40332-.87598.73145-1.15137.32812-.27637.69531-.41406,1.10059-.41406.29199,0,.51465.03223.66992.0957v1.16211Z" fill="#2f2f2f"/>
      <path d="M278.48549,183.58027h-4.94238c.01855.7793.22754,1.38086.62891,1.80469s.95215.63574,1.6543.63574c.78809,0,1.5127-.25977,2.17383-.7793v1.05273c-.61523.44629-1.42871.66992-2.44043.66992-.98926,0-1.76562-.31836-2.33105-.95312-.56543-.63672-.84766-1.53027-.84766-2.68359,0-1.08887.30859-1.97656.92578-2.66211.61816-.68652,1.38477-1.0293,2.30078-1.0293s1.625.2959,2.12598.88867.75195,1.41504.75195,2.46777v.58789ZM277.33705,182.63008c-.00488-.64746-.16113-1.15039-.46777-1.51074-.30859-.36035-.73535-.54004-1.28223-.54004-.52832,0-.97754.18945-1.34668.56738s-.59668.87305-.68359,1.4834h3.78027Z" fill="#2f2f2f"/>
      <path d="M285.97865,186.8h-1.12109v-4.0332c0-1.45801-.54199-2.1875-1.62695-2.1875-.54688,0-1.00684.21094-1.38086.63281-.37402.4209-.56055.96191-.56055,1.62305v3.96484h-1.12109v-10.36328h1.12109v4.52539h.02734c.53809-.88379,1.30371-1.32617,2.29688-1.32617,1.57715,0,2.36523.9502,2.36523,2.85059v4.31348Z" fill="#2f2f2f"/>
      <path d="M290.98256,186.96406c-1.03418,0-1.86035-.32715-2.47852-.98047-.61719-.6543-.92578-1.52148-.92578-2.60156,0-1.17578.32129-2.09375.96387-2.75488s1.51074-.99121,2.60449-.99121c1.04395,0,1.8584.32129,2.44336.96387.58594.64258.87891,1.5332.87891,2.67285,0,1.11621-.31543,2.01074-.94727,2.68359-.63086.67188-1.47754,1.00781-2.53906,1.00781ZM291.06459,180.5793c-.71973,0-1.29004.24512-1.70898.73438-.41895.49023-.62891,1.16602-.62891,2.02734,0,.8291.21191,1.4834.63574,1.96191s.99121.71777,1.70215.71777c.72461,0,1.28125-.23438,1.67188-.7041.38867-.46973.58398-1.13672.58398-2.00293,0-.875-.19531-1.5498-.58398-2.02344-.39062-.47363-.94727-.71094-1.67188-.71094Z" fill="#2f2f2f"/>
      <path d="M301.87807,186.8h-1.12109v-1.10742h-.02734c-.46484.84766-1.18457,1.27148-2.16016,1.27148-1.66797,0-2.50195-.99316-2.50195-2.98047v-4.18359h1.11426v4.00586c0,1.47656.56543,2.21484,1.69531,2.21484.54688,0,.99707-.20117,1.35059-.60547.35254-.40234.5293-.93066.5293-1.58203v-4.0332h1.12109v7Z" fill="#2f2f2f"/>
      <path d="M303.63979,186.54707v-1.20312c.61035.45117,1.2832.67676,2.0166.67676.98438,0,1.47656-.32812,1.47656-.98438,0-.18652-.04199-.3457-.12598-.47461-.08496-.13086-.19922-.24512-.3418-.3457-.14453-.10059-.3125-.19043-.50586-.26953-.19434-.08008-.40234-.16309-.62598-.25-.30957-.12305-.58203-.24707-.81738-.37305-.23438-.125-.42969-.26562-.58789-.42383-.15625-.15625-.27539-.33594-.35547-.53613-.0791-.2002-.11914-.43555-.11914-.7041,0-.32812.0752-.61914.22559-.87109.15039-.25391.35059-.46484.60156-.63672.25098-.16992.53613-.29883.8584-.38574.32031-.08691.65234-.12988.99414-.12988.60645,0,1.14844.10449,1.62695.31445v1.13477c-.51465-.33691-1.10742-.50586-1.77734-.50586-.20996,0-.39844.02344-.56738.07227-.16895.04688-.31348.11426-.43457.20117-.12012.08691-.21387.19043-.2793.31055-.06641.12109-.09961.25488-.09961.40039,0,.18262.0332.33496.09961.45801.06543.12305.16211.23242.29004.32812s.28223.18262.46484.25977.38965.16211.62207.25293c.30957.11816.58789.24023.83398.36523.24609.12598.45605.26758.62891.42383.17285.1582.30664.33887.40039.54395.09277.20508.13965.44922.13965.73145,0,.34668-.07617.64746-.22949.90234-.15234.25488-.35645.4668-.61133.63574s-.54883.29395-.88184.37598-.68164.12305-1.0459.12305c-.71973,0-1.34473-.13867-1.87305-.41699Z" fill="#2f2f2f"/>
      <path d="M315.59487,183.58027h-4.94238c.01855.7793.22754,1.38086.62891,1.80469s.95215.63574,1.6543.63574c.78809,0,1.5127-.25977,2.17383-.7793v1.05273c-.61523.44629-1.42871.66992-2.44043.66992-.98926,0-1.76562-.31836-2.33105-.95312-.56543-.63672-.84766-1.53027-.84766-2.68359,0-1.08887.30859-1.97656.92578-2.66211.61816-.68652,1.38477-1.0293,2.30078-1.0293s1.625.2959,2.12598.88867.75195,1.41504.75195,2.46777v.58789ZM314.44643,182.63008c-.00488-.64746-.16113-1.15039-.46777-1.51074-.30859-.36035-.73535-.54004-1.28223-.54004-.52832,0-.97754.18945-1.34668.56738s-.59668.87305-.68359,1.4834h3.78027Z" fill="#2f2f2f"/>
    </g>
    <g>
      <path d="M348.0602,186.8h-5.08594v-9.80273h1.14844v8.76367h3.9375v1.03906Z" fill="#2f2f2f"/>
      <path d="M354.60512,186.8h-1.12109v-1.09375h-.02734c-.4873.83887-1.20508,1.25781-2.15332,1.25781-.69727,0-1.24316-.18457-1.63672-.55371-.39453-.36914-.5918-.85938-.5918-1.46973,0-1.30762.77051-2.06934,2.31055-2.2832l2.09863-.29395c0-1.18945-.48047-1.78418-1.44238-1.78418-.84277,0-1.60449.28711-2.2832.86133v-1.14844c.68848-.4375,1.48145-.65625,2.37891-.65625,1.64551,0,2.46777.87012,2.46777,2.61133v4.55273ZM353.48403,183.25898l-1.68848.23242c-.51953.07324-.91113.20117-1.17578.38672-.26465.18359-.39648.51074-.39648.98047,0,.3418.12207.62109.36523.83789.24414.21582.56934.32422.97461.32422.55566,0,1.01562-.19531,1.37695-.58398.36328-.39062.54395-.88379.54395-1.48047v-.69727Z" fill="#2f2f2f"/>
      <path d="M362.43715,186.8h-1.57227l-3.08984-3.36328h-.02734v3.36328h-1.12109v-10.36328h1.12109v6.56934h.02734l2.93945-3.20605h1.46973l-3.24707,3.37695,3.5,3.62305Z" fill="#2f2f2f"/>
      <path d="M368.86098,183.58027h-4.94238c.01855.7793.22754,1.38086.62891,1.80469s.95215.63574,1.6543.63574c.78809,0,1.5127-.25977,2.17383-.7793v1.05273c-.61523.44629-1.42871.66992-2.44043.66992-.98926,0-1.76562-.31836-2.33105-.95312-.56543-.63672-.84766-1.53027-.84766-2.68359,0-1.08887.30859-1.97656.92578-2.66211.61816-.68652,1.38477-1.0293,2.30078-1.0293s1.625.2959,2.12598.88867.75195,1.41504.75195,2.46777v.58789ZM367.71254,182.63008c-.00488-.64746-.16113-1.15039-.46777-1.51074-.30859-.36035-.73535-.54004-1.28223-.54004-.52832,0-.97754.18945-1.34668.56738s-.59668.87305-.68359,1.4834h3.78027Z" fill="#2f2f2f"/>
      <path d="M376.35414,186.8h-1.12109v-4.0332c0-1.45801-.54199-2.1875-1.62695-2.1875-.54688,0-1.00684.21094-1.38086.63281-.37402.4209-.56055.96191-.56055,1.62305v3.96484h-1.12109v-10.36328h1.12109v4.52539h.02734c.53809-.88379,1.30371-1.32617,2.29688-1.32617,1.57715,0,2.36523.9502,2.36523,2.85059v4.31348Z" fill="#2f2f2f"/>
      <path d="M381.35805,186.96406c-1.03418,0-1.86035-.32715-2.47852-.98047-.61719-.6543-.92578-1.52148-.92578-2.60156,0-1.17578.32129-2.09375.96387-2.75488s1.51074-.99121,2.60449-.99121c1.04395,0,1.8584.32129,2.44336.96387.58594.64258.87891,1.5332.87891,2.67285,0,1.11621-.31543,2.01074-.94727,2.68359-.63086.67188-1.47754,1.00781-2.53906,1.00781ZM381.44008,180.5793c-.71973,0-1.29004.24512-1.70898.73438-.41895.49023-.62891,1.16602-.62891,2.02734,0,.8291.21191,1.4834.63574,1.96191s.99121.71777,1.70215.71777c.72461,0,1.28125-.23438,1.67188-.7041.38867-.46973.58398-1.13672.58398-2.00293,0-.875-.19531-1.5498-.58398-2.02344-.39062-.47363-.94727-.71094-1.67188-.71094Z" fill="#2f2f2f"/>
      <path d="M392.25356,186.8h-1.12109v-1.10742h-.02734c-.46484.84766-1.18457,1.27148-2.16016,1.27148-1.66797,0-2.50195-.99316-2.50195-2.98047v-4.18359h1.11426v4.00586c0,1.47656.56543,2.21484,1.69531,2.21484.54688,0,.99707-.20117,1.35059-.60547.35254-.40234.5293-.93066.5293-1.58203v-4.0332h1.12109v7Z" fill="#2f2f2f"/>
      <path d="M394.01528,186.54707v-1.20312c.61035.45117,1.2832.67676,2.0166.67676.98438,0,1.47656-.32812,1.47656-.98438,0-.18652-.04199-.3457-.12598-.47461-.08496-.13086-.19922-.24512-.3418-.3457-.14453-.10059-.3125-.19043-.50586-.26953-.19434-.08008-.40234-.16309-.62598-.25-.30957-.12305-.58203-.24707-.81738-.37305-.23438-.125-.42969-.26562-.58789-.42383-.15625-.15625-.27539-.33594-.35547-.53613-.0791-.2002-.11914-.43555-.11914-.7041,0-.32812.0752-.61914.22559-.87109.15039-.25391.35059-.46484.60156-.63672.25098-.16992.53613-.29883.8584-.38574.32031-.08691.65234-.12988.99414-.12988.60645,0,1.14844.10449,1.62695.31445v1.13477c-.51465-.33691-1.10742-.50586-1.77734-.50586-.20996,0-.39844.02344-.56738.07227-.16895.04688-.31348.11426-.43457.20117-.12012.08691-.21387.19043-.2793.31055-.06641.12109-.09961.25488-.09961.40039,0,.18262.0332.33496.09961.45801.06543.12305.16211.23242.29004.32812s.28223.18262.46484.25977.38965.16211.62207.25293c.30957.11816.58789.24023.83398.36523.24609.12598.45605.26758.62891.42383.17285.1582.30664.33887.40039.54395.09277.20508.13965.44922.13965.73145,0,.34668-.07617.64746-.22949.90234-.15234.25488-.35645.4668-.61133.63574s-.54883.29395-.88184.37598-.68164.12305-1.0459.12305c-.71973,0-1.34473-.13867-1.87305-.41699Z" fill="#2f2f2f"/>
      <path d="M405.97035,183.58027h-4.94238c.01855.7793.22754,1.38086.62891,1.80469s.95215.63574,1.6543.63574c.78809,0,1.5127-.25977,2.17383-.7793v1.05273c-.61523.44629-1.42871.66992-2.44043.66992-.98926,0-1.76562-.31836-2.33105-.95312-.56543-.63672-.84766-1.53027-.84766-2.68359,0-1.08887.30859-1.97656.92578-2.66211.61816-.68652,1.38477-1.0293,2.30078-1.0293s1.625.2959,2.12598.88867.75195,1.41504.75195,2.46777v.58789ZM404.82192,182.63008c-.00488-.64746-.16113-1.15039-.46777-1.51074-.30859-.36035-.73535-.54004-1.28223-.54004-.52832,0-.97754.18945-1.34668.56738s-.59668.87305-.68359,1.4834h3.78027Z" fill="#2f2f2f"/>
    </g>
    <g>
      <path d="M442.09535,183.09492v3.70508h-1.14844v-9.80273h2.69336c1.04785,0,1.86035.25488,2.4375.76562.57617.51074.86426,1.23047.86426,2.16016s-.32031,1.69043-.95996,2.2832c-.64062.59277-1.50586.88867-2.59473.88867h-1.29199ZM442.09535,178.03633v4.01953h1.20312c.79297,0,1.39844-.18164,1.81445-.54297.41797-.36328.62598-.87402.62598-1.53516,0-1.29395-.76562-1.94141-2.29688-1.94141h-1.34668Z" fill="#2f2f2f"/>
      <path d="M451.27797,186.96406c-1.03418,0-1.86035-.32715-2.47852-.98047-.61719-.6543-.92578-1.52148-.92578-2.60156,0-1.17578.32129-2.09375.96387-2.75488s1.51074-.99121,2.60449-.99121c1.04395,0,1.8584.32129,2.44336.96387.58594.64258.87891,1.5332.87891,2.67285,0,1.11621-.31543,2.01074-.94727,2.68359-.63086.67188-1.47754,1.00781-2.53906,1.00781ZM451.36,180.5793c-.71973,0-1.29004.24512-1.70898.73438-.41895.49023-.62891,1.16602-.62891,2.02734,0,.8291.21191,1.4834.63574,1.96191s.99121.71777,1.70215.71777c.72461,0,1.28125-.23438,1.67188-.7041.38867-.46973.58398-1.13672.58398-2.00293,0-.875-.19531-1.5498-.58398-2.02344-.39062-.47363-.94727-.71094-1.67188-.71094Z" fill="#2f2f2f"/>
      <path d="M465.23598,179.8l-2.09863,7h-1.16211l-1.44238-5.01074c-.05469-.19141-.09082-.4082-.10938-.64941h-.02734c-.01367.16406-.06152.37598-.14355.63574l-1.56543,5.02441h-1.12109l-2.11914-7h1.17578l1.44922,5.26367c.0459.15918.07715.36914.0957.62891h.05469c.01367-.2002.05469-.41504.12305-.64258l1.61328-5.25h1.02539l1.44922,5.27734c.0459.16895.08008.37793.10254.62891h.05469c.00879-.17773.04785-.3877.11621-.62891l1.42188-5.27734h1.10742Z" fill="#2f2f2f"/>
      <path d="M472.01137,183.58027h-4.94238c.01855.7793.22754,1.38086.62891,1.80469s.95215.63574,1.6543.63574c.78809,0,1.5127-.25977,2.17383-.7793v1.05273c-.61523.44629-1.42871.66992-2.44043.66992-.98926,0-1.76562-.31836-2.33105-.95312-.56543-.63672-.84766-1.53027-.84766-2.68359,0-1.08887.30859-1.97656.92578-2.66211.61816-.68652,1.38477-1.0293,2.30078-1.0293s1.625.2959,2.12598.88867.75195,1.41504.75195,2.46777v.58789ZM470.86293,182.63008c-.00488-.64746-.16113-1.15039-.46777-1.51074-.30859-.36035-.73535-.54004-1.28223-.54004-.52832,0-.97754.18945-1.34668.56738s-.59668.87305-.68359,1.4834h3.78027Z" fill="#2f2f2f"/>
      <path d="M477.34438,180.93477c-.19629-.15039-.47852-.22559-.84766-.22559-.47852,0-.87891.22559-1.19922.67676-.32227.45117-.48242,1.06641-.48242,1.8457v3.56836h-1.12109v-7h1.12109v1.44238h.02734c.15918-.49219.40332-.87598.73145-1.15137.32812-.27637.69531-.41406,1.10059-.41406.29199,0,.51465.03223.66992.0957v1.16211Z" fill="#2f2f2f"/>
      <path d="M482.54653,186.8v-9.80273h2.78906c.84766,0,1.51953.20703,2.0166.62207s.74512.95508.74512,1.62012c0,.55566-.15039,1.03906-.45117,1.44922s-.71582.70215-1.24414.875v.02734c.66113.07715,1.18945.32715,1.58594.74805.39648.42188.59473.96973.59473,1.64453,0,.83887-.30078,1.51758-.90234,2.03711s-1.36035.7793-2.27637.7793h-2.85742ZM483.69496,178.03633v3.16504h1.17578c.62891,0,1.12305-.15137,1.4834-.4541.36035-.30371.54004-.73047.54004-1.28223,0-.95215-.62695-1.42871-1.87988-1.42871h-1.31934ZM483.69496,182.23359v3.52734h1.55859c.6748,0,1.19727-.15918,1.56836-.47852.37207-.31934.55762-.75684.55762-1.3125,0-1.15723-.78809-1.73633-2.36523-1.73633h-1.31934Z" fill="#2f2f2f"/>
      <path d="M491.6266,186.8h-1.14844v-9.80273h1.14844v9.80273Z" fill="#2f2f2f"/>
    </g>
    <g>
      <path d="M529.27748,186.40352v-1.35352c.15527.13672.34082.25977.55762.36914.21582.10938.44336.20117.68359.27734.23828.07422.47949.13281.7207.17383s.46484.06152.66992.06152c.70605,0,1.23438-.13086,1.58203-.39355.34961-.26172.52344-.63867.52344-1.13086,0-.26465-.05859-.49414-.17383-.69043-.11719-.19629-.27734-.375-.48242-.53613-.20508-.16211-.44727-.31738-.72852-.46484-.2793-.14844-.58203-.30469-.90527-.46875-.3418-.17285-.66113-.34863-.95703-.52637s-.55371-.37402-.77246-.58789-.39062-.45703-.51562-.72754c-.12598-.27148-.18848-.58984-.18848-.9541,0-.44629.09766-.83496.29395-1.16504.19629-.33105.45312-.60352.77246-.81738s.68262-.37402,1.09082-.47852c.40723-.10449.82324-.15723,1.24707-.15723.96582,0,1.66992.11621,2.1123.34863v1.29199c-.5791-.40137-1.32129-.60156-2.22852-.60156-.25098,0-.50098.02637-.75195.07812-.25098.05273-.47363.13867-.66992.25684s-.35547.27148-.47852.45801-.18457.41504-.18457.68359c0,.25098.04688.4668.13965.64941.09375.18262.23145.34863.41406.49902s.4043.2959.66602.4375c.2627.1416.56445.2959.90625.46484.35059.17285.68359.35547.99805.54688s.58984.40332.82715.63574.4248.49023.56348.77246c.13965.28223.20898.60645.20898.9707,0,.4834-.09473.89258-.2832,1.22656-.18945.33594-.44531.60742-.76562.81738-.32227.20996-.69238.36133-1.11133.4541-.41895.09375-.86133.14062-1.32617.14062-.15527,0-.34668-.0127-.57422-.03711-.22754-.02539-.45996-.0625-.69727-.10938-.2373-.04883-.46094-.10742-.67383-.17773-.21094-.07129-.38086-.14941-.50879-.23633Z" fill="#2f2f2f"/>
      <path d="M537.98354,185.78828h-.02734v4.23145h-1.12109v-10.21973h1.12109v1.23047h.02734c.55176-.92969,1.3584-1.39453,2.41992-1.39453.90234,0,1.60645.31348,2.1123.93945.50586.62695.75879,1.4668.75879,2.51953,0,1.1709-.28516,2.10938-.85449,2.8125-.56934.70508-1.34863,1.05664-2.33789,1.05664-.90723,0-1.60645-.3916-2.09863-1.17578ZM537.95619,182.96504v.97754c0,.5791.1875,1.07031.56445,1.47266.375.4043.85254.60547,1.43164.60547.67871,0,1.21094-.25977,1.5957-.7793.38574-.51953.57812-1.24219.57812-2.16699,0-.7793-.17969-1.38965-.54004-1.83203s-.84766-.66309-1.46289-.66309c-.65137,0-1.17578.22656-1.57227.67969-.39648.4541-.59473,1.02246-.59473,1.70605Z" fill="#2f2f2f"/>
      <path d="M550.01088,186.8h-1.12109v-1.09375h-.02734c-.4873.83887-1.20508,1.25781-2.15332,1.25781-.69727,0-1.24316-.18457-1.63672-.55371-.39453-.36914-.5918-.85938-.5918-1.46973,0-1.30762.77051-2.06934,2.31055-2.2832l2.09863-.29395c0-1.18945-.48047-1.78418-1.44238-1.78418-.84277,0-1.60449.28711-2.2832.86133v-1.14844c.68848-.4375,1.48145-.65625,2.37891-.65625,1.64551,0,2.46777.87012,2.46777,2.61133v4.55273ZM548.88979,183.25898l-1.68848.23242c-.51953.07324-.91113.20117-1.17578.38672-.26465.18359-.39648.51074-.39648.98047,0,.3418.12207.62109.36523.83789.24414.21582.56934.32422.97461.32422.55566,0,1.01562-.19531,1.37695-.58398.36328-.39062.54395-.88379.54395-1.48047v-.69727Z" fill="#2f2f2f"/>
      <path d="M555.68178,180.93477c-.19629-.15039-.47852-.22559-.84766-.22559-.47852,0-.87891.22559-1.19922.67676-.32227.45117-.48242,1.06641-.48242,1.8457v3.56836h-1.12109v-7h1.12109v1.44238h.02734c.15918-.49219.40332-.87598.73145-1.15137.32812-.27637.69531-.41406,1.10059-.41406.29199,0,.51465.03223.66992.0957v1.16211Z" fill="#2f2f2f"/>
      <path d="M562.73647,186.8h-1.57227l-3.08984-3.36328h-.02734v3.36328h-1.12109v-10.36328h1.12109v6.56934h.02734l2.93945-3.20605h1.46973l-3.24707,3.37695,3.5,3.62305Z" fill="#2f2f2f"/>
    </g>
    <g>
      <path d="M59.66957,68.79902v-9.80273h2.70703c3.45459,0,5.18164,1.59277,5.18164,4.77832,0,1.51367-.47949,2.72852-1.43896,3.64746-.95947.91797-2.24316,1.37695-3.85205,1.37695h-2.59766ZM60.81801,60.03535v7.72461h1.46289c1.28516,0,2.28564-.34375,3.00098-1.03223.71533-.6875,1.07324-1.66309,1.07324-2.92578,0-2.51074-1.33545-3.7666-4.00586-3.7666h-1.53125Z" fill="#2f2f2f"/>
      <path d="M74.34633,68.79902h-1.12109v-1.09375h-.02734c-.48779.83887-1.20557,1.25781-2.15332,1.25781-.69727,0-1.24316-.18457-1.63721-.55371s-.59131-.8584-.59131-1.46973c0-1.30762.77002-2.06836,2.31055-2.2832l2.09863-.29395c0-1.18945-.48096-1.78418-1.44238-1.78418-.84326,0-1.604.28711-2.2832.86133v-1.14844c.68799-.4375,1.48096-.65625,2.37891-.65625,1.64502,0,2.46777.87109,2.46777,2.61133v4.55273ZM73.22524,65.25801l-1.68848.23242c-.51953.07324-.91162.20215-1.17578.38672s-.39648.51172-.39648.98047c0,.3418.12207.62109.36572.83789.24365.21582.56836.32422.97412.32422.55615,0,1.01514-.19434,1.37744-.58398s.54346-.88281.54346-1.48047v-.69727Z" fill="#2f2f2f"/>
      <path d="M79.70571,68.73066c-.26416.14648-.61279.21875-1.0459.21875-1.22607,0-1.83887-.68359-1.83887-2.05078v-4.14258h-1.20312v-.95703h1.20312v-1.70898l1.12109-.3623v2.07129h1.76367v.95703h-1.76367v3.94434c0,.46973.07959.80469.23926,1.00488.15967.20117.42383.30078.79297.30078.28271,0,.52637-.07715.73145-.23242v.95703Z" fill="#2f2f2f"/>
      <path d="M86.21352,68.79902h-1.12109v-1.09375h-.02734c-.48779.83887-1.20557,1.25781-2.15332,1.25781-.69727,0-1.24316-.18457-1.63721-.55371s-.59131-.8584-.59131-1.46973c0-1.30762.77002-2.06836,2.31055-2.2832l2.09863-.29395c0-1.18945-.48096-1.78418-1.44238-1.78418-.84326,0-1.604.28711-2.2832.86133v-1.14844c.68799-.4375,1.48096-.65625,2.37891-.65625,1.64502,0,2.46777.87109,2.46777,2.61133v4.55273ZM85.09242,65.25801l-1.68848.23242c-.51953.07324-.91162.20215-1.17578.38672s-.39648.51172-.39648.98047c0,.3418.12207.62109.36572.83789.24365.21582.56836.32422.97412.32422.55615,0,1.01514-.19434,1.37744-.58398s.54346-.88281.54346-1.48047v-.69727Z" fill="#2f2f2f"/>
      <path d="M91.73696,68.54609v-1.20312c.61084.45117,1.28271.67676,2.0166.67676.98438,0,1.47656-.32812,1.47656-.98438,0-.18652-.04199-.34473-.12646-.47461s-.19824-.24512-.3418-.3457c-.14355-.09961-.31201-.19043-.50586-.26953-.19385-.08008-.40234-.16309-.62549-.25-.31006-.12305-.58203-.24707-.81689-.37207-.23486-.12598-.43066-.2666-.58789-.42383s-.27588-.33594-.35547-.53711c-.07959-.2002-.11963-.43457-.11963-.7041,0-.32812.0752-.61816.22559-.87109s.35107-.46484.60156-.63574.53662-.2998.85791-.38672c.32129-.08594.65283-.12988.99463-.12988.60596,0,1.14844.10547,1.62695.31445v1.13477c-.51514-.33691-1.10742-.50586-1.77734-.50586-.20947,0-.39893.02441-.56738.07227s-.31348.11523-.43408.20117c-.12061.08691-.21436.19043-.28027.31152-.06592.12012-.09912.25391-.09912.39941,0,.18262.0332.33496.09912.45801s.16309.23242.29053.32812.28271.18262.46484.25977c.18213.07812.38965.16211.62207.25293.31006.11914.58789.24023.83398.36621.24609.125.45557.2666.62891.42383s.30664.33789.3999.54297.14014.44922.14014.73145c0,.34668-.07617.64746-.229.90234-.15283.25586-.35645.46777-.61182.63574-.25537.16895-.54932.29395-.88184.37598s-.68115.12305-1.0459.12305c-.72021,0-1.34424-.13867-1.87305-.41699Z" fill="#2f2f2f"/>
      <path d="M101.02699,68.96309c-1.03467,0-1.86035-.32715-2.47803-.98047-.61768-.6543-.92627-1.52148-.92627-2.60156,0-1.17578.32129-2.09375.96387-2.75488.64258-.66016,1.51074-.99121,2.60449-.99121,1.04346,0,1.8584.32129,2.44385.96387s.87842,1.53418.87842,2.67285c0,1.11719-.31543,2.01074-.94678,2.68359-.63135.67188-1.47754,1.00781-2.53955,1.00781ZM101.10903,62.57832c-.72021,0-1.28955.24512-1.70898.73535-.41943.48926-.62891,1.16504-.62891,2.02637,0,.83008.21191,1.4834.63574,1.96191s.99121.71777,1.70215.71777c.72461,0,1.28174-.23438,1.67139-.7041.38965-.46875.58447-1.13672.58447-2.00293,0-.875-.19482-1.54883-.58447-2.02344-.38965-.47363-.94678-.71094-1.67139-.71094Z" fill="#2f2f2f"/>
      <path d="M111.96449,68.79902h-1.12109v-1.10742h-.02734c-.46484.84766-1.18506,1.27148-2.16016,1.27148-1.66797,0-2.50195-.99316-2.50195-2.98047v-4.18359h1.11426v4.00586c0,1.47656.56494,2.21484,1.69531,2.21484.54688,0,.99707-.20117,1.3501-.60449s.52979-.93066.52979-1.58301v-4.0332h1.12109v7Z" fill="#2f2f2f"/>
      <path d="M117.87758,62.93379c-.1958-.15039-.47852-.22559-.84766-.22559-.47852,0-.87842.22559-1.19971.67676s-.48193,1.06641-.48193,1.8457v3.56836h-1.12109v-7h1.12109v1.44238h.02734c.15967-.49219.40332-.87598.73145-1.15137.32812-.27637.69482-.41406,1.10059-.41406.2915,0,.51514.03223.66992.0957v1.16211Z" fill="#2f2f2f"/>
      <path d="M123.86586,68.47773c-.5376.32422-1.17578.48535-1.91406.48535-.99805,0-1.80371-.32422-2.4165-.97363s-.91943-1.49121-.91943-2.52637c0-1.15234.33057-2.0791.99121-2.77832.66064-.7002,1.54248-1.0498,2.64551-1.0498.61523,0,1.15771.11426,1.62695.3418v1.14844c-.51953-.36426-1.07568-.54688-1.66797-.54688-.71533,0-1.30225.25684-1.76025.76953s-.68701,1.18555-.68701,2.01953c0,.82031.21533,1.46777.646,1.94141.43066.47461,1.0083.71094,1.73291.71094.61084,0,1.18506-.20215,1.72266-.6084v1.06641Z" fill="#2f2f2f"/>
      <path d="M131.18715,65.5793h-4.94238c.01807.7793.22803,1.38086.62891,1.80469s.95264.63574,1.6543.63574c.78857,0,1.51318-.25977,2.17383-.7793v1.05273c-.61523.44727-1.42871.66992-2.44043.66992-.98877,0-1.76611-.31738-2.33105-.95312s-.84766-1.53027-.84766-2.68359c0-1.08887.30859-1.97656.92627-2.66211.61768-.68652,1.38428-1.0293,2.30029-1.0293s1.62451.29688,2.12598.88867c.50146.59277.75195,1.41504.75195,2.46777v.58789ZM130.03871,64.6291c-.00439-.64648-.16064-1.15039-.46826-1.51074-.30762-.35938-.73486-.54004-1.28174-.54004-.52881,0-.97754.18945-1.34668.56738-.36914.37891-.59717.87305-.68359,1.4834h3.78027Z" fill="#2f2f2f"/>
    </g>
    <g>
      <path d="M333.87074,64.00312v-1.35352c.15479.13672.34082.25977.55713.36914s.44434.20117.68359.27637.47949.13379.72119.1748.46484.06152.66992.06152c.70654,0,1.23389-.13086,1.58252-.39355.34863-.26172.52295-.63867.52295-1.13086,0-.26465-.05811-.49512-.17432-.69043-.11621-.19629-.27686-.375-.48193-.53711-.20508-.16113-.44775-.31641-.72803-.46484-.28027-.14746-.58203-.30371-.90576-.46777-.3418-.17383-.66064-.34863-.95703-.52637s-.55371-.37402-.77246-.58789c-.21875-.21484-.39062-.45703-.51611-.72852-.12549-.27051-.18799-.58887-.18799-.95312,0-.44727.09814-.83496.29395-1.16602.1958-.33008.45361-.60254.77246-.81641.31885-.21484.68262-.37402,1.09033-.47852.40771-.10547.82373-.15723,1.24756-.15723.96631,0,1.67041.11621,2.1123.34863v1.29199c-.57861-.40137-1.32178-.60156-2.22852-.60156-.25049,0-.50146.02637-.75195.07812-.25049.05273-.47412.1377-.66992.25684-.1958.11816-.35547.27051-.47852.45801-.12305.18652-.18457.41406-.18457.68359,0,.25.04688.4668.14014.64941.09326.18164.23145.34863.41357.49902s.4043.2959.6665.4375c.26221.14062.56396.2959.90576.46484.35107.17285.68359.35547.99805.54688s.59033.40332.82715.63574.4248.48926.56396.77246c.13916.28223.2085.60547.2085.9707,0,.48242-.09473.8916-.28369,1.22656s-.44434.60742-.76562.81738c-.32129.20898-.69141.36133-1.11084.4541-.41943.09375-.86133.14062-1.32617.14062-.15479,0-.34619-.0127-.57422-.03809-.22803-.02441-.46045-.06152-.69727-.10938s-.46143-.10645-.67334-.17773c-.21191-.07031-.38184-.14941-.50928-.23535Z" fill="#2f2f2f"/>
      <path d="M345.71742,64.56367c-1.38525,0-2.49951-.45801-3.34277-1.37402-.83398-.91602-1.25098-2.1084-1.25098-3.5752,0-1.58203.42627-2.83984,1.27832-3.77344.85693-.93945,2.0166-1.4082,3.47949-1.4082,1.34912,0,2.43799.45508,3.26758,1.36719.82959.91113,1.24414,2.10254,1.24414,3.5752,0,1.59961-.42383,2.86426-1.27148,3.79395-.20068.22266-.41455.41406-.64258.57422l2.75488,1.97559h-2.08496l-1.8457-1.38086c-.48291.15039-1.01172.22559-1.58594.22559ZM345.79946,55.47187c-1.02979,0-1.86621.37109-2.50879,1.11426-.64258.74219-.96387,1.71777-.96387,2.92578,0,1.20312.31201,2.17578.93652,2.91895.62891.7334,1.44678,1.10059,2.4541,1.10059,1.07568,0,1.92334-.35156,2.54297-1.05273.61963-.70215.92969-1.68457.92969-2.94629,0-1.29883-.30078-2.2998-.90234-3.00098-.60156-.70703-1.43115-1.05957-2.48828-1.05957Z" fill="#2f2f2f"/>
      <path d="M357.40688,64.39961h-5.08594v-9.80273h1.14844v8.76367h3.9375v1.03906Z" fill="#2f2f2f"/>
      <path d="M367.6061,64.39961h-1.12109v-1.09375h-.02734c-.48779.83789-1.20557,1.25781-2.15332,1.25781-.69727,0-1.24316-.18457-1.63721-.55371s-.59131-.85938-.59131-1.46973c0-1.30859.77002-2.06934,2.31055-2.2832l2.09863-.29395c0-1.18945-.48096-1.78418-1.44238-1.78418-.84326,0-1.604.28711-2.2832.86133v-1.14844c.68799-.4375,1.48096-.65625,2.37891-.65625,1.64502,0,2.46777.87012,2.46777,2.61133v4.55273ZM366.485,60.85859l-1.68848.23242c-.51953.07227-.91162.20117-1.17578.38574s-.39648.51172-.39648.98145c0,.3418.12207.62109.36572.83691.24365.2168.56836.3252.97412.3252.55615,0,1.01514-.19531,1.37744-.58496s.54346-.88281.54346-1.47949v-.69727Z" fill="#2f2f2f"/>
      <path d="M375.52895,64.39961h-1.12109v-3.99219c0-1.48633-.54248-2.22852-1.62695-2.22852-.56055,0-1.02441.21094-1.39111.63184-.3667.42188-.55029.9541-.55029,1.59668v3.99219h-1.12109v-7h1.12109v1.16211h.02734c.52881-.88477,1.29443-1.32617,2.29688-1.32617.76562,0,1.35107.24707,1.75684.74121.40576.49512.6084,1.20898.6084,2.14355v4.2793Z" fill="#2f2f2f"/>
      <path d="M382.65199,64.39961h-1.12109v-1.09375h-.02734c-.48779.83789-1.20557,1.25781-2.15332,1.25781-.69727,0-1.24316-.18457-1.63721-.55371s-.59131-.85938-.59131-1.46973c0-1.30859.77002-2.06934,2.31055-2.2832l2.09863-.29395c0-1.18945-.48096-1.78418-1.44238-1.78418-.84326,0-1.604.28711-2.2832.86133v-1.14844c.68799-.4375,1.48096-.65625,2.37891-.65625,1.64502,0,2.46777.87012,2.46777,2.61133v4.55273ZM381.5309,60.85859l-1.68848.23242c-.51953.07227-.91162.20117-1.17578.38574s-.39648.51172-.39648.98145c0,.3418.12207.62109.36572.83691.24365.2168.56836.3252.97412.3252.55615,0,1.01514-.19531,1.37744-.58496s.54346-.88281.54346-1.47949v-.69727Z" fill="#2f2f2f"/>
      <path d="M385.88539,64.39961h-1.12109v-10.36328h1.12109v10.36328Z" fill="#2f2f2f"/>
      <path d="M393.72621,57.39961l-3.21973,8.12109c-.57422,1.44922-1.38086,2.17383-2.41992,2.17383-.2915,0-.53564-.03027-.73145-.08887v-1.00488c.2417.08203.4624.12305.66309.12305.56494,0,.98877-.33789,1.27148-1.01172l.56055-1.32617-2.73438-6.98633h1.24414l1.89355,5.38672c.02295.06836.0708.24609.14355.5332h.04102c.02295-.10938.06836-.2832.13672-.51953l1.98926-5.40039h1.16211Z" fill="#2f2f2f"/>
      <path d="M398.17641,64.33125c-.26416.14551-.61279.21875-1.0459.21875-1.22607,0-1.83887-.68359-1.83887-2.05078v-4.14258h-1.20312v-.95703h1.20312v-1.70898l1.12109-.3623v2.07129h1.76367v.95703h-1.76367v3.94434c0,.46875.07959.80371.23926,1.00488.15967.2002.42383.30078.79297.30078.28271,0,.52637-.07812.73145-.23242v.95703Z" fill="#2f2f2f"/>
      <path d="M400.2477,55.62227c-.20068,0-.37158-.06836-.5127-.20508s-.21191-.31055-.21191-.51953c0-.20996.0708-.38379.21191-.52344.14111-.13867.31201-.20801.5127-.20801.20508,0,.37939.06934.52295.20801.14355.13965.21533.31348.21533.52344,0,.2002-.07178.37109-.21533.5127-.14355.14062-.31787.21191-.52295.21191ZM400.79457,64.39961h-1.12109v-7h1.12109v7Z" fill="#2f2f2f"/>
      <path d="M407.83559,64.07832c-.5376.32324-1.17578.48535-1.91406.48535-.99805,0-1.80371-.3252-2.4165-.97461s-.91943-1.49121-.91943-2.52539c0-1.15332.33057-2.0791.99121-2.7793.66064-.69922,1.54248-1.04883,2.64551-1.04883.61523,0,1.15771.11328,1.62695.3418v1.14844c-.51953-.36523-1.07568-.54688-1.66797-.54688-.71533,0-1.30225.25586-1.76025.76855s-.68701,1.18652-.68701,2.02051c0,.82031.21533,1.4668.646,1.94141.43066.47363,1.0083.71094,1.73291.71094.61084,0,1.18506-.20312,1.72266-.6084v1.06641Z" fill="#2f2f2f"/>
      <path d="M409.10707,64.14668v-1.20312c.61084.45117,1.28271.67676,2.0166.67676.98438,0,1.47656-.32812,1.47656-.98438,0-.1875-.04199-.3457-.12646-.47559s-.19824-.24512-.3418-.34473c-.14355-.10059-.31201-.19043-.50586-.27051-.19385-.0791-.40234-.16309-.62549-.24902-.31006-.12305-.58203-.24707-.81689-.37305-.23486-.125-.43066-.2666-.58789-.42383s-.27588-.33594-.35547-.53613c-.07959-.20117-.11963-.43555-.11963-.7041,0-.32812.0752-.61914.22559-.87207s.35107-.46484.60156-.63574.53662-.2998.85791-.38574c.32129-.08691.65283-.12988.99463-.12988.60596,0,1.14844.10449,1.62695.31445v1.13477c-.51514-.33789-1.10742-.50586-1.77734-.50586-.20947,0-.39893.02344-.56738.07129s-.31348.11523-.43408.20215c-.12061.08594-.21436.19043-.28027.31055-.06592.12109-.09912.25391-.09912.40039,0,.18164.0332.33496.09912.45801s.16309.23242.29053.32812.28271.18164.46484.25977c.18213.07715.38965.16113.62207.25293.31006.11816.58789.24023.83398.36523.24609.12598.45557.2666.62891.42383s.30664.33887.3999.54395.14014.44824.14014.73145c0,.3457-.07617.64648-.229.90234-.15283.25488-.35645.4668-.61182.63574-.25537.16797-.54932.29395-.88184.37598s-.68115.12305-1.0459.12305c-.72021,0-1.34424-.13965-1.87305-.41699Z" fill="#2f2f2f"/>
      <path d="M424.93227,61.17988h-4.94238c.01807.7793.22803,1.38086.62891,1.80469s.95264.63574,1.6543.63574c.78857,0,1.51318-.25977,2.17383-.7793v1.05273c-.61523.44629-1.42871.66992-2.44043.66992-.98877,0-1.76611-.31836-2.33105-.9541s-.84766-1.53027-.84766-2.68262c0-1.08984.30859-1.97656.92627-2.66309.61768-.68555,1.38428-1.02832,2.30029-1.02832s1.62451.2959,2.12598.88867c.50146.5918.75195,1.41504.75195,2.46777v.58789ZM423.78383,60.22969c-.00439-.64746-.16064-1.15137-.46826-1.51074-.30762-.36035-.73486-.54004-1.28174-.54004-.52881,0-.97754.18848-1.34668.56738-.36914.37793-.59717.87207-.68359,1.4834h3.78027Z" fill="#2f2f2f"/>
      <path d="M432.43813,64.39961h-1.12109v-3.99219c0-1.48633-.54248-2.22852-1.62695-2.22852-.56055,0-1.02441.21094-1.39111.63184-.3667.42188-.55029.9541-.55029,1.59668v3.99219h-1.12109v-7h1.12109v1.16211h.02734c.52881-.88477,1.29443-1.32617,2.29688-1.32617.76562,0,1.35107.24707,1.75684.74121.40576.49512.6084,1.20898.6084,2.14355v4.2793Z" fill="#2f2f2f"/>
      <path d="M440.52504,64.39961h-1.12109v-1.18945h-.02734c-.51953.90234-1.32178,1.35352-2.40625,1.35352-.87939,0-1.58252-.31348-2.10889-.94043-.52637-.62598-.78955-1.47949-.78955-2.55957,0-1.1582.2915-2.08496.875-2.78223s1.36035-1.0459,2.33105-1.0459c.96143,0,1.66113.37793,2.09863,1.13477h.02734v-4.33398h1.12109v10.36328ZM439.40395,61.23457v-1.03223c0-.56543-.18701-1.04395-.56055-1.43555-.37354-.39258-.84766-.58789-1.42188-.58789-.68359,0-1.22119.25-1.61328.75195-.39209.50098-.58789,1.19336-.58789,2.07812,0,.80664.18799,1.44336.56396,1.91016.37598.46777.88086.70117,1.51416.70117.62451,0,1.13135-.22559,1.521-.67676s.58447-1.02148.58447-1.70898Z" fill="#2f2f2f"/>
      <path d="M443.94301,63.38789h-.02734v4.23145h-1.12109v-10.21973h1.12109v1.23047h.02734c.55127-.92969,1.35791-1.39453,2.41992-1.39453.90234,0,1.60645.31348,2.1123.93945.50586.62695.75879,1.4668.75879,2.51953,0,1.1709-.28467,2.1084-.85449,2.8125s-1.34912,1.05664-2.33789,1.05664c-.90674,0-1.60645-.39258-2.09863-1.17578ZM443.91567,60.56465v.97754c0,.57812.18799,1.06934.56396,1.47266s.85352.60547,1.43213.60547c.6792,0,1.21094-.25977,1.59619-.7793s.57764-1.24219.57764-2.16699c0-.7793-.18018-1.39062-.54004-1.83203-.35986-.44238-.84766-.66309-1.46289-.66309-.65186,0-1.17578.22656-1.57227.67969-.39648.4541-.59473,1.02246-.59473,1.70605Z" fill="#2f2f2f"/>
      <path d="M453.95082,64.56367c-1.03467,0-1.86035-.32715-2.47803-.98145-.61768-.65332-.92627-1.52051-.92627-2.60059,0-1.17578.32129-2.09473.96387-2.75488.64258-.66113,1.51074-.99121,2.60449-.99121,1.04346,0,1.8584.32129,2.44385.96387s.87842,1.5332.87842,2.67285c0,1.11621-.31543,2.01074-.94678,2.68262-.63135.67285-1.47754,1.00879-2.53955,1.00879ZM454.03285,58.17891c-.72021,0-1.28955.24512-1.70898.73438-.41943.49023-.62891,1.16602-.62891,2.02734,0,.8291.21191,1.4834.63574,1.96191s.99121.71777,1.70215.71777c.72461,0,1.28174-.23535,1.67139-.7041.38965-.46973.58447-1.1377.58447-2.00293,0-.875-.19482-1.5498-.58447-2.02344-.38965-.47461-.94678-.71094-1.67139-.71094Z" fill="#2f2f2f"/>
      <path d="M459.80239,55.62227c-.20068,0-.37158-.06836-.5127-.20508s-.21191-.31055-.21191-.51953c0-.20996.0708-.38379.21191-.52344.14111-.13867.31201-.20801.5127-.20801.20508,0,.37939.06934.52295.20801.14355.13965.21533.31348.21533.52344,0,.2002-.07178.37109-.21533.5127-.14355.14062-.31787.21191-.52295.21191ZM460.34926,64.39961h-1.12109v-7h1.12109v7Z" fill="#2f2f2f"/>
      <path d="M468.42934,64.39961h-1.12109v-3.99219c0-1.48633-.54248-2.22852-1.62695-2.22852-.56055,0-1.02441.21094-1.39111.63184-.3667.42188-.55029.9541-.55029,1.59668v3.99219h-1.12109v-7h1.12109v1.16211h.02734c.52881-.88477,1.29443-1.32617,2.29688-1.32617.76562,0,1.35107.24707,1.75684.74121.40576.49512.6084,1.20898.6084,2.14355v4.2793Z" fill="#2f2f2f"/>
      <path d="M473.78871,64.33125c-.26416.14551-.61279.21875-1.0459.21875-1.22607,0-1.83887-.68359-1.83887-2.05078v-4.14258h-1.20312v-.95703h1.20312v-1.70898l1.12109-.3623v2.07129h1.76367v.95703h-1.76367v3.94434c0,.46875.07959.80371.23926,1.00488.15967.2002.42383.30078.79297.30078.28271,0,.52637-.07812.73145-.23242v.95703Z" fill="#2f2f2f"/>
      <path d="M479.69496,55.62227c-.20068,0-.37158-.06836-.5127-.20508s-.21191-.31055-.21191-.51953c0-.20996.0708-.38379.21191-.52344.14111-.13867.31201-.20801.5127-.20801.20508,0,.37939.06934.52295.20801.14355.13965.21533.31348.21533.52344,0,.2002-.07178.37109-.21533.5127-.14355.14062-.31787.21191-.52295.21191ZM480.24184,64.39961h-1.12109v-7h1.12109v7Z" fill="#2f2f2f"/>
      <path d="M485.75844,64.33125c-.26416.14551-.61279.21875-1.0459.21875-1.22607,0-1.83887-.68359-1.83887-2.05078v-4.14258h-1.20312v-.95703h1.20312v-1.70898l1.12109-.3623v2.07129h1.76367v.95703h-1.76367v3.94434c0,.46875.07959.80371.23926,1.00488.15967.2002.42383.30078.79297.30078.28271,0,.52637-.07812.73145-.23242v.95703Z" fill="#2f2f2f"/>
      <path d="M492.88149,61.17988h-4.94238c.01807.7793.22803,1.38086.62891,1.80469s.95264.63574,1.6543.63574c.78857,0,1.51318-.25977,2.17383-.7793v1.05273c-.61523.44629-1.42871.66992-2.44043.66992-.98877,0-1.76611-.31836-2.33105-.9541s-.84766-1.53027-.84766-2.68262c0-1.08984.30859-1.97656.92627-2.66309.61768-.68555,1.38428-1.02832,2.30029-1.02832s1.62451.2959,2.12598.88867c.50146.5918.75195,1.41504.75195,2.46777v.58789ZM491.73305,60.22969c-.00439-.64746-.16064-1.15137-.46826-1.51074-.30762-.36035-.73486-.54004-1.28174-.54004-.52881,0-.97754.18848-1.34668.56738-.36914.37793-.59717.87207-.68359,1.4834h3.78027Z" fill="#2f2f2f"/>
      <path d="M504.51625,64.39961h-1.12109v-4.01953c0-.77539-.11963-1.33594-.35889-1.68164-.23926-.34668-.6416-.51953-1.20654-.51953-.47852,0-.88525.21875-1.22021.65625s-.50244.96094-.50244,1.57227v3.99219h-1.12109v-4.15625c0-1.37695-.53076-2.06445-1.59277-2.06445-.49219,0-.89795.20605-1.2168.61816-.31885.41309-.47852.94922-.47852,1.61035v3.99219h-1.12109v-7h1.12109v1.10742h.02734c.49658-.84766,1.22119-1.27148,2.17383-1.27148.47852,0,.89551.13281,1.25098.39941s.59912.61621.73145,1.0498c.51953-.9668,1.29443-1.44922,2.32422-1.44922,1.54053,0,2.31055.9502,2.31055,2.85059v4.31348Z" fill="#2f2f2f"/>
    </g>
    <g>
      <path d="M425.54311,99.19941h-1.1416v-6.57617c0-.51953.03223-1.15527.0957-1.90723h-.02734c-.10938.44238-.20703.75879-.29395.9502l-3.34961,7.5332h-.56055l-3.34277-7.47852c-.0957-.21875-.19336-.55371-.29395-1.00488h-.02734c.03711.39258.05469,1.03223.05469,1.9209v6.5625h-1.10742v-9.80273h1.51758l3.00781,6.83594c.23242.52441.38281.91602.45117,1.17578h.04102c.19629-.53711.35352-.93848.47168-1.20312l3.06934-6.80859h1.43555v9.80273Z" fill="#2f2f2f"/>
      <path d="M428.54408,90.42207c-.2002,0-.37109-.06836-.5127-.20508-.14062-.13672-.21191-.30957-.21191-.51953,0-.20898.07129-.38379.21191-.52246.1416-.13965.3125-.20898.5127-.20898.20508,0,.37988.06934.52344.20898.14355.13867.21484.31348.21484.52246,0,.20117-.07129.37207-.21484.5127-.14355.1416-.31836.21191-.52344.21191ZM429.09096,99.19941h-1.12109v-7h1.12109v7Z" fill="#2f2f2f"/>
      <path d="M435.01088,93.33418c-.19531-.15039-.47852-.22559-.84766-.22559-.47852,0-.87793.22559-1.19922.67676s-.48242,1.06641-.48242,1.8457v3.56836h-1.12109v-7h1.12109v1.44238h.02734c.16016-.49219.40332-.87598.73145-1.15137.32812-.27637.69531-.41406,1.10059-.41406.29199,0,.51562.03223.66992.0957v1.16211Z" fill="#2f2f2f"/>
      <path d="M439.87807,93.33418c-.19531-.15039-.47852-.22559-.84766-.22559-.47852,0-.87793.22559-1.19922.67676s-.48242,1.06641-.48242,1.8457v3.56836h-1.12109v-7h1.12109v1.44238h.02734c.16016-.49219.40332-.87598.73145-1.15137.32812-.27637.69531-.41406,1.10059-.41406.29199,0,.51562.03223.66992.0957v1.16211Z" fill="#2f2f2f"/>
      <path d="M444.02065,99.36348c-1.03418,0-1.86035-.32715-2.47754-.98047-.61816-.6543-.92676-1.52148-.92676-2.60156,0-1.17578.32129-2.09375.96387-2.75488.64258-.66016,1.51074-.99121,2.60449-.99121,1.04395,0,1.8584.32129,2.44434.96387.58496.64258.87793,1.53418.87793,2.67285,0,1.11719-.31543,2.01074-.94629,2.68359-.63184.67188-1.47754,1.00781-2.54004,1.00781ZM444.10268,92.97871c-.71973,0-1.28906.24512-1.70898.73535-.41895.48926-.62891,1.16504-.62891,2.02637,0,.83008.21191,1.4834.63574,1.96191s.99121.71777,1.70215.71777c.72461,0,1.28223-.23438,1.67188-.7041.38965-.46875.58398-1.13672.58398-2.00293,0-.875-.19434-1.54883-.58398-2.02344-.38965-.47363-.94727-.71094-1.67188-.71094Z" fill="#2f2f2f"/>
      <path d="M452.94838,93.33418c-.19531-.15039-.47852-.22559-.84766-.22559-.47852,0-.87793.22559-1.19922.67676s-.48242,1.06641-.48242,1.8457v3.56836h-1.12109v-7h1.12109v1.44238h.02734c.16016-.49219.40332-.87598.73145-1.15137.32812-.27637.69531-.41406,1.10059-.41406.29199,0,.51562.03223.66992.0957v1.16211Z" fill="#2f2f2f"/>
      <path d="M459.79115,95.97969h-4.94238c.01855.7793.22852,1.38086.62891,1.80469.40137.42383.95312.63574,1.6543.63574.78906,0,1.51367-.25977,2.17383-.7793v1.05273c-.61523.44727-1.42871.66992-2.44043.66992-.98828,0-1.76562-.31738-2.33105-.95312-.56445-.63574-.84766-1.53027-.84766-2.68359,0-1.08887.30859-1.97656.92676-2.66211.61719-.68652,1.38379-1.0293,2.2998-1.0293s1.625.29688,2.12598.88867c.50195.59277.75195,1.41504.75195,2.46777v.58789ZM458.64272,95.02949c-.00391-.64648-.16016-1.15039-.46777-1.51074-.30762-.35938-.73535-.54004-1.28223-.54004-.52832,0-.97754.18945-1.34668.56738-.36914.37891-.59668.87305-.68359,1.4834h3.78027Z" fill="#2f2f2f"/>
      <path d="M467.46108,99.19941h-1.12109v-1.18945h-.02734c-.51953.90234-1.32129,1.35352-2.40625,1.35352-.87891,0-1.58203-.31348-2.1084-.93945-.52637-.62695-.79004-1.48047-.79004-2.56055,0-1.15723.29199-2.08496.875-2.78223.58398-.69727,1.36035-1.0459,2.33105-1.0459.96191,0,1.66113.37891,2.09863,1.13477h.02734v-4.33398h1.12109v10.36328ZM466.33998,96.03437v-1.03223c0-.56445-.18652-1.04297-.56055-1.43555-.37305-.3916-.84766-.58789-1.42188-.58789-.68359,0-1.2207.25098-1.61328.75195-.3916.50195-.58789,1.19434-.58789,2.07812,0,.80664.18848,1.44336.56445,1.91113.37598.4668.88086.7002,1.51367.7002.625,0,1.13184-.22559,1.52148-.67676s.58398-1.02051.58398-1.70898Z" fill="#2f2f2f"/>
      <path d="M474.13979,90.42207c-.2002,0-.37109-.06836-.5127-.20508-.14062-.13672-.21191-.30957-.21191-.51953,0-.20898.07129-.38379.21191-.52246.1416-.13965.3125-.20898.5127-.20898.20508,0,.37988.06934.52344.20898.14355.13867.21484.31348.21484.52246,0,.20117-.07129.37207-.21484.5127-.14355.1416-.31836.21191-.52344.21191ZM474.68666,99.19941h-1.12109v-7h1.12109v7Z" fill="#2f2f2f"/>
      <path d="M480.20326,99.13105c-.26367.14648-.6123.21875-1.0459.21875-1.22559,0-1.83887-.68359-1.83887-2.05078v-4.14258h-1.20312v-.95703h1.20312v-1.70898l1.12109-.3623v2.07129h1.76367v.95703h-1.76367v3.94434c0,.46973.08008.80469.23926,1.00488.16016.20117.42383.30078.79297.30078.2832,0,.52637-.07715.73145-.23242v.95703Z" fill="#2f2f2f"/>
      <path d="M487.32631,95.97969h-4.94238c.01855.7793.22852,1.38086.62891,1.80469.40137.42383.95312.63574,1.6543.63574.78906,0,1.51367-.25977,2.17383-.7793v1.05273c-.61523.44727-1.42871.66992-2.44043.66992-.98828,0-1.76562-.31738-2.33105-.95312-.56445-.63574-.84766-1.53027-.84766-2.68359,0-1.08887.30859-1.97656.92676-2.66211.61719-.68652,1.38379-1.0293,2.2998-1.0293s1.625.29688,2.12598.88867c.50195.59277.75195,1.41504.75195,2.46777v.58789ZM486.17787,95.02949c-.00391-.64648-.16016-1.15039-.46777-1.51074-.30762-.35938-.73535-.54004-1.28223-.54004-.52832,0-.97754.18945-1.34668.56738-.36914.37891-.59668.87305-.68359,1.4834h3.78027Z" fill="#2f2f2f"/>
      <path d="M498.96108,99.19941h-1.12109v-4.01953c0-.77441-.11914-1.33496-.3584-1.68164-.23926-.3457-.6416-.51953-1.20703-.51953-.47852,0-.88477.21875-1.21973.65625s-.50293.96191-.50293,1.57227v3.99219h-1.12109v-4.15625c0-1.37598-.53027-2.06445-1.59277-2.06445-.49219,0-.89746.20605-1.2168.61914-.31836.41211-.47852.94922-.47852,1.60938v3.99219h-1.12109v-7h1.12109v1.10742h.02734c.49707-.84766,1.22168-1.27148,2.17383-1.27148.47852,0,.89551.13379,1.25098.40039s.59961.61621.73145,1.04883c.51953-.96582,1.29492-1.44922,2.32422-1.44922,1.54102,0,2.31055.9502,2.31055,2.85059v4.31348Z" fill="#2f2f2f"/>
    </g>
    <g>
      <rect x="41.17944" y="128.69883" width="107.77334" height="38.30117" fill="none"/>
      <path d="M52.60903,140.76387c-1.39014,0-2.50293-.45801-3.33936-1.37402s-1.25439-2.10742-1.25439-3.5752c0-1.57617.42627-2.83398,1.27832-3.77344.85205-.93848,2.01221-1.4082,3.47949-1.4082,1.35352,0,2.44385.45605,3.271,1.36719.82715.91211,1.24072,2.10352,1.24072,3.5752,0,1.59961-.42383,2.86426-1.27148,3.79395s-1.98242,1.39453-3.4043,1.39453ZM52.69106,131.67207c-1.02979,0-1.86621.37207-2.50879,1.11426-.64258.74316-.96387,1.71875-.96387,2.92578,0,1.20801.31348,2.17969.93994,2.91602.62646.73535,1.44336,1.10352,2.45068,1.10352,1.07568,0,1.92334-.35059,2.54297-1.05273.61963-.70117.92969-1.68359.92969-2.94629,0-1.29395-.30078-2.29395-.90234-3.00098-.60156-.70605-1.43115-1.05957-2.48828-1.05957Z" fill="#2f2f2f"/>
      <path d="M64.86147,140.5998h-1.12109v-3.99219c0-1.48535-.54248-2.22852-1.62695-2.22852-.56055,0-1.02441.21094-1.39111.63281-.3667.4209-.55029.95312-.55029,1.5957v3.99219h-1.12109v-7h1.12109v1.16211h.02734c.52881-.88379,1.29443-1.32617,2.29688-1.32617.76562,0,1.35107.24707,1.75684.74219.40576.49414.6084,1.20898.6084,2.14258v4.2793Z" fill="#2f2f2f"/>
      <path d="M70.47035,137.14082h-3.73242v-.88184h3.73242v.88184Z" fill="#2f2f2f"/>
      <path d="M73.52748,139.58809h-.02734v4.23145h-1.12109v-10.21973h1.12109v1.23047h.02734c.55127-.92969,1.35791-1.39453,2.41992-1.39453.90234,0,1.60645.31348,2.1123.94043.50586.62598.75879,1.46582.75879,2.51855,0,1.17188-.28467,2.10938-.85449,2.81348s-1.34912,1.05566-2.33789,1.05566c-.90674,0-1.60645-.3916-2.09863-1.17578ZM73.50014,136.76484v.97754c0,.5791.18799,1.07031.56396,1.47363s.85352.60449,1.43213.60449c.6792,0,1.21094-.25977,1.59619-.7793s.57764-1.24121.57764-2.16699c0-.7793-.18018-1.38965-.54004-1.83203-.35986-.44141-.84766-.66309-1.46289-.66309-.65186,0-1.17578.22656-1.57227.68066-.39648.45312-.59473,1.02148-.59473,1.70508Z" fill="#2f2f2f"/>
      <path d="M84.18569,134.73457c-.1958-.15039-.47852-.22559-.84766-.22559-.47852,0-.87842.22559-1.19971.67676s-.48193,1.06641-.48193,1.8457v3.56836h-1.12109v-7h1.12109v1.44238h.02734c.15967-.49219.40332-.87598.73145-1.15137.32812-.27637.69482-.41406,1.10059-.41406.2915,0,.51514.03223.66992.0957v1.16211Z" fill="#2f2f2f"/>
      <path d="M91.02846,137.38008h-4.94238c.01807.7793.22803,1.38086.62891,1.80469s.95264.63574,1.6543.63574c.78857,0,1.51318-.25977,2.17383-.7793v1.05273c-.61523.44727-1.42871.66992-2.44043.66992-.98877,0-1.76611-.31738-2.33105-.95312s-.84766-1.53027-.84766-2.68359c0-1.08887.30859-1.97656.92627-2.66211.61768-.68652,1.38428-1.0293,2.30029-1.0293s1.62451.29688,2.12598.88867c.50146.59277.75195,1.41504.75195,2.46777v.58789ZM89.88002,136.42988c-.00439-.64648-.16064-1.15039-.46826-1.51074-.30762-.35938-.73486-.54004-1.28174-.54004-.52881,0-.97754.18945-1.34668.56738-.36914.37891-.59717.87305-.68359,1.4834h3.78027Z" fill="#2f2f2f"/>
      <path d="M102.65102,140.5998h-1.12109v-4.01953c0-.77441-.11963-1.33496-.35889-1.68164-.23926-.3457-.6416-.51953-1.20654-.51953-.47852,0-.88525.21875-1.22021.65625s-.50244.96191-.50244,1.57227v3.99219h-1.12109v-4.15625c0-1.37598-.53076-2.06445-1.59277-2.06445-.49219,0-.89795.20605-1.2168.61914-.31885.41211-.47852.94922-.47852,1.60938v3.99219h-1.12109v-7h1.12109v1.10742h.02734c.49658-.84766,1.22119-1.27148,2.17383-1.27148.47852,0,.89551.13379,1.25098.40039s.59912.61621.73145,1.04883c.51953-.96582,1.29443-1.44922,2.32422-1.44922,1.54053,0,2.31055.9502,2.31055,2.85059v4.31348Z" fill="#2f2f2f"/>
      <path d="M105.2394,131.82246c-.20068,0-.37158-.06836-.5127-.20508s-.21191-.30957-.21191-.51953c0-.20898.0708-.38379.21191-.52246.14111-.13965.31201-.20898.5127-.20898.20508,0,.37939.06934.52295.20898.14355.13867.21533.31348.21533.52246,0,.20117-.07178.37207-.21533.5127-.14355.1416-.31787.21191-.52295.21191ZM105.78627,140.5998h-1.12109v-7h1.12109v7Z" fill="#2f2f2f"/>
      <path d="M107.50307,140.34687v-1.20312c.61084.45117,1.28271.67676,2.0166.67676.98438,0,1.47656-.32812,1.47656-.98438,0-.18652-.04199-.34473-.12646-.47461s-.19824-.24512-.3418-.3457c-.14355-.09961-.31201-.19043-.50586-.26953-.19385-.08008-.40234-.16309-.62549-.25-.31006-.12305-.58203-.24707-.81689-.37207-.23486-.12598-.43066-.2666-.58789-.42383s-.27588-.33594-.35547-.53711c-.07959-.2002-.11963-.43457-.11963-.7041,0-.32812.0752-.61816.22559-.87109s.35107-.46484.60156-.63574.53662-.2998.85791-.38672c.32129-.08594.65283-.12988.99463-.12988.60596,0,1.14844.10547,1.62695.31445v1.13477c-.51514-.33691-1.10742-.50586-1.77734-.50586-.20947,0-.39893.02441-.56738.07227s-.31348.11523-.43408.20117c-.12061.08691-.21436.19043-.28027.31152-.06592.12012-.09912.25391-.09912.39941,0,.18262.0332.33496.09912.45801s.16309.23242.29053.32812.28271.18262.46484.25977c.18213.07812.38965.16211.62207.25293.31006.11914.58789.24023.83398.36621.24609.125.45557.2666.62891.42383s.30664.33789.3999.54297.14014.44922.14014.73145c0,.34668-.07617.64746-.229.90234-.15283.25586-.35645.46777-.61182.63574-.25537.16895-.54932.29395-.88184.37598s-.68115.12305-1.0459.12305c-.72021,0-1.34424-.13867-1.87305-.41699Z" fill="#2f2f2f"/>
      <path d="M119.45815,137.38008h-4.94238c.01807.7793.22803,1.38086.62891,1.80469s.95264.63574,1.6543.63574c.78857,0,1.51318-.25977,2.17383-.7793v1.05273c-.61523.44727-1.42871.66992-2.44043.66992-.98877,0-1.76611-.31738-2.33105-.95312s-.84766-1.53027-.84766-2.68359c0-1.08887.30859-1.97656.92627-2.66211.61768-.68652,1.38428-1.0293,2.30029-1.0293s1.62451.29688,2.12598.88867c.50146.59277.75195,1.41504.75195,2.46777v.58789ZM118.30971,136.42988c-.00439-.64648-.16064-1.15039-.46826-1.51074-.30762-.35938-.73486-.54004-1.28174-.54004-.52881,0-.97754.18945-1.34668.56738-.36914.37891-.59717.87305-.68359,1.4834h3.78027Z" fill="#2f2f2f"/>
      <path d="M120.70033,140.34687v-1.20312c.61084.45117,1.28271.67676,2.0166.67676.98438,0,1.47656-.32812,1.47656-.98438,0-.18652-.04199-.34473-.12646-.47461s-.19824-.24512-.3418-.3457c-.14355-.09961-.31201-.19043-.50586-.26953-.19385-.08008-.40234-.16309-.62549-.25-.31006-.12305-.58203-.24707-.81689-.37207-.23486-.12598-.43066-.2666-.58789-.42383s-.27588-.33594-.35547-.53711c-.07959-.2002-.11963-.43457-.11963-.7041,0-.32812.0752-.61816.22559-.87109s.35107-.46484.60156-.63574.53662-.2998.85791-.38672c.32129-.08594.65283-.12988.99463-.12988.60596,0,1.14844.10547,1.62695.31445v1.13477c-.51514-.33691-1.10742-.50586-1.77734-.50586-.20947,0-.39893.02441-.56738.07227s-.31348.11523-.43408.20117c-.12061.08691-.21436.19043-.28027.31152-.06592.12012-.09912.25391-.09912.39941,0,.18262.0332.33496.09912.45801s.16309.23242.29053.32812.28271.18262.46484.25977c.18213.07812.38965.16211.62207.25293.31006.11914.58789.24023.83398.36621.24609.125.45557.2666.62891.42383s.30664.33789.3999.54297.14014.44922.14014.73145c0,.34668-.07617.64746-.229.90234-.15283.25586-.35645.46777-.61182.63574-.25537.16895-.54932.29395-.88184.37598s-.68115.12305-1.0459.12305c-.72021,0-1.34424-.13867-1.87305-.41699Z" fill="#2f2f2f"/>
      <path d="M133.82533,140.76387c-1.03467,0-1.86035-.32715-2.47803-.98047-.61768-.6543-.92627-1.52148-.92627-2.60156,0-1.17578.32129-2.09375.96387-2.75488.64258-.66016,1.51074-.99121,2.60449-.99121,1.04346,0,1.8584.32129,2.44385.96387s.87842,1.53418.87842,2.67285c0,1.11719-.31543,2.01074-.94678,2.68359-.63135.67188-1.47754,1.00781-2.53955,1.00781ZM133.90737,134.3791c-.72021,0-1.28955.24512-1.70898.73535-.41943.48926-.62891,1.16504-.62891,2.02637,0,.83008.21191,1.4834.63574,1.96191s.99121.71777,1.70215.71777c.72461,0,1.28174-.23438,1.67139-.7041.38965-.46875.58447-1.13672.58447-2.00293,0-.875-.19482-1.54883-.58447-2.02344-.38965-.47363-.94678-.71094-1.67139-.71094Z" fill="#2f2f2f"/>
      <path d="M142.67739,134.73457c-.1958-.15039-.47852-.22559-.84766-.22559-.47852,0-.87842.22559-1.19971.67676s-.48193,1.06641-.48193,1.8457v3.56836h-1.12109v-7h1.12109v1.44238h.02734c.15967-.49219.40332-.87598.73145-1.15137.32812-.27637.69482-.41406,1.10059-.41406.2915,0,.51514.03223.66992.0957v1.16211Z" fill="#2f2f2f"/>
      <path d="M60.52407,148.62227c-.20068,0-.37158-.06836-.5127-.20508s-.21191-.30957-.21191-.51953c0-.20898.0708-.38379.21191-.52246.14111-.13965.31201-.20898.5127-.20898.20508,0,.37939.06934.52295.20898.14355.13867.21533.31348.21533.52246,0,.20117-.07178.37207-.21533.5127-.14355.1416-.31787.21191-.52295.21191ZM61.07094,157.39961h-1.12109v-7h1.12109v7Z" fill="#2f2f2f"/>
      <path d="M68.99965,157.39961h-1.12109v-3.99219c0-1.48535-.54248-2.22852-1.62695-2.22852-.56055,0-1.02441.21094-1.39111.63281-.3667.4209-.55029.95312-.55029,1.5957v3.99219h-1.12109v-7h1.12109v1.16211h.02734c.52881-.88379,1.29443-1.32617,2.29688-1.32617.76562,0,1.35107.24707,1.75684.74219.40576.49414.6084,1.20898.6084,2.14258v4.2793Z" fill="#2f2f2f"/>
      <path d="M78.19399,157.33125c-.26416.14648-.61279.21875-1.0459.21875-1.22607,0-1.83887-.68359-1.83887-2.05078v-4.14258h-1.20312v-.95703h1.20312v-1.70898l1.12109-.3623v2.07129h1.76367v.95703h-1.76367v3.94434c0,.46973.07959.80469.23926,1.00488.15967.20117.42383.30078.79297.30078.28271,0,.52637-.07715.73145-.23242v.95703Z" fill="#2f2f2f"/>
      <path d="M85.38539,157.39961h-1.12109v-4.0332c0-1.45801-.54248-2.1875-1.62695-2.1875-.54688,0-1.00732.21094-1.38086.63281-.37354.4209-.56055.96289-.56055,1.62305v3.96484h-1.12109v-10.36328h1.12109v4.52539h.02734c.5376-.88379,1.30322-1.32617,2.29688-1.32617,1.57666,0,2.36523.9502,2.36523,2.85059v4.31348Z" fill="#2f2f2f"/>
      <path d="M93.08901,154.17988h-4.94238c.01807.7793.22803,1.38086.62891,1.80469s.95264.63574,1.6543.63574c.78857,0,1.51318-.25977,2.17383-.7793v1.05273c-.61523.44727-1.42871.66992-2.44043.66992-.98877,0-1.76611-.31738-2.33105-.95312s-.84766-1.53027-.84766-2.68359c0-1.08887.30859-1.97656.92627-2.66211.61768-.68652,1.38428-1.0293,2.30029-1.0293s1.62451.29688,2.12598.88867c.50146.59277.75195,1.41504.75195,2.46777v.58789ZM91.94057,153.22969c-.00439-.64648-.16064-1.15039-.46826-1.51074-.30762-.35938-.73486-.54004-1.28174-.54004-.52881,0-.97754.18945-1.34668.56738-.36914.37891-.59717.87305-.68359,1.4834h3.78027Z" fill="#2f2f2f"/>
      <path d="M103.39076,157.07832c-.5376.32422-1.17578.48535-1.91406.48535-.99805,0-1.80371-.32422-2.4165-.97363s-.91943-1.49121-.91943-2.52637c0-1.15234.33057-2.0791.99121-2.77832.66064-.7002,1.54248-1.0498,2.64551-1.0498.61523,0,1.15771.11426,1.62695.3418v1.14844c-.51953-.36426-1.07568-.54688-1.66797-.54688-.71533,0-1.30225.25684-1.76025.76953s-.68701,1.18555-.68701,2.01953c0,.82031.21533,1.46777.646,1.94141.43066.47461,1.0083.71094,1.73291.71094.61084,0,1.18506-.20215,1.72266-.6084v1.06641Z" fill="#2f2f2f"/>
      <path d="M105.99965,157.39961h-1.12109v-10.36328h1.12109v10.36328Z" fill="#2f2f2f"/>
      <path d="M111.1183,157.56367c-1.03467,0-1.86035-.32715-2.47803-.98047-.61768-.6543-.92627-1.52148-.92627-2.60156,0-1.17578.32129-2.09375.96387-2.75488.64258-.66016,1.51074-.99121,2.60449-.99121,1.04346,0,1.8584.32129,2.44385.96387s.87842,1.53418.87842,2.67285c0,1.11719-.31543,2.01074-.94678,2.68359-.63135.67188-1.47754,1.00781-2.53955,1.00781ZM111.20033,151.17891c-.72021,0-1.28955.24512-1.70898.73535-.41943.48926-.62891,1.16504-.62891,2.02637,0,.83008.21191,1.4834.63574,1.96191s.99121.71777,1.70215.71777c.72461,0,1.28174-.23438,1.67139-.7041.38965-.46875.58447-1.13672.58447-2.00293,0-.875-.19482-1.54883-.58447-2.02344-.38965-.47363-.94678-.71094-1.67139-.71094Z" fill="#2f2f2f"/>
      <path d="M122.01381,157.39961h-1.12109v-1.10742h-.02734c-.46484.84766-1.18506,1.27148-2.16016,1.27148-1.66797,0-2.50195-.99316-2.50195-2.98047v-4.18359h1.11426v4.00586c0,1.47656.56494,2.21484,1.69531,2.21484.54688,0,.99707-.20117,1.3501-.60449s.52979-.93066.52979-1.58301v-4.0332h1.12109v7Z" fill="#2f2f2f"/>
      <path d="M130.18227,157.39961h-1.12109v-1.18945h-.02734c-.51953.90234-1.32178,1.35352-2.40625,1.35352-.87939,0-1.58252-.31348-2.10889-.93945-.52637-.62695-.78955-1.48047-.78955-2.56055,0-1.15723.2915-2.08496.875-2.78223s1.36035-1.0459,2.33105-1.0459c.96143,0,1.66113.37891,2.09863,1.13477h.02734v-4.33398h1.12109v10.36328ZM129.06117,154.23457v-1.03223c0-.56445-.18701-1.04297-.56055-1.43555-.37354-.3916-.84766-.58789-1.42188-.58789-.68359,0-1.22119.25098-1.61328.75195-.39209.50195-.58789,1.19434-.58789,2.07812,0,.80664.18799,1.44336.56396,1.91113.37598.4668.88086.7002,1.51416.7002.62451,0,1.13135-.22559,1.521-.67676s.58447-1.02051.58447-1.70898Z" fill="#2f2f2f"/>
    </g>
    <g>
      <path d="M48.90883,26.4709h-2.40625l-.69727-2.18066h-3.48633l-.69043,2.18066h-2.39258l3.56836-9.80273h2.61816l3.48633,9.80273ZM45.29946,22.59492l-1.05273-3.29492c-.07764-.24609-.13232-.54004-.16406-.88184h-.05469c-.02295.28711-.07959.57129-.1709.85449l-1.06641,3.32227h2.50879Z" fill="#2f2f2f"/>
      <path d="M55.81459,26.4709h-6.28223v-.89551l3.51367-4.51172h-3.16504v-1.59277h5.90625v1.06641l-3.3291,4.34082h3.35645v1.59277Z" fill="#2f2f2f"/>
      <path d="M63.69643,26.4709h-2.15332v-1.06641h-.03418c-.5332.82422-1.24658,1.2373-2.13965,1.2373-1.62256,0-2.43359-.98242-2.43359-2.94629v-4.22461h2.15332v4.0332c0,.98828.39209,1.4834,1.17578,1.4834.38721,0,.69727-.13574.92969-.40723.23242-.27051.34863-.63867.34863-1.10352v-4.00586h2.15332v7Z" fill="#2f2f2f"/>
      <path d="M70.0309,21.41914c-.25977-.1416-.56299-.21191-.90918-.21191-.46924,0-.83643.17188-1.10059.51562-.26416.34473-.39648.8125-.39648,1.40527v3.34277h-2.16016v-7h2.16016v1.29883h.02734c.3418-.94824.95703-1.42188,1.8457-1.42188.22803,0,.40576.02734.5332.08203v1.98926Z" fill="#2f2f2f"/>
      <path d="M77.40346,23.58613h-4.56641c.07275,1.01562.71338,1.52441,1.9209,1.52441.77002,0,1.44678-.18262,2.03027-.54688v1.55859c-.64697.3457-1.48779.51953-2.52246.51953-1.13037,0-2.00732-.31348-2.63184-.94043-.62451-.62598-.93652-1.5-.93652-2.62109,0-1.16211.3374-2.08301,1.01172-2.76172.67432-.67969,1.50391-1.01855,2.48828-1.01855,1.021,0,1.81055.30273,2.36865.90918.55811.60547.8374,1.42871.8374,2.46777v.90918ZM75.40053,22.25996c0-1.00293-.40576-1.50391-1.2168-1.50391-.34619,0-.646.14355-.89893.43066s-.40674.64453-.46143,1.07324h2.57715Z" fill="#2f2f2f"/>
    </g>
    <g>
      <path d="M244.38832,18.46602h-3.45898v2.40625h3.17871v1.79102h-3.17871v3.80762h-2.20801v-9.80273h5.66699v1.79785Z" fill="#2f2f2f"/>
      <path d="M251.24428,26.4709h-2.04395v-1.00488h-.02734c-.46924.7832-1.16455,1.17578-2.08496,1.17578-.6792,0-1.21338-.19238-1.60303-.57812-.38965-.38477-.58447-.89844-.58447-1.54102,0-1.3584.8042-2.14258,2.41309-2.35156l1.90039-.25293c0-.76562-.41455-1.14844-1.24414-1.14844-.83398,0-1.62695.24805-2.37891.74512v-1.62695c.30078-.15527.71191-.29199,1.23389-.41016.52197-.11914.99707-.17773,1.42529-.17773,1.99609,0,2.99414.99512,2.99414,2.9873v4.18359ZM249.21401,23.62715v-.47168l-1.27148.16406c-.70166.09082-1.05273.40723-1.05273.9502,0,.24609.08545.44727.25635.60449s.40234.23633.69385.23633c.40576,0,.73584-.14062.99121-.4209s.38281-.63477.38281-1.0625Z" fill="#2f2f2f"/>
      <path d="M255.12807,25.65742h-.02734v.81348h-2.16016v-10.36328h2.16016v4.41602h.02734c.5332-.81641,1.29199-1.22363,2.27637-1.22363.90234,0,1.59717.30957,2.08496.92969.48779.61914.73145,1.4668.73145,2.54297,0,1.16602-.28467,2.10254-.85449,2.80957-.56982.70605-1.33057,1.05957-2.2832,1.05957-.86133,0-1.51318-.32812-1.95508-.98438ZM255.06655,22.7043v.71777c0,.45117.12988.82422.38965,1.12109.25977.2959.59229.44434.99805.44434.49219,0,.87402-.19043,1.14502-.57129.271-.37988.40674-.91895.40674-1.61621,0-.5791-.12402-1.03125-.37256-1.35742-.24854-.3252-.60254-.48828-1.06299-.48828-.43311,0-.79199.16113-1.07666.48535-.28467.32324-.42725.74512-.42725,1.26465Z" fill="#2f2f2f"/>
      <path d="M266.20424,21.41914c-.25977-.1416-.56299-.21191-.90918-.21191-.46924,0-.83643.17188-1.10059.51562-.26416.34473-.39648.8125-.39648,1.40527v3.34277h-2.16016v-7h2.16016v1.29883h.02734c.3418-.94824.95703-1.42188,1.8457-1.42188.22803,0,.40576.02734.5332.08203v1.98926Z" fill="#2f2f2f"/>
      <path d="M268.29018,18.36348c-.36475,0-.66309-.1084-.89551-.3252-.23242-.21582-.34863-.48145-.34863-.7959,0-.32422.11621-.58789.34863-.79297s.53076-.30762.89551-.30762c.36914,0,.66895.10254.89893.30762s.34521.46875.34521.79297c0,.32812-.11523.59668-.34521.80664-.22998.20898-.52979.31445-.89893.31445ZM269.35658,26.4709h-2.16016v-7h2.16016v7Z" fill="#2f2f2f"/>
      <path d="M276.43617,26.21797c-.48779.28223-1.19189.42383-2.1123.42383-1.07568,0-1.9458-.32617-2.61133-.97754-.66553-.65234-.99805-1.49316-.99805-2.52246,0-1.18945.35645-2.12695,1.06982-2.81348.71338-.68555,1.66699-1.02832,2.86084-1.02832.82471,0,1.42188.10938,1.79102.32812v1.83203c-.45117-.33789-.95459-.50586-1.51074-.50586-.61963,0-1.11084.18066-1.47314.54297s-.54346.8623-.54346,1.50098c0,.61914.17334,1.10645.51953,1.45898.34619.35352.82275.53027,1.42871.53027.5376,0,1.06396-.16895,1.5791-.50586v1.73633Z" fill="#2f2f2f"/>
    </g>
  </g>
</svg>