<svg width="102" height="96" xmlns="http://www.w3.org/2000/svg" xmlns:xlink="http://www.w3.org/1999/xlink" xml:space="preserve" overflow="hidden"><defs><linearGradient x1="26.279" y1="-7.752" x2="26.279" y2="111.396" gradientUnits="userSpaceOnUse" spreadMethod="pad" id="fill0"><stop offset="0" stop-color="#76BC2D"/><stop offset="0.438" stop-color="#5E9624"/><stop offset="1" stop-color="#365615"/></linearGradient><linearGradient x1="78.3588" y1="97.83" x2="78.3588" y2="46.05" gradientUnits="userSpaceOnUse" spreadMethod="pad" id="fill1"><stop offset="0" stop-color="#365615"/><stop offset="0.562" stop-color="#5E9624"/><stop offset="1" stop-color="#76BC2D"/></linearGradient></defs><g><g><path d="M81.7728 37.296 55.9307 37.296C54.3236 37.296 53.0207 38.5988 53.0207 40.206L53.0207 66.048C53.0207 67.6554 54.3236 68.958 55.9307 68.958L81.7728 68.958C83.3796 68.958 84.6828 67.6554 84.6828 66.048L84.6828 40.206C84.6828 38.5988 83.3796 37.296 81.7728 37.296Z" fill="#B4EC36"/><path d="M38.939 68.682C38.939 67.8864 39.2551 67.1232 39.8177 66.5604 40.3804 65.9982 41.1434 65.682 41.939 65.682L44.087 65.682C44.8827 65.682 45.6458 65.9982 46.2084 66.5604 46.771 67.1232 47.087 67.8864 47.087 68.682L47.087 78.324C47.087 79.1196 46.771 79.8828 46.2084 80.4456 45.6458 81.0078 44.8827 81.324 44.087 81.324L8.45904 81.324C7.7388 81.3864 7.02246 81.1656 6.4623 80.709 5.90213 80.2518 5.54224 79.5942 5.45906 78.876 5.42601 77.9814 5.47622 77.0856 5.60906 76.2L5.83106 75.858 7.58304 73.242 23.585 49.41C24.0332 48.654 24.2762 47.7941 24.2899 46.9154 24.3035 46.0366 24.0875 45.1696 23.663 44.4L10.049 22.632C9.11532 21.0371 8.57058 19.2447 8.45904 17.4 8.50248 16.645 8.84178 15.9375 9.40338 15.4309 9.96492 14.9244 10.7036 14.6596 11.459 14.694L42.407 14.694C43.2027 14.694 43.9658 15.0101 44.5284 15.5727 45.091 16.1353 45.407 16.8983 45.407 17.694L45.407 27.312C45.407 28.1077 45.091 28.8707 44.5284 29.4333 43.9658 29.9959 43.2027 30.312 42.407 30.312L40.259 30.312C39.4634 30.312 38.7004 29.9959 38.1377 29.4333 37.5751 28.8707 37.259 28.1077 37.259 27.312L37.259 26.748C37.259 25.9523 36.943 25.1893 36.3804 24.6267 35.8178 24.0641 35.0547 23.748 34.259 23.748L24.185 23.748C22.535 23.748 21.899 24.888 22.775 26.286L34.091 44.4C34.5178 45.1751 34.7356 46.0478 34.723 46.9325 34.7103 47.8172 34.4677 48.6834 34.019 49.446L20.459 69.798C19.547 71.172 20.147 72.294 21.797 72.294L35.939 72.294C36.7347 72.294 37.4978 71.9778 38.0604 71.4156 38.623 70.8528 38.939 70.0896 38.939 69.294L38.939 68.682Z" fill="url(#fill0)"/><path d="M78.3588 47.562 88.1028 64.44 97.8528 81.324 78.3588 81.324 58.8647 81.324 68.6148 64.44 78.3588 47.562Z" fill="url(#fill1)"/></g></g></svg>