<svg width="87" height="93" xmlns="http://www.w3.org/2000/svg" xmlns:xlink="http://www.w3.org/1999/xlink" xml:space="preserve" overflow="hidden"><defs><linearGradient x1="31.815" y1="26.9264" x2="31.815" y2="5.39391" gradientUnits="userSpaceOnUse" spreadMethod="pad" id="fill0"><stop offset="0" stop-color="#D15900"/><stop offset="0.07" stop-color="#D15900"/><stop offset="1" stop-color="#EF7100"/></linearGradient><linearGradient x1="31.815" y1="64.9074" x2="31.815" y2="38.6551" gradientUnits="userSpaceOnUse" spreadMethod="pad" id="fill1"><stop offset="0" stop-color="#EF7100"/><stop offset="0.081" stop-color="#EF7100"/><stop offset="0.83" stop-color="#F78D1E"/><stop offset="1" stop-color="#F78D1E"/></linearGradient><linearGradient x1="31.815" y1="94.4385" x2="31.815" y2="65.0216" gradientUnits="userSpaceOnUse" spreadMethod="pad" id="fill2"><stop offset="0" stop-color="#FAA21D"/><stop offset="0.664" stop-color="#FFB34D"/><stop offset="1" stop-color="#FCC581"/></linearGradient><linearGradient x1="41.445" y1="65.8536" x2="51.1074" y2="56.1911" gradientUnits="userSpaceOnUse" spreadMethod="pad" id="fill3"><stop offset="0" stop-color="#F0F0F0"/><stop offset="0.327" stop-color="#ECECEC"/><stop offset="0.675" stop-color="#DFDFDF"/><stop offset="1" stop-color="#CCCCCC"/></linearGradient></defs><g><path d="M53.2932 16.9214 10.3423 16.9214C8.87987 16.9214 7.69428 18.107 7.69428 19.5695L7.69428 28.5685C7.69428 30.031 8.87987 31.2166 10.3423 31.2166L53.2932 31.2166C54.7556 31.2166 55.941 30.031 55.941 28.5685L55.941 19.5695C55.941 18.107 54.7556 16.9214 53.2932 16.9214Z" fill="url(#fill0)" transform="scale(1 1.00609)"/><path d="M53.2932 38.2799 10.3423 38.2799C8.87987 38.2799 7.69428 39.4655 7.69428 40.928L7.69428 49.9271C7.69428 51.3895 8.87987 52.5751 10.3423 52.5751L53.2932 52.5751C54.7556 52.5751 55.941 51.3895 55.941 49.9271L55.941 40.928C55.941 39.4655 54.7556 38.2799 53.2932 38.2799Z" fill="url(#fill1)" transform="scale(1 1.00609)"/><path d="M53.2932 59.6439 10.3423 59.6439C8.87987 59.6439 7.69428 60.8293 7.69428 62.292L7.69428 71.2911C7.69428 72.7532 8.87987 73.9391 10.3423 73.9391L53.2932 73.9391C54.7556 73.9391 55.941 72.7532 55.941 71.2911L55.941 62.292C55.941 60.8293 54.7556 59.6439 53.2932 59.6439Z" fill="url(#fill2)" transform="scale(1 1.00609)"/><path d="M41.445 65.8536 45.5286 50.6176 62.9342 33.2121 74.0865 44.3699 56.6865 61.77 41.445 65.8536Z" fill="#D15900" transform="scale(1 1.00609)"/><path d="M41.445 65.8536 56.6865 61.77 45.5286 50.6176 41.445 65.8536Z" fill="url(#fill3)" fill-rule="evenodd" transform="scale(1 1.00609)"/><path d="M41.445 65.8536 48.1766 64.0483 43.2503 59.1274 41.445 65.8536Z" fill="#F78D1E" fill-rule="evenodd" transform="scale(1 1.00609)"/><path d="M71.3036 41.5831 65.7247 36.0042 48.3226 53.4062 53.9016 58.9849 71.3036 41.5831Z" fill="#F78D1E" transform="scale(1 1.00609)"/><path d="M78.3821 35.6427 71.6885 28.922C71.396 28.6287 71.0485 28.3959 70.6663 28.2372 70.2835 28.0784 69.8735 27.9967 69.4592 27.9967 69.0454 27.9967 68.6348 28.0784 68.2526 28.2372 67.8698 28.3959 67.5223 28.6287 67.2298 28.922L65.1635 30.9882 76.3159 42.1677 78.3875 40.096C78.6801 39.8033 78.9112 39.4559 79.0694 39.0737 79.2271 38.6914 79.3081 38.2818 79.3076 37.8683 79.307 37.4547 79.2249 37.0453 79.0661 36.6634 78.9074 36.2816 78.6752 35.9347 78.3821 35.6427Z" fill="#D15900" transform="scale(1 1.00609)"/><path d="M65.1603 30.9864 62.9304 33.2164 74.0843 44.3704 76.3142 42.1404 65.1603 30.9864Z" fill="#FFB34D" transform="scale(1 1.00609)"/></g></svg>