<svg width="81" height="81" xmlns="http://www.w3.org/2000/svg" xmlns:xlink="http://www.w3.org/1999/xlink" xml:space="preserve" overflow="hidden"><defs><clipPath id="clip0"><rect x="0" y="0" width="81" height="81"/></clipPath><linearGradient x1="13.5017" y1="55.4091" x2="13.5017" y2="108.13" gradientUnits="userSpaceOnUse" spreadMethod="pad" id="fill1"><stop offset="0" stop-color="#FCC581"/><stop offset="0.504" stop-color="#FFB34D"/><stop offset="1" stop-color="#FAA21D"/></linearGradient><linearGradient x1="372.86" y1="4870.61" x2="372.86" y2="4712.62" gradientUnits="userSpaceOnUse" spreadMethod="pad" id="fill2"><stop offset="0" stop-color="#FCC581"/><stop offset="0.504" stop-color="#FFB34D"/><stop offset="1" stop-color="#FAA21D"/></linearGradient><linearGradient x1="225.648" y1="5173.32" x2="225.648" y2="4913.62" gradientUnits="userSpaceOnUse" spreadMethod="pad" id="fill3"><stop offset="0" stop-color="#FCC581"/><stop offset="0.504" stop-color="#FFB34D"/><stop offset="1" stop-color="#FAA21D"/></linearGradient></defs><g clip-path="url(#clip0)"><path d="M56.9531 41.1024 47.5219 41.1024C45.5166 41.1106 43.5895 40.3252 42.1612 38.9177 40.7328 37.5102 39.9192 35.5949 39.8978 33.5897L39.8978 17.7592 35.3416 17.7592 35.3416 33.5897C35.3202 35.5914 34.5093 37.5037 33.0854 38.9106 31.6614 40.3175 29.7395 41.1052 27.7377 41.1024L18.3063 41.1024C17.5205 41.0965 16.7411 41.2453 16.0128 41.5404 15.2845 41.8356 14.6215 42.2714 14.0616 42.8228 13.5017 43.3742 13.0559 44.0305 12.7497 44.7543 12.4435 45.478 12.2828 46.2549 12.2768 47.0407L12.2768 58.6136 16.4989 58.6136 16.4989 47.0256C16.5009 46.7929 16.5487 46.5629 16.6396 46.3487 16.7305 46.1345 16.8627 45.9402 17.0286 45.7771 17.1946 45.614 17.391 45.4851 17.6068 45.3979 17.8225 45.3107 18.0533 45.2669 18.286 45.2689L28.0414 45.2689C29.6771 45.277 31.2969 44.9476 32.7995 44.3013 34.3021 43.655 35.6552 42.7056 36.7743 41.5125 36.8811 41.3917 37.0124 41.295 37.1595 41.2288 37.3065 41.1626 37.466 41.1283 37.6273 41.1283 37.7886 41.1283 37.948 41.1626 38.0951 41.2288 38.2421 41.295 38.3734 41.3917 38.4803 41.5125 39.5985 42.7098 40.9515 43.6637 42.455 44.3143 43.9584 44.965 45.58 45.2986 47.2182 45.2942L56.9734 45.2942C57.2062 45.2922 57.4371 45.3361 57.6528 45.4232 57.8684 45.5105 58.0648 45.6393 58.2309 45.8024 58.3969 45.9655 58.5291 46.1598 58.6202 46.374 58.7108 46.5882 58.7589 46.8182 58.7604 47.0509L58.7604 58.6389 62.9826 58.6389 62.9826 47.0407C62.977 46.2549 62.816 45.478 62.5097 44.7543 62.2034 44.0305 61.7579 43.3742 61.198 42.8228 60.6381 42.2714 59.9749 41.8356 59.2469 41.5404 58.5185 41.2453 57.7393 41.0965 56.9531 41.1024Z" fill="#D15900"/><path d="M2.41987 51.9868 24.5886 51.9868C24.9037 51.9848 25.2161 52.045 25.508 52.1635 25.7999 52.2825 26.0656 52.4576 26.2898 52.6789 26.514 52.9001 26.6925 53.1638 26.8149 53.4539 26.9374 53.7445 27.0014 54.0564 27.0034 54.3713L27.0034 76.2109C26.998 76.8462 26.7408 77.4537 26.288 77.8997 25.8353 78.3462 25.2241 78.5943 24.5886 78.5902L2.41987 78.5902C2.10475 78.5928 1.79218 78.5336 1.50002 78.4156 1.20787 78.2971 0.941838 78.1225 0.717128 77.9017 0.49242 77.681 0.313433 77.4178 0.190387 77.1277 0.0673419 76.8376 0.00264807 76.5258 0 76.2109L0 54.3713C0.00535061 53.7344 0.263148 53.1254 0.71682 52.6783 1.17049 52.2313 1.78298 51.9828 2.41987 51.9868Z" fill="url(#fill1)"/><path d="M74.4997 54.3713 74.4997 76.2109C74.4967 76.5258 74.4324 76.8376 74.3094 77.1277 74.1859 77.4178 74.0072 77.681 73.7824 77.9017 73.5576 78.1225 73.2918 78.2971 72.9997 78.4156 72.7071 78.5336 72.3948 78.5928 72.0799 78.5902L49.911 78.5902C49.2754 78.5943 48.6642 78.3462 48.2115 77.8997 47.7588 77.4537 47.5015 76.8462 47.4962 76.2109L47.4962 54.3713C47.4981 54.0564 47.5622 53.7445 47.6846 53.4539 47.8071 53.1638 47.9855 52.9001 48.2097 52.6789 48.4339 52.4576 48.6996 52.2825 48.9915 52.1635 49.2834 52.045 49.5958 51.9848 49.911 51.9868L72.0799 51.9868C72.7167 51.9828 73.3288 52.2313 73.7829 52.6783 74.2365 53.1254 74.4942 53.7344 74.4997 54.3713Z" fill="url(#fill2)"/><path d="M26.6948 2.40975 48.8635 2.40975C49.1786 2.40708 49.4912 2.46651 49.7834 2.58464 50.0755 2.70277 50.3415 2.87729 50.5662 3.09824 50.791 3.31919 50.9698 3.58223 51.0928 3.87236 51.2158 4.16248 51.2806 4.47399 51.2831 4.78912L51.2831 26.6288C51.2781 27.2656 51.0204 27.8744 50.5665 28.3214 50.1129 28.7685 49.5004 29.0172 48.8635 29.0132L26.6948 29.0132C26.0623 29.0106 25.4563 28.7588 25.0081 28.3125 24.5599 27.8662 24.3056 27.2613 24.3003 26.6288L24.3003 4.78912C24.3056 4.15709 24.5601 3.55269 25.0084 3.10719 25.4567 2.66169 26.0628 2.41106 26.6948 2.40975Z" fill="url(#fill3)"/><path d="M80.3267 53.3841 78.9801 52.0577C78.5467 51.6314 77.963 51.393 77.355 51.393 76.747 51.393 76.1638 51.6314 75.7299 52.0577L62.694 64.8759 57.3328 59.6059C56.8995 59.1796 56.3158 58.9412 55.7077 58.9412 55.0997 58.9412 54.5165 59.1796 54.0827 59.6059L52.731 60.9323C52.5184 61.1418 52.3493 61.3919 52.2339 61.6673 52.1189 61.9427 52.0592 62.2384 52.0592 62.5371 52.0592 62.8357 52.1189 63.1314 52.2339 63.4068 52.3493 63.6827 52.5184 63.9323 52.731 64.1419L61.074 72.3938C61.5079 72.8195 62.0916 73.058 62.6991 73.0569 63.3061 73.0544 63.8887 72.8165 64.3241 72.3938L80.3267 56.6139C80.5434 56.4043 80.7155 56.1533 80.8329 55.8758 80.9504 55.5984 81.0111 55.3002 81.0111 54.999 81.0111 54.6978 80.9504 54.3996 80.8329 54.1222 80.7155 53.8447 80.5434 53.5937 80.3267 53.3841Z" fill="#D15900"/></g></svg>