<svg width="74" height="74" xmlns="http://www.w3.org/2000/svg" xmlns:xlink="http://www.w3.org/1999/xlink" xml:space="preserve" overflow="hidden"><defs><linearGradient x1="34.2342" y1="63.9406" x2="34.2342" y2="4.292" gradientUnits="userSpaceOnUse" spreadMethod="pad" id="fill0"><stop offset="0" stop-color="#365615"/><stop offset="0.539" stop-color="#5E9624"/><stop offset="1" stop-color="#76BC2D"/></linearGradient><linearGradient x1="49.6401" y1="10.0594" x2="49.6401" y2="69.708" gradientUnits="userSpaceOnUse" spreadMethod="pad" id="fill1"><stop offset="0" stop-color="#86D633"/><stop offset="0.18" stop-color="#86D633"/><stop offset="1" stop-color="#5E9624"/></linearGradient><linearGradient x1="2.94144" y1="27.1857" x2="42.9061" y2="27.1857" gradientUnits="userSpaceOnUse" spreadMethod="pad" id="fill2"><stop offset="0" stop-color="#365615"/><stop offset="0.562" stop-color="#5E9624"/><stop offset="1" stop-color="#76BC2D"/></linearGradient></defs><g><path d="M56.6054 4.292 11.8677 4.292C10.7693 4.292 9.87895 5.1824 9.87895 6.28075L9.87895 61.9565C9.87895 63.0549 10.7693 63.9453 11.8677 63.9453L56.6054 63.9453C57.7038 63.9453 58.5941 63.0549 58.5941 61.9565L58.5941 6.28075C58.5941 5.1824 57.7038 4.292 56.6054 4.292Z" fill="url(#fill0)"/><path d="M72.0112 10.0594 27.2738 10.0594C26.1755 10.0594 25.2851 10.9498 25.2851 12.0481L25.2851 67.7239C25.2851 68.8223 26.1755 69.7126 27.2738 69.7126L72.0112 69.7126C73.1097 69.7126 74 68.8223 74 67.7239L74 12.0481C74 10.9498 73.1097 10.0594 72.0112 10.0594Z" fill="url(#fill1)"/><path d="M70.392 13.1998 28.8965 13.1998C28.6207 13.1998 28.397 13.4234 28.397 13.6992L28.397 66.0728C28.397 66.3484 28.6207 66.5723 28.8965 66.5723L70.392 66.5723C70.6677 66.5723 70.8915 66.3484 70.8915 66.0728L70.8915 13.6992C70.8915 13.4234 70.6677 13.1998 70.392 13.1998Z" fill="#FFFFFF"/><path d="M38.9004 35.9085 34.7379 35.9085C34.6715 35.9104 34.6055 35.8989 34.5436 35.875 34.4817 35.851 34.4252 35.8149 34.3773 35.7688 34.3296 35.7227 34.2914 35.6676 34.2652 35.6066 34.239 35.5456 34.2251 35.48 34.2245 35.4136L34.2245 31.2511C34.2245 31.1187 34.2772 30.9916 34.3708 30.8979 34.4645 30.8043 34.5916 30.7516 34.724 30.7516L38.8865 30.7516C39.0178 30.7516 39.1437 30.8037 39.2365 30.8966 39.3293 30.9894 39.3814 31.1152 39.3814 31.2465L39.3814 35.409C39.3865 35.5375 39.3408 35.6629 39.2543 35.758 39.1678 35.8532 39.0473 35.9106 38.9189 35.9177L38.9004 35.9085ZM65.0687 35.4136 65.0687 31.2511C65.0691 31.1857 65.0571 31.1209 65.0321 31.0603 65.0076 30.9998 64.9715 30.9446 64.9253 30.8982 64.8795 30.8518 64.8245 30.8149 64.7643 30.7897 64.7038 30.7646 64.639 30.7516 64.5738 30.7516L43.937 30.7516C43.8058 30.7516 43.6799 30.8037 43.5871 30.8966 43.4943 30.9894 43.4422 31.1152 43.4422 31.2465L43.4422 35.409C43.4416 35.474 43.4538 35.5385 43.4781 35.5987 43.5024 35.659 43.5383 35.7139 43.5838 35.7603 43.6294 35.8067 43.6836 35.8437 43.7434 35.869 43.8032 35.8945 43.8674 35.9079 43.9324 35.9085L64.5692 35.9085C64.6344 35.9085 64.6991 35.8955 64.7597 35.8704 64.8198 35.8452 64.8749 35.8084 64.9207 35.7619 64.9669 35.7155 65.003 35.6604 65.0275 35.5998 65.0525 35.5392 65.0645 35.4744 65.064 35.409L65.0687 35.4136ZM65.0687 45.7736 65.0687 41.625C65.0687 41.4937 65.0164 41.3679 64.9239 41.2751 64.8309 41.1823 64.7051 41.1301 64.5738 41.1301L43.937 41.1301C43.8709 41.1283 43.805 41.1397 43.7434 41.1637 43.6817 41.1878 43.6255 41.2239 43.5781 41.2701 43.5307 41.3162 43.493 41.3714 43.4672 41.4324 43.4415 41.4933 43.4283 41.5588 43.4283 41.625L43.4283 45.7875C43.4277 45.8525 43.4399 45.917 43.4642 45.9772 43.4885 46.0375 43.5244 46.0924 43.57 46.1388 43.6155 46.1852 43.6697 46.2222 43.7295 46.2475 43.7893 46.2731 43.8536 46.2865 43.9185 46.287L64.5553 46.287C64.6871 46.2856 64.8129 46.2326 64.9054 46.1391 64.9984 46.0455 65.0502 45.9192 65.0502 45.7875L65.0687 45.7736ZM39.3953 56.1475 39.3953 51.985C39.3959 51.9198 39.3837 51.8555 39.3594 51.7954 39.3351 51.7348 39.2991 51.6802 39.2536 51.6335 39.2081 51.5872 39.1539 51.5503 39.0941 51.5248 39.0343 51.4994 38.97 51.486 38.905 51.4855L34.7425 51.4855C34.6104 51.4869 34.4841 51.5396 34.3907 51.633 34.2973 51.7265 34.2442 51.8527 34.243 51.985L34.243 56.1475C34.2443 56.2793 34.2974 56.4051 34.391 56.4976 34.4845 56.5906 34.6109 56.6424 34.7425 56.6424L38.905 56.6424C39.0363 56.6424 39.1622 56.5901 39.255 56.4976 39.3478 56.4046 39.3999 56.2789 39.3999 56.1475L39.3953 56.1475ZM65.0502 56.1475 65.0502 51.985C65.0502 51.8532 64.9984 51.7269 64.9054 51.6335 64.8129 51.5401 64.6871 51.4869 64.5553 51.4855L43.937 51.4855C43.8058 51.4855 43.6799 51.5378 43.5871 51.6303 43.4943 51.7232 43.4422 51.849 43.4422 51.9804L43.4422 56.1429C43.4416 56.2076 43.4538 56.2719 43.4781 56.332 43.5025 56.3917 43.5385 56.4467 43.5841 56.4925 43.6297 56.5383 43.684 56.5748 43.7438 56.5998 43.8035 56.6248 43.8677 56.6378 43.9324 56.6378L64.5692 56.6378C64.7005 56.6378 64.8263 56.5855 64.9193 56.493 65.0118 56.4 65.064 56.2742 65.064 56.1429L65.0502 56.1475Z" fill="#76BC2D"/><path d="M0.406494 17.9866 24.66 17.9866 24.66 14.5271C24.6596 13.4774 24.9728 12.4515 25.5594 11.581 26.1461 10.7106 26.9794 10.0352 27.9525 9.64155 28.9256 9.24796 29.9941 9.15403 31.021 9.37187 32.0479 9.58971 32.9862 10.1093 33.7157 10.8641L45.7407 22.8891C46.8809 24.0189 47.526 25.5549 47.5348 27.16 47.5436 28.765 46.9146 30.3079 45.787 31.45L33.651 43.5721C32.9165 44.309 31.9802 44.8117 30.9602 45.0167 29.9402 45.2216 28.8823 45.1197 27.9202 44.7238 26.9582 44.3279 26.135 43.6557 25.5547 42.7922 24.9744 41.9286 24.6631 40.9125 24.66 39.8721L24.66 36.3941 0.406494 36.3941 0.406494 17.9866Z" fill="#FFFFFF"/><path d="M30.3862 14.0693 42.4806 26.1636C42.7509 26.4342 42.9027 26.801 42.9027 27.1834 42.9027 27.5659 42.7509 27.9327 42.4806 28.2033L30.3862 40.3022C30.296 40.3938 30.1804 40.4562 30.0544 40.4815 29.9284 40.5067 29.7977 40.4935 29.6792 40.4438 29.5607 40.394 29.4599 40.3098 29.3897 40.2022 29.3195 40.0945 29.2832 39.9683 29.2855 39.8398L29.2855 32.412C29.2855 32.2403 29.2172 32.0756 29.0958 31.9542 28.9744 31.8327 28.8097 31.7645 28.638 31.7645L3.45019 31.7645C3.31526 31.7645 3.18586 31.7109 3.09045 31.6155 2.99504 31.5201 2.94144 31.3907 2.94144 31.2557L2.94144 23.125C2.94144 23.0582 2.9546 22.992 2.98017 22.9303 3.00573 22.8686 3.0432 22.8125 3.09045 22.7653 3.13769 22.718 3.19377 22.6805 3.2555 22.655 3.31722 22.6294 3.38338 22.6162 3.45019 22.6162L28.638 22.6162C28.8073 22.6163 28.9699 22.55 29.091 22.4315 29.212 22.3131 29.2818 22.1519 29.2855 21.9826L29.2855 14.5225C29.2842 14.4375 29.2999 14.3531 29.3318 14.2743 29.3636 14.1955 29.4108 14.1239 29.4707 14.0636 29.5306 14.0033 29.6019 13.9555 29.6805 13.9231 29.7591 13.8907 29.8433 13.8744 29.9283 13.875 30.1004 13.8777 30.2647 13.9474 30.3862 14.0693Z" fill="url(#fill2)"/></g></svg>