<svg width="70" height="74" xmlns="http://www.w3.org/2000/svg" xmlns:xlink="http://www.w3.org/1999/xlink" xml:space="preserve" overflow="hidden"><defs><linearGradient x1="24.7288" y1="52.3829" x2="24.7288" y2="23.1921" gradientUnits="userSpaceOnUse" spreadMethod="pad" id="fill0"><stop offset="0" stop-color="#341A6E"/><stop offset="0.356" stop-color="#552F99"/><stop offset="1" stop-color="#A67AF4"/></linearGradient></defs><g><path d="M61.6159 9.55431 41.3093 9.55431C40.0471 9.55431 39.024 10.5775 39.024 11.8396L39.024 32.1461C39.024 33.4082 40.0471 34.4314 41.3093 34.4314L61.6159 34.4314C62.8778 34.4314 63.9012 33.4082 63.9012 32.1461L63.9012 11.8396C63.9012 10.5775 62.8778 9.55431 61.6159 9.55431Z" fill="#B796F9" transform="scale(1.00507 1)"/><path d="M61.6159 41.1436 41.3093 41.1436C40.0471 41.1436 39.024 42.1668 39.024 43.4289L39.024 63.7353C39.024 64.9977 40.0471 66.0206 41.3093 66.0206L61.6159 66.0206C62.8778 66.0206 63.9012 64.9977 63.9012 63.7353L63.9012 43.4289C63.9012 42.1668 62.8778 41.1436 61.6159 41.1436Z" fill="#B796F9" transform="scale(1.00507 1)"/><path d="M41.0306 23.1921 8.42708 23.1921C6.94616 23.1921 5.74566 24.3926 5.74566 25.8735L5.74566 49.7014C5.74566 51.1823 6.94616 52.3829 8.42708 52.3829L41.0306 52.3829C42.5115 52.3829 43.7118 51.1823 43.7118 49.7014L43.7118 25.8735C43.7118 24.3926 42.5115 23.1921 41.0306 23.1921Z" fill="url(#fill0)" transform="scale(1.00507 1)"/><path d="M51.6211 48.7046 49.6971 50.6286 49.0572 51.2467 49.0311 51.2467C47.9059 49.738 46.677 48.3098 45.3529 46.9722 41.2912 42.9236 36.4095 39.7918 31.0363 37.7875 36.4098 35.7761 41.2902 32.6368 45.3485 28.581 46.6757 27.2448 47.9063 25.8164 49.0311 24.3064L49.0572 24.3282 49.6971 24.9463 51.6211 26.8703C52.5831 27.8323 53.0532 27.6756 53.0532 26.3741L53.4145 17.4331C53.4354 17.3239 53.4345 17.2117 53.4119 17.1029 53.3893 16.9941 53.3453 16.8908 53.2826 16.799 53.2199 16.7072 53.1398 16.6286 53.0467 16.5679 52.9535 16.5072 52.8495 16.4654 52.7398 16.445 52.6362 16.4276 52.5304 16.4276 52.4264 16.445L43.0417 16.5756C42.0057 16.5756 41.7358 17.1981 42.5498 18.0077L44.6303 20.0841 45.1831 20.6151 45.2353 20.6674C44.1536 22.1637 42.9573 23.5739 41.6574 24.8854 38.4137 28.1473 34.5571 30.7357 30.3094 32.5017 26.0617 34.2677 21.5068 35.1765 16.9066 35.1757L5.74566 35.1757 5.74566 40.3993 16.9066 40.3993C21.5074 40.3989 26.0628 41.3078 30.3112 43.0738 34.5595 44.8396 38.417 47.4279 41.6618 50.6896 42.9607 52.0007 44.1558 53.411 45.2353 54.9076L45.1831 54.9598 44.6303 55.4909 42.5498 57.5672C41.7445 58.3725 42.0057 58.9993 43.0417 58.9993L52.4264 59.1299C52.5304 59.1473 52.6362 59.1473 52.7398 59.1299 52.8495 59.1095 52.9535 59.0677 53.0467 59.0072 53.1398 58.9462 53.2199 58.8679 53.2826 58.776 53.3453 58.6842 53.3893 58.581 53.4119 58.4722 53.4345 58.3634 53.4354 58.2511 53.4145 58.1418L53.0532 49.1965C53.0532 47.8993 52.5831 47.7426 51.6211 48.7046Z" fill="#FFFFFF" transform="scale(1.00507 1)"/></g></svg>