<svg width="104" height="98" xmlns="http://www.w3.org/2000/svg" xmlns:xlink="http://www.w3.org/1999/xlink" xml:space="preserve" overflow="hidden"><defs><linearGradient x1="79.7753" y1="106.025" x2="79.7753" y2="30.992" gradientUnits="userSpaceOnUse" spreadMethod="pad" id="fill0"><stop offset="0" stop-color="#365615"/><stop offset="0.087" stop-color="#365615"/><stop offset="0.455" stop-color="#5E9624"/><stop offset="0.841" stop-color="#76BC2D"/><stop offset="1" stop-color="#76BC2D"/></linearGradient><linearGradient x1="249.086" y1="209.898" x2="249.086" y2="0.780043" gradientUnits="userSpaceOnUse" spreadMethod="pad" id="fill1"><stop offset="0" stop-color="#365615"/><stop offset="0.087" stop-color="#365615"/><stop offset="0.455" stop-color="#5E9624"/><stop offset="0.841" stop-color="#76BC2D"/><stop offset="1" stop-color="#76BC2D"/></linearGradient></defs><g><path d="M43.3508 7.11482 43.3508 46.8795C43.4146 47.9954 43.0351 49.0912 42.295 49.9287 41.5549 50.7662 40.5141 51.2776 39.3989 51.3515L22.4224 51.3515C21.3072 51.2776 20.2663 50.7662 19.5262 49.9287 18.7861 49.0912 18.4067 47.9954 18.4704 46.8795L18.4704 7.11482C18.4067 5.999 18.7861 4.90313 19.5262 4.06565 20.2663 3.22816 21.3072 2.7168 22.4224 2.64282L39.3989 2.64282C40.5141 2.7168 41.5549 3.22816 42.295 4.06565 43.0351 4.90313 43.4146 5.999 43.3508 7.11482Z" fill="#B4EC36" transform="scale(1 1.0012)"/><path d="M88.2666 52.2019 71.2902 52.2019C69.1074 52.2019 67.3382 53.9712 67.3382 56.1539L67.3382 91.2875C67.3382 93.4703 69.1074 95.2395 71.2902 95.2395L88.2666 95.2395C90.4494 95.2395 92.2186 93.4703 92.2186 91.2875L92.2186 56.1539C92.2186 53.9712 90.4494 52.2019 88.2666 52.2019Z" fill="url(#fill0)" transform="scale(1 1.0012)"/><path d="M50.7902 39.4344 11.0316 39.4344C9.91677 39.4964 8.8225 39.1162 7.98634 38.3762 7.15018 37.6363 6.63973 36.5964 6.5657 35.4824L6.5657 18.5059C6.63973 17.3907 7.15104 16.3498 7.98855 15.6097 8.82605 14.8696 9.92191 14.4901 11.0377 14.5539L50.8024 14.5539C51.9183 14.4901 53.0141 14.8696 53.8516 15.6097 54.6891 16.3498 55.2005 17.3907 55.2744 18.5059L55.2744 35.4824C55.2005 36.5998 54.6874 37.6426 53.8472 38.383 53.0071 39.1235 51.9081 39.5015 50.7902 39.4344Z" fill="url(#fill1)" transform="scale(1 1.0012)"/><path d="M61.3 77.6452C61.2175 77.5222 61.1113 77.4164 60.9884 77.3332L51.5366 68.1567C50.5027 67.1228 49.6218 67.4838 49.6218 69.0866L49.6218 73.216 49.6218 74.2927 49.6218 74.4212 34.5785 74.4212 34.5785 58.8334 27.2434 58.8334 27.2434 81.7501 49.7992 81.7501 49.7992 81.8174 49.7992 83.0409 49.7992 86.8706C49.7992 88.7854 50.4109 89.0913 51.7079 87.8005L61.0128 79.2969C61.2695 79.1159 61.4444 78.84 61.4983 78.5304 61.5521 78.2208 61.4811 77.9027 61.3 77.6452Z" fill="#999999" transform="scale(1 1.0012)"/></g></svg>