<svg width="79" height="79" xmlns="http://www.w3.org/2000/svg" xmlns:xlink="http://www.w3.org/1999/xlink" xml:space="preserve" overflow="hidden"><defs><linearGradient x1="57.6119" y1="59.415" x2="57.6119" y2="21.2627" gradientUnits="userSpaceOnUse" spreadMethod="pad" id="fill0"><stop offset="0" stop-color="#341A6E"/><stop offset="0.356" stop-color="#552F99"/><stop offset="1" stop-color="#A67AF4"/></linearGradient></defs><g><g><path d="M25.4239 15.7994 3.36187 37.8614C1.99171 39.2316 1.99171 41.4531 3.36187 42.8233L25.4239 64.885C26.794 66.2554 29.0155 66.2554 30.3857 64.885L52.4476 42.8233C53.8176 41.4531 53.8176 39.2316 52.4476 37.8614L30.3857 15.7994C29.0155 14.4293 26.794 14.4293 25.4239 15.7994Z" fill="#B796F9"/><path d="M55.7582 22.0305 39.2988 38.4899C38.277 39.5116 38.277 41.1681 39.2987 42.1899L55.7582 58.6491C56.7801 59.671 58.4363 59.671 59.4582 58.6491L75.9176 42.1899C76.9395 41.1681 76.9395 39.5116 75.9176 38.4899L59.4582 22.0305C58.4363 21.0087 56.7801 21.0087 55.7582 22.0305Z" fill="url(#fill0)"/><path d="M8.60849 61.2524C7.99629 61.245 7.41178 60.9964 6.98202 60.56 6.7223 60.3323 6.51257 60.0535 6.36619 59.7407 6.21981 59.428 6.13993 59.0883 6.13161 58.743 6.13045 58.4368 6.18979 58.1338 6.30625 57.8503 6.42265 57.5673 6.5939 57.3099 6.81008 57.0933L14.5103 49.3699C12.6869 47.2081 11.6565 44.488 11.5899 41.6605 11.5231 38.8331 12.4241 36.0675 14.1435 33.8219 15.8628 31.5763 18.2976 29.9852 21.0446 29.3121 23.7916 28.639 26.6861 28.9242 29.2489 30.1205 31.8117 31.3168 33.8891 33.3525 35.1371 35.8905 36.3852 38.4285 36.7291 41.3166 36.1118 44.0767 35.4945 46.8368 33.9532 49.3034 31.7429 51.0679 29.5326 52.8324 26.786 53.7892 23.9577 53.7799 22.0251 53.7758 20.1213 53.3106 18.4045 52.423L10.2582 60.56C10.0426 60.7789 9.78582 60.9527 9.50268 61.0712 9.21949 61.1901 8.91557 61.252 8.60849 61.2524ZM23.9438 32.1898C22.1995 32.1838 20.4917 32.6897 19.0322 33.645 17.5726 34.6002 16.4254 35.9628 15.7328 37.5637 15.0402 39.1646 14.8326 40.9336 15.1357 42.6515 15.4387 44.3693 16.2392 45.9604 17.4379 47.2276 18.2724 48.1184 19.2797 48.8294 20.3983 49.3174 21.5169 49.8058 22.7233 50.0609 23.9438 50.0669 25.1348 50.0944 26.3192 49.8829 27.4274 49.4461 28.5357 49.0088 29.5454 48.355 30.3973 47.5222 31.2492 46.6895 31.9262 45.695 32.3883 44.5969 32.8505 43.4989 33.0885 42.3197 33.0885 41.1284 33.0885 39.9371 32.8505 38.7578 32.3883 37.6598 31.9262 36.5618 31.2492 35.5672 30.3973 34.7345 29.5454 33.9018 28.5357 33.2478 27.4274 32.8107 26.3192 32.3737 25.1348 32.1626 23.9438 32.1898Z" fill="#552F99"/></g></g></svg>