<svg width="66" height="66" xmlns="http://www.w3.org/2000/svg" xmlns:xlink="http://www.w3.org/1999/xlink" xml:space="preserve" overflow="hidden"><defs><linearGradient x1="43.8364" y1="-0.697125" x2="43.8364" y2="49.2071" gradientUnits="userSpaceOnUse" spreadMethod="pad" id="fill0"><stop offset="0" stop-color="#76BC2D"/><stop offset="0.461" stop-color="#5E9624"/><stop offset="1" stop-color="#365615"/></linearGradient></defs><g><path d="M43.8364 45.3997C55.9676 45.3997 65.802 35.5654 65.802 23.4341 65.802 11.3028 55.9676 1.4685 43.8364 1.4685 31.7051 1.4685 21.8708 11.3028 21.8708 23.4341 21.8708 35.5654 31.7051 45.3997 43.8364 45.3997Z" fill="url(#fill0)"/><path d="M58.4471 19.2761 51.2861 12.309C50.5189 11.5376 49.8424 11.8016 49.8424 13.0144L49.8424 16.1411C49.8432 16.2544 49.8213 16.3666 49.7784 16.4714 49.7355 16.5761 49.6728 16.6715 49.5928 16.752 49.5132 16.8324 49.4187 16.8963 49.314 16.9402 49.2096 16.984 49.0978 17.0068 48.9844 17.0074L48.939 17.0074C44.3273 17.0074 31.445 18.2201 30.9748 35.838 30.9737 35.9562 30.9961 36.0735 31.0405 36.1831 31.0851 36.2927 31.1508 36.3923 31.234 36.4763 31.3173 36.5603 31.4163 36.6269 31.5255 36.6724 31.6346 36.7179 31.7517 36.7414 31.8699 36.7414L36.4569 36.7414C36.5754 36.7419 36.6927 36.7191 36.8023 36.6741 36.9119 36.6292 37.0115 36.563 37.0955 36.4794 37.1794 36.3959 37.246 36.2966 37.2914 36.1872 37.3369 36.0778 37.3603 35.9606 37.3603 35.8421L37.3603 35.7638C36.998 34.0898 37.0382 32.3537 37.4776 30.6984 37.9171 29.043 38.7433 27.5156 39.8883 26.2418 41.0331 24.968 42.464 23.9842 44.0633 23.3713 45.6629 22.7584 47.3847 22.534 49.0875 22.7164 49.3263 22.7186 49.5545 22.8145 49.7227 22.9836 49.891 23.1527 49.9859 23.3812 49.9868 23.6197L49.9868 26.5072C49.9868 27.9551 50.457 28.1903 51.4346 27.2126L58.4471 20.7529C58.6422 20.6198 58.7767 20.4152 58.8217 20.1834 58.8666 19.9516 58.818 19.7115 58.6864 19.5154 58.6212 19.4226 58.5399 19.3417 58.4471 19.2761Z" fill="#FFFFFF"/><path d="M22.5805 64.0406C34.6525 64.0406 44.4386 54.2545 44.4386 42.1823 44.4386 30.1102 34.6525 20.3239 22.5805 20.3239 10.5084 20.3239 0.722077 30.1102 0.722077 42.1823 0.722077 54.2545 10.5084 64.0406 22.5805 64.0406Z" fill="#5E9624"/><path d="M44.9217 41.4439 44.8887 41.4439C44.6952 35.5837 42.2062 30.0343 37.9585 25.9922 33.711 21.9501 28.0451 19.7392 22.1824 19.8361 16.3198 19.9329 10.73 22.3299 6.61836 26.51 2.50667 30.6902 0.202423 36.3188 0.202423 42.1823 0.202423 48.0455 2.50667 53.6741 6.61836 57.8544 10.73 62.0346 16.3198 64.4317 22.1824 64.5286 28.0451 64.6251 33.711 62.4146 37.9585 58.3725 42.2062 54.3304 44.6952 48.781 44.8887 42.9206L44.9217 42.9206 44.9217 41.4439ZM35.6487 41.4439C35.6333 38.2574 35.0248 35.1016 33.8543 32.1379L40.7637 32.1379C42.3605 34.9889 43.2568 38.1785 43.3789 41.4439L35.6487 41.4439ZM1.75772 42.9206 9.79733 42.9206C9.82736 46.1117 10.4527 49.269 11.6412 52.2307L4.38945 52.2307C2.79078 49.3787 1.89297 46.1876 1.7701 42.9206L1.75772 42.9206ZM31.565 30.6653 23.315 30.6653 23.315 22.308C26.7276 24.3511 29.5661 27.2265 31.565 30.6653ZM21.8423 30.6653 14.1203 30.6653C16.0924 27.5333 18.7373 24.8799 21.863 22.8979L21.8423 30.6653ZM21.8423 32.1379 21.8423 41.4439 11.2782 41.4439C11.3021 38.2262 12.0212 35.0518 13.3861 32.1379L21.8423 32.1379ZM9.7932 41.4439 1.7701 41.4439C1.89236 38.1785 2.78872 34.9889 4.38533 32.1379L11.7608 32.1379C10.491 35.0776 9.822 38.2417 9.7932 41.4439ZM11.27 42.9206 21.8341 42.9206 21.8341 52.2307 13.2995 52.2307C11.9987 49.2971 11.3082 46.1295 11.27 42.9206ZM21.8341 53.7034 21.8341 61.9534C18.602 59.8665 15.915 57.038 13.9966 53.7034L21.8341 53.7034ZM23.3108 53.7034 31.4371 53.7034C29.4565 57.1411 26.6671 60.0439 23.3108 62.1596L23.3108 53.7034ZM23.3108 52.2307 23.3108 42.9206 34.1926 42.9206C34.1561 46.1282 33.4699 49.2954 32.1755 52.2307L23.3108 52.2307ZM23.3108 41.4439 23.3108 32.1379 32.2497 32.1379C33.5084 35.0796 34.1635 38.2442 34.1761 41.4439L23.3108 41.4439ZM39.9717 30.6653 33.1613 30.6653C31.201 26.9371 28.3019 23.7849 24.7505 21.5201 27.8056 21.8276 30.7549 22.807 33.3871 24.388 36.0193 25.969 38.2693 28.1126 39.9758 30.6653L39.9717 30.6653ZM21.4092 21.4129C17.7184 23.711 14.6567 26.8905 12.4992 30.6653L5.18558 30.6653C6.98408 27.9668 9.38751 25.7252 12.2047 24.119 15.0219 22.5127 18.1751 21.5861 21.4133 21.4129L21.4092 21.4129ZM5.1897 53.7034 12.3755 53.7034C14.2937 57.3891 17.1009 60.5377 20.543 62.865 17.4644 62.5725 14.4895 61.599 11.8339 60.0142 9.17837 58.4298 6.9088 56.2741 5.1897 53.7034ZM24.9526 62.8279C28.3846 60.5096 31.1858 57.3742 33.1036 53.7034L39.9758 53.7034C38.2864 56.2258 36.0667 58.3489 33.472 59.9247 30.8772 61.5009 27.9698 62.4917 24.9526 62.8279ZM40.772 52.2307 33.8255 52.2307C35.0183 49.2702 35.6438 46.1121 35.6693 42.9206L43.3913 42.9206C43.2696 46.188 42.3716 49.3791 40.772 52.2307Z" fill="#B4EC36"/></g></svg>