<svg width="66" height="66" xmlns="http://www.w3.org/2000/svg" xmlns:xlink="http://www.w3.org/1999/xlink" xml:space="preserve" overflow="hidden"><defs><linearGradient x1="31.3468" y1="64.3539" x2="31.3468" y2="6.48733" gradientUnits="userSpaceOnUse" spreadMethod="pad" id="fill0"><stop offset="0" stop-color="#F78D1E"/><stop offset="0.432" stop-color="#FAA21D"/><stop offset="0.76" stop-color="#FFB34D"/><stop offset="1" stop-color="#FFB34D"/></linearGradient></defs><g><path d="M31.3468 8.36639C18.6748 8.36639 8.40211 11.9459 8.40211 16.6707 8.40739 17.0086 8.46368 17.3436 8.56905 17.6646 8.6031 17.7715 8.64596 17.8754 8.69717 17.9752 8.90693 18.4703 9.19974 18.9259 9.56293 19.3224L17.7586 30.2357C18.6476 31.4237 20.088 33.3416 20.9887 34.549L25.5621 40.6482C25.6903 40.8183 25.7598 41.0252 25.7601 41.2383L25.7601 54.4733C25.7601 55.5836 28.2254 56.4844 31.2886 56.4999L31.3468 56.4999C34.4527 56.4999 36.9529 55.6264 36.9529 54.4733L36.9529 41.2383C36.9532 41.0252 37.0227 40.8183 37.1509 40.6482L41.7244 34.549C42.6096 33.361 44.0538 31.4237 44.9545 30.2357L53.2511 19.171 53.3055 19.0972 53.6937 18.5537C53.7209 18.5149 53.7209 18.4838 53.7481 18.4489 53.8102 18.3402 53.8568 18.2315 53.9072 18.1227 53.9911 17.9756 54.0575 17.8193 54.1052 17.6569 54.2101 17.3411 54.2664 17.0112 54.2722 16.6785 54.2916 11.9537 44.0189 8.36639 31.3468 8.36639Z" fill="url(#fill0)"/><path d="M45.9212 18.973C47.8391 18.1266 48.9611 17.1017 48.9611 15.9991 48.9611 13.099 41.0528 10.7346 31.347 10.7346 21.6411 10.7346 13.7328 13.064 13.7328 15.9991 13.7328 17.0978 14.847 18.1189 16.7494 18.9652 21.4262 17.2827 26.3792 16.5002 31.347 16.6591 36.3076 16.5048 41.2527 17.2899 45.9212 18.973Z" fill="#FFFFFF"/><path d="M45.9212 18.973C41.2523 17.2899 36.3075 16.5048 31.3469 16.6591 26.3792 16.5002 21.4262 17.2827 16.7493 18.9652 21.4227 20.6629 26.3772 21.4535 31.3469 21.2946 36.3084 21.4528 41.2547 20.6649 45.9212 18.973Z" fill="#D15900"/></g></svg>