<svg width="74" height="70" xmlns="http://www.w3.org/2000/svg" xmlns:xlink="http://www.w3.org/1999/xlink" xml:space="preserve" overflow="hidden"><defs><linearGradient x1="35.7059" y1="57.7683" x2="35.7059" y2="18.2827" gradientUnits="userSpaceOnUse" spreadMethod="pad" id="fill0"><stop offset="0" stop-color="#258277"/><stop offset="1" stop-color="#37C2B1"/></linearGradient></defs><g><path d="M57.9276 7.60489 13.4885 7.60489C10.7262 7.60489 8.48697 9.84418 8.48697 12.6064L8.48697 57.0457C8.48697 59.8077 10.7262 62.0473 13.4885 62.0473L57.9276 62.0473C60.69 62.0473 62.9292 59.8077 62.9292 57.0457L62.9292 12.6064C62.9292 9.84418 60.69 7.60489 57.9276 7.60489Z" fill="#42E8CA" transform="scale(1 1.00507)"/><path d="M57.9276 40.0256 13.4885 40.0256C10.7262 40.0256 8.48697 42.2648 8.48697 45.0273L8.48697 57.0414C8.48697 59.8033 10.7262 62.0429 13.4885 62.0429L57.9276 62.0429C60.69 62.0429 62.9292 59.8033 62.9292 57.0414L62.9292 45.0273C62.9292 42.2648 60.69 40.0256 57.9276 40.0256Z" fill="url(#fill0)" transform="scale(1 1.00507)"/><path d="M32.9504 7.60489 32.9504 26.266C32.9504 26.353 33.0288 26.4096 33.0462 26.4967L32.1538 26.4967 29.4332 26.4967C28.0751 26.4967 27.8531 26.9319 28.7716 27.8548L34.8352 34.4538C34.8973 34.5462 34.9771 34.6253 35.07 34.6865 35.163 34.7477 35.2671 34.7899 35.3765 34.8106 35.4858 34.8312 35.5982 34.8299 35.707 34.8068 35.8159 34.7837 35.919 34.7392 36.0105 34.6758 36.098 34.6167 36.1734 34.5413 36.2325 34.4538L42.7619 27.7285C43.4976 26.9929 43.2408 26.3661 42.1003 26.3661L39.1882 26.3661 38.4264 26.3661C38.4264 26.3182 38.4743 26.2921 38.4743 26.2485L38.4743 7.60489" fill="#258277" transform="scale(1 1.00507)"/></g></svg>