<svg width="85" height="80" xmlns="http://www.w3.org/2000/svg" xmlns:xlink="http://www.w3.org/1999/xlink" xml:space="preserve" overflow="hidden"><defs><linearGradient x1="30.9843" y1="72.23" x2="30.9843" y2="-4.17" gradientUnits="userSpaceOnUse" spreadMethod="pad" id="fill0"><stop offset="0" stop-color="#32BEDD"/><stop offset="0.12" stop-color="#32BEDD"/><stop offset="1" stop-color="#50E6FF"/></linearGradient><linearGradient x1="60.6245" y1="80" x2="60.6245" y2="27.105" gradientUnits="userSpaceOnUse" spreadMethod="pad" id="fill1"><stop offset="0" stop-color="#198AB3"/><stop offset="0.021" stop-color="#198AB3"/><stop offset="0.367" stop-color="#198AB3"/><stop offset="0.85" stop-color="#32BEDD"/><stop offset="1" stop-color="#32BEDD"/></linearGradient></defs><g><g><path d="M55.4095 0 6.56435 0C3.52953 0 1.06933 2.4602 1.06933 5.495L1.06933 54.34C1.06933 57.375 3.52953 59.835 6.56435 59.835L55.4095 59.835C58.444 59.835 60.9045 57.375 60.9045 54.34L60.9045 5.495C60.9045 2.4602 58.444 0 55.4095 0Z" fill="url(#fill0)"/><path d="M49.4546 22.1149 38.7896 22.1149C38.2366 22.1149 37.7063 22.3347 37.3153 22.7256 36.9243 23.1166 36.7046 23.647 36.7046 24.2L36.7046 27.155 25.2645 15.715 25.2645 12C25.2645 11.4483 25.0455 10.9193 24.6553 10.5292 24.2653 10.1391 23.7362 9.91995 23.1845 9.91995L12.5196 9.91995C11.9675 9.91995 11.4379 10.139 11.047 10.5289 10.6562 10.9188 10.4359 11.4479 10.4346 12L10.4346 22.655C10.4346 23.208 10.6543 23.7383 11.0452 24.1293 11.4363 24.5203 11.9666 24.74 12.5196 24.74L23.1845 24.74C23.7367 24.7387 24.2657 24.5184 24.6556 24.1275 25.0456 23.7367 25.2645 23.2071 25.2645 22.655L25.2645 22.24 33.2645 30.2399 25.2645 38.24 25.2645 37.18C25.2645 36.6278 25.0456 36.0983 24.6556 35.7074 24.2657 35.3166 23.7367 35.0963 23.1845 35.095L12.5196 35.095C11.9666 35.095 11.4363 35.3147 11.0452 35.7057 10.6543 36.0966 10.4346 36.627 10.4346 37.18L10.4346 47.8449C10.4359 48.3971 10.6562 48.9261 11.047 49.316 11.4379 49.706 11.9675 49.9249 12.5196 49.9249L23.1845 49.9249C23.7362 49.9249 24.2653 49.7058 24.6553 49.3158 25.0455 48.9256 25.2645 48.3966 25.2645 47.8449L25.2645 44.7899 36.7046 33.3499 36.7046 34.8499C36.7059 35.4021 36.9262 35.9311 37.317 36.3211 37.7079 36.711 38.2374 36.93 38.7896 36.93L49.4546 36.93C49.7277 36.93 49.9982 36.8761 50.2505 36.7717 50.503 36.6671 50.732 36.5139 50.9255 36.3208 51.1185 36.1276 51.2715 35.8983 51.376 35.646 51.481 35.3936 51.5345 35.1231 51.5345 34.8499L51.5345 24.2C51.5345 23.6479 51.3155 23.1183 50.9255 22.7274 50.5355 22.3365 50.0065 22.1163 49.4546 22.1149Z" fill="#198AB3"/><path d="M60.6245 80C71.913 80 81.0645 70.8485 81.0645 59.56 81.0645 48.2713 71.913 39.12 60.6245 39.12 49.3357 39.12 40.1843 48.2713 40.1843 59.56 40.1843 70.8485 49.3357 80 60.6245 80Z" fill="url(#fill1)"/><path d="M53.5645 51.055 53.5645 68.055C53.5615 68.296 53.623 68.5335 53.742 68.743 53.8615 68.952 54.0345 69.126 54.2435 69.246 54.4525 69.3665 54.6895 69.429 54.9305 69.427 55.1715 69.425 55.4075 69.3585 55.6145 69.235L70.4845 60.735C70.639 60.6465 70.774 60.528 70.883 60.3875 70.9915 60.2465 71.0715 60.0855 71.1175 59.9135 71.164 59.742 71.1765 59.5625 71.1535 59.386 71.1305 59.2095 71.073 59.0395 70.9845 58.885 70.8635 58.6785 70.6915 58.506 70.4845 58.385L55.6145 49.885C55.3015 49.7055 54.93 49.6573 54.5815 49.751 54.233 49.8447 53.9355 50.0725 53.7545 50.385 53.635 50.5885 53.5695 50.819 53.5645 51.055Z" fill="#FFFFFF"/></g></g></svg>