<svg width="115" height="115" xmlns="http://www.w3.org/2000/svg" xmlns:xlink="http://www.w3.org/1999/xlink" xml:space="preserve" overflow="hidden"><defs><linearGradient x1="71.5205" y1="81.4058" x2="71.5205" y2="36.0417" gradientUnits="userSpaceOnUse" spreadMethod="pad" id="fill0"><stop offset="0" stop-color="#341A6E"/><stop offset="0.356" stop-color="#552F99"/><stop offset="1" stop-color="#A67AF4"/></linearGradient></defs><g><path d="M49.305 49.1585 49.305 18.3994C49.305 17.4575 48.9309 16.5541 48.2648 15.8881 47.5988 15.2221 46.6955 14.8479 45.7536 14.8479L31.6627 14.8479C31.5477 16.0047 31.3718 17.1547 31.3718 18.3182 31.3921 24.5803 33.0599 30.7269 36.2077 36.1403 39.3556 41.5538 43.8726 46.0435 49.305 49.1585Z" fill="#B796F9"/><path d="M23.2544 18.3182C23.2544 17.1547 23.4506 16.0114 23.5385 14.8479L14.1965 14.8479C13.2546 14.8479 12.3512 15.2221 11.6852 15.8881 11.0192 16.5541 10.645 17.4575 10.645 18.3994L10.645 49.9297C10.645 50.396 10.7369 50.8579 10.9153 51.2888 11.0938 51.7196 11.3554 52.1112 11.6852 52.4409 12.015 52.7707 12.4065 53.0323 12.8374 53.2108 13.2683 53.3893 13.7301 53.4812 14.1965 53.4812L41.1606 53.4812C35.628 49.4344 31.1247 44.1433 28.0141 38.0351 24.9037 31.9268 23.2732 25.1728 23.2544 18.3182Z" fill="#B796F9"/><path d="M31.3718 98.0605C31.4033 99.5798 31.5299 101.096 31.7506 102.6L45.7536 102.6C46.6955 102.6 47.5988 102.226 48.2648 101.559 48.9309 100.894 49.305 99.9898 49.305 99.0481L49.305 67.5179C49.305 67.43 49.2577 67.3556 49.2509 67.2744 43.837 70.3922 39.3363 74.8765 36.1988 80.2788 33.0612 85.6818 31.3968 91.8133 31.3718 98.0605Z" fill="#B796F9"/><path d="M39.7333 63.9394 14.1965 63.9394C13.7279 63.9394 13.2638 64.0321 12.8312 64.2123 12.3986 64.3924 12.0058 64.6564 11.6757 64.9891 11.3456 65.3218 11.0845 65.7165 10.9076 66.1505 10.7308 66.5845 10.6416 67.0493 10.6451 67.5179L10.6451 99.0752C10.6451 100.017 11.0193 100.921 11.6853 101.586 12.0151 101.916 12.4066 102.178 12.8374 102.356 13.2684 102.535 13.7302 102.627 14.1965 102.627L23.6671 102.627C23.4637 101.121 23.3373 99.6062 23.2883 98.0876 23.2905 91.5265 24.7698 85.0499 27.6167 79.1383 30.4636 73.2266 34.6049 68.032 39.7333 63.9394Z" fill="#B796F9"/><path d="M96.8611 36.0417 46.1938 36.0417C43.8924 36.0417 42.0267 37.9074 42.0267 40.2088L42.0267 77.2387C42.0267 79.5401 43.8924 81.4058 46.1938 81.4058L96.8611 81.4058C99.1631 81.4058 101.028 79.5401 101.028 77.2387L101.028 40.2088C101.028 37.9074 99.1631 36.0417 96.8611 36.0417Z" fill="url(#fill0)"/><path d="M82.8386 57.7632C82.7445 57.6288 82.6275 57.512 82.4936 57.4182L72.0691 47.2238C70.9327 46.0806 69.9586 46.4797 69.9586 48.252L69.9586 52.825 69.9586 53.9412C69.0386 54.0156 68.1253 54.1035 67.1983 54.1035 60.9023 54.0668 54.7301 52.3504 49.3192 49.1314L49.3192 49.9297C49.3192 50.396 49.2273 50.8579 49.0488 51.2888 48.8703 51.7196 48.6087 52.1112 48.279 52.4409 47.9492 52.7707 47.5576 53.0323 47.1268 53.2108 46.6959 53.3893 46.2341 53.4812 45.7677 53.4812L41.1609 53.4812C43.5581 55.3001 46.1354 56.8686 48.8524 58.1623 45.5905 59.7015 42.5284 61.6324 39.7336 63.9123L45.7542 63.9123C46.6479 63.9175 47.5063 64.262 48.1556 64.8762 48.8049 65.4903 49.1966 66.3282 49.2515 67.2203 54.6756 63.9825 60.8679 62.2563 67.1848 62.2212 68.1727 62.2212 69.1468 62.3159 70.1277 62.3903L70.1277 63.7432 70.1277 67.9914C70.1277 70.102 70.8041 70.447 72.2383 69.0196L82.4665 59.5897C82.6119 59.4953 82.7371 59.3728 82.8352 59.2295 82.9326 59.0861 83.0009 58.9246 83.0354 58.7545 83.0706 58.5844 83.0706 58.4092 83.0368 58.239 83.0029 58.0688 82.9353 57.907 82.8386 57.7632Z" fill="#FFFFFF"/><path d="M45.7539 63.9394 39.7333 63.9394C34.6022 68.0259 30.4566 73.2144 27.604 79.1214 24.7513 85.0283 23.2648 91.5008 23.2545 98.0605 23.3035 99.5792 23.4299 101.094 23.6333 102.6L31.751 102.6C31.5302 101.096 31.4037 99.5798 31.3721 98.0605 31.3924 91.8086 33.0545 85.6716 36.1923 80.2639 39.3301 74.8562 43.8333 70.3671 49.2513 67.2473 49.1964 66.3553 48.8046 65.5174 48.1554 64.9032 47.506 64.2891 46.6477 63.9445 45.7539 63.9394Z" fill="#FFFFFF"/><path d="M49.3052 49.9297 49.3052 49.1585C43.8728 46.0435 39.3558 41.5538 36.208 36.1403 33.0601 30.7269 31.3922 24.5803 31.372 18.3182 31.372 17.1547 31.5479 16.0047 31.6629 14.8479L23.5452 14.8479C23.4573 16.0114 23.2611 17.1547 23.2611 18.3182 23.2778 25.1751 24.9072 31.9318 28.0178 38.0425 31.1284 44.1533 35.6329 49.4465 41.1673 53.4947L45.7538 53.4947C46.2213 53.4947 46.6842 53.4023 47.116 53.223 47.5478 53.0437 47.9398 52.7809 48.2698 52.4497 48.5998 52.1185 48.8611 51.7254 49.0388 51.2929 49.2165 50.8604 49.307 50.3972 49.3052 49.9297Z" fill="#FFFFFF"/></g></svg>