<svg width="111" height="111" xmlns="http://www.w3.org/2000/svg" xmlns:xlink="http://www.w3.org/1999/xlink" xml:space="preserve" overflow="hidden"><defs><linearGradient x1="52.2678" y1="97.5161" x2="52.2678" y2="15.8463" gradientUnits="userSpaceOnUse" spreadMethod="pad" id="fill0"><stop offset="0" stop-color="#341A6E"/><stop offset="0.356" stop-color="#552F99"/><stop offset="1" stop-color="#A67AF4"/></linearGradient></defs><g><path d="M85.5941 15.8463 18.9352 15.8463C14.7917 15.8463 11.4329 19.2052 11.4329 23.3486L11.4329 90.0073C11.4329 94.1509 14.7917 97.5096 18.9352 97.5096L85.5941 97.5096C89.7376 97.5096 93.0964 94.1509 93.0964 90.0073L93.0964 23.3486C93.0964 19.2052 89.7376 15.8463 85.5941 15.8463Z" fill="url(#fill0)"/><path d="M35.4212 27.9322 22.604 27.9322C21.5221 27.9322 20.6452 28.8092 20.6452 29.8911L20.6452 85.169C20.6452 86.2509 21.5221 87.1278 22.604 87.1278L35.4212 87.1278C36.503 87.1278 37.38 86.2509 37.38 85.169L37.38 29.8911C37.38 28.8092 36.503 27.9322 35.4212 27.9322Z" fill="#B796F9"/><path d="M58.679 27.9322 45.8618 27.9322C44.7799 27.9322 43.903 28.8092 43.903 29.8911L43.903 85.169C43.903 86.2509 44.7799 87.1278 45.8618 87.1278L58.679 87.1278C59.7608 87.1278 60.6379 86.2509 60.6379 85.169L60.6379 29.8911C60.6379 28.8092 59.7608 27.9322 58.679 27.9322Z" fill="#B796F9"/><path d="M81.9304 27.9322 69.1132 27.9322C68.0312 27.9322 67.1543 28.8092 67.1543 29.8911L67.1543 85.169C67.1543 86.2509 68.0312 87.1278 69.1132 87.1278L81.9304 87.1278C83.0123 87.1278 83.8892 86.2509 83.8892 85.169L83.8892 29.8911C83.8892 28.8092 83.0123 27.9322 81.9304 27.9322Z" fill="#B796F9"/><path d="M43.903 61.5718 43.903 29.9106C43.903 29.3911 44.1093 28.8929 44.4767 28.5255 44.8441 28.1582 45.3423 27.9518 45.8618 27.9518L58.6725 27.9518C59.192 27.9518 59.6903 28.1582 60.0576 28.5255 60.4249 28.8929 60.6313 29.3911 60.6313 29.9106L60.6313 62.0876" fill="#E3DCF9"/><path d="M37.5698 59.6913 24.1911 73.0896C23.6077 73.6746 23.2802 74.4673 23.2802 75.2933 23.2802 76.1192 23.6077 76.9119 24.1911 77.4969L24.4718 77.7777C24.7612 78.0683 25.1051 78.2988 25.4838 78.4561 25.8626 78.6135 26.2687 78.6944 26.6788 78.6944 27.0889 78.6944 27.495 78.6135 27.8737 78.4561 28.2524 78.2988 28.5963 78.0683 28.8857 77.7777L42.8652 63.7787C40.8831 62.7233 39.0929 61.3415 37.5698 59.6913Z" fill="#FFFFFF"/><path d="M52.2672 26.2281C48.3867 26.2169 44.5872 27.3386 41.335 29.4556 38.0827 31.5726 35.5191 34.5929 33.9586 38.1459 32.398 41.6988 31.9084 45.6301 32.5498 49.4573 33.1913 53.2845 34.9359 56.8413 37.5695 59.6913L40.3837 56.8771C40.5169 56.7716 40.6589 56.6776 40.8081 56.5964 38.1378 53.7448 36.6231 50.0022 36.5586 46.0961 36.4941 42.1899 37.8842 38.3993 40.4588 35.4611 43.0335 32.5229 46.6086 30.6469 50.4894 30.1979 54.3701 29.7488 58.2792 30.7588 61.4568 33.0314 64.6345 35.3041 66.8533 38.6771 67.6826 42.4947 68.5118 46.3124 67.8922 50.3019 65.9431 53.688 63.9947 57.074 60.8568 59.6145 57.1394 60.8157 53.4219 62.0169 49.3908 61.793 45.8292 60.1875 45.7012 60.7068 45.4401 61.1838 45.0718 61.5718L42.8649 63.7787C45.7458 65.3666 48.9776 66.2108 52.2672 66.2337 57.5098 66.139 62.5055 63.9899 66.1795 60.249 69.8536 56.5081 71.9117 51.4742 71.9117 46.2309 71.9117 40.9875 69.8536 35.9538 66.1795 32.2128 62.5055 28.4718 57.5098 26.3227 52.2672 26.2281Z" fill="#FFFFFF"/><path d="M45.8294 60.1875C43.9341 59.3352 42.2273 58.1145 40.8082 56.5964 40.659 56.6776 40.517 56.7716 40.3838 56.8771L37.5696 59.6913C39.0927 61.3415 40.8829 62.7233 42.865 63.7787L45.085 61.5718C45.4486 61.1824 45.705 60.7055 45.8294 60.1875Z" fill="#FFFFFF"/></g></svg>