<svg width="94" height="94" xmlns="http://www.w3.org/2000/svg" xmlns:xlink="http://www.w3.org/1999/xlink" xml:space="preserve" overflow="hidden"><defs><linearGradient x1="74.9407" y1="85.6556" x2="74.9407" y2="52.6284" gradientUnits="userSpaceOnUse" spreadMethod="pad" id="fill0"><stop offset="0" stop-color="#341A6E"/><stop offset="0.356" stop-color="#552F99"/><stop offset="1" stop-color="#A67AF4"/></linearGradient><linearGradient x1="90.9837" y1="247.64" x2="90.9837" y2="50.369" gradientUnits="userSpaceOnUse" spreadMethod="pad" id="fill1"><stop offset="0" stop-color="#341A6E"/><stop offset="0.356" stop-color="#552F99"/><stop offset="1" stop-color="#A67AF4"/></linearGradient></defs><g><path d="M59.6408 26.4633C59.5639 26.3534 59.4688 26.258 59.3588 26.1813L50.8104 17.8871C49.8759 16.9527 49.0852 17.2789 49.0852 18.7276L49.0852 22.4655 49.0852 23.4387C49.0299 23.4387 48.9967 23.3723 48.9359 23.3723L34.6368 23.3723C34.1969 23.3723 33.775 23.5471 33.4639 23.8582 33.1528 24.1693 32.978 24.5912 32.978 25.0311L32.978 28.7137C32.978 29.1537 33.1528 29.5756 33.4639 29.8867 33.775 30.1978 34.1969 30.3726 34.6368 30.3726L48.9691 30.3726C49.0852 30.3726 49.1571 30.273 49.2621 30.2509L49.2621 31.3844 49.2621 34.8403C49.2621 36.5655 49.8151 36.8475 50.9928 35.6808L59.3588 27.9562C59.5877 27.7905 59.7442 27.5434 59.7967 27.2658 59.8492 26.9882 59.7934 26.701 59.6408 26.4633Z" fill="#999999"/><path d="M62.1622 41.2323 62.1622 12.4794C62.1395 11.9388 62.3314 11.4113 62.6958 11.0115 63.0602 10.6118 63.5683 10.3722 64.1086 10.345L85.7783 10.345C86.318 10.3722 86.825 10.612 87.1889 11.0119 87.5522 11.4118 87.7429 11.9394 87.7191 12.4794L87.7191 41.2323C87.7446 41.7732 87.5544 42.3022 87.1905 42.7034 86.8267 43.1045 86.3191 43.345 85.7783 43.3722L64.1086 43.3722C63.5672 43.3449 63.0585 43.1046 62.6936 42.7037 62.3292 42.3028 62.1379 41.7738 62.1622 41.2323Z" fill="#B796F9"/><path d="M62.1622 83.5212 62.1622 54.7683C62.1379 54.2268 62.3292 53.6979 62.6936 53.297 63.0585 52.896 63.5672 52.6556 64.1086 52.6284L85.7783 52.6284C86.3191 52.6556 86.8267 52.8961 87.1905 53.2973 87.5544 53.6984 87.7446 54.2274 87.7191 54.7683L87.7191 83.5212C87.7429 84.0614 87.5522 84.5889 87.1889 84.9887 86.825 85.3885 86.318 85.6285 85.7783 85.6556L64.1086 85.6556C63.5683 85.6285 63.0602 85.3891 62.6958 84.9893 62.3314 84.5895 62.1395 84.062 62.1622 83.5212Z" fill="url(#fill0)"/><path d="M59.6402 68.7522C59.5639 68.6421 59.4683 68.547 59.3582 68.4702L50.8099 60.165C49.8754 59.2305 49.0848 59.5567 49.0848 61.0054L49.0848 64.7378 49.0848 65.711 49.0848 66.1202C45.9981 66.6018 42.8437 66.4066 39.8398 65.549 36.8359 64.6914 34.0543 63.1912 31.6873 61.152 29.3204 59.1133 27.4247 56.5847 26.1313 53.741 24.838 50.8973 24.178 47.8066 24.1969 44.6827 24.1969 44.2459 24.324 43.8201 24.3517 43.3888L17.639 43.3888C17.639 43.8201 17.5616 44.2459 17.5616 44.6827 17.5703 52.1996 20.5607 59.4063 25.8765 64.7207 31.1924 70.0355 38.3994 73.0247 45.9164 73.0319 47.0266 73.0032 48.1343 72.9108 49.234 72.7554L49.234 73.6678 49.234 77.1237C49.234 78.8544 49.787 79.1309 50.9648 77.9642L59.3251 70.2617C59.5639 70.1008 59.7304 69.8531 59.7895 69.5711 59.8481 69.2891 59.7945 68.9954 59.6402 68.7522Z" fill="#999999"/><path d="M9.11313 41.365 9.11313 12.6121C9.08753 12.0711 9.27747 11.5421 9.6413 11.141 10.0051 10.7399 10.5131 10.4994 11.054 10.4722L32.7237 10.4722C33.265 10.4994 33.7735 10.7397 34.1383 11.1407 34.5029 11.5417 34.6941 12.0706 34.6701 12.6121L34.6701 41.365C34.6926 41.9055 34.5008 42.4331 34.1362 42.8328 33.7717 43.2326 33.264 43.4721 32.7237 43.4994L11.054 43.4994C10.5141 43.4721 10.007 43.2324 9.64335 42.8325 9.27968 42.4326 9.08908 41.905 9.11313 41.365Z" fill="url(#fill1)"/></g></svg>