<svg width="66" height="66" xmlns="http://www.w3.org/2000/svg" xmlns:xlink="http://www.w3.org/1999/xlink" xml:space="preserve" overflow="hidden"><defs><clipPath id="clip0"><rect x="0" y="0" width="66" height="66"/></clipPath><linearGradient x1="35.219" y1="52.548" x2="35.219" y2="-19.429" gradientUnits="userSpaceOnUse" spreadMethod="pad" id="fill1"><stop offset="0" stop-color="#258277"/><stop offset="0.156" stop-color="#258277"/><stop offset="0.79" stop-color="#3CD4C2"/><stop offset="1" stop-color="#3CD4C2"/></linearGradient><linearGradient x1="48.498" y1="65.9913" x2="48.498" y2="17.2009" gradientUnits="userSpaceOnUse" spreadMethod="pad" id="fill2"><stop offset="0" stop-color="#37C2B1"/><stop offset="0.129" stop-color="#37C2B1"/><stop offset="1" stop-color="#42E8CA"/></linearGradient></defs><g clip-path="url(#clip0)"><path d="M51.294 2.16119 19.1398 2.16119C18.3515 2.16119 17.7125 2.80019 17.7125 3.58844L17.7125 43.6008C17.7125 44.3891 18.3515 45.0281 19.1398 45.0281L51.294 45.0281C52.0823 45.0281 52.7212 44.3891 52.7212 43.6008L52.7212 3.58844C52.7212 2.80019 52.0823 2.16119 51.294 2.16119Z" fill="url(#fill1)"/><path d="M46.3031 17.6465 46.3031 14.6435C46.3035 14.5965 46.2949 14.5499 46.2771 14.5064 46.2598 14.4629 46.2338 14.4233 46.2008 14.3899 46.1678 14.3566 46.1282 14.33 46.0849 14.312 46.0416 14.2939 45.9954 14.2846 45.9484 14.2846L24.717 14.2846C24.6233 14.2857 24.5336 14.3234 24.4674 14.3897 24.4011 14.456 24.3634 14.5456 24.3623 14.6393L24.3623 17.6341C24.3623 17.7275 24.3991 17.8171 24.4647 17.8835 24.5303 17.9499 24.6195 17.9878 24.7129 17.9888L45.9319 17.9888C45.9789 17.9894 46.0255 17.9806 46.0688 17.963 46.1125 17.9454 46.1522 17.9194 46.1856 17.8864 46.219 17.8534 46.2454 17.8141 46.2635 17.7708 46.2813 17.7275 46.2907 17.681 46.2907 17.6341L46.3031 17.6465ZM46.3031 25.0921 46.3031 22.0973C46.3031 22.0021 46.2652 21.9109 46.1979 21.8436 46.1307 21.7762 46.0395 21.7385 45.9442 21.7385L24.717 21.7385C24.6233 21.7395 24.5336 21.7772 24.4674 21.8435 24.4011 21.9099 24.3634 21.9995 24.3623 22.0932L24.3623 25.088C24.3623 25.1813 24.3991 25.2709 24.4647 25.3374 24.5303 25.4038 24.6195 25.4416 24.7129 25.4427L45.9319 25.4427C45.9789 25.4432 46.0255 25.4345 46.0688 25.4169 46.1125 25.3993 46.1522 25.3733 46.1856 25.3403 46.219 25.3073 46.2454 25.268 46.2635 25.2247 46.2813 25.1814 46.2907 25.1349 46.2907 25.088L46.3031 25.0921ZM46.3031 32.546 46.3031 29.5512C46.3031 29.456 46.2652 29.3648 46.1979 29.2974 46.1307 29.2301 46.0395 29.1923 45.9442 29.1923L24.717 29.1923C24.6226 29.1934 24.5323 29.2317 24.4659 29.2989 24.3995 29.3661 24.3623 29.4567 24.3623 29.5512L24.3623 32.546C24.3623 32.6397 24.3989 32.7298 24.4645 32.7968 24.53 32.8639 24.6192 32.9027 24.7129 32.9048L45.9319 32.9048C46.0272 32.9048 46.1183 32.867 46.1856 32.7997 46.2528 32.7324 46.2907 32.6411 46.2907 32.546L46.3031 32.546Z" fill="#42E8CA"/><path d="M64.5732 20.9712 32.4186 20.9712C31.6304 20.9712 30.9914 21.6102 30.9914 22.3984L30.9914 62.4108C30.9914 63.1991 31.6304 63.8381 32.4186 63.8381L64.5732 63.8381C65.3615 63.8381 66.0004 63.1991 66.0004 62.4108L66.0004 22.3984C66.0004 21.6102 65.3615 20.9712 64.5732 20.9712Z" fill="url(#fill2)"/><path d="M45.0697 39.6987 45.0697 34.6167C45.0697 33.6885 45.408 33.1358 46.0515 32.9337 46.2437 32.8704 46.4104 32.7475 46.5279 32.5827 46.6451 32.418 46.7066 32.2201 46.7032 32.0179 46.7041 31.8912 46.6793 31.7656 46.6315 31.6482 46.5836 31.5309 46.5127 31.4242 46.4236 31.3342 46.3345 31.2442 46.2281 31.1726 46.1113 31.1236 45.9946 31.0746 45.8692 31.0491 45.7421 31.0485L45.6679 31.0485C44.8891 31.0623 44.1346 31.3206 43.5105 31.7869 43.1648 32.1778 42.9041 32.6364 42.7449 33.1335 42.5857 33.6306 42.532 34.1554 42.5865 34.6744L42.5865 39.9132C42.5865 40.9197 42.2788 41.5301 41.6625 41.7446 41.5033 41.7912 41.3622 41.8869 41.2603 42.0181 41.1581 42.1488 41.0997 42.3089 41.0934 42.4747L41.0934 43.7782C41.0999 43.9461 41.1598 44.1074 41.2644 44.239 41.3692 44.3702 41.5128 44.4646 41.6749 44.5083 42.2912 44.7228 42.5976 45.3333 42.5947 46.3398L42.5947 51.3888C42.537 51.9119 42.5894 52.4411 42.7486 52.9427 42.9078 53.4443 43.1702 53.9072 43.5187 54.3011 44.1404 54.7718 44.8965 55.0308 45.6761 55.0395 45.8028 55.0498 45.9302 55.0345 46.0511 54.9953 46.172 54.9557 46.2833 54.893 46.3798 54.8101 46.476 54.7272 46.5552 54.6261 46.6121 54.5127 46.669 54.3988 46.7028 54.2751 46.7115 54.1485 46.7136 54.1237 46.7136 54.099 46.7115 54.0742 46.7136 53.8725 46.6513 53.6753 46.5345 53.5107 46.4174 53.3461 46.2512 53.2228 46.0598 53.1585 45.4163 52.9563 45.078 52.4036 45.078 51.4755L45.078 46.5543C45.078 44.9043 44.6655 43.8277 43.5848 43.4028 43.5848 43.4028 43.1516 43.3121 43.1475 43.1265 43.1434 42.9408 43.692 42.7593 43.692 42.7593 44.7645 42.3345 45.0697 41.3321 45.0697 39.6987Z" fill="#258277"/><path d="M53.0562 39.6987 53.0562 34.6167C53.0562 33.6885 52.7179 33.1358 52.0744 32.9337 51.883 32.8693 51.7168 32.7461 51.5996 32.5816 51.4829 32.4171 51.4206 32.2198 51.4227 32.0179 51.4227 31.7623 51.5237 31.5169 51.7036 31.3354 51.8834 31.1538 52.128 31.0507 52.3838 31.0485L52.458 31.0485C53.2381 31.0614 53.9946 31.3198 54.6195 31.7869 54.9669 32.1817 55.2288 32.6445 55.388 33.1459 55.5468 33.6472 55.6 34.1762 55.5435 34.6992L55.5435 39.9132C55.5435 40.9197 55.85 41.5301 56.4634 41.7446 56.6247 41.7891 56.7674 41.884 56.8714 42.0152 56.9753 42.1468 57.0347 42.3077 57.0409 42.4747L57.0409 43.7782C57.0351 43.9457 56.9762 44.107 56.8722 44.2386 56.7682 44.3697 56.6251 44.4646 56.4634 44.5083 55.8471 44.7228 55.5406 45.3333 55.5435 46.3398L55.5435 51.3888C55.6 51.9119 55.5472 52.4411 55.388 52.9423 55.2292 53.4439 54.9673 53.9067 54.6195 54.3011 53.9963 54.7718 53.2389 55.0308 52.458 55.0395 52.3318 55.049 52.2048 55.0337 52.0843 54.9941 51.9643 54.9545 51.8529 54.8914 51.7572 54.8085 51.6611 54.7255 51.5827 54.6249 51.5262 54.5115 51.4693 54.398 51.4355 54.2751 51.4268 54.1485 51.4247 54.1237 51.4247 54.099 51.4268 54.0742 51.4247 53.8725 51.487 53.6753 51.6038 53.5107 51.7209 53.3461 51.8871 53.2228 52.0785 53.1585 52.722 52.9563 53.0603 52.4036 53.0603 51.4755L53.0603 46.5543C53.0603 44.9043 53.4728 43.8277 54.5535 43.4028 54.5535 43.4028 54.9867 43.3121 54.9908 43.1265 54.9949 42.9408 54.4463 42.7593 54.4463 42.7593 53.3738 42.3345 53.0562 41.3321 53.0562 39.6987Z" fill="#258277"/><path d="M29.2875 55.0353C29.2283 54.9475 29.1526 54.872 29.0648 54.8126L22.275 48.2167C21.5366 47.4742 20.9055 47.7341 20.9055 48.8808L20.9055 51.8467 20.9055 52.6181 20.9055 52.713 10.1805 52.713 10.1805 41.79 10.23 41.79 11.1251 41.79 13.8682 41.79C15.2419 41.79 15.4605 41.3445 14.5365 40.4164L8.42325 33.7669C8.29546 33.5808 8.09915 33.453 7.87731 33.4112 7.65542 33.3695 7.42607 33.4173 7.23938 33.5442 7.15003 33.603 7.07297 33.6787 7.0125 33.7669L0.412504 40.5484C-0.325872 41.2908-0.0701221 41.922 1.08075 41.922L4.05075 41.922 4.82212 41.922 4.87162 41.922 4.87162 58.0095 21.0375 58.0095 21.0375 58.059 21.0375 58.9582 21.0375 61.7013C21.0375 63.0708 21.483 63.2936 22.407 62.3655L29.04 56.2522C29.1392 56.1912 29.2248 56.1107 29.2916 56.0154 29.3583 55.9197 29.4047 55.8117 29.428 55.6974 29.4512 55.5835 29.4507 55.466 29.4265 55.3517 29.4023 55.2379 29.355 55.1302 29.2875 55.0353Z" fill="#258277"/></g></svg>