<svg width="68" height="68" xmlns="http://www.w3.org/2000/svg" xmlns:xlink="http://www.w3.org/1999/xlink" xml:space="preserve" overflow="hidden"><defs><linearGradient x1="14.59" y1="82.382" x2="14.59" y2="13.8975" gradientUnits="userSpaceOnUse" spreadMethod="pad" id="fill0"><stop offset="0" stop-color="#365615"/><stop offset="0.033" stop-color="#365615"/><stop offset="0.562" stop-color="#5E9624"/><stop offset="1" stop-color="#76BC2D"/></linearGradient></defs><g><path d="M24.1736 6.75325 58.3776 6.75325C58.9199 6.69379 59.4639 6.84773 59.8948 7.1825 60.3253 7.51727 60.6092 8.00658 60.6853 8.54675L60.6853 19.5118C60.6092 20.0519 60.3253 20.5412 59.8948 20.876 59.4639 21.2108 58.9199 21.3647 58.3776 21.3053L24.1736 21.3053C23.6313 21.3647 23.0871 21.2108 22.6564 20.876 22.2256 20.5412 21.9421 20.0519 21.8658 19.5118L21.8658 8.54675C21.9421 8.00658 22.2256 7.51727 22.6564 7.1825 23.0871 6.84773 23.6313 6.69379 24.1736 6.75325Z" fill="#B4EC36"/><path d="M20.0725 22.4315 9.10754 22.4315C8.11699 22.4315 7.31404 23.2345 7.31404 24.225L7.31404 59.4575C7.31404 60.4482 8.11699 61.251 9.10754 61.251L20.0725 61.251C21.063 61.251 21.866 60.4482 21.866 59.4575L21.866 24.225C21.866 23.2345 21.063 22.4315 20.0725 22.4315Z" fill="url(#fill0)"/><path d="M50.9316 33.575 45.0071 27.166C44.9467 27.0759 44.8685 26.9986 44.778 26.9388 44.6875 26.879 44.5855 26.8379 44.4788 26.8177 44.3721 26.7975 44.2625 26.7988 44.1562 26.8214 44.05 26.8439 43.9492 26.8874 43.8596 26.9493 43.7742 27.007 43.7006 27.0806 43.6428 27.166L37.268 33.7323C36.5498 34.4505 36.8005 35.0625 37.914 35.0625L40.787 35.0625 41.5308 35.0625 41.6243 35.0625 41.6243 47.6468 28.6745 47.6468 28.6745 52.7467 46.7113 52.7467 46.7113 34.935 46.7496 34.935 47.6208 34.935 50.2771 34.935C51.6116 34.918 51.8496 34.4888 50.9316 33.575Z" fill="#999999"/></g></svg>