<svg width="94" height="88" xmlns="http://www.w3.org/2000/svg" xmlns:xlink="http://www.w3.org/1999/xlink" xml:space="preserve" overflow="hidden"><defs><linearGradient x1="44.4799" y1="78.397" x2="44.4799" y2="9.603" gradientUnits="userSpaceOnUse" spreadMethod="pad" id="fill0"><stop offset="0" stop-color="#5E9624"/><stop offset="0.881" stop-color="#86D633"/><stop offset="1" stop-color="#86D633"/></linearGradient></defs><g><path d="M72.5522 9.603 16.4024 9.603C12.9122 9.603 10.0829 12.4323 10.0829 15.9225L10.0829 72.072C10.0829 75.5623 12.9122 78.3915 16.4024 78.3915L72.5522 78.3915C76.0419 78.3915 78.8717 75.5623 78.8717 72.072L78.8717 15.9225C78.8717 12.4323 76.0419 9.603 72.5522 9.603Z" fill="url(#fill0)" transform="scale(1.00535 1)"/><path d="M30.2893 34.804 19.4928 34.804C18.5815 34.804 17.8428 35.5427 17.8428 36.454L17.8428 67.9965C17.8428 68.9079 18.5815 69.6465 19.4928 69.6465L30.2893 69.6465C31.2006 69.6465 31.9393 68.9079 31.9393 67.9965L31.9393 36.454C31.9393 35.5427 31.2006 34.804 30.2893 34.804Z" fill="#B4EC36" transform="scale(1.00535 1)"/><path d="M49.8803 19.7835 39.0838 19.7835C38.1726 19.7835 37.4338 20.5222 37.4338 21.4335L37.4338 67.9965C37.4338 68.9079 38.1726 69.6465 39.0838 69.6465L49.8803 69.6465C50.7916 69.6465 51.5303 68.9079 51.5303 67.9965L51.5303 21.4335C51.5303 20.5222 50.7916 19.7835 49.8803 19.7835Z" fill="#FFFFFF" transform="scale(1.00535 1)"/><path d="M69.4661 49.17 58.6696 49.17C57.7583 49.17 57.0196 49.9087 57.0196 50.82L57.0196 67.9965C57.0196 68.9079 57.7583 69.6465 58.6696 69.6465L69.4661 69.6465C70.3774 69.6465 71.1161 68.9079 71.1161 67.9965L71.1161 50.82C71.1161 49.9087 70.3774 49.17 69.4661 49.17Z" fill="#B4EC36" transform="scale(1.00535 1)"/></g></svg>