<svg width="121" height="114" xmlns="http://www.w3.org/2000/svg" xmlns:xlink="http://www.w3.org/1999/xlink" xml:space="preserve" overflow="hidden"><defs><linearGradient x1="39.8844" y1="99.0634" x2="39.6993" y2="6.56247" gradientUnits="userSpaceOnUse" spreadMethod="pad" id="fill0"><stop offset="0" stop-color="#365615"/><stop offset="0.562" stop-color="#5E9624"/><stop offset="1" stop-color="#76BC2D"/></linearGradient></defs><g><path d="M18.8304 80.5291 18.8304 33.3533C18.7917 32.4668 19.1053 31.601 19.7027 30.9449 20.3001 30.2888 21.1329 29.8957 22.0191 29.8514L57.5717 29.8514C58.4587 29.8938 59.2925 30.2864 59.8903 30.9429 60.4881 31.5994 60.8011 32.4663 60.7604 33.3533L60.7604 80.5291C60.8011 81.4159 60.4881 82.2829 59.8903 82.9391 59.2925 83.5961 58.4587 83.9882 57.5717 84.0309L22.0191 84.0309C21.1329 83.9868 20.3001 83.5939 19.7027 82.9377 19.1053 82.2814 18.7917 81.4152 18.8304 80.5291Z" fill="url(#fill0)" transform="matrix(-1 0 0 1.00103 121 0)"/><path d="M60.7607 80.5291 60.7607 33.3533C60.7201 32.4663 61.033 31.5994 61.6309 30.9429 62.2287 30.2864 63.0625 29.8938 63.9494 29.8514L99.5019 29.8514C100.388 29.8957 101.221 30.2888 101.819 30.9449 102.416 31.601 102.73 32.4668 102.691 33.3533L102.691 80.5291C102.73 81.4152 102.416 82.2814 101.819 82.9377 101.221 83.5939 100.388 83.9868 99.5019 84.0309L63.9494 84.0309C63.0625 83.9882 62.2287 83.5961 61.6309 82.9391 61.033 82.2829 60.7201 81.4159 60.7607 80.5291Z" fill="#B4EC36" transform="matrix(-1 0 0 1.00103 121 0)"/><path d="M60.7607 61.4467 82.391 61.4467C82.5405 61.4467 82.6259 61.3185 82.7683 61.2901L82.7683 62.7492 82.7683 67.1977C82.7683 69.4184 83.48 69.7814 84.9961 68.2796L95.7793 58.3647C95.9302 58.2631 96.0598 58.1327 96.1601 57.9807 96.2598 57.8288 96.3288 57.6585 96.363 57.4797 96.3964 57.3009 96.3943 57.1172 96.3566 56.9393 96.3188 56.7612 96.2462 56.5926 96.1423 56.4429 96.0455 56.2999 95.9224 56.1767 95.7793 56.0799L84.7826 45.4035C83.5797 44.2006 82.5547 44.6205 82.5547 46.4854L82.5547 51.2471 82.5547 52.4926C82.4836 52.4926 82.4337 52.4144 82.3626 52.4144L60.7607 52.4144" fill="#5E9624" transform="matrix(-1 0 0 1.00103 121 0)"/></g></svg>