<svg width="75" height="80" xmlns="http://www.w3.org/2000/svg" xmlns:xlink="http://www.w3.org/1999/xlink" xml:space="preserve" overflow="hidden"><defs><linearGradient x1="14.3767" y1="42.1666" x2="60.6234" y2="42.1666" gradientUnits="userSpaceOnUse" spreadMethod="pad" id="fill0"><stop offset="0" stop-color="#005BA1"/><stop offset="0.07" stop-color="#0060A9"/><stop offset="0.36" stop-color="#0071C8"/><stop offset="0.52" stop-color="#0078D4"/><stop offset="0.64" stop-color="#0074CD"/><stop offset="0.82" stop-color="#006ABB"/><stop offset="1" stop-color="#005BA1"/></linearGradient></defs><g><path d="M37.5001 24.0541C24.7313 24.0541 14.3767 20.4494 14.3767 15.6869L14.3767 60.2742C14.3767 64.8586 24.5485 68.5711 37.1767 68.6461L37.5001 68.6461C50.2687 68.6461 60.6234 65.0367 60.6234 60.2742L60.6234 15.6869C60.6234 20.3369 50.2687 24.0541 37.5001 24.0541Z" fill="url(#fill0)" transform="scale(1 1.00392)"/><path d="M60.6234 15.6869C60.6234 20.3369 50.2687 24.0541 37.5001 24.0541 24.7313 24.0541 14.3767 20.4494 14.3767 15.6869 14.3767 10.9244 24.7313 7.31503 37.5001 7.31503 50.2687 7.31503 60.6234 10.9244 60.6234 15.6869Z" fill="#E8E8E8" transform="scale(1 1.00392)"/><path d="M55.2516 15.0119C55.2516 17.9744 47.2828 20.351 37.5 20.351 27.7172 20.351 19.7485 17.9603 19.7485 15.0119 19.7485 12.0635 27.7219 9.69628 37.5 9.69628 47.2781 9.69628 55.2516 12.0775 55.2516 14.9978" fill="#50E6FF" transform="scale(1 1.00392)"/><path d="M37.4999 16.3338C32.7386 16.2135 27.9919 16.9095 23.4655 18.3916 27.9962 19.8458 32.7445 20.504 37.4999 20.3369 42.265 20.4776 47.017 19.7697 51.5344 18.2463 46.995 16.8326 42.2519 16.1862 37.4999 16.3338Z" fill="#198AB3" transform="scale(1 1.00392)"/><path d="M14.3767 49.3242 32.1376 49.3242C32.2555 49.3444 32.3624 49.4062 32.4389 49.4981 32.5154 49.59 32.5565 49.7062 32.5548 49.8258L32.5548 55.3242C32.5552 55.4166 32.5827 55.5066 32.6339 55.583 32.6851 55.6598 32.7578 55.7194 32.8429 55.755 32.9279 55.7906 33.0215 55.8 33.112 55.7827 33.2025 55.7653 33.2858 55.7217 33.3517 55.657L42.6563 46.4182C42.7877 46.3011 42.8675 46.1367 42.878 45.961 42.8885 45.7853 42.8291 45.6126 42.7126 45.4807L42.6563 45.4338 33.436 36.2744C33.3861 36.1723 33.3008 36.0918 33.1959 36.0479 33.091 36.004 32.9738 35.9997 32.866 36.0359 32.7582 36.072 32.6672 36.146 32.61 36.2442 32.5527 36.3425 32.5331 36.4581 32.5548 36.5697L32.5548 42.0869C32.5555 42.2028 32.5132 42.3148 32.4362 42.4014 32.3591 42.488 32.2528 42.5429 32.1376 42.5557L14.3767 42.5557" fill="#BEDCF4" transform="scale(1 1.00392)"/></g></svg>