<svg width="77" height="77" xmlns="http://www.w3.org/2000/svg" xmlns:xlink="http://www.w3.org/1999/xlink" xml:space="preserve" overflow="hidden"><defs><linearGradient x1="51.84" y1="70.6634" x2="51.84" y2="17.8594" gradientUnits="userSpaceOnUse" spreadMethod="pad" id="fill0"><stop offset="0" stop-color="#EF7100"/><stop offset="0.93" stop-color="#D15900"/><stop offset="1" stop-color="#D15900"/></linearGradient><linearGradient x1="20.9859" y1="79.2239" x2="20.9859" y2="21.5327" gradientUnits="userSpaceOnUse" spreadMethod="pad" id="fill1"><stop offset="0" stop-color="#FCC581"/><stop offset="0.46" stop-color="#FFB34D"/><stop offset="1" stop-color="#FAA21D"/></linearGradient></defs><g><path d="M51.2467 16.5549C51.0791 16.6683 50.9346 16.8129 50.8209 16.9807L38.2247 29.9439C36.807 31.3616 37.3188 32.5664 39.5019 32.5664L45.1547 32.5664 46.6267 32.5347C46.6267 32.6207 46.5361 32.6751 46.5361 32.7611L46.5361 56.8985C46.5356 57.2287 46.5999 57.5561 46.7263 57.8619 46.8522 58.1672 47.0375 58.4448 47.2708 58.679 47.5045 58.9127 47.7817 59.0984 48.087 59.2248 48.3922 59.3516 48.7193 59.4168 49.0499 59.4168L54.6347 59.4168C54.9653 59.4168 55.2923 59.3516 55.5976 59.2248 55.9029 59.0984 56.1806 58.9127 56.4138 58.679 56.6475 58.4448 56.8323 58.1672 56.9587 57.8619 57.0846 57.5561 57.1489 57.2287 57.1485 56.8985L57.1485 32.7611C57.1485 32.589 56.999 32.4803 56.9673 32.3082L58.684 32.272 63.9245 32.272C66.547 32.272 66.9683 31.425 65.2018 29.654L53.5114 16.9716C53.2659 16.6166 52.8899 16.3733 52.4651 16.2952 52.0407 16.2171 51.6027 16.3105 51.2467 16.5549Z" fill="url(#fill0)"/><path d="M21.5792 59.1315C21.7471 59.0178 21.8916 58.8733 22.005 58.7057L34.6013 45.7425C36.019 44.3247 35.5072 43.1199 33.324 43.1199L27.6713 43.1199 26.1992 43.1516C26.1992 43.0656 26.2898 43.0112 26.2898 42.9251L26.2898 18.7879C26.2904 18.4574 26.2258 18.13 26.0998 17.8245 25.9737 17.519 25.7887 17.2413 25.5552 17.0074 25.3217 16.7735 25.0443 16.588 24.7391 16.4613 24.4338 16.3347 24.1065 16.2696 23.776 16.2696L18.1912 16.2696C17.8607 16.2696 17.5335 16.3347 17.2282 16.4613 16.9229 16.588 16.6456 16.7735 16.4121 17.0074 16.1786 17.2413 15.9935 17.519 15.8675 17.8245 15.7414 18.13 15.6768 18.4574 15.6774 18.7879L15.6774 42.9251C15.6774 43.0973 15.8269 43.206 15.8586 43.3781L14.142 43.4143 8.90143 43.4143C6.2789 43.4143 5.85766 44.2613 7.62413 46.0324L19.3145 58.7148C19.56 59.0699 19.9363 59.3131 20.3607 59.391 20.7853 59.4694 21.2235 59.3756 21.5792 59.1315Z" fill="url(#fill1)"/></g></svg>