<svg width="88" height="83" xmlns="http://www.w3.org/2000/svg" xmlns:xlink="http://www.w3.org/1999/xlink" xml:space="preserve" overflow="hidden"><defs><linearGradient x1="21.6702" y1="46.3139" x2="21.6702" y2="-3.87718" gradientUnits="userSpaceOnUse" spreadMethod="pad" id="fill0"><stop offset="0" stop-color="#37C2B1"/><stop offset="0.129" stop-color="#37C2B1"/><stop offset="1" stop-color="#42E8CA"/></linearGradient><linearGradient x1="61.9225" y1="90.5624" x2="61.9225" y2="16.5129" gradientUnits="userSpaceOnUse" spreadMethod="pad" id="fill1"><stop offset="0" stop-color="#258277"/><stop offset="0.156" stop-color="#258277"/><stop offset="0.79" stop-color="#3CD4C2"/><stop offset="1" stop-color="#3CD4C2"/></linearGradient></defs><g><g><path d="M38.209 0 5.13131 0C4.31939 0 3.66119 0.658193 3.66119 1.47012L3.66119 42.6334C3.66119 43.4453 4.31939 44.1035 5.13131 44.1035L38.209 44.1035C39.0209 44.1035 39.6791 43.4453 39.6791 42.6334L39.6791 1.47012C39.6791 0.658193 39.0209 0 38.209 0Z" fill="url(#fill0)" transform="scale(1 1.00213)"/><path d="M18.1504 19.2668 18.1504 14.0386C18.1504 13.0809 18.4972 12.5167 19.1598 12.3045 19.3567 12.2386 19.5275 12.1118 19.6476 11.9424 19.7676 11.7731 19.8306 11.5699 19.8276 11.3624 19.8303 11.2308 19.8068 11.1 19.7584 10.9776 19.7099 10.8553 19.6375 10.7438 19.5454 10.6498 19.4533 10.5558 19.3434 10.4811 19.2221 10.4301 19.1008 10.3791 18.9705 10.3529 18.8389 10.3529L18.7612 10.3529C17.9596 10.3629 17.1818 10.6276 16.5405 11.1087 16.1842 11.5126 15.9159 11.9864 15.7528 12.4997 15.5897 13.0131 15.5354 13.5548 15.5932 14.0904L15.5932 19.4894C15.5932 20.5247 15.2775 21.1511 14.6459 21.3736 14.4806 21.4198 14.3342 21.5174 14.2281 21.6524 14.122 21.7874 14.0616 21.9526 14.0558 22.1242L14.0558 23.4649C14.0635 23.6367 14.1252 23.8018 14.2321 23.9365 14.339 24.0713 14.4856 24.1689 14.6511 24.2155 15.2827 24.4381 15.5984 25.0645 15.5984 26.0998L15.5984 31.2762C15.5398 31.8138 15.5942 32.3577 15.7582 32.873 15.9223 33.3882 16.1923 33.8635 16.5509 34.2682 17.1917 34.7509 17.9694 35.0174 18.7716 35.0292 18.9018 35.0391 19.0326 35.0232 19.1567 34.9825 19.2807 34.9418 19.3956 34.8771 19.4946 34.792 19.5936 34.7069 19.6749 34.6032 19.7338 34.4866 19.7928 34.3701 19.8281 34.2431 19.8379 34.1129L19.8379 34.056C19.8377 33.8511 19.7731 33.6514 19.6533 33.4851 19.5335 33.3189 19.3645 33.1945 19.1702 33.1294 18.5076 32.9224 18.1608 32.3529 18.1608 31.3953L18.1608 26.3172C18.1608 24.64 17.7208 23.5167 16.6078 23.0767 16.6078 23.0767 16.1626 22.9835 16.1575 22.792 16.1523 22.6005 16.7217 22.4141 16.7217 22.4141 17.8295 21.9793 18.1504 20.9492 18.1504 19.2668Z" fill="#258277" transform="scale(1 1.00213)"/><path d="M26.3656 19.2668 26.3656 14.0386C26.3656 13.0809 26.0136 12.5167 25.3303 12.3045 25.132 12.2402 24.9596 12.114 24.8385 11.9443 24.7173 11.7748 24.6538 11.5708 24.6573 11.3624 24.6545 11.2285 24.6788 11.0956 24.7289 10.9715 24.7789 10.8474 24.8536 10.7348 24.9485 10.6404 25.0434 10.546 25.1564 10.4719 25.2807 10.4225 25.4051 10.373 25.5382 10.3494 25.6719 10.3529L25.7496 10.3529C26.5513 10.3629 27.329 10.6276 27.9703 11.1087 28.3288 11.5145 28.5987 11.9907 28.7626 12.5068 28.9266 13.0229 28.9812 13.5675 28.9228 14.1059L28.9228 19.4894C28.9228 20.5247 29.2385 21.1511 29.87 21.3736 30.0364 21.4188 30.1839 21.5161 30.291 21.6511 30.3981 21.7862 30.4592 21.952 30.4653 22.1242L30.4653 23.4649C30.4584 23.637 30.397 23.8023 30.2901 23.9372 30.1831 24.0721 30.036 24.1696 29.87 24.2155 29.2385 24.4381 28.9228 25.0645 28.9228 26.0998L28.9228 31.2762C28.9814 31.8138 28.927 32.3577 28.763 32.873 28.5989 33.3882 28.3289 33.8635 27.9703 34.2682 27.3294 34.7509 26.5518 35.0173 25.7496 35.0292 25.6194 35.0391 25.4885 35.0232 25.3644 34.9825 25.2404 34.9418 25.1256 34.877 25.0266 34.792 24.9276 34.7069 24.8462 34.6031 24.7873 34.4866 24.7284 34.3701 24.6931 34.2431 24.6832 34.1129L24.6832 34.056C24.6805 33.8478 24.7444 33.6442 24.8654 33.4747 24.9864 33.3053 25.1583 33.1788 25.3562 33.1139 26.0136 32.9068 26.3915 32.3374 26.3915 31.3798L26.3915 26.3172C26.3915 24.64 26.8263 23.5167 27.9444 23.0767 27.9444 23.0767 28.3896 22.9835 28.3948 22.792 28.3999 22.6005 27.8357 22.4141 27.8357 22.4141 26.6917 21.9793 26.3656 20.9492 26.3656 19.2668Z" fill="#258277" transform="scale(1 1.00213)"/><path d="M78.4613 38.72 45.3836 38.72C44.5716 38.72 43.9135 39.3782 43.9135 40.1901L43.9135 81.3534C43.9135 82.1656 44.5716 82.8235 45.3836 82.8235L78.4613 82.8235C79.273 82.8235 79.9314 82.1656 79.9314 81.3534L79.9314 40.1901C79.9314 39.3782 79.273 38.72 78.4613 38.72Z" fill="url(#fill1)" transform="scale(1 1.00213)"/><path d="M73.3257 54.6532 73.3257 51.5473C73.3257 51.4498 73.2869 51.3563 73.2181 51.2874 73.1492 51.2185 73.0561 51.1798 72.9582 51.1798L51.1137 51.1798C51.0162 51.1798 50.9227 51.2185 50.8538 51.2874 50.7849 51.3563 50.7461 51.4498 50.7461 51.5473L50.7461 54.6273C50.7455 54.6754 50.7543 54.7231 50.7722 54.7676 50.7901 54.8121 50.8167 54.8525 50.8504 54.8866 50.8841 54.9213 50.9243 54.9482 50.9686 54.9669 51.0129 54.9855 51.0604 54.9948 51.1085 54.9948L72.9427 54.9948C73.0405 54.9948 73.1337 54.956 73.2025 54.8872 73.2714 54.8183 73.3102 54.7246 73.3102 54.6273L73.3257 54.6532ZM73.3257 62.3144 73.3257 59.2085C73.3257 59.1112 73.2869 59.0175 73.2181 58.9486 73.1492 58.8798 73.0561 58.8409 72.9582 58.8409L51.1137 58.8409C51.0656 58.8404 51.0179 58.8492 50.9734 58.8668 50.9289 58.8849 50.8883 58.9113 50.8541 58.945 50.8199 58.9792 50.7927 59.019 50.7742 59.0635 50.7557 59.1075 50.7461 59.1552 50.7461 59.2033L50.7461 62.3092C50.7461 62.406 50.7841 62.4986 50.8519 62.5675 50.9198 62.6358 51.0119 62.6752 51.1085 62.6767L72.9427 62.6767C73.0405 62.6767 73.1337 62.6379 73.2025 62.569 73.2714 62.5002 73.3102 62.4065 73.3102 62.3092L73.3257 62.3144ZM73.3257 69.9807 73.3257 66.8748C73.3257 66.7775 73.2869 66.6838 73.2181 66.615 73.1492 66.5461 73.0561 66.5073 72.9582 66.5073L51.1137 66.5073C51.0162 66.5073 50.9227 66.5461 50.8538 66.615 50.7849 66.6838 50.7461 66.7775 50.7461 66.8748L50.7461 69.9807C50.7455 70.0289 50.7543 70.0765 50.7722 70.121 50.7901 70.1655 50.8167 70.2059 50.8504 70.2401 50.8841 70.2747 50.9243 70.3017 50.9686 70.3203 51.0129 70.3389 51.0604 70.3482 51.1085 70.3482L72.9427 70.3482C73.0405 70.3482 73.1337 70.3094 73.2025 70.2406 73.2714 70.1717 73.3102 70.078 73.3102 69.9807L73.3257 69.9807Z" fill="#42E8CA" transform="scale(1 1.00213)"/><path d="M39.3428 64.1882C39.2612 64.0697 39.1575 63.9677 39.0374 63.888L29.8388 54.9327C28.8346 53.9285 27.9805 54.2805 27.9805 55.8386L27.9805 59.8607 27.9805 60.896 27.9805 62.1384C27.2295 62.2486 26.4721 62.3092 25.7132 62.3195 22.3343 62.3035 19.038 61.2739 16.2502 59.3648 13.4625 57.4557 11.3114 54.7541 10.0751 51.6094L4.13764 51.6094C5.45719 56.3319 8.28173 60.4943 12.1823 63.4651 16.0828 66.4364 20.8463 68.053 25.7494 68.0706 26.5478 68.0473 27.3443 67.9816 28.1358 67.8739L28.1358 68.2414 28.1358 69.4631 28.1358 73.1798C28.1358 75.0433 28.7362 75.3435 29.9941 74.0856L38.9908 65.8033C39.1209 65.721 39.2334 65.6138 39.3217 65.4881 39.41 65.3623 39.4724 65.2199 39.5051 65.0693 39.5379 64.9192 39.5404 64.7639 39.5125 64.6127 39.4847 64.461 39.427 64.3171 39.3428 64.1882Z" fill="#258277" transform="scale(1 1.00213)"/></g></g></svg>