<svg width="117" height="110" xmlns="http://www.w3.org/2000/svg" xmlns:xlink="http://www.w3.org/1999/xlink" xml:space="preserve" overflow="hidden"><defs><linearGradient x1="56.0075" y1="102.685" x2="56.0075" y2="-15.7369" gradientUnits="userSpaceOnUse" spreadMethod="pad" id="fill0"><stop offset="0" stop-color="#5E9624"/><stop offset="0.881" stop-color="#86D633"/><stop offset="1" stop-color="#86D633"/></linearGradient></defs><g><path d="M91.1048 12.0106 20.9175 12.0106C16.5549 12.0106 13.0182 15.5473 13.0182 19.91L13.0182 90.0969C13.0182 94.4598 16.5549 97.9962 20.9175 97.9962L91.1048 97.9962C95.4669 97.9962 99.0041 94.4598 99.0041 90.0969L99.0041 19.91C99.0041 15.5473 95.4669 12.0106 91.1048 12.0106Z" fill="url(#fill0)" transform="scale(1.00107 1)"/><path d="M90.1285 37.2625 90.1285 23.7669C90.1285 22.6278 89.2052 21.7044 88.066 21.7044L24.2386 21.7044C23.0995 21.7044 22.1761 22.6278 22.1761 23.7669L22.1761 37.2625C22.1761 38.4016 23.0995 39.325 24.2386 39.325L88.066 39.325C89.2052 39.325 90.1285 38.4016 90.1285 37.2625Z" fill="#B4EC36" transform="scale(1.00107 1)"/><path d="M90.1285 61.7444 90.1285 48.2488C90.1285 47.1096 89.2052 46.1862 88.066 46.1862L24.2386 46.1862C23.0995 46.1862 22.1761 47.1096 22.1761 48.2488L22.1761 61.7444C22.1761 62.8835 23.0995 63.8069 24.2386 63.8069L88.066 63.8069C89.2052 63.8069 90.1285 62.8835 90.1285 61.7444Z" fill="#B4EC36" transform="scale(1.00107 1)"/><path d="M90.1216 86.2331 90.1216 72.7375C90.1216 71.5983 89.1983 70.675 88.0591 70.675L24.2319 70.675C23.0928 70.675 22.1694 71.5983 22.1694 72.7375L22.1694 86.2331C22.1694 87.3723 23.0928 88.2956 24.2319 88.2956L88.0591 88.2956C89.1983 88.2956 90.1216 87.3723 90.1216 86.2331Z" fill="#B4EC36" transform="scale(1.00107 1)"/><path d="M88.0309 45.6775C89.3619 44.3608 90.1154 42.5696 90.1257 40.6977 90.1361 38.8257 89.4025 37.0263 88.0859 35.695L88.0309 35.64 75.8553 23.4713C75.2008 22.8154 74.4239 22.2951 73.568 21.9401 72.7121 21.5851 71.7943 21.4024 70.8675 21.4024 69.9414 21.4024 69.0236 21.5851 68.1679 21.9401 67.312 22.2951 66.5345 22.8154 65.88 23.4713L53.7112 35.64C52.3995 36.9812 51.6649 38.7827 51.6649 40.6587 51.6649 42.5348 52.3995 44.3363 53.7112 45.6775L63.8725 55.8387C64.2274 56.2083 64.4247 56.7014 64.4225 57.2137L64.4225 76.1062C64.4107 76.4252 64.47 76.7436 64.596 77.0371 64.722 77.3307 64.9117 77.5926 65.1512 77.8044L69.7572 82.4313C70.0294 82.7296 70.4089 82.9077 70.8118 82.9276 71.2154 82.9469 71.61 82.8053 71.9091 82.5344L72.0122 82.4313 76.4534 77.99 79.1278 75.3156C79.2969 75.1458 79.3918 74.9155 79.3918 74.6763 79.3918 74.437 79.2969 74.2067 79.1278 74.0369L77.2441 72.1463C77.1478 72.0617 77.0694 71.9593 77.0131 71.8438 76.9567 71.7289 76.9244 71.6038 76.9161 71.4759 76.9086 71.3481 76.9264 71.2202 76.9684 71.0992 77.011 70.9782 77.0763 70.8668 77.1616 70.7712L77.2441 70.6887 79.1278 68.805C79.3011 68.6246 79.3973 68.3845 79.3973 68.1347 79.3973 67.8849 79.3011 67.6448 79.1278 67.4644L77.2441 65.5738C77.1519 65.497 77.0763 65.4026 77.0206 65.2962 76.9649 65.1898 76.9312 65.0735 76.9209 64.9539 76.9106 64.8344 76.9244 64.7139 76.9608 64.5996 76.9979 64.4854 77.0564 64.3795 77.1341 64.2881L77.2441 64.1781 79.1278 62.2325C79.2969 62.0625 79.3918 61.8327 79.3918 61.5931 79.3918 61.3536 79.2969 61.1238 79.1278 60.9538L76.4534 58.2725 76.4534 57.3031 88.0309 45.6775ZM70.8434 26.4275C71.6375 26.4275 72.4144 26.663 73.0744 27.1041 73.7344 27.5453 74.2493 28.1724 74.5532 28.906 74.8571 29.6397 74.9368 30.447 74.7814 31.2258 74.6268 32.0046 74.2445 32.7201 73.6828 33.2815 73.1211 33.843 72.4061 34.2254 71.6272 34.3804 70.8482 34.5353 70.0411 34.4558 69.3076 34.1519 68.5736 33.848 67.9466 33.3334 67.5054 32.6731 67.0642 32.0128 66.8287 31.2366 66.8287 30.4425 66.8232 29.9098 66.924 29.3813 67.1251 28.888 67.3263 28.3946 67.6237 27.9464 68.0001 27.5694 68.3765 27.1923 68.8242 26.8941 69.3172 26.6921 69.8101 26.4902 70.3388 26.3885 70.8709 26.3931L70.8434 26.4275Z" fill="#FFFFFF" transform="scale(1.00107 1)"/></g></svg>