<svg width="80" height="80" xmlns="http://www.w3.org/2000/svg" xmlns:xlink="http://www.w3.org/1999/xlink" xml:space="preserve" overflow="hidden"><defs><linearGradient x1="49.7534" y1="56.6301" x2="49.7534" y2="25.0725" gradientUnits="userSpaceOnUse" spreadMethod="pad" id="fill0"><stop offset="0" stop-color="#341A6E"/><stop offset="0.356" stop-color="#552F99"/><stop offset="1" stop-color="#A67AF4"/></linearGradient></defs><g><path d="M34.2992 34.1972 34.2992 12.7996C34.2992 12.1443 34.0389 11.5159 33.5755 11.0526 33.1122 10.5893 32.4838 10.329 31.8286 10.329L22.0262 10.329C21.9462 11.1337 21.8239 11.9337 21.8239 12.7431 21.838 17.0993 22.9982 21.3752 25.188 25.1411 27.3778 28.907 30.5201 32.0303 34.2992 34.1972Z" fill="#B796F9"/><path d="M16.177 12.7431C16.177 11.9337 16.3135 11.1384 16.3746 10.329L9.87581 10.329C9.22056 10.329 8.59214 10.5893 8.12885 11.0526 7.66551 11.5159 7.40522 12.1443 7.40522 12.7996L7.40522 34.7337C7.40522 35.0581 7.46913 35.3794 7.59327 35.6792 7.71746 35.9789 7.89944 36.2512 8.12885 36.4807 8.35826 36.7101 8.63059 36.892 8.93035 37.0162 9.23012 37.1404 9.55134 37.2043 9.87581 37.2043L28.6335 37.2043C24.7847 34.3891 21.652 30.7084 19.4881 26.4592 17.3243 22.21 16.19 17.5115 16.177 12.7431Z" fill="#B796F9"/><path d="M21.8239 68.216C21.8458 69.2729 21.9338 70.3275 22.0874 71.3736L31.8286 71.3736C32.4838 71.3736 33.1122 71.1134 33.5755 70.6499 34.0389 70.1868 34.2992 69.5581 34.2992 68.9031L34.2992 46.969C34.2992 46.9078 34.2662 46.856 34.2615 46.7996 30.4953 48.9685 27.3644 52.088 25.1817 55.8461 22.9991 59.6047 21.8412 63.8701 21.8239 68.216Z" fill="#B796F9"/><path d="M27.6406 44.4796 9.87586 44.4796C9.54984 44.4796 9.22701 44.5441 8.92607 44.6694 8.62508 44.7947 8.35186 44.9784 8.12221 45.2098 7.89257 45.4412 7.71096 45.7158 7.58791 46.0177 7.46489 46.3197 7.40282 46.643 7.40527 46.969L7.40527 68.9219C7.40527 69.5769 7.6656 70.2057 8.12889 70.6687 8.35831 70.8984 8.63068 71.0805 8.9304 71.2042 9.23017 71.3285 9.55144 71.3925 9.87586 71.3925L16.4641 71.3925C16.3226 70.3449 16.2346 69.2913 16.2006 68.2348 16.2021 63.6706 17.2312 59.1652 19.2116 55.0527 21.192 50.9402 24.0729 47.3266 27.6406 44.4796Z" fill="#B796F9"/><path d="M67.3816 25.0725 32.1348 25.0725C30.5338 25.0725 29.236 26.3704 29.236 27.9713L29.236 53.7313C29.236 55.3322 30.5338 56.6301 32.1348 56.6301L67.3816 56.6301C68.9831 56.6301 70.2805 55.3322 70.2805 53.7313L70.2805 27.9713C70.2805 26.3704 68.9831 25.0725 67.3816 25.0725Z" fill="url(#fill0)"/><path d="M57.6268 40.1831C57.5614 40.0896 57.48 40.0084 57.3868 39.9431L50.1351 32.8513C49.3445 32.056 48.6668 32.3337 48.6668 33.5666L48.6668 36.7478 48.6668 37.5243C48.0268 37.576 47.3915 37.6372 46.7466 37.6372 42.3668 37.6117 38.0731 36.4177 34.309 34.1784L34.309 34.7337C34.309 35.0581 34.2451 35.3794 34.1209 35.6792 33.9968 35.9789 33.8148 36.2512 33.5854 36.4807 33.356 36.7101 33.0836 36.892 32.7839 37.0162 32.4841 37.1404 32.1628 37.2043 31.8384 37.2043L28.6337 37.2043C30.3013 38.4696 32.0942 39.5608 33.9843 40.4608 31.7152 41.5315 29.5849 42.8747 27.6408 44.4608L31.829 44.4608C32.4507 44.4643 33.0479 44.704 33.4995 45.1312 33.9512 45.5585 34.2237 46.1414 34.2619 46.7619 38.0352 44.5096 42.3429 43.3088 46.7372 43.2843 47.4245 43.2843 48.1021 43.3502 48.7845 43.4019L48.7845 44.3431 48.7845 47.2984C48.7845 48.7666 49.2551 49.0066 50.2527 48.0136L57.368 41.4537C57.4692 41.3881 57.5562 41.3028 57.6245 41.2031 57.6922 41.1033 57.7398 40.991 57.7638 40.8727 57.7882 40.7544 57.7882 40.6325 57.7647 40.5141 57.7412 40.3957 57.6941 40.2832 57.6268 40.1831Z" fill="#FFFFFF"/><path d="M31.8288 44.4796 27.6406 44.4796C24.0711 47.3224 21.1872 50.9318 19.2028 55.0409 17.2183 59.1501 16.1842 63.6527 16.177 68.216 16.2111 69.2725 16.2991 70.3261 16.4406 71.3736L22.0876 71.3736C21.9341 70.3275 21.846 69.2729 21.8241 68.216 21.8382 63.8668 22.9944 59.5977 25.1773 55.8358 27.36 52.0739 30.4928 48.9511 34.2617 46.7808 34.2236 46.1602 33.9511 45.5773 33.4994 45.1501 33.0477 44.7228 32.4505 44.4832 31.8288 44.4796Z" fill="#FFFFFF"/><path d="M34.2993 34.7337 34.2993 34.1972C30.5202 32.0303 27.3779 28.907 25.1881 25.1411 22.9983 21.3752 21.8381 17.0993 21.824 12.7431 21.824 11.9337 21.9464 11.1337 22.0264 10.329L16.3793 10.329C16.3181 11.1384 16.1816 11.9337 16.1816 12.7431 16.1932 17.5131 17.3267 22.2135 19.4906 26.4644 21.6545 30.7153 24.7881 34.3976 28.6381 37.2137L31.8287 37.2137C32.1539 37.2137 32.476 37.1495 32.7763 37.0247 33.0767 36.9 33.3495 36.7172 33.579 36.4867 33.8086 36.2563 33.9903 35.9829 34.1139 35.682 34.2376 35.3812 34.3005 35.0589 34.2993 34.7337Z" fill="#FFFFFF"/></g></svg>