<svg width="80" height="75" xmlns="http://www.w3.org/2000/svg" xmlns:xlink="http://www.w3.org/1999/xlink" xml:space="preserve" overflow="hidden"><defs><linearGradient x1="48.727" y1="37.1156" x2="48.727" y2="-11.4047" gradientUnits="userSpaceOnUse" spreadMethod="pad" id="fill0"><stop offset="0" stop-color="#365615"/><stop offset="0.087" stop-color="#365615"/><stop offset="0.455" stop-color="#5E9624"/><stop offset="0.841" stop-color="#76BC2D"/><stop offset="1" stop-color="#76BC2D"/></linearGradient></defs><g><path d="M61.6458 31.4062 56.0208 31.4062 56.0208 45.6797 42.1364 45.6797 42.1364 45.5766 42.1364 44.7516 42.1364 41.5828C42.1364 40.3594 41.4614 40.0781 40.6692 40.8703L33.4223 47.9016C33.3271 47.9639 33.2457 48.0455 33.1833 48.1406 33.0483 48.3398 32.9976 48.5841 33.0424 48.8203 33.0872 49.0566 33.2238 49.2656 33.4223 49.4016L40.5098 55.9359C41.4989 56.925 41.977 56.6859 41.977 55.2234L41.977 52.3125 41.977 51.3516 41.977 51.3047 61.6036 51.3047 61.6458 31.4062Z" fill="#999999" transform="scale(1.00392 1)"/><path d="M29.8647 7.44844 67.5895 7.44844C68.1877 7.38286 68.7881 7.55264 69.263 7.92188 69.7383 8.29111 70.0509 8.83078 70.1348 9.42656L70.1348 21.5203C70.0509 22.1161 69.7383 22.6558 69.263 23.025 68.7881 23.3942 68.1877 23.564 67.5895 23.4984L29.8647 23.4984C29.2665 23.564 28.6664 23.3942 28.1913 23.025 27.7162 22.6558 27.4035 22.1161 27.3193 21.5203L27.3193 9.42656C27.4035 8.83078 27.7162 8.29111 28.1913 7.92188 28.6664 7.55264 29.2665 7.38286 29.8647 7.44844Z" fill="url(#fill0)" transform="scale(1.00392 1)"/><path d="M25.3409 24.7406 13.2471 24.7406C12.1546 24.7406 11.269 25.6263 11.269 26.7188L11.269 65.5781C11.269 66.6708 12.1546 67.5563 13.2471 67.5563L25.3409 67.5563C26.4334 67.5563 27.319 66.6708 27.319 65.5781L27.319 26.7188C27.319 25.6263 26.4334 24.7406 25.3409 24.7406Z" fill="#B4EC36" transform="scale(1.00392 1)"/></g></svg>