<svg width="129" height="121" xmlns="http://www.w3.org/2000/svg" xmlns:xlink="http://www.w3.org/1999/xlink" xml:space="preserve" overflow="hidden"><g><path d="M99.6858 39.9754 24.636 39.9754C21.8376 39.9754 19.5691 42.2439 19.5691 45.0422L19.5691 75.9577C19.5691 78.7559 21.8376 81.0246 24.636 81.0246L99.6858 81.0246C102.485 81.0246 104.753 78.7559 104.753 75.9577L104.753 45.0422C104.753 42.2439 102.485 39.9754 99.6858 39.9754Z" fill="#B4EC36" transform="scale(1.0034 1)"/><path d="M77.6185 17.908 46.7031 17.908C43.9047 17.908 41.6362 20.1765 41.6362 22.9749L41.6362 98.0251C41.6362 100.823 43.9047 103.092 46.7031 103.092L77.6185 103.092C80.4166 103.092 82.6854 100.823 82.6854 98.0251L82.6854 22.9749C82.6854 20.1765 80.4166 17.908 77.6185 17.908Z" stroke="#5E9624" stroke-width="6.80625" stroke-miterlimit="10" fill="none" transform="scale(1.0034 1)"/></g></svg>