<?xml version="1.0" encoding="utf-8"?>
<!-- Generator: Adobe Illustrator 27.4.0, SVG Export Plug-In . SVG Version: 6.00 Build 0)  -->
<svg version="1.1" xmlns="http://www.w3.org/2000/svg" xmlns:xlink="http://www.w3.org/1999/xlink" x="0px" y="0px"
	 viewBox="0 0 347.6 237.6" enable-background="new 0 0 347.6 237.6" xml:space="preserve">
<symbol  id="PIPELINE" viewBox="-32 -12.266 64 24.531">
	<linearGradient id="SVGID_1_" gradientUnits="userSpaceOnUse" x1="0" y1="-12.2655" x2="1.502093e-15" y2="12.2655">
		<stop  offset="0" style="stop-color:#1B89B2"/>
		<stop  offset="1" style="stop-color:#51C8E8"/>
	</linearGradient>
	<path fill="url(#SVGID_1_)" d="M26.096,12.266h-51.448v0h0C-29.08,12.265-32,6.878-32,0s2.92-12.265,6.648-12.265h0v0h51.448
		C29.356-12.266,32-6.363,32,0S29.356,12.266,26.096,12.266z"/>
	<g>
		
			<linearGradient id="SVGID_00000165233465412357533740000009730418013556378755_" gradientUnits="userSpaceOnUse" x1="-31.461" y1="-6.1136" x2="-19.2338" y2="6.1136">
			<stop  offset="0" style="stop-color:#B3B4B4"/>
			<stop  offset="1" style="stop-color:#4F4F4F"/>
		</linearGradient>
		<ellipse fill="url(#SVGID_00000165233465412357533740000009730418013556378755_)" cx="-25.347" cy="0" rx="5.575" ry="10.879"/>
	</g>
</symbol>
<g id="Shapes">
	<rect fill="#FFFFFF" width="347.6" height="237.6"/>
	<g id="Wrench_tool_x28_s_x29_">
	</g>
	<g id="user2">
	</g>
	<g id="user2_1_">
	</g>
	<g id="user2_4_">
	</g>
	<g id="user2_3_">
	</g>
	<g id="user2_2_">
	</g>
	<g id="Internet_2">
	</g>
	<g id="Enterprise">
	</g>
	<g id="Tunnel__x28_stackable_x29_">
	</g>
	<g id="New_Symbol">
	</g>
	<g id="New_Symbol_1">
	</g>
	<g id="Files">
	</g>
	<g id="BlobBlock">
	</g>
	<g id="E_x5F_Enterprise">
	</g>
	<g id="E_x5F_AD_FS">
	</g>
	<g id="C_x5F_Azure_Active_Directory">
	</g>
	<g>
		<g opacity="0.23">
			<rect x="14.2" y="31.8" width="321.751" height="193.6"/>
			<rect x="14.2" y="31.8" opacity="0.45" width="321.751" height="193.6"/>
		</g>
		<g>
			<rect x="13.2" y="30.8" fill="#FFFFFF" width="321.751" height="193.6"/>
			<rect x="13.2" y="30.8" opacity="0.45" fill="#B3B3B3" width="321.751" height="193.6"/>
		</g>
	</g>
	<line fill="none" stroke="#1B93EB" stroke-miterlimit="10" x1="16.642" y1="127.6" x2="331.509" y2="127.6"/>
	<g>
		
			<linearGradient id="SVGID_00000114785021267038682900000009944444126847554708_" gradientUnits="userSpaceOnUse" x1="174.0756" y1="-297" x2="174.0756" y2="-271" gradientTransform="matrix(1 0 0 -1 0 -156.4)">
			<stop  offset="0" style="stop-color:#0078D4"/>
			<stop  offset="0.156" style="stop-color:#1380DA"/>
			<stop  offset="0.528" style="stop-color:#3C91E5"/>
			<stop  offset="0.822" style="stop-color:#559CEC"/>
			<stop  offset="1" style="stop-color:#5EA0EF"/>
		</linearGradient>
		<path fill="url(#SVGID_00000114785021267038682900000009944444126847554708_)" d="M192.751,116.443
			c0.093-0.906-0.55-1.722-1.453-1.843h-34.445c-0.903,0.121-1.546,0.937-1.453,1.843v22.315c-0.093,0.906,0.55,1.722,1.453,1.843
			h34.445c0.903-0.121,1.546-0.937,1.453-1.843V116.443z"/>
		<rect x="157.465" y="117.181" fill="#50E6FF" width="10.122" height="5.634"/>
		<rect x="169.129" y="117.181" fill="#C3F1FF" width="10.122" height="5.634"/>
		<rect x="180.79" y="117.181" fill="#50E6FF" width="10.122" height="5.634"/>
		<rect x="157.465" y="124.749" fill="#50E6FF" width="4.206" height="5.634"/>
		<rect x="186.706" y="124.749" fill="#C3F1FF" width="4.206" height="5.634"/>
		<rect x="163.213" y="124.749" fill="#C3F1FF" width="10.122" height="5.634"/>
		<rect x="174.877" y="124.749" fill="#50E6FF" width="10.122" height="5.634"/>
		<rect x="157.465" y="132.319" fill="#50E6FF" width="10.122" height="5.634"/>
		<rect x="169.129" y="132.319" fill="#C3F1FF" width="10.122" height="5.634"/>
		<rect x="180.79" y="132.319" fill="#50E6FF" width="10.122" height="5.634"/>
	</g>
	<g>
		<g>
			<g opacity="0.23">
				<rect x="93.533" y="53.298" width="44" height="44"/>
			</g>
			<g>
				<rect x="92.533" y="52.298" fill="#FFFFFF" width="44" height="44"/>
			</g>
		</g>
		
			<linearGradient id="SVGID_00000121999608117763635420000013431781312522789021_" gradientUnits="userSpaceOnUse" x1="114.5326" y1="-242.6976" x2="114.5326" y2="-218.6976" gradientTransform="matrix(1 0 0 -1 0 -156.4)">
			<stop  offset="0" style="stop-color:#32BEDD"/>
			<stop  offset="0.576" style="stop-color:#32CEEF"/>
			<stop  offset="1" style="stop-color:#32D4F5"/>
		</linearGradient>
		<path fill="url(#SVGID_00000121999608117763635420000013431781312522789021_)" d="M126.533,75.594v-2.736l-0.384-0.144
			l-2.933-0.96l-0.768-1.867l1.488-3.168l-1.92-1.92l-0.384,0.192l-2.731,1.387l-1.867-0.768l-1.205-3.312h-2.736l-0.144,0.384
			l-0.96,2.933l-1.867,0.768l-3.125-1.493l-1.92,1.92l0.192,0.384l1.397,2.736l-0.768,1.867l-3.365,1.205v2.736l0.384,0.144
			l2.933,0.96l0.768,1.867l-1.493,3.173l1.92,1.92l0.384-0.192l2.736-1.392l1.867,0.768l1.205,3.312h2.736l0.144-0.384l0.96-2.933
			l1.867-0.768l3.168,1.488l1.92-1.92l-0.192-0.384l-1.387-2.731l0.768-1.867L126.533,75.594z M114.533,79.564
			c-2.909,0-5.267-2.358-5.267-5.267s2.358-5.267,5.267-5.267s5.267,2.358,5.267,5.267l0,0c0.002,2.906-2.352,5.264-5.259,5.267
			C114.538,79.564,114.535,79.564,114.533,79.564z"/>
	</g>
	<g>
		<g>
			<g opacity="0.23">
				<rect x="146.2" y="53.298" width="44" height="44"/>
			</g>
			<g>
				<rect x="145.2" y="52.298" fill="#FFFFFF" width="44" height="44"/>
			</g>
		</g>
		
			<linearGradient id="SVGID_00000013886020310459701670000007508195466361857152_" gradientUnits="userSpaceOnUse" x1="167.2" y1="-242.6976" x2="167.2" y2="-218.6976" gradientTransform="matrix(1 0 0 -1 0 -156.4)">
			<stop  offset="0" style="stop-color:#32BEDD"/>
			<stop  offset="0.576" style="stop-color:#32CEEF"/>
			<stop  offset="1" style="stop-color:#32D4F5"/>
		</linearGradient>
		<path fill="url(#SVGID_00000013886020310459701670000007508195466361857152_)" d="M179.2,75.594v-2.736l-0.384-0.144l-2.933-0.96
			l-0.768-1.867l1.488-3.168l-1.92-1.92l-0.384,0.192l-2.731,1.387l-1.867-0.768l-1.205-3.312h-2.736l-0.144,0.384l-0.96,2.933
			l-1.867,0.768l-3.125-1.493l-1.92,1.92l0.192,0.384l1.397,2.736l-0.768,1.867l-3.365,1.205v2.736l0.384,0.144l2.933,0.96
			l0.768,1.867l-1.493,3.173l1.92,1.92l0.384-0.192l2.736-1.392l1.867,0.768l1.205,3.312h2.736l0.144-0.384l0.96-2.933l1.867-0.768
			l3.168,1.488l1.92-1.92l-0.192-0.384l-1.387-2.731l0.768-1.867L179.2,75.594z M167.2,79.564c-2.909,0-5.267-2.358-5.267-5.267
			s2.358-5.267,5.267-5.267c2.909,0,5.267,2.358,5.267,5.267l0,0c0.002,2.906-2.352,5.264-5.259,5.267
			C167.205,79.564,167.203,79.564,167.2,79.564z"/>
	</g>
	<g>
		<g>
			<g opacity="0.23">
				<rect x="199" y="53.298" width="44" height="44"/>
			</g>
			<g>
				<rect x="198" y="52.298" fill="#FFFFFF" width="44" height="44"/>
			</g>
		</g>
		
			<linearGradient id="SVGID_00000047769688353693173680000017236811908284550556_" gradientUnits="userSpaceOnUse" x1="220" y1="-242.6976" x2="220" y2="-218.6976" gradientTransform="matrix(1 0 0 -1 0 -156.4)">
			<stop  offset="0" style="stop-color:#32BEDD"/>
			<stop  offset="0.576" style="stop-color:#32CEEF"/>
			<stop  offset="1" style="stop-color:#32D4F5"/>
		</linearGradient>
		<path fill="url(#SVGID_00000047769688353693173680000017236811908284550556_)" d="M232,75.594v-2.736l-0.384-0.144l-2.933-0.96
			l-0.768-1.867l1.488-3.168l-1.92-1.92l-0.384,0.192l-2.731,1.387l-1.867-0.768l-1.205-3.312h-2.736l-0.144,0.384l-0.96,2.933
			l-1.867,0.768l-3.125-1.493l-1.92,1.92l0.192,0.384l1.397,2.736l-0.768,1.867L208,73.002v2.736l0.384,0.144l2.933,0.96
			l0.768,1.867l-1.493,3.173l1.92,1.92l0.384-0.192l2.736-1.392l1.867,0.768l1.205,3.312h2.736l0.144-0.384l0.96-2.933l1.867-0.768
			l3.168,1.488l1.92-1.92l-0.192-0.384l-1.387-2.731l0.768-1.867L232,75.594z M220,79.564c-2.909,0-5.267-2.358-5.267-5.267
			s2.358-5.267,5.267-5.267c2.909,0,5.267,2.358,5.267,5.267l0,0c0.002,2.906-2.352,5.264-5.259,5.267
			C220.005,79.564,220.003,79.564,220,79.564z"/>
	</g>
	<g>
		<g>
			<g opacity="0.23">
				<rect x="251.8" y="53.298" width="44" height="44"/>
			</g>
			<g>
				<rect x="250.8" y="52.298" fill="#FFFFFF" width="44" height="44"/>
			</g>
		</g>
		
			<linearGradient id="SVGID_00000160885537916361085110000004767723123405606833_" gradientUnits="userSpaceOnUse" x1="272.8" y1="-242.6976" x2="272.8" y2="-218.6976" gradientTransform="matrix(1 0 0 -1 0 -156.4)">
			<stop  offset="0" style="stop-color:#32BEDD"/>
			<stop  offset="0.576" style="stop-color:#32CEEF"/>
			<stop  offset="1" style="stop-color:#32D4F5"/>
		</linearGradient>
		<path fill="url(#SVGID_00000160885537916361085110000004767723123405606833_)" d="M284.8,75.594v-2.736l-0.384-0.144l-2.933-0.96
			l-0.768-1.867l1.488-3.168l-1.92-1.92l-0.384,0.192l-2.731,1.387l-1.867-0.768l-1.205-3.312h-2.736l-0.144,0.384l-0.96,2.933
			l-1.867,0.768l-3.125-1.493l-1.92,1.92l0.192,0.384l1.397,2.736l-0.768,1.867l-3.365,1.205v2.736l0.384,0.144l2.933,0.96
			l0.768,1.867l-1.493,3.173l1.92,1.92l0.384-0.192l2.736-1.392l1.867,0.768l1.205,3.312h2.736l0.144-0.384l0.96-2.933l1.867-0.768
			l3.168,1.488l1.92-1.92l-0.192-0.384l-1.387-2.731l0.768-1.867L284.8,75.594z M272.8,79.564c-2.909,0-5.267-2.358-5.267-5.267
			s2.358-5.267,5.267-5.267c2.909,0,5.267,2.358,5.267,5.267l0,0c0.002,2.906-2.352,5.264-5.259,5.267
			C272.805,79.564,272.803,79.564,272.8,79.564z"/>
	</g>
	<g>
		<g>
			<g>
				<g opacity="0.23">
					<rect x="146.2" y="158.898" width="44" height="44"/>
				</g>
				<g>
					<rect x="145.2" y="157.898" fill="#FFFFFF" width="44" height="44"/>
				</g>
			</g>
			
				<linearGradient id="SVGID_00000135684535325843437340000002341189457291071925_" gradientUnits="userSpaceOnUse" x1="167.2" y1="-348.2975" x2="167.2" y2="-324.2975" gradientTransform="matrix(1 0 0 -1 0 -156.4)">
				<stop  offset="0" style="stop-color:#32BEDD"/>
				<stop  offset="0.576" style="stop-color:#32CEEF"/>
				<stop  offset="1" style="stop-color:#32D4F5"/>
			</linearGradient>
			<path fill="url(#SVGID_00000135684535325843437340000002341189457291071925_)" d="M179.2,181.194v-2.736l-0.384-0.144
				l-2.933-0.96l-0.768-1.867l1.488-3.168l-1.92-1.92l-0.384,0.192l-2.731,1.387l-1.867-0.768l-1.205-3.312h-2.736l-0.144,0.384
				l-0.96,2.933l-1.867,0.768l-3.125-1.493l-1.92,1.92l0.192,0.384l1.397,2.736l-0.768,1.867l-3.365,1.205v2.736l0.384,0.144
				l2.933,0.96l0.768,1.867l-1.493,3.173l1.92,1.92l0.384-0.192l2.736-1.392l1.867,0.768l1.205,3.312h2.736l0.144-0.384l0.96-2.933
				l1.867-0.768l3.168,1.488l1.92-1.92l-0.192-0.384l-1.387-2.731l0.768-1.867L179.2,181.194z M167.2,185.164
				c-2.909,0-5.267-2.358-5.267-5.267c0-2.909,2.358-5.267,5.267-5.267c2.909,0,5.267,2.358,5.267,5.267l0,0
				c0.002,2.906-2.352,5.264-5.259,5.267C167.205,185.164,167.203,185.164,167.2,185.164z"/>
		</g>
		<g>
			<g>
				<g opacity="0.23">
					<rect x="199" y="158.898" width="44" height="44"/>
				</g>
				<g>
					<rect x="198" y="157.898" fill="#FFFFFF" width="44" height="44"/>
				</g>
			</g>
			
				<linearGradient id="SVGID_00000089570081595020529040000001036789608809446798_" gradientUnits="userSpaceOnUse" x1="220" y1="-348.2975" x2="220" y2="-324.2975" gradientTransform="matrix(1 0 0 -1 0 -156.4)">
				<stop  offset="0" style="stop-color:#32BEDD"/>
				<stop  offset="0.576" style="stop-color:#32CEEF"/>
				<stop  offset="1" style="stop-color:#32D4F5"/>
			</linearGradient>
			<path fill="url(#SVGID_00000089570081595020529040000001036789608809446798_)" d="M232,181.194v-2.736l-0.384-0.144l-2.933-0.96
				l-0.768-1.867l1.488-3.168l-1.92-1.92l-0.384,0.192l-2.731,1.387l-1.867-0.768l-1.205-3.312h-2.736l-0.144,0.384l-0.96,2.933
				l-1.867,0.768l-3.125-1.493l-1.92,1.92l0.192,0.384l1.397,2.736l-0.768,1.867L208,178.602v2.736l0.384,0.144l2.933,0.96
				l0.768,1.867l-1.493,3.173l1.92,1.92l0.384-0.192l2.736-1.392l1.867,0.768l1.205,3.312h2.736l0.144-0.384l0.96-2.933l1.867-0.768
				l3.168,1.488l1.92-1.92l-0.192-0.384l-1.387-2.731l0.768-1.867L232,181.194z M220,185.164c-2.909,0-5.267-2.358-5.267-5.267
				c0-2.909,2.358-5.267,5.267-5.267c2.909,0,5.267,2.358,5.267,5.267l0,0c0.002,2.906-2.352,5.264-5.259,5.267
				C220.005,185.164,220.003,185.164,220,185.164z"/>
		</g>
		<g>
			<g>
				<g opacity="0.23">
					<rect x="251.8" y="158.898" width="44" height="44"/>
				</g>
				<g>
					<rect x="250.8" y="157.898" fill="#FFFFFF" width="44" height="44"/>
				</g>
			</g>
			
				<linearGradient id="SVGID_00000108283683137948873610000001310127909676783772_" gradientUnits="userSpaceOnUse" x1="272.8" y1="-348.2975" x2="272.8" y2="-324.2975" gradientTransform="matrix(1 0 0 -1 0 -156.4)">
				<stop  offset="0" style="stop-color:#32BEDD"/>
				<stop  offset="0.576" style="stop-color:#32CEEF"/>
				<stop  offset="1" style="stop-color:#32D4F5"/>
			</linearGradient>
			<path fill="url(#SVGID_00000108283683137948873610000001310127909676783772_)" d="M284.8,181.194v-2.736l-0.384-0.144
				l-2.933-0.96l-0.768-1.867l1.488-3.168l-1.92-1.92l-0.384,0.192l-2.731,1.387l-1.867-0.768l-1.205-3.312h-2.736l-0.144,0.384
				l-0.96,2.933l-1.867,0.768l-3.125-1.493l-1.92,1.92l0.192,0.384l1.397,2.736l-0.768,1.867l-3.365,1.205v2.736l0.384,0.144
				l2.933,0.96l0.768,1.867l-1.493,3.173l1.92,1.92l0.384-0.192l2.736-1.392l1.867,0.768l1.205,3.312h2.736l0.144-0.384l0.96-2.933
				l1.867-0.768l3.168,1.488l1.92-1.92l-0.192-0.384l-1.387-2.731l0.768-1.867L284.8,181.194z M272.8,185.164
				c-2.909,0-5.267-2.358-5.267-5.267c0-2.909,2.358-5.267,5.267-5.267c2.909,0,5.267,2.358,5.267,5.267l0,0
				c0.002,2.906-2.352,5.264-5.259,5.267C272.805,185.164,272.803,185.164,272.8,185.164z"/>
		</g>
	</g>
</g>
<g id="Text">
	<g>
		<path fill="#2F2F2F" d="M14.321,21.536v-9.803h3.568c1.094,0,1.935,0.2,2.522,0.602s0.882,0.966,0.882,1.695
			c0,0.528-0.179,0.991-0.537,1.388s-0.814,0.672-1.371,0.827v0.027c0.697,0.087,1.254,0.344,1.671,0.772s0.625,0.95,0.625,1.565
			c0,0.897-0.321,1.609-0.964,2.137c-0.643,0.525-1.52,0.789-2.632,0.789H14.321z M16.529,13.361v2.324H17.5
			c0.456,0,0.814-0.11,1.077-0.332c0.262-0.221,0.393-0.524,0.393-0.912c0-0.72-0.538-1.08-1.613-1.08H16.529z M16.529,17.325v2.584
			h1.196c0.51,0,0.91-0.118,1.2-0.355s0.434-0.561,0.434-0.971c0-0.392-0.143-0.699-0.427-0.923s-0.683-0.335-1.193-0.335H16.529z"
			/>
		<path fill="#2F2F2F" d="M28.959,21.536h-2.044v-1.005h-0.027c-0.469,0.784-1.165,1.176-2.085,1.176
			c-0.679,0-1.213-0.192-1.603-0.577c-0.39-0.386-0.584-0.899-0.584-1.542c0-1.358,0.804-2.142,2.413-2.352l1.9-0.253
			c0-0.766-0.415-1.148-1.244-1.148c-0.834,0-1.627,0.248-2.379,0.745v-1.627c0.301-0.155,0.712-0.292,1.234-0.41
			s0.997-0.178,1.425-0.178c1.996,0,2.994,0.996,2.994,2.987V21.536z M26.929,18.693v-0.472l-1.271,0.164
			c-0.702,0.091-1.053,0.408-1.053,0.95c0,0.246,0.085,0.447,0.256,0.605c0.171,0.156,0.402,0.235,0.694,0.235
			c0.406,0,0.736-0.14,0.991-0.421C26.802,19.476,26.929,19.121,26.929,18.693z"/>
		<path fill="#2F2F2F" d="M35.973,21.283c-0.488,0.282-1.192,0.424-2.112,0.424c-1.076,0-1.946-0.326-2.611-0.978
			s-0.998-1.492-0.998-2.522c0-1.189,0.356-2.127,1.07-2.813c0.713-0.686,1.667-1.028,2.861-1.028c0.825,0,1.422,0.109,1.791,0.328
			v1.832c-0.451-0.337-0.955-0.506-1.511-0.506c-0.62,0-1.111,0.181-1.473,0.544c-0.362,0.361-0.543,0.862-0.543,1.5
			c0,0.62,0.173,1.106,0.52,1.459c0.346,0.354,0.823,0.53,1.429,0.53c0.538,0,1.064-0.169,1.579-0.506V21.283z"/>
		<path fill="#2F2F2F" d="M44.504,21.536h-2.591l-2.235-3.473h-0.027v3.473h-2.16V11.173h2.16v6.597h0.027l2.085-3.233h2.563
			l-2.509,3.288L44.504,21.536z"/>
		<path fill="#2F2F2F" d="M51.398,18.652h-4.566c0.073,1.017,0.713,1.524,1.921,1.524c0.77,0,1.447-0.183,2.03-0.547v1.559
			c-0.647,0.347-1.488,0.52-2.522,0.52c-1.13,0-2.007-0.313-2.632-0.94c-0.625-0.626-0.937-1.5-0.937-2.621
			c0-1.162,0.337-2.083,1.012-2.762c0.674-0.679,1.504-1.019,2.488-1.019c1.021,0,1.811,0.303,2.369,0.909s0.837,1.429,0.837,2.468
			V18.652z M49.395,17.325c0-1.003-0.406-1.504-1.217-1.504c-0.346,0-0.646,0.144-0.899,0.431c-0.253,0.287-0.407,0.645-0.461,1.073
			H49.395z"/>
		<path fill="#2F2F2F" d="M59.524,21.536H57.37v-3.89c0-1.085-0.387-1.627-1.162-1.627c-0.374,0-0.681,0.144-0.923,0.431
			s-0.362,0.651-0.362,1.094v3.992h-2.16v-7h2.16v1.107h0.027c0.515-0.853,1.265-1.278,2.249-1.278c1.549,0,2.324,0.962,2.324,2.885
			V21.536z"/>
		<path fill="#2F2F2F" d="M68.106,21.536h-2.16v-0.964h-0.027c-0.492,0.757-1.214,1.135-2.167,1.135
			c-0.875,0-1.579-0.309-2.112-0.927c-0.533-0.617-0.8-1.479-0.8-2.587c0-1.157,0.294-2.085,0.882-2.782
			c0.588-0.697,1.358-1.046,2.311-1.046c0.902,0,1.531,0.323,1.887,0.971h0.027v-4.163h2.16V21.536z M65.987,18.132v-0.526
			c0-0.456-0.132-0.834-0.396-1.135s-0.608-0.451-1.032-0.451c-0.479,0-0.852,0.188-1.121,0.563
			c-0.269,0.377-0.403,0.893-0.403,1.549c0,0.615,0.13,1.089,0.39,1.422s0.62,0.499,1.08,0.499c0.438,0,0.794-0.176,1.07-0.526
			S65.987,18.711,65.987,18.132z"/>
		<path fill="#2F2F2F" d="M75.974,20.723h-0.027v4.033h-2.16v-10.22h2.16v1.053h0.027c0.533-0.815,1.283-1.224,2.249-1.224
			c0.907,0,1.607,0.312,2.102,0.933c0.495,0.623,0.742,1.469,0.742,2.54c0,1.167-0.288,2.104-0.865,2.81s-1.343,1.06-2.3,1.06
			C77.058,21.707,76.416,21.379,75.974,20.723z M75.912,17.852v0.561c0,0.483,0.127,0.877,0.383,1.183s0.59,0.458,1.005,0.458
			c0.492,0,0.874-0.19,1.145-0.571c0.271-0.38,0.407-0.919,0.407-1.616c0-1.23-0.479-1.846-1.436-1.846
			c-0.442,0-0.803,0.167-1.083,0.503C76.053,16.857,75.912,17.3,75.912,17.852z"/>
		<path fill="#2F2F2F" d="M85.85,21.707c-1.167,0-2.084-0.327-2.751-0.981c-0.667-0.653-1.001-1.541-1.001-2.662
			c0-1.157,0.346-2.063,1.039-2.717c0.693-0.654,1.629-0.981,2.81-0.981c1.162,0,2.074,0.327,2.734,0.981
			c0.661,0.653,0.991,1.519,0.991,2.594c0,1.162-0.341,2.08-1.022,2.755S87.035,21.707,85.85,21.707z M85.905,16.02
			c-0.51,0-0.907,0.176-1.189,0.526s-0.424,0.848-0.424,1.49c0,1.345,0.542,2.017,1.627,2.017c1.035,0,1.552-0.69,1.552-2.071
			C87.471,16.674,86.949,16.02,85.905,16.02z"/>
		<path fill="#2F2F2F" d="M94.399,21.707c-1.167,0-2.084-0.327-2.751-0.981c-0.667-0.653-1.001-1.541-1.001-2.662
			c0-1.157,0.346-2.063,1.039-2.717c0.693-0.654,1.629-0.981,2.81-0.981c1.162,0,2.074,0.327,2.734,0.981
			c0.661,0.653,0.991,1.519,0.991,2.594c0,1.162-0.341,2.08-1.022,2.755S95.584,21.707,94.399,21.707z M94.454,16.02
			c-0.51,0-0.907,0.176-1.189,0.526s-0.424,0.848-0.424,1.49c0,1.345,0.542,2.017,1.627,2.017c1.035,0,1.552-0.69,1.552-2.071
			C96.019,16.674,95.497,16.02,94.454,16.02z"/>
		<path fill="#2F2F2F" d="M101.772,21.536h-2.16V11.173h2.16V21.536z"/>
	</g>
	<g>
		<path fill="#2F2F2F" d="M36.867,78.862c-1.385,0-2.5-0.458-3.343-1.374c-0.834-0.916-1.251-2.107-1.251-3.575
			c0-1.581,0.426-2.839,1.278-3.773c0.857-0.938,2.017-1.408,3.479-1.408c1.349,0,2.438,0.456,3.268,1.367
			c0.83,0.912,1.244,2.104,1.244,3.575c0,1.6-0.424,2.864-1.271,3.794c-0.201,0.224-0.415,0.415-0.643,0.574l2.755,1.976h-2.085
			l-1.846-1.381C37.971,78.786,37.442,78.862,36.867,78.862z M36.95,69.77c-1.03,0-1.866,0.372-2.509,1.114
			c-0.643,0.743-0.964,1.719-0.964,2.926c0,1.203,0.312,2.177,0.937,2.919c0.629,0.734,1.447,1.101,2.454,1.101
			c1.076,0,1.923-0.351,2.543-1.053c0.62-0.701,0.93-1.684,0.93-2.946c0-1.299-0.301-2.299-0.902-3.001
			C38.836,70.123,38.007,69.77,36.95,69.77z"/>
		<path fill="#2F2F2F" d="M48.972,78.697h-1.121V77.59h-0.027c-0.465,0.848-1.185,1.271-2.16,1.271c-1.668,0-2.502-0.993-2.502-2.98
			v-4.184h1.114v4.006c0,1.477,0.565,2.215,1.695,2.215c0.547,0,0.997-0.201,1.35-0.604s0.53-0.931,0.53-1.583v-4.033h1.121V78.697z
			"/>
		<path fill="#2F2F2F" d="M56.792,75.478H51.85c0.018,0.779,0.228,1.381,0.629,1.805s0.953,0.636,1.654,0.636
			c0.789,0,1.513-0.26,2.174-0.779v1.053c-0.615,0.447-1.429,0.67-2.44,0.67c-0.989,0-1.766-0.317-2.331-0.953
			s-0.848-1.53-0.848-2.684c0-1.089,0.309-1.977,0.926-2.662c0.618-0.687,1.384-1.029,2.3-1.029s1.625,0.297,2.126,0.889
			c0.501,0.593,0.752,1.415,0.752,2.468V75.478z M55.644,74.528c-0.004-0.646-0.161-1.15-0.468-1.511
			c-0.308-0.359-0.735-0.54-1.282-0.54c-0.529,0-0.978,0.189-1.347,0.567c-0.369,0.379-0.597,0.873-0.684,1.483H55.644z"/>
		<path fill="#2F2F2F" d="M62.125,72.832c-0.196-0.15-0.479-0.226-0.848-0.226c-0.479,0-0.878,0.226-1.2,0.677
			s-0.482,1.066-0.482,1.846v3.568h-1.121v-7h1.121v1.442h0.027c0.16-0.492,0.403-0.876,0.731-1.151
			c0.328-0.276,0.695-0.414,1.101-0.414c0.292,0,0.515,0.032,0.67,0.096V72.832z"/>
		<path fill="#2F2F2F" d="M69.467,71.697l-3.22,8.121c-0.574,1.449-1.381,2.174-2.42,2.174c-0.292,0-0.536-0.029-0.731-0.089v-1.005
			c0.242,0.082,0.462,0.123,0.663,0.123c0.565,0,0.989-0.337,1.271-1.012l0.561-1.326l-2.734-6.986H64.1l1.894,5.387
			c0.023,0.068,0.071,0.246,0.144,0.533h0.041c0.023-0.109,0.068-0.282,0.137-0.52l1.989-5.4H69.467z"/>
	</g>
	<g>
		<path fill="#2F2F2F" d="M34.065,184.297h-1.148v-9.803h1.148V184.297z"/>
		<path fill="#2F2F2F" d="M42.139,184.297h-1.121v-3.992c0-1.485-0.542-2.229-1.627-2.229c-0.561,0-1.024,0.211-1.391,0.633
			c-0.367,0.421-0.55,0.953-0.55,1.596v3.992h-1.121v-7h1.121v1.162h0.027c0.529-0.884,1.294-1.326,2.297-1.326
			c0.766,0,1.351,0.247,1.757,0.742c0.406,0.494,0.608,1.209,0.608,2.143V184.297z"/>
		<path fill="#2F2F2F" d="M50.214,183.737c0,2.57-1.23,3.855-3.691,3.855c-0.866,0-1.623-0.164-2.27-0.492v-1.121
			c0.789,0.438,1.541,0.656,2.256,0.656c1.723,0,2.584-0.916,2.584-2.748v-0.766h-0.027c-0.533,0.894-1.335,1.34-2.406,1.34
			c-0.871,0-1.571-0.311-2.102-0.933s-0.796-1.457-0.796-2.506c0-1.189,0.286-2.135,0.858-2.837
			c0.572-0.701,1.354-1.053,2.348-1.053c0.943,0,1.643,0.379,2.099,1.135h0.027v-0.971h1.121V183.737z M49.093,181.132V180.1
			c0-0.556-0.188-1.032-0.564-1.429s-0.844-0.595-1.405-0.595c-0.693,0-1.235,0.252-1.627,0.756
			c-0.392,0.503-0.588,1.209-0.588,2.115c0,0.779,0.188,1.402,0.564,1.87c0.376,0.467,0.874,0.7,1.494,0.7
			c0.629,0,1.141-0.223,1.535-0.67C48.896,182.402,49.093,181.829,49.093,181.132z"/>
		<path fill="#2F2F2F" d="M58.035,181.077h-4.942c0.018,0.779,0.228,1.381,0.629,1.805s0.953,0.636,1.654,0.636
			c0.789,0,1.513-0.26,2.174-0.779v1.053c-0.615,0.447-1.429,0.67-2.44,0.67c-0.989,0-1.766-0.317-2.331-0.953
			s-0.848-1.53-0.848-2.684c0-1.089,0.309-1.977,0.926-2.662c0.618-0.687,1.384-1.029,2.3-1.029s1.625,0.297,2.126,0.889
			c0.501,0.593,0.752,1.415,0.752,2.468V181.077z M56.887,180.127c-0.004-0.646-0.161-1.15-0.468-1.511
			c-0.308-0.359-0.735-0.54-1.282-0.54c-0.529,0-0.978,0.189-1.347,0.567c-0.369,0.379-0.597,0.873-0.684,1.483H56.887z"/>
		<path fill="#2F2F2F" d="M59.277,184.044v-1.203c0.611,0.451,1.283,0.677,2.017,0.677c0.984,0,1.477-0.328,1.477-0.984
			c0-0.187-0.042-0.345-0.126-0.475s-0.198-0.245-0.342-0.346c-0.144-0.1-0.312-0.19-0.506-0.27c-0.194-0.08-0.402-0.163-0.625-0.25
			c-0.31-0.123-0.582-0.247-0.817-0.372c-0.235-0.126-0.431-0.267-0.588-0.424s-0.276-0.336-0.355-0.537
			c-0.08-0.2-0.12-0.435-0.12-0.704c0-0.328,0.075-0.618,0.226-0.871s0.351-0.465,0.602-0.636s0.537-0.3,0.858-0.387
			c0.321-0.086,0.653-0.13,0.995-0.13c0.606,0,1.148,0.105,1.627,0.314v1.135c-0.515-0.337-1.107-0.506-1.777-0.506
			c-0.209,0-0.399,0.024-0.567,0.072s-0.313,0.115-0.434,0.201c-0.121,0.087-0.214,0.19-0.28,0.312
			c-0.066,0.12-0.099,0.254-0.099,0.399c0,0.183,0.033,0.335,0.099,0.458s0.163,0.232,0.291,0.328s0.283,0.183,0.465,0.26
			c0.182,0.078,0.39,0.162,0.622,0.253c0.31,0.119,0.588,0.24,0.834,0.366c0.246,0.125,0.456,0.267,0.629,0.424
			s0.307,0.338,0.4,0.543s0.14,0.449,0.14,0.731c0,0.347-0.076,0.647-0.229,0.902c-0.153,0.256-0.356,0.468-0.612,0.636
			c-0.255,0.169-0.549,0.294-0.882,0.376s-0.681,0.123-1.046,0.123C60.43,184.461,59.806,184.322,59.277,184.044z"/>
		<path fill="#2F2F2F" d="M68.93,184.229c-0.264,0.146-0.613,0.219-1.046,0.219c-1.226,0-1.839-0.684-1.839-2.051v-4.143h-1.203
			v-0.957h1.203v-1.709l1.121-0.362v2.071h1.764v0.957h-1.764v3.944c0,0.47,0.08,0.805,0.239,1.005
			c0.16,0.201,0.424,0.301,0.793,0.301c0.283,0,0.526-0.077,0.731-0.232V184.229z"/>
		<path fill="#2F2F2F" d="M70.886,175.52c-0.201,0-0.372-0.068-0.513-0.205s-0.212-0.31-0.212-0.52c0-0.209,0.071-0.384,0.212-0.522
			c0.141-0.14,0.312-0.209,0.513-0.209c0.205,0,0.379,0.069,0.523,0.209c0.144,0.139,0.215,0.313,0.215,0.522
			c0,0.201-0.072,0.372-0.215,0.513C71.265,175.449,71.091,175.52,70.886,175.52z M71.432,184.297h-1.121v-7h1.121V184.297z"/>
		<path fill="#2F2F2F" d="M76.527,184.461c-1.035,0-1.86-0.327-2.478-0.98c-0.618-0.654-0.926-1.521-0.926-2.602
			c0-1.176,0.321-2.094,0.964-2.755c0.643-0.66,1.511-0.991,2.604-0.991c1.043,0,1.858,0.321,2.444,0.964s0.878,1.534,0.878,2.673
			c0,1.117-0.315,2.011-0.947,2.684C78.435,184.125,77.589,184.461,76.527,184.461z M76.609,178.076c-0.72,0-1.29,0.245-1.709,0.735
			c-0.419,0.489-0.629,1.165-0.629,2.026c0,0.83,0.212,1.483,0.636,1.962s0.991,0.718,1.702,0.718c0.725,0,1.282-0.234,1.671-0.704
			c0.39-0.469,0.584-1.137,0.584-2.003c0-0.875-0.195-1.549-0.584-2.023C77.891,178.314,77.334,178.076,76.609,178.076z"/>
		<path fill="#2F2F2F" d="M87.539,184.297h-1.121v-3.992c0-1.485-0.542-2.229-1.627-2.229c-0.561,0-1.024,0.211-1.391,0.633
			c-0.367,0.421-0.55,0.953-0.55,1.596v3.992h-1.121v-7h1.121v1.162h0.027c0.529-0.884,1.294-1.326,2.297-1.326
			c0.766,0,1.351,0.247,1.757,0.742c0.406,0.494,0.608,1.209,0.608,2.143V184.297z"/>
	</g>
</g>
<g id="Layer_1">
</g>
</svg>
