<?xml version="1.0" encoding="utf-8"?>
<!-- Generator: Adobe Illustrator 27.4.0, SVG Export Plug-In . SVG Version: 6.00 Build 0)  -->
<svg version="1.1" xmlns="http://www.w3.org/2000/svg" xmlns:xlink="http://www.w3.org/1999/xlink" x="0px" y="0px"
	 viewBox="0 0 673.2 105.6" enable-background="new 0 0 673.2 105.6" xml:space="preserve">
<symbol  id="PIPELINE" viewBox="-32 -12.266 64 24.531">
	<linearGradient id="SVGID_1_" gradientUnits="userSpaceOnUse" x1="0" y1="-12.2655" x2="1.502093e-15" y2="12.2655">
		<stop  offset="0" style="stop-color:#1B89B2"/>
		<stop  offset="1" style="stop-color:#51C8E8"/>
	</linearGradient>
	<path fill="url(#SVGID_1_)" d="M26.096,12.266h-51.448v0h0C-29.08,12.265-32,6.878-32,0s2.92-12.265,6.648-12.265h0v0h51.448
		C29.356-12.266,32-6.363,32,0S29.356,12.266,26.096,12.266z"/>
	<g>
		
			<linearGradient id="SVGID_00000037652043867658343450000010283911251942768778_" gradientUnits="userSpaceOnUse" x1="-31.461" y1="-6.1136" x2="-19.2338" y2="6.1136">
			<stop  offset="0" style="stop-color:#B3B4B4"/>
			<stop  offset="1" style="stop-color:#4F4F4F"/>
		</linearGradient>
		<ellipse fill="url(#SVGID_00000037652043867658343450000010283911251942768778_)" cx="-25.347" cy="0" rx="5.575" ry="10.879"/>
	</g>
</symbol>
<g id="Shapes">
	<rect fill="#FFFFFF" width="673.2" height="105.6"/>
	<g id="Wrench_tool_x28_s_x29_">
	</g>
	<g id="user2">
	</g>
	<g id="user2_1_">
	</g>
	<g id="user2_4_">
	</g>
	<g id="user2_3_">
	</g>
	<g id="user2_2_">
	</g>
	<g id="Internet_2">
	</g>
	<g id="Enterprise">
	</g>
	<g id="Tunnel__x28_stackable_x29_">
	</g>
	<g id="New_Symbol">
	</g>
	<g id="New_Symbol_1">
	</g>
	<g id="Files">
	</g>
	<g id="BlobBlock">
	</g>
	<g id="E_x5F_Enterprise">
	</g>
	<g id="E_x5F_AD_FS">
	</g>
	<g id="C_x5F_Azure_Active_Directory">
	</g>
	<g>
		<g opacity="0.23">
			<rect x="9.513" y="8.997" width="175.694" height="71.979"/>
			<rect x="9.513" y="8.997" opacity="0.35" width="175.694" height="71.979"/>
		</g>
		<g>
			<rect x="8.513" y="7.997" fill="#FFFFFF" width="175.694" height="71.979"/>
			<rect x="8.513" y="7.997" opacity="0.35" fill="#32BEDD" width="175.694" height="71.979"/>
		</g>
	</g>
	<g>
		<g>
			<g opacity="0.23">
				<rect x="22.713" y="23.284" width="44" height="43.716"/>
			</g>
			<g>
				<rect x="21.713" y="22.284" fill="#FFFFFF" width="44" height="43.716"/>
			</g>
		</g>
		
			<linearGradient id="SVGID_00000067926481118811358890000004310026293047834514_" gradientUnits="userSpaceOnUse" x1="43.713" y1="1820.116" x2="43.713" y2="1844.116" gradientTransform="matrix(1 0 0 -1 0 1876.4)">
			<stop  offset="0" style="stop-color:#32BEDD"/>
			<stop  offset="0.576" style="stop-color:#32CEEF"/>
			<stop  offset="1" style="stop-color:#32D4F5"/>
		</linearGradient>
		<path fill="url(#SVGID_00000067926481118811358890000004310026293047834514_)" d="M55.713,45.58v-2.736L55.329,42.7l-2.933-0.96
			l-0.768-1.867l1.488-3.168l-1.92-1.92l-0.384,0.192l-2.731,1.387l-1.867-0.768l-1.205-3.312h-2.736l-0.144,0.384l-0.96,2.933
			l-1.867,0.768l-3.125-1.493l-1.92,1.92l0.192,0.384l1.397,2.736l-0.768,1.867l-3.365,1.205v2.736l0.384,0.144l2.933,0.96
			l0.768,1.867l-1.493,3.173l1.92,1.92l0.384-0.192l2.736-1.392l1.867,0.768l1.205,3.312h2.736l0.144-0.384l0.96-2.933l1.867-0.768
			l3.168,1.488l1.92-1.92l-0.192-0.384l-1.387-2.731l0.768-1.867L55.713,45.58z M43.713,49.551c-2.909,0-5.267-2.358-5.267-5.267
			s2.358-5.267,5.267-5.267c2.909,0,5.267,2.358,5.267,5.267l0,0c0.002,2.906-2.352,5.264-5.259,5.267
			C43.718,49.551,43.716,49.551,43.713,49.551z"/>
	</g>
	<g>
		<g>
			<g opacity="0.23">
				<rect x="75.513" y="23.284" width="44" height="43.716"/>
			</g>
			<g>
				<rect x="74.513" y="22.284" fill="#FFFFFF" width="44" height="43.716"/>
			</g>
		</g>
		
			<linearGradient id="SVGID_00000031895231596320625280000005752965659657070740_" gradientUnits="userSpaceOnUse" x1="96.513" y1="1820.116" x2="96.513" y2="1844.116" gradientTransform="matrix(1 0 0 -1 0 1876.4)">
			<stop  offset="0" style="stop-color:#32BEDD"/>
			<stop  offset="0.576" style="stop-color:#32CEEF"/>
			<stop  offset="1" style="stop-color:#32D4F5"/>
		</linearGradient>
		<path fill="url(#SVGID_00000031895231596320625280000005752965659657070740_)" d="M108.513,45.58v-2.736l-0.384-0.144l-2.933-0.96
			l-0.768-1.867l1.488-3.168l-1.92-1.92l-0.384,0.192l-2.731,1.387l-1.867-0.768l-1.205-3.312h-2.736l-0.144,0.384l-0.96,2.933
			l-1.867,0.768l-3.125-1.493l-1.92,1.92l0.192,0.384l1.397,2.736l-0.768,1.867l-3.365,1.205v2.736l0.384,0.144l2.933,0.96
			l0.768,1.867l-1.493,3.173l1.92,1.92l0.384-0.192l2.736-1.392l1.867,0.768l1.205,3.312h2.736l0.144-0.384l0.96-2.933l1.867-0.768
			l3.168,1.488l1.92-1.92l-0.192-0.384l-1.387-2.731l0.768-1.867L108.513,45.58z M96.513,49.551c-2.909,0-5.267-2.358-5.267-5.267
			s2.358-5.267,5.267-5.267s5.267,2.358,5.267,5.267l0,0c0.002,2.906-2.352,5.264-5.259,5.267
			C96.518,49.551,96.516,49.551,96.513,49.551z"/>
	</g>
	<g>
		<g>
			<g opacity="0.23">
				<rect x="128.277" y="23.284" width="44" height="43.716"/>
			</g>
			<g>
				<rect x="127.277" y="22.284" fill="#FFFFFF" width="44" height="43.716"/>
			</g>
		</g>
		
			<linearGradient id="SVGID_00000090289403959314020020000016889402337136807812_" gradientUnits="userSpaceOnUse" x1="149.2767" y1="1820.116" x2="149.2767" y2="1844.116" gradientTransform="matrix(1 0 0 -1 0 1876.4)">
			<stop  offset="0" style="stop-color:#32BEDD"/>
			<stop  offset="0.576" style="stop-color:#32CEEF"/>
			<stop  offset="1" style="stop-color:#32D4F5"/>
		</linearGradient>
		<path fill="url(#SVGID_00000090289403959314020020000016889402337136807812_)" d="M161.277,45.58v-2.736l-0.384-0.144l-2.933-0.96
			l-0.768-1.867l1.488-3.168l-1.92-1.92l-0.384,0.192l-2.731,1.387l-1.867-0.768l-1.205-3.312h-2.736l-0.144,0.384l-0.96,2.933
			l-1.867,0.768l-3.125-1.493l-1.92,1.92l0.192,0.384l1.397,2.736l-0.768,1.867l-3.365,1.205v2.736l0.384,0.144l2.933,0.96
			l0.768,1.867l-1.493,3.173l1.92,1.92l0.384-0.192l2.736-1.392l1.867,0.768l1.205,3.312h2.736l0.144-0.384l0.96-2.933l1.867-0.768
			l3.168,1.488l1.92-1.92l-0.192-0.384l-1.387-2.731l0.768-1.867L161.277,45.58z M149.277,49.551c-2.909,0-5.267-2.358-5.267-5.267
			s2.358-5.267,5.267-5.267c2.909,0,5.267,2.358,5.267,5.267l0,0c0.002,2.906-2.352,5.264-5.259,5.267
			C149.282,49.551,149.279,49.551,149.277,49.551z"/>
	</g>
	<g>
		<g opacity="0.23">
			<rect x="331.259" y="8.997" width="334.371" height="73.315"/>
			<rect x="331.259" y="8.997" opacity="0.35" width="334.371" height="73.315"/>
		</g>
		<g>
			<rect x="330.259" y="7.997" fill="#FFFFFF" width="334.371" height="73.315"/>
			<rect x="330.259" y="7.997" opacity="0.35" fill="#32BEDD" width="334.371" height="73.315"/>
		</g>
	</g>
	<g>
		<g>
			<g opacity="0.23">
				<rect x="343.913" y="23.284" width="44" height="43.716"/>
			</g>
			<g>
				<rect x="342.913" y="22.284" fill="#FFFFFF" width="44" height="43.716"/>
			</g>
		</g>
		
			<linearGradient id="SVGID_00000097486583076442421090000012227121519410028973_" gradientUnits="userSpaceOnUse" x1="364.913" y1="1820.116" x2="364.913" y2="1844.116" gradientTransform="matrix(1 0 0 -1 0 1876.4)">
			<stop  offset="0" style="stop-color:#32BEDD"/>
			<stop  offset="0.576" style="stop-color:#32CEEF"/>
			<stop  offset="1" style="stop-color:#32D4F5"/>
		</linearGradient>
		<path fill="url(#SVGID_00000097486583076442421090000012227121519410028973_)" d="M376.913,45.58v-2.736l-0.384-0.144l-2.933-0.96
			l-0.768-1.867l1.488-3.168l-1.92-1.92l-0.384,0.192l-2.731,1.387l-1.867-0.768l-1.205-3.312h-2.736l-0.144,0.384l-0.96,2.933
			l-1.867,0.768l-3.125-1.493l-1.92,1.92l0.192,0.384l1.397,2.736l-0.768,1.867l-3.365,1.205v2.736l0.384,0.144l2.933,0.96
			l0.768,1.867l-1.493,3.173l1.92,1.92l0.384-0.192l2.736-1.392l1.867,0.768l1.205,3.312h2.736l0.144-0.384l0.96-2.933l1.867-0.768
			l3.168,1.488l1.92-1.92l-0.192-0.384l-1.387-2.731l0.768-1.867L376.913,45.58z M364.913,49.551c-2.909,0-5.267-2.358-5.267-5.267
			s2.358-5.267,5.267-5.267c2.909,0,5.267,2.358,5.267,5.267l0,0c0.002,2.906-2.352,5.264-5.259,5.267
			C364.918,49.551,364.916,49.551,364.913,49.551z"/>
	</g>
	<g>
		<g>
			<g opacity="0.23">
				<rect x="396.713" y="23.284" width="44" height="43.716"/>
			</g>
			<g>
				<rect x="395.713" y="22.284" fill="#FFFFFF" width="44" height="43.716"/>
			</g>
		</g>
		
			<linearGradient id="SVGID_00000134228307535328268570000003620532424104851848_" gradientUnits="userSpaceOnUse" x1="417.713" y1="1820.116" x2="417.713" y2="1844.116" gradientTransform="matrix(1 0 0 -1 0 1876.4)">
			<stop  offset="0" style="stop-color:#32BEDD"/>
			<stop  offset="0.576" style="stop-color:#32CEEF"/>
			<stop  offset="1" style="stop-color:#32D4F5"/>
		</linearGradient>
		<path fill="url(#SVGID_00000134228307535328268570000003620532424104851848_)" d="M429.713,45.58v-2.736l-0.384-0.144l-2.933-0.96
			l-0.768-1.867l1.488-3.168l-1.92-1.92l-0.384,0.192l-2.731,1.387l-1.867-0.768l-1.205-3.312h-2.736l-0.144,0.384l-0.96,2.933
			l-1.867,0.768l-3.125-1.493l-1.92,1.92l0.192,0.384l1.397,2.736l-0.768,1.867l-3.365,1.205v2.736l0.384,0.144l2.933,0.96
			l0.768,1.867l-1.493,3.173l1.92,1.92l0.384-0.192l2.736-1.392l1.867,0.768l1.205,3.312h2.736l0.144-0.384l0.96-2.933l1.867-0.768
			l3.168,1.488l1.92-1.92l-0.192-0.384l-1.387-2.731l0.768-1.867L429.713,45.58z M417.713,49.551c-2.909,0-5.267-2.358-5.267-5.267
			s2.358-5.267,5.267-5.267s5.267,2.358,5.267,5.267l0,0c0.002,2.906-2.352,5.264-5.259,5.267
			C417.718,49.551,417.716,49.551,417.713,49.551z"/>
	</g>
	<g>
		<g>
			<g opacity="0.23">
				<rect x="449.477" y="23.284" width="44" height="43.716"/>
			</g>
			<g>
				<rect x="448.477" y="22.284" fill="#FFFFFF" width="44" height="43.716"/>
			</g>
		</g>
		
			<linearGradient id="SVGID_00000178918815470128330830000003304730138820610216_" gradientUnits="userSpaceOnUse" x1="470.4767" y1="1820.116" x2="470.4767" y2="1844.116" gradientTransform="matrix(1 0 0 -1 0 1876.4)">
			<stop  offset="0" style="stop-color:#32BEDD"/>
			<stop  offset="0.576" style="stop-color:#32CEEF"/>
			<stop  offset="1" style="stop-color:#32D4F5"/>
		</linearGradient>
		<path fill="url(#SVGID_00000178918815470128330830000003304730138820610216_)" d="M482.477,45.58v-2.736l-0.384-0.144l-2.933-0.96
			l-0.768-1.867l1.488-3.168l-1.92-1.92l-0.384,0.192l-2.731,1.387l-1.867-0.768l-1.205-3.312h-2.736l-0.144,0.384l-0.96,2.933
			l-1.867,0.768l-3.125-1.493l-1.92,1.92l0.192,0.384l1.397,2.736l-0.768,1.867l-3.365,1.205v2.736l0.384,0.144l2.933,0.96
			l0.768,1.867l-1.493,3.173l1.92,1.92l0.384-0.192l2.736-1.392l1.867,0.768l1.205,3.312h2.736l0.144-0.384l0.96-2.933l1.867-0.768
			l3.168,1.488l1.92-1.92l-0.192-0.384l-1.387-2.731l0.768-1.867L482.477,45.58z M470.477,49.551c-2.909,0-5.267-2.358-5.267-5.267
			s2.358-5.267,5.267-5.267c2.909,0,5.267,2.358,5.267,5.267l0,0c0.002,2.906-2.352,5.264-5.259,5.267
			C470.482,49.551,470.479,49.551,470.477,49.551z"/>
	</g>
	<g>
		<g>
			<g opacity="0.23">
				<rect x="502.712" y="23.284" width="44" height="43.716"/>
			</g>
			<g>
				<rect x="501.712" y="22.284" fill="#FFFFFF" width="44" height="43.716"/>
			</g>
		</g>
		
			<linearGradient id="SVGID_00000031192941117947826340000009005543223995439778_" gradientUnits="userSpaceOnUse" x1="523.712" y1="1820.116" x2="523.712" y2="1844.116" gradientTransform="matrix(1 0 0 -1 0 1876.4)">
			<stop  offset="0" style="stop-color:#32BEDD"/>
			<stop  offset="0.576" style="stop-color:#32CEEF"/>
			<stop  offset="1" style="stop-color:#32D4F5"/>
		</linearGradient>
		<path fill="url(#SVGID_00000031192941117947826340000009005543223995439778_)" d="M535.712,45.58v-2.736l-0.384-0.144l-2.933-0.96
			l-0.768-1.867l1.488-3.168l-1.92-1.92l-0.384,0.192l-2.731,1.387l-1.867-0.768l-1.205-3.312h-2.736l-0.144,0.384l-0.96,2.933
			l-1.867,0.768l-3.125-1.493l-1.92,1.92l0.192,0.384l1.397,2.736l-0.768,1.867l-3.365,1.205v2.736l0.384,0.144l2.933,0.96
			l0.768,1.867l-1.493,3.173l1.92,1.92l0.384-0.192l2.736-1.392l1.867,0.768l1.205,3.312h2.736l0.144-0.384l0.96-2.933l1.867-0.768
			l3.168,1.488l1.92-1.92l-0.192-0.384l-1.387-2.731l0.768-1.867L535.712,45.58z M523.712,49.551c-2.909,0-5.267-2.358-5.267-5.267
			s2.358-5.267,5.267-5.267c2.909,0,5.267,2.358,5.267,5.267l0,0c0.002,2.906-2.352,5.264-5.259,5.267
			C523.717,49.551,523.715,49.551,523.712,49.551z"/>
	</g>
	<g>
		<g>
			<g opacity="0.23">
				<rect x="555.512" y="23.284" width="44" height="43.716"/>
			</g>
			<g>
				<rect x="554.512" y="22.284" fill="#FFFFFF" width="44" height="43.716"/>
			</g>
		</g>
		
			<linearGradient id="SVGID_00000094619120065585022570000014886334033707440768_" gradientUnits="userSpaceOnUse" x1="576.512" y1="1820.116" x2="576.512" y2="1844.116" gradientTransform="matrix(1 0 0 -1 0 1876.4)">
			<stop  offset="0" style="stop-color:#32BEDD"/>
			<stop  offset="0.576" style="stop-color:#32CEEF"/>
			<stop  offset="1" style="stop-color:#32D4F5"/>
		</linearGradient>
		<path fill="url(#SVGID_00000094619120065585022570000014886334033707440768_)" d="M588.512,45.58v-2.736l-0.384-0.144l-2.933-0.96
			l-0.768-1.867l1.488-3.168l-1.92-1.92l-0.384,0.192l-2.731,1.387l-1.867-0.768l-1.205-3.312h-2.736l-0.144,0.384l-0.96,2.933
			l-1.867,0.768l-3.125-1.493l-1.92,1.92l0.192,0.384l1.397,2.736l-0.768,1.867l-3.365,1.205v2.736l0.384,0.144l2.933,0.96
			l0.768,1.867l-1.493,3.173l1.92,1.92l0.384-0.192l2.736-1.392l1.867,0.768l1.205,3.312h2.736l0.144-0.384l0.96-2.933l1.867-0.768
			l3.168,1.488l1.92-1.92l-0.192-0.384l-1.387-2.731l0.768-1.867L588.512,45.58z M576.512,49.551c-2.909,0-5.267-2.358-5.267-5.267
			s2.358-5.267,5.267-5.267c2.909,0,5.267,2.358,5.267,5.267l0,0c0.002,2.906-2.352,5.264-5.259,5.267
			C576.517,49.551,576.515,49.551,576.512,49.551z"/>
	</g>
	<g>
		<g>
			<g opacity="0.23">
				<rect x="608.276" y="23.284" width="44" height="43.716"/>
			</g>
			<g>
				<rect x="607.276" y="22.284" fill="#FFFFFF" width="44" height="43.716"/>
			</g>
		</g>
		
			<linearGradient id="SVGID_00000010990922564596857440000004210048695403614357_" gradientUnits="userSpaceOnUse" x1="629.2757" y1="1820.116" x2="629.2757" y2="1844.116" gradientTransform="matrix(1 0 0 -1 0 1876.4)">
			<stop  offset="0" style="stop-color:#32BEDD"/>
			<stop  offset="0.576" style="stop-color:#32CEEF"/>
			<stop  offset="1" style="stop-color:#32D4F5"/>
		</linearGradient>
		<path fill="url(#SVGID_00000010990922564596857440000004210048695403614357_)" d="M641.276,45.58v-2.736l-0.384-0.144l-2.933-0.96
			l-0.768-1.867l1.488-3.168l-1.92-1.92l-0.384,0.192l-2.731,1.387l-1.867-0.768l-1.205-3.312h-2.736l-0.144,0.384l-0.96,2.933
			l-1.867,0.768l-3.125-1.493l-1.92,1.92l0.192,0.384l1.397,2.736l-0.768,1.867l-3.365,1.205v2.736l0.384,0.144l2.933,0.96
			l0.768,1.867l-1.493,3.173l1.92,1.92l0.384-0.192l2.736-1.392l1.867,0.768l1.205,3.312h2.736l0.144-0.384l0.96-2.933l1.867-0.768
			l3.168,1.488l1.92-1.92l-0.192-0.384l-1.387-2.731l0.768-1.867L641.276,45.58z M629.276,49.551c-2.909,0-5.267-2.358-5.267-5.267
			s2.358-5.267,5.267-5.267s5.267,2.358,5.267,5.267l0,0c0.002,2.906-2.352,5.264-5.259,5.267
			C629.281,49.551,629.278,49.551,629.276,49.551z"/>
	</g>
	<line fill="none" stroke="#2F2F2F" stroke-miterlimit="10" x1="183.888" y1="44.284" x2="203.272" y2="44.284"/>
	<g>
		<g>
			<line fill="none" stroke="#3C3C41" stroke-miterlimit="10" x1="256.072" y1="44.284" x2="322.874" y2="44.284"/>
			<g>
				<polygon fill="#3C3C41" points="321.78,48.024 328.257,44.284 321.78,40.544 				"/>
			</g>
		</g>
	</g>
</g>
<g id="Text">
	<g>
		<path fill="#2F2F2F" d="M218.465,47.481h-2.536l-1.524-2.522c-0.114-0.191-0.223-0.362-0.328-0.513s-0.211-0.279-0.318-0.386
			s-0.219-0.189-0.335-0.246s-0.243-0.085-0.379-0.085h-0.595v3.753h-2.208v-9.803h3.5c2.379,0,3.568,0.889,3.568,2.666
			c0,0.342-0.052,0.657-0.157,0.947s-0.253,0.55-0.444,0.783s-0.423,0.433-0.694,0.602s-0.573,0.301-0.906,0.396v0.027
			c0.146,0.045,0.287,0.12,0.424,0.222s0.269,0.222,0.396,0.359s0.25,0.284,0.366,0.441s0.222,0.311,0.318,0.461L218.465,47.481z
			 M212.449,39.332v2.728h0.957c0.474,0,0.854-0.137,1.142-0.41c0.292-0.278,0.438-0.622,0.438-1.032
			c0-0.857-0.513-1.285-1.538-1.285H212.449z"/>
		<path fill="#2F2F2F" d="M225.283,44.596h-4.566c0.073,1.016,0.713,1.524,1.921,1.524c0.77,0,1.447-0.182,2.03-0.547v1.559
			c-0.647,0.346-1.488,0.52-2.522,0.52c-1.13,0-2.007-0.313-2.632-0.94s-0.937-1.5-0.937-2.622c0-1.162,0.337-2.083,1.012-2.762
			s1.504-1.019,2.488-1.019c1.021,0,1.811,0.303,2.369,0.909s0.837,1.429,0.837,2.468V44.596z M223.28,43.27
			c0-1.002-0.406-1.504-1.217-1.504c-0.346,0-0.646,0.144-0.899,0.431s-0.407,0.645-0.461,1.073H223.28z"/>
		<path fill="#2F2F2F" d="M226.271,47.296v-1.75c0.355,0.214,0.71,0.374,1.063,0.479s0.687,0.157,1.001,0.157
			c0.383,0,0.685-0.052,0.906-0.157s0.332-0.264,0.332-0.479c0-0.137-0.05-0.25-0.15-0.342s-0.229-0.171-0.386-0.239
			s-0.329-0.13-0.516-0.185s-0.367-0.116-0.54-0.185c-0.278-0.105-0.523-0.218-0.735-0.338s-0.39-0.261-0.533-0.42
			s-0.253-0.344-0.328-0.554s-0.113-0.458-0.113-0.745c0-0.392,0.085-0.729,0.256-1.012s0.399-0.514,0.684-0.694
			s0.611-0.312,0.978-0.396s0.749-0.126,1.145-0.126c0.31,0,0.625,0.024,0.943,0.072s0.633,0.117,0.943,0.208v1.668
			c-0.273-0.16-0.566-0.279-0.878-0.359s-0.619-0.12-0.919-0.12c-0.141,0-0.274,0.013-0.4,0.038s-0.236,0.062-0.332,0.109
			s-0.171,0.109-0.226,0.185s-0.082,0.161-0.082,0.256c0,0.127,0.041,0.237,0.123,0.328s0.189,0.17,0.321,0.236
			s0.279,0.125,0.441,0.178s0.322,0.106,0.482,0.161c0.287,0.1,0.547,0.209,0.779,0.328s0.432,0.257,0.598,0.417
			s0.294,0.346,0.383,0.561s0.133,0.469,0.133,0.766c0,0.415-0.09,0.769-0.27,1.063s-0.419,0.533-0.718,0.718
			s-0.643,0.319-1.032,0.403s-0.794,0.126-1.213,0.126C227.641,47.652,226.927,47.533,226.271,47.296z"/>
		<path fill="#2F2F2F" d="M234.01,39.373c-0.365,0-0.663-0.108-0.896-0.325s-0.349-0.482-0.349-0.796
			c0-0.324,0.116-0.588,0.349-0.793s0.531-0.308,0.896-0.308c0.369,0,0.669,0.103,0.899,0.308s0.345,0.469,0.345,0.793
			c0,0.328-0.115,0.597-0.345,0.807S234.379,39.373,234.01,39.373z M235.077,47.481h-2.16v-7h2.16V47.481z"/>
		<path fill="#2F2F2F" d="M242.397,47.481h-6.282v-0.896l3.514-4.512h-3.165v-1.593h5.906v1.066l-3.329,4.341h3.356V47.481z"/>
		<path fill="#2F2F2F" d="M249.848,44.596h-4.566c0.073,1.016,0.713,1.524,1.921,1.524c0.77,0,1.447-0.182,2.03-0.547v1.559
			c-0.647,0.346-1.488,0.52-2.522,0.52c-1.13,0-2.007-0.313-2.632-0.94s-0.937-1.5-0.937-2.622c0-1.162,0.337-2.083,1.012-2.762
			s1.504-1.019,2.488-1.019c1.021,0,1.811,0.303,2.369,0.909s0.837,1.429,0.837,2.468V44.596z M247.845,43.27
			c0-1.002-0.406-1.504-1.217-1.504c-0.346,0-0.646,0.144-0.899,0.431s-0.407,0.645-0.461,1.073H247.845z"/>
	</g>
	<g>
		<path fill="#2F2F2F" d="M214.357,66.164c-1.39,0-2.503-0.458-3.339-1.374c-0.836-0.916-1.254-2.108-1.254-3.575
			c0-1.577,0.426-2.834,1.278-3.773s2.012-1.408,3.479-1.408c1.354,0,2.444,0.456,3.271,1.367s1.241,2.103,1.241,3.575
			c0,1.6-0.424,2.864-1.271,3.794C216.914,65.699,215.779,66.164,214.357,66.164z M214.439,57.072c-1.03,0-1.866,0.372-2.509,1.114
			s-0.964,1.718-0.964,2.926s0.313,2.18,0.94,2.916c0.626,0.736,1.443,1.104,2.451,1.104c1.076,0,1.923-0.351,2.543-1.053
			c0.62-0.702,0.93-1.684,0.93-2.946c0-1.294-0.301-2.294-0.902-3.001S215.496,57.072,214.439,57.072z"/>
		<path fill="#2F2F2F" d="M226.609,66h-1.121v-3.992c0-1.486-0.542-2.229-1.627-2.229c-0.561,0-1.024,0.211-1.391,0.632
			s-0.55,0.954-0.55,1.596V66h-1.121v-7h1.121v1.162h0.027c0.529-0.884,1.294-1.326,2.297-1.326c0.766,0,1.351,0.247,1.757,0.742
			s0.608,1.209,0.608,2.143V66z"/>
		<path fill="#2F2F2F" d="M229.754,66h-1.121V55.637h1.121V66z"/>
		<path fill="#2F2F2F" d="M232.441,57.222c-0.201,0-0.372-0.068-0.513-0.205s-0.212-0.31-0.212-0.52s0.071-0.384,0.212-0.523
			s0.312-0.208,0.513-0.208c0.205,0,0.379,0.069,0.523,0.208s0.215,0.313,0.215,0.523c0,0.201-0.072,0.372-0.215,0.513
			S232.646,57.222,232.441,57.222z M232.988,66h-1.121v-7h1.121V66z"/>
		<path fill="#2F2F2F" d="M240.917,66h-1.121v-3.992c0-1.486-0.542-2.229-1.627-2.229c-0.561,0-1.024,0.211-1.391,0.632
			s-0.55,0.954-0.55,1.596V66h-1.121v-7h1.121v1.162h0.027c0.529-0.884,1.294-1.326,2.297-1.326c0.766,0,1.351,0.247,1.757,0.742
			s0.608,1.209,0.608,2.143V66z"/>
		<path fill="#2F2F2F" d="M248.621,62.78h-4.942c0.018,0.779,0.228,1.381,0.629,1.805s0.953,0.636,1.654,0.636
			c0.789,0,1.513-0.26,2.174-0.779v1.053c-0.615,0.447-1.429,0.67-2.44,0.67c-0.989,0-1.766-0.318-2.331-0.954
			s-0.848-1.53-0.848-2.683c0-1.089,0.309-1.977,0.926-2.663s1.384-1.029,2.3-1.029s1.625,0.296,2.126,0.889
			s0.752,1.415,0.752,2.468V62.78z M247.472,61.83c-0.004-0.647-0.161-1.151-0.468-1.511s-0.735-0.54-1.282-0.54
			c-0.529,0-0.978,0.189-1.347,0.567s-0.597,0.873-0.684,1.483H247.472z"/>
		<path fill="#2F2F2F" d="M253.727,65.747v-1.203c0.611,0.451,1.283,0.677,2.017,0.677c0.984,0,1.477-0.328,1.477-0.984
			c0-0.187-0.042-0.345-0.126-0.475s-0.198-0.245-0.342-0.345s-0.312-0.19-0.506-0.27s-0.402-0.163-0.625-0.25
			c-0.31-0.123-0.582-0.247-0.817-0.373s-0.431-0.267-0.588-0.424s-0.276-0.336-0.355-0.537s-0.12-0.435-0.12-0.704
			c0-0.328,0.075-0.619,0.226-0.872s0.351-0.465,0.602-0.636s0.537-0.3,0.858-0.386s0.653-0.13,0.995-0.13
			c0.606,0,1.148,0.105,1.627,0.314v1.135c-0.515-0.337-1.107-0.506-1.777-0.506c-0.209,0-0.399,0.024-0.567,0.072
			s-0.313,0.115-0.434,0.202s-0.214,0.19-0.28,0.311s-0.099,0.254-0.099,0.4c0,0.182,0.033,0.335,0.099,0.458
			s0.163,0.232,0.291,0.328s0.283,0.182,0.465,0.26s0.39,0.162,0.622,0.253c0.31,0.119,0.588,0.24,0.834,0.366
			s0.456,0.267,0.629,0.424s0.307,0.338,0.4,0.543s0.14,0.449,0.14,0.731c0,0.346-0.076,0.647-0.229,0.902s-0.356,0.467-0.612,0.636
			s-0.549,0.294-0.882,0.376s-0.681,0.123-1.046,0.123C254.88,66.164,254.256,66.025,253.727,65.747z"/>
		<path fill="#2F2F2F" d="M264.835,65.679c-0.538,0.324-1.176,0.485-1.914,0.485c-0.998,0-1.804-0.325-2.417-0.974
			s-0.919-1.491-0.919-2.526c0-1.153,0.331-2.079,0.991-2.779s1.542-1.049,2.646-1.049c0.615,0,1.158,0.114,1.627,0.342v1.148
			c-0.52-0.365-1.076-0.547-1.668-0.547c-0.715,0-1.302,0.256-1.76,0.769s-0.687,1.186-0.687,2.02c0,0.82,0.215,1.467,0.646,1.941
			s1.008,0.711,1.733,0.711c0.611,0,1.185-0.203,1.723-0.608V65.679z"/>
		<path fill="#2F2F2F" d="M271.579,66h-1.121v-1.094h-0.027c-0.488,0.838-1.206,1.258-2.153,1.258c-0.697,0-1.243-0.185-1.637-0.554
			s-0.591-0.859-0.591-1.47c0-1.308,0.77-2.069,2.311-2.283l2.099-0.294c0-1.189-0.481-1.784-1.442-1.784
			c-0.843,0-1.604,0.287-2.283,0.861v-1.148c0.688-0.438,1.481-0.656,2.379-0.656c1.645,0,2.468,0.871,2.468,2.611V66z
			 M270.458,62.459l-1.688,0.232c-0.52,0.073-0.912,0.202-1.176,0.386s-0.396,0.512-0.396,0.981c0,0.342,0.122,0.621,0.366,0.837
			s0.568,0.325,0.974,0.325c0.556,0,1.015-0.195,1.377-0.584s0.543-0.883,0.543-1.48V62.459z"/>
		<path fill="#2F2F2F" d="M274.72,66h-1.121V55.637h1.121V66z"/>
		<path fill="#2F2F2F" d="M277.407,57.222c-0.201,0-0.372-0.068-0.513-0.205s-0.212-0.31-0.212-0.52s0.071-0.384,0.212-0.523
			s0.312-0.208,0.513-0.208c0.205,0,0.379,0.069,0.523,0.208s0.215,0.313,0.215,0.523c0,0.201-0.072,0.372-0.215,0.513
			S277.612,57.222,277.407,57.222z M277.954,66h-1.121v-7h1.121V66z"/>
		<path fill="#2F2F2F" d="M285.882,66h-1.121v-3.992c0-1.486-0.542-2.229-1.627-2.229c-0.561,0-1.024,0.211-1.391,0.632
			s-0.55,0.954-0.55,1.596V66h-1.121v-7h1.121v1.162h0.027c0.529-0.884,1.294-1.326,2.297-1.326c0.766,0,1.351,0.247,1.757,0.742
			s0.608,1.209,0.608,2.143V66z"/>
		<path fill="#2F2F2F" d="M293.957,65.439c0,2.57-1.23,3.855-3.691,3.855c-0.866,0-1.623-0.164-2.27-0.492v-1.121
			c0.789,0.438,1.541,0.656,2.256,0.656c1.723,0,2.584-0.916,2.584-2.748v-0.766h-0.027c-0.533,0.893-1.335,1.34-2.406,1.34
			c-0.871,0-1.571-0.311-2.102-0.933s-0.796-1.457-0.796-2.505c0-1.189,0.286-2.135,0.858-2.837s1.354-1.053,2.348-1.053
			c0.943,0,1.643,0.378,2.099,1.135h0.027V59h1.121V65.439z M292.835,62.835v-1.032c0-0.556-0.188-1.032-0.564-1.429
			s-0.844-0.595-1.405-0.595c-0.693,0-1.235,0.252-1.627,0.755s-0.588,1.209-0.588,2.116c0,0.779,0.188,1.402,0.564,1.87
			s0.874,0.701,1.494,0.701c0.629,0,1.141-0.223,1.535-0.67S292.835,63.532,292.835,62.835z"/>
	</g>
</g>
<g id="Layer_1">
</g>
</svg>
