<?xml version="1.0" encoding="utf-8"?>
<!-- Generator: Adobe Illustrator 27.4.0, SVG Export Plug-In . SVG Version: 6.00 Build 0)  -->
<svg version="1.1" xmlns="http://www.w3.org/2000/svg" xmlns:xlink="http://www.w3.org/1999/xlink" x="0px" y="0px"
	 viewBox="0 0 404.8 431.2" enable-background="new 0 0 404.8 431.2" xml:space="preserve">
<symbol  id="PIPELINE" viewBox="-32 -12.266 64 24.531">
	<linearGradient id="SVGID_1_" gradientUnits="userSpaceOnUse" x1="0" y1="-12.2655" x2="1.502093e-15" y2="12.2655">
		<stop  offset="0" style="stop-color:#1B89B2"/>
		<stop  offset="1" style="stop-color:#51C8E8"/>
	</linearGradient>
	<path fill="url(#SVGID_1_)" d="M26.096,12.266h-51.448v0h0C-29.08,12.265-32,6.878-32,0s2.92-12.265,6.648-12.265h0v0h51.448
		C29.356-12.266,32-6.363,32,0S29.356,12.266,26.096,12.266z"/>
	<g>
		
			<linearGradient id="SVGID_00000013166458408839060380000018027780324264531589_" gradientUnits="userSpaceOnUse" x1="-31.461" y1="-6.1136" x2="-19.2338" y2="6.1136">
			<stop  offset="0" style="stop-color:#B3B4B4"/>
			<stop  offset="1" style="stop-color:#4F4F4F"/>
		</linearGradient>
		<ellipse fill="url(#SVGID_00000013166458408839060380000018027780324264531589_)" cx="-25.347" cy="0" rx="5.575" ry="10.879"/>
	</g>
</symbol>
<g id="Shapes">
	<rect fill="#FFFFFF" width="404.8" height="431.2"/>
	<g>
		<g opacity="0.23">
			<rect x="12.614" y="31.8" width="378.742" height="277.2"/>
			<rect x="12.614" y="31.8" opacity="0.25" width="378.742" height="277.2"/>
		</g>
		<g>
			<rect x="11.614" y="30.8" fill="#FFFFFF" width="378.742" height="277.2"/>
			<rect x="11.614" y="30.8" opacity="0.25" fill="#83B9F9" width="378.742" height="277.2"/>
		</g>
	</g>
	<g>
		<g opacity="0.23">
			<rect x="138.185" y="45" width="126.815" height="57.2"/>
			<rect x="138.185" y="45" opacity="0.08" width="126.815" height="57.2"/>
		</g>
		<g>
			<rect x="137.185" y="44" fill="#FFFFFF" width="126.815" height="57.2"/>
			<rect x="137.185" y="44" opacity="0.08" fill="#83B9F9" width="126.815" height="57.2"/>
		</g>
	</g>
	<g>
		<g opacity="0.23">
			<rect x="138.185" y="150.6" width="126.815" height="30.8"/>
			<rect x="138.185" y="150.6" opacity="0.08" width="126.815" height="30.8"/>
		</g>
		<g>
			<rect x="137.185" y="149.6" fill="#FFFFFF" width="126.815" height="30.8"/>
			<rect x="137.185" y="149.6" opacity="0.08" fill="#83B9F9" width="126.815" height="30.8"/>
		</g>
	</g>
	<g id="Wrench_tool_x28_s_x29_">
	</g>
	<g id="user2">
	</g>
	<g id="user2_1_">
	</g>
	<g id="user2_4_">
	</g>
	<g id="user2_3_">
	</g>
	<g id="user2_2_">
	</g>
	<g id="Internet_2">
	</g>
	<g id="Enterprise">
	</g>
	<g id="Tunnel__x28_stackable_x29_">
	</g>
	<g id="New_Symbol">
	</g>
	<g id="New_Symbol_1">
	</g>
	<g id="Files">
	</g>
	<g id="BlobBlock">
	</g>
	<g id="E_x5F_Enterprise">
	</g>
	<g id="E_x5F_AD_FS">
	</g>
	<g id="C_x5F_Azure_Active_Directory">
	</g>
	<g>
		<g opacity="0.23">
			<rect x="11.37" y="326.6" width="381.23" height="96.8"/>
			<rect x="11.37" y="326.6" opacity="0.15" width="381.23" height="96.8"/>
		</g>
		<g>
			<rect x="10.37" y="325.6" fill="#FFFFFF" width="381.23" height="96.8"/>
			<rect x="10.37" y="325.6" opacity="0.15" fill="#37C2B1" width="381.23" height="96.8"/>
		</g>
	</g>
	<g>
		<g opacity="0.23">
			<rect x="25.985" y="207.8" width="349.015" height="88"/>
			<rect x="25.985" y="207.8" opacity="0.7" width="349.015" height="88"/>
		</g>
		<g>
			<rect x="24.985" y="206.8" fill="#FFFFFF" width="349.015" height="88"/>
			<rect x="24.985" y="206.8" opacity="0.7" fill="#B3B3B3" width="349.015" height="88"/>
		</g>
	</g>
	<g>
		<g id="abc3e3f9-d4db-41ad-8b60-378d1c3348f7_00000063633175514209519270000016240937024316660659_">
			<g>
				<g>
					<path fill="#FFFFFF" d="M50.279,352.814H39.213c-0.483,0-0.874,0.391-0.874,0.874c0,0,0,0.001,0,0.001v23.862
						c-0.001,0.483,0.39,0.875,0.872,0.875c0,0,0.001,0,0.001,0H58.39c0.48-0.004,0.867-0.395,0.867-0.875v-15.792
						c0.001-0.48-0.386-0.871-0.867-0.875h-6.364c-0.48-0.004-0.867-0.394-0.867-0.874v-6.321c0.005-0.479-0.379-0.871-0.858-0.875
						C50.294,352.813,50.287,352.813,50.279,352.814z"/>
					
						<linearGradient id="SVGID_00000062166104130847863480000003881373773655073712_" gradientUnits="userSpaceOnUse" x1="-515.1984" y1="1414.98" x2="-515.1984" y2="1440.98" gradientTransform="matrix(1 0 0 -1 564 1793.6)">
						<stop  offset="0" style="stop-color:#0078D4"/>
						<stop  offset="0.817" style="stop-color:#5EA0EF"/>
					</linearGradient>
					<path fill="url(#SVGID_00000062166104130847863480000003881373773655073712_)" d="M49.875,353.932v5.993
						c0.001,1.213,0.983,2.197,2.196,2.2h6.038v15.184H39.495v-23.377H49.875 M50.298,352.62H39.072
						c-0.49,0-0.887,0.397-0.887,0.887c0,0,0,0.001,0,0.001v24.223c-0.001,0.49,0.396,0.888,0.885,0.888c0,0,0.001,0,0.001,0h19.46
						c0.49,0,0.887-0.397,0.887-0.887c0,0,0-0.001,0-0.001V361.7c0-0.49-0.397-0.887-0.887-0.887l0,0H52.07
						c-0.49-0.001-0.886-0.399-0.885-0.888l0,0v-6.416c0.001-0.49-0.396-0.888-0.885-0.888
						C50.299,352.62,50.299,352.62,50.298,352.62z"/>
					<path fill="#0078D4" d="M59.08,360.989l-8.202-8.176v6.662c-0.006,0.83,0.663,1.508,1.493,1.514c0,0,0.001,0,0.002,0H59.08z"/>
				</g>
				<path fill="#5EA0EF" d="M42.45,364.459h12.701c0.481,0,0.871,0.39,0.871,0.871v0.195c0,0.481-0.39,0.871-0.871,0.871H42.45
					c-0.481,0-0.871-0.39-0.871-0.871v-0.195C41.579,364.849,41.969,364.459,42.45,364.459z"/>
				<path fill="#5EA0EF" d="M42.45,367.93h12.701c0.481,0,0.871,0.39,0.871,0.871v0.195c0,0.481-0.39,0.871-0.871,0.871H42.45
					c-0.481,0-0.871-0.39-0.871-0.871v-0.195C41.579,368.32,41.969,367.93,42.45,367.93z"/>
				<path fill="#5EA0EF" d="M42.45,371.401h7.361c0.481,0,0.871,0.39,0.871,0.871v0.195c0,0.481-0.39,0.871-0.871,0.871H42.45
					c-0.481,0-0.871-0.39-0.871-0.871v-0.195C41.579,371.791,41.969,371.401,42.45,371.401z"/>
			</g>
		</g>
		<g id="abc3e3f9-d4db-41ad-8b60-378d1c3348f7_00000003811018592251161060000000197754845111357060_">
			<g>
				<g>
					<path fill="#FFFFFF" d="M81.079,352.814H70.013c-0.483,0-0.874,0.391-0.874,0.874c0,0,0,0.001,0,0.001v23.862
						c-0.001,0.483,0.39,0.875,0.872,0.875c0,0,0.001,0,0.001,0H89.19c0.48-0.004,0.867-0.395,0.867-0.875v-15.792
						c0.001-0.48-0.386-0.871-0.867-0.875h-6.364c-0.48-0.004-0.867-0.394-0.867-0.874v-6.321c0.005-0.479-0.379-0.871-0.858-0.875
						C81.094,352.813,81.087,352.813,81.079,352.814z"/>
					
						<linearGradient id="SVGID_00000069359227112602244770000017331366673986420097_" gradientUnits="userSpaceOnUse" x1="-484.3984" y1="1414.98" x2="-484.3984" y2="1440.98" gradientTransform="matrix(1 0 0 -1 564 1793.6)">
						<stop  offset="0" style="stop-color:#0078D4"/>
						<stop  offset="0.817" style="stop-color:#5EA0EF"/>
					</linearGradient>
					<path fill="url(#SVGID_00000069359227112602244770000017331366673986420097_)" d="M80.675,353.932v5.993
						c0.001,1.213,0.983,2.197,2.196,2.2h6.038v15.184H70.295v-23.377H80.675 M81.098,352.62H69.872
						c-0.49,0-0.887,0.397-0.887,0.887c0,0,0,0.001,0,0.001v24.223c-0.001,0.49,0.396,0.888,0.885,0.888c0,0,0.001,0,0.001,0h19.46
						c0.49,0,0.887-0.397,0.887-0.887c0,0,0-0.001,0-0.001V361.7c0-0.49-0.397-0.887-0.887-0.887l0,0H82.87
						c-0.49-0.001-0.886-0.399-0.885-0.888l0,0v-6.416c0.001-0.49-0.396-0.888-0.885-0.888
						C81.099,352.62,81.099,352.62,81.098,352.62z"/>
					<path fill="#0078D4" d="M89.88,360.989l-8.202-8.176v6.662c-0.006,0.83,0.663,1.508,1.493,1.514c0,0,0.001,0,0.002,0H89.88z"/>
				</g>
				<path fill="#5EA0EF" d="M73.25,364.459h12.701c0.481,0,0.871,0.39,0.871,0.871v0.195c0,0.481-0.39,0.871-0.871,0.871H73.25
					c-0.481,0-0.871-0.39-0.871-0.871v-0.195C72.379,364.849,72.769,364.459,73.25,364.459z"/>
				<path fill="#5EA0EF" d="M73.25,367.93h12.701c0.481,0,0.871,0.39,0.871,0.871v0.195c0,0.481-0.39,0.871-0.871,0.871H73.25
					c-0.481,0-0.871-0.39-0.871-0.871v-0.195C72.379,368.32,72.769,367.93,73.25,367.93z"/>
				<path fill="#5EA0EF" d="M73.25,371.401h7.361c0.481,0,0.871,0.39,0.871,0.871v0.195c0,0.481-0.39,0.871-0.871,0.871H73.25
					c-0.481,0-0.871-0.39-0.871-0.871v-0.195C72.379,371.791,72.769,371.401,73.25,371.401z"/>
			</g>
		</g>
		<g id="abc3e3f9-d4db-41ad-8b60-378d1c3348f7_00000150061005859252913870000008507106382356763015_">
			<g>
				<g>
					<path fill="#FFFFFF" d="M112.646,352.814H101.58c-0.483,0-0.874,0.391-0.874,0.874c0,0,0,0.001,0,0.001v23.862
						c-0.001,0.483,0.39,0.875,0.872,0.875c0,0,0.001,0,0.001,0h19.176c0.48-0.004,0.867-0.395,0.867-0.875v-15.792
						c0.001-0.48-0.386-0.871-0.867-0.875h-6.364c-0.48-0.004-0.867-0.394-0.867-0.874v-6.321c0.005-0.479-0.379-0.871-0.858-0.875
						C112.66,352.813,112.653,352.813,112.646,352.814z"/>
					
						<linearGradient id="SVGID_00000005235988203810488390000015895336314120158612_" gradientUnits="userSpaceOnUse" x1="-452.8317" y1="1414.98" x2="-452.8317" y2="1440.98" gradientTransform="matrix(1 0 0 -1 564 1793.6)">
						<stop  offset="0" style="stop-color:#0078D4"/>
						<stop  offset="0.817" style="stop-color:#5EA0EF"/>
					</linearGradient>
					<path fill="url(#SVGID_00000005235988203810488390000015895336314120158612_)" d="M112.241,353.932v5.993
						c0.001,1.213,0.983,2.197,2.196,2.2h6.038v15.184h-18.613v-23.377H112.241 M112.665,352.62h-11.226
						c-0.49,0-0.887,0.397-0.887,0.887c0,0,0,0.001,0,0.001v24.223c-0.001,0.49,0.396,0.888,0.885,0.888c0,0,0.001,0,0.001,0h19.46
						c0.49,0,0.887-0.397,0.887-0.887c0,0,0-0.001,0-0.001V361.7c0-0.49-0.397-0.887-0.887-0.887l0,0h-6.461
						c-0.49-0.001-0.886-0.399-0.885-0.888l0,0v-6.416c0.001-0.49-0.396-0.888-0.885-0.888
						C112.666,352.62,112.665,352.62,112.665,352.62z"/>
					<path fill="#0078D4" d="M121.447,360.989l-8.202-8.176v6.662c-0.006,0.83,0.663,1.508,1.493,1.514c0.001,0,0.001,0,0.002,0
						H121.447z"/>
				</g>
				<path fill="#5EA0EF" d="M104.817,364.459h12.701c0.481,0,0.871,0.39,0.871,0.871v0.195c0,0.481-0.39,0.871-0.871,0.871h-12.701
					c-0.481,0-0.871-0.39-0.871-0.871v-0.195C103.946,364.849,104.336,364.459,104.817,364.459z"/>
				<path fill="#5EA0EF" d="M104.817,367.93h12.701c0.481,0,0.871,0.39,0.871,0.871v0.195c0,0.481-0.39,0.871-0.871,0.871h-12.701
					c-0.481,0-0.871-0.39-0.871-0.871v-0.195C103.946,368.32,104.336,367.93,104.817,367.93z"/>
				<path fill="#5EA0EF" d="M104.817,371.401h7.361c0.481,0,0.871,0.39,0.871,0.871v0.195c0,0.481-0.39,0.871-0.871,0.871h-7.361
					c-0.481,0-0.871-0.39-0.871-0.871v-0.195C103.946,371.791,104.336,371.401,104.817,371.401z"/>
			</g>
		</g>
		<g id="abc3e3f9-d4db-41ad-8b60-378d1c3348f7_00000124140204283360299760000005136333380620505768_">
			<g>
				<g>
					<path fill="#FFFFFF" d="M143.446,352.814H132.38c-0.483,0-0.874,0.391-0.874,0.874c0,0,0,0.001,0,0.001v23.862
						c-0.001,0.483,0.39,0.875,0.872,0.875c0,0,0.001,0,0.001,0h19.176c0.48-0.004,0.867-0.395,0.867-0.875v-15.792
						c0.001-0.48-0.386-0.871-0.867-0.875h-6.364c-0.48-0.004-0.867-0.394-0.867-0.874v-6.321c0.005-0.479-0.379-0.871-0.858-0.875
						C143.46,352.813,143.453,352.813,143.446,352.814z"/>
					
						<linearGradient id="SVGID_00000167379715556338218410000016638884230336088506_" gradientUnits="userSpaceOnUse" x1="-422.0317" y1="1414.98" x2="-422.0317" y2="1440.98" gradientTransform="matrix(1 0 0 -1 564 1793.6)">
						<stop  offset="0" style="stop-color:#0078D4"/>
						<stop  offset="0.817" style="stop-color:#5EA0EF"/>
					</linearGradient>
					<path fill="url(#SVGID_00000167379715556338218410000016638884230336088506_)" d="M143.041,353.932v5.993
						c0.001,1.213,0.983,2.197,2.196,2.2h6.038v15.184h-18.613v-23.377H143.041 M143.465,352.62h-11.226
						c-0.49,0-0.887,0.397-0.887,0.887c0,0,0,0.001,0,0.001v24.223c-0.001,0.49,0.396,0.888,0.885,0.888c0,0,0.001,0,0.001,0h19.46
						c0.49,0,0.887-0.397,0.887-0.887c0,0,0-0.001,0-0.001V361.7c0-0.49-0.397-0.887-0.887-0.887l0,0h-6.461
						c-0.49-0.001-0.886-0.399-0.885-0.888l0,0v-6.416c0.001-0.49-0.396-0.888-0.885-0.888
						C143.466,352.62,143.465,352.62,143.465,352.62z"/>
					<path fill="#0078D4" d="M152.247,360.989l-8.202-8.176v6.662c-0.006,0.83,0.663,1.508,1.493,1.514c0,0,0.001,0,0.001,0H152.247
						z"/>
				</g>
				<path fill="#5EA0EF" d="M135.617,364.459h12.701c0.481,0,0.871,0.39,0.871,0.871v0.195c0,0.481-0.39,0.871-0.871,0.871h-12.701
					c-0.481,0-0.871-0.39-0.871-0.871v-0.195C134.746,364.849,135.136,364.459,135.617,364.459z"/>
				<path fill="#5EA0EF" d="M135.617,367.93h12.701c0.481,0,0.871,0.39,0.871,0.871v0.195c0,0.481-0.39,0.871-0.871,0.871h-12.701
					c-0.481,0-0.871-0.39-0.871-0.871v-0.195C134.746,368.32,135.136,367.93,135.617,367.93z"/>
				<path fill="#5EA0EF" d="M135.617,371.401h7.361c0.481,0,0.871,0.39,0.871,0.871v0.195c0,0.481-0.39,0.871-0.871,0.871h-7.361
					c-0.481,0-0.871-0.39-0.871-0.871v-0.195C134.746,371.791,135.136,371.401,135.617,371.401z"/>
			</g>
		</g>
		<g id="abc3e3f9-d4db-41ad-8b60-378d1c3348f7_00000129178333397765063850000014496131291416487596_">
			<g>
				<g>
					<path fill="#FFFFFF" d="M173.479,352.814h-11.066c-0.483,0-0.874,0.391-0.874,0.874c0,0,0,0.001,0,0.001v23.862
						c-0.001,0.483,0.39,0.875,0.872,0.875c0,0,0.001,0,0.001,0h19.176c0.48-0.004,0.867-0.395,0.867-0.875v-15.792
						c0.001-0.48-0.386-0.871-0.867-0.875h-6.364c-0.48-0.004-0.867-0.394-0.867-0.874v-6.321c0.005-0.479-0.379-0.871-0.858-0.875
						C173.494,352.813,173.487,352.813,173.479,352.814z"/>
					
						<linearGradient id="SVGID_00000031913733850282818310000013621688539732557445_" gradientUnits="userSpaceOnUse" x1="-391.9984" y1="1414.98" x2="-391.9984" y2="1440.98" gradientTransform="matrix(1 0 0 -1 564 1793.6)">
						<stop  offset="0" style="stop-color:#0078D4"/>
						<stop  offset="0.817" style="stop-color:#5EA0EF"/>
					</linearGradient>
					<path fill="url(#SVGID_00000031913733850282818310000013621688539732557445_)" d="M173.075,353.932v5.993
						c0.001,1.213,0.983,2.197,2.196,2.2h6.038v15.184h-18.613v-23.377H173.075 M173.498,352.62h-11.226
						c-0.49,0-0.887,0.397-0.887,0.887c0,0,0,0.001,0,0.001v24.223c-0.001,0.49,0.396,0.888,0.885,0.888c0,0,0.001,0,0.001,0h19.46
						c0.49,0,0.887-0.397,0.887-0.887c0,0,0-0.001,0-0.001V361.7c0-0.49-0.397-0.887-0.887-0.887l0,0h-6.461
						c-0.49-0.001-0.886-0.399-0.885-0.888l0,0v-6.416c0.001-0.49-0.396-0.888-0.885-0.888
						C173.499,352.62,173.499,352.62,173.498,352.62z"/>
					<path fill="#0078D4" d="M182.28,360.989l-8.202-8.176v6.662c-0.006,0.83,0.663,1.508,1.493,1.514c0.001,0,0.001,0,0.002,0
						H182.28z"/>
				</g>
				<path fill="#5EA0EF" d="M165.65,364.459h12.701c0.481,0,0.871,0.39,0.871,0.871v0.195c0,0.481-0.39,0.871-0.871,0.871H165.65
					c-0.481,0-0.871-0.39-0.871-0.871v-0.195C164.779,364.849,165.169,364.459,165.65,364.459z"/>
				<path fill="#5EA0EF" d="M165.65,367.93h12.701c0.481,0,0.871,0.39,0.871,0.871v0.195c0,0.481-0.39,0.871-0.871,0.871H165.65
					c-0.481,0-0.871-0.39-0.871-0.871v-0.195C164.779,368.32,165.169,367.93,165.65,367.93z"/>
				<path fill="#5EA0EF" d="M165.65,371.401h7.361c0.481,0,0.871,0.39,0.871,0.871v0.195c0,0.481-0.39,0.871-0.871,0.871h-7.361
					c-0.481,0-0.871-0.39-0.871-0.871v-0.195C164.779,371.791,165.169,371.401,165.65,371.401z"/>
			</g>
		</g>
		<g id="abc3e3f9-d4db-41ad-8b60-378d1c3348f7_00000109714964124120210140000001141244791123830148_">
			<g>
				<g>
					<path fill="#FFFFFF" d="M204.279,352.814h-11.066c-0.483,0-0.874,0.391-0.874,0.874c0,0,0,0.001,0,0.001v23.862
						c-0.001,0.483,0.39,0.875,0.872,0.875c0,0,0.001,0,0.001,0h19.176c0.48-0.004,0.867-0.395,0.867-0.875v-15.792
						c0.001-0.48-0.386-0.871-0.867-0.875h-6.364c-0.48-0.004-0.867-0.394-0.867-0.874v-6.321c0.005-0.479-0.379-0.871-0.858-0.875
						C204.294,352.813,204.287,352.813,204.279,352.814z"/>
					
						<linearGradient id="SVGID_00000078013439544957578650000004893379582204004257_" gradientUnits="userSpaceOnUse" x1="-361.1984" y1="1414.98" x2="-361.1984" y2="1440.98" gradientTransform="matrix(1 0 0 -1 564 1793.6)">
						<stop  offset="0" style="stop-color:#0078D4"/>
						<stop  offset="0.817" style="stop-color:#5EA0EF"/>
					</linearGradient>
					<path fill="url(#SVGID_00000078013439544957578650000004893379582204004257_)" d="M203.875,353.932v5.993
						c0.001,1.213,0.983,2.197,2.196,2.2h6.038v15.184h-18.613v-23.377H203.875 M204.298,352.62h-11.226
						c-0.49,0-0.887,0.397-0.887,0.887c0,0,0,0.001,0,0.001v24.223c-0.001,0.49,0.396,0.888,0.885,0.888c0,0,0.001,0,0.001,0h19.46
						c0.49,0,0.887-0.397,0.887-0.887c0,0,0-0.001,0-0.001V361.7c0-0.49-0.397-0.887-0.887-0.887l0,0h-6.461
						c-0.49-0.001-0.886-0.399-0.885-0.888l0,0v-6.416c0.001-0.49-0.396-0.888-0.885-0.888
						C204.299,352.62,204.299,352.62,204.298,352.62z"/>
					<path fill="#0078D4" d="M213.08,360.989l-8.202-8.176v6.662c-0.006,0.83,0.663,1.508,1.493,1.514c0.001,0,0.001,0,0.001,0
						H213.08z"/>
				</g>
				<path fill="#5EA0EF" d="M196.45,364.459h12.701c0.481,0,0.871,0.39,0.871,0.871v0.195c0,0.481-0.39,0.871-0.871,0.871H196.45
					c-0.481,0-0.871-0.39-0.871-0.871v-0.195C195.579,364.849,195.969,364.459,196.45,364.459z"/>
				<path fill="#5EA0EF" d="M196.45,367.93h12.701c0.481,0,0.871,0.39,0.871,0.871v0.195c0,0.481-0.39,0.871-0.871,0.871H196.45
					c-0.481,0-0.871-0.39-0.871-0.871v-0.195C195.579,368.32,195.969,367.93,196.45,367.93z"/>
				<path fill="#5EA0EF" d="M196.45,371.401h7.361c0.481,0,0.871,0.39,0.871,0.871v0.195c0,0.481-0.39,0.871-0.871,0.871h-7.361
					c-0.481,0-0.871-0.39-0.871-0.871v-0.195C195.579,371.791,195.969,371.401,196.45,371.401z"/>
			</g>
		</g>
		<g id="abc3e3f9-d4db-41ad-8b60-378d1c3348f7_00000001655548687060098950000015956116377256768670_">
			<g>
				<g>
					<path fill="#FFFFFF" d="M235.846,352.814H224.78c-0.483,0-0.874,0.391-0.874,0.874c0,0,0,0.001,0,0.001v23.862
						c-0.001,0.483,0.39,0.875,0.872,0.875c0,0,0.001,0,0.001,0h19.176c0.48-0.004,0.867-0.395,0.867-0.875v-15.792
						c0.001-0.48-0.386-0.871-0.867-0.875h-6.364c-0.48-0.004-0.867-0.394-0.867-0.874v-6.321c0.005-0.479-0.379-0.871-0.858-0.875
						C235.86,352.813,235.853,352.813,235.846,352.814z"/>
					
						<linearGradient id="SVGID_00000001654915311472893010000015530278478375787935_" gradientUnits="userSpaceOnUse" x1="-329.6317" y1="1414.98" x2="-329.6317" y2="1440.98" gradientTransform="matrix(1 0 0 -1 564 1793.6)">
						<stop  offset="0" style="stop-color:#0078D4"/>
						<stop  offset="0.817" style="stop-color:#5EA0EF"/>
					</linearGradient>
					<path fill="url(#SVGID_00000001654915311472893010000015530278478375787935_)" d="M235.441,353.932v5.993
						c0.001,1.213,0.983,2.197,2.196,2.2h6.038v15.184h-18.613v-23.377H235.441 M235.865,352.62h-11.226
						c-0.49,0-0.887,0.397-0.887,0.887c0,0,0,0.001,0,0.001v24.223c-0.001,0.49,0.396,0.888,0.885,0.888c0,0,0.001,0,0.001,0h19.46
						c0.49,0,0.887-0.397,0.887-0.887c0,0,0-0.001,0-0.001V361.7c0-0.49-0.397-0.887-0.887-0.887l0,0h-6.461
						c-0.49-0.001-0.886-0.399-0.885-0.888l0,0v-6.416c0.001-0.49-0.396-0.888-0.885-0.888
						C235.866,352.62,235.865,352.62,235.865,352.62z"/>
					<path fill="#0078D4" d="M244.647,360.989l-8.202-8.176v6.662c-0.006,0.83,0.663,1.508,1.493,1.514c0.001,0,0.001,0,0.001,0
						H244.647z"/>
				</g>
				<path fill="#5EA0EF" d="M228.017,364.459h12.701c0.481,0,0.871,0.39,0.871,0.871v0.195c0,0.481-0.39,0.871-0.871,0.871h-12.701
					c-0.481,0-0.871-0.39-0.871-0.871v-0.195C227.146,364.849,227.536,364.459,228.017,364.459z"/>
				<path fill="#5EA0EF" d="M228.017,367.93h12.701c0.481,0,0.871,0.39,0.871,0.871v0.195c0,0.481-0.39,0.871-0.871,0.871h-12.701
					c-0.481,0-0.871-0.39-0.871-0.871v-0.195C227.146,368.32,227.536,367.93,228.017,367.93z"/>
				<path fill="#5EA0EF" d="M228.017,371.401h7.361c0.481,0,0.871,0.39,0.871,0.871v0.195c0,0.481-0.39,0.871-0.871,0.871h-7.361
					c-0.481,0-0.871-0.39-0.871-0.871v-0.195C227.146,371.791,227.536,371.401,228.017,371.401z"/>
			</g>
		</g>
		<g id="abc3e3f9-d4db-41ad-8b60-378d1c3348f7_00000139258298466908989150000008723579452691653560_">
			<g>
				<g>
					<path fill="#FFFFFF" d="M266.646,352.814H255.58c-0.483,0-0.874,0.391-0.874,0.874c0,0,0,0.001,0,0.001v23.862
						c-0.001,0.483,0.39,0.875,0.872,0.875c0,0,0.001,0,0.001,0h19.176c0.48-0.004,0.867-0.395,0.867-0.875v-15.792
						c0.001-0.48-0.386-0.871-0.867-0.875h-6.364c-0.48-0.004-0.867-0.394-0.867-0.874v-6.321c0.005-0.479-0.379-0.871-0.858-0.875
						C266.66,352.813,266.653,352.813,266.646,352.814z"/>
					
						<linearGradient id="SVGID_00000057841476727351958390000011518763642922120376_" gradientUnits="userSpaceOnUse" x1="-298.8317" y1="1414.98" x2="-298.8317" y2="1440.98" gradientTransform="matrix(1 0 0 -1 564 1793.6)">
						<stop  offset="0" style="stop-color:#0078D4"/>
						<stop  offset="0.817" style="stop-color:#5EA0EF"/>
					</linearGradient>
					<path fill="url(#SVGID_00000057841476727351958390000011518763642922120376_)" d="M266.241,353.932v5.993
						c0.001,1.213,0.983,2.197,2.196,2.2h6.038v15.184h-18.613v-23.377H266.241 M266.665,352.62h-11.226
						c-0.49,0-0.887,0.397-0.887,0.887c0,0,0,0.001,0,0.001v24.223c-0.001,0.49,0.396,0.888,0.885,0.888c0,0,0.001,0,0.001,0h19.46
						c0.49,0,0.887-0.397,0.887-0.887c0,0,0-0.001,0-0.001V361.7c0-0.49-0.397-0.887-0.887-0.887l0,0h-6.461
						c-0.49-0.001-0.886-0.399-0.885-0.888l0,0v-6.416c0.001-0.49-0.396-0.888-0.885-0.888
						C266.666,352.62,266.665,352.62,266.665,352.62z"/>
					<path fill="#0078D4" d="M275.447,360.989l-8.202-8.176v6.662c-0.006,0.83,0.663,1.508,1.493,1.514c0.001,0,0.001,0,0.002,0
						H275.447z"/>
				</g>
				<path fill="#5EA0EF" d="M258.817,364.459h12.701c0.481,0,0.871,0.39,0.871,0.871v0.195c0,0.481-0.39,0.871-0.871,0.871h-12.701
					c-0.481,0-0.871-0.39-0.871-0.871v-0.195C257.946,364.849,258.336,364.459,258.817,364.459z"/>
				<path fill="#5EA0EF" d="M258.817,367.93h12.701c0.481,0,0.871,0.39,0.871,0.871v0.195c0,0.481-0.39,0.871-0.871,0.871h-12.701
					c-0.481,0-0.871-0.39-0.871-0.871v-0.195C257.946,368.32,258.336,367.93,258.817,367.93z"/>
				<path fill="#5EA0EF" d="M258.817,371.401h7.361c0.481,0,0.871,0.39,0.871,0.871v0.195c0,0.481-0.39,0.871-0.871,0.871h-7.361
					c-0.481,0-0.871-0.39-0.871-0.871v-0.195C257.946,371.791,258.336,371.401,258.817,371.401z"/>
			</g>
		</g>
		<g id="abc3e3f9-d4db-41ad-8b60-378d1c3348f7_00000081620492408080066040000008399671711939668408_">
			<g>
				<g>
					<path fill="#FFFFFF" d="M354.646,352.814H343.58c-0.483,0-0.874,0.391-0.874,0.874c0,0,0,0.001,0,0.001v23.862
						c-0.001,0.483,0.39,0.875,0.872,0.875c0,0,0.001,0,0.001,0h19.176c0.48-0.004,0.867-0.395,0.867-0.875v-15.792
						c0.001-0.48-0.386-0.871-0.867-0.875h-6.364c-0.48-0.004-0.867-0.394-0.867-0.874v-6.321c0.005-0.479-0.379-0.871-0.858-0.875
						C354.66,352.813,354.653,352.813,354.646,352.814z"/>
					
						<linearGradient id="SVGID_00000086651070045950979110000004954632698365374862_" gradientUnits="userSpaceOnUse" x1="-210.8317" y1="1414.98" x2="-210.8317" y2="1440.98" gradientTransform="matrix(1 0 0 -1 564 1793.6)">
						<stop  offset="0" style="stop-color:#0078D4"/>
						<stop  offset="0.817" style="stop-color:#5EA0EF"/>
					</linearGradient>
					<path fill="url(#SVGID_00000086651070045950979110000004954632698365374862_)" d="M354.241,353.932v5.993
						c0.001,1.213,0.983,2.197,2.196,2.2h6.038v15.184h-18.613v-23.377H354.241 M354.665,352.62h-11.226
						c-0.49,0-0.887,0.397-0.887,0.887c0,0,0,0.001,0,0.001v24.223c-0.001,0.49,0.396,0.888,0.885,0.888c0,0,0.001,0,0.001,0h19.46
						c0.49,0,0.887-0.397,0.887-0.887c0,0,0-0.001,0-0.001V361.7c0-0.49-0.397-0.887-0.887-0.887l0,0h-6.461
						c-0.49-0.001-0.886-0.399-0.885-0.888l0,0v-6.416c0.001-0.49-0.396-0.888-0.885-0.888
						C354.666,352.62,354.665,352.62,354.665,352.62z"/>
					<path fill="#0078D4" d="M363.447,360.989l-8.202-8.176v6.662c-0.006,0.83,0.663,1.508,1.493,1.514c0.001,0,0.001,0,0.002,0
						H363.447z"/>
				</g>
				<path fill="#5EA0EF" d="M346.817,364.459h12.701c0.481,0,0.871,0.39,0.871,0.871v0.195c0,0.481-0.39,0.871-0.871,0.871h-12.701
					c-0.481,0-0.871-0.39-0.871-0.871v-0.195C345.946,364.849,346.336,364.459,346.817,364.459z"/>
				<path fill="#5EA0EF" d="M346.817,367.93h12.701c0.481,0,0.871,0.39,0.871,0.871v0.195c0,0.481-0.39,0.871-0.871,0.871h-12.701
					c-0.481,0-0.871-0.39-0.871-0.871v-0.195C345.946,368.32,346.336,367.93,346.817,367.93z"/>
				<path fill="#5EA0EF" d="M346.817,371.401h7.361c0.481,0,0.871,0.39,0.871,0.871v0.195c0,0.481-0.39,0.871-0.871,0.871h-7.361
					c-0.481,0-0.871-0.39-0.871-0.871v-0.195C345.946,371.791,346.336,371.401,346.817,371.401z"/>
			</g>
		</g>
		<path d="M298.201,363.621c0.281,0,0.541,0.052,0.781,0.156c0.239,0.104,0.448,0.245,0.625,0.422
			c0.177,0.177,0.323,0.39,0.437,0.64c0.115,0.25,0.167,0.51,0.156,0.781c0,0.281-0.052,0.541-0.156,0.781
			c-0.104,0.239-0.245,0.448-0.422,0.625s-0.39,0.323-0.64,0.437s-0.51,0.167-0.781,0.156c-0.281,0-0.541-0.052-0.781-0.156
			c-0.239-0.104-0.448-0.245-0.625-0.422c-0.177-0.177-0.323-0.39-0.437-0.64c-0.115-0.25-0.167-0.51-0.156-0.781
			c0-0.281,0.052-0.541,0.156-0.781c0.104-0.239,0.245-0.448,0.422-0.625s0.39-0.323,0.64-0.437
			C297.67,363.663,297.93,363.611,298.201,363.621z M310.193,363.621c0.281,0,0.541,0.052,0.781,0.156
			c0.239,0.104,0.448,0.245,0.625,0.422c0.177,0.177,0.323,0.39,0.437,0.64c0.115,0.25,0.167,0.51,0.156,0.781
			c0,0.281-0.052,0.541-0.156,0.781c-0.104,0.239-0.245,0.448-0.422,0.625s-0.39,0.323-0.64,0.437s-0.51,0.167-0.781,0.156
			c-0.281,0-0.541-0.052-0.781-0.156c-0.239-0.104-0.448-0.245-0.625-0.422s-0.323-0.39-0.437-0.64
			c-0.115-0.25-0.167-0.51-0.156-0.781c0-0.281,0.052-0.541,0.156-0.781c0.104-0.239,0.245-0.448,0.422-0.625s0.39-0.323,0.64-0.437
			C309.662,363.663,309.922,363.611,310.193,363.621z M322.185,363.621c0.281,0,0.541,0.052,0.781,0.156
			c0.239,0.104,0.448,0.245,0.625,0.422c0.177,0.177,0.323,0.39,0.437,0.64c0.115,0.25,0.167,0.51,0.156,0.781
			c0,0.281-0.052,0.541-0.156,0.781c-0.104,0.239-0.245,0.448-0.422,0.625c-0.177,0.177-0.39,0.323-0.64,0.437
			c-0.25,0.115-0.51,0.167-0.781,0.156c-0.281,0-0.541-0.052-0.781-0.156c-0.239-0.104-0.448-0.245-0.625-0.422
			s-0.323-0.39-0.437-0.64c-0.115-0.25-0.167-0.51-0.156-0.781c0-0.281,0.052-0.541,0.156-0.781
			c0.104-0.239,0.245-0.448,0.422-0.625s0.39-0.323,0.64-0.437C321.654,363.663,321.914,363.611,322.185,363.621z"/>
	</g>
	<g>
		<g>
			<g opacity="0.23">
				<rect x="77.161" y="225.4" width="34" height="34"/>
			</g>
			<g>
				<rect x="76.161" y="224.4" fill="#FFFFFF" width="34" height="34"/>
			</g>
		</g>
		
			<linearGradient id="SVGID_00000121274733450919826820000004474741240151833783_" gradientUnits="userSpaceOnUse" x1="93.1613" y1="1308.9272" x2="93.1613" y2="1327.4728" gradientTransform="matrix(1 0 0 -1 0 1559.6)">
			<stop  offset="0" style="stop-color:#32BEDD"/>
			<stop  offset="0.576" style="stop-color:#32CEEF"/>
			<stop  offset="1" style="stop-color:#32D4F5"/>
		</linearGradient>
		<path fill="url(#SVGID_00000121274733450919826820000004474741240151833783_)" d="M102.434,242.401v-2.114l-0.297-0.111
			l-2.267-0.742l-0.593-1.442l1.15-2.448l-1.484-1.484l-0.297,0.148l-2.11,1.072l-1.442-0.593l-0.931-2.559h-2.114l-0.111,0.297
			l-0.742,2.267l-1.442,0.593l-2.415-1.154l-1.484,1.484l0.148,0.297l1.08,2.114l-0.593,1.442l-2.6,0.931v2.114l0.297,0.111
			l2.267,0.742l0.593,1.442l-1.154,2.452l1.484,1.484l0.297-0.148l2.114-1.076l1.442,0.593l0.931,2.559h2.114l0.111-0.297
			l0.742-2.267l1.442-0.593l2.448,1.15l1.484-1.484l-0.148-0.297l-1.072-2.11l0.593-1.442L102.434,242.401z M93.161,245.47
			c-2.248,0-4.07-1.822-4.07-4.07c0-2.248,1.822-4.07,4.07-4.07c2.248,0,4.07,1.822,4.07,4.07l0,0
			c0.002,2.246-1.818,4.068-4.064,4.07C93.165,245.47,93.163,245.47,93.161,245.47z"/>
	</g>
	<g>
		<g>
			<g opacity="0.23">
				<rect x="204.761" y="225.4" width="34" height="34"/>
			</g>
			<g>
				<rect x="203.761" y="224.4" fill="#FFFFFF" width="34" height="34"/>
			</g>
		</g>
		
			<linearGradient id="SVGID_00000168808381802630232350000006676280373379861430_" gradientUnits="userSpaceOnUse" x1="220.7613" y1="1308.9272" x2="220.7613" y2="1327.4728" gradientTransform="matrix(1 0 0 -1 0 1559.6)">
			<stop  offset="0" style="stop-color:#32BEDD"/>
			<stop  offset="0.576" style="stop-color:#32CEEF"/>
			<stop  offset="1" style="stop-color:#32D4F5"/>
		</linearGradient>
		<path fill="url(#SVGID_00000168808381802630232350000006676280373379861430_)" d="M230.034,242.401v-2.114l-0.297-0.111
			l-2.267-0.742l-0.593-1.442l1.15-2.448l-1.484-1.484l-0.297,0.148l-2.11,1.072l-1.442-0.593l-0.931-2.559h-2.114l-0.111,0.297
			l-0.742,2.267l-1.442,0.593l-2.415-1.154l-1.484,1.484l0.148,0.297l1.08,2.114l-0.593,1.442l-2.6,0.931v2.114l0.297,0.111
			l2.267,0.742l0.593,1.442l-1.154,2.452l1.484,1.484l0.297-0.148l2.114-1.076l1.442,0.593l0.931,2.559h2.114l0.111-0.297
			l0.742-2.267l1.442-0.593l2.448,1.15l1.484-1.484l-0.148-0.297l-1.072-2.11l0.593-1.442L230.034,242.401z M220.761,245.47
			c-2.248,0-4.07-1.822-4.07-4.07c0-2.248,1.822-4.07,4.07-4.07s4.07,1.822,4.07,4.07l0,0c0.002,2.246-1.818,4.068-4.064,4.07
			C220.765,245.47,220.763,245.47,220.761,245.47z"/>
	</g>
	<g>
		<g>
			<g opacity="0.23">
				<rect x="247.4" y="225.4" width="34" height="34"/>
			</g>
			<g>
				<rect x="246.4" y="224.4" fill="#FFFFFF" width="34" height="34"/>
			</g>
		</g>
		
			<linearGradient id="SVGID_00000076604103844897375150000005207197951331746954_" gradientUnits="userSpaceOnUse" x1="263.4" y1="1308.9272" x2="263.4" y2="1327.4728" gradientTransform="matrix(1 0 0 -1 0 1559.6)">
			<stop  offset="0" style="stop-color:#32BEDD"/>
			<stop  offset="0.576" style="stop-color:#32CEEF"/>
			<stop  offset="1" style="stop-color:#32D4F5"/>
		</linearGradient>
		<path fill="url(#SVGID_00000076604103844897375150000005207197951331746954_)" d="M272.673,242.401v-2.114l-0.297-0.111
			l-2.267-0.742l-0.593-1.442l1.15-2.448l-1.484-1.484l-0.297,0.148l-2.11,1.072l-1.442-0.593l-0.931-2.559h-2.114l-0.111,0.297
			l-0.742,2.267l-1.442,0.593l-2.415-1.154l-1.484,1.484l0.148,0.297l1.08,2.114l-0.593,1.442l-2.6,0.931v2.114l0.297,0.111
			l2.267,0.742l0.593,1.442l-1.154,2.452l1.484,1.484l0.297-0.148l2.114-1.076l1.442,0.593l0.931,2.559h2.114l0.111-0.297
			l0.742-2.267l1.442-0.593l2.448,1.15l1.484-1.484l-0.148-0.297l-1.072-2.11l0.593-1.442L272.673,242.401z M263.4,245.47
			c-2.248,0-4.07-1.822-4.07-4.07c0-2.248,1.822-4.07,4.07-4.07c2.248,0,4.07,1.822,4.07,4.07l0,0
			c0.002,2.246-1.818,4.068-4.064,4.07C263.404,245.47,263.402,245.47,263.4,245.47z"/>
	</g>
	<g>
		<g>
			<g opacity="0.23">
				<rect x="291.4" y="225.4" width="34" height="34"/>
			</g>
			<g>
				<rect x="290.4" y="224.4" fill="#FFFFFF" width="34" height="34"/>
			</g>
		</g>
		
			<linearGradient id="SVGID_00000016777035300177905440000003608899596720195005_" gradientUnits="userSpaceOnUse" x1="307.4" y1="1308.9272" x2="307.4" y2="1327.4728" gradientTransform="matrix(1 0 0 -1 0 1559.6)">
			<stop  offset="0" style="stop-color:#32BEDD"/>
			<stop  offset="0.576" style="stop-color:#32CEEF"/>
			<stop  offset="1" style="stop-color:#32D4F5"/>
		</linearGradient>
		<path fill="url(#SVGID_00000016777035300177905440000003608899596720195005_)" d="M316.673,242.401v-2.114l-0.297-0.111
			l-2.267-0.742l-0.593-1.442l1.15-2.448l-1.484-1.484l-0.297,0.148l-2.11,1.072l-1.442-0.593l-0.931-2.559h-2.114l-0.111,0.297
			l-0.742,2.267l-1.442,0.593l-2.415-1.154l-1.484,1.484l0.148,0.297l1.08,2.114l-0.593,1.442l-2.6,0.931v2.114l0.297,0.111
			l2.267,0.742l0.593,1.442l-1.154,2.452l1.484,1.484l0.297-0.148l2.114-1.076l1.442,0.593l0.931,2.559h2.114l0.111-0.297
			l0.742-2.267l1.442-0.593l2.448,1.15l1.484-1.484l-0.148-0.297l-1.072-2.11l0.593-1.442L316.673,242.401z M307.4,245.47
			c-2.248,0-4.07-1.822-4.07-4.07c0-2.248,1.822-4.07,4.07-4.07c2.248,0,4.07,1.822,4.07,4.07l0,0
			c0.002,2.246-1.818,4.068-4.064,4.07C307.404,245.47,307.402,245.47,307.4,245.47z"/>
	</g>
	<path d="M125.184,239.401c0.281,0,0.541,0.052,0.781,0.156c0.239,0.104,0.448,0.245,0.625,0.422c0.177,0.177,0.323,0.39,0.437,0.64
		c0.115,0.25,0.167,0.51,0.156,0.781c0,0.281-0.052,0.541-0.156,0.781c-0.104,0.239-0.245,0.448-0.422,0.625
		c-0.177,0.177-0.39,0.323-0.64,0.437c-0.25,0.115-0.51,0.167-0.781,0.156c-0.281,0-0.541-0.052-0.781-0.156
		c-0.239-0.104-0.448-0.245-0.625-0.422s-0.323-0.39-0.437-0.64s-0.167-0.51-0.156-0.781c0-0.281,0.052-0.541,0.156-0.781
		c0.104-0.239,0.245-0.448,0.422-0.625c0.177-0.177,0.39-0.323,0.64-0.437C124.653,239.443,124.913,239.391,125.184,239.401z
		 M137.176,239.401c0.281,0,0.541,0.052,0.781,0.156s0.448,0.245,0.625,0.422c0.177,0.177,0.323,0.39,0.437,0.64
		c0.115,0.25,0.167,0.51,0.156,0.781c0,0.281-0.052,0.541-0.156,0.781s-0.245,0.448-0.422,0.625c-0.177,0.177-0.39,0.323-0.64,0.437
		c-0.25,0.115-0.51,0.167-0.781,0.156c-0.281,0-0.541-0.052-0.781-0.156s-0.448-0.245-0.625-0.422
		c-0.177-0.177-0.323-0.39-0.437-0.64s-0.167-0.51-0.156-0.781c0-0.281,0.052-0.541,0.156-0.781s0.245-0.448,0.422-0.625
		c0.177-0.177,0.39-0.323,0.64-0.437C136.645,239.443,136.905,239.391,137.176,239.401z M149.168,239.401
		c0.281,0,0.541,0.052,0.781,0.156c0.239,0.104,0.448,0.245,0.625,0.422s0.323,0.39,0.437,0.64c0.115,0.25,0.167,0.51,0.156,0.781
		c0,0.281-0.052,0.541-0.156,0.781s-0.245,0.448-0.422,0.625c-0.177,0.177-0.39,0.323-0.64,0.437
		c-0.25,0.115-0.51,0.167-0.781,0.156c-0.281,0-0.541-0.052-0.781-0.156s-0.448-0.245-0.625-0.422s-0.323-0.39-0.437-0.64
		c-0.115-0.25-0.167-0.51-0.156-0.781c0-0.281,0.052-0.541,0.156-0.781c0.104-0.239,0.245-0.448,0.422-0.625
		c0.177-0.177,0.39-0.323,0.64-0.437S148.897,239.391,149.168,239.401z"/>
	<path d="M163.199,239.401c0.281,0,0.541,0.052,0.781,0.156s0.448,0.245,0.625,0.422c0.177,0.177,0.323,0.39,0.437,0.64
		c0.115,0.25,0.167,0.51,0.156,0.781c0,0.281-0.052,0.541-0.156,0.781s-0.245,0.448-0.422,0.625c-0.177,0.177-0.39,0.323-0.64,0.437
		c-0.25,0.115-0.51,0.167-0.781,0.156c-0.281,0-0.541-0.052-0.781-0.156s-0.448-0.245-0.625-0.422
		c-0.177-0.177-0.323-0.39-0.437-0.64s-0.167-0.51-0.156-0.781c0-0.281,0.052-0.541,0.156-0.781s0.245-0.448,0.422-0.625
		c0.177-0.177,0.39-0.323,0.64-0.437C162.668,239.443,162.929,239.391,163.199,239.401z M175.191,239.401
		c0.281,0,0.541,0.052,0.781,0.156c0.239,0.104,0.448,0.245,0.625,0.422s0.323,0.39,0.437,0.64c0.115,0.25,0.167,0.51,0.156,0.781
		c0,0.281-0.052,0.541-0.156,0.781s-0.245,0.448-0.422,0.625c-0.177,0.177-0.39,0.323-0.64,0.437
		c-0.25,0.115-0.51,0.167-0.781,0.156c-0.281,0-0.541-0.052-0.781-0.156s-0.448-0.245-0.625-0.422
		c-0.177-0.177-0.323-0.39-0.437-0.64c-0.115-0.25-0.167-0.51-0.156-0.781c0-0.281,0.052-0.541,0.156-0.781
		c0.104-0.239,0.245-0.448,0.422-0.625c0.177-0.177,0.39-0.323,0.64-0.437S174.921,239.391,175.191,239.401z M187.184,239.401
		c0.281,0,0.541,0.052,0.781,0.156s0.448,0.245,0.625,0.422s0.323,0.39,0.437,0.64c0.115,0.25,0.167,0.51,0.156,0.781
		c0,0.281-0.052,0.541-0.156,0.781c-0.104,0.239-0.245,0.448-0.422,0.625c-0.177,0.177-0.39,0.323-0.64,0.437
		c-0.25,0.115-0.51,0.167-0.781,0.156c-0.281,0-0.541-0.052-0.781-0.156c-0.239-0.104-0.448-0.245-0.625-0.422
		s-0.323-0.39-0.437-0.64c-0.115-0.25-0.167-0.51-0.156-0.781c0-0.281,0.052-0.541,0.156-0.781c0.104-0.239,0.245-0.448,0.422-0.625
		c0.177-0.177,0.39-0.323,0.64-0.437C186.653,239.443,186.913,239.391,187.184,239.401z"/>
	<g>
		<g>
			<line fill="none" stroke="#3C3C41" stroke-miterlimit="10" x1="200.985" y1="325.6" x2="200.985" y2="313.382"/>
			<g>
				<polygon fill="#3C3C41" points="204.725,314.476 200.985,308 197.245,314.476 				"/>
			</g>
		</g>
	</g>
	<g>
		
			<linearGradient id="SVGID_00000075841458605706301660000013691577260405356940_" gradientUnits="userSpaceOnUse" x1="-416.1894" y1="1718.6235" x2="-393.5658" y2="1718.6235" gradientTransform="matrix(1 0 0 -1 564 1793.6)">
			<stop  offset="0" style="stop-color:#005BA1"/>
			<stop  offset="0.07" style="stop-color:#0060A9"/>
			<stop  offset="0.36" style="stop-color:#0071C8"/>
			<stop  offset="0.52" style="stop-color:#0078D4"/>
			<stop  offset="0.64" style="stop-color:#0074CD"/>
			<stop  offset="0.82" style="stop-color:#006ABB"/>
			<stop  offset="1" style="stop-color:#005BA1"/>
		</linearGradient>
		<path fill="url(#SVGID_00000075841458605706301660000013691577260405356940_)" d="M159.122,66.118
			c-6.247,0-11.312-1.765-11.312-4.094v21.812c0,2.241,4.976,4.059,11.153,4.094h0.159c6.247,0,11.312-1.765,11.312-4.094V62.024
			C170.434,64.3,165.369,66.118,159.122,66.118z"/>
		<path fill="#E8E8E8" d="M170.434,62.024c0,2.276-5.065,4.094-11.312,4.094c-6.247,0-11.312-1.765-11.312-4.094
			c0-2.329,5.065-4.094,11.312-4.094C165.369,57.929,170.434,59.694,170.434,62.024"/>
		<path fill="#50E6FF" d="M167.805,61.688c0,1.447-3.9,2.612-8.682,2.612c-4.782,0-8.682-1.165-8.682-2.612
			c0-1.447,3.9-2.594,8.682-2.594C163.905,59.094,167.805,60.259,167.805,61.688"/>
		<path fill="#198AB3" d="M159.122,62.341c-2.329-0.059-4.651,0.281-6.865,1.006c2.216,0.712,4.539,1.034,6.865,0.953
			c2.331,0.068,4.655-0.278,6.865-1.024C163.767,62.585,161.447,62.269,159.122,62.341z"/>
		
			<radialGradient id="SVGID_00000123440348052802086950000000614236724779975582_" cx="-378.0526" cy="1872.0857" r="8.3176" gradientTransform="matrix(1.5 0 0 -1.5 726.8367 2883.8284)" gradientUnits="userSpaceOnUse">
			<stop  offset="0" style="stop-color:#F2F2F2"/>
			<stop  offset="0.58" style="stop-color:#EEEEEE"/>
			<stop  offset="1" style="stop-color:#E6E6E6"/>
		</radialGradient>
		<path fill="url(#SVGID_00000123440348052802086950000000614236724779975582_)" d="M166.005,77.165v-6h-1.588v7.288h4.341v-1.288
			H166.005z M153.405,74.218c-0.328-0.132-0.632-0.317-0.9-0.547c-0.144-0.152-0.22-0.356-0.212-0.565
			c-0.011-0.211,0.09-0.412,0.265-0.529c0.217-0.15,0.478-0.225,0.741-0.212c0.629-0.028,1.249,0.152,1.765,0.512v-1.518
			c-0.564-0.21-1.164-0.306-1.765-0.282c-0.692-0.037-1.375,0.176-1.924,0.6c-0.485,0.374-0.761,0.958-0.741,1.571
			c0,0.9,0.565,1.606,1.765,2.135c0.39,0.165,0.757,0.379,1.094,0.635c0.167,0.14,0.264,0.347,0.265,0.565
			c0,0.217-0.105,0.421-0.282,0.547c-0.24,0.141-0.516,0.208-0.794,0.194c-0.71-0.006-1.393-0.269-1.924-0.741v1.641
			c0.583,0.301,1.233,0.446,1.888,0.424c0.74,0.044,1.473-0.161,2.082-0.582c0.437-0.413,0.652-1.009,0.582-1.606
			c0.008-0.452-0.148-0.891-0.441-1.235C154.457,74.789,153.958,74.447,153.405,74.218z M162.652,77.024
			c0.401-0.671,0.603-1.442,0.582-2.224c-0.04-0.661-0.24-1.303-0.582-1.871c-0.275-0.551-0.704-1.011-1.235-1.324
			c-0.538-0.305-1.146-0.463-1.765-0.459c-0.666-0.015-1.325,0.15-1.906,0.476c-0.545,0.304-0.992,0.757-1.288,1.306
			c-0.312,0.624-0.47,1.314-0.459,2.012c0.004,0.613,0.149,1.217,0.424,1.765c0.269,0.545,0.693,0.999,1.218,1.306
			c0.533,0.325,1.141,0.507,1.765,0.529l1.518,1.765h2.135l-2.171-1.941C161.618,78.145,162.245,77.669,162.652,77.024z
			 M160.887,76.582c-0.326,0.404-0.822,0.633-1.341,0.618c-0.523,0.017-1.023-0.22-1.341-0.635c-0.373-0.51-0.554-1.135-0.512-1.765
			c-0.041-0.63,0.14-1.254,0.512-1.765c0.336-0.415,0.842-0.655,1.376-0.653c0.524-0.023,1.023,0.224,1.324,0.653
			c0.348,0.52,0.515,1.14,0.476,1.765C161.443,75.435,161.267,76.07,160.887,76.582z"/>
	</g>
	<line fill="none" stroke="#2F2F2F" stroke-miterlimit="10" x1="200.985" y1="101.2" x2="200.985" y2="114.4"/>
	<line fill="none" stroke="#2F2F2F" stroke-miterlimit="10" x1="200.985" y1="136.4" x2="200.985" y2="149.6"/>
	<line fill="none" stroke="#2F2F2F" stroke-miterlimit="10" x1="200.981" y1="180.4" x2="200.981" y2="206.8"/>
	<g>
		<path fill="none" stroke="#0078D4" stroke-width="2" stroke-miterlimit="10" d="M134.981,74.8H97.796c-2.75,0-5,2.25-5,5V110"/>
		<path fill="none" stroke="#C3F1FF" stroke-width="0.5" stroke-miterlimit="10" d="M134.981,74.8H97.796c-2.75,0-5,2.25-5,5V110"/>
	</g>
	<g>
		<line fill="none" stroke="#0078D4" stroke-width="2" stroke-miterlimit="10" x1="92.796" y1="149.6" x2="92.796" y2="224.4"/>
		<line fill="none" stroke="#C3F1FF" stroke-width="0.5" stroke-miterlimit="10" x1="92.796" y1="149.6" x2="92.796" y2="224.4"/>
	</g>
	<g>
		<line fill="none" stroke="#0078D4" stroke-width="2" stroke-miterlimit="10" x1="264" y1="224.4" x2="264" y2="193.6"/>
		<line fill="none" stroke="#C3F1FF" stroke-width="0.5" stroke-miterlimit="10" x1="264" y1="224.4" x2="264" y2="193.6"/>
	</g>
	<g>
		<line fill="none" stroke="#0078D4" stroke-width="2" stroke-miterlimit="10" x1="220" y1="224.4" x2="220" y2="193.6"/>
		<line fill="none" stroke="#C3F1FF" stroke-width="0.5" stroke-miterlimit="10" x1="220" y1="224.4" x2="220" y2="193.6"/>
	</g>
	<g>
		<path fill="none" stroke="#0078D4" stroke-width="2" stroke-miterlimit="10" d="M93.231,193.6H303c2.75,0,5,2.25,5,5v25.8"/>
		<path fill="none" stroke="#C3F1FF" stroke-width="0.5" stroke-miterlimit="10" d="M93.231,193.6H303c2.75,0,5,2.25,5,5v25.8"/>
	</g>
	<path d="M246.759,163.2h1.2v1.2h-1.2V163.2z M250.359,170.4h1.2v1.2h-1.2V170.4z M253.959,163.2h1.2v1.2h-1.2V163.2z
		 M250.359,163.2h1.2v1.2h-1.2V163.2z M246.759,165.6h1.2v1.2h-1.2V165.6z M243.159,165.6h1.2v1.2h-1.2V165.6z M253.959,165.6h1.2
		v1.2h-1.2V165.6z M250.359,165.6h1.2v1.2h-1.2V165.6z M246.759,168h1.2v1.2h-1.2V168z M243.159,168h1.2v1.2h-1.2V168z M253.959,168
		h1.2v1.2h-1.2V168z M250.359,168h1.2v1.2h-1.2V168z M246.759,170.4h1.2v1.2h-1.2V170.4z M243.159,170.4h1.2v1.2h-1.2V170.4z
		 M258.759,157.2V174h-19.2v-16.8h3.6V156h1.2v1.2h9.6V156h1.2v1.2H258.759z M240.759,158.4v2.4h16.8v-2.4h-2.4v1.2h-1.2v-1.2h-9.6
		v1.2h-1.2v-1.2H240.759z M257.559,172.8V162h-16.8v10.8H257.559z"/>
	<path d="M255.759,60.2h2.4v6h-6v-6h2.4v-2.4h-10.8v2.4h2.4v6h-6v-6h2.4v-3.6h6v-2.4h-2.4v-6h6v6h-2.4v2.4h6V60.2z M247.359,49.4V53
		h3.6v-3.6H247.359z M244.959,65v-3.6h-3.6V65H244.959z M256.959,65v-3.6h-3.6V65H256.959z"/>
</g>
<g id="Text">
	<g>
		<path fill="#2F2F2F" d="M126.638,283.866v-9.803h3.568c1.094,0,1.935,0.2,2.522,0.602s0.882,0.966,0.882,1.695
			c0,0.528-0.179,0.991-0.537,1.388s-0.814,0.672-1.371,0.827v0.027c0.697,0.087,1.254,0.344,1.671,0.772s0.625,0.95,0.625,1.565
			c0,0.897-0.321,1.609-0.964,2.137c-0.643,0.525-1.52,0.789-2.632,0.789H126.638z M128.846,275.69v2.324h0.971
			c0.456,0,0.814-0.11,1.077-0.332c0.262-0.221,0.393-0.524,0.393-0.912c0-0.72-0.538-1.08-1.613-1.08H128.846z M128.846,279.655
			v2.584h1.196c0.51,0,0.91-0.118,1.2-0.355s0.434-0.561,0.434-0.971c0-0.392-0.143-0.699-0.427-0.923s-0.683-0.335-1.193-0.335
			H128.846z"/>
		<path fill="#2F2F2F" d="M141.276,283.866h-2.044v-1.005h-0.027c-0.469,0.784-1.165,1.176-2.085,1.176
			c-0.679,0-1.213-0.192-1.603-0.577c-0.39-0.386-0.584-0.899-0.584-1.542c0-1.358,0.804-2.142,2.413-2.352l1.9-0.253
			c0-0.766-0.415-1.148-1.244-1.148c-0.834,0-1.627,0.248-2.379,0.745v-1.627c0.301-0.155,0.712-0.292,1.234-0.41
			s0.997-0.178,1.425-0.178c1.996,0,2.994,0.996,2.994,2.987V283.866z M139.246,281.022v-0.472l-1.271,0.164
			c-0.702,0.091-1.053,0.408-1.053,0.95c0,0.246,0.085,0.447,0.256,0.605c0.171,0.156,0.402,0.235,0.694,0.235
			c0.406,0,0.736-0.14,0.991-0.421C139.118,281.805,139.246,281.451,139.246,281.022z"/>
		<path fill="#2F2F2F" d="M148.29,283.613c-0.488,0.282-1.192,0.424-2.112,0.424c-1.076,0-1.946-0.326-2.611-0.978
			s-0.998-1.492-0.998-2.522c0-1.189,0.356-2.127,1.07-2.813c0.713-0.686,1.667-1.028,2.861-1.028c0.825,0,1.422,0.109,1.791,0.328
			v1.832c-0.451-0.337-0.955-0.506-1.511-0.506c-0.62,0-1.111,0.181-1.473,0.544c-0.362,0.361-0.543,0.862-0.543,1.5
			c0,0.62,0.173,1.106,0.52,1.459c0.346,0.354,0.823,0.53,1.429,0.53c0.538,0,1.064-0.169,1.579-0.506V283.613z"/>
		<path fill="#2F2F2F" d="M156.821,283.866h-2.591l-2.235-3.473h-0.027v3.473h-2.16v-10.363h2.16v6.597h0.027l2.085-3.233h2.563
			l-2.509,3.288L156.821,283.866z"/>
		<path fill="#2F2F2F" d="M163.715,280.981h-4.566c0.073,1.017,0.713,1.524,1.921,1.524c0.77,0,1.447-0.183,2.03-0.547v1.559
			c-0.647,0.347-1.488,0.52-2.522,0.52c-1.13,0-2.007-0.313-2.632-0.94c-0.625-0.626-0.937-1.5-0.937-2.621
			c0-1.162,0.337-2.083,1.012-2.762s1.504-1.019,2.488-1.019c1.021,0,1.811,0.303,2.369,0.909s0.837,1.429,0.837,2.468V280.981z
			 M161.712,279.655c0-1.003-0.406-1.504-1.217-1.504c-0.346,0-0.646,0.144-0.899,0.431s-0.407,0.645-0.461,1.073H161.712z"/>
		<path fill="#2F2F2F" d="M171.841,283.866h-2.153v-3.89c0-1.085-0.387-1.627-1.162-1.627c-0.374,0-0.681,0.144-0.923,0.431
			s-0.362,0.651-0.362,1.094v3.992h-2.16v-7h2.16v1.107h0.027c0.515-0.853,1.265-1.278,2.249-1.278c1.549,0,2.324,0.962,2.324,2.885
			V283.866z"/>
		<path fill="#2F2F2F" d="M180.423,283.866h-2.16v-0.964h-0.027c-0.492,0.757-1.214,1.135-2.167,1.135
			c-0.875,0-1.579-0.309-2.112-0.927c-0.533-0.617-0.8-1.479-0.8-2.587c0-1.157,0.294-2.085,0.882-2.782s1.358-1.046,2.311-1.046
			c0.902,0,1.531,0.323,1.887,0.971h0.027v-4.163h2.16V283.866z M178.303,280.462v-0.526c0-0.456-0.132-0.834-0.396-1.135
			s-0.608-0.451-1.032-0.451c-0.479,0-0.852,0.188-1.121,0.563c-0.269,0.377-0.403,0.893-0.403,1.549c0,0.615,0.13,1.089,0.39,1.422
			s0.62,0.499,1.08,0.499c0.438,0,0.794-0.176,1.07-0.526S178.303,281.041,178.303,280.462z"/>
		<path fill="#2F2F2F" d="M191.408,283.613c-0.488,0.282-1.192,0.424-2.112,0.424c-1.076,0-1.946-0.326-2.611-0.978
			s-0.998-1.492-0.998-2.522c0-1.189,0.356-2.127,1.07-2.813c0.713-0.686,1.667-1.028,2.861-1.028c0.825,0,1.422,0.109,1.791,0.328
			v1.832c-0.451-0.337-0.955-0.506-1.511-0.506c-0.62,0-1.111,0.181-1.473,0.544c-0.362,0.361-0.543,0.862-0.543,1.5
			c0,0.62,0.173,1.106,0.52,1.459c0.346,0.354,0.823,0.53,1.429,0.53c0.538,0,1.064-0.169,1.579-0.506V283.613z"/>
		<path fill="#2F2F2F" d="M196.138,284.037c-1.167,0-2.084-0.327-2.751-0.981c-0.667-0.653-1.001-1.541-1.001-2.662
			c0-1.157,0.346-2.063,1.039-2.717c0.693-0.654,1.629-0.981,2.81-0.981c1.162,0,2.074,0.327,2.734,0.981
			c0.661,0.653,0.991,1.519,0.991,2.594c0,1.162-0.341,2.08-1.022,2.755S197.323,284.037,196.138,284.037z M196.193,278.349
			c-0.51,0-0.907,0.176-1.189,0.526s-0.424,0.848-0.424,1.49c0,1.345,0.542,2.017,1.627,2.017c1.035,0,1.552-0.69,1.552-2.071
			C197.758,279.004,197.236,278.349,196.193,278.349z"/>
		<path fill="#2F2F2F" d="M212.455,283.866h-2.153v-3.992c0-1.017-0.374-1.524-1.121-1.524c-0.355,0-0.645,0.152-0.868,0.458
			s-0.335,0.686-0.335,1.142v3.917h-2.16v-4.033c0-0.989-0.367-1.483-1.101-1.483c-0.369,0-0.664,0.146-0.885,0.438
			s-0.332,0.688-0.332,1.189v3.89h-2.16v-7h2.16v1.094h0.027c0.223-0.374,0.537-0.678,0.94-0.912
			c0.403-0.235,0.844-0.353,1.323-0.353c0.989,0,1.666,0.436,2.03,1.306c0.533-0.87,1.317-1.306,2.352-1.306
			c1.522,0,2.283,0.938,2.283,2.816V283.866z"/>
		<path fill="#2F2F2F" d="M216.339,283.052h-0.027v4.033h-2.16v-10.22h2.16v1.053h0.027c0.533-0.815,1.283-1.224,2.249-1.224
			c0.907,0,1.607,0.312,2.102,0.933c0.495,0.623,0.742,1.469,0.742,2.54c0,1.167-0.288,2.104-0.865,2.81s-1.343,1.06-2.3,1.06
			C217.424,284.037,216.781,283.709,216.339,283.052z M216.278,280.181v0.561c0,0.483,0.127,0.877,0.383,1.183
			s0.59,0.458,1.005,0.458c0.492,0,0.874-0.19,1.145-0.571c0.271-0.38,0.407-0.919,0.407-1.616c0-1.23-0.479-1.846-1.436-1.846
			c-0.442,0-0.803,0.167-1.083,0.503C216.418,279.186,216.278,279.63,216.278,280.181z"/>
		<path fill="#2F2F2F" d="M229.507,283.866h-2.153v-1.066h-0.034c-0.533,0.825-1.247,1.237-2.14,1.237
			c-1.623,0-2.434-0.982-2.434-2.946v-4.225h2.153v4.033c0,0.989,0.392,1.483,1.176,1.483c0.387,0,0.697-0.136,0.93-0.407
			c0.232-0.271,0.349-0.639,0.349-1.104v-4.006h2.153V283.866z"/>
		<path fill="#2F2F2F" d="M235.477,283.784c-0.319,0.169-0.8,0.253-1.442,0.253c-1.522,0-2.283-0.791-2.283-2.372v-3.206h-1.135
			v-1.593h1.135v-1.511l2.153-0.615v2.126h1.572v1.593h-1.572v2.83c0,0.729,0.29,1.094,0.868,1.094c0.228,0,0.462-0.066,0.704-0.198
			V283.784z"/>
		<path fill="#2F2F2F" d="M242.963,280.981h-4.566c0.073,1.017,0.713,1.524,1.921,1.524c0.77,0,1.447-0.183,2.03-0.547v1.559
			c-0.647,0.347-1.488,0.52-2.522,0.52c-1.13,0-2.007-0.313-2.632-0.94c-0.625-0.626-0.937-1.5-0.937-2.621
			c0-1.162,0.337-2.083,1.012-2.762s1.504-1.019,2.488-1.019c1.021,0,1.811,0.303,2.369,0.909s0.837,1.429,0.837,2.468V280.981z
			 M240.96,279.655c0-1.003-0.406-1.504-1.217-1.504c-0.346,0-0.646,0.144-0.899,0.431s-0.407,0.645-0.461,1.073H240.96z"/>
		<path fill="#2F2F2F" d="M250.298,283.052h-0.027v4.033h-2.16v-10.22h2.16v1.053h0.027c0.533-0.815,1.283-1.224,2.249-1.224
			c0.907,0,1.607,0.312,2.102,0.933c0.495,0.623,0.742,1.469,0.742,2.54c0,1.167-0.288,2.104-0.865,2.81s-1.343,1.06-2.3,1.06
			C251.383,284.037,250.74,283.709,250.298,283.052z M250.237,280.181v0.561c0,0.483,0.127,0.877,0.383,1.183
			s0.59,0.458,1.005,0.458c0.492,0,0.874-0.19,1.145-0.571c0.271-0.38,0.407-0.919,0.407-1.616c0-1.23-0.479-1.846-1.436-1.846
			c-0.442,0-0.803,0.167-1.083,0.503C250.377,279.186,250.237,279.63,250.237,280.181z"/>
		<path fill="#2F2F2F" d="M260.174,284.037c-1.167,0-2.084-0.327-2.751-0.981c-0.667-0.653-1.001-1.541-1.001-2.662
			c0-1.157,0.346-2.063,1.039-2.717c0.693-0.654,1.629-0.981,2.81-0.981c1.162,0,2.074,0.327,2.734,0.981
			c0.661,0.653,0.991,1.519,0.991,2.594c0,1.162-0.341,2.08-1.022,2.755S261.36,284.037,260.174,284.037z M260.229,278.349
			c-0.51,0-0.907,0.176-1.189,0.526s-0.424,0.848-0.424,1.49c0,1.345,0.542,2.017,1.627,2.017c1.035,0,1.552-0.69,1.552-2.071
			C261.795,279.004,261.273,278.349,260.229,278.349z"/>
		<path fill="#2F2F2F" d="M268.723,284.037c-1.167,0-2.084-0.327-2.751-0.981c-0.667-0.653-1.001-1.541-1.001-2.662
			c0-1.157,0.346-2.063,1.039-2.717c0.693-0.654,1.629-0.981,2.81-0.981c1.162,0,2.074,0.327,2.734,0.981
			c0.661,0.653,0.991,1.519,0.991,2.594c0,1.162-0.341,2.08-1.022,2.755S269.908,284.037,268.723,284.037z M268.778,278.349
			c-0.51,0-0.907,0.176-1.189,0.526s-0.424,0.848-0.424,1.49c0,1.345,0.542,2.017,1.627,2.017c1.035,0,1.552-0.69,1.552-2.071
			C270.343,279.004,269.821,278.349,268.778,278.349z"/>
		<path fill="#2F2F2F" d="M276.096,283.866h-2.16v-10.363h2.16V283.866z"/>
	</g>
	<g>
		<path fill="#2F2F2F" d="M176.191,409.371c-1.404,0-2.547-0.457-3.432-1.37c-0.884-0.914-1.326-2.104-1.326-3.572
			c0-1.55,0.449-2.803,1.347-3.76s2.087-1.436,3.568-1.436c1.399,0,2.53,0.458,3.394,1.374s1.295,2.124,1.295,3.623
			c0,1.54-0.448,2.782-1.343,3.726S177.631,409.371,176.191,409.371z M176.287,401.134c-0.775,0-1.39,0.291-1.846,0.871
			c-0.456,0.582-0.684,1.351-0.684,2.308c0,0.971,0.228,1.738,0.684,2.304s1.053,0.848,1.791,0.848c0.761,0,1.365-0.274,1.812-0.824
			c0.447-0.549,0.67-1.311,0.67-2.286c0-1.017-0.216-1.807-0.649-2.372S177.039,401.134,176.287,401.134z"/>
		<path fill="#2F2F2F" d="M189.262,409.2h-2.153v-3.89c0-1.085-0.387-1.627-1.162-1.627c-0.374,0-0.681,0.144-0.923,0.431
			s-0.362,0.651-0.362,1.094v3.992h-2.16v-7h2.16v1.107h0.027c0.515-0.853,1.265-1.278,2.249-1.278c1.549,0,2.324,0.962,2.324,2.885
			V409.2z"/>
		<path fill="#2F2F2F" d="M197.284,406.316h-4.566c0.073,1.017,0.713,1.524,1.921,1.524c0.77,0,1.447-0.183,2.03-0.547v1.559
			c-0.647,0.347-1.488,0.52-2.522,0.52c-1.13,0-2.007-0.313-2.632-0.94c-0.625-0.626-0.937-1.5-0.937-2.621
			c0-1.162,0.337-2.083,1.012-2.762s1.504-1.019,2.488-1.019c1.021,0,1.811,0.303,2.369,0.909s0.837,1.429,0.837,2.468V406.316z
			 M195.281,404.989c0-1.003-0.406-1.504-1.217-1.504c-0.346,0-0.646,0.144-0.899,0.431s-0.407,0.645-0.461,1.073H195.281z"/>
		<path fill="#2F2F2F" d="M208.482,409.2h-5.838v-9.803h2.208v8.012h3.63V409.2z"/>
		<path fill="#2F2F2F" d="M215.615,409.2h-2.044v-1.005h-0.027c-0.469,0.784-1.165,1.176-2.085,1.176
			c-0.679,0-1.213-0.192-1.603-0.577c-0.39-0.386-0.584-0.899-0.584-1.542c0-1.358,0.804-2.142,2.413-2.352l1.9-0.253
			c0-0.766-0.415-1.148-1.244-1.148c-0.834,0-1.627,0.248-2.379,0.745v-1.627c0.301-0.155,0.712-0.292,1.234-0.41
			s0.997-0.178,1.425-0.178c1.996,0,2.994,0.996,2.994,2.987V409.2z M213.585,406.357v-0.472l-1.271,0.164
			c-0.702,0.091-1.053,0.408-1.053,0.95c0,0.246,0.085,0.447,0.256,0.605c0.171,0.156,0.402,0.235,0.694,0.235
			c0.406,0,0.736-0.14,0.991-0.421C213.457,407.14,213.585,406.785,213.585,406.357z"/>
		<path fill="#2F2F2F" d="M224.325,409.2h-2.591l-2.235-3.473h-0.027v3.473h-2.16v-10.363h2.16v6.597h0.027l2.085-3.233h2.563
			l-2.509,3.288L224.325,409.2z"/>
		<path fill="#2F2F2F" d="M231.219,406.316h-4.566c0.073,1.017,0.713,1.524,1.921,1.524c0.77,0,1.447-0.183,2.03-0.547v1.559
			c-0.647,0.347-1.488,0.52-2.522,0.52c-1.13,0-2.007-0.313-2.632-0.94c-0.625-0.626-0.937-1.5-0.937-2.621
			c0-1.162,0.337-2.083,1.012-2.762s1.504-1.019,2.488-1.019c1.021,0,1.811,0.303,2.369,0.909s0.837,1.429,0.837,2.468V406.316z
			 M229.216,404.989c0-1.003-0.406-1.504-1.217-1.504c-0.346,0-0.646,0.144-0.899,0.431s-0.407,0.645-0.461,1.073H229.216z"/>
	</g>
	<g>
		<path fill="#2F2F2F" d="M27.507,12.642l-2.591,9.803h-2.447l-1.627-6.289c-0.086-0.328-0.139-0.695-0.157-1.101h-0.027
			c-0.041,0.446-0.1,0.813-0.178,1.101l-1.668,6.289h-2.55l-2.577-9.803h2.413l1.381,6.528c0.059,0.278,0.103,0.651,0.13,1.121
			h0.041c0.018-0.351,0.084-0.733,0.198-1.148l1.777-6.501h2.365l1.606,6.583c0.059,0.241,0.112,0.593,0.157,1.053h0.027
			c0.018-0.36,0.066-0.725,0.144-1.094l1.354-6.542H27.507z"/>
		<path fill="#2F2F2F" d="M31.431,22.616c-1.167,0-2.084-0.327-2.751-0.981c-0.667-0.653-1.001-1.541-1.001-2.662
			c0-1.157,0.346-2.063,1.039-2.717c0.693-0.654,1.629-0.981,2.81-0.981c1.162,0,2.074,0.327,2.734,0.981
			c0.661,0.653,0.991,1.519,0.991,2.594c0,1.162-0.341,2.08-1.022,2.755S32.616,22.616,31.431,22.616z M31.486,16.928
			c-0.51,0-0.907,0.176-1.189,0.526s-0.424,0.848-0.424,1.49c0,1.345,0.542,2.017,1.627,2.017c1.035,0,1.552-0.69,1.552-2.071
			C33.051,17.583,32.529,16.928,31.486,16.928z"/>
		<path fill="#2F2F2F" d="M41.199,17.393c-0.26-0.142-0.563-0.212-0.909-0.212c-0.469,0-0.836,0.172-1.101,0.516
			c-0.264,0.345-0.396,0.812-0.396,1.405v3.343h-2.16v-7h2.16v1.299h0.027c0.342-0.948,0.957-1.422,1.846-1.422
			c0.228,0,0.406,0.027,0.533,0.082V17.393z"/>
		<path fill="#2F2F2F" d="M49.203,22.445h-2.591l-2.235-3.473H44.35v3.473h-2.16V12.082h2.16v6.597h0.027l2.085-3.233h2.563
			l-2.509,3.288L49.203,22.445z"/>
		<path fill="#2F2F2F" d="M49.862,22.26v-1.75c0.355,0.214,0.71,0.374,1.063,0.479s0.687,0.157,1.001,0.157
			c0.383,0,0.685-0.053,0.906-0.157s0.332-0.265,0.332-0.479c0-0.137-0.05-0.251-0.15-0.342s-0.229-0.171-0.386-0.239
			s-0.329-0.13-0.516-0.185s-0.367-0.116-0.54-0.185c-0.278-0.104-0.523-0.218-0.735-0.338c-0.212-0.121-0.39-0.262-0.533-0.421
			s-0.253-0.344-0.328-0.554s-0.113-0.458-0.113-0.745c0-0.392,0.085-0.729,0.256-1.012s0.399-0.514,0.684-0.694
			c0.285-0.18,0.611-0.312,0.978-0.396c0.367-0.084,0.749-0.126,1.145-0.126c0.31,0,0.625,0.024,0.943,0.071
			c0.319,0.049,0.633,0.118,0.943,0.209v1.668c-0.273-0.159-0.566-0.279-0.878-0.359c-0.312-0.079-0.619-0.119-0.919-0.119
			c-0.141,0-0.274,0.013-0.4,0.037c-0.125,0.025-0.236,0.062-0.332,0.109c-0.096,0.049-0.171,0.109-0.226,0.186
			c-0.055,0.074-0.082,0.16-0.082,0.256c0,0.128,0.041,0.237,0.123,0.328s0.189,0.17,0.321,0.236
			c0.132,0.065,0.279,0.125,0.441,0.178c0.162,0.052,0.322,0.105,0.482,0.16c0.287,0.101,0.547,0.21,0.779,0.328
			s0.432,0.258,0.598,0.417s0.294,0.347,0.383,0.561s0.133,0.47,0.133,0.766c0,0.415-0.09,0.769-0.27,1.063
			c-0.18,0.293-0.419,0.533-0.718,0.717c-0.298,0.186-0.643,0.319-1.032,0.404c-0.39,0.084-0.794,0.126-1.213,0.126
			C51.231,22.616,50.518,22.498,49.862,22.26z"/>
		<path fill="#2F2F2F" d="M58.725,21.632h-0.027v4.033h-2.16v-10.22h2.16v1.053h0.027c0.533-0.815,1.283-1.224,2.249-1.224
			c0.907,0,1.607,0.312,2.102,0.933c0.495,0.623,0.742,1.469,0.742,2.54c0,1.167-0.288,2.104-0.865,2.81s-1.343,1.06-2.3,1.06
			C59.809,22.616,59.167,22.288,58.725,21.632z M58.663,18.76v0.561c0,0.483,0.127,0.877,0.383,1.183s0.59,0.458,1.005,0.458
			c0.492,0,0.874-0.19,1.145-0.571c0.271-0.38,0.407-0.919,0.407-1.616c0-1.23-0.479-1.846-1.436-1.846
			c-0.442,0-0.803,0.167-1.083,0.503C58.803,17.765,58.663,18.209,58.663,18.76z"/>
		<path fill="#2F2F2F" d="M71.05,22.445h-2.044V21.44h-0.027c-0.469,0.784-1.165,1.176-2.085,1.176
			c-0.679,0-1.213-0.192-1.603-0.577c-0.39-0.386-0.584-0.899-0.584-1.542c0-1.358,0.804-2.142,2.413-2.352l1.9-0.253
			c0-0.766-0.415-1.148-1.244-1.148c-0.834,0-1.627,0.248-2.379,0.745v-1.627c0.301-0.155,0.712-0.292,1.234-0.41
			s0.997-0.178,1.425-0.178c1.996,0,2.994,0.996,2.994,2.987V22.445z M69.02,19.601V19.13l-1.271,0.164
			c-0.702,0.091-1.053,0.408-1.053,0.95c0,0.246,0.085,0.447,0.256,0.605c0.171,0.156,0.402,0.235,0.694,0.235
			c0.406,0,0.736-0.14,0.991-0.421C68.892,20.384,69.02,20.03,69.02,19.601z"/>
		<path fill="#2F2F2F" d="M78.064,22.192c-0.488,0.282-1.192,0.424-2.112,0.424c-1.076,0-1.946-0.326-2.611-0.978
			s-0.998-1.492-0.998-2.522c0-1.189,0.356-2.127,1.07-2.813c0.713-0.686,1.667-1.028,2.861-1.028c0.825,0,1.422,0.109,1.791,0.328
			v1.832c-0.451-0.337-0.955-0.506-1.511-0.506c-0.62,0-1.111,0.181-1.473,0.544c-0.362,0.361-0.543,0.862-0.543,1.5
			c0,0.62,0.173,1.106,0.52,1.459c0.346,0.354,0.823,0.53,1.429,0.53c0.538,0,1.064-0.169,1.579-0.506V22.192z"/>
		<path fill="#2F2F2F" d="M85.779,19.56h-4.566c0.073,1.017,0.713,1.524,1.921,1.524c0.77,0,1.447-0.183,2.03-0.547v1.559
			c-0.647,0.347-1.488,0.52-2.522,0.52c-1.13,0-2.007-0.313-2.632-0.94c-0.625-0.626-0.937-1.5-0.937-2.621
			c0-1.162,0.337-2.083,1.012-2.762c0.674-0.679,1.504-1.019,2.488-1.019c1.021,0,1.811,0.303,2.369,0.909
			c0.558,0.606,0.837,1.429,0.837,2.468V19.56z M83.776,18.234c0-1.003-0.406-1.504-1.217-1.504c-0.346,0-0.646,0.144-0.899,0.431
			s-0.407,0.645-0.461,1.073H83.776z"/>
	</g>
	<g>
		<rect x="183.381" y="57.2" fill="none" width="68.824" height="39.885"/>
		<path fill="#2F2F2F" d="M184.051,68.725v-2.188c0.396,0.333,0.827,0.582,1.292,0.749c0.465,0.166,0.934,0.249,1.408,0.249
			c0.278,0,0.521-0.025,0.728-0.075s0.38-0.119,0.52-0.209c0.139-0.088,0.243-0.193,0.311-0.314c0.068-0.12,0.103-0.251,0.103-0.393
			c0-0.191-0.055-0.362-0.164-0.513s-0.259-0.289-0.448-0.417s-0.414-0.251-0.673-0.369s-0.54-0.239-0.841-0.362
			c-0.766-0.319-1.336-0.709-1.712-1.169c-0.376-0.46-0.564-1.017-0.564-1.668c0-0.511,0.103-0.949,0.308-1.316
			c0.205-0.366,0.484-0.668,0.837-0.905s0.762-0.411,1.227-0.522c0.465-0.112,0.957-0.168,1.477-0.168
			c0.51,0,0.963,0.031,1.357,0.092c0.394,0.062,0.758,0.156,1.09,0.284v2.044c-0.164-0.114-0.343-0.214-0.537-0.301
			s-0.393-0.158-0.598-0.215c-0.205-0.058-0.409-0.1-0.612-0.127s-0.396-0.041-0.578-0.041c-0.25,0-0.479,0.023-0.684,0.072
			c-0.205,0.047-0.378,0.114-0.52,0.201s-0.25,0.19-0.328,0.311c-0.078,0.121-0.116,0.257-0.116,0.407
			c0,0.164,0.043,0.312,0.13,0.44c0.086,0.131,0.209,0.254,0.369,0.369c0.16,0.117,0.353,0.23,0.581,0.342
			c0.228,0.112,0.485,0.228,0.772,0.346c0.392,0.164,0.744,0.338,1.056,0.523c0.312,0.184,0.58,0.393,0.803,0.625
			s0.394,0.498,0.513,0.797c0.119,0.298,0.178,0.646,0.178,1.042c0,0.547-0.104,1.006-0.311,1.378
			c-0.208,0.371-0.489,0.672-0.844,0.902c-0.355,0.229-0.769,0.395-1.241,0.495s-0.97,0.15-1.494,0.15
			c-0.538,0-1.049-0.046-1.535-0.137S184.406,68.908,184.051,68.725z"/>
		<path fill="#2F2F2F" d="M196.411,69.272c-1.404,0-2.547-0.456-3.432-1.367c-0.884-0.921-1.326-2.112-1.326-3.575
			c0-1.545,0.449-2.798,1.347-3.76c0.893-0.957,2.083-1.436,3.568-1.436c1.399,0,2.529,0.458,3.391,1.374
			c0.866,0.911,1.299,2.119,1.299,3.623c0,1.536-0.449,2.777-1.347,3.726c-0.032,0.032-0.062,0.062-0.089,0.092
			c-0.027,0.03-0.057,0.059-0.089,0.086l2.481,2.386h-3.09l-1.299-1.319C197.398,69.216,196.926,69.272,196.411,69.272z
			 M196.507,61.035c-0.77,0-1.385,0.292-1.846,0.875c-0.456,0.579-0.684,1.347-0.684,2.304c0,0.971,0.228,1.738,0.684,2.304
			s1.053,0.848,1.791,0.848c0.761,0,1.365-0.273,1.812-0.82c0.447-0.556,0.67-1.319,0.67-2.29c0-1.012-0.216-1.803-0.649-2.372
			C197.856,61.317,197.263,61.035,196.507,61.035z"/>
		<path fill="#2F2F2F" d="M208.675,69.101h-5.838v-9.803h2.208v8.012h3.63V69.101z"/>
		<path fill="#2F2F2F" d="M190.169,77.896h-3.459v2.406h3.179v1.791h-3.179v3.808h-2.208v-9.803h5.667V77.896z"/>
		<path fill="#2F2F2F" d="M195.816,80.849c-0.26-0.142-0.563-0.212-0.909-0.212c-0.469,0-0.836,0.172-1.101,0.516
			c-0.264,0.345-0.396,0.812-0.396,1.405v3.343h-2.16v-7h2.16V80.2h0.027c0.342-0.948,0.957-1.422,1.846-1.422
			c0.228,0,0.406,0.027,0.533,0.082V80.849z"/>
		<path fill="#2F2F2F" d="M200.242,86.072c-1.167,0-2.084-0.327-2.751-0.981c-0.667-0.653-1.001-1.541-1.001-2.662
			c0-1.157,0.346-2.063,1.039-2.717c0.693-0.654,1.629-0.981,2.81-0.981c1.162,0,2.074,0.327,2.734,0.981
			c0.661,0.653,0.991,1.519,0.991,2.594c0,1.162-0.341,2.08-1.022,2.755S201.427,86.072,200.242,86.072z M200.297,80.384
			c-0.51,0-0.907,0.176-1.189,0.526s-0.424,0.848-0.424,1.49c0,1.345,0.542,2.017,1.627,2.017c1.035,0,1.552-0.69,1.552-2.071
			C201.863,81.039,201.341,80.384,200.297,80.384z"/>
		<path fill="#2F2F2F" d="M212.205,85.901h-2.153v-3.89c0-1.085-0.387-1.627-1.162-1.627c-0.374,0-0.681,0.144-0.923,0.431
			s-0.362,0.651-0.362,1.094v3.992h-2.16v-7h2.16v1.107h0.027c0.515-0.853,1.265-1.278,2.249-1.278c1.549,0,2.324,0.962,2.324,2.885
			V85.901z"/>
		<path fill="#2F2F2F" d="M218.054,85.819c-0.319,0.169-0.8,0.253-1.442,0.253c-1.522,0-2.283-0.791-2.283-2.372v-3.206h-1.135
			v-1.593h1.135V77.39l2.153-0.615v2.126h1.572v1.593h-1.572v2.83c0,0.729,0.29,1.094,0.868,1.094c0.228,0,0.462-0.066,0.704-0.198
			V85.819z"/>
		<path fill="#2F2F2F" d="M225.541,83.016h-4.566c0.073,1.017,0.713,1.524,1.921,1.524c0.77,0,1.447-0.183,2.03-0.547v1.559
			c-0.647,0.347-1.488,0.52-2.522,0.52c-1.13,0-2.007-0.313-2.632-0.94c-0.625-0.626-0.937-1.5-0.937-2.621
			c0-1.162,0.337-2.083,1.012-2.762s1.504-1.019,2.488-1.019c1.021,0,1.811,0.303,2.369,0.909s0.837,1.429,0.837,2.468V83.016z
			 M223.538,81.69c0-1.003-0.406-1.504-1.217-1.504c-0.346,0-0.646,0.144-0.899,0.431s-0.407,0.645-0.461,1.073H223.538z"/>
		<path fill="#2F2F2F" d="M233.666,85.901h-2.153v-3.89c0-1.085-0.387-1.627-1.162-1.627c-0.374,0-0.681,0.144-0.923,0.431
			s-0.362,0.651-0.362,1.094v3.992h-2.16v-7h2.16v1.107h0.027c0.515-0.853,1.265-1.278,2.249-1.278c1.549,0,2.324,0.962,2.324,2.885
			V85.901z"/>
		<path fill="#2F2F2F" d="M242.249,85.901h-2.16v-0.964h-0.027c-0.492,0.757-1.214,1.135-2.167,1.135
			c-0.875,0-1.579-0.309-2.112-0.927c-0.533-0.617-0.8-1.479-0.8-2.587c0-1.157,0.294-2.085,0.882-2.782s1.358-1.046,2.311-1.046
			c0.902,0,1.531,0.323,1.887,0.971h0.027v-4.163h2.16V85.901z M240.13,82.497V81.97c0-0.456-0.132-0.834-0.396-1.135
			s-0.608-0.451-1.032-0.451c-0.479,0-0.852,0.188-1.121,0.563c-0.269,0.377-0.403,0.893-0.403,1.549c0,0.615,0.13,1.089,0.39,1.422
			s0.62,0.499,1.08,0.499c0.438,0,0.794-0.176,1.07-0.526S240.13,83.076,240.13,82.497z"/>
	</g>
	<g>
		<path fill="#2F2F2F" d="M187.365,170.301v-9.803h3.473c3.482,0,5.223,1.593,5.223,4.778c0,1.526-0.475,2.746-1.425,3.657
			s-2.216,1.367-3.797,1.367H187.365z M189.573,162.297v6.214h1.094c0.957,0,1.708-0.287,2.252-0.861s0.817-1.355,0.817-2.345
			c0-0.935-0.27-1.669-0.81-2.204c-0.54-0.536-1.298-0.804-2.273-0.804H189.573z"/>
		<path fill="#2F2F2F" d="M201.821,170.472c-1.404,0-2.547-0.456-3.432-1.367c-0.884-0.921-1.326-2.112-1.326-3.575
			c0-1.545,0.449-2.798,1.347-3.76c0.893-0.957,2.083-1.436,3.568-1.436c1.399,0,2.529,0.458,3.391,1.374
			c0.866,0.911,1.299,2.119,1.299,3.623c0,1.536-0.449,2.777-1.347,3.726c-0.032,0.032-0.062,0.062-0.089,0.092
			c-0.027,0.03-0.057,0.059-0.089,0.086l2.481,2.386h-3.09l-1.299-1.319C202.807,170.416,202.336,170.472,201.821,170.472z
			 M201.916,162.235c-0.77,0-1.385,0.292-1.846,0.875c-0.456,0.579-0.684,1.347-0.684,2.304c0,0.971,0.228,1.738,0.684,2.304
			s1.053,0.848,1.791,0.848c0.761,0,1.365-0.273,1.812-0.82c0.447-0.556,0.67-1.319,0.67-2.29c0-1.012-0.216-1.803-0.649-2.372
			C203.265,162.517,202.673,162.235,201.916,162.235z"/>
		<path fill="#2F2F2F" d="M210.454,166.925v3.377h-2.208v-9.803h3.459c2.47,0,3.705,1.041,3.705,3.124
			c0,0.984-0.354,1.78-1.063,2.39c-0.708,0.607-1.655,0.912-2.84,0.912H210.454z M210.454,162.194v3.056h0.868
			c1.176,0,1.764-0.515,1.764-1.545c0-1.007-0.588-1.511-1.764-1.511H210.454z"/>
	</g>
	<g>
		<rect x="155.857" y="118.8" fill="none" width="90.256" height="20.701"/>
		<path fill="#2F2F2F" d="M171.311,130.291c-0.725,0.383-1.627,0.574-2.707,0.574c-1.395,0-2.511-0.449-3.35-1.347
			s-1.258-2.076-1.258-3.534c0-1.568,0.472-2.834,1.415-3.801s2.14-1.449,3.589-1.449c0.93,0,1.7,0.134,2.311,0.403v1.224
			c-0.702-0.392-1.477-0.588-2.324-0.588c-1.125,0-2.038,0.376-2.738,1.128s-1.049,1.757-1.049,3.015
			c0,1.194,0.327,2.146,0.981,2.854s1.512,1.063,2.574,1.063c0.984,0,1.836-0.219,2.557-0.656V130.291z"/>
		<path fill="#2F2F2F" d="M175.86,130.865c-1.035,0-1.86-0.327-2.478-0.981s-0.926-1.521-0.926-2.601
			c0-1.176,0.321-2.094,0.964-2.755s1.511-0.991,2.604-0.991c1.043,0,1.858,0.321,2.444,0.964s0.878,1.534,0.878,2.673
			c0,1.117-0.315,2.011-0.947,2.683S176.922,130.865,175.86,130.865z M175.942,124.481c-0.72,0-1.29,0.245-1.709,0.735
			s-0.629,1.166-0.629,2.027c0,0.83,0.212,1.483,0.636,1.962s0.991,0.718,1.702,0.718c0.725,0,1.282-0.235,1.671-0.704
			s0.584-1.137,0.584-2.003c0-0.875-0.195-1.549-0.584-2.023S176.666,124.481,175.942,124.481z"/>
		<path fill="#2F2F2F" d="M186.872,130.701h-1.121v-3.992c0-1.486-0.542-2.229-1.627-2.229c-0.561,0-1.024,0.211-1.391,0.632
			s-0.55,0.954-0.55,1.596v3.992h-1.121v-7h1.121v1.162h0.027c0.529-0.884,1.294-1.326,2.297-1.326c0.766,0,1.351,0.247,1.757,0.742
			s0.608,1.209,0.608,2.143V130.701z"/>
		<path fill="#2F2F2F" d="M192.101,130.633c-0.264,0.146-0.613,0.219-1.046,0.219c-1.226,0-1.839-0.684-1.839-2.051v-4.143h-1.203
			v-0.957h1.203v-1.709l1.121-0.362v2.071h1.764v0.957h-1.764v3.944c0,0.469,0.08,0.804,0.239,1.005s0.424,0.301,0.793,0.301
			c0.283,0,0.526-0.078,0.731-0.232V130.633z"/>
		<path fill="#2F2F2F" d="M197.133,124.836c-0.196-0.15-0.479-0.226-0.848-0.226c-0.479,0-0.878,0.226-1.2,0.677
			s-0.482,1.066-0.482,1.846v3.568h-1.121v-7h1.121v1.442h0.027c0.16-0.492,0.403-0.876,0.731-1.152s0.695-0.414,1.101-0.414
			c0.292,0,0.515,0.032,0.67,0.096V124.836z"/>
		<path fill="#2F2F2F" d="M201.275,130.865c-1.035,0-1.86-0.327-2.478-0.981s-0.926-1.521-0.926-2.601
			c0-1.176,0.321-2.094,0.964-2.755s1.511-0.991,2.604-0.991c1.043,0,1.858,0.321,2.444,0.964s0.878,1.534,0.878,2.673
			c0,1.117-0.315,2.011-0.947,2.683S202.337,130.865,201.275,130.865z M201.357,124.481c-0.72,0-1.29,0.245-1.709,0.735
			s-0.629,1.166-0.629,2.027c0,0.83,0.212,1.483,0.636,1.962s0.991,0.718,1.702,0.718c0.725,0,1.282-0.235,1.671-0.704
			s0.584-1.137,0.584-2.003c0-0.875-0.195-1.549-0.584-2.023S202.082,124.481,201.357,124.481z"/>
		<path fill="#2F2F2F" d="M207.591,130.701h-1.121v-10.363h1.121V130.701z"/>
		<path fill="#2F2F2F" d="M217.154,121.322c-0.219-0.123-0.467-0.185-0.745-0.185c-0.784,0-1.176,0.495-1.176,1.483v1.08h1.641
			v0.957h-1.641v6.043h-1.114v-6.043h-1.196v-0.957h1.196v-1.135c0-0.734,0.212-1.313,0.636-1.74s0.953-0.639,1.586-0.639
			c0.342,0,0.613,0.041,0.813,0.123V121.322z"/>
		<path fill="#2F2F2F" d="M219.376,130.701h-1.121v-10.363h1.121V130.701z"/>
		<path fill="#2F2F2F" d="M224.494,130.865c-1.035,0-1.86-0.327-2.478-0.981s-0.926-1.521-0.926-2.601
			c0-1.176,0.321-2.094,0.964-2.755s1.511-0.991,2.604-0.991c1.043,0,1.858,0.321,2.444,0.964s0.878,1.534,0.878,2.673
			c0,1.117-0.315,2.011-0.947,2.683S225.556,130.865,224.494,130.865z M224.576,124.481c-0.72,0-1.29,0.245-1.709,0.735
			s-0.629,1.166-0.629,2.027c0,0.83,0.212,1.483,0.636,1.962s0.991,0.718,1.702,0.718c0.725,0,1.282-0.235,1.671-0.704
			s0.584-1.137,0.584-2.003c0-0.875-0.195-1.549-0.584-2.023S225.301,124.481,224.576,124.481z"/>
		<path fill="#2F2F2F" d="M238.453,123.701l-2.099,7h-1.162l-1.442-5.011c-0.055-0.191-0.091-0.408-0.109-0.649h-0.027
			c-0.014,0.164-0.062,0.376-0.144,0.636l-1.565,5.024h-1.121l-2.119-7h1.176l1.449,5.264c0.045,0.16,0.078,0.369,0.096,0.629h0.055
			c0.014-0.201,0.055-0.415,0.123-0.643l1.613-5.25h1.025l1.449,5.277c0.045,0.168,0.08,0.378,0.103,0.629h0.055
			c0.009-0.178,0.048-0.387,0.116-0.629l1.422-5.277H238.453z"/>
	</g>
	<g>
		<rect x="60.868" y="114.4" fill="none" width="63.856" height="38.301"/>
		<path fill="#2F2F2F" d="M79.752,126.301v-9.803h2.707c3.455,0,5.182,1.593,5.182,4.778c0,1.513-0.479,2.729-1.439,3.647
			s-2.243,1.377-3.852,1.377H79.752z M80.9,117.538v7.725h1.463c1.285,0,2.286-0.344,3.001-1.032s1.073-1.664,1.073-2.926
			c0-2.511-1.335-3.767-4.006-3.767H80.9z"/>
		<path fill="#2F2F2F" d="M94.272,126.301h-1.121v-1.094h-0.027c-0.488,0.838-1.206,1.258-2.153,1.258
			c-0.697,0-1.243-0.185-1.637-0.554s-0.591-0.859-0.591-1.47c0-1.308,0.77-2.069,2.311-2.283l2.099-0.294
			c0-1.189-0.481-1.784-1.442-1.784c-0.843,0-1.604,0.287-2.283,0.861v-1.148c0.688-0.438,1.481-0.656,2.379-0.656
			c1.645,0,2.468,0.871,2.468,2.611V126.301z M93.151,122.76l-1.688,0.232c-0.52,0.073-0.912,0.202-1.176,0.386
			s-0.396,0.512-0.396,0.981c0,0.342,0.122,0.621,0.366,0.837s0.568,0.325,0.974,0.325c0.556,0,1.015-0.195,1.377-0.584
			s0.543-0.883,0.543-1.48V122.76z"/>
		<path fill="#2F2F2F" d="M99.53,126.233c-0.264,0.146-0.613,0.219-1.046,0.219c-1.226,0-1.839-0.684-1.839-2.051v-4.143h-1.203
			v-0.957h1.203v-1.709l1.121-0.362v2.071h1.764v0.957h-1.764v3.944c0,0.469,0.08,0.804,0.239,1.005s0.424,0.301,0.793,0.301
			c0.283,0,0.526-0.078,0.731-0.232V126.233z"/>
		<path fill="#2F2F2F" d="M106.147,126.301h-1.121v-1.094h-0.027c-0.488,0.838-1.206,1.258-2.153,1.258
			c-0.697,0-1.243-0.185-1.637-0.554s-0.591-0.859-0.591-1.47c0-1.308,0.77-2.069,2.311-2.283l2.099-0.294
			c0-1.189-0.481-1.784-1.442-1.784c-0.843,0-1.604,0.287-2.283,0.861v-1.148c0.688-0.438,1.481-0.656,2.379-0.656
			c1.645,0,2.468,0.871,2.468,2.611V126.301z M105.026,122.76l-1.688,0.232c-0.52,0.073-0.912,0.202-1.176,0.386
			s-0.396,0.512-0.396,0.981c0,0.342,0.122,0.621,0.366,0.837s0.568,0.325,0.974,0.325c0.556,0,1.015-0.195,1.377-0.584
			s0.543-0.883,0.543-1.48V122.76z"/>
		<path fill="#2F2F2F" d="M74.937,142.78c-0.538,0.324-1.176,0.485-1.914,0.485c-0.998,0-1.804-0.325-2.417-0.974
			s-0.919-1.491-0.919-2.526c0-1.153,0.331-2.079,0.991-2.779s1.542-1.049,2.646-1.049c0.615,0,1.158,0.114,1.627,0.342v1.148
			c-0.52-0.365-1.076-0.547-1.668-0.547c-0.715,0-1.302,0.256-1.76,0.769s-0.687,1.186-0.687,2.02c0,0.82,0.215,1.467,0.646,1.941
			s1.008,0.711,1.733,0.711c0.611,0,1.185-0.203,1.723-0.608V142.78z"/>
		<path fill="#2F2F2F" d="M82.236,143.101h-1.121v-4.033c0-1.458-0.542-2.188-1.627-2.188c-0.547,0-1.007,0.211-1.381,0.632
			s-0.561,0.963-0.561,1.624v3.965h-1.121v-10.363h1.121v4.525h0.027c0.538-0.884,1.303-1.326,2.297-1.326
			c1.577,0,2.365,0.95,2.365,2.851V143.101z"/>
		<path fill="#2F2F2F" d="M89.266,143.101h-1.121v-1.094h-0.027c-0.488,0.838-1.206,1.258-2.153,1.258
			c-0.697,0-1.243-0.185-1.637-0.554s-0.591-0.859-0.591-1.47c0-1.308,0.77-2.069,2.311-2.283l2.099-0.294
			c0-1.189-0.481-1.784-1.442-1.784c-0.843,0-1.604,0.287-2.283,0.861v-1.148c0.688-0.438,1.481-0.656,2.379-0.656
			c1.645,0,2.468,0.871,2.468,2.611V143.101z M88.145,139.56l-1.688,0.232c-0.52,0.073-0.912,0.202-1.176,0.386
			s-0.396,0.512-0.396,0.981c0,0.342,0.122,0.621,0.366,0.837s0.568,0.325,0.974,0.325c0.556,0,1.015-0.195,1.377-0.584
			s0.543-0.883,0.543-1.48V139.56z"/>
		<path fill="#2F2F2F" d="M97.097,143.101h-1.121v-3.992c0-1.486-0.542-2.229-1.627-2.229c-0.561,0-1.024,0.211-1.391,0.632
			s-0.55,0.954-0.55,1.596v3.992h-1.121v-7h1.121v1.162h0.027c0.529-0.884,1.294-1.326,2.297-1.326c0.766,0,1.351,0.247,1.757,0.742
			s0.608,1.209,0.608,2.143V143.101z"/>
		<path fill="#2F2F2F" d="M104.927,143.101h-1.121v-3.992c0-1.486-0.542-2.229-1.627-2.229c-0.561,0-1.024,0.211-1.391,0.632
			s-0.55,0.954-0.55,1.596v3.992h-1.121v-7h1.121v1.162h0.027c0.529-0.884,1.294-1.326,2.297-1.326c0.766,0,1.351,0.247,1.757,0.742
			s0.608,1.209,0.608,2.143V143.101z"/>
		<path fill="#2F2F2F" d="M112.631,139.882h-4.942c0.018,0.779,0.228,1.381,0.629,1.805s0.953,0.636,1.654,0.636
			c0.789,0,1.513-0.26,2.174-0.779v1.053c-0.615,0.447-1.429,0.67-2.44,0.67c-0.989,0-1.766-0.318-2.331-0.954
			s-0.848-1.53-0.848-2.683c0-1.089,0.309-1.977,0.926-2.663s1.384-1.029,2.3-1.029s1.625,0.296,2.126,0.889
			s0.752,1.415,0.752,2.468V139.882z M111.482,138.931c-0.004-0.647-0.161-1.151-0.468-1.511s-0.735-0.54-1.282-0.54
			c-0.529,0-0.978,0.189-1.347,0.567s-0.597,0.873-0.684,1.483H111.482z"/>
		<path fill="#2F2F2F" d="M115.426,143.101h-1.121v-10.363h1.121V143.101z"/>
	</g>
</g>
<g id="Layer_1">
</g>
</svg>
