<?xml version="1.0" encoding="utf-8"?>
<!-- Generator: Adobe Illustrator 27.4.0, SVG Export Plug-In . SVG Version: 6.00 Build 0)  -->
<svg version="1.1" xmlns="http://www.w3.org/2000/svg" xmlns:xlink="http://www.w3.org/1999/xlink" x="0px" y="0px"
	 viewBox="0 0 554.4 259.6" enable-background="new 0 0 554.4 259.6" xml:space="preserve">
<symbol  id="PIPELINE" viewBox="-32 -12.266 64 24.531">
	<linearGradient id="SVGID_1_" gradientUnits="userSpaceOnUse" x1="0" y1="-12.2655" x2="1.502093e-15" y2="12.2655">
		<stop  offset="0" style="stop-color:#1B89B2"/>
		<stop  offset="1" style="stop-color:#51C8E8"/>
	</linearGradient>
	<path fill="url(#SVGID_1_)" d="M26.096,12.266h-51.448v0h0C-29.08,12.265-32,6.878-32,0s2.92-12.265,6.648-12.265h0v0h51.448
		C29.356-12.266,32-6.363,32,0S29.356,12.266,26.096,12.266z"/>
	<g>
		
			<linearGradient id="SVGID_00000128445522294770471030000011239677153093316494_" gradientUnits="userSpaceOnUse" x1="-31.461" y1="-6.1136" x2="-19.2338" y2="6.1136">
			<stop  offset="0" style="stop-color:#B3B4B4"/>
			<stop  offset="1" style="stop-color:#4F4F4F"/>
		</linearGradient>
		<ellipse fill="url(#SVGID_00000128445522294770471030000011239677153093316494_)" cx="-25.347" cy="0" rx="5.575" ry="10.879"/>
	</g>
</symbol>
<g id="Shapes">
	<rect fill="#FFFFFF" width="554.4" height="259.6"/>
	<g id="Wrench_tool_x28_s_x29_">
	</g>
	<g id="user2">
	</g>
	<g id="user2_1_">
	</g>
	<g id="user2_4_">
	</g>
	<g id="user2_3_">
	</g>
	<g id="user2_2_">
	</g>
	<g id="Internet_2">
	</g>
	<g id="Enterprise">
	</g>
	<g id="Tunnel__x28_stackable_x29_">
	</g>
	<g id="New_Symbol">
	</g>
	<g id="New_Symbol_1">
	</g>
	<g id="Files">
	</g>
	<g id="BlobBlock">
	</g>
	<g id="E_x5F_Enterprise">
	</g>
	<g id="E_x5F_AD_FS">
	</g>
	<g id="C_x5F_Azure_Active_Directory">
	</g>
	<g>
		<g opacity="0.23">
			<rect x="14.726" y="58.2" width="255.2" height="132"/>
		</g>
		<g>
			<rect x="13.726" y="57.2" fill="#E8E8E8" width="255.2" height="132"/>
		</g>
	</g>
	<g>
		<g opacity="0.23">
			<rect x="287.096" y="58.2" width="255.2" height="132"/>
		</g>
		<g>
			<rect x="286.096" y="57.2" fill="#E8E8E8" width="255.2" height="132"/>
		</g>
	</g>
	<g>
		<g opacity="0.23">
			<rect x="28.405" y="119.538" width="227.841" height="57.2"/>
		</g>
		<g>
			<rect x="27.405" y="118.538" fill="#FFFFFF" width="227.841" height="57.2"/>
		</g>
	</g>
	<g id="bdd66f0d-1091-4867-9f64-cdf433204a8a">
		<g>
			<g>
				
					<linearGradient id="SVGID_00000170968178965450099880000018368420134058504374_" gradientUnits="userSpaceOnUse" x1="-438.0795" y1="546.5175" x2="-411.0774" y2="546.5175" gradientTransform="matrix(1 0.0026 0.0026 -1 564.4961 779.2653)">
					<stop  offset="0" style="stop-color:#005BA1"/>
					<stop  offset="0.068" style="stop-color:#0060A9"/>
					<stop  offset="0.356" style="stop-color:#0071C8"/>
					<stop  offset="0.517" style="stop-color:#0078D4"/>
					<stop  offset="0.642" style="stop-color:#0074CD"/>
					<stop  offset="0.82" style="stop-color:#006ABB"/>
					<stop  offset="1" style="stop-color:#005BA1"/>
				</linearGradient>
				<path fill="url(#SVGID_00000170968178965450099880000018368420134058504374_)" d="M141.347,221.037
					c-7.457-0.019-13.494-2.236-13.488-4.953l-0.068,26.165c0,2.694,5.93,4.896,13.304,4.951h0.184
					c7.457,0.019,13.507-2.166,13.513-4.884l0.068-26.165C154.854,218.871,148.804,221.056,141.347,221.037z"/>
				<path fill="#E6E6E6" d="M154.861,216.154c0,2.715-6.057,4.903-13.513,4.884c-7.457-0.019-13.494-2.236-13.488-4.953
					c0.006-2.717,6.055-4.903,13.513-4.884S154.867,213.436,154.861,216.154"/>
				<path fill="#50E6FF" d="M151.703,215.747c0,1.728-4.642,3.115-10.356,3.1c-5.714-0.015-10.341-1.425-10.337-3.153
					c0.004-1.728,4.642-3.115,10.358-3.1c5.716,0.015,10.345,1.425,10.341,3.153"/>
				<path fill="#198AB3" d="M141.358,216.442c-2.779-0.073-5.551,0.321-8.2,1.165c2.639,0.886,5.413,1.306,8.196,1.241
					c2.782,0.078,5.557-0.327,8.2-1.199C146.908,216.791,144.138,216.383,141.358,216.442z"/>
			</g>
		</g>
	</g>
	<g>
		<g id="e8071740-76d7-444d-a08a-6a2072be1ccd">
			
				<linearGradient id="SVGID_00000085228833201210514520000009220853292801309622_" gradientUnits="userSpaceOnUse" x1="96.8518" y1="469.8078" x2="96.8518" y2="444.6491" gradientTransform="matrix(1 0 0 -1 0 547.6)">
				<stop  offset="0" style="stop-color:#32BEDD"/>
				<stop  offset="0.067" style="stop-color:#3DCCE9"/>
				<stop  offset="0.171" style="stop-color:#48DBF5"/>
				<stop  offset="0.295" style="stop-color:#4EE3FD"/>
				<stop  offset="0.489" style="stop-color:#50E6FF"/>
				<stop  offset="0.703" style="stop-color:#4EE4FD"/>
				<stop  offset="0.828" style="stop-color:#48DBF6"/>
				<stop  offset="0.929" style="stop-color:#3DCDEA"/>
				<stop  offset="1" style="stop-color:#32BEDD"/>
			</linearGradient>
			<path fill="url(#SVGID_00000085228833201210514520000009220853292801309622_)" d="M103.285,82.088h4.134
				c2.201,0,3.982,4.93,3.982,10.994l0,0v0.151l0,0c-0.031,6.02-1.803,10.841-3.982,10.841h-4.134c2.205,0,3.982-4.919,3.982-10.994
				C107.267,87.005,105.486,82.088,103.285,82.088z M89.267,85.306c-0.055-0.165-0.129-0.331-0.202-0.496
				c-0.698-1.69-1.617-2.719-2.628-2.719h-4.134c1.011,0,1.929,1.029,2.628,2.719c0.959,2.65,1.42,5.455,1.36,8.272
				c0.069,2.817-0.392,5.622-1.36,8.269c-0.698,1.709-1.617,2.738-2.628,2.738h4.134c1.011,0,1.911-1.011,2.609-2.701
				c0.959-2.611,1.427-5.377,1.378-8.158v-0.147C90.47,90.444,90.079,87.816,89.267,85.306z"/>
			<path fill="#9CEBFF" d="M107.274,93.082c0,6.082-1.782,11.006-3.987,11.006c-1.011,0-1.929-1.029-2.628-2.738h2.628
				c1.378,0,2.481-3.693,2.481-8.269s-1.102-8.269-2.481-8.269h-2.628c0.698-1.69,1.617-2.719,2.628-2.719
				C105.492,82.09,107.274,87.018,107.274,93.082z M82.31,82.088c-2.203,0-3.984,4.919-3.984,10.994s1.784,10.994,3.984,10.994
				s3.978-4.93,3.978-10.994S84.508,82.088,82.31,82.088z"/>
			<path fill="#32BEDD" d="M82.31,84.813c1.378,0,2.482,3.704,2.482,8.269s-1.102,8.269-2.482,8.269s-2.484-3.701-2.484-8.269
				C79.826,88.514,80.937,84.813,82.31,84.813z"/>
			
				<linearGradient id="SVGID_00000085224139560790890390000004486341196370519735_" gradientUnits="userSpaceOnUse" x1="97.4067" y1="465.3923" x2="97.4067" y2="442.6794" gradientTransform="matrix(1 0 0 -1 0 547.6)">
				<stop  offset="0" style="stop-color:#198AB3"/>
				<stop  offset="0.025" style="stop-color:#1D92B9"/>
				<stop  offset="0.102" style="stop-color:#26A5C9"/>
				<stop  offset="0.192" style="stop-color:#2CB2D4"/>
				<stop  offset="0.307" style="stop-color:#30BADA"/>
				<stop  offset="0.531" style="stop-color:#31BCDC"/>
				<stop  offset="0.656" style="stop-color:#2EB5D6"/>
				<stop  offset="0.84" style="stop-color:#24A1C6"/>
				<stop  offset="1" style="stop-color:#198AB3"/>
			</linearGradient>
			<path fill="url(#SVGID_00000085224139560790890390000004486341196370519735_)" d="M105.767,93.082
				c0,4.575-1.102,8.269-2.481,8.269h-4.686v0.037h-9.555c0.959-2.611,1.427-5.377,1.378-8.158v-0.147
				c0.045-2.637-0.346-5.263-1.158-7.772c-0.055-0.165-0.129-0.331-0.202-0.496h14.222
				C104.665,84.813,105.767,88.521,105.767,93.082z"/>
		</g>
		<g id="e8071740-76d7-444d-a08a-6a2072be1ccd_00000148639349599815956840000009787493537914313360_">
			
				<linearGradient id="SVGID_00000016072152081946472740000011500209263909207690_" gradientUnits="userSpaceOnUse" x1="142.7893" y1="469.8078" x2="142.7893" y2="444.6491" gradientTransform="matrix(1 0 0 -1 0 547.6)">
				<stop  offset="0" style="stop-color:#32BEDD"/>
				<stop  offset="0.067" style="stop-color:#3DCCE9"/>
				<stop  offset="0.171" style="stop-color:#48DBF5"/>
				<stop  offset="0.295" style="stop-color:#4EE3FD"/>
				<stop  offset="0.489" style="stop-color:#50E6FF"/>
				<stop  offset="0.703" style="stop-color:#4EE4FD"/>
				<stop  offset="0.828" style="stop-color:#48DBF6"/>
				<stop  offset="0.929" style="stop-color:#3DCDEA"/>
				<stop  offset="1" style="stop-color:#32BEDD"/>
			</linearGradient>
			<path fill="url(#SVGID_00000016072152081946472740000011500209263909207690_)" d="M149.222,82.088h4.134
				c2.201,0,3.982,4.93,3.982,10.994l0,0v0.151l0,0c-0.031,6.02-1.803,10.841-3.982,10.841h-4.134c2.205,0,3.982-4.919,3.982-10.994
				C153.204,87.005,151.424,82.088,149.222,82.088z M135.204,85.306c-0.055-0.165-0.129-0.331-0.202-0.496
				c-0.698-1.69-1.617-2.719-2.628-2.719h-4.134c1.011,0,1.929,1.029,2.628,2.719c0.959,2.65,1.42,5.455,1.36,8.272
				c0.069,2.817-0.392,5.622-1.36,8.269c-0.698,1.709-1.617,2.738-2.628,2.738h4.134c1.011,0,1.911-1.011,2.609-2.701
				c0.959-2.611,1.427-5.377,1.378-8.158v-0.147C136.408,90.444,136.017,87.816,135.204,85.306z"/>
			<path fill="#9CEBFF" d="M153.211,93.082c0,6.082-1.782,11.006-3.987,11.006c-1.011,0-1.929-1.029-2.628-2.738h2.628
				c1.378,0,2.481-3.693,2.481-8.269s-1.102-8.269-2.481-8.269h-2.628c0.698-1.69,1.617-2.719,2.628-2.719
				C151.429,82.09,153.211,87.018,153.211,93.082z M128.248,82.088c-2.203,0-3.984,4.919-3.984,10.994s1.784,10.994,3.984,10.994
				c2.199,0,3.978-4.93,3.978-10.994S130.445,82.088,128.248,82.088z"/>
			<path fill="#32BEDD" d="M128.248,84.813c1.378,0,2.482,3.704,2.482,8.269s-1.102,8.269-2.482,8.269
				c-1.38,0-2.484-3.701-2.484-8.269C125.763,88.514,126.875,84.813,128.248,84.813z"/>
			
				<linearGradient id="SVGID_00000083065257437213802180000003044630155570912917_" gradientUnits="userSpaceOnUse" x1="143.3442" y1="465.3923" x2="143.3442" y2="442.6794" gradientTransform="matrix(1 0 0 -1 0 547.6)">
				<stop  offset="0" style="stop-color:#198AB3"/>
				<stop  offset="0.025" style="stop-color:#1D92B9"/>
				<stop  offset="0.102" style="stop-color:#26A5C9"/>
				<stop  offset="0.192" style="stop-color:#2CB2D4"/>
				<stop  offset="0.307" style="stop-color:#30BADA"/>
				<stop  offset="0.531" style="stop-color:#31BCDC"/>
				<stop  offset="0.656" style="stop-color:#2EB5D6"/>
				<stop  offset="0.84" style="stop-color:#24A1C6"/>
				<stop  offset="1" style="stop-color:#198AB3"/>
			</linearGradient>
			<path fill="url(#SVGID_00000083065257437213802180000003044630155570912917_)" d="M151.705,93.082
				c0,4.575-1.102,8.269-2.481,8.269h-4.686v0.037h-9.555c0.959-2.611,1.427-5.377,1.378-8.158v-0.147
				c0.045-2.637-0.346-5.263-1.158-7.772c-0.055-0.165-0.129-0.331-0.202-0.496h14.222
				C150.602,84.813,151.705,88.521,151.705,93.082z"/>
		</g>
		<g id="e8071740-76d7-444d-a08a-6a2072be1ccd_00000093874649993229257770000016553643872408157103_">
			
				<linearGradient id="SVGID_00000015348581562755596250000011931468557970917516_" gradientUnits="userSpaceOnUse" x1="188.7268" y1="469.8078" x2="188.7268" y2="444.6491" gradientTransform="matrix(1 0 0 -1 0 547.6)">
				<stop  offset="0" style="stop-color:#32BEDD"/>
				<stop  offset="0.067" style="stop-color:#3DCCE9"/>
				<stop  offset="0.171" style="stop-color:#48DBF5"/>
				<stop  offset="0.295" style="stop-color:#4EE3FD"/>
				<stop  offset="0.489" style="stop-color:#50E6FF"/>
				<stop  offset="0.703" style="stop-color:#4EE4FD"/>
				<stop  offset="0.828" style="stop-color:#48DBF6"/>
				<stop  offset="0.929" style="stop-color:#3DCDEA"/>
				<stop  offset="1" style="stop-color:#32BEDD"/>
			</linearGradient>
			<path fill="url(#SVGID_00000015348581562755596250000011931468557970917516_)" d="M195.16,82.088h4.134
				c2.201,0,3.982,4.93,3.982,10.994l0,0v0.151l0,0c-0.031,6.02-1.803,10.841-3.982,10.841h-4.134c2.205,0,3.982-4.919,3.982-10.994
				C199.142,87.005,197.361,82.088,195.16,82.088z M181.142,85.306c-0.055-0.165-0.129-0.331-0.202-0.496
				c-0.698-1.69-1.617-2.719-2.628-2.719h-4.134c1.011,0,1.929,1.029,2.628,2.719c0.959,2.65,1.42,5.455,1.36,8.272
				c0.069,2.817-0.392,5.622-1.36,8.269c-0.698,1.709-1.617,2.738-2.628,2.738h4.134c1.011,0,1.911-1.011,2.609-2.701
				c0.959-2.611,1.427-5.377,1.378-8.158v-0.147C182.345,90.444,181.954,87.816,181.142,85.306z"/>
			<path fill="#9CEBFF" d="M199.149,93.082c0,6.082-1.782,11.006-3.987,11.006c-1.011,0-1.929-1.029-2.628-2.738h2.628
				c1.378,0,2.481-3.693,2.481-8.269s-1.102-8.269-2.481-8.269h-2.628c0.698-1.69,1.617-2.719,2.628-2.719
				C197.367,82.09,199.149,87.018,199.149,93.082z M174.185,82.088c-2.203,0-3.984,4.919-3.984,10.994s1.784,10.994,3.984,10.994
				s3.978-4.93,3.978-10.994S176.383,82.088,174.185,82.088z"/>
			<path fill="#32BEDD" d="M174.185,84.813c1.378,0,2.482,3.704,2.482,8.269s-1.102,8.269-2.482,8.269s-2.484-3.701-2.484-8.269
				C171.701,88.514,172.813,84.813,174.185,84.813z"/>
			
				<linearGradient id="SVGID_00000076598833277897250730000017022493724683030402_" gradientUnits="userSpaceOnUse" x1="189.2817" y1="465.3923" x2="189.2817" y2="442.6794" gradientTransform="matrix(1 0 0 -1 0 547.6)">
				<stop  offset="0" style="stop-color:#198AB3"/>
				<stop  offset="0.025" style="stop-color:#1D92B9"/>
				<stop  offset="0.102" style="stop-color:#26A5C9"/>
				<stop  offset="0.192" style="stop-color:#2CB2D4"/>
				<stop  offset="0.307" style="stop-color:#30BADA"/>
				<stop  offset="0.531" style="stop-color:#31BCDC"/>
				<stop  offset="0.656" style="stop-color:#2EB5D6"/>
				<stop  offset="0.84" style="stop-color:#24A1C6"/>
				<stop  offset="1" style="stop-color:#198AB3"/>
			</linearGradient>
			<path fill="url(#SVGID_00000076598833277897250730000017022493724683030402_)" d="M197.642,93.082
				c0,4.575-1.102,8.269-2.481,8.269h-4.686v0.037h-9.555c0.959-2.611,1.427-5.377,1.378-8.158v-0.147
				c0.045-2.637-0.346-5.263-1.158-7.772c-0.055-0.165-0.129-0.331-0.202-0.496h14.222C196.54,84.813,197.642,88.521,197.642,93.082
				z"/>
		</g>
		<g id="ec8922f1-4baf-49ec-b516-cec52695ceb5">
			<g>
				<path fill="#005BA1" d="M39.23,82.554l1.852-2.154c0.172-0.195,0.419-0.306,0.679-0.306h17.757
					c0.684-0.064,1.289,0.439,1.353,1.123c0.005,0.049,0.006,0.099,0.005,0.148v22.172c0,0.253-0.107,0.494-0.294,0.665l-2,1.821
					H40.43l-1.223-0.515L39.23,82.554z"/>
				<path fill="#FFFFFF" d="M40.719,82.54l1.135-1.294c0.151-0.174,0.37-0.274,0.601-0.274h16.585c0.441,0,0.798,0.357,0.798,0.798
					v21.08c0,0.225-0.095,0.439-0.261,0.59l-1.771,1.613L40.719,82.54z"/>
				
					<linearGradient id="SVGID_00000114769740874255008820000016059736728729690286_" gradientUnits="userSpaceOnUse" x1="48.7485" y1="441.5117" x2="48.7485" y2="465.0705" gradientTransform="matrix(1 0 0 -1 0 547.6)">
					<stop  offset="0" style="stop-color:#0078D4"/>
					<stop  offset="0.817" style="stop-color:#5EA0EF"/>
				</linearGradient>
				<path fill="url(#SVGID_00000114769740874255008820000016059736728729690286_)" d="M57.697,82.53H39.293
					c-0.047,0-0.086,0.038-0.086,0.086V105.5c0,0.325,0.264,0.589,0.589,0.589l0,0h17.906c0.325,0,0.589-0.264,0.589-0.589l0,0
					V83.118c-0.001-0.326-0.266-0.59-0.592-0.589C57.698,82.53,57.697,82.53,57.697,82.53z"/>
				<path fill="#FFFFFF" d="M44.794,88.809h8.356c0.228,0,0.413,0.185,0.413,0.413v2.817c0,0.228-0.185,0.413-0.413,0.413h-8.356
					c-0.228,0-0.413-0.185-0.413-0.413v-2.817C44.381,88.994,44.566,88.809,44.794,88.809z"/>
				<path fill="#005BA1" d="M37.878,84.846h1.939c0.498,0,0.902,0.404,0.902,0.902v0.399c0,0.498-0.404,0.902-0.902,0.902h-1.939
					c-0.498,0-0.902-0.404-0.902-0.902v-0.399C36.976,85.25,37.38,84.846,37.878,84.846z"/>
				<path fill="#005BA1" d="M37.878,89.033h1.939c0.498,0,0.902,0.404,0.902,0.902v0.399c0,0.498-0.404,0.902-0.902,0.902h-1.939
					c-0.498,0-0.902-0.404-0.902-0.902v-0.399C36.976,89.437,37.38,89.033,37.878,89.033z"/>
				<path fill="#005BA1" d="M37.878,93.219h1.939c0.498,0,0.902,0.404,0.902,0.902v0.399c0,0.498-0.404,0.902-0.902,0.902h-1.939
					c-0.498,0-0.902-0.404-0.902-0.902v-0.399C36.976,93.623,37.38,93.219,37.878,93.219z"/>
				<path fill="#005BA1" d="M37.878,97.405h1.939c0.498,0,0.902,0.404,0.902,0.902v0.399c0,0.498-0.404,0.902-0.902,0.902h-1.939
					c-0.498,0-0.902-0.404-0.902-0.902v-0.399C36.976,97.808,37.38,97.405,37.878,97.405z"/>
				<path fill="#005BA1" d="M37.878,101.591h1.939c0.498,0,0.902,0.404,0.902,0.902v0.399c0,0.498-0.404,0.902-0.902,0.902h-1.939
					c-0.498,0-0.902-0.404-0.902-0.902v-0.399C36.976,101.995,37.38,101.591,37.878,101.591z"/>
			</g>
		</g>
		
			<linearGradient id="SVGID_00000173126815710769240820000011877928660905708704_" gradientUnits="userSpaceOnUse" x1="232.6762" y1="106.0882" x2="232.6762" y2="80.0882">
			<stop  offset="0" style="stop-color:#0078D4"/>
			<stop  offset="0.817" style="stop-color:#5EA0EF"/>
		</linearGradient>
		<path fill="url(#SVGID_00000173126815710769240820000011877928660905708704_)" d="M238.248,83.803
			c0-2.051,1.663-3.714,3.714-3.714c2.051,0,3.714,1.663,3.714,3.714v18.571c0,2.051-1.663,3.714-3.714,3.714
			c-2.051,0-3.714-1.663-3.714-3.714V83.803z M241.962,104.231c1.026,0,1.857-0.831,1.857-1.857V83.803
			c0-1.026-0.831-1.857-1.857-1.857s-1.857,0.831-1.857,1.857v18.571C240.105,103.4,240.936,104.231,241.962,104.231z
			 M219.676,94.945c0-2.051,1.663-3.714,3.714-3.714s3.714,1.663,3.714,3.714v7.429c0,2.051-1.663,3.714-3.714,3.714
			s-3.714-1.663-3.714-3.714V94.945z M223.39,104.231c1.026,0,1.857-0.831,1.857-1.857v-7.429c0-1.026-0.831-1.857-1.857-1.857
			s-1.857,0.831-1.857,1.857v7.429C221.533,103.4,222.365,104.231,223.39,104.231z M232.676,87.517
			c-2.051,0-3.714,1.663-3.714,3.714v11.143c0,2.051,1.663,3.714,3.714,3.714c2.051,0,3.714-1.663,3.714-3.714V91.231
			C236.39,89.18,234.728,87.517,232.676,87.517z M232.676,89.374c1.026,0,1.857,0.831,1.857,1.857v11.143
			c0,1.026-0.831,1.857-1.857,1.857c-1.026,0-1.857-0.831-1.857-1.857V91.231C230.819,90.205,231.65,89.374,232.676,89.374z"/>
	</g>
	<g>
		<g>
			<line fill="none" stroke="#3C3C41" stroke-miterlimit="10" x1="141.326" y1="176" x2="141.326" y2="205.186"/>
			<g>
				<polygon fill="#3C3C41" points="137.586,204.092 141.326,210.568 145.066,204.092 				"/>
			</g>
		</g>
	</g>
	<g>
		<g opacity="0.23">
			<rect x="301.093" y="119.538" width="122.179" height="57.2"/>
		</g>
		<g>
			<rect x="300.093" y="118.538" fill="#FFFFFF" width="122.179" height="57.2"/>
		</g>
	</g>
	<g id="ec8922f1-4baf-49ec-b516-cec52695ceb5_00000079479427395572173650000004882848756380824714_">
		<g>
			<path fill="#005BA1" d="M448.325,136.561l1.852-2.154c0.172-0.195,0.419-0.306,0.679-0.306h17.757
				c0.684-0.064,1.289,0.439,1.353,1.123c0.005,0.049,0.006,0.099,0.005,0.148v22.172c0,0.253-0.107,0.494-0.294,0.665l-2,1.821
				h-18.152l-1.223-0.515L448.325,136.561z"/>
			<path fill="#FFFFFF" d="M449.815,136.547l1.135-1.294c0.151-0.174,0.37-0.274,0.601-0.274h16.585
				c0.441,0,0.798,0.357,0.798,0.798v21.08c0,0.225-0.095,0.439-0.261,0.59l-1.771,1.613L449.815,136.547z"/>
			
				<linearGradient id="SVGID_00000087377922762491907490000010881027263047940490_" gradientUnits="userSpaceOnUse" x1="457.8439" y1="387.5047" x2="457.8439" y2="411.0634" gradientTransform="matrix(1 0 0 -1 0 547.6)">
				<stop  offset="0" style="stop-color:#0078D4"/>
				<stop  offset="0.817" style="stop-color:#5EA0EF"/>
			</linearGradient>
			<path fill="url(#SVGID_00000087377922762491907490000010881027263047940490_)" d="M466.792,136.537h-18.404
				c-0.047,0-0.086,0.038-0.086,0.086v22.884c0,0.325,0.264,0.589,0.589,0.589l0,0h17.906c0.325,0,0.589-0.264,0.589-0.589l0,0
				v-22.381c-0.001-0.326-0.266-0.59-0.592-0.589C466.793,136.537,466.793,136.537,466.792,136.537z"/>
			<path fill="#FFFFFF" d="M453.89,142.817h8.357c0.228,0,0.413,0.185,0.413,0.413v2.817c0,0.228-0.185,0.413-0.413,0.413h-8.357
				c-0.228,0-0.413-0.185-0.413-0.413v-2.817C453.477,143.001,453.662,142.817,453.89,142.817z"/>
			<path fill="#005BA1" d="M446.974,138.853h1.939c0.498,0,0.902,0.404,0.902,0.902v0.399c0,0.498-0.404,0.902-0.902,0.902h-1.939
				c-0.498,0-0.902-0.404-0.902-0.902v-0.399C446.071,139.257,446.475,138.853,446.974,138.853z"/>
			<path fill="#005BA1" d="M446.974,143.04h1.939c0.498,0,0.902,0.404,0.902,0.902v0.399c0,0.498-0.404,0.902-0.902,0.902h-1.939
				c-0.498,0-0.902-0.404-0.902-0.902v-0.399C446.071,143.444,446.475,143.04,446.974,143.04z"/>
			<path fill="#005BA1" d="M446.974,147.226h1.939c0.498,0,0.902,0.404,0.902,0.902v0.399c0,0.498-0.404,0.902-0.902,0.902h-1.939
				c-0.498,0-0.902-0.404-0.902-0.902v-0.399C446.071,147.63,446.475,147.226,446.974,147.226z"/>
			<path fill="#005BA1" d="M446.974,151.412h1.939c0.498,0,0.902,0.404,0.902,0.902v0.399c0,0.498-0.404,0.902-0.902,0.902h-1.939
				c-0.498,0-0.902-0.404-0.902-0.902v-0.399C446.071,151.816,446.475,151.412,446.974,151.412z"/>
			<path fill="#005BA1" d="M446.974,155.598h1.939c0.498,0,0.902,0.404,0.902,0.902v0.399c0,0.498-0.404,0.902-0.902,0.902h-1.939
				c-0.498,0-0.902-0.404-0.902-0.902V156.5C446.071,156.002,446.475,155.598,446.974,155.598z"/>
		</g>
	</g>
	<g id="ec8922f1-4baf-49ec-b516-cec52695ceb5_00000167385926233557664780000016727967066327502778_">
		<g>
			<path fill="#005BA1" d="M497.382,136.561l1.852-2.154c0.172-0.195,0.419-0.306,0.679-0.306h17.757
				c0.684-0.064,1.289,0.439,1.353,1.123c0.005,0.049,0.006,0.099,0.005,0.148v22.172c0,0.253-0.107,0.494-0.294,0.665l-2,1.821
				h-18.152l-1.223-0.515L497.382,136.561z"/>
			<path fill="#FFFFFF" d="M498.871,136.547l1.135-1.294c0.151-0.174,0.37-0.274,0.601-0.274h16.585
				c0.441,0,0.798,0.357,0.798,0.798v21.08c0,0.225-0.095,0.439-0.261,0.59l-1.771,1.613L498.871,136.547z"/>
			
				<linearGradient id="SVGID_00000019674581462764047180000017609873608259607682_" gradientUnits="userSpaceOnUse" x1="506.9007" y1="387.5047" x2="506.9007" y2="411.0634" gradientTransform="matrix(1 0 0 -1 0 547.6)">
				<stop  offset="0" style="stop-color:#0078D4"/>
				<stop  offset="0.817" style="stop-color:#5EA0EF"/>
			</linearGradient>
			<path fill="url(#SVGID_00000019674581462764047180000017609873608259607682_)" d="M515.849,136.537h-18.404
				c-0.047,0-0.086,0.038-0.086,0.086v22.884c0,0.325,0.264,0.589,0.589,0.589l0,0h17.906c0.325,0,0.589-0.264,0.589-0.589l0,0
				v-22.381c-0.001-0.326-0.266-0.59-0.592-0.589C515.85,136.537,515.849,136.537,515.849,136.537z"/>
			<path fill="#FFFFFF" d="M502.946,142.817h8.356c0.228,0,0.413,0.185,0.413,0.413v2.817c0,0.228-0.185,0.413-0.413,0.413h-8.356
				c-0.228,0-0.413-0.185-0.413-0.413v-2.817C502.534,143.001,502.718,142.817,502.946,142.817z"/>
			<path fill="#005BA1" d="M496.03,138.853h1.939c0.498,0,0.902,0.404,0.902,0.902v0.399c0,0.498-0.404,0.902-0.902,0.902h-1.939
				c-0.498,0-0.902-0.404-0.902-0.902v-0.399C495.128,139.257,495.532,138.853,496.03,138.853z"/>
			<path fill="#005BA1" d="M496.03,143.04h1.939c0.498,0,0.902,0.404,0.902,0.902v0.399c0,0.498-0.404,0.902-0.902,0.902h-1.939
				c-0.498,0-0.902-0.404-0.902-0.902v-0.399C495.128,143.444,495.532,143.04,496.03,143.04z"/>
			<path fill="#005BA1" d="M496.03,147.226h1.939c0.498,0,0.902,0.404,0.902,0.902v0.399c0,0.498-0.404,0.902-0.902,0.902h-1.939
				c-0.498,0-0.902-0.404-0.902-0.902v-0.399C495.128,147.63,495.532,147.226,496.03,147.226z"/>
			<path fill="#005BA1" d="M496.03,151.412h1.939c0.498,0,0.902,0.404,0.902,0.902v0.399c0,0.498-0.404,0.902-0.902,0.902h-1.939
				c-0.498,0-0.902-0.404-0.902-0.902v-0.399C495.128,151.816,495.532,151.412,496.03,151.412z"/>
			<path fill="#005BA1" d="M496.03,155.598h1.939c0.498,0,0.902,0.404,0.902,0.902v0.399c0,0.498-0.404,0.902-0.902,0.902h-1.939
				c-0.498,0-0.902-0.404-0.902-0.902V156.5C495.128,156.002,495.532,155.598,496.03,155.598z"/>
		</g>
	</g>
	<g id="bdd66f0d-1091-4867-9f64-cdf433204a8a_00000083084085929189266810000017994746325744957624_">
		<g>
			<g>
				
					<linearGradient id="SVGID_00000155123283548194881210000010147659837633667210_" gradientUnits="userSpaceOnUse" x1="-218.2241" y1="547.0815" x2="-191.2221" y2="547.0815" gradientTransform="matrix(1 0.0026 0.0026 -1 564.4961 779.2653)">
					<stop  offset="0" style="stop-color:#005BA1"/>
					<stop  offset="0.068" style="stop-color:#0060A9"/>
					<stop  offset="0.356" style="stop-color:#0071C8"/>
					<stop  offset="0.517" style="stop-color:#0078D4"/>
					<stop  offset="0.642" style="stop-color:#0074CD"/>
					<stop  offset="0.82" style="stop-color:#006ABB"/>
					<stop  offset="1" style="stop-color:#005BA1"/>
				</linearGradient>
				<path fill="url(#SVGID_00000155123283548194881210000010147659837633667210_)" d="M361.204,221.037
					c-7.457-0.019-13.494-2.236-13.488-4.953l-0.068,26.165c0,2.694,5.93,4.896,13.304,4.951h0.184
					c7.457,0.019,13.507-2.166,13.513-4.884l0.068-26.165C374.711,218.871,368.661,221.056,361.204,221.037z"/>
				<path fill="#E6E6E6" d="M374.717,216.154c0,2.715-6.057,4.903-13.513,4.884s-13.494-2.236-13.488-4.953
					c0.006-2.717,6.055-4.903,13.513-4.884S374.724,213.436,374.717,216.154"/>
				<path fill="#50E6FF" d="M371.56,215.747c0,1.728-4.642,3.115-10.356,3.1c-5.714-0.015-10.341-1.425-10.337-3.153
					s4.642-3.115,10.358-3.1c5.716,0.015,10.345,1.425,10.341,3.153"/>
				<path fill="#198AB3" d="M361.215,216.442c-2.779-0.073-5.551,0.321-8.2,1.165c2.639,0.886,5.413,1.306,8.196,1.241
					c2.782,0.078,5.557-0.327,8.2-1.199C366.765,216.791,363.995,216.383,361.215,216.442z"/>
			</g>
		</g>
	</g>
	<g>
		
			<linearGradient id="SVGID_00000037671821494441920530000007169541012918263992_" gradientUnits="userSpaceOnUse" x1="505.0465" y1="106.0882" x2="505.0465" y2="80.0882">
			<stop  offset="0" style="stop-color:#0078D4"/>
			<stop  offset="0.817" style="stop-color:#5EA0EF"/>
		</linearGradient>
		<path fill="url(#SVGID_00000037671821494441920530000007169541012918263992_)" d="M510.618,83.803
			c0-2.051,1.663-3.714,3.714-3.714c2.051,0,3.714,1.663,3.714,3.714v18.571c0,2.051-1.663,3.714-3.714,3.714
			c-2.051,0-3.714-1.663-3.714-3.714V83.803z M514.332,104.231c1.026,0,1.857-0.831,1.857-1.857V83.803
			c0-1.026-0.831-1.857-1.857-1.857c-1.026,0-1.857,0.831-1.857,1.857v18.571C512.475,103.4,513.306,104.231,514.332,104.231z
			 M492.046,94.945c0-2.051,1.663-3.714,3.714-3.714c2.051,0,3.714,1.663,3.714,3.714v7.429c0,2.051-1.663,3.714-3.714,3.714
			c-2.051,0-3.714-1.663-3.714-3.714V94.945z M495.761,104.231c1.026,0,1.857-0.831,1.857-1.857v-7.429
			c0-1.026-0.831-1.857-1.857-1.857c-1.026,0-1.857,0.831-1.857,1.857v7.429C493.904,103.4,494.735,104.231,495.761,104.231z
			 M505.046,87.517c-2.051,0-3.714,1.663-3.714,3.714v11.143c0,2.051,1.663,3.714,3.714,3.714s3.714-1.663,3.714-3.714V91.231
			C508.761,89.18,507.098,87.517,505.046,87.517z M505.046,89.374c1.026,0,1.857,0.831,1.857,1.857v11.143
			c0,1.026-0.831,1.857-1.857,1.857s-1.857-0.831-1.857-1.857V91.231C503.189,90.205,504.021,89.374,505.046,89.374z"/>
		
			<linearGradient id="SVGID_00000065071247174812426800000016309823920253705866_" gradientUnits="userSpaceOnUse" x1="322.3463" y1="106.0882" x2="322.3463" y2="80.0882">
			<stop  offset="0" style="stop-color:#0078D4"/>
			<stop  offset="0.817" style="stop-color:#5EA0EF"/>
		</linearGradient>
		<path fill="url(#SVGID_00000065071247174812426800000016309823920253705866_)" d="M327.918,83.803
			c0-2.051,1.663-3.714,3.714-3.714c2.051,0,3.714,1.663,3.714,3.714v18.571c0,2.051-1.663,3.714-3.714,3.714
			c-2.051,0-3.714-1.663-3.714-3.714V83.803z M331.632,104.231c1.026,0,1.857-0.831,1.857-1.857V83.803
			c0-1.026-0.831-1.857-1.857-1.857c-1.026,0-1.857,0.831-1.857,1.857v18.571C329.775,103.4,330.606,104.231,331.632,104.231z
			 M309.346,94.945c0-2.051,1.663-3.714,3.714-3.714c2.051,0,3.714,1.663,3.714,3.714v7.429c0,2.051-1.663,3.714-3.714,3.714
			c-2.051,0-3.714-1.663-3.714-3.714V94.945z M313.061,104.231c1.026,0,1.857-0.831,1.857-1.857v-7.429
			c0-1.026-0.831-1.857-1.857-1.857s-1.857,0.831-1.857,1.857v7.429C311.203,103.4,312.035,104.231,313.061,104.231z
			 M322.346,87.517c-2.051,0-3.714,1.663-3.714,3.714v11.143c0,2.051,1.663,3.714,3.714,3.714s3.714-1.663,3.714-3.714V91.231
			C326.061,89.18,324.398,87.517,322.346,87.517z M322.346,89.374c1.026,0,1.857,0.831,1.857,1.857v11.143
			c0,1.026-0.831,1.857-1.857,1.857s-1.857-0.831-1.857-1.857V91.231C320.489,90.205,321.321,89.374,322.346,89.374z"/>
		
			<linearGradient id="SVGID_00000017483865084503571520000005789538479452261038_" gradientUnits="userSpaceOnUse" x1="368.0214" y1="106.0882" x2="368.0214" y2="80.0882">
			<stop  offset="0" style="stop-color:#0078D4"/>
			<stop  offset="0.817" style="stop-color:#5EA0EF"/>
		</linearGradient>
		<path fill="url(#SVGID_00000017483865084503571520000005789538479452261038_)" d="M373.593,83.803
			c0-2.051,1.663-3.714,3.714-3.714s3.714,1.663,3.714,3.714v18.571c0,2.051-1.663,3.714-3.714,3.714s-3.714-1.663-3.714-3.714
			V83.803z M377.307,104.231c1.026,0,1.857-0.831,1.857-1.857V83.803c0-1.026-0.831-1.857-1.857-1.857s-1.857,0.831-1.857,1.857
			v18.571C375.45,103.4,376.281,104.231,377.307,104.231z M355.021,94.945c0-2.051,1.663-3.714,3.714-3.714
			c2.051,0,3.714,1.663,3.714,3.714v7.429c0,2.051-1.663,3.714-3.714,3.714c-2.051,0-3.714-1.663-3.714-3.714V94.945z
			 M358.736,104.231c1.026,0,1.857-0.831,1.857-1.857v-7.429c0-1.026-0.831-1.857-1.857-1.857c-1.026,0-1.857,0.831-1.857,1.857
			v7.429C356.879,103.4,357.71,104.231,358.736,104.231z M368.021,87.517c-2.051,0-3.714,1.663-3.714,3.714v11.143
			c0,2.051,1.663,3.714,3.714,3.714s3.714-1.663,3.714-3.714V91.231C371.736,89.18,370.073,87.517,368.021,87.517z M368.021,89.374
			c1.026,0,1.857,0.831,1.857,1.857v11.143c0,1.026-0.831,1.857-1.857,1.857s-1.857-0.831-1.857-1.857V91.231
			C366.164,90.205,366.996,89.374,368.021,89.374z"/>
		
			<linearGradient id="SVGID_00000093889450038025841050000015790131629590525607_" gradientUnits="userSpaceOnUse" x1="413.6964" y1="106.0882" x2="413.6964" y2="80.0882">
			<stop  offset="0" style="stop-color:#0078D4"/>
			<stop  offset="0.817" style="stop-color:#5EA0EF"/>
		</linearGradient>
		<path fill="url(#SVGID_00000093889450038025841050000015790131629590525607_)" d="M419.268,83.803
			c0-2.051,1.663-3.714,3.714-3.714s3.714,1.663,3.714,3.714v18.571c0,2.051-1.663,3.714-3.714,3.714s-3.714-1.663-3.714-3.714
			V83.803z M422.982,104.231c1.026,0,1.857-0.831,1.857-1.857V83.803c0-1.026-0.831-1.857-1.857-1.857s-1.857,0.831-1.857,1.857
			v18.571C421.125,103.4,421.956,104.231,422.982,104.231z M400.696,94.945c0-2.051,1.663-3.714,3.714-3.714
			c2.051,0,3.714,1.663,3.714,3.714v7.429c0,2.051-1.663,3.714-3.714,3.714c-2.051,0-3.714-1.663-3.714-3.714V94.945z
			 M404.411,104.231c1.026,0,1.857-0.831,1.857-1.857v-7.429c0-1.026-0.831-1.857-1.857-1.857s-1.857,0.831-1.857,1.857v7.429
			C402.554,103.4,403.385,104.231,404.411,104.231z M413.696,87.517c-2.051,0-3.714,1.663-3.714,3.714v11.143
			c0,2.051,1.663,3.714,3.714,3.714c2.051,0,3.714-1.663,3.714-3.714V91.231C417.411,89.18,415.748,87.517,413.696,87.517z
			 M413.696,89.374c1.026,0,1.857,0.831,1.857,1.857v11.143c0,1.026-0.831,1.857-1.857,1.857c-1.026,0-1.857-0.831-1.857-1.857
			V91.231C411.839,90.205,412.671,89.374,413.696,89.374z"/>
		
			<linearGradient id="SVGID_00000114055620103747538070000010312811038386017686_" gradientUnits="userSpaceOnUse" x1="459.3714" y1="106.0882" x2="459.3714" y2="80.0882">
			<stop  offset="0" style="stop-color:#0078D4"/>
			<stop  offset="0.817" style="stop-color:#5EA0EF"/>
		</linearGradient>
		<path fill="url(#SVGID_00000114055620103747538070000010312811038386017686_)" d="M464.943,83.803
			c0-2.051,1.663-3.714,3.714-3.714c2.051,0,3.714,1.663,3.714,3.714v18.571c0,2.051-1.663,3.714-3.714,3.714
			c-2.051,0-3.714-1.663-3.714-3.714V83.803z M468.657,104.231c1.026,0,1.857-0.831,1.857-1.857V83.803
			c0-1.026-0.831-1.857-1.857-1.857c-1.026,0-1.857,0.831-1.857,1.857v18.571C466.8,103.4,467.631,104.231,468.657,104.231z
			 M446.371,94.945c0-2.051,1.663-3.714,3.714-3.714c2.051,0,3.714,1.663,3.714,3.714v7.429c0,2.051-1.663,3.714-3.714,3.714
			c-2.051,0-3.714-1.663-3.714-3.714V94.945z M450.086,104.231c1.026,0,1.857-0.831,1.857-1.857v-7.429
			c0-1.026-0.831-1.857-1.857-1.857s-1.857,0.831-1.857,1.857v7.429C448.229,103.4,449.06,104.231,450.086,104.231z M459.371,87.517
			c-2.051,0-3.714,1.663-3.714,3.714v11.143c0,2.051,1.663,3.714,3.714,3.714s3.714-1.663,3.714-3.714V91.231
			C463.086,89.18,461.423,87.517,459.371,87.517z M459.371,89.374c1.026,0,1.857,0.831,1.857,1.857v11.143
			c0,1.026-0.831,1.857-1.857,1.857s-1.857-0.831-1.857-1.857V91.231C457.514,90.205,458.346,89.374,459.371,89.374z"/>
	</g>
	<g>
		<g>
			<line fill="none" stroke="#3C3C41" stroke-miterlimit="10" x1="361.183" y1="176" x2="361.183" y2="205.186"/>
			<g>
				<polygon fill="#3C3C41" points="357.443,204.092 361.183,210.568 364.923,204.092 				"/>
			</g>
		</g>
	</g>
	<g>
		<g>
			
				<linearGradient id="SVGID_00000000930541028246351720000004311490913787747251_" gradientUnits="userSpaceOnUse" x1="-534.0381" y1="737.9524" x2="-534.0381" y2="759.6" gradientTransform="matrix(1 0 0 -1 564 781.6)">
				<stop  offset="0" style="stop-color:#0078D4"/>
				<stop  offset="0.82" style="stop-color:#5EA0EF"/>
			</linearGradient>
			<path fill="url(#SVGID_00000000930541028246351720000004311490913787747251_)" d="M14.809,22h30.307
				c0.598,0,1.082,0.485,1.082,1.082v19.483c0,0.598-0.485,1.082-1.082,1.082H14.809c-0.598,0-1.082-0.485-1.082-1.082V23.082
				C13.726,22.485,14.211,22,14.809,22z"/>
			
				<linearGradient id="SVGID_00000021106359765340837440000007337443314377121428_" gradientUnits="userSpaceOnUse" x1="-534.0381" y1="729.6" x2="-534.0381" y2="737.9524" gradientTransform="matrix(1 0 0 -1 564 781.6)">
				<stop  offset="0.15" style="stop-color:#CCCCCC"/>
				<stop  offset="1" style="stop-color:#707070"/>
			</linearGradient>
			<path fill="url(#SVGID_00000021106359765340837440000007337443314377121428_)" d="M36.474,50.196
				c-3.211-0.505-3.337-2.814-3.337-6.548h-6.368c0,3.734-0.108,6.043-3.319,6.548c-0.918,0.102-1.611,0.88-1.606,1.804H38.08
				C38.085,51.076,37.392,50.298,36.474,50.196z"/>
		</g>
		<g>
			
				<linearGradient id="SVGID_00000176737191116439158880000012124169999791673987_" gradientUnits="userSpaceOnUse" x1="48.4806" y1="535.5172" x2="48.4806" y2="515.5172" gradientTransform="matrix(1 0 0 -1 0 547.6)">
				<stop  offset="0" style="stop-color:#76BC2D"/>
				<stop  offset="0.32" style="stop-color:#73B82C"/>
				<stop  offset="0.65" style="stop-color:#6CAB29"/>
				<stop  offset="0.99" style="stop-color:#5E9724"/>
				<stop  offset="1" style="stop-color:#5E9624"/>
			</linearGradient>
			<path fill="url(#SVGID_00000176737191116439158880000012124169999791673987_)" d="M52.778,12.083h-8.595
				c-0.916,0.001-1.762,0.49-2.219,1.283l-4.285,7.441c-0.458,0.794-0.458,1.772,0,2.566l4.285,7.428
				c0.458,0.793,1.304,1.282,2.219,1.283h8.595c0.916-0.001,1.762-0.49,2.219-1.283l4.285-7.428c0.458-0.794,0.458-1.772,0-2.566
				l-4.285-7.441C54.54,12.573,53.694,12.084,52.778,12.083z"/>
			
				<linearGradient id="SVGID_00000009582145680784645610000015230241448699403690_" gradientUnits="userSpaceOnUse" x1="44.7987" y1="525.5107" x2="52.1624" y2="525.5107" gradientTransform="matrix(1 0 0 -1 0 547.6)">
				<stop  offset="0" style="stop-color:#FFFFFF"/>
				<stop  offset="1" style="stop-color:#FFFFFF"/>
			</linearGradient>
			<path opacity="0.9" fill="url(#SVGID_00000009582145680784645610000015230241448699403690_)" enable-background="new    " d="
				M48.57,16.355c-0.576,0-1.045-0.463-1.052-1.039c0-0.581,0.471-1.052,1.052-1.052s1.052,0.471,1.052,1.052
				C49.615,15.892,49.146,16.355,48.57,16.355z M47.518,28.863c0,0.581,0.471,1.052,1.052,1.052s1.052-0.471,1.052-1.052l0,0
				c0-0.581-0.471-1.052-1.052-1.052S47.518,28.282,47.518,28.863z M48.596,25.399c-0.815,0.082-1.592-0.361-1.937-1.103
				l-1.86,0.359c0.561,1.505,2.09,2.422,3.682,2.207c2.168,0,3.733-1.142,3.733-2.733c0.082-1.067-0.485-2.078-1.437-2.566
				c-0.748-0.286-1.515-0.517-2.296-0.693c-0.86-0.205-1.411-0.68-1.411-1.283c0.087-0.695,0.715-1.192,1.411-1.116
				c0.674-0.04,1.314,0.302,1.655,0.885l1.604-0.513c-0.647-1.166-1.935-1.825-3.258-1.668c-1.514,0-3.271,0.667-3.271,2.566
				c0,2.322,1.424,2.784,3.451,3.182c0.475,0.09,1.578,0.411,1.578,1.283C50.187,24.694,49.763,25.399,48.596,25.399z"/>
		</g>
	</g>
	<g>
		<g>
			
				<linearGradient id="SVGID_00000152976880179529149960000013009780750930732948_" gradientUnits="userSpaceOnUse" x1="-261.6679" y1="737.9524" x2="-261.6679" y2="759.6" gradientTransform="matrix(1 0 0 -1 564 781.6)">
				<stop  offset="0" style="stop-color:#0078D4"/>
				<stop  offset="0.82" style="stop-color:#5EA0EF"/>
			</linearGradient>
			<path fill="url(#SVGID_00000152976880179529149960000013009780750930732948_)" d="M287.179,22h30.307
				c0.598,0,1.082,0.485,1.082,1.082v19.483c0,0.598-0.485,1.082-1.082,1.082h-30.307c-0.598,0-1.082-0.485-1.082-1.082V23.082
				C286.096,22.485,286.581,22,287.179,22z"/>
			
				<linearGradient id="SVGID_00000071546436506146172310000017575793743137420477_" gradientUnits="userSpaceOnUse" x1="-261.6679" y1="729.6" x2="-261.6679" y2="737.9524" gradientTransform="matrix(1 0 0 -1 564 781.6)">
				<stop  offset="0.15" style="stop-color:#CCCCCC"/>
				<stop  offset="1" style="stop-color:#707070"/>
			</linearGradient>
			<path fill="url(#SVGID_00000071546436506146172310000017575793743137420477_)" d="M308.844,50.196
				c-3.211-0.505-3.337-2.814-3.337-6.548h-6.368c0,3.734-0.108,6.043-3.319,6.548c-0.918,0.102-1.611,0.88-1.606,1.804h16.236
				C310.456,51.076,309.763,50.298,308.844,50.196z"/>
		</g>
		<g id="a55f1b0d-bf55-4c91-ab91-28af784774a5">
			<g>
				
					<linearGradient id="SVGID_00000019665731758742004560000003610946471830909344_" gradientUnits="userSpaceOnUse" x1="316.9429" y1="536.7914" x2="316.863" y2="515.8401" gradientTransform="matrix(1 0 0 -1 0 547.6)">
					<stop  offset="0.001" style="stop-color:#76BC2D"/>
					<stop  offset="0.989" style="stop-color:#5E9724"/>
					<stop  offset="1" style="stop-color:#5E9624"/>
				</linearGradient>
				<path fill="url(#SVGID_00000019665731758742004560000003610946471830909344_)" d="M314.314,25.624h5.176V30.8h-5.176V25.624z
					 M308.276,14.263v4.459h5.176v-5.176h-4.457c-0.395-0.002-0.717,0.317-0.719,0.712
					C308.276,14.259,308.276,14.261,308.276,14.263z M308.276,30.082c0,0.395,0.32,0.715,0.715,0.715l0,0h4.461v-5.174h-5.176
					V30.082z M308.276,24.761h5.176v-5.178h-5.176V24.761z M320.355,30.8h4.453c0.395,0,0.715-0.32,0.715-0.715l0,0v-4.461h-5.168
					V30.8z"/>
				
					<linearGradient id="SVGID_00000157290348703398744760000002459309914392290998_" gradientUnits="userSpaceOnUse" x1="396.3147" y1="212.6255" x2="396.3147" y2="218.1561" gradientTransform="matrix(0.9033 0.4291 0.4291 -0.9033 -126.4797 38.8867)">
					<stop  offset="0" style="stop-color:#0078D4"/>
					<stop  offset="0.165" style="stop-color:#1C84DC"/>
					<stop  offset="0.799" style="stop-color:#5A9EEE"/>
					<stop  offset="1" style="stop-color:#5EA0EF"/>
				</linearGradient>
				<path fill="url(#SVGID_00000157290348703398744760000002459309914392290998_)" d="M320.358,15.439l2.125-4.474
					c0.068-0.144,0.241-0.205,0.384-0.137l4.474,2.125c0.144,0.068,0.205,0.241,0.137,0.384l-2.125,4.474
					c-0.068,0.144-0.241,0.205-0.384,0.137l-4.474-2.125C320.351,15.755,320.289,15.583,320.358,15.439z"/>
				<path fill="#0078D4" d="M314.314,24.761h5.176v-5.178h-5.176V24.761z M320.355,19.584v5.178h5.176v-5.178H320.355z
					 M314.314,18.722h5.176v-5.176h-5.176V18.722z"/>
			</g>
		</g>
	</g>
	<g>
		<g>
			<path fill="#212121" d="M354.033,153.467c-1.344,0-2.623-0.656-3.522-1.865c-0.899,1.209-2.178,1.865-3.522,1.865
				c-1.342,0-2.62-0.655-3.519-1.861c-0.868,1.189-2.066,1.864-3.173,1.864c-0.457,0-0.828-0.371-0.828-0.828
				c0-0.457,0.371-0.828,0.828-0.828c0.619,0,1.777-0.61,2.396-2.228c0.123-0.32,0.43-0.532,0.773-0.532
				c0.343,0,0.651,0.211,0.773,0.532c0.6,1.566,1.732,2.224,2.749,2.224c1.016,0,2.148-0.658,2.749-2.224
				c0.123-0.32,0.43-0.532,0.773-0.532c0.343,0,0.65,0.211,0.773,0.532c0.6,1.566,1.732,2.224,2.748,2.224 M354.033,160.092
				c-1.344,0-2.623-0.656-3.522-1.865c-0.899,1.209-2.178,1.865-3.522,1.865c-1.342,0-2.62-0.655-3.519-1.861
				c-0.868,1.189-2.066,1.864-3.173,1.864c-0.457,0-0.828-0.371-0.828-0.828c0-0.457,0.371-0.828,0.828-0.828
				c0.619,0,1.777-0.61,2.396-2.228c0.123-0.32,0.43-0.532,0.773-0.532c0.343,0,0.651,0.211,0.773,0.532
				c0.6,1.566,1.732,2.224,2.749,2.224c1.016,0,2.148-0.658,2.749-2.224c0.123-0.32,0.43-0.532,0.773-0.532
				c0.343,0,0.65,0.211,0.773,0.532c0.6,1.566,1.732,2.224,2.748,2.224"/>
			<path fill="#212121" d="M335.907,134.792c1.101-0.929,2.712-0.929,3.813,0l8.873,7.482c0.666,0.562,1.051,1.389,1.051,2.261
				v2.731c-0.609-0.39-1.27-0.705-1.972-0.931v-1.8c0-0.291-0.128-0.566-0.35-0.754l-8.873-7.482c-0.367-0.31-0.904-0.31-1.271,0
				l-8.873,7.482c-0.222,0.187-0.35,0.463-0.35,0.754v12.238c0,0.182,0.147,0.329,0.329,0.329h8.629
				c0.227,0.701,0.542,1.363,0.933,1.972h-9.562c-1.27,0-2.3-1.03-2.3-2.3v-12.238c0-0.872,0.385-1.699,1.051-2.261L335.907,134.792
				z"/>
		</g>
		<g>
			<path fill="#212121" d="M396.383,153.467c-1.344,0-2.623-0.656-3.522-1.865c-0.899,1.209-2.178,1.865-3.522,1.865
				c-1.342,0-2.62-0.655-3.519-1.861c-0.867,1.189-2.066,1.864-3.173,1.864c-0.457,0-0.828-0.371-0.828-0.828
				c0-0.457,0.371-0.828,0.828-0.828c0.619,0,1.777-0.61,2.396-2.228c0.123-0.32,0.43-0.532,0.773-0.532
				c0.343,0,0.651,0.211,0.773,0.532c0.6,1.566,1.733,2.224,2.749,2.224s2.148-0.658,2.749-2.224c0.123-0.32,0.43-0.532,0.773-0.532
				c0.343,0,0.65,0.211,0.773,0.532c0.6,1.566,1.732,2.224,2.748,2.224 M396.383,160.092c-1.344,0-2.623-0.656-3.522-1.865
				c-0.899,1.209-2.178,1.865-3.522,1.865c-1.342,0-2.62-0.655-3.519-1.861c-0.867,1.189-2.066,1.864-3.173,1.864
				c-0.457,0-0.828-0.371-0.828-0.828c0-0.457,0.371-0.828,0.828-0.828c0.619,0,1.777-0.61,2.396-2.228
				c0.123-0.32,0.43-0.532,0.773-0.532c0.343,0,0.651,0.211,0.773,0.532c0.6,1.566,1.733,2.224,2.749,2.224s2.148-0.658,2.749-2.224
				c0.123-0.32,0.43-0.532,0.773-0.532c0.343,0,0.65,0.211,0.773,0.532c0.6,1.566,1.732,2.224,2.748,2.224"/>
			<path fill="#212121" d="M378.257,134.792c1.101-0.929,2.712-0.929,3.813,0l8.873,7.482c0.666,0.562,1.051,1.389,1.051,2.261
				v2.731c-0.609-0.39-1.27-0.705-1.972-0.931v-1.8c0-0.291-0.128-0.566-0.35-0.754l-8.873-7.482c-0.367-0.31-0.904-0.31-1.271,0
				l-8.873,7.482c-0.222,0.187-0.35,0.463-0.35,0.754v12.238c0,0.182,0.147,0.329,0.329,0.329h8.629
				c0.227,0.701,0.542,1.363,0.933,1.972h-9.562c-1.27,0-2.3-1.03-2.3-2.3v-12.238c0-0.872,0.385-1.699,1.051-2.261L378.257,134.792
				z"/>
		</g>
	</g>
	<g>
		<g>
			<path fill="#212121" d="M237.6,153.467c-1.344,0-2.623-0.656-3.522-1.865c-0.899,1.209-2.178,1.865-3.522,1.865
				c-1.342,0-2.62-0.655-3.519-1.861c-0.868,1.189-2.066,1.864-3.173,1.864c-0.457,0-0.828-0.371-0.828-0.828
				c0-0.457,0.371-0.828,0.828-0.828c0.619,0,1.777-0.61,2.396-2.228c0.123-0.32,0.43-0.532,0.773-0.532
				c0.343,0,0.651,0.211,0.773,0.532c0.6,1.566,1.732,2.224,2.749,2.224s2.148-0.658,2.749-2.224c0.123-0.32,0.43-0.532,0.773-0.532
				s0.65,0.211,0.773,0.532c0.6,1.566,1.732,2.224,2.748,2.224 M237.6,160.092c-1.344,0-2.623-0.656-3.522-1.865
				c-0.899,1.209-2.178,1.865-3.522,1.865c-1.342,0-2.62-0.655-3.519-1.861c-0.868,1.189-2.066,1.864-3.173,1.864
				c-0.457,0-0.828-0.371-0.828-0.828c0-0.457,0.371-0.828,0.828-0.828c0.619,0,1.777-0.61,2.396-2.228
				c0.123-0.32,0.43-0.532,0.773-0.532c0.343,0,0.651,0.211,0.773,0.532c0.6,1.566,1.732,2.224,2.749,2.224s2.148-0.658,2.749-2.224
				c0.123-0.32,0.43-0.532,0.773-0.532s0.65,0.211,0.773,0.532c0.6,1.566,1.732,2.224,2.748,2.224"/>
			<path fill="#212121" d="M219.474,134.792c1.101-0.929,2.712-0.929,3.813,0l8.873,7.482c0.666,0.562,1.051,1.389,1.051,2.261
				v2.731c-0.609-0.39-1.27-0.705-1.972-0.931v-1.8c0-0.291-0.128-0.566-0.35-0.754l-8.873-7.482c-0.367-0.31-0.904-0.31-1.271,0
				l-8.873,7.482c-0.222,0.187-0.35,0.463-0.35,0.754v12.238c0,0.182,0.147,0.329,0.329,0.329h8.629
				c0.227,0.701,0.542,1.363,0.933,1.972h-9.562c-1.27,0-2.3-1.03-2.3-2.3v-12.238c0-0.872,0.385-1.699,1.051-2.261L219.474,134.792
				z"/>
		</g>
		<path fill="#212121" d="M55.784,145.725c0.945,0,1.711,0.766,1.711,1.711c0,0.945-0.766,1.711-1.711,1.711
			c-0.945,0-1.711-0.766-1.711-1.711C54.073,146.491,54.839,145.725,55.784,145.725z M61.6,145.725c0.945,0,1.711,0.766,1.711,1.711
			c0,0.945-0.766,1.711-1.711,1.711c-0.945,0-1.711-0.766-1.711-1.711C59.889,146.491,60.655,145.725,61.6,145.725z M69.127,147.436
			c0-0.945-0.766-1.711-1.711-1.711c-0.945,0-1.711,0.766-1.711,1.711c0,0.945,0.766,1.711,1.711,1.711
			C68.361,149.147,69.127,148.381,69.127,147.436z M57.494,152.91c0-0.945-0.766-1.711-1.711-1.711
			c-0.945,0-1.711,0.766-1.711,1.711c0,0.945,0.766,1.711,1.711,1.711C56.728,154.621,57.494,153.855,57.494,152.91z M63.311,152.91
			c0-0.945-0.766-1.711-1.711-1.711c-0.945,0-1.711,0.766-1.711,1.711c0,0.945,0.766,1.711,1.711,1.711
			C62.545,154.621,63.311,153.855,63.311,152.91z M67.416,151.2c0.945,0,1.711,0.766,1.711,1.711c0,0.945-0.766,1.711-1.711,1.711
			c-0.945,0-1.711-0.766-1.711-1.711C65.706,151.965,66.472,151.2,67.416,151.2z M59.598,134.823
			c1.146-0.969,2.825-0.971,3.973-0.003l9.252,7.8c0.694,0.585,1.095,1.447,1.095,2.354V157.7c0,1.323-1.072,2.395-2.395,2.395
			H51.678c-1.323,0-2.395-1.072-2.395-2.395v-12.728c0-0.906,0.399-1.766,1.091-2.352L59.598,134.823z M62.247,136.39
			c-0.383-0.323-0.942-0.322-1.324,0.001l-9.224,7.798c-0.231,0.195-0.364,0.482-0.364,0.784V157.7c0,0.189,0.153,0.342,0.342,0.342
			h19.844c0.189,0,0.342-0.153,0.342-0.342v-12.726c0-0.303-0.134-0.59-0.365-0.785L62.247,136.39z"/>
		<path fill="#212121" d="M109.775,145.725c0.945,0,1.711,0.766,1.711,1.711c0,0.945-0.766,1.711-1.711,1.711
			s-1.711-0.766-1.711-1.711C108.065,146.491,108.83,145.725,109.775,145.725z M115.592,145.725c0.945,0,1.711,0.766,1.711,1.711
			c0,0.945-0.766,1.711-1.711,1.711c-0.945,0-1.711-0.766-1.711-1.711C113.881,146.491,114.647,145.725,115.592,145.725z
			 M123.119,147.436c0-0.945-0.766-1.711-1.711-1.711c-0.945,0-1.711,0.766-1.711,1.711c0,0.945,0.766,1.711,1.711,1.711
			C122.353,149.147,123.119,148.381,123.119,147.436z M111.486,152.91c0-0.945-0.766-1.711-1.711-1.711s-1.711,0.766-1.711,1.711
			c0,0.945,0.766,1.711,1.711,1.711S111.486,153.855,111.486,152.91z M117.302,152.91c0-0.945-0.766-1.711-1.711-1.711
			c-0.945,0-1.711,0.766-1.711,1.711c0,0.945,0.766,1.711,1.711,1.711C116.537,154.621,117.302,153.855,117.302,152.91z
			 M121.408,151.2c0.945,0,1.711,0.766,1.711,1.711c0,0.945-0.766,1.711-1.711,1.711c-0.945,0-1.711-0.766-1.711-1.711
			C119.697,151.965,120.463,151.2,121.408,151.2z M113.589,134.823c1.146-0.969,2.825-0.971,3.973-0.003l9.252,7.8
			c0.694,0.585,1.095,1.447,1.095,2.354V157.7c0,1.323-1.072,2.395-2.395,2.395H105.67c-1.323,0-2.395-1.072-2.395-2.395v-12.728
			c0-0.906,0.399-1.766,1.091-2.352L113.589,134.823z M116.239,136.39c-0.383-0.323-0.942-0.322-1.324,0.001l-9.224,7.798
			c-0.231,0.195-0.364,0.482-0.364,0.784V157.7c0,0.189,0.153,0.342,0.342,0.342h19.844c0.189,0,0.342-0.153,0.342-0.342v-12.726
			c0-0.303-0.134-0.59-0.365-0.785L116.239,136.39z"/>
		<path fill="#212121" d="M163.767,145.725c0.945,0,1.711,0.766,1.711,1.711c0,0.945-0.766,1.711-1.711,1.711
			s-1.711-0.766-1.711-1.711C162.056,146.491,162.822,145.725,163.767,145.725z M169.583,145.725c0.945,0,1.711,0.766,1.711,1.711
			c0,0.945-0.766,1.711-1.711,1.711c-0.945,0-1.711-0.766-1.711-1.711C167.873,146.491,168.639,145.725,169.583,145.725z
			 M177.111,147.436c0-0.945-0.766-1.711-1.711-1.711c-0.945,0-1.711,0.766-1.711,1.711c0,0.945,0.766,1.711,1.711,1.711
			C176.345,149.147,177.111,148.381,177.111,147.436z M165.478,152.91c0-0.945-0.766-1.711-1.711-1.711s-1.711,0.766-1.711,1.711
			c0,0.945,0.766,1.711,1.711,1.711S165.478,153.855,165.478,152.91z M171.294,152.91c0-0.945-0.766-1.711-1.711-1.711
			c-0.945,0-1.711,0.766-1.711,1.711c0,0.945,0.766,1.711,1.711,1.711C170.528,154.621,171.294,153.855,171.294,152.91z
			 M175.4,151.2c0.945,0,1.711,0.766,1.711,1.711c0,0.945-0.766,1.711-1.711,1.711c-0.945,0-1.711-0.766-1.711-1.711
			C173.689,151.965,174.455,151.2,175.4,151.2z M167.581,134.823c1.146-0.969,2.825-0.971,3.973-0.003l9.252,7.8
			c0.694,0.585,1.095,1.447,1.095,2.354V157.7c0,1.323-1.072,2.395-2.395,2.395h-19.844c-1.323,0-2.395-1.072-2.395-2.395v-12.728
			c0-0.906,0.399-1.766,1.091-2.352L167.581,134.823z M170.231,136.39c-0.383-0.323-0.942-0.322-1.324,0.001l-9.224,7.798
			c-0.231,0.195-0.364,0.482-0.364,0.784V157.7c0,0.189,0.153,0.342,0.342,0.342h19.844c0.189,0,0.342-0.153,0.342-0.342v-12.726
			c0-0.303-0.134-0.59-0.365-0.785L170.231,136.39z"/>
	</g>
</g>
<g id="Text">
	<g>
		<path fill="#2F2F2F" d="M59.65,40.395h-3.459v2.406h3.179v1.791h-3.179V48.4h-2.208v-9.803h5.667V40.395z"/>
		<path fill="#2F2F2F" d="M62.005,40.293c-0.365,0-0.663-0.108-0.896-0.324c-0.232-0.217-0.349-0.482-0.349-0.797
			c0-0.323,0.116-0.588,0.349-0.793s0.531-0.308,0.896-0.308c0.369,0,0.669,0.103,0.899,0.308s0.345,0.47,0.345,0.793
			c0,0.328-0.115,0.597-0.345,0.807S62.375,40.293,62.005,40.293z M63.072,48.4h-2.16v-7h2.16V48.4z"/>
		<path fill="#2F2F2F" d="M71.615,48.4h-2.153v-3.89c0-1.085-0.387-1.627-1.162-1.627c-0.374,0-0.681,0.144-0.923,0.431
			s-0.362,0.651-0.362,1.094V48.4h-2.16v-7h2.16v1.107h0.027c0.515-0.853,1.265-1.278,2.249-1.278c1.549,0,2.324,0.962,2.324,2.885
			V48.4z"/>
		<path fill="#2F2F2F" d="M79.18,48.4h-2.044v-1.005h-0.027c-0.469,0.784-1.165,1.176-2.085,1.176c-0.679,0-1.213-0.192-1.603-0.577
			c-0.39-0.386-0.584-0.899-0.584-1.542c0-1.358,0.804-2.142,2.413-2.352l1.9-0.253c0-0.766-0.415-1.148-1.244-1.148
			c-0.834,0-1.627,0.248-2.379,0.745v-1.627c0.301-0.155,0.712-0.292,1.234-0.41s0.997-0.178,1.425-0.178
			c1.996,0,2.994,0.996,2.994,2.987V48.4z M77.15,45.556v-0.472l-1.271,0.164c-0.702,0.091-1.053,0.408-1.053,0.95
			c0,0.246,0.085,0.447,0.256,0.605c0.171,0.156,0.402,0.235,0.694,0.235c0.406,0,0.736-0.14,0.991-0.421
			C77.022,46.34,77.15,45.985,77.15,45.556z"/>
		<path fill="#2F2F2F" d="M87.637,48.4h-2.153v-3.89c0-1.085-0.387-1.627-1.162-1.627c-0.374,0-0.681,0.144-0.923,0.431
			s-0.362,0.651-0.362,1.094V48.4h-2.16v-7h2.16v1.107h0.027c0.515-0.853,1.265-1.278,2.249-1.278c1.549,0,2.324,0.962,2.324,2.885
			V48.4z"/>
		<path fill="#2F2F2F" d="M94.651,48.147c-0.488,0.282-1.192,0.424-2.112,0.424c-1.076,0-1.946-0.326-2.611-0.978
			s-0.998-1.492-0.998-2.522c0-1.189,0.356-2.127,1.07-2.813c0.713-0.686,1.667-1.028,2.861-1.028c0.825,0,1.422,0.109,1.791,0.328
			v1.832c-0.451-0.337-0.955-0.506-1.511-0.506c-0.62,0-1.111,0.181-1.473,0.544c-0.362,0.361-0.543,0.862-0.543,1.5
			c0,0.62,0.173,1.106,0.52,1.459c0.346,0.354,0.823,0.53,1.429,0.53c0.538,0,1.064-0.169,1.579-0.506V48.147z"/>
		<path fill="#2F2F2F" d="M102.366,45.515H97.8c0.073,1.017,0.713,1.524,1.921,1.524c0.77,0,1.447-0.183,2.03-0.547v1.559
			c-0.647,0.347-1.488,0.52-2.522,0.52c-1.13,0-2.007-0.313-2.632-0.94c-0.625-0.626-0.937-1.5-0.937-2.621
			c0-1.162,0.337-2.083,1.012-2.762s1.504-1.019,2.488-1.019c1.021,0,1.811,0.303,2.369,0.909s0.837,1.429,0.837,2.468V45.515z
			 M100.363,44.189c0-1.003-0.406-1.504-1.217-1.504c-0.346,0-0.646,0.144-0.899,0.431s-0.407,0.645-0.461,1.073H100.363z"/>
		<path fill="#2F2F2F" d="M117.651,41.4l-2.017,7h-2.27l-1.032-4.102c-0.068-0.273-0.107-0.572-0.116-0.896h-0.041
			c-0.032,0.355-0.078,0.645-0.137,0.868l-1.107,4.129h-2.242l-1.976-7h2.201l0.964,4.566c0.045,0.214,0.08,0.474,0.103,0.779h0.041
			c0.023-0.319,0.064-0.588,0.123-0.807l1.203-4.539h2.058l1.08,4.566c0.027,0.114,0.059,0.378,0.096,0.793h0.048
			c0.023-0.265,0.059-0.528,0.109-0.793l0.909-4.566H117.651z"/>
		<path fill="#2F2F2F" d="M121.845,48.571c-1.167,0-2.084-0.327-2.751-0.981c-0.667-0.653-1.001-1.541-1.001-2.662
			c0-1.157,0.346-2.063,1.039-2.717c0.693-0.654,1.629-0.981,2.81-0.981c1.162,0,2.074,0.327,2.734,0.981
			c0.661,0.653,0.991,1.519,0.991,2.594c0,1.162-0.341,2.08-1.022,2.755S123.03,48.571,121.845,48.571z M121.899,42.883
			c-0.51,0-0.907,0.176-1.189,0.526s-0.424,0.848-0.424,1.49c0,1.345,0.542,2.017,1.627,2.017c1.035,0,1.552-0.69,1.552-2.071
			C123.465,43.538,122.943,42.883,121.899,42.883z"/>
		<path fill="#2F2F2F" d="M131.613,43.348c-0.26-0.142-0.563-0.212-0.909-0.212c-0.469,0-0.836,0.172-1.101,0.516
			c-0.264,0.345-0.396,0.812-0.396,1.405V48.4h-2.16v-7h2.16v1.299h0.027c0.342-0.948,0.957-1.422,1.846-1.422
			c0.228,0,0.406,0.027,0.533,0.082V43.348z"/>
		<path fill="#2F2F2F" d="M139.617,48.4h-2.591l-2.235-3.473h-0.027V48.4h-2.16V38.037h2.16v6.597h0.027l2.085-3.233h2.563
			l-2.509,3.288L139.617,48.4z"/>
		<path fill="#2F2F2F" d="M140.275,48.216v-1.75c0.355,0.214,0.71,0.374,1.063,0.479s0.687,0.157,1.001,0.157
			c0.383,0,0.685-0.053,0.906-0.157s0.332-0.265,0.332-0.479c0-0.137-0.05-0.251-0.15-0.342s-0.229-0.171-0.386-0.239
			s-0.329-0.13-0.516-0.185s-0.367-0.116-0.54-0.185c-0.278-0.104-0.523-0.218-0.735-0.338c-0.212-0.121-0.39-0.262-0.533-0.421
			s-0.253-0.344-0.328-0.554s-0.113-0.458-0.113-0.745c0-0.392,0.085-0.729,0.256-1.012s0.399-0.514,0.684-0.694
			c0.285-0.18,0.611-0.312,0.978-0.396c0.367-0.084,0.749-0.126,1.145-0.126c0.31,0,0.625,0.024,0.943,0.071
			c0.319,0.049,0.633,0.118,0.943,0.209v1.668c-0.273-0.159-0.566-0.279-0.878-0.359c-0.312-0.079-0.619-0.119-0.919-0.119
			c-0.141,0-0.274,0.013-0.4,0.037c-0.125,0.025-0.236,0.062-0.332,0.109c-0.096,0.049-0.171,0.109-0.226,0.186
			c-0.055,0.074-0.082,0.16-0.082,0.256c0,0.128,0.041,0.237,0.123,0.328s0.189,0.17,0.321,0.236
			c0.132,0.065,0.279,0.125,0.441,0.178c0.162,0.052,0.322,0.105,0.482,0.16c0.287,0.101,0.547,0.21,0.779,0.328
			s0.432,0.258,0.598,0.417s0.294,0.347,0.383,0.561s0.133,0.47,0.133,0.766c0,0.415-0.09,0.769-0.27,1.063
			c-0.18,0.293-0.419,0.533-0.718,0.717c-0.298,0.186-0.643,0.319-1.032,0.404c-0.39,0.084-0.794,0.126-1.213,0.126
			C141.645,48.571,140.931,48.453,140.275,48.216z"/>
		<path fill="#2F2F2F" d="M149.139,47.587h-0.027v4.033h-2.16V41.4h2.16v1.053h0.027c0.533-0.815,1.283-1.224,2.249-1.224
			c0.907,0,1.607,0.312,2.102,0.933c0.495,0.623,0.742,1.469,0.742,2.54c0,1.167-0.288,2.104-0.865,2.81s-1.343,1.06-2.3,1.06
			C150.223,48.571,149.581,48.243,149.139,47.587z M149.077,44.716v0.561c0,0.483,0.127,0.877,0.383,1.183s0.59,0.458,1.005,0.458
			c0.492,0,0.874-0.19,1.145-0.571c0.271-0.38,0.407-0.919,0.407-1.616c0-1.23-0.479-1.846-1.436-1.846
			c-0.442,0-0.803,0.167-1.083,0.503C149.217,43.72,149.077,44.164,149.077,44.716z"/>
		<path fill="#2F2F2F" d="M161.464,48.4h-2.044v-1.005h-0.027c-0.469,0.784-1.165,1.176-2.085,1.176
			c-0.679,0-1.213-0.192-1.603-0.577c-0.39-0.386-0.584-0.899-0.584-1.542c0-1.358,0.804-2.142,2.413-2.352l1.9-0.253
			c0-0.766-0.415-1.148-1.244-1.148c-0.834,0-1.627,0.248-2.379,0.745v-1.627c0.301-0.155,0.712-0.292,1.234-0.41
			s0.997-0.178,1.425-0.178c1.996,0,2.994,0.996,2.994,2.987V48.4z M159.434,45.556v-0.472l-1.271,0.164
			c-0.702,0.091-1.053,0.408-1.053,0.95c0,0.246,0.085,0.447,0.256,0.605c0.171,0.156,0.402,0.235,0.694,0.235
			c0.406,0,0.736-0.14,0.991-0.421C159.306,46.34,159.434,45.985,159.434,45.556z"/>
		<path fill="#2F2F2F" d="M168.478,48.147c-0.488,0.282-1.192,0.424-2.112,0.424c-1.076,0-1.946-0.326-2.611-0.978
			s-0.998-1.492-0.998-2.522c0-1.189,0.356-2.127,1.07-2.813c0.713-0.686,1.667-1.028,2.861-1.028c0.825,0,1.422,0.109,1.791,0.328
			v1.832c-0.451-0.337-0.955-0.506-1.511-0.506c-0.62,0-1.111,0.181-1.473,0.544c-0.362,0.361-0.543,0.862-0.543,1.5
			c0,0.62,0.173,1.106,0.52,1.459c0.346,0.354,0.823,0.53,1.429,0.53c0.538,0,1.064-0.169,1.579-0.506V48.147z"/>
		<path fill="#2F2F2F" d="M176.193,45.515h-4.566c0.073,1.017,0.713,1.524,1.921,1.524c0.77,0,1.447-0.183,2.03-0.547v1.559
			c-0.647,0.347-1.488,0.52-2.522,0.52c-1.13,0-2.007-0.313-2.632-0.94c-0.625-0.626-0.937-1.5-0.937-2.621
			c0-1.162,0.337-2.083,1.012-2.762s1.504-1.019,2.488-1.019c1.021,0,1.811,0.303,2.369,0.909s0.837,1.429,0.837,2.468V45.515z
			 M174.19,44.189c0-1.003-0.406-1.504-1.217-1.504c-0.346,0-0.646,0.144-0.899,0.431s-0.407,0.645-0.461,1.073H174.19z"/>
	</g>
	<g>
		<path fill="#2F2F2F" d="M339.625,48.4h-2.181v-5.865c0-0.634,0.027-1.333,0.082-2.099h-0.055
			c-0.114,0.602-0.216,1.034-0.308,1.299l-2.297,6.665h-1.805l-2.338-6.597c-0.064-0.178-0.167-0.634-0.308-1.367h-0.062
			c0.059,0.966,0.089,1.813,0.089,2.543V48.4h-1.989v-9.803h3.233l2.003,5.811c0.16,0.465,0.276,0.932,0.349,1.401h0.041
			c0.123-0.542,0.253-1.014,0.39-1.415l2.003-5.797h3.151V48.4z"/>
		<path fill="#2F2F2F" d="M347.444,48.4H345.4v-1.005h-0.027c-0.469,0.784-1.165,1.176-2.085,1.176
			c-0.679,0-1.213-0.192-1.603-0.577c-0.39-0.386-0.584-0.899-0.584-1.542c0-1.358,0.804-2.142,2.413-2.352l1.9-0.253
			c0-0.766-0.415-1.148-1.244-1.148c-0.834,0-1.627,0.248-2.379,0.745v-1.627c0.301-0.155,0.712-0.292,1.234-0.41
			s0.997-0.178,1.425-0.178c1.996,0,2.994,0.996,2.994,2.987V48.4z M345.414,45.556v-0.472l-1.271,0.164
			c-0.702,0.091-1.053,0.408-1.053,0.95c0,0.246,0.085,0.447,0.256,0.605c0.171,0.156,0.402,0.235,0.694,0.235
			c0.406,0,0.736-0.14,0.991-0.421C345.287,46.34,345.414,45.985,345.414,45.556z"/>
		<path fill="#2F2F2F" d="M353.707,43.348c-0.26-0.142-0.563-0.212-0.909-0.212c-0.469,0-0.836,0.172-1.101,0.516
			c-0.264,0.345-0.396,0.812-0.396,1.405V48.4h-2.16v-7h2.16v1.299h0.027c0.342-0.948,0.957-1.422,1.846-1.422
			c0.228,0,0.406,0.027,0.533,0.082V43.348z"/>
		<path fill="#2F2F2F" d="M361.713,48.4h-2.591l-2.235-3.473h-0.027V48.4h-2.16V38.037h2.16v6.597h0.027l2.085-3.233h2.563
			l-2.509,3.288L361.713,48.4z"/>
		<path fill="#2F2F2F" d="M368.607,45.515h-4.566c0.073,1.017,0.713,1.524,1.921,1.524c0.77,0,1.447-0.183,2.03-0.547v1.559
			c-0.647,0.347-1.488,0.52-2.522,0.52c-1.13,0-2.007-0.313-2.632-0.94c-0.625-0.626-0.937-1.5-0.937-2.621
			c0-1.162,0.337-2.083,1.012-2.762s1.504-1.019,2.488-1.019c1.021,0,1.811,0.303,2.369,0.909s0.837,1.429,0.837,2.468V45.515z
			 M366.604,44.189c0-1.003-0.406-1.504-1.217-1.504c-0.346,0-0.646,0.144-0.899,0.431s-0.407,0.645-0.461,1.073H366.604z"/>
		<path fill="#2F2F2F" d="M374.173,48.318c-0.319,0.169-0.8,0.253-1.442,0.253c-1.522,0-2.283-0.791-2.283-2.372v-3.206h-1.135V41.4
			h1.135v-1.511l2.153-0.615V41.4h1.572v1.593h-1.572v2.83c0,0.729,0.29,1.094,0.868,1.094c0.228,0,0.462-0.066,0.704-0.198V48.318z
			"/>
		<path fill="#2F2F2F" d="M376.55,40.293c-0.365,0-0.663-0.108-0.896-0.324c-0.232-0.217-0.349-0.482-0.349-0.797
			c0-0.323,0.116-0.588,0.349-0.793s0.531-0.308,0.896-0.308c0.369,0,0.669,0.103,0.899,0.308s0.345,0.47,0.345,0.793
			c0,0.328-0.115,0.597-0.345,0.807S376.919,40.293,376.55,40.293z M377.617,48.4h-2.16v-7h2.16V48.4z"/>
		<path fill="#2F2F2F" d="M386.16,48.4h-2.153v-3.89c0-1.085-0.387-1.627-1.162-1.627c-0.374,0-0.681,0.144-0.923,0.431
			s-0.362,0.651-0.362,1.094V48.4h-2.16v-7h2.16v1.107h0.027c0.515-0.853,1.265-1.278,2.249-1.278c1.549,0,2.324,0.962,2.324,2.885
			V48.4z"/>
		<path fill="#2F2F2F" d="M394.778,47.6c0,1.299-0.376,2.305-1.128,3.019c-0.752,0.713-1.841,1.069-3.268,1.069
			c-0.943,0-1.691-0.135-2.242-0.403v-1.818c0.72,0.419,1.447,0.629,2.181,0.629c0.729,0,1.294-0.192,1.695-0.578
			c0.401-0.385,0.602-0.907,0.602-1.568v-0.554h-0.027c-0.492,0.784-1.219,1.176-2.181,1.176c-0.893,0-1.602-0.314-2.126-0.943
			s-0.786-1.472-0.786-2.529c0-1.185,0.292-2.126,0.875-2.823s1.351-1.046,2.304-1.046c0.852,0,1.49,0.328,1.914,0.984h0.027V41.4
			h2.16V47.6z M392.645,45.037v-0.554c0-0.442-0.131-0.819-0.393-1.132c-0.262-0.312-0.603-0.468-1.022-0.468
			c-0.479,0-0.854,0.187-1.128,0.561s-0.41,0.9-0.41,1.579c0,0.583,0.13,1.045,0.39,1.385c0.26,0.339,0.615,0.509,1.066,0.509
			c0.447,0,0.808-0.172,1.083-0.517C392.507,46.056,392.645,45.602,392.645,45.037z"/>
		<path fill="#2F2F2F" d="M410.583,41.4l-2.017,7h-2.27l-1.032-4.102c-0.068-0.273-0.107-0.572-0.116-0.896h-0.041
			c-0.032,0.355-0.078,0.645-0.137,0.868l-1.107,4.129h-2.242l-1.976-7h2.201l0.964,4.566c0.045,0.214,0.08,0.474,0.103,0.779h0.041
			c0.023-0.319,0.064-0.588,0.123-0.807l1.203-4.539h2.058l1.08,4.566c0.027,0.114,0.059,0.378,0.096,0.793h0.048
			c0.023-0.265,0.059-0.528,0.109-0.793l0.909-4.566H410.583z"/>
		<path fill="#2F2F2F" d="M414.776,48.571c-1.167,0-2.084-0.327-2.751-0.981c-0.667-0.653-1.001-1.541-1.001-2.662
			c0-1.157,0.346-2.063,1.039-2.717c0.693-0.654,1.629-0.981,2.81-0.981c1.162,0,2.074,0.327,2.734,0.981
			c0.661,0.653,0.991,1.519,0.991,2.594c0,1.162-0.341,2.08-1.022,2.755S415.961,48.571,414.776,48.571z M414.831,42.883
			c-0.51,0-0.907,0.176-1.189,0.526s-0.424,0.848-0.424,1.49c0,1.345,0.542,2.017,1.627,2.017c1.035,0,1.552-0.69,1.552-2.071
			C416.396,43.538,415.874,42.883,414.831,42.883z"/>
		<path fill="#2F2F2F" d="M424.544,43.348c-0.26-0.142-0.563-0.212-0.909-0.212c-0.469,0-0.836,0.172-1.101,0.516
			c-0.264,0.345-0.396,0.812-0.396,1.405V48.4h-2.16v-7h2.16v1.299h0.027c0.342-0.948,0.957-1.422,1.846-1.422
			c0.228,0,0.406,0.027,0.533,0.082V43.348z"/>
		<path fill="#2F2F2F" d="M432.548,48.4h-2.591l-2.235-3.473h-0.027V48.4h-2.16V38.037h2.16v6.597h0.027l2.085-3.233h2.563
			l-2.509,3.288L432.548,48.4z"/>
		<path fill="#2F2F2F" d="M433.207,48.216v-1.75c0.355,0.214,0.71,0.374,1.063,0.479s0.687,0.157,1.001,0.157
			c0.383,0,0.685-0.053,0.906-0.157s0.332-0.265,0.332-0.479c0-0.137-0.05-0.251-0.15-0.342s-0.229-0.171-0.386-0.239
			s-0.329-0.13-0.516-0.185s-0.367-0.116-0.54-0.185c-0.278-0.104-0.523-0.218-0.735-0.338c-0.212-0.121-0.39-0.262-0.533-0.421
			s-0.253-0.344-0.328-0.554s-0.113-0.458-0.113-0.745c0-0.392,0.085-0.729,0.256-1.012s0.399-0.514,0.684-0.694
			c0.285-0.18,0.611-0.312,0.978-0.396c0.367-0.084,0.749-0.126,1.145-0.126c0.31,0,0.625,0.024,0.943,0.071
			c0.319,0.049,0.633,0.118,0.943,0.209v1.668c-0.273-0.159-0.566-0.279-0.878-0.359c-0.312-0.079-0.619-0.119-0.919-0.119
			c-0.141,0-0.274,0.013-0.4,0.037c-0.125,0.025-0.236,0.062-0.332,0.109c-0.096,0.049-0.171,0.109-0.226,0.186
			c-0.055,0.074-0.082,0.16-0.082,0.256c0,0.128,0.041,0.237,0.123,0.328s0.189,0.17,0.321,0.236
			c0.132,0.065,0.279,0.125,0.441,0.178c0.162,0.052,0.322,0.105,0.482,0.16c0.287,0.101,0.547,0.21,0.779,0.328
			s0.432,0.258,0.598,0.417s0.294,0.347,0.383,0.561s0.133,0.47,0.133,0.766c0,0.415-0.09,0.769-0.27,1.063
			c-0.18,0.293-0.419,0.533-0.718,0.717c-0.298,0.186-0.643,0.319-1.032,0.404c-0.39,0.084-0.794,0.126-1.213,0.126
			C434.576,48.571,433.863,48.453,433.207,48.216z"/>
		<path fill="#2F2F2F" d="M442.07,47.587h-0.027v4.033h-2.16V41.4h2.16v1.053h0.027c0.533-0.815,1.283-1.224,2.249-1.224
			c0.907,0,1.607,0.312,2.102,0.933c0.495,0.623,0.742,1.469,0.742,2.54c0,1.167-0.288,2.104-0.865,2.81s-1.343,1.06-2.3,1.06
			C443.154,48.571,442.512,48.243,442.07,47.587z M442.008,44.716v0.561c0,0.483,0.127,0.877,0.383,1.183s0.59,0.458,1.005,0.458
			c0.492,0,0.874-0.19,1.145-0.571c0.271-0.38,0.407-0.919,0.407-1.616c0-1.23-0.479-1.846-1.436-1.846
			c-0.442,0-0.803,0.167-1.083,0.503C442.148,43.72,442.008,44.164,442.008,44.716z"/>
		<path fill="#2F2F2F" d="M454.396,48.4h-2.044v-1.005h-0.027c-0.469,0.784-1.165,1.176-2.085,1.176
			c-0.679,0-1.213-0.192-1.603-0.577c-0.39-0.386-0.584-0.899-0.584-1.542c0-1.358,0.804-2.142,2.413-2.352l1.9-0.253
			c0-0.766-0.415-1.148-1.244-1.148c-0.834,0-1.627,0.248-2.379,0.745v-1.627c0.301-0.155,0.712-0.292,1.234-0.41
			s0.997-0.178,1.425-0.178c1.996,0,2.994,0.996,2.994,2.987V48.4z M452.365,45.556v-0.472l-1.271,0.164
			c-0.702,0.091-1.053,0.408-1.053,0.95c0,0.246,0.085,0.447,0.256,0.605c0.171,0.156,0.402,0.235,0.694,0.235
			c0.406,0,0.736-0.14,0.991-0.421C452.238,46.34,452.365,45.985,452.365,45.556z"/>
		<path fill="#2F2F2F" d="M461.409,48.147c-0.488,0.282-1.192,0.424-2.112,0.424c-1.076,0-1.946-0.326-2.611-0.978
			s-0.998-1.492-0.998-2.522c0-1.189,0.356-2.127,1.07-2.813c0.713-0.686,1.667-1.028,2.861-1.028c0.825,0,1.422,0.109,1.791,0.328
			v1.832c-0.451-0.337-0.955-0.506-1.511-0.506c-0.62,0-1.111,0.181-1.473,0.544c-0.362,0.361-0.543,0.862-0.543,1.5
			c0,0.62,0.173,1.106,0.52,1.459c0.346,0.354,0.823,0.53,1.429,0.53c0.538,0,1.064-0.169,1.579-0.506V48.147z"/>
		<path fill="#2F2F2F" d="M469.124,45.515h-4.566c0.073,1.017,0.713,1.524,1.921,1.524c0.77,0,1.447-0.183,2.03-0.547v1.559
			c-0.647,0.347-1.488,0.52-2.522,0.52c-1.13,0-2.007-0.313-2.632-0.94c-0.625-0.626-0.937-1.5-0.937-2.621
			c0-1.162,0.337-2.083,1.012-2.762s1.504-1.019,2.488-1.019c1.021,0,1.811,0.303,2.369,0.909s0.837,1.429,0.837,2.468V45.515z
			 M467.121,44.189c0-1.003-0.406-1.504-1.217-1.504c-0.346,0-0.646,0.144-0.899,0.431s-0.407,0.645-0.461,1.073H467.121z"/>
	</g>
</g>
<g id="Layer_1">
</g>
</svg>
