<?xml version="1.0" encoding="UTF-8" standalone="no"?>
<!DOCTYPE svg PUBLIC "-//W3C//DTD SVG 1.1//EN" "http://www.w3.org/Graphics/SVG/1.1/DTD/svg11.dtd">
<!-- 由 Microsoft Visio, SVG Export 生成 warehouse1.svg sql-engine-diagram -->
<svg xmlns="http://www.w3.org/2000/svg" xmlns:xlink="http://www.w3.org/1999/xlink" xmlns:ev="http://www.w3.org/2001/xml-events"
		xmlns:v="http://schemas.microsoft.com/visio/2003/SVGExtensions/" width="8.5in" height="7.5in" viewBox="0 0 612 540"
		xml:space="preserve" color-interpolation-filters="sRGB" class="st30">
	<v:documentProperties v:langID="1033" v:viewMarkup="false"/>

	<style type="text/css">
	<![CDATA[
		.st1 {fill:#ffffff;stroke:none;stroke-linecap:round;stroke-linejoin:round;stroke-width:0.75}
		.st2 {fill:#83b9f9;fill-opacity:0.25;stroke:none;stroke-linecap:round;stroke-linejoin:round;stroke-width:0.75}
		.st3 {stroke:#3c3c41;stroke-linecap:butt;stroke-width:1.51186}
		.st4 {fill:#3c3c41;stroke:none;stroke-linecap:butt;stroke-width:1.51186}
		.st5 {fill:#ffffff;stroke:#0078d4;stroke-linecap:round;stroke-linejoin:round;stroke-width:1}
		.st6 {fill:#0078d4;stroke:none;stroke-linecap:round;stroke-linejoin:round;stroke-width:0.75}
		.st7 {fill:#37c2b1;fill-opacity:0.15;stroke:none;stroke-linecap:butt;stroke-width:1.51186}
		.st8 {fill:#ffffff;stroke:none;stroke-linecap:butt;stroke-width:1.51186}
		.st9 {fill:url(#grad0-108);stroke:none;stroke-linecap:butt;stroke-width:1.51186}
		.st10 {fill:#0078d4;stroke:none;stroke-linecap:butt;stroke-width:1.51186}
		.st11 {fill:#5ea0ef;stroke:none;stroke-linecap:butt;stroke-width:1.51186}
		.st12 {fill:#000000;stroke:none;stroke-linecap:butt;stroke-width:1.51186}
		.st13 {fill:none;stroke:none;stroke-linecap:round;stroke-linejoin:round;stroke-width:0.75}
		.st14 {fill:#000000;font-family:Segoe UI;font-size:1.5em;font-weight:bold}
		.st15 {fill:#000000;fill-opacity:0.23;stroke:none;stroke-linecap:butt;stroke-width:1.51186}
		.st16 {fill:#000000;fill-opacity:0.02;stroke:none;stroke-linecap:butt;stroke-width:1.51186}
		.st17 {fill:#83b9f9;fill-opacity:0.078;stroke:none;stroke-linecap:butt;stroke-width:1.51186}
		.st18 {fill:#000000;fill-opacity:0.16;stroke:none;stroke-linecap:butt;stroke-width:1.51186}
		.st19 {fill:#b3b3b3;fill-opacity:0.7;stroke:none;stroke-linecap:butt;stroke-width:1.51186}
		.st20 {fill:#000000;font-family:Segoe UI;font-size:1.16666em}
		.st21 {fill:url(#grad0-283);stroke:none;stroke-linecap:butt;stroke-width:1.51186}
		.st22 {fill:#000000;font-family:Segoe UI;font-size:1.00001em}
		.st23 {stroke:#000000;stroke-linecap:round;stroke-linejoin:round;stroke-width:1}
		.st24 {fill:url(#grad0-432);stroke:none;stroke-linecap:butt;stroke-width:1.51186}
		.st25 {fill:#e8e8e8;stroke:none;stroke-linecap:butt;stroke-width:1.51186}
		.st26 {fill:#50e6ff;stroke:none;stroke-linecap:butt;stroke-width:1.51186}
		.st27 {fill:#198ab3;stroke:none;stroke-linecap:butt;stroke-width:1.51186}
		.st28 {fill:url(#grad1-442);stroke:none;stroke-linecap:butt;stroke-width:1.51186}
		.st29 {font-size:1em}
		.st30 {fill:none;fill-rule:evenodd;font-size:12px;overflow:visible;stroke-linecap:square;stroke-miterlimit:3}
	]]>
	</style>

	<defs id="Patterns_And_Gradients">
		<linearGradient id="grad0-108" x1="0" y1="0" x2="1" y2="0" gradientTransform="rotate(-90 0.5 0.5)">
			<stop offset="0" stop-color="#0078d4" stop-opacity="1"/>
			<stop offset="0.815" stop-color="#5ea0ef" stop-opacity="1"/>
		</linearGradient>
		<linearGradient id="grad0-283" x1="0" y1="0" x2="1" y2="0" gradientTransform="rotate(-90 0.5 0.5)">
			<stop offset="0" stop-color="#32bedd" stop-opacity="1"/>
			<stop offset="0.575" stop-color="#32ceef" stop-opacity="1"/>
			<stop offset="1" stop-color="#32d4f5" stop-opacity="1"/>
		</linearGradient>
		<linearGradient id="grad0-432" x1="0" y1="0" x2="1" y2="0" gradientTransform="rotate(0 0.5 0.5)">
			<stop offset="0" stop-color="#005ba1" stop-opacity="1"/>
			<stop offset="0.07" stop-color="#0060a9" stop-opacity="1"/>
			<stop offset="0.36" stop-color="#0071c8" stop-opacity="1"/>
			<stop offset="0.52" stop-color="#0078d4" stop-opacity="1"/>
			<stop offset="0.64" stop-color="#0074cd" stop-opacity="1"/>
			<stop offset="0.82" stop-color="#006abb" stop-opacity="1"/>
			<stop offset="1" stop-color="#005ba1" stop-opacity="1"/>
		</linearGradient>
		<radialGradient id="grad1-442" cx="1" cy="1" r="1.4">
			<stop offset="0" stop-color="#f2f2f2" stop-opacity="1"/>
			<stop offset="0.58" stop-color="#eeeeee" stop-opacity="1"/>
			<stop offset="1" stop-color="#e6e6e6" stop-opacity="1"/>
		</radialGradient>
	</defs>
	<g v:mID="0" v:index="1" v:groupContext="foregroundPage">
		<title>sql-engine-diagram</title>
		<v:pageProperties v:drawingScale="0.0138889" v:pageScale="0.0138889" v:drawingUnits="29" v:shadowOffsetX="9"
				v:shadowOffsetY="-9"/>
		<g id="shape828-1" v:mID="828" v:groupContext="shape" transform="translate(2.46787E-05,1.13687E-13)">
			<title>工作表.828</title>
			<rect x="0" y="9.18353E-06" width="612" height="540" class="st1"/>
		</g>
		<g id="shape244-3" v:mID="244" v:groupContext="shape" transform="translate(31.5,-130.769)">
			<title>工作表.244</title>
			<rect x="0" y="180" width="549" height="360" class="st2"/>
		</g>
		<g id="group421-5" transform="translate(198.762,-265.769)" v:mID="421" v:groupContext="group">
			<title>工作表.421</title>
			<g id="group425-6" transform="translate(-5.11591E-13,-1.51186)" v:mID="425" v:groupContext="group">
				<title>工作表.425</title>
			</g>
		</g>
		<g id="group718-7" transform="translate(199.75,-99.4649)" v:mID="718" v:groupContext="group">
			<title>工作表.718</title>
			<g id="group659-8" transform="translate(98.6913,-66.3044)" v:mID="659" v:groupContext="group">
				<title>工作表.659</title>
				<g id="shape660-9" v:mID="660" v:groupContext="shape" transform="translate(-534.346,536.615) rotate(-90)">
					<title>工作表.660</title>
					<path d="M0 540 L15.09 540" class="st3"/>
				</g>
				<g id="shape661-12" v:mID="661" v:groupContext="shape" transform="translate(-6.4948E-14,-16.8179)">
					<title>工作表.661</title>
					<path d="M11.31 540 L5.65 530.21 L0 540 L11.31 540 Z" class="st4"/>
				</g>
			</g>
			<g id="group662-14" transform="translate(98.6913,-10.5109)" v:mID="662" v:groupContext="group">
				<title>工作表.662</title>
				<g id="shape663-15" v:mID="663" v:groupContext="shape" transform="translate(-534.346,540) rotate(-90)">
					<title>工作表.663</title>
					<path d="M0 540 L18.47 540" class="st3"/>
				</g>
				<g id="shape664-18" v:mID="664" v:groupContext="shape" transform="translate(-6.4948E-14,-16.8179)">
					<title>工作表.664</title>
					<path d="M11.31 540 L5.65 530.21 L0 540 L11.31 540 Z" class="st4"/>
				</g>
			</g>
			<g id="group691-20" transform="translate(1.59872E-14,-45.5109)" v:mID="691" v:groupContext="group">
				<title>工作表.691</title>
				<g id="group676-21" transform="translate(0,-17.875)" v:mID="676" v:groupContext="group">
					<title>工作表.676</title>
					<g id="shape667-22" v:mID="667" v:groupContext="shape" transform="translate(38.3333,-0.249991)">
						<title>工作表.667</title>
						<rect x="0" y="535.5" width="18" height="4.49998" class="st5"/>
					</g>
					<g id="shape668-24" v:mID="668" v:groupContext="shape" transform="translate(58.6667,-0.249991)">
						<title>工作表.668</title>
						<rect x="0" y="535.5" width="18" height="4.49998" class="st5"/>
					</g>
					<g id="shape669-26" v:mID="669" v:groupContext="shape" transform="translate(79,-0.249991)">
						<title>工作表.669</title>
						<rect x="0" y="535.5" width="18" height="4.49998" class="st5"/>
					</g>
					<g id="group675-28" v:mID="675" v:groupContext="group">
						<title>工作表.675</title>
						<g id="shape665-29" v:mID="665" v:groupContext="shape">
							<title>工作表.665</title>
							<rect x="0" y="535.5" width="18" height="4.49998" class="st5"/>
						</g>
						<g id="shape666-31" v:mID="666" v:groupContext="shape" transform="translate(18,0)">
							<title>工作表.666</title>
							<rect x="0" y="535.5" width="18" height="4.49998" class="st5"/>
						</g>
					</g>
				</g>
				<g id="group677-33" transform="translate(0,-11.375)" v:mID="677" v:groupContext="group">
					<title>工作表.677</title>
					<g id="shape678-34" v:mID="678" v:groupContext="shape" transform="translate(38.3333,-0.249991)">
						<title>工作表.678</title>
						<rect x="0" y="535.5" width="18" height="4.49998" class="st5"/>
					</g>
					<g id="shape679-36" v:mID="679" v:groupContext="shape" transform="translate(58.6667,-0.249991)">
						<title>工作表.679</title>
						<rect x="0" y="535.5" width="18" height="4.49998" class="st5"/>
					</g>
					<g id="shape680-38" v:mID="680" v:groupContext="shape" transform="translate(79,-0.249991)">
						<title>工作表.680</title>
						<rect x="0" y="535.5" width="18" height="4.49998" class="st5"/>
					</g>
					<g id="group681-40" v:mID="681" v:groupContext="group">
						<title>工作表.681</title>
						<g id="shape682-41" v:mID="682" v:groupContext="shape">
							<title>工作表.682</title>
							<rect x="0" y="535.5" width="18" height="4.49998" class="st5"/>
						</g>
						<g id="shape683-43" v:mID="683" v:groupContext="shape" transform="translate(18,0)">
							<title>工作表.683</title>
							<rect x="0" y="535.5" width="18" height="4.49998" class="st5"/>
						</g>
					</g>
				</g>
				<g id="group684-45" v:mID="684" v:groupContext="group">
					<title>工作表.684</title>
					<g id="shape685-46" v:mID="685" v:groupContext="shape" transform="translate(38.3333,-0.249991)">
						<title>工作表.685</title>
						<rect x="0" y="535.5" width="18" height="4.49998" class="st5"/>
					</g>
					<g id="shape686-48" v:mID="686" v:groupContext="shape" transform="translate(58.6667,-0.249991)">
						<title>工作表.686</title>
						<rect x="0" y="535.5" width="18" height="4.49998" class="st5"/>
					</g>
					<g id="shape687-50" v:mID="687" v:groupContext="shape" transform="translate(79,-0.249991)">
						<title>工作表.687</title>
						<rect x="0" y="535.5" width="18" height="4.49998" class="st5"/>
					</g>
					<g id="group688-52" v:mID="688" v:groupContext="group">
						<title>工作表.688</title>
						<g id="shape689-53" v:mID="689" v:groupContext="shape">
							<title>工作表.689</title>
							<rect x="0" y="535.5" width="18" height="4.49998" class="st5"/>
						</g>
						<g id="shape690-55" v:mID="690" v:groupContext="shape" transform="translate(18,0)">
							<title>工作表.690</title>
							<rect x="0" y="535.5" width="18" height="4.49998" class="st5"/>
						</g>
					</g>
				</g>
			</g>
			<g id="group717-57" transform="translate(107.5,-45.6359)" v:mID="717" v:groupContext="group">
				<title>工作表.717</title>
				<g id="group696-58" transform="translate(2,-18.75)" v:mID="696" v:groupContext="group">
					<title>工作表.696</title>
				</g>
				<g id="group708-59" transform="translate(5.49998,1.13687E-13)" v:mID="708" v:groupContext="group">
					<title>工作表.708</title>
					<g id="shape709-60" v:mID="709" v:groupContext="shape" transform="translate(40.75,0)">
						<title>工作表.709</title>
						<rect x="0" y="535.5" width="18" height="4.49998" class="st5"/>
					</g>
					<g id="shape710-62" v:mID="710" v:groupContext="shape" transform="translate(61.125,0)">
						<title>工作表.710</title>
						<rect x="0" y="535.5" width="18" height="4.49998" class="st5"/>
					</g>
					<g id="shape711-64" v:mID="711" v:groupContext="shape" transform="translate(81.5,0)">
						<title>工作表.711</title>
						<rect x="0" y="535.5" width="18" height="4.49998" class="st5"/>
					</g>
					<g id="shape712-66" v:mID="712" v:groupContext="shape" transform="translate(20.375,0)">
						<title>工作表.712</title>
						<rect x="0" y="535.5" width="18" height="4.49998" class="st5"/>
					</g>
					<g id="shape713-68" v:mID="713" v:groupContext="shape">
						<title>工作表.713</title>
						<rect x="0" y="535.5" width="18" height="4.49998" class="st5"/>
					</g>
				</g>
				<g id="group714-70" transform="translate(5.5,-11.5)" v:mID="714" v:groupContext="group">
					<title>工作表.714</title>
					<g id="group701-71" transform="translate(0,-6.25001)" v:mID="701" v:groupContext="group">
						<title>工作表.701</title>
						<g id="shape693-72" v:mID="693" v:groupContext="shape" transform="translate(40.75,0)">
							<title>工作表.693</title>
							<rect x="0" y="535.5" width="18" height="4.49998" class="st5"/>
						</g>
						<g id="shape694-74" v:mID="694" v:groupContext="shape" transform="translate(61.125,0)">
							<title>工作表.694</title>
							<rect x="0" y="535.5" width="18" height="4.49998" class="st5"/>
						</g>
						<g id="shape695-76" v:mID="695" v:groupContext="shape" transform="translate(81.5,0)">
							<title>工作表.695</title>
							<rect x="0" y="535.5" width="18" height="4.49998" class="st5"/>
						</g>
						<g id="shape699-78" v:mID="699" v:groupContext="shape" transform="translate(20.375,0)">
							<title>工作表.699</title>
							<rect x="0" y="535.5" width="18" height="4.49998" class="st5"/>
						</g>
						<g id="shape700-80" v:mID="700" v:groupContext="shape">
							<title>工作表.700</title>
							<rect x="0" y="535.5" width="18" height="4.49998" class="st5"/>
						</g>
					</g>
					<g id="group702-82" transform="translate(2.28411E-06,0)" v:mID="702" v:groupContext="group">
						<title>工作表.702</title>
						<g id="shape703-83" v:mID="703" v:groupContext="shape" transform="translate(40.75,0)">
							<title>工作表.703</title>
							<rect x="0" y="535.5" width="18" height="4.49998" class="st5"/>
						</g>
						<g id="shape704-85" v:mID="704" v:groupContext="shape" transform="translate(61.125,0)">
							<title>工作表.704</title>
							<rect x="0" y="535.5" width="18" height="4.49998" class="st5"/>
						</g>
						<g id="shape705-87" v:mID="705" v:groupContext="shape" transform="translate(81.5,0)">
							<title>工作表.705</title>
							<rect x="0" y="535.5" width="18" height="4.49998" class="st5"/>
						</g>
						<g id="shape706-89" v:mID="706" v:groupContext="shape" transform="translate(20.375,0)">
							<title>工作表.706</title>
							<rect x="0" y="535.5" width="18" height="4.49998" class="st5"/>
						</g>
						<g id="shape707-91" v:mID="707" v:groupContext="shape">
							<title>工作表.707</title>
							<rect x="0" y="535.5" width="18" height="4.49998" class="st5"/>
						</g>
					</g>
				</g>
				<g id="shape715-93" v:mID="715" v:groupContext="shape" transform="translate(-3.22242E-14,-11.65)">
					<title>工作表.715</title>
					<ellipse cx="1.8" cy="538.2" rx="1.8" ry="1.8" class="st6"/>
				</g>
				<g id="shape716-95" v:mID="716" v:groupContext="shape" transform="translate(-3.22242E-14,-1.65001)">
					<title>工作表.716</title>
					<ellipse cx="1.8" cy="538.2" rx="1.8" ry="1.8" class="st6"/>
				</g>
			</g>
		</g>
		<g id="group801-97" transform="translate(31,-16.8018)" v:mID="801" v:groupContext="group">
			<title>工作表.801</title>
			<g id="shape725-98" v:mID="725" v:groupContext="shape" transform="translate(1,-6.59909)">
				<title>工作表.725</title>
				<rect x="0" y="443.425" width="550" height="96.5748" class="st7"/>
			</g>
			<g id="group726-100" transform="translate(19.1734,-43.0167)" v:mID="726" v:groupContext="group">
				<title>工作表.726</title>
				<g id="group727-101" v:mID="727" v:groupContext="group">
					<title>工作表.727</title>
					<g id="group728-102" v:mID="728" v:groupContext="group">
						<title>工作表.728</title>
						<g id="shape729-103" v:mID="729" v:groupContext="shape" transform="translate(0.232826,-0.291789)">
							<title>工作表.729</title>
							<path d="M18.05 501.28 L1.32 501.28 C0.59 501.28 0 501.87 0 502.6 C0 502.6 0 502.6 0 502.6 L0 538.68
										 C0 539.41 0.59 540 1.32 540 C1.32 540 1.32 540 1.32 540 L30.32 540 C31.04 539.99 31.63 539.4
										 31.63 538.68 L31.63 514.8 C31.63 514.08 31.04 513.49 30.32 513.48 L20.69 513.48 C19.97 513.47
										 19.38 512.88 19.38 512.16 L19.38 502.6 C19.39 501.88 18.81 501.28 18.09 501.28 C18.08 501.28
										 18.07 501.28 18.05 501.28 Z" class="st8"/>
						</g>
						<g id="shape730-105" v:mID="730" v:groupContext="shape">
							<title>工作表.730</title>
							<path d="M17.68 502.68 L17.68 511.74 C17.68 513.57 19.16 515.06 21 515.06 L30.12 515.06 L30.12 538.02
										 L1.98 538.02 L1.98 502.68 L17.68 502.68 ZM18.31 500.69 L1.34 500.69 C0.6 500.69 0 501.29
										 0 502.03 C0 502.03 0 502.04 0 502.04 L0 538.66 C0 539.4 0.6 540 1.34 540 C1.34 540 1.34
										 540 1.34 540 L30.76 540 C31.5 540 32.1 539.4 32.1 538.66 C32.1 538.66 32.1 538.66 32.1 538.66
										 L32.1 514.42 C32.1 513.68 31.5 513.08 30.76 513.08 L20.99 513.08 C20.25 513.08 19.65 512.48
										 19.66 511.74 L19.66 502.04 C19.66 501.3 19.06 500.69 18.32 500.69 C18.32 500.69 18.32 500.69
										 18.31 500.69 Z" class="st9"/>
						</g>
						<g id="shape731-109" v:mID="731" v:groupContext="shape" transform="translate(19.1825,-26.6541)">
							<title>工作表.731</title>
							<path d="M12.41 540 L0.01 527.64 L0.01 537.71 C0 538.97 1.01 539.99 2.27 540 C2.27 540 2.27 540 2.27
										 540 L12.41 540 Z" class="st10"/>
						</g>
					</g>
					<g id="shape732-111" v:mID="732" v:groupContext="shape" transform="translate(5.13276,-18.4794)">
						<title>工作表.732</title>
						<path d="M1.32 537.07 L20.52 537.07 C21.25 537.07 21.84 537.66 21.84 538.39 L21.84 538.68 C21.84 539.41 21.25
									 540 20.52 540 L1.32 540 C0.59 540 0 539.41 0 538.68 L0 538.39 C0 537.66 0.59 537.07 1.32 537.07
									 Z" class="st11"/>
					</g>
					<g id="shape733-113" v:mID="733" v:groupContext="shape" transform="translate(5.13276,-13.2318)">
						<title>工作表.733</title>
						<path d="M1.32 537.07 L20.52 537.07 C21.25 537.07 21.84 537.66 21.84 538.39 L21.84 538.68 C21.84 539.41 21.25
									 540 20.52 540 L1.32 540 C0.59 540 0 539.41 0 538.68 L0 538.39 C0 537.66 0.59 537.07 1.32 537.07
									 Z" class="st11"/>
					</g>
					<g id="shape734-115" v:mID="734" v:groupContext="shape" transform="translate(5.13276,-7.98412)">
						<title>工作表.734</title>
						<path d="M1.32 537.07 L12.45 537.07 C13.17 537.07 13.76 537.66 13.76 538.39 L13.76 538.68 C13.76 539.41 13.17
									 540 12.45 540 L1.32 540 C0.59 540 0 539.41 0 538.68 L0 538.39 C0 537.66 0.59 537.07 1.32 537.07
									 Z" class="st11"/>
					</g>
				</g>
				<g id="group735-117" transform="translate(46.5652,-1.13687E-13)" v:mID="735" v:groupContext="group">
					<title>工作表.735</title>
					<g id="group736-118" v:mID="736" v:groupContext="group">
						<title>工作表.736</title>
						<g id="shape737-119" v:mID="737" v:groupContext="shape" transform="translate(0.232826,-0.291789)">
							<title>工作表.737</title>
							<path d="M18.05 501.28 L1.32 501.28 C0.59 501.28 0 501.87 0 502.6 C0 502.6 0 502.6 0 502.6 L0 538.68
										 C0 539.41 0.59 540 1.32 540 C1.32 540 1.32 540 1.32 540 L30.32 540 C31.04 539.99 31.63 539.4
										 31.63 538.68 L31.63 514.8 C31.63 514.08 31.04 513.49 30.32 513.48 L20.69 513.48 C19.97 513.47
										 19.38 512.88 19.38 512.16 L19.38 502.6 C19.39 501.88 18.81 501.28 18.09 501.28 C18.08 501.28
										 18.07 501.28 18.05 501.28 Z" class="st8"/>
						</g>
						<g id="shape738-121" v:mID="738" v:groupContext="shape">
							<title>工作表.738</title>
							<path d="M17.68 502.68 L17.68 511.74 C17.68 513.57 19.16 515.06 21 515.06 L30.12 515.06 L30.12 538.02
										 L1.98 538.02 L1.98 502.68 L17.68 502.68 ZM18.31 500.69 L1.34 500.69 C0.6 500.69 0 501.29
										 0 502.03 C0 502.03 0 502.04 0 502.04 L0 538.66 C0 539.4 0.6 540 1.34 540 C1.34 540 1.34
										 540 1.34 540 L30.76 540 C31.5 540 32.1 539.4 32.1 538.66 C32.1 538.66 32.1 538.66 32.1 538.66
										 L32.1 514.42 C32.1 513.68 31.5 513.08 30.76 513.08 L20.99 513.08 C20.25 513.08 19.65 512.48
										 19.66 511.74 L19.66 502.04 C19.66 501.3 19.06 500.69 18.32 500.69 C18.32 500.69 18.32 500.69
										 18.31 500.69 Z" class="st9"/>
						</g>
						<g id="shape739-124" v:mID="739" v:groupContext="shape" transform="translate(19.1825,-26.6541)">
							<title>工作表.739</title>
							<path d="M12.41 540 L0.01 527.64 L0.01 537.71 C0 538.97 1.01 539.99 2.27 540 C2.27 540 2.27 540 2.27
										 540 L12.41 540 Z" class="st10"/>
						</g>
					</g>
					<g id="shape740-126" v:mID="740" v:groupContext="shape" transform="translate(5.13276,-18.4794)">
						<title>工作表.740</title>
						<path d="M1.32 537.07 L20.52 537.07 C21.25 537.07 21.84 537.66 21.84 538.39 L21.84 538.68 C21.84 539.41 21.25
									 540 20.52 540 L1.32 540 C0.59 540 0 539.41 0 538.68 L0 538.39 C0 537.66 0.59 537.07 1.32 537.07
									 Z" class="st11"/>
					</g>
					<g id="shape741-128" v:mID="741" v:groupContext="shape" transform="translate(5.13276,-13.2318)">
						<title>工作表.741</title>
						<path d="M1.32 537.07 L20.52 537.07 C21.25 537.07 21.84 537.66 21.84 538.39 L21.84 538.68 C21.84 539.41 21.25
									 540 20.52 540 L1.32 540 C0.59 540 0 539.41 0 538.68 L0 538.39 C0 537.66 0.59 537.07 1.32 537.07
									 Z" class="st11"/>
					</g>
					<g id="shape742-130" v:mID="742" v:groupContext="shape" transform="translate(5.13276,-7.98412)">
						<title>工作表.742</title>
						<path d="M1.32 537.07 L12.45 537.07 C13.17 537.07 13.76 537.66 13.76 538.39 L13.76 538.68 C13.76 539.41 13.17
									 540 12.45 540 L1.32 540 C0.59 540 0 539.41 0 538.68 L0 538.39 C0 537.66 0.59 537.07 1.32 537.07
									 Z" class="st11"/>
					</g>
				</g>
				<g id="group743-132" transform="translate(94.29,-1.13687E-13)" v:mID="743" v:groupContext="group">
					<title>工作表.743</title>
					<g id="group744-133" v:mID="744" v:groupContext="group">
						<title>工作表.744</title>
						<g id="shape745-134" v:mID="745" v:groupContext="shape" transform="translate(0.232826,-0.291789)">
							<title>工作表.745</title>
							<path d="M18.05 501.28 L1.32 501.28 C0.59 501.28 0 501.87 0 502.6 C0 502.6 0 502.6 0 502.6 L0 538.68
										 C0 539.41 0.59 540 1.32 540 C1.32 540 1.32 540 1.32 540 L30.31 540 C31.04 539.99 31.62 539.4
										 31.62 538.68 L31.62 514.8 C31.63 514.08 31.04 513.49 30.31 513.48 L20.69 513.48 C19.97 513.47
										 19.38 512.88 19.38 512.16 L19.38 502.6 C19.39 501.88 18.81 501.28 18.08 501.28 C18.07 501.28
										 18.06 501.28 18.05 501.28 Z" class="st8"/>
						</g>
						<g id="shape746-136" v:mID="746" v:groupContext="shape">
							<title>工作表.746</title>
							<path d="M17.67 502.68 L17.67 511.74 C17.68 513.57 19.16 515.06 20.99 515.06 L30.12 515.06 L30.12 538.02
										 L1.98 538.02 L1.98 502.68 L17.67 502.68 ZM18.31 500.69 L1.34 500.69 C0.6 500.69 0 501.29
										 0 502.03 C0 502.03 0 502.04 0 502.04 L0 538.66 C0 539.4 0.6 540 1.34 540 C1.34 540 1.34
										 540 1.34 540 L30.76 540 C31.5 540 32.1 539.4 32.1 538.66 C32.1 538.66 32.1 538.66 32.1 538.66
										 L32.1 514.42 C32.1 513.68 31.5 513.08 30.76 513.08 L20.99 513.08 C20.25 513.08 19.65 512.48
										 19.66 511.74 L19.66 502.04 C19.66 501.3 19.06 500.69 18.32 500.69 C18.32 500.69 18.31 500.69
										 18.31 500.69 Z" class="st9"/>
						</g>
						<g id="shape747-139" v:mID="747" v:groupContext="shape" transform="translate(19.1825,-26.6541)">
							<title>工作表.747</title>
							<path d="M12.41 540 L0.01 527.64 L0.01 537.71 C0 538.97 1.01 539.99 2.27 540 C2.27 540 2.27 540 2.27
										 540 L12.41 540 Z" class="st10"/>
						</g>
					</g>
					<g id="shape748-141" v:mID="748" v:groupContext="shape" transform="translate(5.13276,-18.4794)">
						<title>工作表.748</title>
						<path d="M1.32 537.07 L20.52 537.07 C21.25 537.07 21.84 537.66 21.84 538.39 L21.84 538.68 C21.84 539.41 21.25
									 540 20.52 540 L1.32 540 C0.59 540 0 539.41 0 538.68 L0 538.39 C0 537.66 0.59 537.07 1.32 537.07
									 Z" class="st11"/>
					</g>
					<g id="shape749-143" v:mID="749" v:groupContext="shape" transform="translate(5.13276,-13.2318)">
						<title>工作表.749</title>
						<path d="M1.32 537.07 L20.52 537.07 C21.25 537.07 21.84 537.66 21.84 538.39 L21.84 538.68 C21.84 539.41 21.25
									 540 20.52 540 L1.32 540 C0.59 540 0 539.41 0 538.68 L0 538.39 C0 537.66 0.59 537.07 1.32 537.07
									 Z" class="st11"/>
					</g>
					<g id="shape750-145" v:mID="750" v:groupContext="shape" transform="translate(5.13276,-7.98412)">
						<title>工作表.750</title>
						<path d="M1.32 537.07 L12.45 537.07 C13.17 537.07 13.76 537.66 13.76 538.39 L13.76 538.68 C13.76 539.41 13.17
									 540 12.45 540 L1.32 540 C0.59 540 0 539.41 0 538.68 L0 538.39 C0 537.66 0.59 537.07 1.32 537.07
									 Z" class="st11"/>
					</g>
				</g>
				<g id="group751-147" transform="translate(140.855,-1.13687E-13)" v:mID="751" v:groupContext="group">
					<title>工作表.751</title>
					<g id="group752-148" v:mID="752" v:groupContext="group">
						<title>工作表.752</title>
						<g id="shape753-149" v:mID="753" v:groupContext="shape" transform="translate(0.232826,-0.291789)">
							<title>工作表.753</title>
							<path d="M18.05 501.28 L1.32 501.28 C0.59 501.28 0 501.87 0 502.6 C0 502.6 0 502.6 0 502.6 L0 538.68
										 C0 539.41 0.59 540 1.32 540 C1.32 540 1.32 540 1.32 540 L30.31 540 C31.04 539.99 31.62 539.4
										 31.62 538.68 L31.62 514.8 C31.63 514.08 31.04 513.49 30.31 513.48 L20.69 513.48 C19.97 513.47
										 19.38 512.88 19.38 512.16 L19.38 502.6 C19.39 501.88 18.81 501.28 18.08 501.28 C18.07 501.28
										 18.06 501.28 18.05 501.28 Z" class="st8"/>
						</g>
						<g id="shape754-151" v:mID="754" v:groupContext="shape">
							<title>工作表.754</title>
							<path d="M17.67 502.68 L17.67 511.74 C17.68 513.57 19.16 515.06 20.99 515.06 L30.12 515.06 L30.12 538.02
										 L1.98 538.02 L1.98 502.68 L17.67 502.68 ZM18.31 500.69 L1.34 500.69 C0.6 500.69 0 501.29
										 0 502.03 C0 502.03 0 502.04 0 502.04 L0 538.66 C0 539.4 0.6 540 1.34 540 C1.34 540 1.34
										 540 1.34 540 L30.76 540 C31.5 540 32.1 539.4 32.1 538.66 C32.1 538.66 32.1 538.66 32.1 538.66
										 L32.1 514.42 C32.1 513.68 31.5 513.08 30.76 513.08 L20.99 513.08 C20.25 513.08 19.65 512.48
										 19.66 511.74 L19.66 502.04 C19.66 501.3 19.06 500.69 18.32 500.69 C18.32 500.69 18.31 500.69
										 18.31 500.69 Z" class="st9"/>
						</g>
						<g id="shape755-154" v:mID="755" v:groupContext="shape" transform="translate(19.1825,-26.6541)">
							<title>工作表.755</title>
							<path d="M12.41 540 L0.01 527.64 L0.01 537.71 C0 538.97 1.01 539.99 2.27 540 C2.27 540 2.27 540 2.27
										 540 L12.41 540 Z" class="st10"/>
						</g>
					</g>
					<g id="shape756-156" v:mID="756" v:groupContext="shape" transform="translate(5.13276,-18.4794)">
						<title>工作表.756</title>
						<path d="M1.32 537.07 L20.52 537.07 C21.25 537.07 21.84 537.66 21.84 538.39 L21.84 538.68 C21.84 539.41 21.25
									 540 20.52 540 L1.32 540 C0.59 540 0 539.41 0 538.68 L0 538.39 C0 537.66 0.59 537.07 1.32 537.07
									 Z" class="st11"/>
					</g>
					<g id="shape757-158" v:mID="757" v:groupContext="shape" transform="translate(5.13276,-13.2318)">
						<title>工作表.757</title>
						<path d="M1.32 537.07 L20.52 537.07 C21.25 537.07 21.84 537.66 21.84 538.39 L21.84 538.68 C21.84 539.41 21.25
									 540 20.52 540 L1.32 540 C0.59 540 0 539.41 0 538.68 L0 538.39 C0 537.66 0.59 537.07 1.32 537.07
									 Z" class="st11"/>
					</g>
					<g id="shape758-160" v:mID="758" v:groupContext="shape" transform="translate(5.13276,-7.98412)">
						<title>工作表.758</title>
						<path d="M1.32 537.07 L12.45 537.07 C13.17 537.07 13.76 537.66 13.76 538.39 L13.76 538.68 C13.76 539.41 13.17
									 540 12.45 540 L1.32 540 C0.59 540 0 539.41 0 538.68 L0 538.39 C0 537.66 0.59 537.07 1.32 537.07
									 Z" class="st11"/>
					</g>
				</g>
				<g id="group759-162" transform="translate(186.261,-1.13687E-13)" v:mID="759" v:groupContext="group">
					<title>工作表.759</title>
					<g id="group760-163" v:mID="760" v:groupContext="group">
						<title>工作表.760</title>
						<g id="shape761-164" v:mID="761" v:groupContext="shape" transform="translate(0.232826,-0.291789)">
							<title>工作表.761</title>
							<path d="M18.05 501.28 L1.32 501.28 C0.59 501.28 0 501.87 0 502.6 C0 502.6 0 502.6 0 502.6 L0 538.68
										 C0 539.41 0.59 540 1.32 540 C1.32 540 1.32 540 1.32 540 L30.31 540 C31.04 539.99 31.62 539.4
										 31.62 538.68 L31.62 514.8 C31.63 514.08 31.04 513.49 30.31 513.48 L20.69 513.48 C19.97 513.47
										 19.38 512.88 19.38 512.16 L19.38 502.6 C19.39 501.88 18.81 501.28 18.08 501.28 C18.08 501.28
										 18.07 501.28 18.05 501.28 Z" class="st8"/>
						</g>
						<g id="shape762-166" v:mID="762" v:groupContext="shape">
							<title>工作表.762</title>
							<path d="M17.68 502.68 L17.68 511.74 C17.68 513.57 19.16 515.06 21 515.06 L30.12 515.06 L30.12 538.02
										 L1.98 538.02 L1.98 502.68 L17.68 502.68 ZM18.31 500.69 L1.34 500.69 C0.6 500.69 0 501.29
										 0 502.03 C0 502.03 0 502.04 0 502.04 L0 538.66 C0 539.4 0.6 540 1.34 540 C1.34 540 1.34
										 540 1.34 540 L30.76 540 C31.5 540 32.1 539.4 32.1 538.66 C32.1 538.66 32.1 538.66 32.1 538.66
										 L32.1 514.42 C32.1 513.68 31.5 513.08 30.76 513.08 L20.99 513.08 C20.25 513.08 19.65 512.48
										 19.66 511.74 L19.66 502.04 C19.66 501.3 19.06 500.69 18.32 500.69 C18.32 500.69 18.32 500.69
										 18.31 500.69 Z" class="st9"/>
						</g>
						<g id="shape763-169" v:mID="763" v:groupContext="shape" transform="translate(19.1825,-26.6541)">
							<title>工作表.763</title>
							<path d="M12.41 540 L0.01 527.64 L0.01 537.71 C0 538.97 1.01 539.99 2.27 540 C2.27 540 2.27 540 2.27
										 540 L12.41 540 Z" class="st10"/>
						</g>
					</g>
					<g id="shape764-171" v:mID="764" v:groupContext="shape" transform="translate(5.13276,-18.4794)">
						<title>工作表.764</title>
						<path d="M1.32 537.07 L20.52 537.07 C21.25 537.07 21.84 537.66 21.84 538.39 L21.84 538.68 C21.84 539.41 21.25
									 540 20.52 540 L1.32 540 C0.59 540 0 539.41 0 538.68 L0 538.39 C0 537.66 0.59 537.07 1.32 537.07
									 Z" class="st11"/>
					</g>
					<g id="shape765-173" v:mID="765" v:groupContext="shape" transform="translate(5.13276,-13.2318)">
						<title>工作表.765</title>
						<path d="M1.32 537.07 L20.52 537.07 C21.25 537.07 21.84 537.66 21.84 538.39 L21.84 538.68 C21.84 539.41 21.25
									 540 20.52 540 L1.32 540 C0.59 540 0 539.41 0 538.68 L0 538.39 C0 537.66 0.59 537.07 1.32 537.07
									 Z" class="st11"/>
					</g>
					<g id="shape766-175" v:mID="766" v:groupContext="shape" transform="translate(5.13276,-7.98412)">
						<title>工作表.766</title>
						<path d="M1.32 537.07 L12.45 537.07 C13.17 537.07 13.76 537.66 13.76 538.39 L13.76 538.68 C13.76 539.41 13.17
									 540 12.45 540 L1.32 540 C0.59 540 0 539.41 0 538.68 L0 538.39 C0 537.66 0.59 537.07 1.32 537.07
									 Z" class="st11"/>
					</g>
				</g>
				<g id="group767-177" transform="translate(232.826,-1.13687E-13)" v:mID="767" v:groupContext="group">
					<title>工作表.767</title>
					<g id="group768-178" v:mID="768" v:groupContext="group">
						<title>工作表.768</title>
						<g id="shape769-179" v:mID="769" v:groupContext="shape" transform="translate(0.232826,-0.291789)">
							<title>工作表.769</title>
							<path d="M18.05 501.28 L1.32 501.28 C0.59 501.28 0 501.87 0 502.6 C0 502.6 0 502.6 0 502.6 L0 538.68
										 C0 539.41 0.59 540 1.32 540 C1.32 540 1.32 540 1.32 540 L30.31 540 C31.04 539.99 31.62 539.4
										 31.62 538.68 L31.62 514.8 C31.63 514.08 31.04 513.49 30.31 513.48 L20.69 513.48 C19.97 513.47
										 19.38 512.88 19.38 512.16 L19.38 502.6 C19.39 501.88 18.81 501.28 18.08 501.28 C18.08 501.28
										 18.07 501.28 18.05 501.28 Z" class="st8"/>
						</g>
						<g id="shape770-181" v:mID="770" v:groupContext="shape">
							<title>工作表.770</title>
							<path d="M17.68 502.68 L17.68 511.74 C17.68 513.57 19.16 515.06 21 515.06 L30.12 515.06 L30.12 538.02
										 L1.98 538.02 L1.98 502.68 L17.68 502.68 ZM18.31 500.69 L1.34 500.69 C0.6 500.69 0 501.29
										 0 502.03 C0 502.03 0 502.04 0 502.04 L0 538.66 C0 539.4 0.6 540 1.34 540 C1.34 540 1.34
										 540 1.34 540 L30.76 540 C31.5 540 32.1 539.4 32.1 538.66 C32.1 538.66 32.1 538.66 32.1 538.66
										 L32.1 514.42 C32.1 513.68 31.5 513.08 30.76 513.08 L20.99 513.08 C20.25 513.08 19.65 512.48
										 19.66 511.74 L19.66 502.04 C19.66 501.3 19.06 500.69 18.32 500.69 C18.32 500.69 18.32 500.69
										 18.31 500.69 Z" class="st9"/>
						</g>
						<g id="shape771-184" v:mID="771" v:groupContext="shape" transform="translate(19.1825,-26.6541)">
							<title>工作表.771</title>
							<path d="M12.41 540 L0.01 527.64 L0.01 537.71 C0 538.97 1.01 539.99 2.27 540 C2.27 540 2.27 540 2.27
										 540 L12.41 540 Z" class="st10"/>
						</g>
					</g>
					<g id="shape772-186" v:mID="772" v:groupContext="shape" transform="translate(5.13276,-18.4794)">
						<title>工作表.772</title>
						<path d="M1.32 537.07 L20.52 537.07 C21.25 537.07 21.84 537.66 21.84 538.39 L21.84 538.68 C21.84 539.41 21.25
									 540 20.52 540 L1.32 540 C0.59 540 0 539.41 0 538.68 L0 538.39 C0 537.66 0.59 537.07 1.32 537.07
									 Z" class="st11"/>
					</g>
					<g id="shape773-188" v:mID="773" v:groupContext="shape" transform="translate(5.13276,-13.2318)">
						<title>工作表.773</title>
						<path d="M1.32 537.07 L20.52 537.07 C21.25 537.07 21.84 537.66 21.84 538.39 L21.84 538.68 C21.84 539.41 21.25
									 540 20.52 540 L1.32 540 C0.59 540 0 539.41 0 538.68 L0 538.39 C0 537.66 0.59 537.07 1.32 537.07
									 Z" class="st11"/>
					</g>
					<g id="shape774-190" v:mID="774" v:groupContext="shape" transform="translate(5.13276,-7.98412)">
						<title>工作表.774</title>
						<path d="M1.32 537.07 L12.45 537.07 C13.17 537.07 13.76 537.66 13.76 538.39 L13.76 538.68 C13.76 539.41 13.17
									 540 12.45 540 L1.32 540 C0.59 540 0 539.41 0 538.68 L0 538.39 C0 537.66 0.59 537.07 1.32 537.07
									 Z" class="st11"/>
					</g>
				</g>
				<g id="group775-192" transform="translate(280.551,-1.13687E-13)" v:mID="775" v:groupContext="group">
					<title>工作表.775</title>
					<g id="group776-193" v:mID="776" v:groupContext="group">
						<title>工作表.776</title>
						<g id="shape777-194" v:mID="777" v:groupContext="shape" transform="translate(0.232826,-0.291789)">
							<title>工作表.777</title>
							<path d="M18.05 501.28 L1.32 501.28 C0.59 501.28 0 501.87 0 502.6 C0 502.6 0 502.6 0 502.6 L0 538.68
										 C0 539.41 0.59 540 1.32 540 C1.32 540 1.32 540 1.32 540 L30.31 540 C31.04 539.99 31.62 539.4
										 31.62 538.68 L31.62 514.8 C31.63 514.08 31.04 513.49 30.31 513.48 L20.69 513.48 C19.97 513.47
										 19.38 512.88 19.38 512.16 L19.38 502.6 C19.39 501.88 18.81 501.28 18.08 501.28 C18.07 501.28
										 18.06 501.28 18.05 501.28 Z" class="st8"/>
						</g>
						<g id="shape778-196" v:mID="778" v:groupContext="shape">
							<title>工作表.778</title>
							<path d="M17.67 502.68 L17.67 511.74 C17.68 513.57 19.16 515.06 20.99 515.06 L30.12 515.06 L30.12 538.02
										 L1.98 538.02 L1.98 502.68 L17.67 502.68 ZM18.31 500.69 L1.34 500.69 C0.6 500.69 0 501.29
										 0 502.03 C0 502.03 0 502.04 0 502.04 L0 538.66 C0 539.4 0.6 540 1.34 540 C1.34 540 1.34
										 540 1.34 540 L30.76 540 C31.5 540 32.1 539.4 32.1 538.66 C32.1 538.66 32.1 538.66 32.1 538.66
										 L32.1 514.42 C32.1 513.68 31.5 513.08 30.76 513.08 L20.99 513.08 C20.25 513.08 19.65 512.48
										 19.66 511.74 L19.66 502.04 C19.66 501.3 19.06 500.69 18.32 500.69 C18.32 500.69 18.31 500.69
										 18.31 500.69 Z" class="st9"/>
						</g>
						<g id="shape779-199" v:mID="779" v:groupContext="shape" transform="translate(19.1825,-26.6541)">
							<title>工作表.779</title>
							<path d="M12.41 540 L0.01 527.64 L0.01 537.71 C0 538.97 1.01 539.99 2.27 540 C2.27 540 2.27 540 2.27
										 540 L12.41 540 Z" class="st10"/>
						</g>
					</g>
					<g id="shape780-201" v:mID="780" v:groupContext="shape" transform="translate(5.13276,-18.4794)">
						<title>工作表.780</title>
						<path d="M1.32 537.07 L20.52 537.07 C21.25 537.07 21.84 537.66 21.84 538.39 L21.84 538.68 C21.84 539.41 21.25
									 540 20.52 540 L1.32 540 C0.59 540 0 539.41 0 538.68 L0 538.39 C0 537.66 0.59 537.07 1.32 537.07
									 Z" class="st11"/>
					</g>
					<g id="shape781-203" v:mID="781" v:groupContext="shape" transform="translate(5.13276,-13.2318)">
						<title>工作表.781</title>
						<path d="M1.32 537.07 L20.52 537.07 C21.25 537.07 21.84 537.66 21.84 538.39 L21.84 538.68 C21.84 539.41 21.25
									 540 20.52 540 L1.32 540 C0.59 540 0 539.41 0 538.68 L0 538.39 C0 537.66 0.59 537.07 1.32 537.07
									 Z" class="st11"/>
					</g>
					<g id="shape782-205" v:mID="782" v:groupContext="shape" transform="translate(5.13276,-7.98412)">
						<title>工作表.782</title>
						<path d="M1.32 537.07 L12.45 537.07 C13.17 537.07 13.76 537.66 13.76 538.39 L13.76 538.68 C13.76 539.41 13.17
									 540 12.45 540 L1.32 540 C0.59 540 0 539.41 0 538.68 L0 538.39 C0 537.66 0.59 537.07 1.32 537.07
									 Z" class="st11"/>
					</g>
				</g>
				<g id="group783-207" transform="translate(327.116,-1.13687E-13)" v:mID="783" v:groupContext="group">
					<title>工作表.783</title>
					<g id="group784-208" v:mID="784" v:groupContext="group">
						<title>工作表.784</title>
						<g id="shape785-209" v:mID="785" v:groupContext="shape" transform="translate(0.232826,-0.291789)">
							<title>工作表.785</title>
							<path d="M18.05 501.28 L1.32 501.28 C0.59 501.28 0 501.87 0 502.6 C0 502.6 0 502.6 0 502.6 L0 538.68
										 C0 539.41 0.59 540 1.32 540 C1.32 540 1.32 540 1.32 540 L30.31 540 C31.04 539.99 31.62 539.4
										 31.62 538.68 L31.62 514.8 C31.63 514.08 31.04 513.49 30.31 513.48 L20.69 513.48 C19.97 513.47
										 19.38 512.88 19.38 512.16 L19.38 502.6 C19.39 501.88 18.81 501.28 18.08 501.28 C18.07 501.28
										 18.06 501.28 18.05 501.28 Z" class="st8"/>
						</g>
						<g id="shape786-211" v:mID="786" v:groupContext="shape">
							<title>工作表.786</title>
							<path d="M17.67 502.68 L17.67 511.74 C17.68 513.57 19.16 515.06 20.99 515.06 L30.12 515.06 L30.12 538.02
										 L1.98 538.02 L1.98 502.68 L17.67 502.68 ZM18.31 500.69 L1.34 500.69 C0.6 500.69 0 501.29
										 0 502.03 C0 502.03 0 502.04 0 502.04 L0 538.66 C0 539.4 0.6 540 1.34 540 C1.34 540 1.34
										 540 1.34 540 L30.76 540 C31.5 540 32.1 539.4 32.1 538.66 C32.1 538.66 32.1 538.66 32.1 538.66
										 L32.1 514.42 C32.1 513.68 31.5 513.08 30.76 513.08 L20.99 513.08 C20.25 513.08 19.65 512.48
										 19.66 511.74 L19.66 502.04 C19.66 501.3 19.06 500.69 18.32 500.69 C18.32 500.69 18.31 500.69
										 18.31 500.69 Z" class="st9"/>
						</g>
						<g id="shape787-214" v:mID="787" v:groupContext="shape" transform="translate(19.1825,-26.6541)">
							<title>工作表.787</title>
							<path d="M12.41 540 L0.01 527.64 L0.01 537.71 C0 538.97 1.01 539.99 2.27 540 C2.27 540 2.27 540 2.27
										 540 L12.41 540 Z" class="st10"/>
						</g>
					</g>
					<g id="shape788-216" v:mID="788" v:groupContext="shape" transform="translate(5.13276,-18.4794)">
						<title>工作表.788</title>
						<path d="M1.32 537.07 L20.52 537.07 C21.25 537.07 21.84 537.66 21.84 538.39 L21.84 538.68 C21.84 539.41 21.25
									 540 20.52 540 L1.32 540 C0.59 540 0 539.41 0 538.68 L0 538.39 C0 537.66 0.59 537.07 1.32 537.07
									 Z" class="st11"/>
					</g>
					<g id="shape789-218" v:mID="789" v:groupContext="shape" transform="translate(5.13276,-13.2318)">
						<title>工作表.789</title>
						<path d="M1.32 537.07 L20.52 537.07 C21.25 537.07 21.84 537.66 21.84 538.39 L21.84 538.68 C21.84 539.41 21.25
									 540 20.52 540 L1.32 540 C0.59 540 0 539.41 0 538.68 L0 538.39 C0 537.66 0.59 537.07 1.32 537.07
									 Z" class="st11"/>
					</g>
					<g id="shape790-220" v:mID="790" v:groupContext="shape" transform="translate(5.13276,-7.98412)">
						<title>工作表.790</title>
						<path d="M1.32 537.07 L12.45 537.07 C13.17 537.07 13.76 537.66 13.76 538.39 L13.76 538.68 C13.76 539.41 13.17
									 540 12.45 540 L1.32 540 C0.59 540 0 539.41 0 538.68 L0 538.39 C0 537.66 0.59 537.07 1.32 537.07
									 Z" class="st11"/>
					</g>
				</g>
				<g id="group791-222" transform="translate(460.16,-1.13687E-13)" v:mID="791" v:groupContext="group">
					<title>工作表.791</title>
					<g id="group792-223" v:mID="792" v:groupContext="group">
						<title>工作表.792</title>
						<g id="shape793-224" v:mID="793" v:groupContext="shape" transform="translate(0.232826,-0.291789)">
							<title>工作表.793</title>
							<path d="M18.05 501.28 L1.32 501.28 C0.59 501.28 0 501.87 0 502.6 C0 502.6 0 502.6 0 502.6 L0 538.68
										 C0 539.41 0.59 540 1.32 540 C1.32 540 1.32 540 1.32 540 L30.31 540 C31.04 539.99 31.62 539.4
										 31.62 538.68 L31.62 514.8 C31.63 514.08 31.04 513.49 30.31 513.48 L20.69 513.48 C19.97 513.47
										 19.38 512.88 19.38 512.16 L19.38 502.6 C19.39 501.88 18.81 501.28 18.08 501.28 C18.07 501.28
										 18.06 501.28 18.05 501.28 Z" class="st8"/>
						</g>
						<g id="shape794-226" v:mID="794" v:groupContext="shape">
							<title>工作表.794</title>
							<path d="M17.67 502.68 L17.67 511.74 C17.68 513.57 19.16 515.06 20.99 515.06 L30.12 515.06 L30.12 538.02
										 L1.98 538.02 L1.98 502.68 L17.67 502.68 ZM18.31 500.69 L1.34 500.69 C0.6 500.69 0 501.29
										 0 502.03 C0 502.03 0 502.04 0 502.04 L0 538.66 C0 539.4 0.6 540 1.34 540 C1.34 540 1.34
										 540 1.34 540 L30.76 540 C31.5 540 32.1 539.4 32.1 538.66 C32.1 538.66 32.1 538.66 32.1 538.66
										 L32.1 514.42 C32.1 513.68 31.5 513.08 30.76 513.08 L20.99 513.08 C20.25 513.08 19.65 512.48
										 19.66 511.74 L19.66 502.04 C19.66 501.3 19.06 500.69 18.32 500.69 C18.32 500.69 18.31 500.69
										 18.31 500.69 Z" class="st9"/>
						</g>
						<g id="shape795-229" v:mID="795" v:groupContext="shape" transform="translate(19.1825,-26.6541)">
							<title>工作表.795</title>
							<path d="M12.41 540 L0.01 527.64 L0.01 537.71 C0 538.97 1.01 539.99 2.27 540 C2.27 540 2.27 540 2.27
										 540 L12.41 540 Z" class="st10"/>
						</g>
					</g>
					<g id="shape796-231" v:mID="796" v:groupContext="shape" transform="translate(5.13276,-18.4794)">
						<title>工作表.796</title>
						<path d="M1.32 537.07 L20.52 537.07 C21.25 537.07 21.84 537.66 21.84 538.39 L21.84 538.68 C21.84 539.41 21.25
									 540 20.52 540 L1.32 540 C0.59 540 0 539.41 0 538.68 L0 538.39 C0 537.66 0.59 537.07 1.32 537.07
									 Z" class="st11"/>
					</g>
					<g id="shape797-233" v:mID="797" v:groupContext="shape" transform="translate(5.13276,-13.2318)">
						<title>工作表.797</title>
						<path d="M1.32 537.07 L20.52 537.07 C21.25 537.07 21.84 537.66 21.84 538.39 L21.84 538.68 C21.84 539.41 21.25
									 540 20.52 540 L1.32 540 C0.59 540 0 539.41 0 538.68 L0 538.39 C0 537.66 0.59 537.07 1.32 537.07
									 Z" class="st11"/>
					</g>
					<g id="shape798-235" v:mID="798" v:groupContext="shape" transform="translate(5.13276,-7.98412)">
						<title>工作表.798</title>
						<path d="M1.32 537.07 L12.45 537.07 C13.17 537.07 13.76 537.66 13.76 538.39 L13.76 538.68 C13.76 539.41 13.17
									 540 12.45 540 L1.32 540 C0.59 540 0 539.41 0 538.68 L0 538.39 C0 537.66 0.59 537.07 1.32 537.07
									 Z" class="st11"/>
					</g>
				</g>
				<g id="shape799-237" v:mID="799" v:groupContext="shape" transform="translate(390.07,-16.6138)">
					<title>工作表.799</title>
					<path d="M3.04 533.94 C3.46 533.94 3.86 534.02 4.22 534.17 C4.58 534.33 4.9 534.55 5.16 534.81 C5.43 535.08 5.65
								 535.4 5.83 535.78 C6 536.16 6.08 536.55 6.06 536.96 C6.06 537.39 5.98 537.78 5.83 538.14 C5.67 538.5
								 5.45 538.82 5.19 539.09 C4.92 539.35 4.6 539.58 4.22 539.75 C3.84 539.92 3.45 540 3.04 539.98 C2.61
								 539.98 2.22 539.9 1.86 539.75 C1.5 539.59 1.18 539.38 0.91 539.11 C0.65 538.84 0.42 538.52 0.25
								 538.14 C0.08 537.76 0 537.37 0.02 536.96 C0.02 536.54 0.1 536.14 0.25 535.78 C0.41 535.42 0.62 535.1
								 0.89 534.84 C1.16 534.57 1.48 534.35 1.86 534.17 C2.24 534 2.63 533.92 3.04 533.94 ZM21.17 533.94
								 C21.59 533.94 21.99 534.02 22.35 534.17 C22.71 534.33 23.03 534.55 23.29 534.81 C23.56 535.08 23.78
								 535.4 23.96 535.78 C24.13 536.16 24.21 536.55 24.19 536.96 C24.19 537.39 24.11 537.78 23.96 538.14
								 C23.8 538.5 23.58 538.82 23.32 539.09 C23.05 539.35 22.73 539.58 22.35 539.75 C21.97 539.92 21.58
								 540 21.17 539.98 C20.74 539.98 20.35 539.9 19.99 539.75 C19.63 539.59 19.31 539.38 19.04 539.11
								 C18.78 538.84 18.56 538.52 18.38 538.14 C18.21 537.76 18.13 537.37 18.15 536.96 C18.15 536.54 18.23
								 536.14 18.38 535.78 C18.54 535.42 18.75 535.1 19.02 534.84 C19.29 534.57 19.61 534.35 19.99 534.17
								 C20.37 534 20.76 533.92 21.17 533.94 ZM39.3 533.94 C39.72 533.94 40.12 534.02 40.48 534.17 C40.84
								 534.33 41.16 534.55 41.42 534.81 C41.69 535.08 41.91 535.4 42.09 535.78 C42.26 536.16 42.34 536.55
								 42.32 536.96 C42.32 537.39 42.24 537.78 42.09 538.14 C41.93 538.5 41.72 538.82 41.45 539.09 C41.18
								 539.35 40.86 539.58 40.48 539.75 C40.1 539.92 39.71 540 39.3 539.98 C38.87 539.98 38.48 539.9 38.12
								 539.75 C37.76 539.59 37.44 539.38 37.17 539.11 C36.91 538.84 36.69 538.52 36.51 538.14 C36.34 537.76
								 36.26 537.37 36.28 536.96 C36.28 536.54 36.36 536.14 36.51 535.78 C36.67 535.42 36.88 535.1 37.15
								 534.84 C37.42 534.57 37.74 534.35 38.12 534.17 C38.5 534 38.89 533.92 39.3 533.94 Z" class="st12"/>
				</g>
			</g>
			<g id="shape800-239" v:mID="800" v:groupContext="shape" transform="translate(195,-1.58695)">
				<title>工作表.800</title>
				<desc>OneLake</desc>
				<v:textBlock v:margins="rect(4,4,4,4)"/>
				<v:textRect cx="81" cy="519.5" width="162" height="41"/>
				<rect x="0" y="499" width="162" height="41" class="st13"/>
				<text x="44.52" y="524.9" class="st14" v:langID="1033"><v:paragraph v:horizAlign="1"/><v:tabList/>OneLake</text>			</g>
		</g>
		<g id="group802-242" transform="translate(189.381,-308.269)" v:mID="802" v:groupContext="group">
			<title>工作表.802</title>
			<g id="group557-243" v:mID="557" v:groupContext="group">
				<title>工作表.557</title>
				<g id="group558-244" transform="translate(1.82481,2.27374E-13)" v:mID="558" v:groupContext="group">
					<title>工作表.558</title>
					<g id="shape559-245" v:mID="559" v:groupContext="shape">
						<title>工作表.559</title>
						<rect x="0" y="485.945" width="231.413" height="54.055" class="st15"/>
					</g>
					<g id="shape560-247" v:mID="560" v:groupContext="shape">
						<title>工作表.560</title>
						<rect x="0" y="485.945" width="231.413" height="54.055" class="st16"/>
					</g>
				</g>
				<g id="group561-249" transform="translate(0,-0.945017)" v:mID="561" v:groupContext="group">
					<title>工作表.561</title>
					<g id="shape562-250" v:mID="562" v:groupContext="shape">
						<title>工作表.562</title>
						<rect x="0" y="485.945" width="231.413" height="54.055" class="st8"/>
					</g>
					<g id="shape563-252" v:mID="563" v:groupContext="shape">
						<title>工作表.563</title>
						<rect x="0" y="485.945" width="231.413" height="54.055" class="st17"/>
					</g>
				</g>
			</g>
			<g id="shape565-254" v:mID="565" v:groupContext="shape" transform="translate(35.6191,-7)">
				<title>工作表.565</title>
				<desc>DQP</desc>
				<v:textBlock v:margins="rect(4,4,4,4)"/>
				<v:textRect cx="81" cy="519.5" width="162" height="41"/>
				<rect x="0" y="499" width="162" height="41" class="st13"/>
				<text x="62.01" y="524.9" class="st14" v:langID="1033"><v:paragraph v:horizAlign="1"/><v:tabList/>DQP</text>			</g>
		</g>
		<g id="group803-257" transform="translate(75.0556,-195.769)" v:mID="803" v:groupContext="group">
			<title>工作表.803</title>
			<g id="group606-258" v:mID="606" v:groupContext="group">
				<title>工作表.606</title>
				<g id="group597-259" v:mID="597" v:groupContext="group">
					<title>工作表.597</title>
					<g id="group598-260" transform="translate(0.42082,0)" v:mID="598" v:groupContext="group">
						<title>工作表.598</title>
						<g id="shape599-261" v:mID="599" v:groupContext="shape">
							<title>工作表.599</title>
							<rect x="0" y="451.011" width="146.872" height="88.9887" class="st15"/>
						</g>
						<g id="shape600-263" v:mID="600" v:groupContext="shape">
							<title>工作表.600</title>
							<rect x="0" y="451.011" width="146.872" height="88.9887" class="st18"/>
						</g>
					</g>
					<g id="group601-265" transform="translate(-7.19425E-13,-1.01124)" v:mID="601" v:groupContext="group">
						<title>工作表.601</title>
						<g id="shape602-266" v:mID="602" v:groupContext="shape">
							<title>工作表.602</title>
							<rect x="0" y="451.011" width="146.872" height="88.9887" class="st8"/>
						</g>
						<g id="shape603-268" v:mID="603" v:groupContext="shape">
							<title>工作表.603</title>
							<rect x="0" y="451.011" width="146.872" height="88.9887" class="st19"/>
						</g>
					</g>
				</g>
				<g id="shape573-270" v:mID="573" v:groupContext="shape" transform="translate(8.64661,-52)">
					<title>工作表.573</title>
					<desc>SQL Pool &#34;ETL&#34;</desc>
					<v:textBlock v:margins="rect(4,4,4,4)"/>
					<v:textRect cx="65" cy="527" width="130.01" height="26"/>
					<rect x="0" y="514" width="130" height="26" class="st13"/>
					<text x="19.06" y="531.2" class="st20" v:langID="1033"><v:paragraph v:horizAlign="1"/><v:tabList/>SQL Pool &#34;ETL&#34;</text>				</g>
				<g id="group605-273" transform="translate(13.5956,-15.9581)" v:mID="605" v:groupContext="group">
					<title>工作表.605</title>
					<g id="group577-274" v:mID="577" v:groupContext="group">
						<title>工作表.577</title>
						<g id="group578-275" v:mID="578" v:groupContext="group">
							<title>工作表.578</title>
							<g id="shape579-276" v:mID="579" v:groupContext="shape" transform="translate(0.761547,-1.13687E-13)">
								<title>工作表.579</title>
								<rect x="0" y="514.107" width="25.8926" height="25.8926" class="st15"/>
							</g>
							<g id="shape580-278" v:mID="580" v:groupContext="shape" transform="translate(1.29896E-13,-0.761547)">
								<title>工作表.580</title>
								<rect x="0" y="514.107" width="25.8926" height="25.8926" class="st8"/>
							</g>
						</g>
						<g id="shape581-280" v:mID="581" v:groupContext="shape" transform="translate(5.886,-6.64679)">
							<title>工作表.581</title>
							<path d="M14.12 533.7 L14.12 532.09 L13.9 532.01 L12.17 531.44 L11.72 530.34 L12.59 528.48 L11.46 527.35
										 L11.24 527.46 L9.63 528.28 L8.53 527.83 L7.82 525.88 L6.21 525.88 L6.13 526.1 L5.56 527.83
										 L4.47 528.28 L2.63 527.4 L1.5 528.53 L1.61 528.76 L2.43 530.37 L1.98 531.47 L0 532.18 L0
										 533.79 L0.23 533.87 L1.95 534.44 L2.4 535.53 L1.53 537.4 L2.66 538.53 L2.88 538.42 L4.49
										 537.6 L5.59 538.05 L6.3 540 L7.91 540 L7.99 539.77 L8.56 538.05 L9.66 537.6 L11.52 538.47
										 L12.65 537.34 L12.54 537.12 L11.72 535.51 L12.17 534.41 L14.12 533.7 ZM7.06 536.04 C5.35
										 536.04 3.96 534.65 3.96 532.94 C3.96 531.23 5.35 529.84 7.06 529.84 C8.77 529.84 10.16 531.23
										 10.16 532.94 C10.16 534.65 8.78 536.04 7.06 536.04 C7.06 536.04 7.06 536.04 7.06 536.04
										 Z" class="st21"/>
						</g>
					</g>
					<g id="group582-284" transform="translate(60.0805,0)" v:mID="582" v:groupContext="group">
						<title>工作表.582</title>
						<g id="group583-285" v:mID="583" v:groupContext="group">
							<title>工作表.583</title>
							<g id="shape584-286" v:mID="584" v:groupContext="shape" transform="translate(0.761547,-1.13687E-13)">
								<title>工作表.584</title>
								<rect x="0" y="514.107" width="25.8926" height="25.8926" class="st15"/>
							</g>
							<g id="shape585-288" v:mID="585" v:groupContext="shape" transform="translate(1.29896E-13,-0.761547)">
								<title>工作表.585</title>
								<rect x="0" y="514.107" width="25.8926" height="25.8926" class="st8"/>
							</g>
						</g>
						<g id="shape586-290" v:mID="586" v:groupContext="shape" transform="translate(5.886,-6.64679)">
							<title>工作表.586</title>
							<path d="M14.12 533.7 L14.12 532.09 L13.9 532.01 L12.17 531.44 L11.72 530.34 L12.59 528.48 L11.46 527.35
										 L11.24 527.46 L9.63 528.28 L8.53 527.83 L7.82 525.88 L6.21 525.88 L6.13 526.1 L5.56 527.83
										 L4.47 528.28 L2.63 527.4 L1.5 528.53 L1.61 528.76 L2.43 530.37 L1.98 531.47 L0 532.18 L0
										 533.79 L0.23 533.87 L1.95 534.44 L2.4 535.53 L1.53 537.4 L2.66 538.53 L2.88 538.42 L4.49
										 537.6 L5.59 538.05 L6.3 540 L7.91 540 L7.99 539.77 L8.56 538.05 L9.66 537.6 L11.52 538.47
										 L12.65 537.34 L12.54 537.12 L11.72 535.51 L12.17 534.41 L14.12 533.7 ZM7.06 536.04 C5.35
										 536.04 3.96 534.65 3.96 532.94 C3.96 531.23 5.35 529.84 7.06 529.84 C8.77 529.84 10.16 531.23
										 10.16 532.94 C10.16 534.65 8.78 536.04 7.06 536.04 C7.06 536.04 7.06 536.04 7.06 536.04
										 Z" class="st21"/>
						</g>
					</g>
					<g id="group587-293" transform="translate(93.4479,0)" v:mID="587" v:groupContext="group">
						<title>工作表.587</title>
						<g id="group588-294" v:mID="588" v:groupContext="group">
							<title>工作表.588</title>
							<g id="shape589-295" v:mID="589" v:groupContext="shape" transform="translate(0.761547,-1.13687E-13)">
								<title>工作表.589</title>
								<rect x="0" y="514.107" width="25.8926" height="25.8926" class="st15"/>
							</g>
							<g id="shape590-297" v:mID="590" v:groupContext="shape" transform="translate(1.29896E-13,-0.761547)">
								<title>工作表.590</title>
								<rect x="0" y="514.107" width="25.8926" height="25.8926" class="st8"/>
							</g>
						</g>
						<g id="shape591-299" v:mID="591" v:groupContext="shape" transform="translate(5.886,-6.64679)">
							<title>工作表.591</title>
							<path d="M14.12 533.7 L14.12 532.09 L13.9 532.01 L12.17 531.44 L11.72 530.34 L12.59 528.48 L11.46 527.35
										 L11.24 527.46 L9.63 528.28 L8.53 527.83 L7.82 525.88 L6.21 525.88 L6.13 526.1 L5.56 527.83
										 L4.47 528.28 L2.63 527.4 L1.5 528.53 L1.61 528.76 L2.43 530.37 L1.98 531.47 L0 532.18 L0
										 533.79 L0.23 533.87 L1.95 534.44 L2.4 535.53 L1.53 537.4 L2.66 538.53 L2.88 538.42 L4.49
										 537.6 L5.59 538.05 L6.3 540 L7.91 540 L7.99 539.77 L8.56 538.05 L9.66 537.6 L11.52 538.47
										 L12.65 537.34 L12.54 537.12 L11.72 535.51 L12.17 534.41 L14.12 533.7 ZM7.06 536.04 C5.35
										 536.04 3.96 534.65 3.96 532.94 C3.96 531.23 5.35 529.84 7.06 529.84 C8.77 529.84 10.16 531.23
										 10.16 532.94 C10.16 534.65 8.78 536.04 7.06 536.04 C7.06 536.04 7.06 536.04 7.06 536.04
										 Z" class="st21"/>
						</g>
					</g>
					<g id="shape604-302" v:mID="604" v:groupContext="shape" transform="translate(33.3674,-0.327079)">
						<title>工作表.604</title>
						<desc>--</desc>
						<v:textBlock v:margins="rect(4,4,4,4)"/>
						<v:textRect cx="10" cy="527" width="20" height="26"/>
						<rect x="0" y="514" width="20" height="26" class="st13"/>
						<text x="4.4" y="531.2" class="st20" v:langID="2052"><v:paragraph v:horizAlign="1"/><v:tabList/>--</text>					</g>
				</g>
			</g>
			<g id="group607-305" transform="translate(155.949,0)" v:mID="607" v:groupContext="group">
				<title>工作表.607</title>
				<g id="group608-306" v:mID="608" v:groupContext="group">
					<title>工作表.608</title>
					<g id="group609-307" transform="translate(0.42082,0)" v:mID="609" v:groupContext="group">
						<title>工作表.609</title>
						<g id="shape610-308" v:mID="610" v:groupContext="shape">
							<title>工作表.610</title>
							<rect x="0" y="451.011" width="146.872" height="88.9887" class="st15"/>
						</g>
						<g id="shape611-310" v:mID="611" v:groupContext="shape">
							<title>工作表.611</title>
							<rect x="0" y="451.011" width="146.872" height="88.9887" class="st18"/>
						</g>
					</g>
					<g id="group612-312" transform="translate(-7.19425E-13,-1.01124)" v:mID="612" v:groupContext="group">
						<title>工作表.612</title>
						<g id="shape613-313" v:mID="613" v:groupContext="shape">
							<title>工作表.613</title>
							<rect x="0" y="451.011" width="146.872" height="88.9887" class="st8"/>
						</g>
						<g id="shape614-315" v:mID="614" v:groupContext="shape">
							<title>工作表.614</title>
							<rect x="0" y="451.011" width="146.872" height="88.9887" class="st19"/>
						</g>
					</g>
				</g>
				<g id="shape615-317" v:mID="615" v:groupContext="shape" transform="translate(8.64661,-52)">
					<title>工作表.615</title>
					<desc>SQL Pool &#34;Reports&#34;</desc>
					<v:textBlock v:margins="rect(4,4,4,4)"/>
					<v:textRect cx="65" cy="527" width="130.01" height="26"/>
					<rect x="0" y="514" width="130" height="26" class="st13"/>
					<text x="5.73" y="531.2" class="st20" v:langID="1033"><v:paragraph v:horizAlign="1"/><v:tabList/>SQL Pool &#34;Reports&#34;</text>				</g>
				<g id="group616-320" transform="translate(13.5956,-15.9581)" v:mID="616" v:groupContext="group">
					<title>工作表.616</title>
					<g id="group617-321" v:mID="617" v:groupContext="group">
						<title>工作表.617</title>
						<g id="group618-322" v:mID="618" v:groupContext="group">
							<title>工作表.618</title>
							<g id="shape619-323" v:mID="619" v:groupContext="shape" transform="translate(0.761547,-1.13687E-13)">
								<title>工作表.619</title>
								<rect x="0" y="514.107" width="25.8926" height="25.8926" class="st15"/>
							</g>
							<g id="shape620-325" v:mID="620" v:groupContext="shape" transform="translate(1.29896E-13,-0.761547)">
								<title>工作表.620</title>
								<rect x="0" y="514.107" width="25.8926" height="25.8926" class="st8"/>
							</g>
						</g>
						<g id="shape621-327" v:mID="621" v:groupContext="shape" transform="translate(5.886,-6.64679)">
							<title>工作表.621</title>
							<path d="M14.12 533.7 L14.12 532.09 L13.9 532.01 L12.17 531.44 L11.72 530.34 L12.59 528.48 L11.46 527.35
										 L11.24 527.46 L9.63 528.28 L8.53 527.83 L7.82 525.88 L6.21 525.88 L6.13 526.1 L5.56 527.83
										 L4.47 528.28 L2.63 527.4 L1.5 528.53 L1.61 528.76 L2.43 530.37 L1.98 531.47 L0 532.18 L0
										 533.79 L0.23 533.87 L1.95 534.44 L2.4 535.53 L1.53 537.4 L2.66 538.53 L2.88 538.42 L4.49
										 537.6 L5.59 538.05 L6.3 540 L7.91 540 L7.99 539.77 L8.56 538.05 L9.66 537.6 L11.52 538.47
										 L12.65 537.34 L12.54 537.12 L11.72 535.51 L12.17 534.41 L14.12 533.7 ZM7.06 536.04 C5.35
										 536.04 3.96 534.65 3.96 532.94 C3.96 531.23 5.35 529.84 7.06 529.84 C8.77 529.84 10.16 531.23
										 10.16 532.94 C10.16 534.65 8.78 536.04 7.06 536.04 C7.06 536.04 7.06 536.04 7.06 536.04
										 Z" class="st21"/>
						</g>
					</g>
					<g id="group622-330" transform="translate(60.0805,0)" v:mID="622" v:groupContext="group">
						<title>工作表.622</title>
						<g id="group623-331" v:mID="623" v:groupContext="group">
							<title>工作表.623</title>
							<g id="shape624-332" v:mID="624" v:groupContext="shape" transform="translate(0.761547,-1.13687E-13)">
								<title>工作表.624</title>
								<rect x="0" y="514.107" width="25.8926" height="25.8926" class="st15"/>
							</g>
							<g id="shape625-334" v:mID="625" v:groupContext="shape" transform="translate(1.29896E-13,-0.761547)">
								<title>工作表.625</title>
								<rect x="0" y="514.107" width="25.8926" height="25.8926" class="st8"/>
							</g>
						</g>
						<g id="shape626-336" v:mID="626" v:groupContext="shape" transform="translate(5.886,-6.64679)">
							<title>工作表.626</title>
							<path d="M14.12 533.7 L14.12 532.09 L13.9 532.01 L12.17 531.44 L11.72 530.34 L12.59 528.48 L11.46 527.35
										 L11.24 527.46 L9.63 528.28 L8.53 527.83 L7.82 525.88 L6.21 525.88 L6.13 526.1 L5.56 527.83
										 L4.47 528.28 L2.63 527.4 L1.5 528.53 L1.61 528.76 L2.43 530.37 L1.98 531.47 L0 532.18 L0
										 533.79 L0.23 533.87 L1.95 534.44 L2.4 535.53 L1.53 537.4 L2.66 538.53 L2.88 538.42 L4.49
										 537.6 L5.59 538.05 L6.3 540 L7.91 540 L7.99 539.77 L8.56 538.05 L9.66 537.6 L11.52 538.47
										 L12.65 537.34 L12.54 537.12 L11.72 535.51 L12.17 534.41 L14.12 533.7 ZM7.06 536.04 C5.35
										 536.04 3.96 534.65 3.96 532.94 C3.96 531.23 5.35 529.84 7.06 529.84 C8.77 529.84 10.16 531.23
										 10.16 532.94 C10.16 534.65 8.78 536.04 7.06 536.04 C7.06 536.04 7.06 536.04 7.06 536.04
										 Z" class="st21"/>
						</g>
					</g>
					<g id="group627-339" transform="translate(93.4479,0)" v:mID="627" v:groupContext="group">
						<title>工作表.627</title>
						<g id="group628-340" v:mID="628" v:groupContext="group">
							<title>工作表.628</title>
							<g id="shape629-341" v:mID="629" v:groupContext="shape" transform="translate(0.761547,-1.13687E-13)">
								<title>工作表.629</title>
								<rect x="0" y="514.107" width="25.8926" height="25.8926" class="st15"/>
							</g>
							<g id="shape630-343" v:mID="630" v:groupContext="shape" transform="translate(1.29896E-13,-0.761547)">
								<title>工作表.630</title>
								<rect x="0" y="514.107" width="25.8926" height="25.8926" class="st8"/>
							</g>
						</g>
						<g id="shape631-345" v:mID="631" v:groupContext="shape" transform="translate(5.886,-6.64679)">
							<title>工作表.631</title>
							<path d="M14.12 533.7 L14.12 532.09 L13.9 532.01 L12.17 531.44 L11.72 530.34 L12.59 528.48 L11.46 527.35
										 L11.24 527.46 L9.63 528.28 L8.53 527.83 L7.82 525.88 L6.21 525.88 L6.13 526.1 L5.56 527.83
										 L4.47 528.28 L2.63 527.4 L1.5 528.53 L1.61 528.76 L2.43 530.37 L1.98 531.47 L0 532.18 L0
										 533.79 L0.23 533.87 L1.95 534.44 L2.4 535.53 L1.53 537.4 L2.66 538.53 L2.88 538.42 L4.49
										 537.6 L5.59 538.05 L6.3 540 L7.91 540 L7.99 539.77 L8.56 538.05 L9.66 537.6 L11.52 538.47
										 L12.65 537.34 L12.54 537.12 L11.72 535.51 L12.17 534.41 L14.12 533.7 ZM7.06 536.04 C5.35
										 536.04 3.96 534.65 3.96 532.94 C3.96 531.23 5.35 529.84 7.06 529.84 C8.77 529.84 10.16 531.23
										 10.16 532.94 C10.16 534.65 8.78 536.04 7.06 536.04 C7.06 536.04 7.06 536.04 7.06 536.04
										 Z" class="st21"/>
						</g>
					</g>
					<g id="shape632-348" v:mID="632" v:groupContext="shape" transform="translate(33.3674,-0.327079)">
						<title>工作表.632</title>
						<desc>--</desc>
						<v:textBlock v:margins="rect(4,4,4,4)"/>
						<v:textRect cx="10" cy="527" width="20" height="26"/>
						<rect x="0" y="514" width="20" height="26" class="st13"/>
						<text x="4.4" y="531.2" class="st20" v:langID="2052"><v:paragraph v:horizAlign="1"/><v:tabList/>--</text>					</g>
				</g>
			</g>
			<g id="group633-351" transform="translate(314.596,0)" v:mID="633" v:groupContext="group">
				<title>工作表.633</title>
				<g id="group634-352" v:mID="634" v:groupContext="group">
					<title>工作表.634</title>
					<g id="group635-353" transform="translate(0.42082,0)" v:mID="635" v:groupContext="group">
						<title>工作表.635</title>
						<g id="shape636-354" v:mID="636" v:groupContext="shape">
							<title>工作表.636</title>
							<rect x="0" y="451.011" width="146.872" height="88.9887" class="st15"/>
						</g>
						<g id="shape637-356" v:mID="637" v:groupContext="shape">
							<title>工作表.637</title>
							<rect x="0" y="451.011" width="146.872" height="88.9887" class="st18"/>
						</g>
					</g>
					<g id="group638-358" transform="translate(-7.19425E-13,-1.01124)" v:mID="638" v:groupContext="group">
						<title>工作表.638</title>
						<g id="shape639-359" v:mID="639" v:groupContext="shape">
							<title>工作表.639</title>
							<rect x="0" y="451.011" width="146.872" height="88.9887" class="st8"/>
						</g>
						<g id="shape640-361" v:mID="640" v:groupContext="shape">
							<title>工作表.640</title>
							<rect x="0" y="451.011" width="146.872" height="88.9887" class="st19"/>
						</g>
					</g>
				</g>
				<g id="shape641-363" v:mID="641" v:groupContext="shape" transform="translate(8.64661,-52)">
					<title>工作表.641</title>
					<desc>SQL Pool &#34;Adhoc&#34;</desc>
					<v:textBlock v:margins="rect(4,4,4,4)"/>
					<v:textRect cx="65" cy="527" width="130.01" height="26"/>
					<rect x="0" y="514" width="130" height="26" class="st13"/>
					<text x="9.63" y="531.2" class="st20" v:langID="1033"><v:paragraph v:horizAlign="1"/><v:tabList/>SQL Pool &#34;Adhoc&#34;</text>				</g>
				<g id="group642-366" transform="translate(13.5956,-15.9581)" v:mID="642" v:groupContext="group">
					<title>工作表.642</title>
					<g id="group643-367" v:mID="643" v:groupContext="group">
						<title>工作表.643</title>
						<g id="group644-368" v:mID="644" v:groupContext="group">
							<title>工作表.644</title>
							<g id="shape645-369" v:mID="645" v:groupContext="shape" transform="translate(0.761547,-1.13687E-13)">
								<title>工作表.645</title>
								<rect x="0" y="514.107" width="25.8926" height="25.8926" class="st15"/>
							</g>
							<g id="shape646-371" v:mID="646" v:groupContext="shape" transform="translate(1.29896E-13,-0.761547)">
								<title>工作表.646</title>
								<rect x="0" y="514.107" width="25.8926" height="25.8926" class="st8"/>
							</g>
						</g>
						<g id="shape647-373" v:mID="647" v:groupContext="shape" transform="translate(5.886,-6.64679)">
							<title>工作表.647</title>
							<path d="M14.12 533.7 L14.12 532.09 L13.9 532.01 L12.17 531.44 L11.72 530.34 L12.59 528.48 L11.46 527.35
										 L11.24 527.46 L9.63 528.28 L8.53 527.83 L7.82 525.88 L6.21 525.88 L6.13 526.1 L5.56 527.83
										 L4.47 528.28 L2.63 527.4 L1.5 528.53 L1.61 528.76 L2.43 530.37 L1.98 531.47 L0 532.18 L0
										 533.79 L0.23 533.87 L1.95 534.44 L2.4 535.53 L1.53 537.4 L2.66 538.53 L2.88 538.42 L4.49
										 537.6 L5.59 538.05 L6.3 540 L7.91 540 L7.99 539.77 L8.56 538.05 L9.66 537.6 L11.52 538.47
										 L12.65 537.34 L12.54 537.12 L11.72 535.51 L12.17 534.41 L14.12 533.7 ZM7.06 536.04 C5.35
										 536.04 3.96 534.65 3.96 532.94 C3.96 531.23 5.35 529.84 7.06 529.84 C8.77 529.84 10.16 531.23
										 10.16 532.94 C10.16 534.65 8.78 536.04 7.06 536.04 C7.06 536.04 7.06 536.04 7.06 536.04
										 Z" class="st21"/>
						</g>
					</g>
					<g id="group648-376" transform="translate(60.0805,0)" v:mID="648" v:groupContext="group">
						<title>工作表.648</title>
						<g id="group649-377" v:mID="649" v:groupContext="group">
							<title>工作表.649</title>
							<g id="shape650-378" v:mID="650" v:groupContext="shape" transform="translate(0.761547,-1.13687E-13)">
								<title>工作表.650</title>
								<rect x="0" y="514.107" width="25.8926" height="25.8926" class="st15"/>
							</g>
							<g id="shape651-380" v:mID="651" v:groupContext="shape" transform="translate(1.29896E-13,-0.761547)">
								<title>工作表.651</title>
								<rect x="0" y="514.107" width="25.8926" height="25.8926" class="st8"/>
							</g>
						</g>
						<g id="shape652-382" v:mID="652" v:groupContext="shape" transform="translate(5.886,-6.64679)">
							<title>工作表.652</title>
							<path d="M14.12 533.7 L14.12 532.09 L13.9 532.01 L12.17 531.44 L11.72 530.34 L12.59 528.48 L11.46 527.35
										 L11.24 527.46 L9.63 528.28 L8.53 527.83 L7.82 525.88 L6.21 525.88 L6.13 526.1 L5.56 527.83
										 L4.47 528.28 L2.63 527.4 L1.5 528.53 L1.61 528.76 L2.43 530.37 L1.98 531.47 L0 532.18 L0
										 533.79 L0.23 533.87 L1.95 534.44 L2.4 535.53 L1.53 537.4 L2.66 538.53 L2.88 538.42 L4.49
										 537.6 L5.59 538.05 L6.3 540 L7.91 540 L7.99 539.77 L8.56 538.05 L9.66 537.6 L11.52 538.47
										 L12.65 537.34 L12.54 537.12 L11.72 535.51 L12.17 534.41 L14.12 533.7 ZM7.06 536.04 C5.35
										 536.04 3.96 534.65 3.96 532.94 C3.96 531.23 5.35 529.84 7.06 529.84 C8.77 529.84 10.16 531.23
										 10.16 532.94 C10.16 534.65 8.78 536.04 7.06 536.04 C7.06 536.04 7.06 536.04 7.06 536.04
										 Z" class="st21"/>
						</g>
					</g>
					<g id="group653-385" transform="translate(93.4479,0)" v:mID="653" v:groupContext="group">
						<title>工作表.653</title>
						<g id="group654-386" v:mID="654" v:groupContext="group">
							<title>工作表.654</title>
							<g id="shape655-387" v:mID="655" v:groupContext="shape" transform="translate(0.761547,-1.13687E-13)">
								<title>工作表.655</title>
								<rect x="0" y="514.107" width="25.8926" height="25.8926" class="st15"/>
							</g>
							<g id="shape656-389" v:mID="656" v:groupContext="shape" transform="translate(1.29896E-13,-0.761547)">
								<title>工作表.656</title>
								<rect x="0" y="514.107" width="25.8926" height="25.8926" class="st8"/>
							</g>
						</g>
						<g id="shape657-391" v:mID="657" v:groupContext="shape" transform="translate(5.886,-6.64679)">
							<title>工作表.657</title>
							<path d="M14.12 533.7 L14.12 532.09 L13.9 532.01 L12.17 531.44 L11.72 530.34 L12.59 528.48 L11.46 527.35
										 L11.24 527.46 L9.63 528.28 L8.53 527.83 L7.82 525.88 L6.21 525.88 L6.13 526.1 L5.56 527.83
										 L4.47 528.28 L2.63 527.4 L1.5 528.53 L1.61 528.76 L2.43 530.37 L1.98 531.47 L0 532.18 L0
										 533.79 L0.23 533.87 L1.95 534.44 L2.4 535.53 L1.53 537.4 L2.66 538.53 L2.88 538.42 L4.49
										 537.6 L5.59 538.05 L6.3 540 L7.91 540 L7.99 539.77 L8.56 538.05 L9.66 537.6 L11.52 538.47
										 L12.65 537.34 L12.54 537.12 L11.72 535.51 L12.17 534.41 L14.12 533.7 ZM7.06 536.04 C5.35
										 536.04 3.96 534.65 3.96 532.94 C3.96 531.23 5.35 529.84 7.06 529.84 C8.77 529.84 10.16 531.23
										 10.16 532.94 C10.16 534.65 8.78 536.04 7.06 536.04 C7.06 536.04 7.06 536.04 7.06 536.04
										 Z" class="st21"/>
						</g>
					</g>
					<g id="shape658-394" v:mID="658" v:groupContext="shape" transform="translate(33.3674,-0.327079)">
						<title>工作表.658</title>
						<desc>--</desc>
						<v:textBlock v:margins="rect(4,4,4,4)"/>
						<v:textRect cx="10" cy="527" width="20" height="26"/>
						<rect x="0" y="514" width="20" height="26" class="st13"/>
						<text x="4.4" y="531.2" class="st20" v:langID="2052"><v:paragraph v:horizAlign="1"/><v:tabList/>--</text>					</g>
				</g>
			</g>
		</g>
		<g id="shape817-397" v:mID="817" v:groupContext="shape" transform="translate(386.972,-323.769)">
			<title>工作表.817</title>
			<path d="M7.89 526.8 L9.2 526.8 L9.2 528.27 L7.89 528.27 L7.89 526.8 ZM11.83 535.6 L13.14 535.6 L13.14 537.07 L11.83
						 537.07 L11.83 535.6 ZM15.77 526.8 L17.08 526.8 L17.08 528.27 L15.77 528.27 L15.77 526.8 ZM11.83 526.8 L13.14
						 526.8 L13.14 528.27 L11.83 528.27 L11.83 526.8 ZM7.89 529.73 L9.2 529.73 L9.2 531.2 L7.89 531.2 L7.89 529.73
						 ZM3.94 529.73 L5.26 529.73 L5.26 531.2 L3.94 531.2 L3.94 529.73 ZM15.77 529.73 L17.08 529.73 L17.08 531.2
						 L15.77 531.2 L15.77 529.73 ZM11.83 529.73 L13.14 529.73 L13.14 531.2 L11.83 531.2 L11.83 529.73 ZM7.89 532.67
						 L9.2 532.67 L9.2 534.13 L7.89 534.13 L7.89 532.67 ZM3.94 532.67 L5.26 532.67 L5.26 534.13 L3.94 534.13 L3.94
						 532.67 ZM15.77 532.67 L17.08 532.67 L17.08 534.13 L15.77 534.13 L15.77 532.67 ZM11.83 532.67 L13.14 532.67
						 L13.14 534.13 L11.83 534.13 L11.83 532.67 ZM7.89 535.6 L9.2 535.6 L9.2 537.07 L7.89 537.07 L7.89 535.6 ZM3.94
						 535.6 L5.26 535.6 L5.26 537.07 L3.94 537.07 L3.94 535.6 ZM21.03 519.47 L21.03 540 L0 540 L0 519.47 L3.94
						 519.47 L3.94 518 L5.26 518 L5.26 519.47 L15.77 519.47 L15.77 518 L17.08 518 L17.08 519.47 L21.03 519.47
						 ZM1.31 520.93 L1.31 523.87 L19.71 523.87 L19.71 520.93 L17.08 520.93 L17.08 522.4 L15.77 522.4 L15.77 520.93
						 L5.26 520.93 L5.26 522.4 L3.94 522.4 L3.94 520.93 L1.31 520.93 ZM19.71 538.53 L19.71 525.33 L1.31 525.33
						 L1.31 538.53 L19.71 538.53 Z" class="st12"/>
		</g>
		<g id="shape818-399" v:mID="818" v:groupContext="shape" transform="translate(342,-359.769)">
			<title>工作表.818</title>
			<desc>Control Flow</desc>
			<v:textBlock v:margins="rect(4,4,4,4)"/>
			<v:textRect cx="40" cy="529.5" width="80.01" height="21"/>
			<rect x="0" y="519" width="80" height="21" class="st13"/>
			<text x="6.41" y="533.1" class="st22" v:langID="1033"><v:paragraph v:horizAlign="1"/><v:tabList/>Control Flow</text>		</g>
		<g id="shape819-402" v:mID="819" v:groupContext="shape" transform="translate(851,151.714) rotate(90)">
			<title>直线</title>
			<v:userDefs>
				<v:ud v:nameU="visVersion" v:prompt="" v:val="VT0(17):26"/>
			</v:userDefs>
			<path d="M0 540 L23.64 540" class="st23"/>
		</g>
		<g id="shape821-405" v:mID="821" v:groupContext="shape" transform="translate(362.942,776.727) rotate(174.48)">
			<title>直线.821</title>
			<v:userDefs>
				<v:ud v:nameU="visVersion" v:prompt="" v:val="VT0(17):26"/>
			</v:userDefs>
			<path d="M0 540 L165.77 540" class="st23"/>
		</g>
		<g id="shape823-408" v:mID="823" v:groupContext="shape" transform="translate(851,239.231) rotate(90)">
			<title>直线.823</title>
			<v:userDefs>
				<v:ud v:nameU="visVersion" v:prompt="" v:val="VT0(17):26"/>
			</v:userDefs>
			<path d="M0 540 L15.19 540" class="st23"/>
		</g>
		<g id="shape824-411" v:mID="824" v:groupContext="shape" transform="translate(363.689,-298.193) rotate(5.59934)">
			<title>直线.824</title>
			<v:userDefs>
				<v:ud v:nameU="visVersion" v:prompt="" v:val="VT0(17):26"/>
			</v:userDefs>
			<path d="M0 540 L153.73 540" class="st23"/>
		</g>
		<g id="group829-414" transform="translate(216.714,-386.774)" v:mID="829" v:groupContext="group">
			<title>工作表.829</title>
			<g id="group11-415" transform="translate(1.51186,1.13687E-13)" v:mID="11" v:groupContext="group">
				<title>工作表.11</title>
				<g id="shape12-416" v:mID="12" v:groupContext="shape">
					<title>工作表.12</title>
					<rect x="0" y="453.522" width="191.726" height="86.4783" class="st15"/>
				</g>
				<g id="shape13-418" v:mID="13" v:groupContext="shape">
					<title>工作表.13</title>
					<rect x="0" y="453.522" width="191.726" height="86.4783" class="st16"/>
				</g>
			</g>
			<g id="group14-420" transform="translate(6.39488E-14,-1.51186)" v:mID="14" v:groupContext="group">
				<title>工作表.14</title>
				<g id="shape15-421" v:mID="15" v:groupContext="shape">
					<title>工作表.15</title>
					<rect x="0" y="453.522" width="191.726" height="86.4783" class="st8"/>
				</g>
				<g id="shape16-423" v:mID="16" v:groupContext="shape">
					<title>工作表.16</title>
					<rect x="0" y="453.522" width="191.726" height="86.4783" class="st17"/>
				</g>
			</g>
			<g id="shape162-425" v:mID="162" v:groupContext="shape" transform="translate(159.682,-61.4006)">
				<title>工作表.162</title>
				<path d="M17.86 532.94 L20.6 532.94 L20.6 540 L13.74 540 L13.74 532.94 L16.48 532.94 L16.48 530.11 L4.12 530.11 L4.12
							 532.94 L6.87 532.94 L6.87 540 L0 540 L0 532.94 L2.75 532.94 L2.75 528.7 L9.62 528.7 L9.62 525.87 L6.87
							 525.87 L6.87 518.81 L13.74 518.81 L13.74 525.87 L10.99 525.87 L10.99 528.7 L17.86 528.7 L17.86 532.94
							 ZM8.24 520.22 L8.24 524.46 L12.36 524.46 L12.36 520.22 L8.24 520.22 ZM5.49 538.59 L5.49 534.35 L1.37
							 534.35 L1.37 538.59 L5.49 538.59 ZM19.23 538.59 L19.23 534.35 L15.11 534.35 L15.11 538.59 L19.23 538.59
							 Z" class="st12"/>
			</g>
		</g>
		<g id="group830-427" transform="translate(248.444,-408.269)" v:mID="830" v:groupContext="group">
			<title>工作表.830</title>
			<g id="group137-428" transform="translate(7.99361E-15,-0.0791505)" v:mID="137" v:groupContext="group">
				<title>工作表.137</title>
				<g id="shape138-429" v:mID="138" v:groupContext="shape">
					<title>工作表.138</title>
					<path d="M17.1 507.02 C7.66 507.02 0 504.35 0 500.83 L0 533.81 C0 537.2 7.52 539.95 16.86 540 L17.1 540 C26.55
								 540 34.2 537.33 34.2 533.81 L34.2 500.83 C34.2 504.27 26.55 507.02 17.1 507.02 Z" class="st24"/>
				</g>
				<g id="shape139-433" v:mID="139" v:groupContext="shape" transform="translate(0,-32.9766)">
					<title>工作表.139</title>
					<path d="M34.2 533.81 C34.2 537.25 26.55 540 17.1 540 C7.66 540 0 537.33 0 533.81 C0 530.29 7.66 527.62 17.1
								 527.62 C26.55 527.62 34.2 530.29 34.2 533.81 Z" class="st25"/>
				</g>
				<g id="shape140-435" v:mID="140" v:groupContext="shape" transform="translate(3.9777,-35.7252)">
					<title>工作表.140</title>
					<path d="M26.25 536.05 C26.25 538.24 20.36 540 13.13 540 C5.9 540 0 538.24 0 536.05 C0 533.86 5.9 532.13 13.13
								 532.13 C20.36 532.13 26.25 533.89 26.25 536.05 Z" class="st26"/>
				</g>
				<g id="shape141-437" v:mID="141" v:groupContext="shape" transform="translate(6.72323,-35.6027)">
					<title>工作表.141</title>
					<path d="M10.38 536.92 C6.86 536.83 3.35 537.34 0 538.44 C3.35 539.51 6.86 540 10.38 539.88 C13.9 539.98 17.42
								 539.46 20.76 538.33 C17.4 537.28 13.89 536.81 10.38 536.92 Z" class="st27"/>
				</g>
				<g id="shape142-439" v:mID="142" v:groupContext="shape" transform="translate(4.23925,-11.5279)">
					<title>工作表.142</title>
					<path d="M23.27 535.25 L23.27 526.18 L20.87 526.18 L20.87 537.2 L27.43 537.2 L27.43 535.25 L23.27 535.25 ZM4.22
								 530.8 C3.72 530.6 3.26 530.32 2.86 529.97 C2.64 529.74 2.53 529.43 2.54 529.12 C2.52 528.8 2.67
								 528.49 2.94 528.32 C3.27 528.09 3.66 527.98 4.06 528 C5.01 527.95 5.95 528.23 6.73 528.77 L6.73
								 526.47 C5.88 526.16 4.97 526.01 4.06 526.05 C3.01 525.99 1.98 526.31 1.15 526.96 C0.42 527.52 0
								 528.4 0.03 529.33 C0.03 530.69 0.88 531.76 2.7 532.56 C3.29 532.81 3.84 533.13 4.35 533.52 C4.61
								 533.73 4.75 534.04 4.75 534.37 C4.75 534.7 4.59 535.01 4.33 535.2 C3.96 535.41 3.55 535.51 3.13
								 535.49 C2.05 535.48 1.02 535.09 0.22 534.37 L0.22 536.85 C1.1 537.31 2.08 537.53 3.07 537.49 C4.19
								 537.56 5.3 537.25 6.22 536.61 C6.88 535.99 7.21 535.09 7.1 534.19 C7.11 533.5 6.88 532.84 6.43 532.32
								 C5.81 531.66 5.06 531.14 4.22 530.8 ZM18.2 535.04 C18.81 534.03 19.11 532.86 19.08 531.68 C19.02
								 530.68 18.72 529.71 18.2 528.85 C17.78 528.02 17.14 527.32 16.33 526.85 C15.52 526.39 14.6 526.15
								 13.66 526.15 C12.66 526.13 11.66 526.38 10.78 526.87 C9.96 527.33 9.28 528.02 8.84 528.85 C8.36
								 529.79 8.12 530.83 8.14 531.89 C8.15 532.82 8.37 533.73 8.78 534.56 C9.19 535.38 9.83 536.07 10.62
								 536.53 C11.43 537.02 12.35 537.3 13.29 537.33 L15.59 540 L18.82 540 L15.53 537.07 C16.64 536.73
								 17.58 536.01 18.2 535.04 ZM15.53 534.37 C15.04 534.98 14.29 535.33 13.5 535.31 C12.71 535.33 11.96
								 534.97 11.48 534.35 C10.91 533.57 10.64 532.63 10.7 531.68 C10.64 530.72 10.91 529.78 11.48 529.01
								 C11.98 528.38 12.75 528.02 13.56 528.02 C14.35 527.99 15.1 528.36 15.56 529.01 C16.08 529.79 16.34
								 530.73 16.28 531.68 C16.37 532.64 16.11 533.6 15.53 534.37 Z" class="st28"/>
				</g>
			</g>
			<g id="shape825-443" v:mID="825" v:groupContext="shape" transform="translate(40.5556,0)">
				<title>工作表.825</title>
				<desc>SQL Frontend</desc>
				<v:textBlock v:margins="rect(4,4,4,4)" v:verticalAlign="0"/>
				<v:textRect cx="44.6111" cy="517.5" width="89.23" height="45"/>
				<rect x="0" y="495" width="89.2222" height="45" class="st13"/>
				<text x="4" y="515.2" class="st14" v:langID="1033"><v:paragraph/><v:tabList/>SQL <tspan x="4" dy="1.2em"
							class="st29">Frontend</tspan></text>			</g>
		</g>
		<g id="shape831-447" v:mID="831" v:groupContext="shape" transform="translate(30,-499)">
			<title>工作表.831</title>
			<desc>Workspace</desc>
			<v:textBlock v:margins="rect(4,4,4,4)"/>
			<v:textRect cx="105.649" cy="527" width="211.3" height="26"/>
			<rect x="0" y="514" width="211.298" height="26" class="st13"/>
			<text x="4" y="532.4" class="st14" v:langID="2052"><v:paragraph/><v:tabList/>Workspace</text>		</g>
	</g>
</svg>
