<?xml version="1.0" encoding="utf-8"?>
<!-- Generator: Adobe Illustrator 25.0.1, SVG Export Plug-In . SVG Version: 6.00 Build 0)  -->
<svg version="1.1" id="Layer_1" xmlns="http://www.w3.org/2000/svg" xmlns:xlink="http://www.w3.org/1999/xlink" x="0px" y="0px"
	 viewBox="0 0 64 64" style="enable-background:new 0 0 64 64;" xml:space="preserve">
<style type="text/css">
	.st0{fill:#2F2F2F;}
	.st1{fill:#C2C2C2;}
</style>
<g id="Layer_2_1_">
	<g id="SYMBOLS">
		<g id="administrator">
			<g id="_Utility_-_Maintain">
				<path class="st0" d="M54.2,42.9c1.2,0,2.3-0.2,3.4-0.7c2.1-0.9,3.7-2.6,4.7-4.6c0.5-1.1,0.7-2.2,0.7-3.4c0-0.9-0.2-1.9-0.5-2.8
					l-7.1,7l-5.5-5.5l7-7.1c-0.9-0.3-1.8-0.4-2.7-0.4c-1.2,0-2.3,0.2-3.4,0.7c-2.1,0.9-3.8,2.6-4.7,4.7c-0.5,1.1-0.7,2.2-0.7,3.4
					c0,0.4,0,0.9,0.1,1.3c0.1,0.4,0.2,0.9,0.3,1.3L29.2,53.5c-0.4,0.4-0.7,0.8-0.9,1.3c-0.4,1-0.4,2.1,0,3.1c0.4,1,1.2,1.8,2.2,2.2
					c0.5,0.2,1,0.3,1.6,0.3c0.5,0,1.1-0.1,1.6-0.3c0.5-0.2,0.9-0.5,1.3-0.9l16.7-16.7c0.4,0.1,0.9,0.2,1.3,0.3
					C53.4,42.8,53.8,42.9,54.2,42.9"/>
			</g>
			<path class="st1" d="M25.5,34c9,0,16.3-6.8,16.3-15.2C41.8,12.7,38,7.2,32.3,5C28,3.1,23.1,3.1,18.7,5c-5.7,2.2-9.5,7.7-9.6,13.8
				C9.2,27.2,16.5,34,25.5,34z"/>
			<path class="st1" d="M25.5,37.6C12,37.6,1,47.8,1,60.4h24.8c0,0-4.9-4.1-0.5-8.5l11.6-11.7C33.3,38.7,29.4,37.9,25.5,37.6z"/>
		</g>
	</g>
</g>
</svg>
