<?xml version="1.0" encoding="UTF-8"?>
<svg xmlns="http://www.w3.org/2000/svg" width="255.2" height="387.2" xmlns:xlink="http://www.w3.org/1999/xlink" viewBox="0 0 255.2 387.2">
  <defs>
    <linearGradient id="linear-gradient" x1="41.0412" y1="1335.2041" x2="59.1401" y2="1335.2041" gradientTransform="translate(0 1594.8) scale(1 -1)" gradientUnits="userSpaceOnUse">
      <stop offset="0" stop-color="#005ba1"/>
      <stop offset=".07" stop-color="#0060a9"/>
      <stop offset=".36" stop-color="#0071c8"/>
      <stop offset=".52" stop-color="#0078d4"/>
      <stop offset=".64" stop-color="#0074cd"/>
      <stop offset=".82" stop-color="#006abb"/>
      <stop offset="1" stop-color="#005ba1"/>
    </linearGradient>
    <radialGradient id="radial-gradient" cx="50.5989" cy="1334.6253" fx="50.5989" fy="1334.6253" r="9.9812" gradientTransform="translate(0 1594.8) scale(1 -1)" gradientUnits="userSpaceOnUse">
      <stop offset="0" stop-color="#f2f2f2"/>
      <stop offset=".58" stop-color="#eee"/>
      <stop offset="1" stop-color="#e6e6e6"/>
    </radialGradient>
    <linearGradient id="linear-gradient-2" x1="-74.4466" y1="1322.2308" x2="-74.4466" y2="1330.2299" gradientTransform="translate(84 1568.8) scale(1 -1)" gradientUnits="userSpaceOnUse">
      <stop offset=".056" stop-color="#2aac94"/>
      <stop offset=".155" stop-color="#239c87"/>
      <stop offset=".372" stop-color="#177e71"/>
      <stop offset=".588" stop-color="#0e6961"/>
      <stop offset=".799" stop-color="#095d57"/>
      <stop offset="1" stop-color="#085954"/>
    </linearGradient>
    <linearGradient id="linear-gradient-3" x1="-66.143" y1="1326.3763" x2="-73.8673" y2="1334.7775" gradientTransform="translate(84 1568.8) scale(1 -1)" gradientUnits="userSpaceOnUse">
      <stop offset=".0417" stop-color="#abe88e"/>
      <stop offset=".5489" stop-color="#2aaa92"/>
      <stop offset=".906" stop-color="#117865"/>
    </linearGradient>
    <linearGradient id="linear-gradient-4" x1="-83.446" y1="1328.8109" x2="-76.0953" y2="1331.3176" gradientTransform="translate(84 1568.8) scale(1 -1)" gradientUnits="userSpaceOnUse">
      <stop offset="0" stop-color="#6ad6f9"/>
      <stop offset="1" stop-color="#6ad6f9" stop-opacity="0"/>
    </linearGradient>
    <linearGradient id="linear-gradient-5" x1="-77.7133" y1="1338.0605" x2="-58.1472" y2="1338.0605" gradientTransform="translate(84 1568.8) scale(1 -1)" gradientUnits="userSpaceOnUse">
      <stop offset=".043" stop-color="#25ffd4"/>
      <stop offset=".874" stop-color="#55ddb9"/>
    </linearGradient>
    <linearGradient id="linear-gradient-6" x1="-77.0145" y1="1342.3001" x2="-59.3893" y2="1334.1158" gradientTransform="translate(84 1568.8) scale(1 -1)" gradientUnits="userSpaceOnUse">
      <stop offset="0" stop-color="#6ad6f9"/>
      <stop offset=".2295" stop-color="#60e9d0"/>
      <stop offset=".6507" stop-color="#6de9bb"/>
      <stop offset=".9935" stop-color="#abe88e"/>
    </linearGradient>
    <linearGradient id="linear-gradient-7" x1="-75.9561" y1="1339.835" x2="-66.3723" y2="1337.7153" gradientTransform="translate(84 1568.8) scale(1 -1)" gradientUnits="userSpaceOnUse">
      <stop offset="0" stop-color="#fff" stop-opacity="0"/>
      <stop offset=".4585" stop-color="#fff"/>
      <stop offset="1" stop-color="#fff" stop-opacity="0"/>
    </linearGradient>
    <linearGradient id="linear-gradient-8" x1="-71.4181" y1="1331.0034" x2="-71.1917" y2="1337.7243" gradientTransform="translate(84 1568.8) scale(1 -1)" gradientUnits="userSpaceOnUse">
      <stop offset=".2046" stop-color="#063d3b" stop-opacity="0"/>
      <stop offset=".5855" stop-color="#063d3b" stop-opacity=".2366"/>
      <stop offset=".8723" stop-color="#063d3b" stop-opacity=".75"/>
    </linearGradient>
    <linearGradient id="linear-gradient-9" x1="-79.8008" y1="1332.9152" x2="-71.6108" y2="1331.3749" xlink:href="#linear-gradient-7"/>
    <linearGradient id="linear-gradient-10" x1="-73.9377" y1="1324.4825" x2="-75.5353" y2="1332.2959" gradientTransform="translate(84 1568.8) scale(1 -1)" gradientUnits="userSpaceOnUse">
      <stop offset=".064" stop-color="#063d3b" stop-opacity="0"/>
      <stop offset=".17" stop-color="#063d3b" stop-opacity=".135"/>
      <stop offset=".562" stop-color="#063d3b" stop-opacity=".599"/>
      <stop offset=".85" stop-color="#063d3b" stop-opacity=".9"/>
      <stop offset="1" stop-color="#063d3b"/>
    </linearGradient>
    <linearGradient id="linear-gradient-11" x1="41.2335" y1="1251.0715" x2="41.2335" y2="1265.7753" gradientTransform="translate(0 1594.8) scale(1 -1)" gradientUnits="userSpaceOnUse">
      <stop offset="0" stop-color="#b3b4b4"/>
      <stop offset=".26" stop-color="#c2c1c0"/>
      <stop offset="1" stop-color="#e6e6e6"/>
    </linearGradient>
  </defs>
  <g id="Shapes">
    <rect width="255.2" height="387.2" fill="#fff"/>
    <g>
      <rect x="8.7766" y="233.3024" width="239.5936" height="48.4" fill="#fff"/>
      <rect x="8.7766" y="233.3024" width="239.5936" height="48.4" fill="#71e9b8" opacity=".21"/>
      <rect x="8.7766" y="233.3024" width="239.5936" height="48.4" fill="none" stroke="#1c8371" stroke-width=".25"/>
    </g>
    <g>
      <rect x="8.7766" y="304.5583" width="239.5936" height="73.3795" fill="#fff"/>
      <rect x="8.7766" y="304.5583" width="239.5936" height="73.3795" fill="#83b9f9" opacity=".25"/>
      <rect x="8.7766" y="304.5583" width="239.5936" height="73.3795" fill="none" stroke="#1b93eb" stroke-miterlimit="10" stroke-width=".25"/>
    </g>
    <g>
      <path d="M50.0906,252.5088c-4.9976,0-9.0494-1.4118-9.0494-3.2753v17.4494c0,1.7929,3.9812,3.2471,8.9224,3.2753h.1271c4.9976,0,9.0494-1.4118,9.0494-3.2753v-17.4494c0,1.8212-4.0518,3.2753-9.0494,3.2753Z" fill="url(#linear-gradient)"/>
      <path d="M59.1401,249.2336c0,1.8212-4.0518,3.2753-9.0494,3.2753s-9.0494-1.4118-9.0494-3.2753,4.0518-3.2753,9.0494-3.2753,9.0494,1.4118,9.0494,3.2753" fill="#e8e8e8"/>
      <path d="M57.0365,248.9653c0,1.1576-3.12,2.0894-6.9459,2.0894s-6.9459-.9318-6.9459-2.0894,3.12-2.0753,6.9459-2.0753,6.9459.9318,6.9459,2.0753" fill="#50e6ff"/>
      <path d="M50.0906,249.4877c-1.8631-.0476-3.7206.2246-5.4918.8047,1.7728.5693,3.6309.8273,5.4918.7624,1.8646.0546,3.7242-.2226,5.4918-.8188-1.7762-.5533-3.6323-.8062-5.4918-.7482Z" fill="#198ab3"/>
      <path d="M55.5965,261.3465v-4.8h-1.2706v5.8306h3.4729v-1.0306h-2.2024ZM45.5165,258.9888c-.2623-.1055-.5056-.2533-.72-.4376-.115-.1216-.1761-.2845-.1694-.4518-.0088-.1686.0716-.3294.2118-.4235.1736-.1201.382-.1797.5929-.1694.5028-.0226.999.1213,1.4118.4094v-1.2141c-.451-.1678-.9309-.2446-1.4118-.2259-.5539-.0295-1.0999.1408-1.5388.48-.3881.2992-.6087.7667-.5929,1.2565,0,.72.4518,1.2847,1.4118,1.7082.3118.1323.6058.303.8753.5082.1336.1121.2111.2774.2118.4518,0,.1739-.0841.337-.2259.4376-.1921.1125-.4129.1665-.6353.1553-.5678-.0047-1.1147-.2154-1.5388-.5929v1.3129c.4662.2404.9864.3571,1.5106.3388.5917.0351,1.1782-.1289,1.6659-.4659.3493-.3308.5219-.807.4659-1.2847.0068-.3614-.1187-.7129-.3529-.9882-.3298-.3474-.7291-.6216-1.1718-.8047ZM52.9142,261.2336c.3205-.5369.4821-1.1537.4659-1.7788-.0319-.5292-.1918-1.0427-.4659-1.4965-.2204-.4409-.5636-.8086-.9882-1.0588-.4303-.2439-.9171-.3705-1.4118-.3671-.5332-.0117-1.0598.1199-1.5247.3812-.4358.2432-.7933.6056-1.0306,1.0447-.2499.4992-.3758,1.0512-.3671,1.6094.0029.4904.1189.9735.3388,1.4118.2155.4361.5542.7993.9741,1.0447.4264.2601.9126.4059,1.4118.4235l1.2141,1.4118h1.7082l-1.7365-1.5529c.5847-.1754,1.0862-.5565,1.4118-1.0729ZM51.5024,260.8806c-.2606.3236-.6577.5064-1.0729.4941-.4187.0135-.8182-.1757-1.0729-.5082-.2984-.4077-.4434-.9077-.4094-1.4118-.0328-.504.1121-1.0035.4094-1.4118.2691-.3318.674-.5238,1.1012-.5224.419-.0181.8182.1789,1.0588.5224.2781.4162.412.9121.3812,1.4118.0493.5078-.0916,1.0159-.3953,1.4259Z" fill="url(#radial-gradient)"/>
    </g>
    <g>
      <rect x="8.7766" y="9.5583" width="239.5936" height="48.4" fill="#fff"/>
      <rect x="8.7766" y="9.5583" width="239.5936" height="48.4" fill="#fff1cc" opacity=".5"/>
      <rect x="8.7766" y="9.5583" width="239.5936" height="48.4" fill="none" opacity=".8" stroke="#dfa626" stroke-width=".25"/>
    </g>
    <g>
      <rect x="8.7766" y="121.7583" width="239.5936" height="48.4" fill="#fff"/>
      <rect x="8.7766" y="121.7583" width="239.5936" height="48.4" fill="#fff1cc" opacity=".5"/>
      <rect x="8.7766" y="121.7583" width="239.5936" height="48.4" fill="none" opacity=".8" stroke="#dfa626" stroke-width=".25"/>
    </g>
    <path d="M39.5778,143.0654v4.1748h-4.5v-2.25h-2.25v-2.25h-2.25v-1.8193c-.4336.2285-.8877.4014-1.3623.5186s-.958.1758-1.4502.1758c-.5684,0-1.1162-.0732-1.6436-.2197s-1.0195-.3545-1.4766-.624-.873-.5918-1.248-.9668-.7002-.7939-.9756-1.2568c-.2754-.4629-.4834-.9551-.624-1.4766s-.2139-1.0693-.2197-1.6436c0-.5684.0732-1.1162.2197-1.6436.1465-.5273.3545-1.0195.624-1.4766s.5918-.873.9668-1.248.7939-.7002,1.2568-.9756.9551-.4834,1.4766-.624c.5215-.1406,1.0693-.2139,1.6436-.2197.5684,0,1.1162.0732,1.6436.2197.5273.1465,1.0195.3545,1.4766.624s.873.5918,1.248.9668.7002.7939.9756,1.2568.4834.9551.624,1.4766c.1406.5215.2139,1.0693.2197,1.6436,0,.2988-.0234.5947-.0703.8877s-.1143.5801-.2021.8613l5.8975,5.8887ZM38.4528,143.54l-6.0645-6.0645c.1289-.334.2344-.668.3164-1.002s.123-.6826.123-1.0459c0-.6973-.1318-1.3535-.3955-1.9688s-.627-1.1514-1.0898-1.6084-.999-.8174-1.6084-1.0811-1.2656-.3984-1.9688-.4043c-.6973,0-1.3535.1318-1.9688.3955s-1.1514.627-1.6084,1.0898c-.457.4629-.8174.999-1.0811,1.6084-.2637.6094-.3984,1.2656-.4043,1.9688,0,.6973.1318,1.3535.3955,1.9688s.627,1.1514,1.0898,1.6084c.4629.457.999.8174,1.6084,1.0811.6094.2637,1.2656.3984,1.9688.4043.5684,0,1.125-.0967,1.6699-.29s1.04-.4717,1.4854-.835h.7822v2.25h2.25v2.25h2.25v2.25h2.25v-2.5752ZM26.0778,132.6152c.1582,0,.3047.0293.4395.0879s.252.1377.3516.2373.1816.2197.2461.3604.0938.2871.0879.4395c0,.1582-.0293.3047-.0879.4395s-.1377.252-.2373.3516-.2197.1816-.3604.2461-.2871.0938-.4395.0879c-.1582,0-.3047-.0293-.4395-.0879s-.252-.1377-.3516-.2373-.1816-.2197-.2461-.3604-.0937-.2871-.0879-.4395c0-.1582.0293-.3047.0879-.4395s.1377-.252.2373-.3516.2197-.1816.3604-.2461.2871-.0937.4395-.0879Z"/>
    <line x1="128.5734" y1="57.9583" x2="128.5734" y2="77.9583" fill="none" stroke="#3c3c41" stroke-miterlimit="10"/>
    <g>
      <line x1="128.5734" y1="99.5583" x2="128.5734" y2="116.1761" fill="none" stroke="#3c3c41" stroke-miterlimit="10"/>
      <polygon points="124.8336 115.0818 128.5734 121.5583 132.3131 115.0818 124.8336 115.0818" fill="#3c3c41"/>
    </g>
    <g>
      <line x1="128.5734" y1="282.5583" x2="128.5734" y2="299.1761" fill="none" stroke="#3c3c41" stroke-miterlimit="10"/>
      <polygon points="124.8336 298.0818 128.5734 304.5583 132.3131 298.0818 124.8336 298.0818" fill="#3c3c41"/>
    </g>
    <line x1="87.1077" y1="170.4198" x2="87.1077" y2="190.4198" fill="none" stroke="#3c3c41" stroke-miterlimit="10"/>
    <g>
      <line x1="87.1077" y1="212.0198" x2="87.1077" y2="228.6376" fill="none" stroke="#3c3c41" stroke-miterlimit="10"/>
      <polygon points="83.3679 227.5434 87.1077 234.0198 90.8474 227.5434 83.3679 227.5434" fill="#3c3c41"/>
    </g>
    <line x1="171.008" y1="234.0198" x2="171.008" y2="214.0198" fill="none" stroke="#3c3c41" stroke-miterlimit="10"/>
    <g>
      <line x1="171.008" y1="192.4198" x2="171.008" y2="175.802" fill="none" stroke="#3c3c41" stroke-miterlimit="10"/>
      <polygon points="174.7478 176.8962 171.008 170.4198 167.2683 176.8962 174.7478 176.8962" fill="#3c3c41"/>
    </g>
    <g>
      <path d="M5.5314,239.7485l-.3222,1.1792c-.1201.3772-.2883.9313-.379,1.4245-.1292.341-.1998.7109-.1998,1.0972,0,1.5931,1.2035,2.9048,2.7508,3.0763.4354.0628.9281.0596,1.4804-.0216l2.5372-.3502c.638-.088,1.1618-.5486,1.3315-1.1701l1.7462-6.4137-8.945,1.1783Z" fill="url(#linear-gradient-2)" fill-rule="evenodd"/>
      <path d="M8.0062,240.0522c-2.6743.4143-3.2233,2.4323-3.2233,2.4323l2.5611-9.4102,13.3825-1.8104-1.8251,6.6287c-.0949.3552-.3932.6274-.7631.6838l-.0747.0124-10.1325,1.4763.0751-.0128Z" fill="url(#linear-gradient-3)"/>
      <path d="M8.0062,240.0522c-2.6743.4143-3.2233,2.4323-3.2233,2.4323l2.5611-9.4102,13.3825-1.8104-1.8251,6.6287c-.0949.3552-.3932.6274-.7631.6838l-.0747.0124-10.1325,1.4763.0751-.0128Z" fill="url(#linear-gradient-4)" fill-opacity=".8"/>
      <path d="M9.5238,234.0482l14.8152-2.1885c.3524-.0481.638-.3061.7278-.6439l1.529-5.5333c.0211-.0752.0321-.1545.0321-.236,0-.4844-.3924-.8772-.8772-.8772-.0376,0-.0752.0023-.1114.0069l-14.1364,2.089c-1.5353.2466-2.7751,1.3791-3.1775,2.8563l-2.0386,7.3885c.4093-1.4946.6609-2.3956,3.2371-2.8617Z" fill="url(#linear-gradient-5)"/>
      <path d="M9.5238,234.0482l14.8152-2.1885c.3524-.0481.638-.3061.7278-.6439l1.529-5.5333c.0211-.0752.0321-.1545.0321-.236,0-.4844-.3924-.8772-.8772-.8772-.0376,0-.0752.0023-.1114.0069l-14.1364,2.089c-1.5353.2466-2.7751,1.3791-3.1775,2.8563l-2.0386,7.3885c.4093-1.4946.6609-2.3956,3.2371-2.8617Z" fill="url(#linear-gradient-6)"/>
      <path d="M9.5238,234.0482l14.8152-2.1885c.3524-.0481.638-.3061.7278-.6439l1.529-5.5333c.0211-.0752.0321-.1545.0321-.236,0-.4844-.3924-.8772-.8772-.8772-.0376,0-.0752.0023-.1114.0069l-14.1364,2.089c-1.5353.2466-2.7751,1.3791-3.1775,2.8563l-2.0386,7.3885c.4093-1.4946.6609-2.3956,3.2371-2.8617Z" fill="url(#linear-gradient-7)" fill-opacity=".4"/>
      <path d="M9.5237,234.0485c-2.1454.3882-2.678,1.0793-3.0327,2.1623l-1.7082,6.2749s.5459-1.9978,3.1876-2.425l10.0936-1.4703.0747-.0124c.3699-.0564.6682-.3291.7631-.6838l1.5015-5.4531-10.8796,1.6073Z" fill="url(#linear-gradient-8)"/>
      <path d="M9.5237,234.0485c-2.1454.3882-2.678,1.0793-3.0327,2.1623l-1.7082,6.2749s.5459-1.9978,3.1876-2.425l10.0936-1.4703.0747-.0124c.3699-.0564.6682-.3291.7631-.6838l1.5015-5.4531-10.8796,1.6073Z" fill="url(#linear-gradient-9)" fill-opacity=".2"/>
      <path d="M7.9706,240.0608c-2.2325.3612-2.9658,1.8397-3.1404,2.2902-.1292.3419-.1998.7118-.1998,1.0982,0,1.5931,1.2035,2.9048,2.7508,3.0762.4354.0628.9281.0596,1.4804-.0216l2.5372-.3501c.638-.088,1.1618-.5486,1.3315-1.1701l1.5917-5.8477-6.3509.9253-.0004-.0005Z" fill="url(#linear-gradient-10)" fill-rule="evenodd"/>
    </g>
    <g>
      <g>
        <path d="M28.7975,329.0247h24.872v13.8698c0,.4606-.3734.8339-.8339.8339h-23.2041c-.4606,0-.8339-.3734-.8339-.8339v-13.8698Z" fill="url(#linear-gradient-11)"/>
        <path d="M29.6314,323.7285h23.2041c.4606,0,.8339.3734.8339.8339v4.4623h-24.872v-4.477c.008-.4549.379-.8194.8339-.8193Z" fill="#40beaf"/>
        <path d="M32.1771,330.6341h18.098c.2124.0079.3805.1824.3804.395v2.0483c.0001.2126-.168.3872-.3804.395h-18.098c-.2124-.0079-.3805-.1824-.3804-.395v-2.0483c-.0001-.2126.168-.3872.3804-.395Z" fill="#fff"/>
        <path d="M32.1918,334.716h18.098c.2124.0079.3805.1824.3804.395v2.0629c.0001.2126-.168.3872-.3804.395h-18.098c-.2124-.0079-.3805-.1824-.3804-.395v-1.9898c-.0404-.2144.1006-.421.3149-.4614.0216-.0041.0435-.0063.0654-.0068Z" fill="#40beaf"/>
        <path d="M32.1918,338.8418h18.098c.2124.0079.3805.1824.3804.395v2.0629c.0001.2126-.168.3872-.3804.395h-18.098c-.2124-.0079-.3805-.1824-.3804-.395v-2.0629c-.0001-.2126.168-.3872.3804-.395Z" fill="#258378"/>
      </g>
      <path d="M49.6833,315.3248v4.5066c0,.8861-.1115,1.7222-.3345,2.5086-.223.7863-.5311,1.5286-.9242,2.2269s-.8567,1.3526-1.3907,1.9628-1.1149,1.1824-1.7428,1.7164-1.2851,1.0357-1.9716,1.5051-1.3819.9095-2.0861,1.3203c-.6983-.4108-1.3907-.8479-2.0773-1.3115s-1.3438-.9653-1.9716-1.5051c-.6279-.5399-1.2088-1.1149-1.7428-1.7252-.534-.6103-1.0005-1.2645-1.3995-1.9628-.399-.6983-.7071-1.4406-.9242-2.2269-.2171-.7863-.3286-1.6225-.3345-2.5086v-4.5066c.487,0,.9594-.0176,1.4171-.0528s.9037-.0998,1.3379-.1936.8626-.2259,1.2851-.3961.845-.3902,1.2675-.6601c.4988-.3227.9976-.5604,1.4963-.713.4988-.1526,1.0474-.2318,1.646-.2377.2993,0,.5839.0176.8538.0528s.5311.0939.7834.176c.2523.0822.5046.1819.757.2993.2523.1174.5017.2582.7482.4225.4225.2699.845.49,1.2675.6601s.8509.3022,1.2851.3961.8802.1584,1.3379.1936.9301.0528,1.4171.0528ZM48.5567,319.8314v-3.3976c-.8743-.0469-1.7105-.1878-2.5086-.4225s-1.5697-.5897-2.3149-1.065c-.399-.2582-.7951-.446-1.1883-.5633s-.8303-.179-1.3115-.1848c-.4753,0-.9095.0587-1.3027.176s-.7922.3081-1.1971.5721c-.7394.4753-1.5081.8303-2.3061,1.065s-1.6372.3756-2.5174.4225v3.3976c0,.7452.0968,1.4611.2905,2.1477s.4636,1.3379.8098,1.954c.3462.6161.7511,1.2029,1.2147,1.7604s.9682,1.0797,1.5139,1.5667,1.112.9418,1.6988,1.3643,1.1853.8039,1.7956,1.1443c.5985-.3462,1.1941-.7276,1.7868-1.1443s1.1619-.8685,1.7076-1.3555,1.0504-1.0093,1.5139-1.5667.8685-1.1443,1.2147-1.7604.6132-1.2704.801-1.9628c.1878-.6924.2875-1.4083.2993-2.1477ZM41.2335,315.8882c.3873,0,.7511.0733,1.0914.22s.6367.3491.889.6073.4548.5575.6073.8978c.1526.3403.2289.7042.2289,1.0914v1.1267h1.1267v5.6333h-7.8866v-5.6333h1.1267v-1.1267c0-.3873.0733-.7511.22-1.0914.1467-.3403.3462-.6367.5985-.889s.5516-.4548.8978-.6073.713-.2289,1.1002-.2289ZM44.0501,324.338v-3.38h-5.6333v3.38h5.6333ZM39.5435,319.8314h3.38v-1.1267c0-.2347-.044-.4548-.132-.6601s-.2083-.3844-.3609-.5369c-.1526-.1526-.3315-.2729-.5369-.3609-.2054-.088-.4254-.132-.6601-.132s-.4548.044-.6601.132-.3844.2083-.5369.3609c-.1526.1526-.2729.3315-.3609.5369s-.132.4254-.132.6601v1.1267Z"/>
    </g>
  </g>
  <g id="Text">
    <g>
      <path d="M90.6326,23.5533h-2.7959v8.0049h-2.2148v-8.0049h-2.7822v-1.7979h7.793v1.7979Z" fill="#2f2f2f"/>
      <path d="M91.784,31.5582v-9.8027h3.4727c3.4819,0,5.2227,1.5928,5.2227,4.7783,0,1.5269-.4751,2.7456-1.4253,3.6572s-2.2158,1.3672-3.7974,1.3672h-3.4727ZM93.992,23.5533v6.2139h1.0938c.957,0,1.708-.2871,2.2524-.8613s.8169-1.356.8169-2.3447c0-.9341-.27-1.6689-.8101-2.2046s-1.2979-.8032-2.2729-.8032h-1.0801Z" fill="#2f2f2f"/>
      <path d="M107.9266,31.5582h-5.8789v-9.8027h5.6533v1.7979h-3.4453v2.1807h3.2061v1.791h-3.2061v2.2422h3.6709v1.791Z" fill="#2f2f2f"/>
      <path d="M115.3367,30.7447h-.0273v4.0332h-2.1602v-10.2197h2.1602v1.0527h.0273c.5332-.8159,1.2827-1.2236,2.249-1.2236.9067,0,1.6074.311,2.1021.9331s.7417,1.4688.7417,2.5396c0,1.1665-.2881,2.103-.8647,2.8096s-1.3433,1.0596-2.3003,1.0596c-.8433,0-1.4858-.3281-1.9277-.9844ZM115.2752,27.8736v.5605c0,.4829.1274.8774.3828,1.1826s.5903.458,1.0049.458c.4922,0,.874-.1904,1.145-.5708s.4067-.9194.4067-1.6167c0-1.2305-.4785-1.8457-1.4355-1.8457-.4419,0-.8032.1675-1.0835.5024s-.4204.7783-.4204,1.3296Z" fill="#2f2f2f"/>
      <path d="M126.4124,26.5064c-.2598-.1411-.563-.2119-.9092-.2119-.4692,0-.8364.1719-1.1006.5161s-.3965.8125-.3965,1.4048v3.3428h-2.1602v-7h2.1602v1.2988h.0273c.3418-.9478.957-1.4219,1.8457-1.4219.228,0,.4058.0273.5332.082v1.9893Z" fill="#2f2f2f"/>
      <path d="M130.8387,31.7291c-1.1665,0-2.084-.3271-2.7515-.981s-1.0015-1.5415-1.0015-2.6626c0-1.1577.3462-2.0635,1.0391-2.7173s1.6294-.981,2.8096-.981c1.1621,0,2.0737.3271,2.7344.981s.9912,1.5186.9912,2.5942c0,1.1621-.3408,2.0806-1.022,2.7549s-1.6143,1.0117-2.7993,1.0117ZM130.8934,26.0416c-.5103,0-.9067.1753-1.1895.5264s-.4238.8477-.4238,1.4902c0,1.3442.5425,2.0166,1.627,2.0166,1.0347,0,1.5518-.6904,1.5518-2.0713,0-1.3081-.522-1.9619-1.5654-1.9619Z" fill="#2f2f2f"/>
      <path d="M140.2352,31.4762c-.3188.1685-.7998.2529-1.4424.2529-1.522,0-2.2832-.7905-2.2832-2.3721v-3.2061h-1.1348v-1.5928h1.1348v-1.5107l2.1533-.6152v2.126h1.5723v1.5928h-1.5723v2.8301c0,.729.2896,1.0938.8682,1.0938.228,0,.4624-.0659.7041-.1982v1.5996Z" fill="#2f2f2f"/>
      <path d="M147.7215,28.6734h-4.5664c.0728,1.0161.7134,1.5244,1.9209,1.5244.77,0,1.4468-.1821,2.0303-.5469v1.5586c-.647.3462-1.4878.5195-2.5225.5195-1.1304,0-2.0073-.3135-2.6318-.9399s-.9365-1.5005-.9365-2.6216c0-1.1621.3374-2.0825,1.0117-2.7617s1.5039-1.0186,2.4883-1.0186c1.021,0,1.8105.3032,2.3687.9092s.8374,1.4287.8374,2.4678v.9092ZM145.7186,27.3473c0-1.0024-.4058-1.5039-1.2168-1.5039-.3462,0-.646.1436-.8989.4307s-.4067.645-.4614,1.0732h2.5771Z" fill="#2f2f2f"/>
      <path d="M154.3929,31.3053c-.4878.2827-1.1919.4238-2.1123.4238-1.0757,0-1.9458-.3257-2.6113-.9775s-.998-1.4927-.998-2.5225c0-1.1895.3564-2.127,1.0698-2.813s1.667-1.0288,2.8608-1.0288c.8247,0,1.4219.1094,1.791.3281v1.832c-.4512-.3374-.9546-.5059-1.5107-.5059-.6196,0-1.1108.1812-1.4731.5435s-.5435.8623-.5435,1.5005c0,.6196.1733,1.1064.5195,1.4595s.8228.5298,1.4287.5298c.5376,0,1.064-.1685,1.5791-.5059v1.7363Z" fill="#2f2f2f"/>
      <path d="M160.1204,31.4762c-.3188.1685-.7998.2529-1.4424.2529-1.522,0-2.2832-.7905-2.2832-2.3721v-3.2061h-1.1348v-1.5928h1.1348v-1.5107l2.1533-.6152v2.126h1.5723v1.5928h-1.5723v2.8301c0,.729.2896,1.0938.8682,1.0938.228,0,.4624-.0659.7041-.1982v1.5996Z" fill="#2f2f2f"/>
      <path d="M164.6536,31.7291c-1.1665,0-2.084-.3271-2.7515-.981s-1.0015-1.5415-1.0015-2.6626c0-1.1577.3462-2.0635,1.0391-2.7173s1.6294-.981,2.8096-.981c1.1621,0,2.0737.3271,2.7344.981s.9912,1.5186.9912,2.5942c0,1.1621-.3408,2.0806-1.022,2.7549s-1.6143,1.0117-2.7993,1.0117ZM164.7083,26.0416c-.5103,0-.9067.1753-1.1895.5264s-.4238.8477-.4238,1.4902c0,1.3442.5425,2.0166,1.627,2.0166,1.0347,0,1.5518-.6904,1.5518-2.0713,0-1.3081-.522-1.9619-1.5654-1.9619Z" fill="#2f2f2f"/>
      <path d="M174.4231,26.5064c-.2598-.1411-.563-.2119-.9092-.2119-.4692,0-.8364.1719-1.1006.5161s-.3965.8125-.3965,1.4048v3.3428h-2.1602v-7h2.1602v1.2988h.0273c.3418-.9478.957-1.4219,1.8457-1.4219.228,0,.4058.0273.5332.082v1.9893Z" fill="#2f2f2f"/>
      <path d="M121.1604,48.0094c-.7153.3462-1.6499.5195-2.8027.5195-1.5039,0-2.6865-.4419-3.5479-1.3262s-1.292-2.062-1.292-3.5342c0-1.5679.4844-2.8394,1.4526-3.8145s2.2251-1.4629,3.77-1.4629c.957,0,1.7637.1206,2.4199.3623v2.126c-.6562-.3921-1.4038-.5879-2.2422-.5879-.9204,0-1.6636.2896-2.2285.8682s-.8477,1.3628-.8477,2.3516c0,.9478.2666,1.7031.7998,2.2661s1.251.8442,2.1533.8442c.8613,0,1.6499-.2095,2.3652-.6289v2.0166Z" fill="#2f2f2f"/>
      <path d="M134.055,48.358h-2.1807v-5.8652c0-.6333.0273-1.333.082-2.0986h-.0547c-.1138.6016-.2163,1.0347-.3076,1.2988l-2.2969,6.665h-1.8047l-2.3379-6.5967c-.064-.1777-.1665-.6333-.3076-1.3672h-.0615c.0591.9663.0889,1.814.0889,2.543v5.4209h-1.9893v-9.8027h3.2334l2.0029,5.8105c.1597.4648.2759.9321.3486,1.4014h.041c.123-.5425.2529-1.0142.3896-1.415l2.0029-5.7969h3.1514v9.8027Z" fill="#2f2f2f"/>
      <path d="M144.3182,48.358h-2.7891l-2.8574-4.2588c-.0547-.082-.1411-.2622-.2598-.54h-.0342v4.7988h-2.208v-9.8027h2.208v4.6348h.0342c.0547-.1274.146-.3101.2734-.5469l2.707-4.0879h2.6318l-3.418,4.6758,3.7119,5.127Z" fill="#2f2f2f"/>
    </g>
    <g>
      <path d="M47.6478,142.9581v-9.8027h3.4727c3.4819,0,5.2227,1.5928,5.2227,4.7783,0,1.5269-.4751,2.7456-1.4253,3.6572s-2.2158,1.3672-3.7974,1.3672h-3.4727ZM49.8558,134.9532v6.2139h1.0938c.957,0,1.708-.2871,2.2524-.8613s.8169-1.356.8169-2.3447c0-.9341-.27-1.6689-.8101-2.2046s-1.2979-.8032-2.2729-.8032h-1.0801Z" fill="#2f2f2f"/>
      <path d="M63.5569,142.9581h-2.0439v-1.0049h-.0273c-.4692.7837-1.1646,1.1758-2.085,1.1758-.6792,0-1.2134-.1924-1.603-.5776s-.5845-.8989-.5845-1.5415c0-1.3579.8042-2.1421,2.4131-2.3516l1.9004-.2529c0-.7656-.4146-1.1484-1.2441-1.1484-.834,0-1.627.2485-2.3789.7451v-1.627c.3008-.1548.7119-.2915,1.2339-.4102s.9971-.1777,1.4253-.1777c1.9961,0,2.9941.9956,2.9941,2.9873v4.1836ZM61.5267,140.1144v-.4717l-1.2715.1641c-.7017.0913-1.0527.4077-1.0527.9502,0,.2461.0854.4478.2563.605s.4023.2358.6938.2358c.4058,0,.7358-.1401.9912-.4204s.3828-.6348.3828-1.063Z" fill="#2f2f2f"/>
      <path d="M69.3855,142.8761c-.3188.1685-.7998.2529-1.4424.2529-1.522,0-2.2832-.7905-2.2832-2.3721v-3.2061h-1.1348v-1.5928h1.1348v-1.5107l2.1533-.6152v2.126h1.5723v1.5928h-1.5723v2.8301c0,.729.2896,1.0938.8682,1.0938.228,0,.4624-.0659.7041-.1982v1.5996Z" fill="#2f2f2f"/>
      <path d="M76.5667,142.9581h-2.0439v-1.0049h-.0273c-.4692.7837-1.1646,1.1758-2.085,1.1758-.6792,0-1.2134-.1924-1.603-.5776s-.5845-.8989-.5845-1.5415c0-1.3579.8042-2.1421,2.4131-2.3516l1.9004-.2529c0-.7656-.4146-1.1484-1.2441-1.1484-.834,0-1.627.2485-2.3789.7451v-1.627c.3008-.1548.7119-.2915,1.2339-.4102s.9971-.1777,1.4253-.1777c1.9961,0,2.9941.9956,2.9941,2.9873v4.1836ZM74.5364,140.1144v-.4717l-1.2715.1641c-.7017.0913-1.0527.4077-1.0527.9502,0,.2461.0854.4478.2563.605s.4023.2358.6938.2358c.4058,0,.7358-.1401.9912-.4204s.3828-.6348.3828-1.063Z" fill="#2f2f2f"/>
      <path d="M80.4505,142.1446h-.0273v.8135h-2.1602v-10.3633h2.1602v4.416h.0273c.5332-.8159,1.292-1.2236,2.2764-1.2236.9023,0,1.5972.3101,2.085.9297s.7314,1.4673.7314,2.543c0,1.1665-.2847,2.103-.8545,2.8096s-1.3306,1.0596-2.2832,1.0596c-.8613,0-1.5132-.3281-1.9551-.9844ZM80.389,139.1915v.7178c0,.4512.1299.8247.3896,1.1211s.5923.4443.998.4443c.4922,0,.874-.1904,1.145-.5708s.4067-.9194.4067-1.6167c0-.5786-.124-1.0312-.3726-1.3569s-.6025-.4888-1.063-.4888c-.4331,0-.792.1616-1.0767.4854s-.4272.7451-.4272,1.2646Z" fill="#2f2f2f"/>
      <path d="M92.7757,142.9581h-2.0439v-1.0049h-.0273c-.4692.7837-1.1646,1.1758-2.085,1.1758-.6792,0-1.2134-.1924-1.603-.5776s-.5845-.8989-.5845-1.5415c0-1.3579.8042-2.1421,2.4131-2.3516l1.9004-.2529c0-.7656-.4146-1.1484-1.2441-1.1484-.834,0-1.627.2485-2.3789.7451v-1.627c.3008-.1548.7119-.2915,1.2339-.4102s.9971-.1777,1.4253-.1777c1.9961,0,2.9941.9956,2.9941,2.9873v4.1836ZM90.7454,140.1144v-.4717l-1.2715.1641c-.7017.0913-1.0527.4077-1.0527.9502,0,.2461.0854.4478.2563.605s.4023.2358.6938.2358c.4058,0,.7358-.1401.9912-.4204s.3828-.6348.3828-1.063Z" fill="#2f2f2f"/>
      <path d="M94.1502,142.7735v-1.75c.3555.2144.71.3735,1.063.4785s.687.1572,1.0015.1572c.3828,0,.6846-.0522.9058-.1572s.3315-.2642.3315-.4785c0-.1367-.0503-.2505-.1504-.3418s-.229-.1709-.3862-.2393-.3291-.1299-.5161-.1846-.3667-.1162-.54-.1846c-.2778-.105-.5229-.2178-.7349-.3384s-.3896-.2607-.5332-.4204-.2529-.3442-.3281-.5537-.1128-.458-.1128-.7451c0-.3921.0854-.729.2563-1.0117s.3989-.5137.6836-.6938.6108-.312.9775-.3965.7485-.1265,1.145-.1265c.3101,0,.6245.0239.9434.0718s.6333.1172.9434.2085v1.668c-.2734-.1597-.5664-.2793-.8784-.3589s-.6187-.1196-.9194-.1196c-.1411,0-.2744.0127-.3999.0376s-.2358.0615-.3315.1094-.1709.1094-.2256.1846-.082.1606-.082.2563c0,.1274.041.2368.123.3281s.189.1699.3213.2358.2793.1255.4409.1777.3223.106.4819.1606c.2871.1001.5469.2095.7793.3281s.4316.2573.5981.417.2939.3462.3828.5605.1333.4692.1333.7656c0,.4146-.0898.769-.27,1.063s-.4194.5332-.7178.7178-.6426.3188-1.0322.4033-.7939.1265-1.2134.1265c-.77,0-1.4834-.1187-2.1396-.3555Z" fill="#2f2f2f"/>
      <path d="M107.0994,140.0733h-4.5664c.0728,1.0161.7134,1.5244,1.9209,1.5244.77,0,1.4468-.1821,2.0303-.5469v1.5586c-.647.3462-1.4878.5195-2.5225.5195-1.1304,0-2.0073-.3135-2.6318-.9399s-.9365-1.5005-.9365-2.6216c0-1.1621.3374-2.0825,1.0117-2.7617s1.5039-1.0186,2.4883-1.0186c1.021,0,1.8105.3032,2.3687.9092s.8374,1.4287.8374,2.4678v.9092ZM105.0965,138.7472c0-1.0024-.4058-1.5039-1.2168-1.5039-.3462,0-.646.1436-.8989.4307s-.4067.645-.4614,1.0732h2.5771Z" fill="#2f2f2f"/>
      <path d="M118.3377,142.9581h-5.8789v-9.8027h5.6533v1.7979h-3.4453v2.1807h3.2061v1.791h-3.2061v2.2422h3.6709v1.791Z" fill="#2f2f2f"/>
      <path d="M126.5516,142.9581h-2.1533v-3.8896c0-1.0845-.3872-1.627-1.1621-1.627-.3735,0-.6812.1436-.9229.4307s-.3623.6519-.3623,1.0938v3.9922h-2.1602v-7h2.1602v1.1074h.0273c.5151-.8521,1.2646-1.2783,2.249-1.2783,1.5493,0,2.3242.9614,2.3242,2.8848v4.2861Z" fill="#2f2f2f"/>
      <path d="M133.5652,142.7052c-.4878.2827-1.1919.4238-2.1123.4238-1.0757,0-1.9458-.3257-2.6113-.9775s-.998-1.4927-.998-2.5225c0-1.1895.3564-2.127,1.0698-2.813s1.667-1.0288,2.8608-1.0288c.8247,0,1.4219.1094,1.791.3281v1.832c-.4512-.3374-.9546-.5059-1.5107-.5059-.6196,0-1.1108.1812-1.4731.5435s-.5435.8623-.5435,1.5005c0,.6196.1733,1.1064.5195,1.4595s.8228.5298,1.4287.5298c.5376,0,1.064-.1685,1.5791-.5059v1.7363Z" fill="#2f2f2f"/>
      <path d="M139.6487,137.9063c-.2598-.1411-.563-.2119-.9092-.2119-.4692,0-.8364.1719-1.1006.5161s-.3965.8125-.3965,1.4048v3.3428h-2.1602v-7h2.1602v1.2988h.0273c.3418-.9478.957-1.4219,1.8457-1.4219.228,0,.4058.0273.5332.082v1.9893Z" fill="#2f2f2f"/>
      <path d="M147.7679,135.9581l-2.8438,7.5605c-.6836,1.8184-1.7134,2.7275-3.0898,2.7275-.5239,0-.9546-.0591-1.292-.1777v-1.7227c.2871.1685.5991.2529.9365.2529.5562,0,.9434-.2622,1.1621-.7861l.3691-.8682-2.8438-6.9863h2.3926l1.3057,4.2588c.082.2642.146.5767.1914.9365h.0273c.041-.2642.1162-.5718.2256-.9229l1.3193-4.2725h2.1396Z" fill="#2f2f2f"/>
      <path d="M150.8797,142.1446h-.0273v4.0332h-2.1602v-10.2197h2.1602v1.0527h.0273c.5332-.8159,1.2827-1.2236,2.249-1.2236.9067,0,1.6074.311,2.1021.9331s.7417,1.4688.7417,2.5396c0,1.1665-.2881,2.103-.8647,2.8096s-1.3433,1.0596-2.3003,1.0596c-.8433,0-1.4858-.3281-1.9277-.9844ZM150.8182,139.2735v.5605c0,.4829.1274.8774.3828,1.1826s.5903.458,1.0049.458c.4922,0,.874-.1904,1.145-.5708s.4067-.9194.4067-1.6167c0-1.2305-.4785-1.8457-1.4355-1.8457-.4419,0-.8032.1675-1.0835.5024s-.4204.7783-.4204,1.3296Z" fill="#2f2f2f"/>
      <path d="M161.5984,142.8761c-.3188.1685-.7998.2529-1.4424.2529-1.522,0-2.2832-.7905-2.2832-2.3721v-3.2061h-1.1348v-1.5928h1.1348v-1.5107l2.1533-.6152v2.126h1.5723v1.5928h-1.5723v2.8301c0,.729.2896,1.0938.8682,1.0938.228,0,.4624-.0659.7041-.1982v1.5996Z" fill="#2f2f2f"/>
      <path d="M163.9759,134.8507c-.3647,0-.6631-.1084-.8955-.3247s-.3486-.4819-.3486-.7964c0-.3237.1162-.5879.3486-.793s.5308-.3076.8955-.3076c.3691,0,.6689.1025.8989.3076s.3452.4692.3452.793c0,.3281-.1152.5972-.3452.8066s-.5298.3145-.8989.3145ZM165.0423,142.9581h-2.1602v-7h2.1602v7Z" fill="#2f2f2f"/>
      <path d="M170.1531,143.129c-1.1665,0-2.084-.3271-2.7515-.981s-1.0015-1.5415-1.0015-2.6626c0-1.1577.3462-2.0635,1.0391-2.7173s1.6294-.981,2.8096-.981c1.1621,0,2.0737.3271,2.7344.981s.9912,1.5186.9912,2.5942c0,1.1621-.3408,2.0806-1.022,2.7549s-1.6143,1.0117-2.7993,1.0117ZM170.2078,137.4415c-.5103,0-.9067.1753-1.1895.5264s-.4238.8477-.4238,1.4902c0,1.3442.5425,2.0166,1.627,2.0166,1.0347,0,1.5518-.6904,1.5518-2.0713,0-1.3081-.522-1.9619-1.5654-1.9619Z" fill="#2f2f2f"/>
      <path d="M182.1155,142.9581h-2.1533v-3.8896c0-1.0845-.3872-1.627-1.1621-1.627-.3735,0-.6812.1436-.9229.4307s-.3623.6519-.3623,1.0938v3.9922h-2.1602v-7h2.1602v1.1074h.0273c.5151-.8521,1.2646-1.2783,2.249-1.2783,1.5493,0,2.3242.9614,2.3242,2.8848v4.2861Z" fill="#2f2f2f"/>
      <path d="M196.0472,142.9581h-2.7891l-2.8574-4.2588c-.0547-.082-.1411-.2622-.2598-.54h-.0342v4.7988h-2.208v-9.8027h2.208v4.6348h.0342c.0547-.1274.146-.3101.2734-.5469l2.707-4.0879h2.6318l-3.418,4.6758,3.7119,5.127Z" fill="#2f2f2f"/>
      <path d="M202.7742,140.0733h-4.5664c.0728,1.0161.7134,1.5244,1.9209,1.5244.77,0,1.4468-.1821,2.0303-.5469v1.5586c-.647.3462-1.4878.5195-2.5225.5195-1.1304,0-2.0073-.3135-2.6318-.9399s-.9365-1.5005-.9365-2.6216c0-1.1621.3374-2.0825,1.0117-2.7617s1.5039-1.0186,2.4883-1.0186c1.021,0,1.8105.3032,2.3687.9092s.8374,1.4287.8374,2.4678v.9092ZM200.7713,138.7472c0-1.0024-.4058-1.5039-1.2168-1.5039-.3462,0-.646.1436-.8989.4307s-.4067.645-.4614,1.0732h2.5771Z" fill="#2f2f2f"/>
      <path d="M210.6194,135.9581l-2.8438,7.5605c-.6836,1.8184-1.7134,2.7275-3.0898,2.7275-.5239,0-.9546-.0591-1.292-.1777v-1.7227c.2871.1685.5991.2529.9365.2529.5562,0,.9434-.2622,1.1621-.7861l.3691-.8682-2.8438-6.9863h2.3926l1.3057,4.2588c.082.2642.146.5767.1914.9365h.0273c.041-.2642.1162-.5718.2256-.9229l1.3193-4.2725h2.1396Z" fill="#2f2f2f"/>
      <path d="M114.8812,161.9864h-1.7637c-1.4722-1.6226-2.208-3.6162-2.208-5.9814,0-2.2832.7358-4.2998,2.208-6.0498h1.75c-1.3809,1.832-2.0713,3.8486-2.0713,6.0498s.6948,4.1948,2.085,5.9814Z" fill="#2f2f2f"/>
      <path d="M115.9842,159.7579v-9.8027h3.4727c3.4819,0,5.2227,1.5928,5.2227,4.7783,0,1.5269-.4751,2.7456-1.4253,3.6572s-2.2158,1.3672-3.7974,1.3672h-3.4727ZM118.1922,151.753v6.2139h1.0938c.957,0,1.708-.2871,2.2524-.8613s.8169-1.356.8169-2.3447c0-.9341-.27-1.6689-.8101-2.2046s-1.2979-.8032-2.2729-.8032h-1.0801Z" fill="#2f2f2f"/>
      <path d="M132.1263,159.7579h-5.8789v-9.8027h5.6533v1.7979h-3.4453v2.1807h3.2061v1.791h-3.2061v2.2422h3.6709v1.791Z" fill="#2f2f2f"/>
      <path d="M141.9046,159.7579h-2.7891l-2.8574-4.2588c-.0547-.082-.1411-.2622-.2598-.54h-.0342v4.7988h-2.208v-9.8027h2.208v4.6348h.0342c.0547-.1274.146-.3101.2734-.5469l2.707-4.0879h2.6318l-3.418,4.6758,3.7119,5.127Z" fill="#2f2f2f"/>
      <path d="M143.9808,161.9864h-1.75c1.3945-1.7773,2.0918-3.771,2.0918-5.9814,0-2.1919-.6973-4.2085-2.0918-6.0498h1.7637c1.4766,1.7544,2.2148,3.771,2.2148,6.0498,0,2.3472-.7427,4.3408-2.2285,5.9814Z" fill="#2f2f2f"/>
    </g>
    <g>
      <path d="M67.5418,263.5821v-2.1875c.3965.3325.8271.582,1.292.7485s.9341.2495,1.4082.2495c.2778,0,.5205-.0249.728-.0752s.3804-.1196.5195-.2085.2427-.1938.311-.3145.1025-.252.1025-.3931c0-.1914-.0547-.3623-.1641-.5127s-.2588-.2896-.4478-.417-.4136-.2505-.6733-.3691-.54-.2393-.8408-.3623c-.7656-.3188-1.3364-.7085-1.7124-1.1689s-.564-1.0161-.564-1.668c0-.5103.1025-.9492.3076-1.3159s.4844-.6689.8374-.9058.7622-.4111,1.2271-.5229.957-.1675,1.4766-.1675c.5103,0,.9629.0308,1.3569.0923s.7578.1562,1.0903.2837v2.0439c-.1641-.1138-.3428-.2144-.5366-.3008s-.3931-.1582-.5981-.2153-.4092-.0991-.6118-.1265-.3955-.041-.5776-.041c-.2505,0-.4785.0239-.6836.0718s-.3784.1152-.5195.2017-.2505.1904-.3281.311-.1162.2563-.1162.4067c0,.1641.0435.311.1299.4409s.2095.2529.3691.3691.353.23.5811.3418.4854.2266.7725.3452c.3921.1641.7441.3384,1.0562.5229s.5801.3931.8032.6255.394.498.5127.7964.1777.646.1777,1.0425c0,.5469-.1035,1.0059-.311,1.3774s-.4888.6724-.8442.9023-.769.3955-1.2407.4956-.9697.1504-1.4937.1504c-.5376,0-1.0493-.0454-1.5347-.1367s-.9058-.228-1.2612-.4102Z" fill="#2f2f2f"/>
      <path d="M79.9021,264.129c-1.4038,0-2.5474-.4556-3.4316-1.3672-.8843-.9204-1.3262-2.1123-1.3262-3.5752,0-1.5449.4487-2.7983,1.3467-3.7598.8931-.957,2.0825-1.4355,3.5684-1.4355,1.3989,0,2.5293.458,3.3906,1.374.8657.9116,1.2988,2.1191,1.2988,3.623,0,1.5356-.4487,2.7778-1.3467,3.7256-.0317.0317-.0615.0625-.0889.0923s-.0571.0581-.0889.0854l2.4814,2.3857h-3.0898l-1.2988-1.3193c-.4282.1138-.8999.1709-1.415.1709ZM79.9979,255.8917c-.77,0-1.3853.2915-1.8457.875-.4556.5786-.6836,1.3467-.6836,2.3037,0,.9707.228,1.7388.6836,2.3037s1.0527.8477,1.791.8477c.7612,0,1.3647-.2734,1.8115-.8203.4468-.5562.6699-1.3193.6699-2.29,0-1.0117-.2163-1.8022-.6494-2.3721-.4282-.5649-1.021-.8477-1.7773-.8477Z" fill="#2f2f2f"/>
      <path d="M92.1658,263.9581h-5.8379v-9.8027h2.208v8.0117h3.6299v1.791Z" fill="#2f2f2f"/>
      <path d="M103.9852,263.9581h-2.1602v-.9639h-.0273c-.4922.7563-1.2144,1.1348-2.167,1.1348-.875,0-1.5791-.3086-2.1123-.9263s-.7998-1.48-.7998-2.5874c0-1.1577.2939-2.085.8818-2.7822s1.3579-1.0459,2.3105-1.0459c.9023,0,1.5312.3237,1.8867.9707h.0273v-4.1631h2.1602v10.3633ZM101.866,260.5538v-.5264c0-.4556-.1323-.834-.3965-1.1348s-.6084-.4512-1.0322-.4512c-.4785,0-.8521.188-1.1211.564s-.4033.8921-.4033,1.5483c0,.6152.1299,1.0894.3896,1.4219s.6196.499,1.0801.499c.4375,0,.7939-.1753,1.0698-.5264s.4136-.8159.4136-1.3945Z" fill="#2f2f2f"/>
      <path d="M111.6336,263.9581h-2.0439v-1.0049h-.0273c-.4692.7837-1.1646,1.1758-2.085,1.1758-.6792,0-1.2134-.1924-1.603-.5776s-.5845-.8989-.5845-1.5415c0-1.3579.8042-2.1421,2.4131-2.3516l1.9004-.2529c0-.7656-.4146-1.1484-1.2441-1.1484-.834,0-1.627.2485-2.3789.7451v-1.627c.3008-.1548.7119-.2915,1.2339-.4102s.9971-.1777,1.4253-.1777c1.9961,0,2.9941.9956,2.9941,2.9873v4.1836ZM109.6033,261.1144v-.4717l-1.2715.1641c-.7017.0913-1.0527.4077-1.0527.9502,0,.2461.0854.4478.2563.605s.4023.2358.6938.2358c.4058,0,.7358-.1401.9912-.4204s.3828-.6348.3828-1.063Z" fill="#2f2f2f"/>
      <path d="M117.4617,263.8761c-.3188.1685-.7998.2529-1.4424.2529-1.522,0-2.2832-.7905-2.2832-2.3721v-3.2061h-1.1348v-1.5928h1.1348v-1.5107l2.1533-.6152v2.126h1.5723v1.5928h-1.5723v2.8301c0,.729.2896,1.0938.8682,1.0938.228,0,.4624-.0659.7041-.1982v1.5996Z" fill="#2f2f2f"/>
      <path d="M124.6429,263.9581h-2.0439v-1.0049h-.0273c-.4692.7837-1.1646,1.1758-2.085,1.1758-.6792,0-1.2134-.1924-1.603-.5776s-.5845-.8989-.5845-1.5415c0-1.3579.8042-2.1421,2.4131-2.3516l1.9004-.2529c0-.7656-.4146-1.1484-1.2441-1.1484-.834,0-1.627.2485-2.3789.7451v-1.627c.3008-.1548.7119-.2915,1.2339-.4102s.9971-.1777,1.4253-.1777c1.9961,0,2.9941.9956,2.9941,2.9873v4.1836ZM122.6126,261.1144v-.4717l-1.2715.1641c-.7017.0913-1.0527.4077-1.0527.9502,0,.2461.0854.4478.2563.605s.4023.2358.6938.2358c.4058,0,.7358-.1401.9912-.4204s.3828-.6348.3828-1.063Z" fill="#2f2f2f"/>
      <path d="M128.5267,263.1446h-.0273v.8135h-2.1602v-10.3633h2.1602v4.416h.0273c.5332-.8159,1.292-1.2236,2.2764-1.2236.9023,0,1.5972.3101,2.085.9297s.7314,1.4673.7314,2.543c0,1.1665-.2847,2.103-.8545,2.8096s-1.3306,1.0596-2.2832,1.0596c-.8613,0-1.5132-.3281-1.9551-.9844ZM128.4651,260.1915v.7178c0,.4512.1299.8247.3896,1.1211s.5923.4443.998.4443c.4922,0,.874-.1904,1.145-.5708s.4067-.9194.4067-1.6167c0-.5786-.124-1.0312-.3726-1.3569s-.6025-.4888-1.063-.4888c-.4331,0-.792.1616-1.0767.4854s-.4272.7451-.4272,1.2646Z" fill="#2f2f2f"/>
      <path d="M140.8523,263.9581h-2.0439v-1.0049h-.0273c-.4692.7837-1.1646,1.1758-2.085,1.1758-.6792,0-1.2134-.1924-1.603-.5776s-.5845-.8989-.5845-1.5415c0-1.3579.8042-2.1421,2.4131-2.3516l1.9004-.2529c0-.7656-.4146-1.1484-1.2441-1.1484-.834,0-1.627.2485-2.3789.7451v-1.627c.3008-.1548.7119-.2915,1.2339-.4102s.9971-.1777,1.4253-.1777c1.9961,0,2.9941.9956,2.9941,2.9873v4.1836ZM138.8221,261.1144v-.4717l-1.2715.1641c-.7017.0913-1.0527.4077-1.0527.9502,0,.2461.0854.4478.2563.605s.4023.2358.6938.2358c.4058,0,.7358-.1401.9912-.4204s.3828-.6348.3828-1.063Z" fill="#2f2f2f"/>
      <path d="M142.2264,263.7735v-1.75c.3555.2144.71.3735,1.063.4785s.687.1572,1.0015.1572c.3828,0,.6846-.0522.9058-.1572s.3315-.2642.3315-.4785c0-.1367-.0503-.2505-.1504-.3418s-.229-.1709-.3862-.2393-.3291-.1299-.5161-.1846-.3667-.1162-.54-.1846c-.2778-.105-.5229-.2178-.7349-.3384s-.3896-.2607-.5332-.4204-.2529-.3442-.3281-.5537-.1128-.458-.1128-.7451c0-.3921.0854-.729.2563-1.0117s.3989-.5137.6836-.6938.6108-.312.9775-.3965.7485-.1265,1.145-.1265c.3101,0,.6245.0239.9434.0718s.6333.1172.9434.2085v1.668c-.2734-.1597-.5664-.2793-.8784-.3589s-.6187-.1196-.9194-.1196c-.1411,0-.2744.0127-.3999.0376s-.2358.0615-.3315.1094-.1709.1094-.2256.1846-.082.1606-.082.2563c0,.1274.041.2368.123.3281s.189.1699.3213.2358.2793.1255.4409.1777.3223.106.4819.1606c.2871.1001.5469.2095.7793.3281s.4316.2573.5981.417.2939.3462.3828.5605.1333.4692.1333.7656c0,.4146-.0898.769-.27,1.063s-.4194.5332-.7178.7178-.6426.3188-1.0322.4033-.7939.1265-1.2134.1265c-.77,0-1.4834-.1187-2.1396-.3555Z" fill="#2f2f2f"/>
      <path d="M155.1761,261.0733h-4.5664c.0728,1.0161.7134,1.5244,1.9209,1.5244.77,0,1.4468-.1821,2.0303-.5469v1.5586c-.647.3462-1.4878.5195-2.5225.5195-1.1304,0-2.0073-.3135-2.6318-.9399s-.9365-1.5005-.9365-2.6216c0-1.1621.3374-2.0825,1.0117-2.7617s1.5039-1.0186,2.4883-1.0186c1.021,0,1.8105.3032,2.3687.9092s.8374,1.4287.8374,2.4678v.9092ZM153.1731,259.7472c0-1.0024-.4058-1.5039-1.2168-1.5039-.3462,0-.646.1436-.8989.4307s-.4067.645-.4614,1.0732h2.5771Z" fill="#2f2f2f"/>
      <path d="M161.4173,255.8507c-.3647,0-.6631-.1084-.8955-.3247s-.3486-.4819-.3486-.7964c0-.3237.1162-.5879.3486-.793s.5308-.3076.8955-.3076c.3691,0,.6689.1025.8989.3076s.3452.4692.3452.793c0,.3281-.1152.5972-.3452.8066s-.5298.3145-.8989.3145ZM162.4837,263.9581h-2.1602v-7h2.1602v7Z" fill="#2f2f2f"/>
      <path d="M171.0262,263.9581h-2.1533v-3.8896c0-1.0845-.3872-1.627-1.1621-1.627-.3735,0-.6812.1436-.9229.4307s-.3623.6519-.3623,1.0938v3.9922h-2.1602v-7h2.1602v1.1074h.0273c.5151-.8521,1.2646-1.2783,2.249-1.2783,1.5493,0,2.3242.9614,2.3242,2.8848v4.2861Z" fill="#2f2f2f"/>
      <path d="M182.4764,255.9532h-3.459v2.4062h3.1787v1.791h-3.1787v3.8076h-2.208v-9.8027h5.667v1.7979Z" fill="#2f2f2f"/>
      <path d="M189.3323,263.9581h-2.0439v-1.0049h-.0273c-.4692.7837-1.1646,1.1758-2.085,1.1758-.6792,0-1.2134-.1924-1.603-.5776s-.5845-.8989-.5845-1.5415c0-1.3579.8042-2.1421,2.4131-2.3516l1.9004-.2529c0-.7656-.4146-1.1484-1.2441-1.1484-.834,0-1.627.2485-2.3789.7451v-1.627c.3008-.1548.7119-.2915,1.2339-.4102s.9971-.1777,1.4253-.1777c1.9961,0,2.9941.9956,2.9941,2.9873v4.1836ZM187.3021,261.1144v-.4717l-1.2715.1641c-.7017.0913-1.0527.4077-1.0527.9502,0,.2461.0854.4478.2563.605s.4023.2358.6938.2358c.4058,0,.7358-.1401.9912-.4204s.3828-.6348.3828-1.063Z" fill="#2f2f2f"/>
      <path d="M193.2161,263.1446h-.0273v.8135h-2.1602v-10.3633h2.1602v4.416h.0273c.5332-.8159,1.292-1.2236,2.2764-1.2236.9023,0,1.5972.3101,2.085.9297s.7314,1.4673.7314,2.543c0,1.1665-.2847,2.103-.8545,2.8096s-1.3306,1.0596-2.2832,1.0596c-.8613,0-1.5132-.3281-1.9551-.9844ZM193.1546,260.1915v.7178c0,.4512.1299.8247.3896,1.1211s.5923.4443.998.4443c.4922,0,.874-.1904,1.145-.5708s.4067-.9194.4067-1.6167c0-.5786-.124-1.0312-.3726-1.3569s-.6025-.4888-1.063-.4888c-.4331,0-.792.1616-1.0767.4854s-.4272.7451-.4272,1.2646Z" fill="#2f2f2f"/>
      <path d="M204.2923,258.9063c-.2598-.1411-.563-.2119-.9092-.2119-.4692,0-.8364.1719-1.1006.5161s-.3965.8125-.3965,1.4048v3.3428h-2.1602v-7h2.1602v1.2988h.0273c.3418-.9478.957-1.4219,1.8457-1.4219.228,0,.4058.0273.5332.082v1.9893Z" fill="#2f2f2f"/>
      <path d="M206.3782,255.8507c-.3647,0-.6631-.1084-.8955-.3247s-.3486-.4819-.3486-.7964c0-.3237.1162-.5879.3486-.793s.5308-.3076.8955-.3076c.3691,0,.6689.1025.8989.3076s.3452.4692.3452.793c0,.3281-.1152.5972-.3452.8066s-.5298.3145-.8989.3145ZM207.4446,263.9581h-2.1602v-7h2.1602v7Z" fill="#2f2f2f"/>
      <path d="M214.5242,263.7052c-.4878.2827-1.1919.4238-2.1123.4238-1.0757,0-1.9458-.3257-2.6113-.9775s-.998-1.4927-.998-2.5225c0-1.1895.3564-2.127,1.0698-2.813s1.667-1.0288,2.8608-1.0288c.8247,0,1.4219.1094,1.791.3281v1.832c-.4512-.3374-.9546-.5059-1.5107-.5059-.6196,0-1.1108.1812-1.4731.5435s-.5435.8623-.5435,1.5005c0,.6196.1733,1.1064.5195,1.4595s.8228.5298,1.4287.5298c.5376,0,1.064-.1685,1.5791-.5059v1.7363Z" fill="#2f2f2f"/>
    </g>
    <g>
      <path d="M70.6775,335.3585h-2.4062l-.6973-2.1807h-3.4863l-.6904,2.1807h-2.3926l3.5684-9.8027h2.6182l3.4863,9.8027ZM67.0682,331.4825l-1.0527-3.2949c-.0776-.2461-.1323-.54-.1641-.8818h-.0547c-.0229.2871-.0796.5718-.1709.8545l-1.0664,3.3223h2.5088Z" fill="#2f2f2f"/>
      <path d="M77.5833,335.3585h-6.2822v-.8955l3.5137-4.5117h-3.165v-1.5928h5.9062v1.0664l-3.3291,4.3408h3.3564v1.5928Z" fill="#2f2f2f"/>
      <path d="M85.4651,335.3585h-2.1533v-1.0664h-.0342c-.5332.8247-1.2466,1.2373-2.1396,1.2373-1.6226,0-2.4336-.9819-2.4336-2.9463v-4.2246h2.1533v4.0332c0,.9888.3921,1.4834,1.1758,1.4834.3872,0,.6973-.1357.9297-.4067s.3486-.6392.3486-1.104v-4.0059h2.1533v7Z" fill="#2f2f2f"/>
      <path d="M91.7996,330.3067c-.2598-.1411-.563-.2119-.9092-.2119-.4692,0-.8364.1719-1.1006.5161s-.3965.8125-.3965,1.4048v3.3428h-2.1602v-7h2.1602v1.2988h.0273c.3418-.9478.957-1.4219,1.8457-1.4219.228,0,.4058.0273.5332.082v1.9893Z" fill="#2f2f2f"/>
      <path d="M99.1722,332.4737h-4.5664c.0728,1.0161.7134,1.5244,1.9209,1.5244.77,0,1.4468-.1821,2.0303-.5469v1.5586c-.647.3462-1.4878.5195-2.5225.5195-1.1304,0-2.0073-.3135-2.6318-.9399s-.9365-1.5005-.9365-2.6216c0-1.1621.3374-2.0825,1.0117-2.7617s1.5039-1.0186,2.4883-1.0186c1.021,0,1.8105.3032,2.3687.9092s.8374,1.4287.8374,2.4678v.9092ZM97.1692,331.1476c0-1.0024-.4058-1.5039-1.2168-1.5039-.3462,0-.646.1436-.8989.4307s-.4067.645-.4614,1.0732h2.5771Z" fill="#2f2f2f"/>
      <path d="M103.8616,335.1739v-1.75c.3555.2144.71.3735,1.063.4785s.687.1572,1.0015.1572c.3828,0,.6846-.0522.9058-.1572s.3315-.2642.3315-.4785c0-.1367-.0503-.2505-.1504-.3418s-.229-.1709-.3862-.2393-.3291-.1299-.5161-.1846-.3667-.1162-.54-.1846c-.2778-.105-.5229-.2178-.7349-.3384s-.3896-.2607-.5332-.4204-.2529-.3442-.3281-.5537-.1128-.458-.1128-.7451c0-.3921.0854-.729.2563-1.0117s.3989-.5137.6836-.6938.6108-.312.9775-.3965.7485-.1265,1.145-.1265c.3101,0,.6245.0239.9434.0718s.6333.1172.9434.2085v1.668c-.2734-.1597-.5664-.2793-.8784-.3589s-.6187-.1196-.9194-.1196c-.1411,0-.2744.0127-.3999.0376s-.2358.0615-.3315.1094-.1709.1094-.2256.1846-.082.1606-.082.2563c0,.1274.041.2368.123.3281s.189.1699.3213.2358.2793.1255.4409.1777.3223.106.4819.1606c.2871.1001.5469.2095.7793.3281s.4316.2573.5981.417.2939.3462.3828.5605.1333.4692.1333.7656c0,.4146-.0898.769-.27,1.063s-.4194.5332-.7178.7178-.6426.3188-1.0322.4033-.7939.1265-1.2134.1265c-.77,0-1.4834-.1187-2.1396-.3555Z" fill="#2f2f2f"/>
      <path d="M114.6683,335.2765c-.3188.1685-.7998.2529-1.4424.2529-1.522,0-2.2832-.7905-2.2832-2.3721v-3.2061h-1.1348v-1.5928h1.1348v-1.5107l2.1533-.6152v2.126h1.5723v1.5928h-1.5723v2.8301c0,.729.2896,1.0938.8682,1.0938.228,0,.4624-.0659.7041-.1982v1.5996Z" fill="#2f2f2f"/>
      <path d="M119.201,335.5294c-1.1665,0-2.084-.3271-2.7515-.981s-1.0015-1.5415-1.0015-2.6626c0-1.1577.3462-2.0635,1.0391-2.7173s1.6294-.981,2.8096-.981c1.1621,0,2.0737.3271,2.7344.981s.9912,1.5186.9912,2.5942c0,1.1621-.3408,2.0806-1.022,2.7549s-1.6143,1.0117-2.7993,1.0117ZM119.2557,329.8419c-.5103,0-.9067.1753-1.1895.5264s-.4238.8477-.4238,1.4902c0,1.3442.5425,2.0166,1.627,2.0166,1.0347,0,1.5518-.6904,1.5518-2.0713,0-1.3081-.522-1.9619-1.5654-1.9619Z" fill="#2f2f2f"/>
      <path d="M128.9705,330.3067c-.2598-.1411-.563-.2119-.9092-.2119-.4692,0-.8364.1719-1.1006.5161s-.3965.8125-.3965,1.4048v3.3428h-2.1602v-7h2.1602v1.2988h.0273c.3418-.9478.957-1.4219,1.8457-1.4219.228,0,.4058.0273.5332.082v1.9893Z" fill="#2f2f2f"/>
      <path d="M135.6946,335.3585h-2.0439v-1.0049h-.0273c-.4692.7837-1.1646,1.1758-2.085,1.1758-.6792,0-1.2134-.1924-1.603-.5776s-.5845-.8989-.5845-1.5415c0-1.3579.8042-2.1421,2.4131-2.3516l1.9004-.2529c0-.7656-.4146-1.1484-1.2441-1.1484-.834,0-1.627.2485-2.3789.7451v-1.627c.3008-.1548.7119-.2915,1.2339-.4102s.9971-.1777,1.4253-.1777c1.9961,0,2.9941.9956,2.9941,2.9873v4.1836ZM133.6644,332.5147v-.4717l-1.2715.1641c-.7017.0913-1.0527.4077-1.0527.9502,0,.2461.0854.4478.2563.605s.4023.2358.6938.2358c.4058,0,.7358-.1401.9912-.4204s.3828-.6348.3828-1.063Z" fill="#2f2f2f"/>
      <path d="M144.2894,334.5587c0,1.2988-.376,2.3047-1.1279,3.0181s-1.8413,1.0698-3.2676,1.0698c-.9434,0-1.6909-.1343-2.2422-.4033v-1.8184c.7202.4194,1.4468.6289,2.1807.6289.729,0,1.2944-.1924,1.6953-.5776s.6016-.9082.6016-1.5688v-.5537h-.0273c-.4922.7837-1.2192,1.1758-2.1807,1.1758-.8931,0-1.6021-.3145-2.126-.9434s-.7861-1.4722-.7861-2.5293c0-1.1851.2915-2.126.875-2.8232s1.3511-1.0459,2.3037-1.0459c.8521,0,1.4902.3281,1.9141.9844h.0273v-.8135h2.1602v6.2002ZM142.1565,331.9952v-.5537c0-.4419-.1309-.8193-.3931-1.1313s-.6025-.4683-1.022-.4683c-.4785,0-.8545.187-1.1279.5605s-.4102.8999-.4102,1.5791c0,.5835.1299,1.0449.3896,1.3843s.6152.5093,1.0664.5093c.4468,0,.8076-.1719,1.0835-.5161s.4136-.7988.4136-1.3638Z" fill="#2f2f2f"/>
      <path d="M152.3831,332.4737h-4.5664c.0728,1.0161.7134,1.5244,1.9209,1.5244.77,0,1.4468-.1821,2.0303-.5469v1.5586c-.647.3462-1.4878.5195-2.5225.5195-1.1304,0-2.0073-.3135-2.6318-.9399s-.9365-1.5005-.9365-2.6216c0-1.1621.3374-2.0825,1.0117-2.7617s1.5039-1.0186,2.4883-1.0186c1.021,0,1.8105.3032,2.3687.9092s.8374,1.4287.8374,2.4678v.9092ZM150.3802,331.1476c0-1.0024-.4058-1.5039-1.2168-1.5039-.3462,0-.646.1436-.8989.4307s-.4067.645-.4614,1.0732h2.5771Z" fill="#2f2f2f"/>
      <path d="M161.3382,332.378h-3.7393v-1.5107h3.7393v1.5107Z" fill="#2f2f2f"/>
      <path d="M172.9046,332.1388h-4.9424c.0181.7793.228,1.3809.6289,1.8047s.9526.6357,1.6543.6357c.7886,0,1.5132-.2598,2.1738-.7793v1.0527c-.6152.4468-1.4287.6699-2.4404.6699-.9888,0-1.7661-.3179-2.3311-.9536s-.8477-1.5303-.8477-2.6831c0-1.0894.3086-1.9766.9263-2.6626s1.3843-1.0288,2.3003-1.0288,1.6245.2964,2.126.8887.752,1.415.752,2.4678v.5879ZM171.7562,331.1886c-.0044-.647-.1606-1.1509-.4683-1.5107s-.7349-.54-1.2817-.54c-.5288,0-.9775.189-1.3467.5674s-.5972.8726-.6836,1.4834h3.7803Z" fill="#2f2f2f"/>
      <path d="M180.3978,335.3585h-1.1211v-3.9922c0-1.4858-.5425-2.2285-1.627-2.2285-.5605,0-1.0244.2109-1.3911.6323s-.5503.9536-.5503,1.5962v3.9922h-1.1211v-7h1.1211v1.1621h.0273c.5288-.8843,1.2944-1.3262,2.2969-1.3262.7656,0,1.3511.2471,1.7568.7417s.6084,1.209.6084,2.1431v4.2793Z" fill="#2f2f2f"/>
      <path d="M187.2469,335.0372c-.5376.3237-1.1758.4854-1.9141.4854-.998,0-1.8037-.3247-2.4165-.9741s-.9194-1.4912-.9194-2.5259c0-1.1528.3306-2.0791.9912-2.7788s1.5425-1.0493,2.6455-1.0493c.6152,0,1.1577.1138,1.627.3418v1.1484c-.5195-.3647-1.0757-.5469-1.668-.5469-.7153,0-1.3022.2563-1.7603.769s-.687,1.186-.687,2.02c0,.8203.2153,1.4673.646,1.9414s1.0083.7109,1.7329.7109c.6108,0,1.1851-.2026,1.7227-.6084v1.0664Z" fill="#2f2f2f"/>
      <path d="M192.3851,329.4933c-.1958-.1504-.4785-.2256-.8477-.2256-.4785,0-.8784.2256-1.1997.6768s-.4819,1.0664-.4819,1.8457v3.5684h-1.1211v-7h1.1211v1.4424h.0273c.1597-.4922.4033-.876.7314-1.1519s.6948-.4136,1.1006-.4136c.2915,0,.5151.0317.6699.0957v1.1621Z" fill="#2f2f2f"/>
      <path d="M199.7264,328.3585l-3.2197,8.1211c-.5742,1.4492-1.3809,2.1738-2.4199,2.1738-.2915,0-.5356-.0298-.7314-.0889v-1.0049c.2417.082.4624.123.6631.123.5649,0,.9888-.3374,1.2715-1.0117l.5605-1.3262-2.7344-6.9863h1.2441l1.8936,5.3867c.0229.0684.0708.2461.1436.5332h.041c.0229-.1094.0684-.2827.1367-.5195l1.9893-5.4004h1.1621Z" fill="#2f2f2f"/>
      <path d="M202.117,334.3468h-.0273v4.2314h-1.1211v-10.2197h1.1211v1.2305h.0273c.5513-.9297,1.3579-1.3945,2.4199-1.3945.9023,0,1.6064.3135,2.1123.9399s.7588,1.4663.7588,2.519c0,1.1714-.2847,2.1089-.8545,2.813s-1.3491,1.0562-2.3379,1.0562c-.9067,0-1.6064-.3921-2.0986-1.1758ZM202.0896,331.5235v.9775c0,.5786.188,1.0698.564,1.4731s.8535.605,1.4321.605c.6792,0,1.2109-.2598,1.5962-.7793s.5776-1.2417.5776-2.167c0-.7793-.1802-1.3901-.54-1.832s-.8477-.6631-1.4629-.6631c-.6519,0-1.1758.2266-1.5723.6802s-.5947,1.022-.5947,1.7056Z" fill="#2f2f2f"/>
      <path d="M212.3509,335.2901c-.2642.146-.6128.2188-1.0459.2188-1.2261,0-1.8389-.6836-1.8389-2.0508v-4.1426h-1.2031v-.957h1.2031v-1.709l1.1211-.3623v2.0713h1.7637v.957h-1.7637v3.9443c0,.4692.0796.8042.2393,1.0049s.4238.3008.793.3008c.2827,0,.5264-.0776.7314-.2324v.957Z" fill="#2f2f2f"/>
      <path d="M219.344,332.1388h-4.9424c.0181.7793.228,1.3809.6289,1.8047s.9526.6357,1.6543.6357c.7886,0,1.5132-.2598,2.1738-.7793v1.0527c-.6152.4468-1.4287.6699-2.4404.6699-.9888,0-1.7661-.3179-2.3311-.9536s-.8477-1.5303-.8477-2.6831c0-1.0894.3086-1.9766.9263-2.6626s1.3843-1.0288,2.3003-1.0288,1.6245.2964,2.126.8887.752,1.415.752,2.4678v.5879ZM218.1956,331.1886c-.0044-.647-.1606-1.1509-.4683-1.5107s-.7349-.54-1.2817-.54c-.5288,0-.9775.189-1.3467.5674s-.5972.8726-.6836,1.4834h3.7803Z" fill="#2f2f2f"/>
      <path d="M227.0755,335.3585h-1.1211v-1.1895h-.0273c-.5195.9023-1.3218,1.3535-2.4062,1.3535-.8794,0-1.5825-.3135-2.1089-.9399s-.7896-1.48-.7896-2.5601c0-1.1577.2915-2.085.875-2.7822s1.3604-1.0459,2.3311-1.0459c.9614,0,1.6611.3784,2.0986,1.1348h.0273v-4.334h1.1211v10.3633ZM225.9544,332.1935v-1.0322c0-.5649-.187-1.0435-.5605-1.4355s-.8477-.5879-1.4219-.5879c-.6836,0-1.2212.2505-1.6133.752s-.5879,1.1938-.5879,2.0781c0,.8066.188,1.4434.564,1.9106s.8809.7007,1.5142.7007c.6245,0,1.1313-.2256,1.521-.6768s.5845-1.021.5845-1.709Z" fill="#2f2f2f"/>
    </g>
    <g>
      <path d="M28.8299,364.5733h-2.4062l-.6973-2.1807h-3.4863l-.6904,2.1807h-2.3926l3.5684-9.8027h2.6182l3.4863,9.8027ZM25.2205,360.6974l-1.0527-3.2949c-.0776-.2461-.1323-.54-.1641-.8818h-.0547c-.0229.2871-.0796.5718-.1709.8545l-1.0664,3.3223h2.5088Z" fill="#2f2f2f"/>
      <path d="M35.7356,364.5733h-6.2822v-.8955l3.5137-4.5117h-3.165v-1.5928h5.9062v1.0664l-3.3291,4.3408h3.3564v1.5928Z" fill="#2f2f2f"/>
      <path d="M43.6175,364.5733h-2.1533v-1.0664h-.0342c-.5332.8247-1.2466,1.2373-2.1396,1.2373-1.6226,0-2.4336-.9819-2.4336-2.9463v-4.2246h2.1533v4.0332c0,.9888.3921,1.4834,1.1758,1.4834.3872,0,.6973-.1357.9297-.4067s.3486-.6392.3486-1.104v-4.0059h2.1533v7Z" fill="#2f2f2f"/>
      <path d="M49.952,359.5216c-.2598-.1411-.563-.2119-.9092-.2119-.4692,0-.8364.1719-1.1006.5161s-.3965.8125-.3965,1.4048v3.3428h-2.1602v-7h2.1602v1.2988h.0273c.3418-.9478.957-1.4219,1.8457-1.4219.228,0,.4058.0273.5332.082v1.9893Z" fill="#2f2f2f"/>
      <path d="M57.3245,361.6886h-4.5664c.0728,1.0161.7134,1.5244,1.9209,1.5244.77,0,1.4468-.1821,2.0303-.5469v1.5586c-.647.3462-1.4878.5195-2.5225.5195-1.1304,0-2.0073-.3135-2.6318-.9399s-.9365-1.5005-.9365-2.6216c0-1.1621.3374-2.0825,1.0117-2.7617s1.5039-1.0186,2.4883-1.0186c1.021,0,1.8105.3032,2.3687.9092s.8374,1.4287.8374,2.4678v.9092ZM55.3216,360.3624c0-1.0024-.4058-1.5039-1.2168-1.5039-.3462,0-.646.1436-.8989.4307s-.4067.645-.4614,1.0732h2.5771Z" fill="#2f2f2f"/>
      <path d="M62.2327,364.1974v-2.1875c.3965.3325.8271.582,1.292.7485s.9341.2495,1.4082.2495c.2778,0,.5205-.0249.728-.0752s.3804-.1196.5195-.2085.2427-.1938.311-.3145.1025-.252.1025-.3931c0-.1914-.0547-.3623-.1641-.5127s-.2588-.2896-.4478-.417-.4136-.2505-.6733-.3691-.54-.2393-.8408-.3623c-.7656-.3188-1.3364-.7085-1.7124-1.1689s-.564-1.0161-.564-1.668c0-.5103.1025-.9492.3076-1.3159s.4844-.6689.8374-.9058.7622-.4111,1.2271-.5229.957-.1675,1.4766-.1675c.5103,0,.9629.0308,1.3569.0923s.7578.1562,1.0903.2837v2.0439c-.1641-.1138-.3428-.2144-.5366-.3008s-.3931-.1582-.5981-.2153-.4092-.0991-.6118-.1265-.3955-.041-.5776-.041c-.2505,0-.4785.0239-.6836.0718s-.3784.1152-.5195.2017-.2505.1904-.3281.311-.1162.2563-.1162.4067c0,.1641.0435.311.1299.4409s.2095.2529.3691.3691.353.23.5811.3418.4854.2266.7725.3452c.3921.1641.7441.3384,1.0562.5229s.5801.3931.8032.6255.394.498.5127.7964.1777.646.1777,1.0425c0,.5469-.1035,1.0059-.311,1.3774s-.4888.6724-.8442.9023-.769.3955-1.2407.4956-.9697.1504-1.4937.1504c-.5376,0-1.0493-.0454-1.5347-.1367s-.9058-.228-1.2612-.4102Z" fill="#2f2f2f"/>
      <path d="M74.5926,364.7442c-1.4038,0-2.5474-.4556-3.4316-1.3672-.8843-.9204-1.3262-2.1123-1.3262-3.5752,0-1.5449.4487-2.7983,1.3467-3.7598.8931-.957,2.0825-1.4355,3.5684-1.4355,1.3989,0,2.5293.458,3.3906,1.374.8657.9116,1.2988,2.1191,1.2988,3.623,0,1.5356-.4487,2.7778-1.3467,3.7256-.0317.0317-.0615.0625-.0889.0923s-.0571.0581-.0889.0854l2.4814,2.3857h-3.0898l-1.2988-1.3193c-.4282.1138-.8999.1709-1.415.1709ZM74.6883,356.5069c-.77,0-1.3853.2915-1.8457.875-.4556.5786-.6836,1.3467-.6836,2.3037,0,.9707.228,1.7388.6836,2.3037s1.0527.8477,1.791.8477c.7612,0,1.3647-.2734,1.8115-.8203.4468-.5562.6699-1.3193.6699-2.29,0-1.0117-.2163-1.8022-.6494-2.3721-.4282-.5649-1.021-.8477-1.7773-.8477Z" fill="#2f2f2f"/>
      <path d="M86.8567,364.5733h-5.8379v-9.8027h2.208v8.0117h3.6299v1.791Z" fill="#2f2f2f"/>
      <path d="M98.6761,364.5733h-2.1602v-.9639h-.0273c-.4922.7563-1.2144,1.1348-2.167,1.1348-.875,0-1.5791-.3086-2.1123-.9263s-.7998-1.48-.7998-2.5874c0-1.1577.2939-2.085.8818-2.7822s1.3579-1.0459,2.3105-1.0459c.9023,0,1.5312.3237,1.8867.9707h.0273v-4.1631h2.1602v10.3633ZM96.5569,361.169v-.5264c0-.4556-.1323-.834-.3965-1.1348s-.6084-.4512-1.0322-.4512c-.4785,0-.8521.188-1.1211.564s-.4033.8921-.4033,1.5483c0,.6152.1299,1.0894.3896,1.4219s.6196.499,1.0801.499c.4375,0,.7939-.1753,1.0698-.5264s.4136-.8159.4136-1.3945Z" fill="#2f2f2f"/>
      <path d="M106.324,364.5733h-2.0439v-1.0049h-.0273c-.4692.7837-1.1646,1.1758-2.085,1.1758-.6792,0-1.2134-.1924-1.603-.5776s-.5845-.8989-.5845-1.5415c0-1.3579.8042-2.1421,2.4131-2.3516l1.9004-.2529c0-.7656-.4146-1.1484-1.2441-1.1484-.834,0-1.627.2485-2.3789.7451v-1.627c.3008-.1548.7119-.2915,1.2339-.4102s.9971-.1777,1.4253-.1777c1.9961,0,2.9941.9956,2.9941,2.9873v4.1836ZM104.2937,361.7296v-.4717l-1.2715.1641c-.7017.0913-1.0527.4077-1.0527.9502,0,.2461.0854.4478.2563.605s.4023.2358.6938.2358c.4058,0,.7358-.1401.9912-.4204s.3828-.6348.3828-1.063Z" fill="#2f2f2f"/>
      <path d="M112.1526,364.4913c-.3188.1685-.7998.2529-1.4424.2529-1.522,0-2.2832-.7905-2.2832-2.3721v-3.2061h-1.1348v-1.5928h1.1348v-1.5107l2.1533-.6152v2.126h1.5723v1.5928h-1.5723v2.8301c0,.729.2896,1.0938.8682,1.0938.228,0,.4624-.0659.7041-.1982v1.5996Z" fill="#2f2f2f"/>
      <path d="M119.3338,364.5733h-2.0439v-1.0049h-.0273c-.4692.7837-1.1646,1.1758-2.085,1.1758-.6792,0-1.2134-.1924-1.603-.5776s-.5845-.8989-.5845-1.5415c0-1.3579.8042-2.1421,2.4131-2.3516l1.9004-.2529c0-.7656-.4146-1.1484-1.2441-1.1484-.834,0-1.627.2485-2.3789.7451v-1.627c.3008-.1548.7119-.2915,1.2339-.4102s.9971-.1777,1.4253-.1777c1.9961,0,2.9941.9956,2.9941,2.9873v4.1836ZM117.3035,361.7296v-.4717l-1.2715.1641c-.7017.0913-1.0527.4077-1.0527.9502,0,.2461.0854.4478.2563.605s.4023.2358.6938.2358c.4058,0,.7358-.1401.9912-.4204s.3828-.6348.3828-1.063Z" fill="#2f2f2f"/>
      <path d="M127.0926,363.7599h-.0273v4.0332h-2.1602v-10.2197h2.1602v1.0527h.0273c.5332-.8159,1.2827-1.2236,2.249-1.2236.9067,0,1.6074.311,2.1021.9331s.7417,1.4688.7417,2.5396c0,1.1665-.2881,2.103-.8647,2.8096s-1.3433,1.0596-2.3003,1.0596c-.8433,0-1.4858-.3281-1.9277-.9844ZM127.0311,360.8888v.5605c0,.4829.1274.8774.3828,1.1826s.5903.458,1.0049.458c.4922,0,.874-.1904,1.145-.5708s.4067-.9194.4067-1.6167c0-1.2305-.4785-1.8457-1.4355-1.8457-.4419,0-.8032.1675-1.0835.5024s-.4204.7783-.4204,1.3296Z" fill="#2f2f2f"/>
      <path d="M138.1683,359.5216c-.2598-.1411-.563-.2119-.9092-.2119-.4692,0-.8364.1719-1.1006.5161s-.3965.8125-.3965,1.4048v3.3428h-2.1602v-7h2.1602v1.2988h.0273c.3418-.9478.957-1.4219,1.8457-1.4219.228,0,.4058.0273.5332.082v1.9893Z" fill="#2f2f2f"/>
      <path d="M142.5945,364.7442c-1.1665,0-2.084-.3271-2.7515-.981s-1.0015-1.5415-1.0015-2.6626c0-1.1577.3462-2.0635,1.0391-2.7173s1.6294-.981,2.8096-.981c1.1621,0,2.0737.3271,2.7344.981s.9912,1.5186.9912,2.5942c0,1.1621-.3408,2.0806-1.022,2.7549s-1.6143,1.0117-2.7993,1.0117ZM142.6492,359.0567c-.5103,0-.9067.1753-1.1895.5264s-.4238.8477-.4238,1.4902c0,1.3442.5425,2.0166,1.627,2.0166,1.0347,0,1.5518-.6904,1.5518-2.0713,0-1.3081-.522-1.9619-1.5654-1.9619Z" fill="#2f2f2f"/>
      <path d="M151.9915,364.4913c-.3188.1685-.7998.2529-1.4424.2529-1.522,0-2.2832-.7905-2.2832-2.3721v-3.2061h-1.1348v-1.5928h1.1348v-1.5107l2.1533-.6152v2.126h1.5723v1.5928h-1.5723v2.8301c0,.729.2896,1.0938.8682,1.0938.228,0,.4624-.0659.7041-.1982v1.5996Z" fill="#2f2f2f"/>
      <path d="M159.4773,361.6886h-4.5664c.0728,1.0161.7134,1.5244,1.9209,1.5244.77,0,1.4468-.1821,2.0303-.5469v1.5586c-.647.3462-1.4878.5195-2.5225.5195-1.1304,0-2.0073-.3135-2.6318-.9399s-.9365-1.5005-.9365-2.6216c0-1.1621.3374-2.0825,1.0117-2.7617s1.5039-1.0186,2.4883-1.0186c1.021,0,1.8105.3032,2.3687.9092s.8374,1.4287.8374,2.4678v.9092ZM157.4744,360.3624c0-1.0024-.4058-1.5039-1.2168-1.5039-.3462,0-.646.1436-.8989.4307s-.4067.645-.4614,1.0732h2.5771Z" fill="#2f2f2f"/>
      <path d="M166.1487,364.3204c-.4878.2827-1.1919.4238-2.1123.4238-1.0757,0-1.9458-.3257-2.6113-.9775s-.998-1.4927-.998-2.5225c0-1.1895.3564-2.127,1.0698-2.813s1.667-1.0288,2.8608-1.0288c.8247,0,1.4219.1094,1.791.3281v1.832c-.4512-.3374-.9546-.5059-1.5107-.5059-.6196,0-1.1108.1812-1.4731.5435s-.5435.8623-.5435,1.5005c0,.6196.1733,1.1064.5195,1.4595s.8228.5298,1.4287.5298c.5376,0,1.064-.1685,1.5791-.5059v1.7363Z" fill="#2f2f2f"/>
      <path d="M171.8763,364.4913c-.3188.1685-.7998.2529-1.4424.2529-1.522,0-2.2832-.7905-2.2832-2.3721v-3.2061h-1.1348v-1.5928h1.1348v-1.5107l2.1533-.6152v2.126h1.5723v1.5928h-1.5723v2.8301c0,.729.2896,1.0938.8682,1.0938.228,0,.4624-.0659.7041-.1982v1.5996Z" fill="#2f2f2f"/>
      <path d="M179.3626,361.6886h-4.5664c.0728,1.0161.7134,1.5244,1.9209,1.5244.77,0,1.4468-.1821,2.0303-.5469v1.5586c-.647.3462-1.4878.5195-2.5225.5195-1.1304,0-2.0073-.3135-2.6318-.9399s-.9365-1.5005-.9365-2.6216c0-1.1621.3374-2.0825,1.0117-2.7617s1.5039-1.0186,2.4883-1.0186c1.021,0,1.8105.3032,2.3687.9092s.8374,1.4287.8374,2.4678v.9092ZM177.3597,360.3624c0-1.0024-.4058-1.5039-1.2168-1.5039-.3462,0-.646.1436-.8989.4307s-.4067.645-.4614,1.0732h2.5771Z" fill="#2f2f2f"/>
      <path d="M187.6077,364.5733h-2.1602v-.9639h-.0273c-.4922.7563-1.2144,1.1348-2.167,1.1348-.875,0-1.5791-.3086-2.1123-.9263s-.7998-1.48-.7998-2.5874c0-1.1577.2939-2.085.8818-2.7822s1.3579-1.0459,2.3105-1.0459c.9023,0,1.5312.3237,1.8867.9707h.0273v-4.1631h2.1602v10.3633ZM185.4886,361.169v-.5264c0-.4556-.1323-.834-.3965-1.1348s-.6084-.4512-1.0322-.4512c-.4785,0-.8521.188-1.1211.564s-.4033.8921-.4033,1.5483c0,.6152.1299,1.0894.3896,1.4219s.6196.499,1.0801.499c.4375,0,.7939-.1753,1.0698-.5264s.4136-.8159.4136-1.3945Z" fill="#2f2f2f"/>
      <path d="M195.4759,363.7599h-.0273v.8135h-2.1602v-10.3633h2.1602v4.416h.0273c.5332-.8159,1.292-1.2236,2.2764-1.2236.9023,0,1.5972.3101,2.085.9297s.7314,1.4673.7314,2.543c0,1.1665-.2847,2.103-.8545,2.8096s-1.3306,1.0596-2.2832,1.0596c-.8613,0-1.5132-.3281-1.9551-.9844ZM195.4144,360.8067v.7178c0,.4512.1299.8247.3896,1.1211s.5923.4443.998.4443c.4922,0,.874-.1904,1.145-.5708s.4067-.9194.4067-1.6167c0-.5786-.124-1.0312-.3726-1.3569s-.6025-.4888-1.063-.4888c-.4331,0-.792.1616-1.0767.4854s-.4272.7451-.4272,1.2646Z" fill="#2f2f2f"/>
      <path d="M208.4866,357.5733l-2.8438,7.5605c-.6836,1.8184-1.7134,2.7275-3.0898,2.7275-.5239,0-.9546-.0591-1.292-.1777v-1.7227c.2871.1685.5991.2529.9365.2529.5562,0,.9434-.2622,1.1621-.7861l.3691-.8682-2.8438-6.9863h2.3926l1.3057,4.2588c.082.2642.146.5767.1914.9365h.0273c.041-.2642.1162-.5718.2256-.9229l1.3193-4.2725h2.1396Z" fill="#2f2f2f"/>
      <path d="M220.3128,356.5685h-2.7959v8.0049h-2.2148v-8.0049h-2.7822v-1.7979h7.793v1.7979Z" fill="#2f2f2f"/>
      <path d="M221.4642,364.5733v-9.8027h3.4727c3.4819,0,5.2227,1.5928,5.2227,4.7783,0,1.5269-.4751,2.7456-1.4253,3.6572s-2.2158,1.3672-3.7974,1.3672h-3.4727ZM223.6722,356.5685v6.2139h1.0938c.957,0,1.708-.2871,2.2524-.8613s.8169-1.356.8169-2.3447c0-.9341-.27-1.6689-.8101-2.2046s-1.2979-.8032-2.2729-.8032h-1.0801Z" fill="#2f2f2f"/>
      <path d="M237.6067,364.5733h-5.8789v-9.8027h5.6533v1.7979h-3.4453v2.1807h3.2061v1.791h-3.2061v2.2422h3.6709v1.791Z" fill="#2f2f2f"/>
    </g>
    <g>
      <path d="M111.993,93.1583h-5.1953v-9.8027h4.9766v1.0391h-3.8281v3.2607h3.541v1.0322h-3.541v3.4316h4.0469v1.0391Z" fill="#2f2f2f"/>
      <path d="M119.3187,93.1583h-1.1211v-3.9922c0-1.4858-.5425-2.2285-1.627-2.2285-.5605,0-1.0244.2109-1.3911.6323s-.5503.9536-.5503,1.5962v3.9922h-1.1211v-7h1.1211v1.1621h.0273c.5288-.8843,1.2944-1.3262,2.2969-1.3262.7656,0,1.3511.2471,1.7568.7417s.6084,1.209.6084,2.1431v4.2793Z" fill="#2f2f2f"/>
      <path d="M126.1673,92.837c-.5376.3237-1.1758.4854-1.9141.4854-.998,0-1.8037-.3247-2.4165-.9741s-.9194-1.4912-.9194-2.5259c0-1.1528.3306-2.0791.9912-2.7788s1.5425-1.0493,2.6455-1.0493c.6152,0,1.1577.1138,1.627.3418v1.1484c-.5195-.3647-1.0757-.5469-1.668-.5469-.7153,0-1.3022.2563-1.7603.769s-.687,1.186-.687,2.02c0,.8203.2153,1.4673.646,1.9414s1.0083.7109,1.7329.7109c.6108,0,1.1851-.2026,1.7227-.6084v1.0664Z" fill="#2f2f2f"/>
      <path d="M131.306,87.2931c-.1958-.1504-.4785-.2256-.8477-.2256-.4785,0-.8784.2256-1.1997.6768s-.4819,1.0664-.4819,1.8457v3.5684h-1.1211v-7h1.1211v1.4424h.0273c.1597-.4922.4033-.876.7314-1.1519s.6948-.4136,1.1006-.4136c.2915,0,.5151.0317.6699.0957v1.1621Z" fill="#2f2f2f"/>
      <path d="M138.6473,86.1583l-3.2197,8.1211c-.5742,1.4492-1.3809,2.1738-2.4199,2.1738-.2915,0-.5356-.0298-.7314-.0889v-1.0049c.2417.082.4624.123.6631.123.5649,0,.9888-.3374,1.2715-1.0117l.5605-1.3262-2.7344-6.9863h1.2441l1.8936,5.3867c.0229.0684.0708.2461.1436.5332h.041c.0229-.1094.0684-.2827.1367-.5195l1.9893-5.4004h1.1621Z" fill="#2f2f2f"/>
      <path d="M141.0379,92.1466h-.0273v4.2314h-1.1211v-10.2197h1.1211v1.2305h.0273c.5513-.9297,1.3579-1.3945,2.4199-1.3945.9023,0,1.6064.3135,2.1123.9399s.7588,1.4663.7588,2.519c0,1.1714-.2847,2.1089-.8545,2.813s-1.3491,1.0562-2.3379,1.0562c-.9067,0-1.6064-.3921-2.0986-1.1758ZM141.0105,89.3233v.9775c0,.5786.188,1.0698.564,1.4731s.8535.605,1.4321.605c.6792,0,1.2109-.2598,1.5962-.7793s.5776-1.2417.5776-2.167c0-.7793-.1802-1.3901-.54-1.832s-.8477-.6631-1.4629-.6631c-.6519,0-1.1758.2266-1.5723.6802s-.5947,1.022-.5947,1.7056Z" fill="#2f2f2f"/>
      <path d="M151.2718,93.0899c-.2642.146-.6128.2188-1.0459.2188-1.2261,0-1.8389-.6836-1.8389-2.0508v-4.1426h-1.2031v-.957h1.2031v-1.709l1.1211-.3623v2.0713h1.7637v.957h-1.7637v3.9443c0,.4692.0796.8042.2393,1.0049s.4238.3008.793.3008c.2827,0,.5264-.0776.7314-.2324v.957Z" fill="#2f2f2f"/>
    </g>
    <g>
      <path d="M154.4275,206.2179h-5.1953v-9.8027h4.9766v1.0391h-3.8281v3.2607h3.541v1.0322h-3.541v3.4316h4.0469v1.0391Z" fill="#2f2f2f"/>
      <path d="M161.7532,206.2179h-1.1211v-3.9922c0-1.4858-.5425-2.2285-1.627-2.2285-.5605,0-1.0244.2109-1.3911.6323s-.5503.9536-.5503,1.5962v3.9922h-1.1211v-7h1.1211v1.1621h.0273c.5288-.8843,1.2944-1.3262,2.2969-1.3262.7656,0,1.3511.2471,1.7568.7417s.6084,1.209.6084,2.1431v4.2793Z" fill="#2f2f2f"/>
      <path d="M168.6019,205.8966c-.5376.3237-1.1758.4854-1.9141.4854-.998,0-1.8037-.3247-2.4165-.9741s-.9194-1.4912-.9194-2.5259c0-1.1528.3306-2.0791.9912-2.7788s1.5425-1.0493,2.6455-1.0493c.6152,0,1.1577.1138,1.627.3418v1.1484c-.5195-.3647-1.0757-.5469-1.668-.5469-.7153,0-1.3022.2563-1.7603.769s-.687,1.186-.687,2.02c0,.8203.2153,1.4673.646,1.9414s1.0083.7109,1.7329.7109c.6108,0,1.1851-.2026,1.7227-.6084v1.0664Z" fill="#2f2f2f"/>
      <path d="M173.7405,200.3526c-.1958-.1504-.4785-.2256-.8477-.2256-.4785,0-.8784.2256-1.1997.6768s-.4819,1.0664-.4819,1.8457v3.5684h-1.1211v-7h1.1211v1.4424h.0273c.1597-.4922.4033-.876.7314-1.1519s.6948-.4136,1.1006-.4136c.2915,0,.5151.0317.6699.0957v1.1621Z" fill="#2f2f2f"/>
      <path d="M181.0818,199.2179l-3.2197,8.1211c-.5742,1.4492-1.3809,2.1738-2.4199,2.1738-.2915,0-.5356-.0298-.7314-.0889v-1.0049c.2417.082.4624.123.6631.123.5649,0,.9888-.3374,1.2715-1.0117l.5605-1.3262-2.7344-6.9863h1.2441l1.8936,5.3867c.0229.0684.0708.2461.1436.5332h.041c.0229-.1094.0684-.2827.1367-.5195l1.9893-5.4004h1.1621Z" fill="#2f2f2f"/>
      <path d="M183.4725,205.2062h-.0273v4.2314h-1.1211v-10.2197h1.1211v1.2305h.0273c.5513-.9297,1.3579-1.3945,2.4199-1.3945.9023,0,1.6064.3135,2.1123.9399s.7588,1.4663.7588,2.519c0,1.1714-.2847,2.1089-.8545,2.813s-1.3491,1.0562-2.3379,1.0562c-.9067,0-1.6064-.3921-2.0986-1.1758ZM183.4451,202.3829v.9775c0,.5786.188,1.0698.564,1.4731s.8535.605,1.4321.605c.6792,0,1.2109-.2598,1.5962-.7793s.5776-1.2417.5776-2.167c0-.7793-.1802-1.3901-.54-1.832s-.8477-.6631-1.4629-.6631c-.6519,0-1.1758.2266-1.5723.6802s-.5947,1.022-.5947,1.7056Z" fill="#2f2f2f"/>
      <path d="M193.7063,206.1495c-.2642.146-.6128.2188-1.0459.2188-1.2261,0-1.8389-.6836-1.8389-2.0508v-4.1426h-1.2031v-.957h1.2031v-1.709l1.1211-.3623v2.0713h1.7637v.957h-1.7637v3.9443c0,.4692.0796.8042.2393,1.0049s.4238.3008.793.3008c.2827,0,.5264-.0776.7314-.2324v.957Z" fill="#2f2f2f"/>
    </g>
    <g>
      <path d="M64.1355,206.2184v-9.8027h2.707c3.4546,0,5.1816,1.5928,5.1816,4.7783,0,1.5132-.4795,2.7285-1.439,3.647s-2.2432,1.3774-3.8521,1.3774h-2.5977ZM65.284,197.4547v7.7246h1.4629c1.2852,0,2.2856-.3442,3.001-1.0322s1.0732-1.6636,1.0732-2.9258c0-2.5112-1.3354-3.7666-4.0059-3.7666h-1.5312Z" fill="#2f2f2f"/>
      <path d="M79.4012,202.9986h-4.9424c.0181.7793.228,1.3809.6289,1.8047s.9526.6357,1.6543.6357c.7886,0,1.5132-.2598,2.1738-.7793v1.0527c-.6152.4468-1.4287.6699-2.4404.6699-.9888,0-1.7661-.3179-2.3311-.9536s-.8477-1.5303-.8477-2.6831c0-1.0894.3086-1.9766.9263-2.6626s1.3843-1.0288,2.3003-1.0288,1.6245.2964,2.126.8887.752,1.415.752,2.4678v.5879ZM78.2527,202.0484c-.0044-.647-.1606-1.1509-.4683-1.5107s-.7349-.54-1.2817-.54c-.5288,0-.9775.189-1.3467.5674s-.5972.8726-.6836,1.4834h3.7803Z" fill="#2f2f2f"/>
      <path d="M85.8987,205.8971c-.5376.3237-1.1758.4854-1.9141.4854-.998,0-1.8037-.3247-2.4165-.9741s-.9194-1.4912-.9194-2.5259c0-1.1528.3306-2.0791.9912-2.7788s1.5425-1.0493,2.6455-1.0493c.6152,0,1.1577.1138,1.627.3418v1.1484c-.5195-.3647-1.0757-.5469-1.668-.5469-.7153,0-1.3022.2563-1.7603.769s-.687,1.186-.687,2.02c0,.8203.2153,1.4673.646,1.9414s1.0083.7109,1.7329.7109c.6108,0,1.1851-.2026,1.7227-.6084v1.0664Z" fill="#2f2f2f"/>
      <path d="M91.0369,200.3531c-.1958-.1504-.4785-.2256-.8477-.2256-.4785,0-.8784.2256-1.1997.6768s-.4819,1.0664-.4819,1.8457v3.5684h-1.1211v-7h1.1211v1.4424h.0273c.1597-.4922.4033-.876.7314-1.1519s.6948-.4136,1.1006-.4136c.2915,0,.5151.0317.6699.0957v1.1621Z" fill="#2f2f2f"/>
      <path d="M98.3782,199.2184l-3.2197,8.1211c-.5742,1.4492-1.3809,2.1738-2.4199,2.1738-.2915,0-.5356-.0298-.7314-.0889v-1.0049c.2417.082.4624.123.6631.123.5649,0,.9888-.3374,1.2715-1.0117l.5605-1.3262-2.7344-6.9863h1.2441l1.8936,5.3867c.0229.0684.0708.2461.1436.5332h.041c.0229-.1094.0684-.2827.1367-.5195l1.9893-5.4004h1.1621Z" fill="#2f2f2f"/>
      <path d="M100.7688,205.2066h-.0273v4.2314h-1.1211v-10.2197h1.1211v1.2305h.0273c.5513-.9297,1.3579-1.3945,2.4199-1.3945.9023,0,1.6064.3135,2.1123.9399s.7588,1.4663.7588,2.519c0,1.1714-.2847,2.1089-.8545,2.813s-1.3491,1.0562-2.3379,1.0562c-.9067,0-1.6064-.3921-2.0986-1.1758ZM100.7415,202.3834v.9775c0,.5786.188,1.0698.564,1.4731s.8535.605,1.4321.605c.6792,0,1.2109-.2598,1.5962-.7793s.5776-1.2417.5776-2.167c0-.7793-.1802-1.3901-.54-1.832s-.8477-.6631-1.4629-.6631c-.6519,0-1.1758.2266-1.5723.6802s-.5947,1.022-.5947,1.7056Z" fill="#2f2f2f"/>
      <path d="M111.0027,206.15c-.2642.146-.6128.2188-1.0459.2188-1.2261,0-1.8389-.6836-1.8389-2.0508v-4.1426h-1.2031v-.957h1.2031v-1.709l1.1211-.3623v2.0713h1.7637v.957h-1.7637v3.9443c0,.4692.0796.8042.2393,1.0049s.4238.3008.793.3008c.2827,0,.5264-.0776.7314-.2324v.957Z" fill="#2f2f2f"/>
    </g>
  </g>
</svg>