<?xml version="1.0" encoding="UTF-8"?>
<svg xmlns="http://www.w3.org/2000/svg" width="1091.2" height="140.8" xmlns:xlink="http://www.w3.org/1999/xlink" viewBox="0 0 1091.2 140.8">
  <defs>
    <linearGradient id="linear-gradient" x1="816.0365" y1="108.2988" x2="832.6271" y2="108.2988" gradientTransform="translate(0 204.4) scale(1 -1)" gradientUnits="userSpaceOnUse">
      <stop offset="0" stop-color="#005ba1"/>
      <stop offset=".07" stop-color="#0060a9"/>
      <stop offset=".36" stop-color="#0071c8"/>
      <stop offset=".52" stop-color="#0078d4"/>
      <stop offset=".64" stop-color="#0074cd"/>
      <stop offset=".82" stop-color="#006abb"/>
      <stop offset="1" stop-color="#005ba1"/>
    </linearGradient>
    <radialGradient id="radial-gradient" cx="822.6998" cy="129.0304" fx="822.6998" fy="129.0304" r="9.5653" gradientTransform="translate(37.8674 220.0522) scale(.9565 -.9565)" gradientUnits="userSpaceOnUse">
      <stop offset="0" stop-color="#f2f2f2"/>
      <stop offset=".58" stop-color="#eee"/>
      <stop offset="1" stop-color="#e6e6e6"/>
    </radialGradient>
    <linearGradient id="linear-gradient-2" x1="682.123" y1="138.8" x2="682.123" y2="146.7991" gradientTransform="translate(84 178.4) scale(1 -1)" gradientUnits="userSpaceOnUse">
      <stop offset=".056" stop-color="#2aac94"/>
      <stop offset=".155" stop-color="#239c87"/>
      <stop offset=".372" stop-color="#177e71"/>
      <stop offset=".588" stop-color="#0e6961"/>
      <stop offset=".799" stop-color="#095d57"/>
      <stop offset="1" stop-color="#085954"/>
    </linearGradient>
    <linearGradient id="linear-gradient-3" x1="690.4267" y1="142.9455" x2="682.7024" y2="151.3467" gradientTransform="translate(84 178.4) scale(1 -1)" gradientUnits="userSpaceOnUse">
      <stop offset=".0417" stop-color="#abe88e"/>
      <stop offset=".5489" stop-color="#2aaa92"/>
      <stop offset=".906" stop-color="#117865"/>
    </linearGradient>
    <linearGradient id="linear-gradient-4" x1="673.1237" y1="145.3801" x2="680.4744" y2="147.8868" gradientTransform="translate(84 178.4) scale(1 -1)" gradientUnits="userSpaceOnUse">
      <stop offset="0" stop-color="#6ad6f9"/>
      <stop offset="1" stop-color="#6ad6f9" stop-opacity="0"/>
    </linearGradient>
    <linearGradient id="linear-gradient-5" x1="678.8564" y1="154.6297" x2="698.4225" y2="154.6297" gradientTransform="translate(84 178.4) scale(1 -1)" gradientUnits="userSpaceOnUse">
      <stop offset=".043" stop-color="#25ffd4"/>
      <stop offset=".874" stop-color="#55ddb9"/>
    </linearGradient>
    <linearGradient id="linear-gradient-6" x1="679.5552" y1="158.8693" x2="697.1804" y2="150.685" gradientTransform="translate(84 178.4) scale(1 -1)" gradientUnits="userSpaceOnUse">
      <stop offset="0" stop-color="#6ad6f9"/>
      <stop offset=".2295" stop-color="#60e9d0"/>
      <stop offset=".6507" stop-color="#6de9bb"/>
      <stop offset=".9935" stop-color="#abe88e"/>
    </linearGradient>
    <linearGradient id="linear-gradient-7" x1="680.6136" y1="156.4042" x2="690.1974" y2="154.2845" gradientTransform="translate(84 178.4) scale(1 -1)" gradientUnits="userSpaceOnUse">
      <stop offset="0" stop-color="#fff" stop-opacity="0"/>
      <stop offset=".4585" stop-color="#fff"/>
      <stop offset="1" stop-color="#fff" stop-opacity="0"/>
    </linearGradient>
    <linearGradient id="linear-gradient-8" x1="685.1515" y1="147.5726" x2="685.378" y2="154.2935" gradientTransform="translate(84 178.4) scale(1 -1)" gradientUnits="userSpaceOnUse">
      <stop offset=".2046" stop-color="#063d3b" stop-opacity="0"/>
      <stop offset=".5855" stop-color="#063d3b" stop-opacity=".2366"/>
      <stop offset=".8723" stop-color="#063d3b" stop-opacity=".75"/>
    </linearGradient>
    <linearGradient id="linear-gradient-9" x1="676.7689" y1="149.4844" x2="684.9589" y2="147.9441" xlink:href="#linear-gradient-7"/>
    <linearGradient id="linear-gradient-10" x1="682.632" y1="141.0517" x2="681.0344" y2="148.8651" gradientTransform="translate(84 178.4) scale(1 -1)" gradientUnits="userSpaceOnUse">
      <stop offset=".064" stop-color="#063d3b" stop-opacity="0"/>
      <stop offset=".17" stop-color="#063d3b" stop-opacity=".135"/>
      <stop offset=".562" stop-color="#063d3b" stop-opacity=".599"/>
      <stop offset=".85" stop-color="#063d3b" stop-opacity=".9"/>
      <stop offset="1" stop-color="#063d3b"/>
    </linearGradient>
  </defs>
  <g id="Shapes">
    <rect width="1091.2" height="140.8" fill="#fff"/>
    <g>
      <rect x="500.7303" y="35.2" width="140.8" height="74.8" fill="#fff"/>
      <rect x="500.7303" y="35.2" width="140.8" height="74.8" fill="#fff1cc" opacity=".35"/>
      <rect x="500.7303" y="35.2" width="140.8" height="74.8" fill="none" opacity=".5" stroke="#dfa626" stroke-width=".25"/>
    </g>
    <g>
      <rect x="29.9303" y="35.2" width="132" height="74.8" fill="#fff"/>
      <rect x="29.9303" y="35.2" width="132" height="74.8" fill="#53b1e0" opacity=".1"/>
      <rect x="29.9303" y="35.2" width="132" height="74.8" fill="none" stroke="#53b1e0" stroke-width=".25"/>
    </g>
    <g>
      <rect x="765.3666" y="22" width="117.9303" height="101.2" fill="#fff"/>
      <rect x="765.3666" y="22" width="117.9303" height="101.2" fill="#71e9b8" opacity=".21"/>
      <rect x="765.3666" y="22" width="117.9303" height="101.2" fill="none" stroke="#1c8371" stroke-width=".25"/>
    </g>
    <g>
      <rect x="258.7303" y="35.2" width="132" height="74.8" fill="#fff"/>
      <rect x="258.7303" y="35.2" width="132" height="74.8" fill="#e1ddd8" opacity=".6"/>
      <rect x="258.7303" y="35.2" width="132" height="74.8" fill="none" stroke="#8e8278" stroke-width=".25"/>
    </g>
    <g>
      <rect x="963.6" y="10.9016" width="119.6697" height="35.5224" fill="#fff"/>
      <rect x="963.6" y="10.9016" width="119.6697" height="35.5224" fill="#e1ddd8" opacity=".6"/>
      <rect x="963.6" y="10.9016" width="119.6697" height="35.5224" fill="none" stroke="#8e8278" stroke-width=".25"/>
    </g>
    <g>
      <rect x="963.6" y="53.6896" width="119.6697" height="35.5224" fill="#fff"/>
      <rect x="963.6" y="53.6896" width="119.6697" height="35.5224" fill="#e1ddd8" opacity=".6"/>
      <rect x="963.6" y="53.6896" width="119.6697" height="35.5224" fill="none" stroke="#8e8278" stroke-width=".25"/>
    </g>
    <g>
      <rect x="963.6" y="96.4776" width="119.6697" height="35.5224" fill="#fff"/>
      <rect x="963.6" y="96.4776" width="119.6697" height="35.5224" fill="#e1ddd8" opacity=".6"/>
      <rect x="963.6" y="96.4776" width="119.6697" height="35.5224" fill="none" stroke="#8e8278" stroke-width=".25"/>
    </g>
    <line x1="161.9303" y1="72.6" x2="181.0112" y2="72.6" fill="none" stroke="#3c3c41" stroke-miterlimit="10"/>
    <g>
      <line x1="236.7303" y1="72.6" x2="253.3482" y2="72.6" fill="none" stroke="#3c3c41" stroke-miterlimit="10"/>
      <polygon points="252.2539 76.3398 258.7303 72.6 252.2539 68.8603 252.2539 76.3398" fill="#3c3c41"/>
    </g>
    <line x1="641.5303" y1="72.6" x2="660.6112" y2="72.6" fill="none" stroke="#3c3c41" stroke-miterlimit="10"/>
    <g>
      <line x1="742.7303" y1="72.6" x2="759.3482" y2="72.6" fill="none" stroke="#3c3c41" stroke-miterlimit="10"/>
      <polygon points="758.2539 76.3398 764.7303 72.6 758.2539 68.8603 758.2539 76.3398" fill="#3c3c41"/>
    </g>
    <line x1="883.5303" y1="72.6" x2="902.6112" y2="72.6" fill="none" stroke="#3c3c41" stroke-miterlimit="10"/>
    <g>
      <line x1="940.7303" y1="72.6" x2="957.3482" y2="72.6" fill="none" stroke="#3c3c41" stroke-miterlimit="10"/>
      <polygon points="956.2539 76.3398 962.7303 72.6 956.2539 68.8603 956.2539 76.3398" fill="#3c3c41"/>
    </g>
    <line x1="883.5303" y1="110" x2="902.6112" y2="110" fill="none" stroke="#3c3c41" stroke-miterlimit="10"/>
    <g>
      <line x1="940.7303" y1="110" x2="957.3482" y2="110" fill="none" stroke="#3c3c41" stroke-miterlimit="10"/>
      <polygon points="956.2539 113.7398 962.7303 110 956.2539 106.2603 956.2539 113.7398" fill="#3c3c41"/>
    </g>
    <line x1="883.5303" y1="35.2" x2="902.6112" y2="35.2" fill="none" stroke="#3c3c41" stroke-miterlimit="10"/>
    <g>
      <line x1="940.7303" y1="35.2" x2="957.3482" y2="35.2" fill="none" stroke="#3c3c41" stroke-miterlimit="10"/>
      <polygon points="956.2539 38.9397 962.7303 35.2 956.2539 31.4602 956.2539 38.9397" fill="#3c3c41"/>
    </g>
    <line x1="390.7303" y1="72.6" x2="409.8112" y2="72.6" fill="none" stroke="#3c3c41" stroke-miterlimit="10"/>
    <g>
      <line x1="478.7303" y1="72.6" x2="495.3482" y2="72.6" fill="none" stroke="#3c3c41" stroke-miterlimit="10"/>
      <polygon points="494.2539 76.3398 500.7303 72.6 494.2539 68.8603 494.2539 76.3398" fill="#3c3c41"/>
    </g>
    <g>
      <line x1="10.9654" y1="72.6" x2="24.5482" y2="72.6" fill="none" stroke="#3c3c41" stroke-miterlimit="10"/>
      <g>
        <circle cx="11.1252" cy="72.6" r="2.8198" fill="#fff"/>
        <path d="M11.1252,75.7948c1.7615,0,3.1948-1.4333,3.1948-3.1948s-1.4333-3.1948-3.1948-3.1948-3.1948,1.4333-3.1948,3.1948,1.4333,3.1948,3.1948,3.1948-1.7615,0,0,0ZM11.1252,70.1552c1.3484,0,2.4448,1.0964,2.4448,2.4448s-1.0964,2.4448-2.4448,2.4448-2.4448-1.0964-2.4448-2.4448,1.0964-2.4448,2.4448-2.4448-1.3484,0,0,0Z" fill="#3c3c41"/>
      </g>
      <polygon points="23.4539 76.3398 29.9304 72.6 23.4539 68.8603 23.4539 76.3398" fill="#3c3c41"/>
    </g>
    <g>
      <path d="M824.3318,89.6047c-4.5812,0-8.2953-1.2941-8.2953-3.0024v15.9953c0,1.6435,3.6494,2.9765,8.1788,3.0024h.1165c4.5812,0,8.2953-1.2941,8.2953-3.0024v-15.9953c0,1.6694-3.7141,3.0024-8.2953,3.0024Z" fill="url(#linear-gradient)"/>
      <path d="M832.6271,86.6024c0,1.6694-3.7141,3.0024-8.2953,3.0024s-8.2953-1.2941-8.2953-3.0024,3.7141-3.0024,8.2953-3.0024,8.2953,1.2941,8.2953,3.0024" fill="#e8e8e8"/>
      <path d="M830.6989,86.3565c0,1.0612-2.86,1.9153-6.3671,1.9153s-6.3671-.8541-6.3671-1.9153,2.86-1.9024,6.3671-1.9024,6.3671.8541,6.3671,1.9024" fill="#50e6ff"/>
      <path d="M824.3318,86.8353c-1.7079-.0436-3.4106.2059-5.0341.7376,1.6251.5219,3.3283.7583,5.0341.6988,1.7093.0501,3.4138-.2041,5.0341-.7506-1.6282-.5072-3.3296-.739-5.0341-.6859Z" fill="#198ab3"/>
      <path d="M829.3789,97.7059v-4.4h-1.1647v5.3447h3.1835v-.9447h-2.0188ZM820.1389,95.5447c-.2405-.0967-.4634-.2322-.66-.4012-.1054-.1115-.1614-.2608-.1553-.4141-.0081-.1545.0656-.302.1941-.3882.1592-.1101.3502-.1647.5435-.1553.4609-.0207.9158.1112,1.2941.3753v-1.1129c-.4135-.1538-.8533-.2242-1.2941-.2071-.5077-.027-1.0083.1291-1.4106.44-.3557.2743-.558.7028-.5435,1.1518,0,.66.4141,1.1776,1.2941,1.5659.2858.1213.5554.2778.8024.4659.1225.1028.1935.2542.1941.4141,0,.1594-.0771.3089-.2071.4012-.1761.1031-.3785.1526-.5824.1424-.5205-.0043-1.0218-.1974-1.4106-.5435v1.2035c.4274.2204.9042.3273,1.3847.3106.5424.0322,1.08-.1182,1.5271-.4271.3201-.3032.4784-.7397.4271-1.1776.0062-.3313-.1088-.6535-.3235-.9059-.3024-.3185-.6683-.5698-1.0741-.7376ZM826.92,97.6024c.2938-.4922.4419-1.0576.4271-1.6306-.0292-.4851-.1758-.9558-.4271-1.3718-.202-.4041-.5166-.7412-.9059-.9706-.3945-.2236-.8407-.3396-1.2941-.3365-.4888-.0107-.9714.1099-1.3976.3494-.3995.2229-.7272.5551-.9447.9576-.2291.4576-.3445.9636-.3365,1.4753.0027.4495.109.8923.3106,1.2941.1975.3997.508.7327.8929.9576.3909.2384.8366.3721,1.2941.3882l1.1129,1.2941h1.5659l-1.5918-1.4235c.536-.1608.9957-.5101,1.2941-.9835ZM825.6259,97.2788c-.2389.2966-.6029.4642-.9835.4529-.3838.0124-.75-.1611-.9835-.4659-.2735-.3737-.4064-.832-.3753-1.2941-.03-.462.1027-.9199.3753-1.2941.2467-.3041.6178-.4802,1.0094-.4788.3841-.0166.75.164.9706.4788.255.3815.3777.8361.3494,1.2941.0452.4655-.084.9312-.3624,1.3071Z" fill="url(#radial-gradient)"/>
    </g>
    <g>
      <path d="M762.1011,32.7793l-.3222,1.1792c-.1201.3772-.2883.9313-.379,1.4245-.1292.341-.1998.7109-.1998,1.0972,0,1.5931,1.2035,2.9048,2.7508,3.0763.4354.0628.9281.0596,1.4804-.0216l2.5372-.3502c.638-.088,1.1618-.5486,1.3315-1.1701l1.7462-6.4137-8.945,1.1783Z" fill="url(#linear-gradient-2)" fill-rule="evenodd"/>
      <path d="M764.5759,33.083c-2.6743.4143-3.2233,2.4323-3.2233,2.4323l2.5611-9.4102,13.3825-1.8104-1.8251,6.6287c-.0949.3552-.3932.6274-.7631.6838l-.0747.0124-10.1325,1.4763.0751-.0128Z" fill="url(#linear-gradient-3)"/>
      <path d="M764.5759,33.083c-2.6743.4143-3.2233,2.4323-3.2233,2.4323l2.5611-9.4102,13.3825-1.8104-1.8251,6.6287c-.0949.3552-.3932.6274-.7631.6838l-.0747.0124-10.1325,1.4763.0751-.0128Z" fill="url(#linear-gradient-4)" fill-opacity=".8"/>
      <path d="M766.0935,27.079l14.8152-2.1885c.3524-.0481.638-.3061.7278-.6439l1.529-5.5333c.0211-.0752.0321-.1545.0321-.236,0-.4844-.3924-.8772-.8772-.8772-.0376,0-.0752.0023-.1114.0069l-14.1364,2.089c-1.5353.2466-2.7751,1.3791-3.1775,2.8563l-2.0386,7.3885c.4093-1.4946.6609-2.3956,3.2371-2.8617Z" fill="url(#linear-gradient-5)"/>
      <path d="M766.0935,27.079l14.8152-2.1885c.3524-.0481.638-.3061.7278-.6439l1.529-5.5333c.0211-.0752.0321-.1545.0321-.236,0-.4844-.3924-.8772-.8772-.8772-.0376,0-.0752.0023-.1114.0069l-14.1364,2.089c-1.5353.2466-2.7751,1.3791-3.1775,2.8563l-2.0386,7.3885c.4093-1.4946.6609-2.3956,3.2371-2.8617Z" fill="url(#linear-gradient-6)"/>
      <path d="M766.0935,27.079l14.8152-2.1885c.3524-.0481.638-.3061.7278-.6439l1.529-5.5333c.0211-.0752.0321-.1545.0321-.236,0-.4844-.3924-.8772-.8772-.8772-.0376,0-.0752.0023-.1114.0069l-14.1364,2.089c-1.5353.2466-2.7751,1.3791-3.1775,2.8563l-2.0386,7.3885c.4093-1.4946.6609-2.3956,3.2371-2.8617Z" fill="url(#linear-gradient-7)" fill-opacity=".4"/>
      <path d="M766.0934,27.0793c-2.1454.3882-2.678,1.0793-3.0327,2.1623l-1.7082,6.2749s.5459-1.9978,3.1876-2.425l10.0936-1.4703.0747-.0124c.3699-.0564.6682-.3291.7631-.6838l1.5015-5.4531-10.8796,1.6073Z" fill="url(#linear-gradient-8)"/>
      <path d="M766.0934,27.0793c-2.1454.3882-2.678,1.0793-3.0327,2.1623l-1.7082,6.2749s.5459-1.9978,3.1876-2.425l10.0936-1.4703.0747-.0124c.3699-.0564.6682-.3291.7631-.6838l1.5015-5.4531-10.8796,1.6073Z" fill="url(#linear-gradient-9)" fill-opacity=".2"/>
      <path d="M764.5402,33.0916c-2.2325.3612-2.9658,1.8397-3.1404,2.2902-.1292.3419-.1998.7118-.1998,1.0982,0,1.5931,1.2035,2.9048,2.7508,3.0762.4354.0628.9281.0596,1.4804-.0216l2.5372-.3501c.638-.088,1.1618-.5486,1.3315-1.1701l1.5917-5.8477-6.3509.9253-.0004-.0005Z" fill="url(#linear-gradient-10)" fill-rule="evenodd"/>
    </g>
  </g>
  <g id="Text">
    <g>
      <path d="M191.9699,70.5638c-1.3853,0-2.4995-.458-3.3428-1.374-.834-.916-1.251-2.1079-1.251-3.5752,0-1.5815.4263-2.8394,1.2783-3.7734.8569-.939,2.0166-1.4082,3.4795-1.4082,1.3491,0,2.438.4556,3.2676,1.3672s1.2441,2.103,1.2441,3.5752c0,1.5996-.4238,2.8643-1.2715,3.7939-.2007.2231-.4146.4146-.6426.5742l2.7549,1.9756h-2.085l-1.8457-1.3809c-.4829.1504-1.0117.2256-1.5859.2256ZM192.052,61.472c-1.0298,0-1.8662.3716-2.5088,1.1143s-.9639,1.7183-.9639,2.9258c0,1.2031.312,2.1763.9365,2.9189.6289.7339,1.4468,1.1006,2.4541,1.1006,1.0757,0,1.9233-.3511,2.543-1.0527s.9297-1.6841.9297-2.9463c0-1.2988-.3008-2.2993-.9023-3.001-.6016-.7065-1.4312-1.0596-2.4883-1.0596Z" fill="#2f2f2f"/>
      <path d="M204.0749,70.3997h-1.1211v-1.1074h-.0273c-.4648.8477-1.1851,1.2715-2.1602,1.2715-1.668,0-2.502-.9937-2.502-2.9805v-4.1836h1.1143v4.0059c0,1.4766.5649,2.2148,1.6953,2.2148.5469,0,.9971-.2017,1.3501-.605s.5298-.9307.5298-1.5825v-4.0332h1.1211v7Z" fill="#2f2f2f"/>
      <path d="M211.8947,67.18h-4.9424c.0181.7793.228,1.3809.6289,1.8047s.9526.6357,1.6543.6357c.7886,0,1.5132-.2598,2.1738-.7793v1.0527c-.6152.4468-1.4287.6699-2.4404.6699-.9888,0-1.7661-.3179-2.3311-.9536s-.8477-1.5303-.8477-2.6831c0-1.0894.3086-1.9766.9263-2.6626s1.3843-1.0288,2.3003-1.0288,1.6245.2964,2.126.8887.752,1.415.752,2.4678v.5879ZM210.7463,66.2298c-.0044-.647-.1606-1.1509-.4683-1.5107s-.7349-.54-1.2817-.54c-.5288,0-.9775.189-1.3467.5674s-.5972.8726-.6836,1.4834h3.7803Z" fill="#2f2f2f"/>
      <path d="M217.2282,64.5345c-.1958-.1504-.4785-.2256-.8477-.2256-.4785,0-.8784.2256-1.1997.6768s-.4819,1.0664-.4819,1.8457v3.5684h-1.1211v-7h1.1211v1.4424h.0273c.1597-.4922.4033-.876.7314-1.1519s.6948-.4136,1.1006-.4136c.2915,0,.5151.0317.6699.0957v1.1621Z" fill="#2f2f2f"/>
      <path d="M224.569,63.3997l-3.2197,8.1211c-.5742,1.4492-1.3809,2.1738-2.4199,2.1738-.2915,0-.5356-.0298-.7314-.0889v-1.0049c.2417.082.4624.123.6631.123.5649,0,.9888-.3374,1.2715-1.0117l.5605-1.3262-2.7344-6.9863h1.2441l1.8936,5.3867c.0229.0684.0708.2461.1436.5332h.041c.0229-.1094.0684-.2827.1367-.5195l1.9893-5.4004h1.1621Z" fill="#2f2f2f"/>
      <path d="M234.03,60.597l-4.7031,11.4297h-1.0459l4.6895-11.4297h1.0596Z" fill="#2f2f2f"/>
      <path d="M196.0676,83.9798h-4.9424c.0181.7793.228,1.3809.6289,1.8047s.9526.6357,1.6543.6357c.7886,0,1.5132-.2598,2.1738-.7793v1.0527c-.6152.4468-1.4287.6699-2.4404.6699-.9888,0-1.7661-.3179-2.3311-.9536s-.8477-1.5303-.8477-2.6831c0-1.0894.3086-1.9766.9263-2.6626s1.3843-1.0288,2.3003-1.0288,1.6245.2964,2.126.8887.752,1.415.752,2.4678v.5879ZM194.9191,83.0296c-.0044-.647-.1606-1.1509-.4683-1.5107s-.7349-.54-1.2817-.54c-.5288,0-.9775.189-1.3467.5674s-.5972.8726-.6836,1.4834h3.7803Z" fill="#2f2f2f"/>
      <path d="M202.8088,80.1995l-2.3516,3.541,2.3105,3.459h-1.3057l-1.374-2.2695c-.0864-.1411-.189-.3188-.3076-.5332h-.0273c-.0229.041-.1299.2188-.3213.5332l-1.4014,2.2695h-1.292l2.3857-3.4316-2.2832-3.5684h1.3057l1.3535,2.3926c.1001.1777.1982.3599.2939.5469h.0273l1.75-2.9395h1.2373Z" fill="#2f2f2f"/>
      <path d="M207.7785,87.1312c-.2642.146-.6128.2188-1.0459.2188-1.2261,0-1.8389-.6836-1.8389-2.0508v-4.1426h-1.2031v-.957h1.2031v-1.709l1.1211-.3623v2.0713h1.7637v.957h-1.7637v3.9443c0,.4692.0796.8042.2393,1.0049s.4238.3008.793.3008c.2827,0,.5264-.0776.7314-.2324v.957Z" fill="#2f2f2f"/>
      <path d="M212.8098,81.3343c-.1958-.1504-.4785-.2256-.8477-.2256-.4785,0-.8784.2256-1.1997.6768s-.4819,1.0664-.4819,1.8457v3.5684h-1.1211v-7h1.1211v1.4424h.0273c.1597-.4922.4033-.876.7314-1.1519s.6948-.4136,1.1006-.4136c.2915,0,.5151.0317.6699.0957v1.1621Z" fill="#2f2f2f"/>
      <path d="M218.9855,87.1995h-1.1211v-1.0938h-.0273c-.4878.8384-1.2056,1.2578-2.1533,1.2578-.6973,0-1.2432-.1846-1.6372-.5537s-.5913-.8589-.5913-1.4697c0-1.3081.77-2.0688,2.3105-2.2832l2.0986-.2939c0-1.1895-.481-1.7842-1.4424-1.7842-.8433,0-1.604.2871-2.2832.8613v-1.1484c.688-.4375,1.481-.6562,2.3789-.6562,1.645,0,2.4678.8706,2.4678,2.6113v4.5527ZM217.8645,83.6585l-1.6885.2324c-.5195.0728-.9116.2017-1.1758.3862s-.3965.5117-.3965.981c0,.3418.1221.6211.3657.8374s.5684.3247.9741.3247c.5562,0,1.0151-.1948,1.3774-.5845s.5435-.8828.5435-1.48v-.6973Z" fill="#2f2f2f"/>
      <path d="M225.8288,86.8782c-.5376.3237-1.1758.4854-1.9141.4854-.998,0-1.8037-.3247-2.4165-.9741s-.9194-1.4912-.9194-2.5259c0-1.1528.3306-2.0791.9912-2.7788s1.5425-1.0493,2.6455-1.0493c.6152,0,1.1577.1138,1.627.3418v1.1484c-.5195-.3647-1.0757-.5469-1.668-.5469-.7153,0-1.3022.2563-1.7603.769s-.687,1.186-.687,2.02c0,.8203.2153,1.4673.646,1.9414s1.0083.7109,1.7329.7109c.6108,0,1.1851-.2026,1.7227-.6084v1.0664Z" fill="#2f2f2f"/>
      <path d="M230.9924,87.1312c-.2642.146-.6128.2188-1.0459.2188-1.2261,0-1.8389-.6836-1.8389-2.0508v-4.1426h-1.2031v-.957h1.2031v-1.709l1.1211-.3623v2.0713h1.7637v.957h-1.7637v3.9443c0,.4692.0796.8042.2393,1.0049s.4238.3008.793.3008c.2827,0,.5264-.0776.7314-.2324v.957Z" fill="#2f2f2f"/>
    </g>
    <g>
      <rect x="657.5334" y="46.8493" width="89.5969" height="55.9015" fill="none"/>
      <path d="M693.7053,58.7508h-5.0859v-9.8027h1.1484v8.7637h3.9375v1.0391Z" fill="#2f2f2f"/>
      <path d="M697.8908,58.9148c-1.0347,0-1.8604-.3271-2.478-.981s-.9263-1.521-.9263-2.6011c0-1.1758.3213-2.0942.9639-2.7549s1.5107-.9912,2.6045-.9912c1.0435,0,1.8584.3213,2.4438.9639s.8784,1.5337.8784,2.6729c0,1.1167-.3154,2.0107-.9468,2.6831s-1.4775,1.0083-2.5396,1.0083ZM697.9729,52.5301c-.7202,0-1.2896.2451-1.709.7349s-.6289,1.1655-.6289,2.0269c0,.8296.2119,1.4834.6357,1.9619s.9912.7178,1.7021.7178c.7246,0,1.2817-.2349,1.6714-.7041s.5845-1.1372.5845-2.0029c0-.875-.1948-1.5493-.5845-2.0234s-.9468-.7109-1.6714-.7109Z" fill="#2f2f2f"/>
      <path d="M708.1257,58.7508h-1.1211v-1.0938h-.0273c-.4878.8384-1.2056,1.2578-2.1533,1.2578-.6973,0-1.2432-.1846-1.6372-.5537s-.5913-.8589-.5913-1.4697c0-1.3081.77-2.0688,2.3105-2.2832l2.0986-.2939c0-1.1895-.481-1.7842-1.4424-1.7842-.8433,0-1.604.2871-2.2832.8613v-1.1484c.688-.4375,1.481-.6562,2.3789-.6562,1.645,0,2.4678.8706,2.4678,2.6113v4.5527ZM707.0046,55.2098l-1.6885.2324c-.5195.0728-.9116.2017-1.1758.3862s-.3965.5117-.3965.981c0,.3418.1221.6211.3657.8374s.5684.3247.9741.3247c.5562,0,1.0151-.1948,1.3774-.5845s.5435-.8828.5435-1.48v-.6973Z" fill="#2f2f2f"/>
      <path d="M716.1945,58.7508h-1.1211v-1.1895h-.0273c-.5195.9023-1.3218,1.3535-2.4062,1.3535-.8794,0-1.5825-.3135-2.1089-.9399s-.7896-1.48-.7896-2.5601c0-1.1577.2915-2.085.875-2.7822s1.3604-1.0459,2.3311-1.0459c.9614,0,1.6611.3784,2.0986,1.1348h.0273v-4.334h1.1211v10.3633ZM715.0734,55.5857v-1.0322c0-.5649-.187-1.0435-.5605-1.4355s-.8477-.5879-1.4219-.5879c-.6836,0-1.2212.2505-1.6133.752s-.5879,1.1938-.5879,2.0781c0,.8066.188,1.4434.564,1.9106s.8809.7007,1.5142.7007c.6245,0,1.1313-.2256,1.521-.6768s.5845-1.021.5845-1.709Z" fill="#2f2f2f"/>
      <path d="M674.6633,75.2293c-.5376.3237-1.1758.4854-1.9141.4854-.998,0-1.8037-.3247-2.4165-.9741s-.9194-1.4912-.9194-2.5259c0-1.1528.3306-2.0791.9912-2.7788s1.5425-1.0493,2.6455-1.0493c.6152,0,1.1577.1138,1.627.3418v1.1484c-.5195-.3647-1.0757-.5469-1.668-.5469-.7153,0-1.3022.2563-1.7603.769s-.687,1.186-.687,2.02c0,.8203.2153,1.4673.646,1.9414s1.0083.7109,1.7329.7109c.6108,0,1.1851-.2026,1.7227-.6084v1.0664Z" fill="#2f2f2f"/>
      <path d="M679.1037,75.7146c-1.0347,0-1.8604-.3271-2.478-.981s-.9263-1.521-.9263-2.6011c0-1.1758.3213-2.0942.9639-2.7549s1.5107-.9912,2.6045-.9912c1.0435,0,1.8584.3213,2.4438.9639s.8784,1.5337.8784,2.6729c0,1.1167-.3154,2.0107-.9468,2.6831s-1.4775,1.0083-2.5396,1.0083ZM679.1857,69.3299c-.7202,0-1.2896.2451-1.709.7349s-.6289,1.1655-.6289,2.0269c0,.8296.2119,1.4834.6357,1.9619s.9912.7178,1.7021.7178c.7246,0,1.2817-.2349,1.6714-.7041s.5845-1.1372.5845-2.0029c0-.875-.1948-1.5493-.5845-2.0234s-.9468-.7109-1.6714-.7109Z" fill="#2f2f2f"/>
      <path d="M690.1159,75.5506h-1.1211v-3.9922c0-1.4858-.5425-2.2285-1.627-2.2285-.5605,0-1.0244.2109-1.3911.6323s-.5503.9536-.5503,1.5962v3.9922h-1.1211v-7h1.1211v1.1621h.0273c.5288-.8843,1.2944-1.3262,2.2969-1.3262.7656,0,1.3511.2471,1.7568.7417s.6084,1.209.6084,2.1431v4.2793Z" fill="#2f2f2f"/>
      <path d="M695.5222,66.1717c-.2188-.123-.4673-.1846-.7451-.1846-.7837,0-1.1758.4946-1.1758,1.4834v1.0801h1.6406v.957h-1.6406v6.043h-1.1143v-6.043h-1.1963v-.957h1.1963v-1.1348c0-.7339.2119-1.3135.6357-1.7397s.9526-.6392,1.5859-.6392c.3418,0,.6128.041.8135.123v1.0117Z" fill="#2f2f2f"/>
      <path d="M699.2966,75.7146c-1.0347,0-1.8604-.3271-2.478-.981s-.9263-1.521-.9263-2.6011c0-1.1758.3213-2.0942.9639-2.7549s1.5107-.9912,2.6045-.9912c1.0435,0,1.8584.3213,2.4438.9639s.8784,1.5337.8784,2.6729c0,1.1167-.3154,2.0107-.9468,2.6831s-1.4775,1.0083-2.5396,1.0083ZM699.3786,69.3299c-.7202,0-1.2896.2451-1.709.7349s-.6289,1.1655-.6289,2.0269c0,.8296.2119,1.4834.6357,1.9619s.9912.7178,1.7021.7178c.7246,0,1.2817-.2349,1.6714-.7041s.5845-1.1372.5845-2.0029c0-.875-.1948-1.5493-.5845-2.0234s-.9468-.7109-1.6714-.7109Z" fill="#2f2f2f"/>
      <path d="M708.1501,69.6854c-.1958-.1504-.4785-.2256-.8477-.2256-.4785,0-.8784.2256-1.1997.6768s-.4819,1.0664-.4819,1.8457v3.5684h-1.1211v-7h1.1211v1.4424h.0273c.1597-.4922.4033-.876.7314-1.1519s.6948-.4136,1.1006-.4136c.2915,0,.5151.0317.6699.0957v1.1621Z" fill="#2f2f2f"/>
      <path d="M719.3332,75.5506h-1.1211v-4.0195c0-.7749-.1196-1.3354-.3589-1.6816s-.6416-.5195-1.2065-.5195c-.4785,0-.8853.2188-1.2202.6562s-.5024.9614-.5024,1.5723v3.9922h-1.1211v-4.1562c0-1.3765-.5308-2.0645-1.5928-2.0645-.4922,0-.8979.2061-1.2168.6187s-.4785.9492-.4785,1.6099v3.9922h-1.1211v-7h1.1211v1.1074h.0273c.4966-.8477,1.2212-1.2715,2.1738-1.2715.4785,0,.8955.1333,1.251.3999s.5991.6162.7314,1.0493c.5195-.9663,1.2944-1.4492,2.3242-1.4492,1.5405,0,2.3105.9502,2.3105,2.8506v4.3135Z" fill="#2f2f2f"/>
      <path d="M727.0402,72.3309h-4.9424c.0181.7793.228,1.3809.6289,1.8047s.9526.6357,1.6543.6357c.7886,0,1.5132-.2598,2.1738-.7793v1.0527c-.6152.4468-1.4287.6699-2.4404.6699-.9888,0-1.7661-.3179-2.3311-.9536s-.8477-1.5303-.8477-2.6831c0-1.0894.3086-1.9766.9263-2.6626s1.3843-1.0288,2.3003-1.0288,1.6245.2964,2.126.8887.752,1.415.752,2.4678v.5879ZM725.8918,71.3807c-.0044-.647-.1606-1.1509-.4683-1.5107s-.7349-.54-1.2817-.54c-.5288,0-.9775.189-1.3467.5674s-.5972.8726-.6836,1.4834h3.7803Z" fill="#2f2f2f"/>
      <path d="M734.7717,75.5506h-1.1211v-1.1895h-.0273c-.5195.9023-1.3218,1.3535-2.4062,1.3535-.8794,0-1.5825-.3135-2.1089-.9399s-.7896-1.48-.7896-2.5601c0-1.1577.2915-2.085.875-2.7822s1.3604-1.0459,2.3311-1.0459c.9614,0,1.6611.3784,2.0986,1.1348h.0273v-4.334h1.1211v10.3633ZM733.6506,72.3855v-1.0322c0-.5649-.187-1.0435-.5605-1.4355s-.8477-.5879-1.4219-.5879c-.6836,0-1.2212.2505-1.6133.752s-.5879,1.1938-.5879,2.0781c0,.8066.188,1.4434.564,1.9106s.8809.7007,1.5142.7007c.6245,0,1.1313-.2256,1.521-.6768s.5845-1.021.5845-1.709Z" fill="#2f2f2f"/>
      <path d="M695.8815,92.3509h-1.1211v-1.1895h-.0273c-.5195.9023-1.3218,1.3535-2.4062,1.3535-.8794,0-1.5825-.3135-2.1089-.9399s-.7896-1.48-.7896-2.5601c0-1.1577.2915-2.085.875-2.7822s1.3604-1.0459,2.3311-1.0459c.9614,0,1.6611.3784,2.0986,1.1348h.0273v-4.334h1.1211v10.3633ZM694.7604,89.1858v-1.0322c0-.5649-.187-1.0435-.5605-1.4355s-.8477-.5879-1.4219-.5879c-.6836,0-1.2212.2505-1.6133.752s-.5879,1.1938-.5879,2.0781c0,.8066.188,1.4434.564,1.9106s.8809.7007,1.5142.7007c.6245,0,1.1313-.2256,1.521-.6768s.5845-1.021.5845-1.709Z" fill="#2f2f2f"/>
      <path d="M703.0388,92.3509h-1.1211v-1.0938h-.0273c-.4878.8384-1.2056,1.2578-2.1533,1.2578-.6973,0-1.2432-.1846-1.6372-.5537s-.5913-.8589-.5913-1.4697c0-1.3081.77-2.0688,2.3105-2.2832l2.0986-.2939c0-1.1895-.481-1.7842-1.4424-1.7842-.8433,0-1.604.2871-2.2832.8613v-1.1484c.688-.4375,1.481-.6562,2.3789-.6562,1.645,0,2.4678.8706,2.4678,2.6113v4.5527ZM701.9177,88.8099l-1.6885.2324c-.5195.0728-.9116.2017-1.1758.3862s-.3965.5117-.3965.981c0,.3418.1221.6211.3657.8374s.5684.3247.9741.3247c.5562,0,1.0151-.1948,1.3774-.5845s.5435-.8828.5435-1.48v-.6973Z" fill="#2f2f2f"/>
      <path d="M708.2971,92.2825c-.2642.146-.6128.2188-1.0459.2188-1.2261,0-1.8389-.6836-1.8389-2.0508v-4.1426h-1.2031v-.957h1.2031v-1.709l1.1211-.3623v2.0713h1.7637v.957h-1.7637v3.9443c0,.4692.0796.8042.2393,1.0049s.4238.3008.793.3008c.2827,0,.5264-.0776.7314-.2324v.957Z" fill="#2f2f2f"/>
      <path d="M714.9143,92.3509h-1.1211v-1.0938h-.0273c-.4878.8384-1.2056,1.2578-2.1533,1.2578-.6973,0-1.2432-.1846-1.6372-.5537s-.5913-.8589-.5913-1.4697c0-1.3081.77-2.0688,2.3105-2.2832l2.0986-.2939c0-1.1895-.481-1.7842-1.4424-1.7842-.8433,0-1.604.2871-2.2832.8613v-1.1484c.688-.4375,1.481-.6562,2.3789-.6562,1.645,0,2.4678.8706,2.4678,2.6113v4.5527ZM713.7932,88.8099l-1.6885.2324c-.5195.0728-.9116.2017-1.1758.3862s-.3965.5117-.3965.981c0,.3418.1221.6211.3657.8374s.5684.3247.9741.3247c.5562,0,1.0151-.1948,1.3774-.5845s.5435-.8828.5435-1.48v-.6973Z" fill="#2f2f2f"/>
    </g>
    <g>
      <path d="M909.8771,74.4036v-1.3535c.1553.1367.3408.2598.5576.3691.2158.1094.4443.2017.6836.2769s.4795.1333.7207.1743c.2422.041.4648.0615.6699.0615.707,0,1.2344-.1309,1.583-.3931s.5225-.6392.5225-1.1313c0-.2642-.0576-.4946-.1738-.6904s-.2773-.375-.4824-.5366-.4473-.3169-.7275-.4648-.582-.3042-.9062-.4683c-.3418-.1733-.6602-.3486-.957-.5264-.2959-.1777-.5537-.3735-.7725-.5879s-.3906-.457-.5156-.728c-.126-.271-.1885-.5889-.1885-.9536,0-.4468.0986-.835.2939-1.1655.1963-.3306.4541-.6025.7725-.8169.3193-.2144.6826-.3735,1.0908-.4785.4072-.105.8232-.1572,1.2471-.1572.9668,0,1.6709.1162,2.1123.3486v1.292c-.5781-.4009-1.3213-.6016-2.2285-.6016-.25,0-.501.0264-.752.0786-.25.0522-.4736.1377-.6699.2563-.1953.1187-.3555.271-.4785.458s-.1846.4146-.1846.6836c0,.2505.0469.4673.1406.6494.0928.1821.2314.3486.4131.499.1826.1504.4043.2964.667.4375.2617.1411.5635.2964.9053.4648.3516.1733.6836.3555.998.5469s.5908.4033.8271.6357c.2373.2324.4248.4897.5645.7725.1387.2827.208.606.208.9707,0,.4829-.0947.8921-.2832,1.2271-.1895.335-.4443.6074-.7656.8169s-.6914.3613-1.1113.4546c-.4189.0933-.8613.1401-1.3262.1401-.1543,0-.3457-.0127-.5742-.0376-.2275-.0249-.46-.0615-.6973-.1094-.2363-.0479-.4609-.1069-.6729-.1777s-.3818-.1494-.5098-.2358Z" fill="#2f2f2f"/>
      <path d="M922.7482,67.8001l-3.2197,8.1211c-.5742,1.4492-1.3809,2.1738-2.4199,2.1738-.291,0-.5352-.0298-.7314-.0889v-1.0049c.2422.082.4629.123.6631.123.5654,0,.9893-.3374,1.2715-1.0117l.5605-1.3262-2.7344-6.9863h1.2441l1.8936,5.3867c.0234.0684.0713.2461.1436.5332h.041c.0234-.1094.0684-.2827.1367-.5195l1.9893-5.4004h1.1621Z" fill="#2f2f2f"/>
      <path d="M929.802,74.8001h-1.1211v-3.9922c0-1.4858-.543-2.2285-1.627-2.2285-.5605,0-1.0244.2109-1.3916.6323-.3662.4214-.5498.9536-.5498,1.5962v3.9922h-1.1211v-7h1.1211v1.1621h.0273c.5283-.8843,1.2939-1.3262,2.2969-1.3262.7656,0,1.3506.2471,1.7568.7417.4053.4946.6084,1.209.6084,2.1431v4.2793Z" fill="#2f2f2f"/>
      <path d="M936.6506,74.4788c-.5381.3237-1.1758.4854-1.9141.4854-.998,0-1.8037-.3247-2.417-.9741-.6123-.6494-.9189-1.4912-.9189-2.5259,0-1.1528.3301-2.0791.9912-2.7788.6602-.6997,1.542-1.0493,2.6455-1.0493.6152,0,1.1572.1138,1.627.3418v1.1484c-.5195-.3647-1.0762-.5469-1.668-.5469-.7158,0-1.3027.2563-1.7607.769s-.6865,1.186-.6865,2.02c0,.8203.2148,1.4673.6455,1.9414s1.0088.7109,1.7334.7109c.6104,0,1.1846-.2026,1.7227-.6084v1.0664Z" fill="#2f2f2f"/>
    </g>
    <g>
      <path d="M909.8771,111.8035v-1.3535c.1553.1367.3408.2598.5576.3691.2158.1094.4443.2021.6836.2773s.4795.1328.7207.1738c.2422.041.4648.0615.6699.0615.707,0,1.2344-.1309,1.583-.3926.3486-.2627.5225-.6396.5225-1.1318,0-.2637-.0576-.4941-.1738-.6904-.1162-.1953-.2773-.375-.4824-.5361-.2051-.1621-.4473-.3174-.7275-.4648-.2803-.1484-.582-.3047-.9062-.4688-.3418-.1729-.6602-.3486-.957-.5264-.2959-.1777-.5537-.373-.7725-.5879-.2188-.2139-.3906-.457-.5156-.7275-.126-.2715-.1885-.5889-.1885-.9541,0-.4463.0986-.835.2939-1.165.1963-.3311.4541-.6025.7725-.8174.3193-.2139.6826-.373,1.0908-.4785.4072-.1045.8232-.1572,1.2471-.1572.9668,0,1.6709.1162,2.1123.3486v1.292c-.5781-.4004-1.3213-.6016-2.2285-.6016-.25,0-.501.0264-.752.0791-.25.0518-.4736.1377-.6699.2559-.1953.1191-.3555.2715-.4785.458-.123.1875-.1846.415-.1846.6836,0,.251.0469.4678.1406.6494.0928.1826.2314.3486.4131.499.1826.1504.4043.2969.667.4375.2617.1416.5635.2969.9053.4648.3516.1738.6836.3555.998.5469s.5908.4033.8271.6357c.2373.2324.4248.4902.5645.7725.1387.2832.208.6064.208.9707,0,.4834-.0947.8926-.2832,1.2275-.1895.335-.4443.6074-.7656.8164-.3213.21-.6914.3613-1.1113.4551-.4189.0928-.8613.1396-1.3262.1396-.1543,0-.3457-.0127-.5742-.0371-.2275-.0254-.46-.0615-.6973-.1094-.2363-.0479-.4609-.1074-.6729-.1777-.2119-.0713-.3818-.1494-.5098-.2363Z" fill="#2f2f2f"/>
      <path d="M922.7482,105.2l-3.2197,8.1211c-.5742,1.4492-1.3809,2.1738-2.4199,2.1738-.291,0-.5352-.0293-.7314-.0889v-1.0049c.2422.082.4629.123.6631.123.5654,0,.9893-.3369,1.2715-1.0117l.5605-1.3262-2.7344-6.9863h1.2441l1.8936,5.3867c.0234.0684.0713.2461.1436.5332h.041c.0234-.1094.0684-.2822.1367-.5195l1.9893-5.4004h1.1621Z" fill="#2f2f2f"/>
      <path d="M929.802,112.2h-1.1211v-3.9922c0-1.4854-.543-2.2285-1.627-2.2285-.5605,0-1.0244.2109-1.3916.6328-.3662.4209-.5498.9531-.5498,1.5957v3.9922h-1.1211v-7h1.1211v1.1621h.0273c.5283-.8838,1.2939-1.3262,2.2969-1.3262.7656,0,1.3506.2471,1.7568.7422.4053.4941.6084,1.209.6084,2.1426v4.2793Z" fill="#2f2f2f"/>
      <path d="M936.6506,111.8787c-.5381.3242-1.1758.4854-1.9141.4854-.998,0-1.8037-.3242-2.417-.9736-.6123-.6494-.9189-1.4912-.9189-2.5264,0-1.1523.3301-2.0791.9912-2.7783.6602-.7002,1.542-1.0498,2.6455-1.0498.6152,0,1.1572.1143,1.627.3418v1.1484c-.5195-.3643-1.0762-.5469-1.668-.5469-.7158,0-1.3027.2568-1.7607.7695s-.6865,1.1855-.6865,2.0195c0,.8203.2148,1.4678.6455,1.9414.4307.4746,1.0088.7109,1.7334.7109.6104,0,1.1846-.2021,1.7227-.6084v1.0664Z" fill="#2f2f2f"/>
    </g>
    <g>
      <path d="M909.8771,37.0037v-1.3535c.1553.1367.3408.2598.5576.3691.2158.1094.4443.2017.6836.2769s.4795.1333.7207.1743c.2422.041.4648.0615.6699.0615.707,0,1.2344-.1309,1.583-.3931s.5225-.6392.5225-1.1313c0-.2642-.0576-.4946-.1738-.6904s-.2773-.375-.4824-.5366-.4473-.3169-.7275-.4648-.582-.3042-.9062-.4683c-.3418-.1733-.6602-.3486-.957-.5264-.2959-.1777-.5537-.3735-.7725-.5879s-.3906-.457-.5156-.728c-.126-.271-.1885-.5889-.1885-.9536,0-.4468.0986-.835.2939-1.1655.1963-.3306.4541-.6025.7725-.8169.3193-.2144.6826-.3735,1.0908-.4785.4072-.105.8232-.1572,1.2471-.1572.9668,0,1.6709.1162,2.1123.3486v1.292c-.5781-.4009-1.3213-.6016-2.2285-.6016-.25,0-.501.0264-.752.0786-.25.0522-.4736.1377-.6699.2563-.1953.1187-.3555.271-.4785.458s-.1846.4146-.1846.6836c0,.2505.0469.4673.1406.6494.0928.1821.2314.3486.4131.499.1826.1504.4043.2964.667.4375.2617.1411.5635.2964.9053.4648.3516.1733.6836.3555.998.5469s.5908.4033.8271.6357c.2373.2324.4248.4897.5645.7725.1387.2827.208.606.208.9707,0,.4829-.0947.8921-.2832,1.2271-.1895.335-.4443.6074-.7656.8169s-.6914.3613-1.1113.4546c-.4189.0933-.8613.1401-1.3262.1401-.1543,0-.3457-.0127-.5742-.0376-.2275-.0249-.46-.0615-.6973-.1094-.2363-.0479-.4609-.1069-.6729-.1777s-.3818-.1494-.5098-.2358Z" fill="#2f2f2f"/>
      <path d="M922.7482,30.4002l-3.2197,8.1211c-.5742,1.4492-1.3809,2.1738-2.4199,2.1738-.291,0-.5352-.0298-.7314-.0889v-1.0049c.2422.082.4629.123.6631.123.5654,0,.9893-.3374,1.2715-1.0117l.5605-1.3262-2.7344-6.9863h1.2441l1.8936,5.3867c.0234.0684.0713.2461.1436.5332h.041c.0234-.1094.0684-.2827.1367-.5195l1.9893-5.4004h1.1621Z" fill="#2f2f2f"/>
      <path d="M929.802,37.4002h-1.1211v-3.9922c0-1.4858-.543-2.2285-1.627-2.2285-.5605,0-1.0244.2109-1.3916.6323-.3662.4214-.5498.9536-.5498,1.5962v3.9922h-1.1211v-7h1.1211v1.1621h.0273c.5283-.8843,1.2939-1.3262,2.2969-1.3262.7656,0,1.3506.2471,1.7568.7417.4053.4946.6084,1.209.6084,2.1431v4.2793Z" fill="#2f2f2f"/>
      <path d="M936.6506,37.0789c-.5381.3237-1.1758.4854-1.9141.4854-.998,0-1.8037-.3247-2.417-.9741-.6123-.6494-.9189-1.4912-.9189-2.5259,0-1.1528.3301-2.0791.9912-2.7788.6602-.6997,1.542-1.0493,2.6455-1.0493.6152,0,1.1572.1138,1.627.3418v1.1484c-.5195-.3647-1.0762-.5469-1.668-.5469-.7158,0-1.3027.2563-1.7607.769s-.6865,1.186-.6865,2.02c0,.8203.2148,1.4673.6455,1.9414s1.0088.7109,1.7334.7109c.6104,0,1.1846-.2026,1.7227-.6084v1.0664Z" fill="#2f2f2f"/>
    </g>
    <g>
      <path d="M419.9133,68.0364h-2.8301v8.7637h-1.1484v-8.7637h-2.8232v-1.0391h6.8018v1.0391Z" fill="#2f2f2f"/>
      <path d="M423.9489,70.9349c-.1958-.1504-.4785-.2256-.8477-.2256-.4785,0-.8784.2256-1.1997.6768s-.4819,1.0664-.4819,1.8457v3.5684h-1.1211v-7h1.1211v1.4424h.0273c.1597-.4922.4033-.876.7314-1.1519s.6948-.4136,1.1006-.4136c.2915,0,.5151.0317.6699.0957v1.1621Z" fill="#2f2f2f"/>
      <path d="M430.1247,76.8001h-1.1211v-1.0938h-.0273c-.4878.8384-1.2056,1.2578-2.1533,1.2578-.6973,0-1.2432-.1846-1.6372-.5537s-.5913-.8589-.5913-1.4697c0-1.3081.77-2.0688,2.3105-2.2832l2.0986-.2939c0-1.1895-.481-1.7842-1.4424-1.7842-.8433,0-1.604.2871-2.2832.8613v-1.1484c.688-.4375,1.481-.6562,2.3789-.6562,1.645,0,2.4678.8706,2.4678,2.6113v4.5527ZM429.0036,73.2591l-1.6885.2324c-.5195.0728-.9116.2017-1.1758.3862s-.3965.5117-.3965.981c0,.3418.1221.6211.3657.8374s.5684.3247.9741.3247c.5562,0,1.0151-.1948,1.3774-.5845s.5435-.8828.5435-1.48v-.6973Z" fill="#2f2f2f"/>
      <path d="M437.9567,76.8001h-1.1211v-3.9922c0-1.4858-.5425-2.2285-1.627-2.2285-.5605,0-1.0244.2109-1.3911.6323s-.5503.9536-.5503,1.5962v3.9922h-1.1211v-7h1.1211v1.1621h.0273c.5288-.8843,1.2944-1.3262,2.2969-1.3262.7656,0,1.3511.2471,1.7568.7417s.6084,1.209.6084,2.1431v4.2793Z" fill="#2f2f2f"/>
      <path d="M439.6042,76.5472v-1.2031c.6108.4512,1.2827.6768,2.0166.6768.9844,0,1.4766-.3281,1.4766-.9844,0-.187-.042-.3452-.1265-.4751s-.1982-.2451-.3418-.3452-.312-.1904-.5059-.27-.4023-.1631-.6255-.2495c-.3101-.123-.582-.2471-.8169-.3726s-.4307-.2666-.5879-.4238-.2759-.3359-.3555-.5366-.1196-.4351-.1196-.7041c0-.3281.0752-.6187.2256-.8716s.3511-.4648.6016-.6357.5366-.2998.8579-.3862.6528-.1299.9946-.1299c.606,0,1.1484.105,1.627.3145v1.1348c-.5151-.3374-1.1074-.5059-1.7773-.5059-.2095,0-.3989.0239-.5674.0718s-.3135.1152-.4341.2017-.2144.1904-.2803.311-.0991.2539-.0991.3999c0,.1821.0332.335.0991.458s.1631.2324.2905.3281.2827.1821.4648.2598.3896.1616.6221.2529c.3101.1187.5879.2402.834.3657s.4556.2666.6289.4238.3066.3384.3999.5435.1401.4487.1401.7314c0,.3462-.0762.647-.229.9023s-.3564.4673-.6118.6357-.5493.2939-.8818.376-.6812.123-1.0459.123c-.7202,0-1.3442-.1392-1.873-.417Z" fill="#2f2f2f"/>
      <path d="M449.4348,67.4212c-.2188-.123-.4673-.1846-.7451-.1846-.7837,0-1.1758.4946-1.1758,1.4834v1.0801h1.6406v.957h-1.6406v6.043h-1.1143v-6.043h-1.1963v-.957h1.1963v-1.1348c0-.7339.2119-1.3135.6357-1.7397s.9526-.6392,1.5859-.6392c.3418,0,.6128.041.8135.123v1.0117Z" fill="#2f2f2f"/>
      <path d="M453.2092,76.9642c-1.0347,0-1.8604-.3271-2.478-.981s-.9263-1.521-.9263-2.6011c0-1.1758.3213-2.0942.9639-2.7549s1.5107-.9912,2.6045-.9912c1.0435,0,1.8584.3213,2.4438.9639s.8784,1.5337.8784,2.6729c0,1.1167-.3154,2.0107-.9468,2.6831s-1.4775,1.0083-2.5396,1.0083ZM453.2912,70.5794c-.7202,0-1.2896.2451-1.709.7349s-.6289,1.1655-.6289,2.0269c0,.8296.2119,1.4834.6357,1.9619s.9912.7178,1.7021.7178c.7246,0,1.2817-.2349,1.6714-.7041s.5845-1.1372.5845-2.0029c0-.875-.1948-1.5493-.5845-2.0234s-.9468-.7109-1.6714-.7109Z" fill="#2f2f2f"/>
      <path d="M462.0627,70.9349c-.1958-.1504-.4785-.2256-.8477-.2256-.4785,0-.8784.2256-1.1997.6768s-.4819,1.0664-.4819,1.8457v3.5684h-1.1211v-7h1.1211v1.4424h.0273c.1597-.4922.4033-.876.7314-1.1519s.6948-.4136,1.1006-.4136c.2915,0,.5151.0317.6699.0957v1.1621Z" fill="#2f2f2f"/>
      <path d="M473.2453,76.8001h-1.1211v-4.0195c0-.7749-.1196-1.3354-.3589-1.6816s-.6416-.5195-1.2065-.5195c-.4785,0-.8853.2188-1.2202.6562s-.5024.9614-.5024,1.5723v3.9922h-1.1211v-4.1562c0-1.3765-.5308-2.0645-1.5928-2.0645-.4922,0-.8979.2061-1.2168.6187s-.4785.9492-.4785,1.6099v3.9922h-1.1211v-7h1.1211v1.1074h.0273c.4966-.8477,1.2212-1.2715,2.1738-1.2715.4785,0,.8955.1333,1.251.3999s.5991.6162.7314,1.0493c.5195-.9663,1.2944-1.4492,2.3242-1.4492,1.5405,0,2.3105.9502,2.3105,2.8506v4.3135Z" fill="#2f2f2f"/>
    </g>
    <g>
      <rect x="29.9303" y="57.2" width="132" height="44" fill="none"/>
      <path d="M69.7458,59.2986l-2.7686,9.8027h-1.3467l-2.0166-7.1641c-.0864-.3052-.1392-.6382-.1572-.998h-.0273c-.0273.3374-.0864.6655-.1777.9844l-2.0303,7.1777h-1.333l-2.8711-9.8027h1.2646l2.085,7.5195c.0864.3145.1411.6426.1641.9844h.0342c.0229-.2417.0933-.5698.2119-.9844l2.167-7.5195h1.1006l2.0781,7.5742c.0728.2598.1274.5649.1641.916h.0273c.0181-.2368.0796-.5513.1846-.9434l2.0029-7.5469h1.2441Z" fill="#2f2f2f"/>
      <path d="M75.5471,69.1014h-1.1211v-1.0938h-.0273c-.4878.8384-1.2056,1.2578-2.1533,1.2578-.6973,0-1.2432-.1846-1.6372-.5537s-.5913-.8589-.5913-1.4697c0-1.3081.77-2.0688,2.3105-2.2832l2.0986-.2939c0-1.1895-.481-1.7842-1.4424-1.7842-.8433,0-1.604.2871-2.2832.8613v-1.1484c.688-.4375,1.481-.6562,2.3789-.6562,1.645,0,2.4678.8706,2.4678,2.6113v4.5527ZM74.426,65.5604l-1.6885.2324c-.5195.0728-.9116.2017-1.1758.3862s-.3965.5117-.3965.981c0,.3418.1221.6211.3657.8374s.5684.3247.9741.3247c.5562,0,1.0151-.1948,1.3774-.5845s.5435-.8828.5435-1.48v-.6973Z" fill="#2f2f2f"/>
      <path d="M81.2189,63.2361c-.1958-.1504-.4785-.2256-.8477-.2256-.4785,0-.8784.2256-1.1997.6768s-.4819,1.0664-.4819,1.8457v3.5684h-1.1211v-7h1.1211v1.4424h.0273c.1597-.4922.4033-.876.7314-1.1519s.6948-.4136,1.1006-.4136c.2915,0,.5151.0317.6699.0957v1.1621Z" fill="#2f2f2f"/>
      <path d="M88.0617,65.8816h-4.9424c.0181.7793.228,1.3809.6289,1.8047s.9526.6357,1.6543.6357c.7886,0,1.5132-.2598,2.1738-.7793v1.0527c-.6152.4468-1.4287.6699-2.4404.6699-.9888,0-1.7661-.3179-2.3311-.9536s-.8477-1.5303-.8477-2.6831c0-1.0894.3086-1.9766.9263-2.6626s1.3843-1.0288,2.3003-1.0288,1.6245.2964,2.126.8887.752,1.415.752,2.4678v.5879ZM86.9133,64.9314c-.0044-.647-.1606-1.1509-.4683-1.5107s-.7349-.54-1.2817-.54c-.5288,0-.9775.189-1.3467.5674s-.5972.8726-.6836,1.4834h3.7803Z" fill="#2f2f2f"/>
      <path d="M95.5549,69.1014h-1.1211v-4.0332c0-1.4585-.5425-2.1875-1.627-2.1875-.5469,0-1.0073.2109-1.3809.6323s-.5605.9629-.5605,1.6235v3.9648h-1.1211v-10.3633h1.1211v4.5254h.0273c.5376-.8843,1.3032-1.3262,2.2969-1.3262,1.5767,0,2.3652.9502,2.3652,2.8506v4.3135Z" fill="#2f2f2f"/>
      <path d="M100.5578,69.2654c-1.0347,0-1.8604-.3271-2.478-.981s-.9263-1.521-.9263-2.6011c0-1.1758.3213-2.0942.9639-2.7549s1.5107-.9912,2.6045-.9912c1.0435,0,1.8584.3213,2.4438.9639s.8784,1.5337.8784,2.6729c0,1.1167-.3154,2.0107-.9468,2.6831s-1.4775,1.0083-2.5396,1.0083ZM100.6398,62.8807c-.7202,0-1.2896.2451-1.709.7349s-.6289,1.1655-.6289,2.0269c0,.8296.2119,1.4834.6357,1.9619s.9912.7178,1.7021.7178c.7246,0,1.2817-.2349,1.6714-.7041s.5845-1.1372.5845-2.0029c0-.875-.1948-1.5493-.5845-2.0234s-.9468-.7109-1.6714-.7109Z" fill="#2f2f2f"/>
      <path d="M111.4533,69.1014h-1.1211v-1.1074h-.0273c-.4648.8477-1.1851,1.2715-2.1602,1.2715-1.668,0-2.502-.9937-2.502-2.9805v-4.1836h1.1143v4.0059c0,1.4766.5649,2.2148,1.6953,2.2148.5469,0,.9971-.2017,1.3501-.605s.5298-.9307.5298-1.5825v-4.0332h1.1211v7Z" fill="#2f2f2f"/>
      <path d="M113.215,68.8484v-1.2031c.6108.4512,1.2827.6768,2.0166.6768.9844,0,1.4766-.3281,1.4766-.9844,0-.187-.042-.3452-.1265-.4751s-.1982-.2451-.3418-.3452-.312-.1904-.5059-.27-.4023-.1631-.6255-.2495c-.3101-.123-.582-.2471-.8169-.3726s-.4307-.2666-.5879-.4238-.2759-.3359-.3555-.5366-.1196-.4351-.1196-.7041c0-.3281.0752-.6187.2256-.8716s.3511-.4648.6016-.6357.5366-.2998.8579-.3862.6528-.1299.9946-.1299c.606,0,1.1484.105,1.627.3145v1.1348c-.5151-.3374-1.1074-.5059-1.7773-.5059-.2095,0-.3989.0239-.5674.0718s-.3135.1152-.4341.2017-.2144.1904-.2803.311-.0991.2539-.0991.3999c0,.1821.0332.335.0991.458s.1631.2324.2905.3281.2827.1821.4648.2598.3896.1616.6221.2529c.3101.1187.5879.2402.834.3657s.4556.2666.6289.4238.3066.3384.3999.5435.1401.4487.1401.7314c0,.3462-.0762.647-.229.9023s-.3564.4673-.6118.6357-.5493.2939-.8818.376-.6812.123-1.0459.123c-.7202,0-1.3442-.1392-1.873-.417Z" fill="#2f2f2f"/>
      <path d="M125.1706,65.8816h-4.9424c.0181.7793.228,1.3809.6289,1.8047s.9526.6357,1.6543.6357c.7886,0,1.5132-.2598,2.1738-.7793v1.0527c-.6152.4468-1.4287.6699-2.4404.6699-.9888,0-1.7661-.3179-2.3311-.9536s-.8477-1.5303-.8477-2.6831c0-1.0894.3086-1.9766.9263-2.6626s1.3843-1.0288,2.3003-1.0288,1.6245.2964,2.126.8887.752,1.415.752,2.4678v.5879ZM124.0222,64.9314c-.0044-.647-.1606-1.1509-.4683-1.5107s-.7349-.54-1.2817-.54c-.5288,0-.9775.189-1.3467.5674s-.5972.8726-.6836,1.4834h3.7803Z" fill="#2f2f2f"/>
      <path d="M135.1237,59.2986l-4.7031,11.4297h-1.0459l4.6895-11.4297h1.0596Z" fill="#2f2f2f"/>
      <path d="M51.7688,85.9012h-5.0859v-9.8027h1.1484v8.7637h3.9375v1.0391Z" fill="#2f2f2f"/>
      <path d="M58.3137,85.9012h-1.1211v-1.0938h-.0273c-.4878.8384-1.2056,1.2578-2.1533,1.2578-.6973,0-1.2432-.1846-1.6372-.5537s-.5913-.8589-.5913-1.4697c0-1.3081.77-2.0688,2.3105-2.2832l2.0986-.2939c0-1.1895-.481-1.7842-1.4424-1.7842-.8433,0-1.604.2871-2.2832.8613v-1.1484c.688-.4375,1.481-.6562,2.3789-.6562,1.645,0,2.4678.8706,2.4678,2.6113v4.5527ZM57.1926,82.3602l-1.6885.2324c-.5195.0728-.9116.2017-1.1758.3862s-.3965.5117-.3965.981c0,.3418.1221.6211.3657.8374s.5684.3247.9741.3247c.5562,0,1.0151-.1948,1.3774-.5845s.5435-.8828.5435-1.48v-.6973Z" fill="#2f2f2f"/>
      <path d="M66.1457,85.9012h-1.5723l-3.0898-3.3633h-.0273v3.3633h-1.1211v-10.3633h1.1211v6.5693h.0273l2.9395-3.2061h1.4697l-3.2471,3.377,3.5,3.623Z" fill="#2f2f2f"/>
      <path d="M72.57,82.6814h-4.9424c.0181.7793.228,1.3809.6289,1.8047s.9526.6357,1.6543.6357c.7886,0,1.5132-.2598,2.1738-.7793v1.0527c-.6152.4468-1.4287.6699-2.4404.6699-.9888,0-1.7661-.3179-2.3311-.9536s-.8477-1.5303-.8477-2.6831c0-1.0894.3086-1.9766.9263-2.6626s1.3843-1.0288,2.3003-1.0288,1.6245.2964,2.126.8887.752,1.415.752,2.4678v.5879ZM71.4216,81.7313c-.0044-.647-.1606-1.1509-.4683-1.5107s-.7349-.54-1.2817-.54c-.5288,0-.9775.189-1.3467.5674s-.5972.8726-.6836,1.4834h3.7803Z" fill="#2f2f2f"/>
      <path d="M80.0632,85.9012h-1.1211v-4.0332c0-1.4585-.5425-2.1875-1.627-2.1875-.5469,0-1.0073.2109-1.3809.6323s-.5605.9629-.5605,1.6235v3.9648h-1.1211v-10.3633h1.1211v4.5254h.0273c.5376-.8843,1.3032-1.3262,2.2969-1.3262,1.5767,0,2.3652.9502,2.3652,2.8506v4.3135Z" fill="#2f2f2f"/>
      <path d="M85.0661,86.0652c-1.0347,0-1.8604-.3271-2.478-.981s-.9263-1.521-.9263-2.6011c0-1.1758.3213-2.0942.9639-2.7549s1.5107-.9912,2.6045-.9912c1.0435,0,1.8584.3213,2.4438.9639s.8784,1.5337.8784,2.6729c0,1.1167-.3154,2.0107-.9468,2.6831s-1.4775,1.0083-2.5396,1.0083ZM85.1481,79.6805c-.7202,0-1.2896.2451-1.709.7349s-.6289,1.1655-.6289,2.0269c0,.8296.2119,1.4834.6357,1.9619s.9912.7178,1.7021.7178c.7246,0,1.2817-.2349,1.6714-.7041s.5845-1.1372.5845-2.0029c0-.875-.1948-1.5493-.5845-2.0234s-.9468-.7109-1.6714-.7109Z" fill="#2f2f2f"/>
      <path d="M95.9616,85.9012h-1.1211v-1.1074h-.0273c-.4648.8477-1.1851,1.2715-2.1602,1.2715-1.668,0-2.502-.9937-2.502-2.9805v-4.1836h1.1143v4.0059c0,1.4766.5649,2.2148,1.6953,2.2148.5469,0,.9971-.2017,1.3501-.605s.5298-.9307.5298-1.5825v-4.0332h1.1211v7Z" fill="#2f2f2f"/>
      <path d="M97.7238,85.6482v-1.2031c.6108.4512,1.2827.6768,2.0166.6768.9844,0,1.4766-.3281,1.4766-.9844,0-.187-.042-.3452-.1265-.4751s-.1982-.2451-.3418-.3452-.312-.1904-.5059-.27-.4023-.1631-.6255-.2495c-.3101-.123-.582-.2471-.8169-.3726s-.4307-.2666-.5879-.4238-.2759-.3359-.3555-.5366-.1196-.4351-.1196-.7041c0-.3281.0752-.6187.2256-.8716s.3511-.4648.6016-.6357.5366-.2998.8579-.3862.6528-.1299.9946-.1299c.606,0,1.1484.105,1.627.3145v1.1348c-.5151-.3374-1.1074-.5059-1.7773-.5059-.2095,0-.3989.0239-.5674.0718s-.3135.1152-.4341.2017-.2144.1904-.2803.311-.0991.2539-.0991.3999c0,.1821.0332.335.0991.458s.1631.2324.2905.3281.2827.1821.4648.2598.3896.1616.6221.2529c.3101.1187.5879.2402.834.3657s.4556.2666.6289.4238.3066.3384.3999.5435.1401.4487.1401.7314c0,.3462-.0762.647-.229.9023s-.3564.4673-.6118.6357-.5493.2939-.8818.376-.6812.123-1.0459.123c-.7202,0-1.3442-.1392-1.873-.417Z" fill="#2f2f2f"/>
      <path d="M109.6789,82.6814h-4.9424c.0181.7793.228,1.3809.6289,1.8047s.9526.6357,1.6543.6357c.7886,0,1.5132-.2598,2.1738-.7793v1.0527c-.6152.4468-1.4287.6699-2.4404.6699-.9888,0-1.7661-.3179-2.3311-.9536s-.8477-1.5303-.8477-2.6831c0-1.0894.3086-1.9766.9263-2.6626s1.3843-1.0288,2.3003-1.0288,1.6245.2964,2.126.8887.752,1.415.752,2.4678v.5879ZM108.5305,81.7313c-.0044-.647-.1606-1.1509-.4683-1.5107s-.7349-.54-1.2817-.54c-.5288,0-.9775.189-1.3467.5674s-.5972.8726-.6836,1.4834h3.7803Z" fill="#2f2f2f"/>
      <path d="M115.3596,85.9012v-9.8027h2.707c3.4546,0,5.1816,1.5928,5.1816,4.7783,0,1.5132-.4795,2.7285-1.439,3.647s-2.2432,1.3774-3.8521,1.3774h-2.5977ZM116.508,77.1375v7.7246h1.4629c1.2852,0,2.2856-.3442,3.001-1.0322s1.0732-1.6636,1.0732-2.9258c0-2.5112-1.3354-3.7666-4.0059-3.7666h-1.5312Z" fill="#2f2f2f"/>
      <path d="M130.6247,82.6814h-4.9424c.0181.7793.228,1.3809.6289,1.8047s.9526.6357,1.6543.6357c.7886,0,1.5132-.2598,2.1738-.7793v1.0527c-.6152.4468-1.4287.6699-2.4404.6699-.9888,0-1.7661-.3179-2.3311-.9536s-.8477-1.5303-.8477-2.6831c0-1.0894.3086-1.9766.9263-2.6626s1.3843-1.0288,2.3003-1.0288,1.6245.2964,2.126.8887.752,1.415.752,2.4678v.5879ZM129.4763,81.7313c-.0044-.647-.1606-1.1509-.4683-1.5107s-.7349-.54-1.2817-.54c-.5288,0-.9775.189-1.3467.5674s-.5972.8726-.6836,1.4834h3.7803Z" fill="#2f2f2f"/>
      <path d="M133.4201,85.9012h-1.1211v-10.3633h1.1211v10.3633Z" fill="#2f2f2f"/>
      <path d="M138.8684,85.8328c-.2642.146-.6128.2188-1.0459.2188-1.2261,0-1.8389-.6836-1.8389-2.0508v-4.1426h-1.2031v-.957h1.2031v-1.709l1.1211-.3623v2.0713h1.7637v.957h-1.7637v3.9443c0,.4692.0796.8042.2393,1.0049s.4238.3008.793.3008c.2827,0,.5264-.0776.7314-.2324v.957Z" fill="#2f2f2f"/>
      <path d="M145.4851,85.9012h-1.1211v-1.0938h-.0273c-.4878.8384-1.2056,1.2578-2.1533,1.2578-.6973,0-1.2432-.1846-1.6372-.5537s-.5913-.8589-.5913-1.4697c0-1.3081.77-2.0688,2.3105-2.2832l2.0986-.2939c0-1.1895-.481-1.7842-1.4424-1.7842-.8433,0-1.604.2871-2.2832.8613v-1.1484c.688-.4375,1.481-.6562,2.3789-.6562,1.645,0,2.4678.8706,2.4678,2.6113v4.5527ZM144.364,82.3602l-1.6885.2324c-.5195.0728-.9116.2017-1.1758.3862s-.3965.5117-.3965.981c0,.3418.1221.6211.3657.8374s.5684.3247.9741.3247c.5562,0,1.0151-.1948,1.3774-.5845s.5435-.8828.5435-1.48v-.6973Z" fill="#2f2f2f"/>
    </g>
    <g>
      <rect x="775.9318" y="44" width="96.8" height="35.2" fill="none"/>
      <path d="M783.3322,55.5047v-1.3535c.1548.1367.3408.2598.5571.3691s.4443.2017.6836.2769.4795.1333.7212.1743.4648.0615.6699.0615c.7065,0,1.2339-.1309,1.5825-.3931s.5229-.6392.5229-1.1313c0-.2642-.0581-.4946-.1743-.6904s-.2769-.375-.4819-.5366-.4478-.3169-.728-.4648-.582-.3042-.9058-.4683c-.3418-.1733-.6606-.3486-.957-.5264s-.5537-.3735-.7725-.5879-.3906-.457-.5161-.728-.188-.5889-.188-.9536c0-.4468.0981-.835.2939-1.1655s.4536-.6025.7725-.8169.6826-.3735,1.0903-.4785.8237-.1572,1.2476-.1572c.9663,0,1.6704.1162,2.1123.3486v1.292c-.5786-.4009-1.3218-.6016-2.2285-.6016-.2505,0-.5015.0264-.752.0786s-.4741.1377-.6699.2563-.3555.271-.4785.458-.1846.4146-.1846.6836c0,.2505.0469.4673.1401.6494s.2314.3486.4136.499.4043.2964.6665.4375.564.2964.9058.4648c.3511.1733.6836.3555.998.5469s.5903.4033.8271.6357.4248.4897.564.7725.2085.606.2085.9707c0,.4829-.0947.8921-.2837,1.2271s-.4443.6074-.7656.8169-.6914.3613-1.1108.4546-.8613.1401-1.3262.1401c-.1548,0-.3462-.0127-.5742-.0376s-.4604-.0615-.6973-.1094-.4614-.1069-.6733-.1777-.3818-.1494-.5093-.2358Z" fill="#2f2f2f"/>
      <path d="M795.0388,56.0652c-1.3853,0-2.4995-.458-3.3428-1.374-.834-.916-1.251-2.1079-1.251-3.5752,0-1.5815.4263-2.8394,1.2783-3.7734.8569-.939,2.0166-1.4082,3.4795-1.4082,1.3491,0,2.438.4556,3.2676,1.3672s1.2446,2.103,1.2446,3.5752c0,1.5996-.4243,2.8643-1.272,3.7939-.2007.2231-.4146.4146-.6426.5742l2.7554,1.9756h-2.0854l-1.8457-1.3809c-.4829.1504-1.0117.2256-1.5859.2256ZM795.1208,46.9734c-1.0298,0-1.8662.3716-2.5088,1.1143s-.9639,1.7183-.9639,2.9258c0,1.2031.312,2.1763.9365,2.9189.6289.7339,1.4468,1.1006,2.4541,1.1006,1.0757,0,1.9233-.3511,2.543-1.0527s.9297-1.6841.9297-2.9463c0-1.2988-.3008-2.2993-.9023-3.001-.6016-.7065-1.4312-1.0596-2.4883-1.0596Z" fill="#2f2f2f"/>
      <path d="M806.6086,55.9012h-5.0859v-9.8027h1.1484v8.7637h3.9375v1.0391Z" fill="#2f2f2f"/>
      <path d="M817.7717,55.9012h-1.1211v-1.1895h-.0273c-.5195.9023-1.3223,1.3535-2.4062,1.3535-.8799,0-1.583-.3135-2.1094-.9399s-.7891-1.48-.7891-2.5601c0-1.1577.291-2.085.875-2.7822.583-.6973,1.3604-1.0459,2.3311-1.0459.9609,0,1.6611.3784,2.0986,1.1348h.0273v-4.334h1.1211v10.3633ZM816.6506,52.7361v-1.0322c0-.5649-.1875-1.0435-.5605-1.4355-.374-.3921-.8477-.5879-1.4219-.5879-.6836,0-1.2217.2505-1.6133.752-.3926.5015-.5879,1.1938-.5879,2.0781,0,.8066.1875,1.4434.5635,1.9106s.8809.7007,1.5146.7007c.624,0,1.1309-.2256,1.5205-.6768s.585-1.021.585-1.709Z" fill="#2f2f2f"/>
      <path d="M824.9279,55.9012h-1.1211v-1.0938h-.0273c-.4873.8384-1.2051,1.2578-2.1533,1.2578-.6973,0-1.2432-.1846-1.6367-.5537-.3945-.3691-.5918-.8589-.5918-1.4697,0-1.3081.7705-2.0688,2.3105-2.2832l2.0986-.2939c0-1.1895-.4805-1.7842-1.4424-1.7842-.8428,0-1.6035.2871-2.2832.8613v-1.1484c.6885-.4375,1.4814-.6562,2.3789-.6562,1.6455,0,2.4678.8706,2.4678,2.6113v4.5527ZM823.8068,52.3602l-1.6885.2324c-.5195.0728-.9111.2017-1.1758.3862-.2637.1846-.3965.5117-.3965.981,0,.3418.1221.6211.3662.8374.2432.2163.5684.3247.9736.3247.5566,0,1.0156-.1948,1.3779-.5845s.543-.8828.543-1.48v-.6973Z" fill="#2f2f2f"/>
      <path d="M830.1867,55.8328c-.2637.146-.6123.2188-1.0459.2188-1.2256,0-1.8389-.6836-1.8389-2.0508v-4.1426h-1.2031v-.957h1.2031v-1.709l1.1211-.3623v2.0713h1.7637v.957h-1.7637v3.9443c0,.4692.0801.8042.2393,1.0049.1602.2007.4238.3008.793.3008.2832,0,.5264-.0776.7314-.2324v.957Z" fill="#2f2f2f"/>
      <path d="M836.8039,55.9012h-1.1211v-1.0938h-.0273c-.4873.8384-1.2051,1.2578-2.1533,1.2578-.6973,0-1.2432-.1846-1.6367-.5537-.3945-.3691-.5918-.8589-.5918-1.4697,0-1.3081.7705-2.0688,2.3105-2.2832l2.0986-.2939c0-1.1895-.4805-1.7842-1.4424-1.7842-.8428,0-1.6035.2871-2.2832.8613v-1.1484c.6885-.4375,1.4814-.6562,2.3789-.6562,1.6455,0,2.4678.8706,2.4678,2.6113v4.5527ZM835.6828,52.3602l-1.6885.2324c-.5195.0728-.9111.2017-1.1758.3862-.2637.1846-.3965.5117-.3965.981,0,.3418.1221.6211.3662.8374.2432.2163.5684.3247.9736.3247.5566,0,1.0156-.1948,1.3779-.5845s.543-.8828.543-1.48v-.6973Z" fill="#2f2f2f"/>
      <path d="M839.9738,54.8895h-.0273v1.0117h-1.1211v-10.3633h1.1211v4.5938h.0273c.5508-.9297,1.3574-1.3945,2.4199-1.3945.8975,0,1.6006.3135,2.1084.9399.5088.6265.7627,1.4663.7627,2.519,0,1.1714-.2852,2.1089-.8545,2.813-.5703.7041-1.3496,1.0562-2.3379,1.0562-.9258,0-1.625-.3921-2.0986-1.1758ZM839.9465,52.0662v.9775c0,.5786.1875,1.0698.5635,1.4731s.8535.605,1.4326.605c.6787,0,1.2109-.2598,1.5957-.7793.3857-.5195.5781-1.2417.5781-2.167,0-.7793-.1807-1.3901-.54-1.832-.3604-.4419-.8477-.6631-1.4629-.6631-.6523,0-1.1758.2266-1.5723.6802s-.5947,1.022-.5947,1.7056Z" fill="#2f2f2f"/>
      <path d="M852.0002,55.9012h-1.1211v-1.0938h-.0273c-.4873.8384-1.2051,1.2578-2.1533,1.2578-.6973,0-1.2432-.1846-1.6367-.5537-.3945-.3691-.5918-.8589-.5918-1.4697,0-1.3081.7705-2.0688,2.3105-2.2832l2.0986-.2939c0-1.1895-.4805-1.7842-1.4424-1.7842-.8428,0-1.6035.2871-2.2832.8613v-1.1484c.6885-.4375,1.4814-.6562,2.3789-.6562,1.6455,0,2.4678.8706,2.4678,2.6113v4.5527ZM850.8791,52.3602l-1.6885.2324c-.5195.0728-.9111.2017-1.1758.3862-.2637.1846-.3965.5117-.3965.981,0,.3418.1221.6211.3662.8374.2432.2163.5684.3247.9736.3247.5566,0,1.0156-.1948,1.3779-.5845s.543-.8828.543-1.48v-.6973Z" fill="#2f2f2f"/>
      <path d="M853.6428,55.6482v-1.2031c.6113.4512,1.2832.6768,2.0166.6768.9844,0,1.4766-.3281,1.4766-.9844,0-.187-.042-.3452-.126-.4751-.085-.1299-.1982-.2451-.3418-.3452s-.3125-.1904-.5059-.27c-.1943-.0796-.4023-.1631-.626-.2495-.3096-.123-.582-.2471-.8164-.3726-.2354-.1255-.4307-.2666-.5879-.4238s-.2764-.3359-.3555-.5366c-.0801-.2007-.1201-.4351-.1201-.7041,0-.3281.0752-.6187.2256-.8716s.3516-.4648.6016-.6357c.251-.1709.5371-.2998.8584-.3862s.6523-.1299.9941-.1299c.6064,0,1.1484.105,1.627.3145v1.1348c-.5146-.3374-1.1074-.5059-1.7773-.5059-.209,0-.3984.0239-.5674.0718-.168.0479-.3135.1152-.4336.2017-.1211.0864-.2148.1904-.2803.311-.0664.1206-.0996.2539-.0996.3999,0,.1821.0332.335.0996.458.0654.123.1631.2324.29.3281.1279.0957.2832.1821.4648.2598.1826.0776.3896.1616.6221.2529.3105.1187.5879.2402.834.3657s.4561.2666.6289.4238c.1738.1572.3066.3384.4004.5435.0928.2051.1396.4487.1396.7314,0,.3462-.0762.647-.2285.9023-.1533.2554-.3564.4673-.6123.6357-.2549.1685-.5488.2939-.8818.376-.332.082-.6807.123-1.0459.123-.7197,0-1.3438-.1392-1.873-.417Z" fill="#2f2f2f"/>
      <path d="M865.5979,52.6814h-4.9424c.0186.7793.2285,1.3809.6289,1.8047.4014.4238.9531.6357,1.6543.6357.7891,0,1.5137-.2598,2.1738-.7793v1.0527c-.6152.4468-1.4287.6699-2.4404.6699-.9883,0-1.7656-.3179-2.3311-.9536-.5645-.6357-.8477-1.5303-.8477-2.6831,0-1.0894.3086-1.9766.9268-2.6626.6172-.686,1.3838-1.0288,2.2998-1.0288s1.625.2964,2.126.8887c.502.5923.752,1.415.752,2.4678v.5879ZM864.4494,51.7313c-.0039-.647-.1602-1.1509-.4678-1.5107s-.7354-.54-1.2822-.54c-.5283,0-.9775.189-1.3467.5674s-.5967.8726-.6836,1.4834h3.7803Z" fill="#2f2f2f"/>
      <path d="M800.4426,63.9236c-.2002,0-.3711-.0684-.5127-.2051-.1406-.1367-.2119-.3101-.2119-.5195s.0713-.3838.2119-.5229c.1416-.1392.3125-.2085.5127-.2085.2051,0,.3799.0693.5234.2085s.2148.3135.2148.5229c0,.2007-.0713.3716-.2148.5127s-.3184.2119-.5234.2119ZM800.9895,72.701h-1.1211v-7h1.1211v7Z" fill="#2f2f2f"/>
      <path d="M808.9182,72.701h-1.1211v-3.9922c0-1.4858-.542-2.2285-1.627-2.2285-.5605,0-1.0244.2109-1.3906.6323-.3672.4214-.5508.9536-.5508,1.5962v3.9922h-1.1211v-7h1.1211v1.1621h.0273c.5293-.8843,1.2949-1.3262,2.2969-1.3262.7656,0,1.3516.2471,1.7568.7417.4062.4946.6084,1.209.6084,2.1431v4.2793Z" fill="#2f2f2f"/>
      <path d="M819.9924,63.9373h-3.8281v3.3906h3.541v1.0322h-3.541v4.3408h-1.1484v-9.8027h4.9766v1.0391Z" fill="#2f2f2f"/>
      <path d="M826.2648,72.701h-1.1211v-1.0938h-.0273c-.4883.8384-1.2061,1.2578-2.1533,1.2578-.6973,0-1.2432-.1846-1.6377-.5537-.3936-.3691-.5908-.8589-.5908-1.4697,0-1.3081.7695-2.0688,2.3105-2.2832l2.0986-.2939c0-1.1895-.4814-1.7842-1.4424-1.7842-.8438,0-1.6045.2871-2.2832.8613v-1.1484c.6875-.4375,1.4805-.6562,2.3789-.6562,1.6445,0,2.4678.8706,2.4678,2.6113v4.5527ZM825.1438,69.16l-1.6885.2324c-.5195.0728-.9121.2017-1.1758.3862-.2646.1846-.3965.5117-.3965.981,0,.3418.1221.6211.3652.8374.2441.2163.5684.3247.9746.3247.5557,0,1.0146-.1948,1.377-.5845s.5439-.8828.5439-1.48v-.6973Z" fill="#2f2f2f"/>
      <path d="M829.4338,71.6893h-.0273v1.0117h-1.1211v-10.3633h1.1211v4.5938h.0273c.5518-.9297,1.3584-1.3945,2.4199-1.3945.8984,0,1.6006.3135,2.1094.9399.5078.6265.7617,1.4663.7617,2.519,0,1.1714-.2842,2.1089-.8545,2.813-.5693.7041-1.3486,1.0562-2.3379,1.0562-.9248,0-1.624-.3921-2.0986-1.1758ZM829.4064,68.866v.9775c0,.5786.1885,1.0698.5645,1.4731s.8535.605,1.4316.605c.6797,0,1.2109-.2598,1.5967-.7793.3848-.5195.5771-1.2417.5771-2.167,0-.7793-.1797-1.3901-.54-1.832-.3594-.4419-.8477-.6631-1.4629-.6631-.6514,0-1.1758.2266-1.5723.6802s-.5947,1.022-.5947,1.7056Z" fill="#2f2f2f"/>
      <path d="M840.093,66.8357c-.1963-.1504-.4785-.2256-.8477-.2256-.4785,0-.8789.2256-1.2002.6768s-.4814,1.0664-.4814,1.8457v3.5684h-1.1211v-7h1.1211v1.4424h.0273c.1592-.4922.4033-.876.7314-1.1519s.6943-.4136,1.1006-.4136c.291,0,.5146.0317.6699.0957v1.1621Z" fill="#2f2f2f"/>
      <path d="M841.9104,63.9236c-.2012,0-.3721-.0684-.5127-.2051-.1416-.1367-.2119-.3101-.2119-.5195s.0703-.3838.2119-.5229c.1406-.1392.3115-.2085.5127-.2085.2051,0,.3789.0693.5225.2085s.2158.3135.2158.5229c0,.2007-.0723.3716-.2158.5127s-.3174.2119-.5225.2119ZM842.4572,72.701h-1.1211v-7h1.1211v7Z" fill="#2f2f2f"/>
      <path d="M849.3693,72.3797c-.5381.3237-1.1758.4854-1.9141.4854-.998,0-1.8037-.3247-2.417-.9741-.6123-.6494-.9189-1.4912-.9189-2.5259,0-1.1528.3301-2.0791.9912-2.7788.6602-.6997,1.542-1.0493,2.6455-1.0493.6152,0,1.1572.1138,1.627.3418v1.1484c-.5195-.3647-1.0762-.5469-1.668-.5469-.7158,0-1.3027.2563-1.7607.769s-.6865,1.186-.6865,2.02c0,.8203.2148,1.4673.6455,1.9414s1.0088.7109,1.7334.7109c.6104,0,1.1846-.2026,1.7227-.6084v1.0664Z" fill="#2f2f2f"/>
    </g>
    <g>
      <rect x="258.7303" y="57.2" width="132" height="30.8" fill="none"/>
      <path d="M296.8796,69.1014h-1.3672l-1.6406-2.748c-.1504-.2554-.2964-.4727-.4375-.6528s-.2861-.3271-.4341-.4409-.3076-.1973-.4785-.2495-.3633-.0786-.5776-.0786h-.9434v4.1699h-1.1484v-9.8027h2.9258c.4282,0,.8237.0537,1.186.1606s.6768.27.9434.4888.4751.4912.6255.8169.2256.7075.2256,1.145c0,.3418-.0513.6553-.1538.9399s-.2485.5391-.4375.7622-.417.4136-.6836.5708-.5664.2793-.8989.3657v.0273c.1641.0728.3066.1562.4272.2495s.2358.2041.3452.3315.2178.2725.3247.4341.2266.3496.3589.564l1.8389,2.9463ZM291.0007,60.3377v3.5547h1.5586c.2871,0,.5527-.0435.7964-.1299s.4546-.2109.6323-.3726.3169-.3599.417-.5947.1504-.498.1504-.7896c0-.5239-.1699-.9331-.5093-1.2271s-.8306-.4409-1.4731-.4409h-1.5723Z" fill="#2f2f2f"/>
      <path d="M303.4919,65.8816h-4.9424c.0181.7793.228,1.3809.6289,1.8047s.9526.6357,1.6543.6357c.7886,0,1.5132-.2598,2.1738-.7793v1.0527c-.6152.4468-1.4287.6699-2.4404.6699-.9888,0-1.7661-.3179-2.3311-.9536s-.8477-1.5303-.8477-2.6831c0-1.0894.3086-1.9766.9263-2.6626s1.3843-1.0288,2.3003-1.0288,1.6245.2964,2.126.8887.752,1.415.752,2.4678v.5879ZM302.3435,64.9314c-.0044-.647-.1606-1.1509-.4683-1.5107s-.7349-.54-1.2817-.54c-.5288,0-.9775.189-1.3467.5674s-.5972.8726-.6836,1.4834h3.7803Z" fill="#2f2f2f"/>
      <path d="M310.6301,62.1014l-2.7891,7h-1.1006l-2.6523-7h1.2305l1.7773,5.0859c.1323.3735.2144.6997.2461.9775h.0273c.0454-.3511.1187-.6675.2188-.9502l1.8594-5.1133h1.1826Z" fill="#2f2f2f"/>
      <path d="M317.2712,65.8816h-4.9424c.0181.7793.228,1.3809.6289,1.8047s.9526.6357,1.6543.6357c.7886,0,1.5132-.2598,2.1738-.7793v1.0527c-.6152.4468-1.4287.6699-2.4404.6699-.9888,0-1.7661-.3179-2.3311-.9536s-.8477-1.5303-.8477-2.6831c0-1.0894.3086-1.9766.9263-2.6626s1.3843-1.0288,2.3003-1.0288,1.6245.2964,2.126.8887.752,1.415.752,2.4678v.5879ZM316.1228,64.9314c-.0044-.647-.1606-1.1509-.4683-1.5107s-.7349-.54-1.2817-.54c-.5288,0-.9775.189-1.3467.5674s-.5972.8726-.6836,1.4834h3.7803Z" fill="#2f2f2f"/>
      <path d="M322.6047,63.2361c-.1958-.1504-.4785-.2256-.8477-.2256-.4785,0-.8784.2256-1.1997.6768s-.4819,1.0664-.4819,1.8457v3.5684h-1.1211v-7h1.1211v1.4424h.0273c.1597-.4922.4033-.876.7314-1.1519s.6948-.4136,1.1006-.4136c.2915,0,.5151.0317.6699.0957v1.1621Z" fill="#2f2f2f"/>
      <path d="M323.6062,68.8484v-1.2031c.6108.4512,1.2827.6768,2.0166.6768.9844,0,1.4766-.3281,1.4766-.9844,0-.187-.042-.3452-.1265-.4751s-.1982-.2451-.3418-.3452-.312-.1904-.5059-.27-.4023-.1631-.6255-.2495c-.3101-.123-.582-.2471-.8169-.3726s-.4307-.2666-.5879-.4238-.2759-.3359-.3555-.5366-.1196-.4351-.1196-.7041c0-.3281.0752-.6187.2256-.8716s.3511-.4648.6016-.6357.5366-.2998.8579-.3862.6528-.1299.9946-.1299c.606,0,1.1484.105,1.627.3145v1.1348c-.5151-.3374-1.1074-.5059-1.7773-.5059-.2095,0-.3989.0239-.5674.0718s-.3135.1152-.4341.2017-.2144.1904-.2803.311-.0991.2539-.0991.3999c0,.1821.0332.335.0991.458s.1631.2324.2905.3281.2827.1821.4648.2598.3896.1616.6221.2529c.3101.1187.5879.2402.834.3657s.4556.2666.6289.4238.3066.3384.3999.5435.1401.4487.1401.7314c0,.3462-.0762.647-.229.9023s-.3564.4673-.6118.6357-.5493.2939-.8818.376-.6812.123-1.0459.123c-.7202,0-1.3442-.1392-1.873-.417Z" fill="#2f2f2f"/>
      <path d="M335.5612,65.8816h-4.9424c.0181.7793.228,1.3809.6289,1.8047s.9526.6357,1.6543.6357c.7886,0,1.5132-.2598,2.1738-.7793v1.0527c-.6152.4468-1.4287.6699-2.4404.6699-.9888,0-1.7661-.3179-2.3311-.9536s-.8477-1.5303-.8477-2.6831c0-1.0894.3086-1.9766.9263-2.6626s1.3843-1.0288,2.3003-1.0288,1.6245.2964,2.126.8887.752,1.415.752,2.4678v.5879ZM334.4128,64.9314c-.0044-.647-.1606-1.1509-.4683-1.5107s-.7349-.54-1.2817-.54c-.5288,0-.9775.189-1.3467.5674s-.5972.8726-.6836,1.4834h3.7803Z" fill="#2f2f2f"/>
      <path d="M346.4372,69.1014h-5.1953v-9.8027h4.9766v1.0391h-3.8281v3.2607h3.541v1.0322h-3.541v3.4316h4.0469v1.0391Z" fill="#2f2f2f"/>
      <path d="M354.195,60.3377h-2.8301v8.7637h-1.1484v-8.7637h-2.8232v-1.0391h6.8018v1.0391Z" fill="#2f2f2f"/>
      <path d="M360.675,69.1014h-5.0859v-9.8027h1.1484v8.7637h3.9375v1.0391Z" fill="#2f2f2f"/>
      <path d="M296.3166,85.8328c-.2642.146-.6128.2188-1.0459.2188-1.2261,0-1.8389-.6836-1.8389-2.0508v-4.1426h-1.2031v-.957h1.2031v-1.709l1.1211-.3623v2.0713h1.7637v.957h-1.7637v3.9443c0,.4692.0796.8042.2393,1.0049s.4238.3008.793.3008c.2827,0,.5264-.0776.7314-.2324v.957Z" fill="#2f2f2f"/>
      <path d="M301.3479,80.0359c-.1958-.1504-.4785-.2256-.8477-.2256-.4785,0-.8784.2256-1.1997.6768s-.4819,1.0664-.4819,1.8457v3.5684h-1.1211v-7h1.1211v1.4424h.0273c.1597-.4922.4033-.876.7314-1.1519s.6948-.4136,1.1006-.4136c.2915,0,.5151.0317.6699.0957v1.1621Z" fill="#2f2f2f"/>
      <path d="M307.5236,85.9012h-1.1211v-1.0938h-.0273c-.4878.8384-1.2056,1.2578-2.1533,1.2578-.6973,0-1.2432-.1846-1.6372-.5537s-.5913-.8589-.5913-1.4697c0-1.3081.77-2.0688,2.3105-2.2832l2.0986-.2939c0-1.1895-.481-1.7842-1.4424-1.7842-.8433,0-1.604.2871-2.2832.8613v-1.1484c.688-.4375,1.481-.6562,2.3789-.6562,1.645,0,2.4678.8706,2.4678,2.6113v4.5527ZM306.4025,82.3602l-1.6885.2324c-.5195.0728-.9116.2017-1.1758.3862s-.3965.5117-.3965.981c0,.3418.1221.6211.3657.8374s.5684.3247.9741.3247c.5562,0,1.0151-.1948,1.3774-.5845s.5435-.8828.5435-1.48v-.6973Z" fill="#2f2f2f"/>
      <path d="M315.3557,85.9012h-1.1211v-3.9922c0-1.4858-.5425-2.2285-1.627-2.2285-.5605,0-1.0244.2109-1.3911.6323s-.5503.9536-.5503,1.5962v3.9922h-1.1211v-7h1.1211v1.1621h.0273c.5288-.8843,1.2944-1.3262,2.2969-1.3262.7656,0,1.3511.2471,1.7568.7417s.6084,1.209.6084,2.1431v4.2793Z" fill="#2f2f2f"/>
      <path d="M317.0031,85.6482v-1.2031c.6108.4512,1.2827.6768,2.0166.6768.9844,0,1.4766-.3281,1.4766-.9844,0-.187-.042-.3452-.1265-.4751s-.1982-.2451-.3418-.3452-.312-.1904-.5059-.27-.4023-.1631-.6255-.2495c-.3101-.123-.582-.2471-.8169-.3726s-.4307-.2666-.5879-.4238-.2759-.3359-.3555-.5366-.1196-.4351-.1196-.7041c0-.3281.0752-.6187.2256-.8716s.3511-.4648.6016-.6357.5366-.2998.8579-.3862.6528-.1299.9946-.1299c.606,0,1.1484.105,1.627.3145v1.1348c-.5151-.3374-1.1074-.5059-1.7773-.5059-.2095,0-.3989.0239-.5674.0718s-.3135.1152-.4341.2017-.2144.1904-.2803.311-.0991.2539-.0991.3999c0,.1821.0332.335.0991.458s.1631.2324.2905.3281.2827.1821.4648.2598.3896.1616.6221.2529c.3101.1187.5879.2402.834.3657s.4556.2666.6289.4238.3066.3384.3999.5435.1401.4487.1401.7314c0,.3462-.0762.647-.229.9023s-.3564.4673-.6118.6357-.5493.2939-.8818.376-.6812.123-1.0459.123c-.7202,0-1.3442-.1392-1.873-.417Z" fill="#2f2f2f"/>
      <path d="M326.8337,76.5223c-.2188-.123-.4673-.1846-.7451-.1846-.7837,0-1.1758.4946-1.1758,1.4834v1.0801h1.6406v.957h-1.6406v6.043h-1.1143v-6.043h-1.1963v-.957h1.1963v-1.1348c0-.7339.2119-1.3135.6357-1.7397s.9526-.6392,1.5859-.6392c.3418,0,.6128.041.8135.123v1.0117Z" fill="#2f2f2f"/>
      <path d="M330.6081,86.0652c-1.0347,0-1.8604-.3271-2.478-.981s-.9263-1.521-.9263-2.6011c0-1.1758.3213-2.0942.9639-2.7549s1.5107-.9912,2.6045-.9912c1.0435,0,1.8584.3213,2.4438.9639s.8784,1.5337.8784,2.6729c0,1.1167-.3154,2.0107-.9468,2.6831s-1.4775,1.0083-2.5396,1.0083ZM330.6901,79.6805c-.7202,0-1.2896.2451-1.709.7349s-.6289,1.1655-.6289,2.0269c0,.8296.2119,1.4834.6357,1.9619s.9912.7178,1.7021.7178c.7246,0,1.2817-.2349,1.6714-.7041s.5845-1.1372.5845-2.0029c0-.875-.1948-1.5493-.5845-2.0234s-.9468-.7109-1.6714-.7109Z" fill="#2f2f2f"/>
      <path d="M339.4616,80.0359c-.1958-.1504-.4785-.2256-.8477-.2256-.4785,0-.8784.2256-1.1997.6768s-.4819,1.0664-.4819,1.8457v3.5684h-1.1211v-7h1.1211v1.4424h.0273c.1597-.4922.4033-.876.7314-1.1519s.6948-.4136,1.1006-.4136c.2915,0,.5151.0317.6699.0957v1.1621Z" fill="#2f2f2f"/>
      <path d="M350.6442,85.9012h-1.1211v-4.0195c0-.7749-.1196-1.3354-.3589-1.6816s-.6416-.5195-1.2065-.5195c-.4785,0-.8853.2188-1.2202.6562s-.5024.9614-.5024,1.5723v3.9922h-1.1211v-4.1562c0-1.3765-.5308-2.0645-1.5928-2.0645-.4922,0-.8979.2061-1.2168.6187s-.4785.9492-.4785,1.6099v3.9922h-1.1211v-7h1.1211v1.1074h.0273c.4966-.8477,1.2212-1.2715,2.1738-1.2715.4785,0,.8955.1333,1.251.3999s.5991.6162.7314,1.0493c.5195-.9663,1.2944-1.4492,2.3242-1.4492,1.5405,0,2.3105.9502,2.3105,2.8506v4.3135Z" fill="#2f2f2f"/>
      <path d="M352.2961,85.6482v-1.2031c.6108.4512,1.2827.6768,2.0166.6768.9844,0,1.4766-.3281,1.4766-.9844,0-.187-.042-.3452-.1265-.4751s-.1982-.2451-.3418-.3452-.312-.1904-.5059-.27-.4023-.1631-.6255-.2495c-.3101-.123-.582-.2471-.8169-.3726s-.4307-.2666-.5879-.4238-.2759-.3359-.3555-.5366-.1196-.4351-.1196-.7041c0-.3281.0752-.6187.2256-.8716s.3511-.4648.6016-.6357.5366-.2998.8579-.3862.6528-.1299.9946-.1299c.606,0,1.1484.105,1.627.3145v1.1348c-.5151-.3374-1.1074-.5059-1.7773-.5059-.2095,0-.3989.0239-.5674.0718s-.3135.1152-.4341.2017-.2144.1904-.2803.311-.0991.2539-.0991.3999c0,.1821.0332.335.0991.458s.1631.2324.2905.3281.2827.1821.4648.2598.3896.1616.6221.2529c.3101.1187.5879.2402.834.3657s.4556.2666.6289.4238.3066.3384.3999.5435.1401.4487.1401.7314c0,.3462-.0762.647-.229.9023s-.3564.4673-.6118.6357-.5493.2939-.8818.376-.6812.123-1.0459.123c-.7202,0-1.3442-.1392-1.873-.417Z" fill="#2f2f2f"/>
    </g>
    <g>
      <path d="M991.6828,33.0271h-5.1953v-9.8027h4.9766v1.0391h-3.8281v3.2607h3.541v1.0322h-3.541v3.4316h4.0469v1.0391Z" fill="#2f2f2f"/>
      <path d="M1000.3498,33.0271h-1.3672l-1.6406-2.748c-.1504-.2554-.2959-.4727-.4375-.6528-.1406-.1802-.2861-.3271-.4336-.4409-.1484-.1138-.3076-.1973-.4785-.2495s-.3633-.0786-.5781-.0786h-.9434v4.1699h-1.1484v-9.8027h2.9258c.4287,0,.8242.0537,1.1865.1606s.6768.27.9434.4888.4746.4912.625.8169.2256.7075.2256,1.145c0,.3418-.0508.6553-.1533.9399s-.249.5391-.4375.7622c-.1895.2231-.417.4136-.6836.5708s-.5664.2793-.8994.3657v.0273c.1641.0728.3066.1562.4277.2495.1201.0933.2354.2041.3447.3315s.2178.2725.3252.4341c.1064.1616.2266.3496.3584.564l1.8389,2.9463ZM994.4709,24.2635v3.5547h1.5586c.2871,0,.5527-.0435.7969-.1299.2432-.0864.4541-.2109.6318-.3726s.3174-.3599.417-.5947c.1006-.2349.1504-.498.1504-.7896,0-.5239-.1699-.9331-.5088-1.2271-.3398-.2939-.8311-.4409-1.4736-.4409h-1.5723Z" fill="#2f2f2f"/>
      <path d="M1002.798,29.3221v3.7051h-1.1484v-9.8027h2.6934c1.0479,0,1.8604.2554,2.4365.7656.5771.5103.8652,1.2305.8652,2.1602s-.3203,1.6909-.9609,2.2832c-.6396.5923-1.5049.8887-2.5938.8887h-1.292ZM1002.798,24.2635v4.0195h1.2031c.793,0,1.3975-.1812,1.8145-.5435s.626-.874.626-1.5347c0-1.2944-.7656-1.9414-2.2969-1.9414h-1.3467Z" fill="#2f2f2f"/>
      <path d="M1012.8674,32.6307v-1.3535c.1543.1367.3408.2598.5566.3691.2168.1094.4443.2017.6836.2769s.4795.1333.7217.1743c.2412.041.4648.0615.6699.0615.7061,0,1.2334-.1309,1.582-.3931s.5234-.6392.5234-1.1313c0-.2642-.0586-.4946-.1748-.6904s-.2764-.375-.4814-.5366-.4482-.3169-.7285-.4648-.582-.3042-.9053-.4683c-.3418-.1733-.6611-.3486-.957-.5264-.2969-.1777-.5537-.3735-.7725-.5879s-.3906-.457-.5166-.728c-.125-.271-.1875-.5889-.1875-.9536,0-.4468.0977-.835.2939-1.1655.1953-.3306.4531-.6025.7725-.8169.3184-.2144.6826-.3735,1.0898-.4785.4082-.105.8242-.1572,1.248-.1572.9658,0,1.6699.1162,2.1123.3486v1.292c-.5791-.4009-1.3223-.6016-2.2285-.6016-.251,0-.502.0264-.752.0786-.251.0522-.4746.1377-.6699.2563-.1963.1187-.3555.271-.4785.458s-.1846.4146-.1846.6836c0,.2505.0469.4673.1396.6494.0938.1821.2314.3486.4141.499.1816.1504.4043.2964.666.4375.2627.1411.5645.2964.9062.4648.3506.1733.6836.3555.998.5469s.5898.4033.8271.6357c.2363.2324.4248.4897.5635.7725.1396.2827.209.606.209.9707,0,.4829-.0947.8921-.2842,1.2271-.1885.335-.4443.6074-.7656.8169s-.6914.3613-1.1104.4546c-.4199.0933-.8613.1401-1.3262.1401-.1553,0-.3467-.0127-.5742-.0376-.2285-.0249-.4609-.0615-.6973-.1094-.2373-.0479-.4619-.1069-.6738-.1777s-.3818-.1494-.5088-.2358Z" fill="#2f2f2f"/>
      <path d="M1025.7385,26.0271l-3.2197,8.1211c-.5742,1.4492-1.3809,2.1738-2.4199,2.1738-.292,0-.5361-.0298-.7314-.0889v-1.0049c.2412.082.4619.123.6631.123.5645,0,.9883-.3374,1.2715-1.0117l.5605-1.3262-2.7344-6.9863h1.2441l1.8936,5.3867c.0225.0684.0703.2461.1436.5332h.041c.0225-.1094.0684-.2827.1367-.5195l1.9893-5.4004h1.1621Z" fill="#2f2f2f"/>
      <path d="M1026.5178,32.7742v-1.2031c.6104.4512,1.2822.6768,2.0166.6768.9844,0,1.4766-.3281,1.4766-.9844,0-.187-.042-.3452-.127-.4751-.084-.1299-.1982-.2451-.3418-.3452s-.3115-.1904-.5059-.27c-.1934-.0796-.4023-.1631-.625-.2495-.3105-.123-.582-.2471-.8174-.3726-.2344-.1255-.4307-.2666-.5879-.4238s-.2754-.3359-.3555-.5366c-.0791-.2007-.1191-.4351-.1191-.7041,0-.3281.0752-.6187.2256-.8716s.3506-.4648.6016-.6357c.25-.1709.5361-.2998.8574-.3862s.6533-.1299.9951-.1299c.6055,0,1.1484.105,1.627.3145v1.1348c-.5156-.3374-1.1074-.5059-1.7773-.5059-.21,0-.3994.0239-.5674.0718-.1689.0479-.3135.1152-.4346.2017-.1201.0864-.2139.1904-.2803.311-.0654.1206-.0986.2539-.0986.3999,0,.1821.0332.335.0986.458.0664.123.1631.2324.291.3281.127.0957.2822.1821.4648.2598.1816.0776.3896.1616.6221.2529.3096.1187.5879.2402.834.3657s.4551.2666.6289.4238c.1729.1572.3066.3384.3994.5435.0938.2051.1406.4487.1406.7314,0,.3462-.0762.647-.2295.9023-.1523.2554-.3564.4673-.6113.6357-.2559.1685-.5498.2939-.8818.376-.333.082-.6816.123-1.0459.123-.7207,0-1.3447-.1392-1.873-.417Z" fill="#2f2f2f"/>
      <path d="M1036.1711,32.9588c-.2646.146-.6133.2188-1.0459.2188-1.2266,0-1.8389-.6836-1.8389-2.0508v-4.1426h-1.2031v-.957h1.2031v-1.709l1.1211-.3623v2.0713h1.7637v.957h-1.7637v3.9443c0,.4692.0791.8042.2393,1.0049.1592.2007.4238.3008.793.3008.2822,0,.5264-.0776.7314-.2324v.957Z" fill="#2f2f2f"/>
      <path d="M1043.1633,29.8074h-4.9424c.0186.7793.2285,1.3809.6289,1.8047.4014.4238.9531.6357,1.6543.6357.7891,0,1.5137-.2598,2.1738-.7793v1.0527c-.6152.4468-1.4287.6699-2.4404.6699-.9883,0-1.7656-.3179-2.3311-.9536-.5645-.6357-.8477-1.5303-.8477-2.6831,0-1.0894.3086-1.9766.9268-2.6626.6172-.686,1.3838-1.0288,2.2998-1.0288s1.625.2964,2.126.8887c.502.5923.752,1.415.752,2.4678v.5879ZM1042.0148,28.8572c-.0039-.647-.1602-1.1509-.4678-1.5107s-.7354-.54-1.2822-.54c-.5283,0-.9775.189-1.3467.5674s-.5967.8726-.6836,1.4834h3.7803Z" fill="#2f2f2f"/>
      <path d="M1054.7863,33.0271h-1.1211v-4.0195c0-.7749-.1201-1.3354-.3594-1.6816s-.6416-.5195-1.2061-.5195c-.4785,0-.8857.2188-1.2207.6562s-.502.9614-.502,1.5723v3.9922h-1.1211v-4.1562c0-1.3765-.5312-2.0645-1.5928-2.0645-.4922,0-.8984.2061-1.2168.6187-.3193.4126-.4785.9492-.4785,1.6099v3.9922h-1.1211v-7h1.1211v1.1074h.0273c.4961-.8477,1.2207-1.2715,2.1738-1.2715.4785,0,.8955.1333,1.251.3999s.5986.6162.7314,1.0493c.5195-.9663,1.2939-1.4492,2.3242-1.4492,1.54,0,2.3105.9502,2.3105,2.8506v4.3135Z" fill="#2f2f2f"/>
      <path d="M1056.4377,32.7742v-1.2031c.6113.4512,1.2832.6768,2.0166.6768.9844,0,1.4766-.3281,1.4766-.9844,0-.187-.042-.3452-.126-.4751-.085-.1299-.1982-.2451-.3418-.3452s-.3125-.1904-.5059-.27c-.1943-.0796-.4023-.1631-.626-.2495-.3096-.123-.582-.2471-.8164-.3726-.2354-.1255-.4307-.2666-.5879-.4238s-.2764-.3359-.3555-.5366c-.0801-.2007-.1201-.4351-.1201-.7041,0-.3281.0752-.6187.2256-.8716s.3516-.4648.6016-.6357c.251-.1709.5371-.2998.8584-.3862s.6523-.1299.9941-.1299c.6064,0,1.1484.105,1.627.3145v1.1348c-.5146-.3374-1.1074-.5059-1.7773-.5059-.209,0-.3984.0239-.5674.0718-.168.0479-.3135.1152-.4336.2017-.1211.0864-.2148.1904-.2803.311-.0664.1206-.0996.2539-.0996.3999,0,.1821.0332.335.0996.458.0654.123.1631.2324.29.3281.1279.0957.2832.1821.4648.2598.1826.0776.3896.1616.6221.2529.3105.1187.5879.2402.834.3657s.4561.2666.6289.4238c.1738.1572.3066.3384.4004.5435.0928.2051.1396.4487.1396.7314,0,.3462-.0762.647-.2285.9023-.1533.2554-.3564.4673-.6123.6357-.2549.1685-.5488.2939-.8818.376-.332.082-.6807.123-1.0459.123-.7197,0-1.3438-.1392-1.873-.417Z" fill="#2f2f2f"/>
    </g>
    <g>
      <path d="M990.0627,75.4051c-.7246.3828-1.627.5742-2.707.5742-1.3945,0-2.5107-.4487-3.3496-1.3467-.8379-.8979-1.2578-2.0757-1.2578-3.5342,0-1.5679.4717-2.8345,1.415-3.8008s2.1396-1.4492,3.5889-1.4492c.9297,0,1.7002.1343,2.3105.4033v1.2236c-.7012-.3921-1.4766-.5879-2.3242-.5879-1.125,0-2.0381.376-2.7373,1.1279-.7002.752-1.0498,1.7568-1.0498,3.0146,0,1.1938.3271,2.1455.9814,2.854.6533.7085,1.5117,1.063,2.5732,1.063.9844,0,1.8369-.2188,2.5566-.6562v1.1143Z" fill="#2f2f2f"/>
      <path d="M998.715,75.8152h-1.3672l-1.6406-2.748c-.1504-.2554-.2959-.4727-.4375-.6528-.1406-.1802-.2861-.3271-.4336-.4409-.1484-.1138-.3076-.1973-.4785-.2495s-.3633-.0786-.5781-.0786h-.9434v4.1699h-1.1484v-9.8027h2.9258c.4287,0,.8242.0537,1.1865.1606s.6768.27.9434.4888.4746.4912.625.8169.2256.7075.2256,1.145c0,.3418-.0508.6553-.1533.9399s-.249.5391-.4375.7622c-.1895.2231-.417.4136-.6836.5708s-.5664.2793-.8994.3657v.0273c.1641.0728.3066.1562.4277.2495.1201.0933.2354.2041.3447.3315s.2178.2725.3252.4341c.1064.1616.2266.3496.3584.564l1.8389,2.9463ZM992.8361,67.0516v3.5547h1.5586c.2871,0,.5527-.0435.7969-.1299.2432-.0864.4541-.2109.6318-.3726s.3174-.3599.417-.5947c.1006-.2349.1504-.498.1504-.7896,0-.5239-.1699-.9331-.5088-1.2271-.3398-.2939-.8311-.4409-1.4736-.4409h-1.5723Z" fill="#2f2f2f"/>
      <path d="M1010.009,75.8152h-1.1416v-6.5762c0-.5195.0312-1.1553.0957-1.9072h-.0273c-.1094.4419-.208.7588-.2939.9502l-3.3496,7.5332h-.5605l-3.3428-7.4785c-.0957-.2188-.1943-.5537-.2939-1.0049h-.0273c.0361.3921.0547,1.0322.0547,1.9209v6.5625h-1.1074v-9.8027h1.5176l3.0078,6.8359c.2324.5239.3828.916.4512,1.1758h.041c.1953-.5376.3525-.939.4717-1.2031l3.0693-6.8086h1.4355v9.8027Z" fill="#2f2f2f"/>
      <path d="M1015.9631,75.4188v-1.3535c.1543.1367.3408.2598.5566.3691.2168.1094.4443.2017.6836.2769s.4795.1333.7217.1743c.2412.041.4648.0615.6699.0615.7061,0,1.2334-.1309,1.582-.3931s.5234-.6392.5234-1.1313c0-.2642-.0586-.4946-.1748-.6904s-.2764-.375-.4814-.5366-.4482-.3169-.7285-.4648-.582-.3042-.9053-.4683c-.3418-.1733-.6611-.3486-.957-.5264-.2969-.1777-.5537-.3735-.7725-.5879s-.3906-.457-.5166-.728c-.125-.271-.1875-.5889-.1875-.9536,0-.4468.0977-.835.2939-1.1655.1953-.3306.4531-.6025.7725-.8169.3184-.2144.6826-.3735,1.0898-.4785.4082-.105.8242-.1572,1.248-.1572.9658,0,1.6699.1162,2.1123.3486v1.292c-.5791-.4009-1.3223-.6016-2.2285-.6016-.251,0-.502.0264-.752.0786-.251.0522-.4746.1377-.6699.2563-.1963.1187-.3555.271-.4785.458s-.1846.4146-.1846.6836c0,.2505.0469.4673.1396.6494.0938.1821.2314.3486.4141.499.1816.1504.4043.2964.666.4375.2627.1411.5645.2964.9062.4648.3506.1733.6836.3555.998.5469s.5898.4033.8271.6357c.2363.2324.4248.4897.5635.7725.1396.2827.209.606.209.9707,0,.4829-.0947.8921-.2842,1.2271-.1885.335-.4443.6074-.7656.8169s-.6914.3613-1.1104.4546c-.4199.0933-.8613.1401-1.3262.1401-.1553,0-.3467-.0127-.5742-.0376-.2285-.0249-.4609-.0615-.6973-.1094-.2373-.0479-.4619-.1069-.6738-.1777s-.3818-.1494-.5088-.2358Z" fill="#2f2f2f"/>
      <path d="M1028.8342,68.8152l-3.2197,8.1211c-.5742,1.4492-1.3809,2.1738-2.4199,2.1738-.292,0-.5361-.0298-.7314-.0889v-1.0049c.2412.082.4619.123.6631.123.5645,0,.9883-.3374,1.2715-1.0117l.5605-1.3262-2.7344-6.9863h1.2441l1.8936,5.3867c.0225.0684.0703.2461.1436.5332h.041c.0225-.1094.0684-.2827.1367-.5195l1.9893-5.4004h1.1621Z" fill="#2f2f2f"/>
      <path d="M1029.6135,75.5623v-1.2031c.6104.4512,1.2822.6768,2.0166.6768.9844,0,1.4766-.3281,1.4766-.9844,0-.187-.042-.3452-.127-.4751-.084-.1299-.1982-.2451-.3418-.3452s-.3115-.1904-.5059-.27c-.1934-.0796-.4023-.1631-.625-.2495-.3105-.123-.582-.2471-.8174-.3726-.2344-.1255-.4307-.2666-.5879-.4238s-.2754-.3359-.3555-.5366c-.0791-.2007-.1191-.4351-.1191-.7041,0-.3281.0752-.6187.2256-.8716s.3506-.4648.6016-.6357c.25-.1709.5361-.2998.8574-.3862s.6533-.1299.9951-.1299c.6055,0,1.1484.105,1.627.3145v1.1348c-.5156-.3374-1.1074-.5059-1.7773-.5059-.21,0-.3994.0239-.5674.0718-.1689.0479-.3135.1152-.4346.2017-.1201.0864-.2139.1904-.2803.311-.0654.1206-.0986.2539-.0986.3999,0,.1821.0332.335.0986.458.0664.123.1631.2324.291.3281.127.0957.2822.1821.4648.2598.1816.0776.3896.1616.6221.2529.3096.1187.5879.2402.834.3657s.4551.2666.6289.4238c.1729.1572.3066.3384.3994.5435.0938.2051.1406.4487.1406.7314,0,.3462-.0762.647-.2295.9023-.1523.2554-.3564.4673-.6113.6357-.2559.1685-.5498.2939-.8818.376-.333.082-.6816.123-1.0459.123-.7207,0-1.3447-.1392-1.873-.417Z" fill="#2f2f2f"/>
      <path d="M1039.2668,75.7469c-.2646.146-.6133.2188-1.0459.2188-1.2266,0-1.8389-.6836-1.8389-2.0508v-4.1426h-1.2031v-.957h1.2031v-1.709l1.1211-.3623v2.0713h1.7637v.957h-1.7637v3.9443c0,.4692.0791.8042.2393,1.0049.1592.2007.4238.3008.793.3008.2822,0,.5264-.0776.7314-.2324v.957Z" fill="#2f2f2f"/>
      <path d="M1046.259,72.5955h-4.9424c.0186.7793.2285,1.3809.6289,1.8047.4014.4238.9531.6357,1.6543.6357.7891,0,1.5137-.2598,2.1738-.7793v1.0527c-.6152.4468-1.4287.6699-2.4404.6699-.9883,0-1.7656-.3179-2.3311-.9536-.5645-.6357-.8477-1.5303-.8477-2.6831,0-1.0894.3086-1.9766.9268-2.6626.6172-.686,1.3838-1.0288,2.2998-1.0288s1.625.2964,2.126.8887c.502.5923.752,1.415.752,2.4678v.5879ZM1045.1105,71.6453c-.0039-.647-.1602-1.1509-.4678-1.5107s-.7354-.54-1.2822-.54c-.5283,0-.9775.189-1.3467.5674s-.5967.8726-.6836,1.4834h3.7803Z" fill="#2f2f2f"/>
      <path d="M1057.882,75.8152h-1.1211v-4.0195c0-.7749-.1201-1.3354-.3594-1.6816s-.6416-.5195-1.2061-.5195c-.4785,0-.8857.2188-1.2207.6562s-.502.9614-.502,1.5723v3.9922h-1.1211v-4.1562c0-1.3765-.5312-2.0645-1.5928-2.0645-.4922,0-.8984.2061-1.2168.6187-.3193.4126-.4785.9492-.4785,1.6099v3.9922h-1.1211v-7h1.1211v1.1074h.0273c.4961-.8477,1.2207-1.2715,2.1738-1.2715.4785,0,.8955.1333,1.251.3999s.5986.6162.7314,1.0493c.5195-.9663,1.2939-1.4492,2.3242-1.4492,1.54,0,2.3105.9502,2.3105,2.8506v4.3135Z" fill="#2f2f2f"/>
      <path d="M1059.5334,75.5623v-1.2031c.6113.4512,1.2832.6768,2.0166.6768.9844,0,1.4766-.3281,1.4766-.9844,0-.187-.042-.3452-.126-.4751-.085-.1299-.1982-.2451-.3418-.3452s-.3125-.1904-.5059-.27c-.1943-.0796-.4023-.1631-.626-.2495-.3096-.123-.582-.2471-.8164-.3726-.2354-.1255-.4307-.2666-.5879-.4238s-.2764-.3359-.3555-.5366c-.0801-.2007-.1201-.4351-.1201-.7041,0-.3281.0752-.6187.2256-.8716s.3516-.4648.6016-.6357c.251-.1709.5371-.2998.8584-.3862s.6523-.1299.9941-.1299c.6064,0,1.1484.105,1.627.3145v1.1348c-.5146-.3374-1.1074-.5059-1.7773-.5059-.209,0-.3984.0239-.5674.0718-.168.0479-.3135.1152-.4336.2017-.1211.0864-.2148.1904-.2803.311-.0664.1206-.0996.2539-.0996.3999,0,.1821.0332.335.0996.458.0654.123.1631.2324.29.3281.1279.0957.2832.1821.4648.2598.1826.0776.3896.1616.6221.2529.3105.1187.5879.2402.834.3657s.4561.2666.6289.4238c.1738.1572.3066.3384.4004.5435.0928.2051.1396.4487.1396.7314,0,.3462-.0762.647-.2285.9023-.1533.2554-.3564.4673-.6123.6357-.2549.1685-.5488.2939-.8818.376-.332.082-.6807.123-1.0459.123-.7197,0-1.3438-.1392-1.873-.417Z" fill="#2f2f2f"/>
    </g>
    <g>
      <path d="M988.9436,118.6033h-1.1416v-6.5762c0-.5195.0312-1.1553.0957-1.9072h-.0273c-.1094.4424-.208.7588-.2939.9502l-3.3496,7.5332h-.5605l-3.3428-7.4785c-.0957-.2188-.1943-.5537-.2939-1.0049h-.0273c.0361.3926.0547,1.0322.0547,1.9209v6.5625h-1.1074v-9.8027h1.5176l3.0078,6.8359c.2324.5244.3828.916.4512,1.1758h.041c.1953-.5371.3525-.9385.4717-1.2031l3.0693-6.8086h1.4355v9.8027Z" fill="#2f2f2f"/>
      <path d="M996.258,118.6033h-1.1211v-1.0938h-.0273c-.4883.8389-1.2061,1.2578-2.1533,1.2578-.6973,0-1.2432-.1846-1.6377-.5537-.3936-.3691-.5908-.8584-.5908-1.4697,0-1.3076.7695-2.0684,2.3105-2.2832l2.0986-.2939c0-1.1895-.4814-1.7842-1.4424-1.7842-.8438,0-1.6045.2871-2.2832.8613v-1.1484c.6875-.4375,1.4805-.6562,2.3789-.6562,1.6445,0,2.4678.8711,2.4678,2.6113v4.5527ZM995.1369,115.0623l-1.6885.2324c-.5195.0732-.9121.2021-1.1758.3867-.2646.1846-.3965.5117-.3965.9805,0,.3418.1221.6211.3652.8379.2441.2158.5684.3242.9746.3242.5557,0,1.0146-.1943,1.377-.584s.5439-.8828.5439-1.4805v-.6973Z" fill="#2f2f2f"/>
      <path d="M1001.9289,112.7381c-.1953-.1504-.4785-.2256-.8477-.2256-.4785,0-.8779.2256-1.1992.6768s-.4824,1.0664-.4824,1.8457v3.5684h-1.1211v-7h1.1211v1.4424h.0273c.1602-.4922.4033-.876.7314-1.1514.3281-.2764.6953-.4141,1.1006-.4141.292,0,.5156.0322.6699.0957v1.1621Z" fill="#2f2f2f"/>
      <path d="M1008.9836,118.6033h-1.5723l-3.0898-3.3633h-.0273v3.3633h-1.1211v-10.3633h1.1211v6.5693h.0273l2.9395-3.2061h1.4697l-3.2471,3.377,3.5,3.623Z" fill="#2f2f2f"/>
      <path d="M1015.4074,115.3836h-4.9424c.0186.7793.2285,1.3809.6289,1.8047.4014.4238.9531.6357,1.6543.6357.7891,0,1.5137-.2598,2.1738-.7793v1.0527c-.6152.4473-1.4287.6699-2.4404.6699-.9883,0-1.7656-.3174-2.3311-.9531-.5645-.6357-.8477-1.5303-.8477-2.6836,0-1.0889.3086-1.9766.9268-2.6621.6172-.6865,1.3838-1.0293,2.2998-1.0293s1.625.2969,2.126.8887c.502.5928.752,1.415.752,2.4678v.5879ZM1014.259,114.4334c-.0039-.6465-.1602-1.1504-.4678-1.5107-.3076-.3594-.7354-.54-1.2822-.54-.5283,0-.9775.1895-1.3467.5674-.3691.3789-.5967.873-.6836,1.4834h3.7803Z" fill="#2f2f2f"/>
      <path d="M1020.3322,118.535c-.2646.1465-.6133.2188-1.0459.2188-1.2266,0-1.8389-.6836-1.8389-2.0508v-4.1426h-1.2031v-.957h1.2031v-1.709l1.1211-.3623v2.0713h1.7637v.957h-1.7637v3.9443c0,.4697.0791.8047.2393,1.0049.1592.2012.4238.3008.793.3008.2822,0,.5264-.0771.7314-.2324v.957Z" fill="#2f2f2f"/>
      <path d="M1022.2873,109.826c-.2012,0-.3721-.0684-.5127-.2051-.1416-.1367-.2119-.3096-.2119-.5195,0-.209.0703-.3838.2119-.5225.1406-.1396.3115-.209.5127-.209.2051,0,.3789.0693.5225.209.1436.1387.2158.3135.2158.5225,0,.2012-.0723.3721-.2158.5127-.1436.1416-.3174.2119-.5225.2119ZM1022.8342,118.6033h-1.1211v-7h1.1211v7Z" fill="#2f2f2f"/>
      <path d="M1030.7629,118.6033h-1.1211v-3.9922c0-1.4854-.543-2.2285-1.627-2.2285-.5605,0-1.0244.2109-1.3916.6328-.3662.4209-.5498.9531-.5498,1.5957v3.9922h-1.1211v-7h1.1211v1.1621h.0273c.5283-.8838,1.2939-1.3262,2.2969-1.3262.7656,0,1.3506.2471,1.7568.7422.4053.4941.6084,1.209.6084,2.1426v4.2793Z" fill="#2f2f2f"/>
      <path d="M1038.8371,118.0428c0,2.5703-1.2305,3.8555-3.6914,3.8555-.8662,0-1.623-.1641-2.2695-.4922v-1.1211c.7881.4375,1.54.6562,2.2559.6562,1.7227,0,2.584-.916,2.584-2.748v-.7656h-.0273c-.5332.8936-1.3359,1.3398-2.4062,1.3398-.8711,0-1.5713-.3105-2.1025-.9326-.5303-.6221-.7959-1.457-.7959-2.5059,0-1.1895.2861-2.1348.8574-2.8369.5723-.7012,1.3545-1.0527,2.3486-1.0527.9434,0,1.6426.3789,2.0986,1.1348h.0273v-.9707h1.1211v6.4395ZM1037.716,115.4383v-1.0322c0-.5557-.1885-1.0322-.5645-1.4287s-.8438-.5947-1.4043-.5947c-.6934,0-1.2354.252-1.627.7559-.3926.5029-.5879,1.209-.5879,2.1152,0,.7793.1875,1.4023.5635,1.8701.376.4668.874.7002,1.4941.7002.6289,0,1.1406-.2227,1.5342-.6699.3945-.4463.5918-1.0186.5918-1.7158Z" fill="#2f2f2f"/>
      <path d="M1052.6799,118.6033h-1.2715l-1.0391-2.748h-4.1562l-.9775,2.748h-1.2783l3.7598-9.8027h1.1895l3.7734,9.8027ZM1049.9934,114.823l-1.5381-4.1768c-.0508-.1367-.1006-.3555-.1504-.6562h-.0273c-.0459.2783-.0986.4971-.1572.6562l-1.5244,4.1768h3.3975Z" fill="#2f2f2f"/>
      <path d="M1055.1008,117.5916h-.0273v4.2314h-1.1211v-10.2197h1.1211v1.2305h.0273c.5508-.9297,1.3574-1.3945,2.4199-1.3945.9023,0,1.6064.3135,2.1123.9404.5059.626.7588,1.4658.7588,2.5186,0,1.1719-.2852,2.1094-.8545,2.8135-.5703.7041-1.3496,1.0557-2.3379,1.0557-.9072,0-1.6064-.3916-2.0986-1.1758ZM1055.0734,114.7684v.9775c0,.5791.1875,1.0703.5635,1.4736s.8535.6045,1.4326.6045c.6787,0,1.2109-.2598,1.5957-.7793.3857-.5195.5781-1.2412.5781-2.167,0-.7793-.1807-1.3896-.54-1.832-.3604-.4414-.8477-.6631-1.4629-.6631-.6523,0-1.1758.2266-1.5723.6807-.3965.4531-.5947,1.0215-.5947,1.7051Z" fill="#2f2f2f"/>
      <path d="M1063.257,117.5916h-.0273v4.2314h-1.1211v-10.2197h1.1211v1.2305h.0273c.5508-.9297,1.3574-1.3945,2.4199-1.3945.9023,0,1.6064.3135,2.1123.9404.5059.626.7588,1.4658.7588,2.5186,0,1.1719-.2852,2.1094-.8545,2.8135-.5703.7041-1.3496,1.0557-2.3379,1.0557-.9072,0-1.6064-.3916-2.0986-1.1758ZM1063.2297,114.7684v.9775c0,.5791.1875,1.0703.5635,1.4736s.8535.6045,1.4326.6045c.6787,0,1.2109-.2598,1.5957-.7793.3857-.5195.5781-1.2412.5781-2.167,0-.7793-.1807-1.3896-.54-1.832-.3604-.4414-.8477-.6631-1.4629-.6631-.6523,0-1.1758.2266-1.5723.6807-.3965.4531-.5947,1.0215-.5947,1.7051Z" fill="#2f2f2f"/>
    </g>
    <g>
      <rect x="502.9303" y="57.2" width="136.4" height="32.428" fill="none"/>
      <path d="M527.1271,67.5633v-9.8027h2.707c3.4546,0,5.1816,1.5928,5.1816,4.7783,0,1.5132-.4795,2.7285-1.439,3.647s-2.2432,1.3774-3.8521,1.3774h-2.5977ZM528.2756,58.7996v7.7246h1.4629c1.2852,0,2.2856-.3442,3.001-1.0322s1.0732-1.6636,1.0732-2.9258c0-2.5112-1.3354-3.7666-4.0059-3.7666h-1.5312Z" fill="#2f2f2f"/>
      <path d="M541.6472,67.5633h-1.1211v-1.0938h-.0273c-.4878.8384-1.2056,1.2578-2.1533,1.2578-.6973,0-1.2432-.1846-1.6372-.5537s-.5913-.8589-.5913-1.4697c0-1.3081.77-2.0688,2.3105-2.2832l2.0986-.2939c0-1.1895-.481-1.7842-1.4424-1.7842-.8433,0-1.604.2871-2.2832.8613v-1.1484c.688-.4375,1.481-.6562,2.3789-.6562,1.645,0,2.4678.8706,2.4678,2.6113v4.5527ZM540.5261,64.0223l-1.6885.2324c-.5195.0728-.9116.2017-1.1758.3862s-.3965.5117-.3965.981c0,.3418.1221.6211.3657.8374s.5684.3247.9741.3247c.5562,0,1.0151-.1948,1.3774-.5845s.5435-.8828.5435-1.48v-.6973Z" fill="#2f2f2f"/>
      <path d="M546.9055,67.4949c-.2642.146-.6128.2188-1.0459.2188-1.2261,0-1.8389-.6836-1.8389-2.0508v-4.1426h-1.2031v-.957h1.2031v-1.709l1.1211-.3623v2.0713h1.7637v.957h-1.7637v3.9443c0,.4692.0796.8042.2393,1.0049s.4238.3008.793.3008c.2827,0,.5264-.0776.7314-.2324v.957Z" fill="#2f2f2f"/>
      <path d="M553.5227,67.5633h-1.1211v-1.0938h-.0273c-.4878.8384-1.2056,1.2578-2.1533,1.2578-.6973,0-1.2432-.1846-1.6372-.5537s-.5913-.8589-.5913-1.4697c0-1.3081.77-2.0688,2.3105-2.2832l2.0986-.2939c0-1.1895-.481-1.7842-1.4424-1.7842-.8433,0-1.604.2871-2.2832.8613v-1.1484c.688-.4375,1.481-.6562,2.3789-.6562,1.645,0,2.4678.8706,2.4678,2.6113v4.5527ZM552.4016,64.0223l-1.6885.2324c-.5195.0728-.9116.2017-1.1758.3862s-.3965.5117-.3965.981c0,.3418.1221.6211.3657.8374s.5684.3247.9741.3247c.5562,0,1.0151-.1948,1.3774-.5845s.5435-.8828.5435-1.48v-.6973Z" fill="#2f2f2f"/>
      <path d="M558.9582,58.1844c-.2188-.123-.4673-.1846-.7451-.1846-.7837,0-1.1758.4946-1.1758,1.4834v1.0801h1.6406v.957h-1.6406v6.043h-1.1143v-6.043h-1.1963v-.957h1.1963v-1.1348c0-.7339.2119-1.3135.6357-1.7397s.9526-.6392,1.5859-.6392c.3418,0,.6128.041.8135.123v1.0117Z" fill="#2f2f2f"/>
      <path d="M561.1799,67.5633h-1.1211v-10.3633h1.1211v10.3633Z" fill="#2f2f2f"/>
      <path d="M566.298,67.7273c-1.0347,0-1.8604-.3271-2.478-.981s-.9263-1.521-.9263-2.6011c0-1.1758.3213-2.0942.9639-2.7549s1.5107-.9912,2.6045-.9912c1.0435,0,1.8584.3213,2.4438.9639s.8784,1.5337.8784,2.6729c0,1.1167-.3154,2.0107-.9468,2.6831s-1.4775,1.0083-2.5396,1.0083ZM566.3801,61.3426c-.7202,0-1.2896.2451-1.709.7349s-.6289,1.1655-.6289,2.0269c0,.8296.2119,1.4834.6357,1.9619s.9912.7178,1.7021.7178c.7246,0,1.2817-.2349,1.6714-.7041s.5845-1.1372.5845-2.0029c0-.875-.1948-1.5493-.5845-2.0234s-.9468-.7109-1.6714-.7109Z" fill="#2f2f2f"/>
      <path d="M580.2565,60.5633l-2.0986,7h-1.1621l-1.4424-5.0107c-.0547-.1914-.0913-.4077-.1094-.6494h-.0273c-.0137.1641-.0615.376-.1436.6357l-1.5654,5.0244h-1.1211l-2.1191-7h1.1758l1.4492,5.2637c.0454.1597.0776.3691.0957.6289h.0547c.0137-.2007.0547-.4146.123-.6426l1.6133-5.25h1.0254l1.4492,5.2773c.0454.1685.0796.3784.1025.6289h.0547c.0093-.1777.0479-.3872.1162-.6289l1.4219-5.2773h1.1074Z" fill="#2f2f2f"/>
      <path d="M592.8688,66.8934c-.9844.5562-2.0781.834-3.2812.834-1.3989,0-2.5303-.4512-3.394-1.3535s-1.2954-2.0962-1.2954-3.582c0-1.5176.4795-2.7627,1.439-3.7358s2.1748-1.4595,3.647-1.4595c1.0664,0,1.9619.1733,2.6865.5195v1.2715c-.793-.5015-1.7319-.752-2.8164-.752-1.0981,0-1.9985.3784-2.7002,1.1348s-1.0527,1.7363-1.0527,2.9395c0,1.2397.3257,2.2139.9775,2.9224s1.5356,1.063,2.6523,1.063c.7656,0,1.4287-.1528,1.9893-.458v-2.748h-2.1465v-1.0391h3.2949v4.4434Z" fill="#2f2f2f"/>
      <path d="M600.6306,64.3436h-4.9424c.0181.7793.228,1.3809.6289,1.8047s.9526.6357,1.6543.6357c.7886,0,1.5132-.2598,2.1738-.7793v1.0527c-.6152.4468-1.4287.6699-2.4404.6699-.9888,0-1.7661-.3179-2.3311-.9536s-.8477-1.5303-.8477-2.6831c0-1.0894.3086-1.9766.9263-2.6626s1.3843-1.0288,2.3003-1.0288,1.6245.2964,2.126.8887.752,1.415.752,2.4678v.5879ZM599.4821,63.3934c-.0044-.647-.1606-1.1509-.4683-1.5107s-.7349-.54-1.2817-.54c-.5288,0-.9775.189-1.3467.5674s-.5972.8726-.6836,1.4834h3.7803Z" fill="#2f2f2f"/>
      <path d="M608.1242,67.5633h-1.1211v-3.9922c0-1.4858-.5425-2.2285-1.627-2.2285-.5605,0-1.0244.2109-1.3911.6323s-.5503.9536-.5503,1.5962v3.9922h-1.1211v-7h1.1211v1.1621h.0273c.5288-.8843,1.2944-1.3262,2.2969-1.3262.7656,0,1.3511.2471,1.7568.7417s.6084,1.209.6084,2.1431v4.2793Z" fill="#2f2f2f"/>
      <path d="M614.1491,60.3309c0-.3008-.0469-.563-.1401-.7861s-.2212-.4092-.3828-.5571-.3521-.2588-.5708-.3315-.4556-.1094-.7109-.1094c-.2188,0-.4331.0298-.6426.0889s-.4136.1411-.6118.2461-.3896.23-.5742.376-.3564.3076-.5161.4854v-1.2031c.3145-.3052.6665-.5391,1.0562-.7007s.8647-.2427,1.4253-.2427c.4009,0,.7725.0581,1.1143.1743s.6382.2861.8887.5093.4478.499.5913.8271.2153.7041.2153,1.1279c0,.3872-.0444.7383-.1333,1.0527s-.2231.6108-.4033.8887-.4067.5444-.6802.7998-.5947.5151-.9639.7793c-.4604.3281-.8398.6084-1.1382.8408s-.5356.4502-.7109.6528-.2983.4058-.3691.6084-.106.4365-.106.7007h4.8809v1.0049h-6.0498v-.4854c0-.4194.0454-.7886.1367-1.1074s.2417-.6221.4512-.9092.4844-.5742.8237-.8613.7554-.6108,1.2476-.9707c.3555-.2554.6528-.499.8921-.7314s.4316-.4648.5776-.6973.2495-.4683.311-.7075.0923-.4932.0923-.7622Z" fill="#2f2f2f"/>
      <path d="M518.8488,83.9666v-1.3535c.1548.1367.3408.2598.5571.3691s.4443.2017.6836.2769.4795.1333.7212.1743.4648.0615.6699.0615c.7065,0,1.2339-.1309,1.5825-.3931s.5229-.6392.5229-1.1313c0-.2642-.0581-.4946-.1743-.6904s-.2769-.375-.4819-.5366-.4478-.3169-.728-.4648-.582-.3042-.9058-.4683c-.3418-.1733-.6606-.3486-.957-.5264s-.5537-.3735-.7725-.5879-.3906-.457-.5161-.728-.188-.5889-.188-.9536c0-.4468.0981-.835.2939-1.1655s.4536-.6025.7725-.8169.6826-.3735,1.0903-.4785.8237-.1572,1.2476-.1572c.9663,0,1.6704.1162,2.1123.3486v1.292c-.5786-.4009-1.3218-.6016-2.2285-.6016-.2505,0-.5015.0264-.752.0786s-.4741.1377-.6699.2563-.3555.271-.4785.458-.1846.4146-.1846.6836c0,.2505.0469.4673.1401.6494s.2314.3486.4136.499.4043.2964.6665.4375.564.2964.9058.4648c.3511.1733.6836.3555.998.5469s.5903.4033.8271.6357.4248.4897.564.7725.2085.606.2085.9707c0,.4829-.0947.8921-.2837,1.2271s-.4443.6074-.7656.8169-.6914.3613-1.1108.4546-.8613.1401-1.3262.1401c-.1548,0-.3462-.0127-.5742-.0376s-.4604-.0615-.6973-.1094-.4614-.1069-.6733-.1777-.3818-.1494-.5093-.2358Z" fill="#2f2f2f"/>
      <path d="M527.5549,83.3514h-.0273v4.2314h-1.1211v-10.2197h1.1211v1.2305h.0273c.5513-.9297,1.3579-1.3945,2.4199-1.3945.9023,0,1.6064.3135,2.1123.9399s.7588,1.4663.7588,2.519c0,1.1714-.2847,2.1089-.8545,2.813s-1.3491,1.0562-2.3379,1.0562c-.9067,0-1.6064-.3921-2.0986-1.1758ZM527.5275,80.5281v.9775c0,.5786.188,1.0698.564,1.4731s.8535.605,1.4321.605c.6792,0,1.2109-.2598,1.5962-.7793s.5776-1.2417.5776-2.167c0-.7793-.1802-1.3901-.54-1.832s-.8477-.6631-1.4629-.6631c-.6519,0-1.1758.2266-1.5723.6802s-.5947,1.022-.5947,1.7056Z" fill="#2f2f2f"/>
      <path d="M539.5817,84.3631h-1.1211v-1.0938h-.0273c-.4878.8384-1.2056,1.2578-2.1533,1.2578-.6973,0-1.2432-.1846-1.6372-.5537s-.5913-.8589-.5913-1.4697c0-1.3081.77-2.0688,2.3105-2.2832l2.0986-.2939c0-1.1895-.481-1.7842-1.4424-1.7842-.8433,0-1.604.2871-2.2832.8613v-1.1484c.688-.4375,1.481-.6562,2.3789-.6562,1.645,0,2.4678.8706,2.4678,2.6113v4.5527ZM538.4606,80.8221l-1.6885.2324c-.5195.0728-.9116.2017-1.1758.3862s-.3965.5117-.3965.981c0,.3418.1221.6211.3657.8374s.5684.3247.9741.3247c.5562,0,1.0151-.1948,1.3774-.5845s.5435-.8828.5435-1.48v-.6973Z" fill="#2f2f2f"/>
      <path d="M545.2536,78.4979c-.1958-.1504-.4785-.2256-.8477-.2256-.4785,0-.8784.2256-1.1997.6768s-.4819,1.0664-.4819,1.8457v3.5684h-1.1211v-7h1.1211v1.4424h.0273c.1597-.4922.4033-.876.7314-1.1519s.6948-.4136,1.1006-.4136c.2915,0,.5151.0317.6699.0957v1.1621Z" fill="#2f2f2f"/>
      <path d="M552.3073,84.3631h-1.5723l-3.0898-3.3633h-.0273v3.3633h-1.1211v-10.3633h1.1211v6.5693h.0273l2.9395-3.2061h1.4697l-3.2471,3.377,3.5,3.623Z" fill="#2f2f2f"/>
      <path d="M565.3435,84.3631h-1.4082l-5.0449-7.8135c-.1274-.1958-.2324-.4009-.3145-.6152h-.041c.0366.2095.0547.6587.0547,1.3467v7.082h-1.1484v-9.8027h1.4902l4.9082,7.6904c.2051.3188.3374.5376.3965.6562h.0273c-.0454-.2827-.0684-.7632-.0684-1.4424v-6.9043h1.1484v9.8027Z" fill="#2f2f2f"/>
      <path d="M570.6013,84.5271c-1.0347,0-1.8604-.3271-2.478-.981s-.9263-1.521-.9263-2.6011c0-1.1758.3213-2.0942.9639-2.7549s1.5107-.9912,2.6045-.9912c1.0435,0,1.8584.3213,2.4438.9639s.8784,1.5337.8784,2.6729c0,1.1167-.3154,2.0107-.9468,2.6831s-1.4775,1.0083-2.5396,1.0083ZM570.6833,78.1424c-.7202,0-1.2896.2451-1.709.7349s-.6289,1.1655-.6289,2.0269c0,.8296.2119,1.4834.6357,1.9619s.9912.7178,1.7021.7178c.7246,0,1.2817-.2349,1.6714-.7041s.5845-1.1372.5845-2.0029c0-.875-.1948-1.5493-.5845-2.0234s-.9468-.7109-1.6714-.7109Z" fill="#2f2f2f"/>
      <path d="M578.9797,84.2947c-.2642.146-.6128.2188-1.0459.2188-1.2261,0-1.8389-.6836-1.8389-2.0508v-4.1426h-1.2031v-.957h1.2031v-1.709l1.1211-.3623v2.0713h1.7637v.957h-1.7637v3.9443c0,.4692.0796.8042.2393,1.0049s.4238.3008.793.3008c.2827,0,.5264-.0776.7314-.2324v.957Z" fill="#2f2f2f"/>
      <path d="M585.9729,81.1434h-4.9424c.0181.7793.228,1.3809.6289,1.8047s.9526.6357,1.6543.6357c.7886,0,1.5132-.2598,2.1738-.7793v1.0527c-.6152.4468-1.4287.6699-2.4404.6699-.9888,0-1.7661-.3179-2.3311-.9536s-.8477-1.5303-.8477-2.6831c0-1.0894.3086-1.9766.9263-2.6626s1.3843-1.0288,2.3003-1.0288,1.6245.2964,2.126.8887.752,1.415.752,2.4678v.5879ZM584.8244,80.1932c-.0044-.647-.1606-1.1509-.4683-1.5107s-.7349-.54-1.2817-.54c-.5288,0-.9775.189-1.3467.5674s-.5972.8726-.6836,1.4834h3.7803Z" fill="#2f2f2f"/>
      <path d="M588.8039,83.3514h-.0273v1.0117h-1.1211v-10.3633h1.1211v4.5938h.0273c.5513-.9297,1.3579-1.3945,2.4199-1.3945.8979,0,1.6006.3135,2.1089.9399s.7622,1.4663.7622,2.519c0,1.1714-.2847,2.1089-.8545,2.813s-1.3491,1.0562-2.3379,1.0562c-.9253,0-1.6245-.3921-2.0986-1.1758ZM588.7766,80.5281v.9775c0,.5786.188,1.0698.564,1.4731s.8535.605,1.4321.605c.6792,0,1.2109-.2598,1.5962-.7793s.5776-1.2417.5776-2.167c0-.7793-.1802-1.3901-.54-1.832s-.8477-.6631-1.4629-.6631c-.6519,0-1.1758.2266-1.5723.6802s-.5947,1.022-.5947,1.7056Z" fill="#2f2f2f"/>
      <path d="M598.799,84.5271c-1.0347,0-1.8604-.3271-2.478-.981s-.9263-1.521-.9263-2.6011c0-1.1758.3213-2.0942.9639-2.7549s1.5107-.9912,2.6045-.9912c1.0435,0,1.8584.3213,2.4438.9639s.8784,1.5337.8784,2.6729c0,1.1167-.3154,2.0107-.9468,2.6831s-1.4775,1.0083-2.5396,1.0083ZM598.8811,78.1424c-.7202,0-1.2896.2451-1.709.7349s-.6289,1.1655-.6289,2.0269c0,.8296.2119,1.4834.6357,1.9619s.9912.7178,1.7021.7178c.7246,0,1.2817-.2349,1.6714-.7041s.5845-1.1372.5845-2.0029c0-.875-.1948-1.5493-.5845-2.0234s-.9468-.7109-1.6714-.7109Z" fill="#2f2f2f"/>
      <path d="M606.9895,84.5271c-1.0347,0-1.8604-.3271-2.478-.981s-.9263-1.521-.9263-2.6011c0-1.1758.3213-2.0942.9639-2.7549s1.5107-.9912,2.6045-.9912c1.0435,0,1.8584.3213,2.4438.9639s.8784,1.5337.8784,2.6729c0,1.1167-.3154,2.0107-.9468,2.6831s-1.4775,1.0083-2.5396,1.0083ZM607.0715,78.1424c-.7202,0-1.2896.2451-1.709.7349s-.6289,1.1655-.6289,2.0269c0,.8296.2119,1.4834.6357,1.9619s.9912.7178,1.7021.7178c.7246,0,1.2817-.2349,1.6714-.7041s.5845-1.1372.5845-2.0029c0-.875-.1948-1.5493-.5845-2.0234s-.9468-.7109-1.6714-.7109Z" fill="#2f2f2f"/>
      <path d="M618.0017,84.3631h-1.5723l-3.0898-3.3633h-.0273v3.3633h-1.1211v-10.3633h1.1211v6.5693h.0273l2.9395-3.2061h1.4697l-3.2471,3.377,3.5,3.623Z" fill="#2f2f2f"/>
      <path d="M619.0095,84.1102v-1.2031c.6108.4512,1.2827.6768,2.0166.6768.9844,0,1.4766-.3281,1.4766-.9844,0-.187-.042-.3452-.1265-.4751s-.1982-.2451-.3418-.3452-.312-.1904-.5059-.27-.4023-.1631-.6255-.2495c-.3101-.123-.582-.2471-.8169-.3726s-.4307-.2666-.5879-.4238-.2759-.3359-.3555-.5366-.1196-.4351-.1196-.7041c0-.3281.0752-.6187.2256-.8716s.3511-.4648.6016-.6357.5366-.2998.8579-.3862.6528-.1299.9946-.1299c.606,0,1.1484.105,1.627.3145v1.1348c-.5151-.3374-1.1074-.5059-1.7773-.5059-.2095,0-.3989.0239-.5674.0718s-.3135.1152-.4341.2017-.2144.1904-.2803.311-.0991.2539-.0991.3999c0,.1821.0332.335.0991.458s.1631.2324.2905.3281.2827.1821.4648.2598.3896.1616.6221.2529c.3101.1187.5879.2402.834.3657s.4556.2666.6289.4238.3066.3384.3999.5435.1401.4487.1401.7314c0,.3462-.0762.647-.229.9023s-.3564.4673-.6118.6357-.5493.2939-.8818.376-.6812.123-1.0459.123c-.7202,0-1.3442-.1392-1.873-.417Z" fill="#2f2f2f"/>
    </g>
  </g>
</svg>