<svg width="785" height="566" xmlns="http://www.w3.org/2000/svg" xmlns:xlink="http://www.w3.org/1999/xlink" xml:space="preserve" overflow="hidden"><defs><filter id="fx0" x="-10%" y="-10%" width="120%" height="120%" filterUnits="userSpaceOnUse" primitiveUnits="userSpaceOnUse"><feComponentTransfer color-interpolation-filters="sRGB"><feFuncR type="discrete" tableValues="0 0"/><feFuncG type="discrete" tableValues="0 0"/><feFuncB type="discrete" tableValues="0 0"/><feFuncA type="linear" slope="0.501961" intercept="0"/></feComponentTransfer><feGaussianBlur stdDeviation="2.22222 2.22222"/></filter><filter id="fx1" x="-10%" y="-10%" width="120%" height="120%" filterUnits="userSpaceOnUse" primitiveUnits="userSpaceOnUse"><feComponentTransfer color-interpolation-filters="sRGB"><feFuncR type="discrete" tableValues="0 0"/><feFuncG type="discrete" tableValues="0 0"/><feFuncB type="discrete" tableValues="0 0"/><feFuncA type="linear" slope="0.501961" intercept="0"/></feComponentTransfer><feGaussianBlur stdDeviation="2.22222 2.22222"/></filter><filter id="fx2" x="-10%" y="-10%" width="120%" height="120%" filterUnits="userSpaceOnUse" primitiveUnits="userSpaceOnUse"><feComponentTransfer color-interpolation-filters="sRGB"><feFuncR type="discrete" tableValues="0 0"/><feFuncG type="discrete" tableValues="0 0"/><feFuncB type="discrete" tableValues="0 0"/><feFuncA type="linear" slope="0.501961" intercept="0"/></feComponentTransfer><feGaussianBlur stdDeviation="2.22222 2.22222"/></filter><filter id="fx3" x="-10%" y="-10%" width="120%" height="120%" filterUnits="userSpaceOnUse" primitiveUnits="userSpaceOnUse"><feComponentTransfer color-interpolation-filters="sRGB"><feFuncR type="discrete" tableValues="0 0"/><feFuncG type="discrete" tableValues="0 0"/><feFuncB type="discrete" tableValues="0 0"/><feFuncA type="linear" slope="0.501961" intercept="0"/></feComponentTransfer><feGaussianBlur stdDeviation="2.22222 2.22222"/></filter><clipPath id="clip4"><path d="M60.6702 158C49.8067 158 41 166.807 41 177.67L41 685.33C41 696.193 49.8067 705 60.6702 705L787.33 705C798.193 705 807 696.193 807 685.33L807 177.67C807 166.807 798.193 158 787.33 158ZM40 157 825 157 825 723 40 723Z" fill-rule="evenodd" clip-rule="evenodd"/></clipPath><linearGradient x1="424" y1="157" x2="424" y2="706" gradientUnits="userSpaceOnUse" spreadMethod="reflect" id="stroke5"><stop offset="0" stop-color="#A0D0EC"/><stop offset="0.0222222" stop-color="#A0CFEB"/><stop offset="0.0444444" stop-color="#A1CFEB"/><stop offset="0.0666667" stop-color="#A2CFEB"/><stop offset="0.0888889" stop-color="#A2CFEB"/><stop offset="0.111111" stop-color="#A3CFEB"/><stop offset="0.133333" stop-color="#A4CEEB"/><stop offset="0.155556" stop-color="#A4CEEB"/><stop offset="0.177778" stop-color="#A5CEEA"/><stop offset="0.2" stop-color="#A5CDEA"/><stop offset="0.222222" stop-color="#A6CDEA"/><stop offset="0.244444" stop-color="#A6CCE9"/><stop offset="0.266667" stop-color="#A7CCE9"/><stop offset="0.288889" stop-color="#A8CBE9"/><stop offset="0.311111" stop-color="#A8CAE8"/><stop offset="0.333333" stop-color="#A9CAE8"/><stop offset="0.355556" stop-color="#A9C9E7"/><stop offset="0.377778" stop-color="#AAC8E7"/><stop offset="0.4" stop-color="#AAC7E6"/><stop offset="0.422222" stop-color="#AAC6E6"/><stop offset="0.444444" stop-color="#ABC5E5"/><stop offset="0.466667" stop-color="#ABC4E5"/><stop offset="0.488889" stop-color="#ACC3E4"/><stop offset="0.511111" stop-color="#ACC2E3"/><stop offset="0.533333" stop-color="#ACC1E3"/><stop offset="0.555556" stop-color="#ADC0E2"/><stop offset="0.577778" stop-color="#ADBFE1"/><stop offset="0.6" stop-color="#ADBEE0"/><stop offset="0.622222" stop-color="#AEBDE0"/><stop offset="0.644444" stop-color="#AEBBDF"/><stop offset="0.666667" stop-color="#AEBADE"/><stop offset="0.688889" stop-color="#AFB9DD"/><stop offset="0.711111" stop-color="#AFB7DC"/><stop offset="0.733333" stop-color="#AFB6DB"/><stop offset="0.755556" stop-color="#AFB4DA"/><stop offset="0.777778" stop-color="#AFB3D9"/><stop offset="0.8" stop-color="#B0B1D8"/><stop offset="0.822222" stop-color="#B0B0D7"/><stop offset="0.844444" stop-color="#B0AED6"/><stop offset="0.866667" stop-color="#B0ACD5"/><stop offset="0.888889" stop-color="#B0ABD4"/><stop offset="0.911111" stop-color="#B0A9D3"/><stop offset="0.933333" stop-color="#B0A7D2"/><stop offset="0.955556" stop-color="#B0A5D1"/><stop offset="0.977778" stop-color="#B0A3D0"/><stop offset="1" stop-color="#B1A2CF"/></linearGradient><clipPath id="clip6"><path d="M60.335 189C56.8363 189 54 191.836 54 195.335L54 356.665C54 360.164 56.8363 363 60.335 363L787.665 363C791.164 363 794 360.164 794 356.665L794 195.335C794 191.836 791.164 189 787.665 189ZM40 157 825 157 825 723 40 723Z" fill-rule="evenodd" clip-rule="evenodd"/></clipPath><radialGradient cx="3076575" cy="400050" r="3102476" fy="400050" gradientUnits="userSpaceOnUse" spreadMethod="pad" id="fill7" gradientTransform="matrix(0.000104987 0 0 0.000104987 253 168)"><stop offset="0" stop-color="#8DE971"/><stop offset="0.8" stop-color="#399A91"/><stop offset="1" stop-color="#399A91"/></radialGradient><radialGradient cx="1501049" cy="159532" r="868422" fx="2360870" fy="281452" gradientUnits="userSpaceOnUse" spreadMethod="pad" id="fill8" gradientTransform="matrix(0.000104987 0 0 0.000104987 256.907 172.178)"><stop offset="0" stop-color="#091F2C"/><stop offset="0.8" stop-color="#091F2C"/><stop offset="1" stop-color="#091F2C"/></radialGradient><linearGradient x1="233.1" y1="420.227" x2="200.9" y2="420.227" gradientUnits="userSpaceOnUse" spreadMethod="reflect" id="fill9"><stop offset="0" stop-color="#0070C0"/><stop offset="0.61" stop-color="#13648A"/><stop offset="0.95" stop-color="#215B61"/><stop offset="1" stop-color="#215B61"/></linearGradient><linearGradient x1="209.736" y1="236.031" x2="214.155" y2="271.387" gradientUnits="userSpaceOnUse" spreadMethod="pad" id="fill10"><stop offset="0" stop-color="#FFFFFF"/><stop offset="1" stop-color="#EBEBEB"/></linearGradient><radialGradient cx="0" cy="0" r="1" gradientUnits="userSpaceOnUse" spreadMethod="pad" id="fill11" gradientTransform="matrix(18.4392 27.6589 -23.9355 15.957 211.192 245.129)"><stop offset="0" stop-color="#FFFFFF" stop-opacity="0.2"/><stop offset="0.177" stop-color="#FFFFFF" stop-opacity="0.2"/><stop offset="1" stop-color="#B8B8B8" stop-opacity="0.2"/></radialGradient><linearGradient x1="211.313" y1="236.031" x2="216.017" y2="271.312" gradientUnits="userSpaceOnUse" spreadMethod="pad" id="fill12"><stop offset="0" stop-color="#BBBBBB"/><stop offset="1" stop-color="#888888"/></linearGradient><linearGradient x1="209.438" y1="248.797" x2="217.626" y2="262.833" gradientUnits="userSpaceOnUse" spreadMethod="pad" id="fill13"><stop offset="0" stop-color="#EB6D00"/><stop offset="1" stop-color="#B85500"/></linearGradient><linearGradient x1="209.438" y1="248.797" x2="217.626" y2="262.833" gradientUnits="userSpaceOnUse" spreadMethod="pad" id="fill14"><stop offset="0" stop-color="#EB6D00"/><stop offset="1" stop-color="#B85500"/></linearGradient><linearGradient x1="209.438" y1="248.797" x2="217.626" y2="262.833" gradientUnits="userSpaceOnUse" spreadMethod="pad" id="fill15"><stop offset="0" stop-color="#EB6D00"/><stop offset="1" stop-color="#B85500"/></linearGradient></defs><g transform="translate(-40 -157)"><g clip-path="url(#clip4)"><g filter="url(#fx0)" transform="translate(41 158)"><g><path d="M9.42809 29.0983C9.42809 18.2347 18.2347 9.42809 29.0983 9.42809L755.758 9.42809C766.621 9.42809 775.428 18.2347 775.428 29.0983L775.428 536.758C775.428 547.621 766.621 556.428 755.758 556.428L29.0983 556.428C18.2347 556.428 9.42809 547.621 9.42809 536.758Z" stroke="#FF0000" stroke-width="2" stroke-linejoin="round" stroke-miterlimit="10" fill="#091F2C" fill-rule="evenodd"/></g></g></g><path d="M41 177.67C41 166.807 49.8067 158 60.6702 158L787.33 158C798.193 158 807 166.807 807 177.67L807 685.33C807 696.193 798.193 705 787.33 705L60.6702 705C49.8067 705 41 696.193 41 685.33Z" stroke="url(#stroke5)" stroke-width="2" stroke-linejoin="round" stroke-miterlimit="10" fill="#091F2C" fill-rule="evenodd"/><g clip-path="url(#clip6)"><g filter="url(#fx1)" transform="translate(50 185)"><g><path d="M8.71405 15.0491C8.71405 11.5503 11.5503 8.71405 15.049 8.71405L742.379 8.71405C745.878 8.71405 748.714 11.5503 748.714 15.0491L748.714 176.379C748.714 179.878 745.878 182.714 742.379 182.714L15.049 182.714C11.5503 182.714 8.71405 179.878 8.71405 176.379Z" stroke="#FFFFFF" stroke-width="2" stroke-linejoin="round" stroke-miterlimit="10" fill="#091F2C" fill-rule="evenodd"/></g></g></g><path d="M54 195.335C54 191.836 56.8363 189 60.335 189L787.665 189C791.164 189 794 191.836 794 195.335L794 356.665C794 360.164 791.164 363 787.665 363L60.335 363C56.8363 363 54 360.164 54 356.665Z" stroke="#FFFFFF" stroke-width="2" stroke-linejoin="round" stroke-miterlimit="10" fill="#091F2C" fill-rule="evenodd"/><path d="M317 262.25 491.5 262.25 491.5 238 540 286.5 491.5 335 491.5 310.75 317 310.75Z" fill="#005A9F" fill-rule="evenodd"/><g><g><g><path d="M297.75 346.667 138.25 346.667C132.933 346.667 128.583 342.317 128.583 337L128.583 221C128.583 215.683 132.933 211.333 138.25 211.333L183.683 211.333C185.617 211.333 187.55 211.817 189 213.025L215.583 230.667 297.75 230.667C303.067 230.667 307.417 235.017 307.417 240.333L307.417 337C307.417 342.317 303.067 346.667 297.75 346.667Z" fill="#FFFFFF"/></g></g></g><text fill="#005A9F" font-family="Segoe UI,Segoe UI_MSFontService,Arial" font-weight="400" font-size="27" transform="translate(153.936 295)">Lakehouse</text><g><g><g><path d="M714.75 346.667 555.25 346.667C549.933 346.667 545.583 342.317 545.583 337L545.583 221C545.583 215.683 549.933 211.333 555.25 211.333L600.683 211.333C602.617 211.333 604.55 211.817 606 213.025L632.583 230.667 714.75 230.667C720.067 230.667 724.417 235.017 724.417 240.333L724.417 337C724.417 342.317 720.067 346.667 714.75 346.667Z" fill="#FFFFFF"/></g></g></g><text fill="#005A9F" font-family="Segoe UI,Segoe UI_MSFontService,Arial" font-weight="400" font-size="27" transform="translate(598.702 295)">Tables</text><text fill="#FFFFFF" font-family="Segoe UI,Segoe UI_MSFontService,Arial" font-weight="400" font-size="19" transform="translate(339.058 281)">CDC Processing</text><text fill="#FFFFFF" font-family="Segoe UI,Segoe UI_MSFontService,Arial" font-weight="400" font-size="19" transform="translate(339.058 304)">(mirroring engine)</text><g filter="url(#fx2)" transform="translate(250 165)"><g><path d="M7.71405 22.3035C7.71405 14.246 14.2459 7.71405 22.3034 7.71405L316.125 7.71405C324.182 7.71405 330.714 14.246 330.714 22.3035L330.714 35.1246C330.714 43.1821 324.182 49.714 316.125 49.714L22.3034 49.714C14.2459 49.714 7.71405 43.1821 7.71405 35.1246Z" fill="#FF0000" fill-rule="evenodd"/></g></g><g filter="url(#fx3)" transform="translate(323 178)"><g><path d="M162.252 18.6826 160.048 18.9902C159.364 19.0791 158.85 19.2449 158.505 19.4876 158.159 19.7302 157.987 20.1558 157.987 20.7642 157.987 21.2085 158.146 21.5725 158.464 21.8562 158.781 22.1399 159.207 22.2817 159.74 22.2817 160.465 22.2817 161.065 22.0271 161.54 21.5178 162.015 21.0086 162.252 20.3677 162.252 19.5952ZM138.252 18.6826 136.048 18.9902C135.364 19.0791 134.85 19.2449 134.505 19.4876 134.159 19.7302 133.987 20.1558 133.987 20.7642 133.987 21.2085 134.146 21.5725 134.464 21.8562 134.781 22.1399 135.207 22.2817 135.74 22.2817 136.465 22.2817 137.065 22.0271 137.54 21.5178 138.015 21.0086 138.252 20.3677 138.252 19.5952ZM119.252 18.6826 117.048 18.9902C116.364 19.0791 115.85 19.2449 115.505 19.4876 115.159 19.7302 114.987 20.1558 114.987 20.7642 114.987 21.2085 115.146 21.5725 115.464 21.8562 115.781 22.1399 116.207 22.2817 116.74 22.2817 117.465 22.2817 118.065 22.0271 118.54 21.5178 119.015 21.0086 119.252 20.3677 119.252 19.5952ZM148.668 14.9912C147.82 14.9912 147.138 15.292 146.622 15.8936 146.106 16.4951 145.848 17.2471 145.848 18.1494L145.848 19.4517C145.848 20.2173 146.092 20.8667 146.581 21.3999 147.07 21.9331 147.69 22.1997 148.442 22.1997 149.324 22.1997 150.016 21.8562 150.519 21.1692 151.021 20.4822 151.272 19.5234 151.272 18.293 151.272 17.2607 151.038 16.4524 150.57 15.8679 150.102 15.2835 149.468 14.9912 148.668 14.9912ZM84.1039 14.9912C83.2153 14.9912 82.5163 15.3228 82.007 15.9858 81.4977 16.6489 81.2431 17.5684 81.2431 18.7441 81.2431 19.8106 81.4875 20.6531 81.9762 21.2717 82.465 21.8904 83.123 22.1997 83.9501 22.1997 84.7636 22.1997 85.4232 21.9006 85.9291 21.3025 86.435 20.7044 86.6879 19.9507 86.6879 19.0415L86.6879 17.6675C86.6879 16.9224 86.4452 16.29 85.9599 15.7705 85.4745 15.251 84.8559 14.9912 84.1039 14.9912ZM53.2577 14.9912C52.328 14.9912 51.5932 15.3159 51.0532 15.9653 50.5131 16.6148 50.2431 17.5103 50.2431 18.6519 50.2431 19.7524 50.5165 20.6189 51.0634 21.2512 51.6103 21.8836 52.3417 22.1997 53.2577 22.1997 54.1943 22.1997 54.9137 21.8887 55.4162 21.2666 55.9186 20.6445 56.1698 19.7593 56.1698 18.6108 56.1698 17.4556 55.9186 16.5635 55.4162 15.9346 54.9137 15.3057 54.1943 14.9912 53.2577 14.9912ZM180.837 14.8477C180.154 14.8477 179.574 15.0972 179.099 15.5962 178.624 16.0952 178.332 16.7481 178.223 17.5547L183.083 17.5547C183.076 16.7002 182.874 16.0354 182.478 15.5603 182.081 15.0852 181.535 14.8477 180.837 14.8477ZM72.8373 14.8477C72.1537 14.8477 71.5744 15.0972 71.0993 15.5962 70.6242 16.0952 70.332 16.7481 70.2226 17.5547L75.0829 17.5547C75.0761 16.7002 74.8744 16.0354 74.478 15.5603 74.0815 15.0852 73.5346 14.8477 72.8373 14.8477ZM27.4897 13.3403 29.8686 13.3403 29.8686 23.8403 27.4897 23.8403ZM65.5961 13.1558C66.0268 13.1558 66.3549 13.2207 66.5805 13.3506L66.5805 15.6065C66.2934 15.3809 65.8798 15.2681 65.3398 15.2681 64.6357 15.2681 64.0478 15.5859 63.5761 16.2217 63.1044 16.8574 62.8686 17.7222 62.8686 18.8159L62.8686 23.8403 60.4897 23.8403 60.4897 13.3403 62.8686 13.3403 62.8686 15.5039 62.9096 15.5039C63.142 14.7656 63.4992 14.1897 63.9811 13.7761 64.4631 13.3626 65.0014 13.1558 65.5961 13.1558ZM45.5961 13.1558C46.0268 13.1558 46.3549 13.2207 46.5805 13.3506L46.5805 15.6065C46.2934 15.3809 45.8798 15.2681 45.3398 15.2681 44.6357 15.2681 44.0478 15.5859 43.5761 16.2217 43.1044 16.8574 42.8686 17.7222 42.8686 18.8159L42.8686 23.8403 40.4897 23.8403 40.4897 13.3403 42.8686 13.3403 42.8686 15.5039 42.9096 15.5039C43.142 14.7656 43.4992 14.1897 43.9811 13.7761 44.4631 13.3626 45.0014 13.1558 45.5961 13.1558ZM37.5961 13.1558C38.0268 13.1558 38.3549 13.2207 38.5805 13.3506L38.5805 15.6065C38.2934 15.3809 37.8798 15.2681 37.3398 15.2681 36.6357 15.2681 36.0478 15.5859 35.5761 16.2217 35.1044 16.8574 34.8686 17.7222 34.8686 18.8159L34.8686 23.8403 32.4897 23.8403 32.4897 13.3403 34.8686 13.3403 34.8686 15.5039 34.9096 15.5039C35.142 14.7656 35.4992 14.1897 35.9811 13.7761 36.4631 13.3626 37.0014 13.1558 37.5961 13.1558ZM180.868 13.0942C182.304 13.0942 183.414 13.5557 184.201 14.4785 184.987 15.4014 185.38 16.6831 185.38 18.3237L185.38 19.2363 178.223 19.2363C178.25 20.207 178.549 20.9556 179.12 21.4819 179.691 22.0083 180.475 22.2715 181.473 22.2715 182.594 22.2715 183.623 21.9365 184.559 21.2666L184.559 23.1841C183.602 23.7857 182.338 24.0864 180.766 24.0864 179.221 24.0864 178.009 23.6096 177.131 22.656 176.252 21.7024 175.813 20.3608 175.813 18.6314 175.813 16.9976 176.297 15.6663 177.264 14.6375 178.231 13.6086 179.433 13.0942 180.868 13.0942ZM171.13 13.0942C172.101 13.0942 172.969 13.2412 173.734 13.5352L173.734 15.6167C172.996 15.1108 172.148 14.8579 171.191 14.8579 170.891 14.8579 170.619 14.8887 170.376 14.9502 170.133 15.0117 169.927 15.0972 169.756 15.2065 169.585 15.3159 169.452 15.4475 169.356 15.6013 169.26 15.7551 169.212 15.9243 169.212 16.1089 169.212 16.3345 169.26 16.5259 169.356 16.6831 169.452 16.8403 169.593 16.9788 169.781 17.0984 169.969 17.218 170.195 17.3274 170.458 17.4265 170.721 17.5256 171.024 17.6333 171.366 17.7495 171.817 17.9341 172.222 18.1221 172.581 18.3135 172.94 18.5049 173.246 18.7219 173.498 18.9646 173.751 19.2073 173.946 19.4876 174.083 19.8054 174.22 20.1233 174.288 20.501 174.288 20.9385 174.288 21.4717 174.165 21.9365 173.919 22.333 173.673 22.7295 173.345 23.0576 172.934 23.3174 172.524 23.5772 172.051 23.7703 171.514 23.8967 170.978 24.0232 170.412 24.0864 169.817 24.0864 168.669 24.0864 167.674 23.895 166.833 23.5122L166.833 21.3076C167.722 21.9844 168.703 22.3228 169.776 22.3228 171.212 22.3228 171.93 21.8989 171.93 21.0513 171.93 20.812 171.868 20.6086 171.745 20.4412 171.622 20.2737 171.456 20.125 171.248 19.9951 171.039 19.8652 170.793 19.749 170.509 19.6465 170.226 19.544 169.91 19.4277 169.561 19.2979 169.13 19.127 168.742 18.9458 168.397 18.7544 168.052 18.563 167.765 18.346 167.536 18.1033 167.307 17.8606 167.134 17.5855 167.018 17.2778 166.902 16.9702 166.844 16.6113 166.844 16.2012 166.844 15.6953 166.963 15.2493 167.203 14.863 167.442 14.4768 167.763 14.1521 168.166 13.8889 168.57 13.6257 169.028 13.4275 169.54 13.2942 170.053 13.1609 170.583 13.0942 171.13 13.0942ZM160.571 13.0942C163.223 13.0942 164.549 14.3999 164.549 17.0112L164.549 23.8403 162.242 23.8403 162.242 22.1997 162.201 22.1997C161.476 23.4575 160.413 24.0864 159.012 24.0864 157.98 24.0864 157.172 23.8062 156.587 23.2456 156.003 22.6851 155.71 21.9434 155.71 21.0205 155.71 19.0381 156.852 17.8828 159.135 17.5547L162.252 17.1138C162.252 15.6167 161.541 14.8682 160.12 14.8682 158.869 14.8682 157.741 15.2988 156.736 16.1602L156.736 14.0786C157.843 13.4224 159.122 13.0942 160.571 13.0942ZM136.571 13.0942C139.223 13.0942 140.549 14.3999 140.549 17.0112L140.549 23.8403 138.242 23.8403 138.242 22.1997 138.201 22.1997C137.476 23.4575 136.413 24.0864 135.012 24.0864 133.98 24.0864 133.172 23.8062 132.587 23.2456 132.003 22.6851 131.71 21.9434 131.71 21.0205 131.71 19.0381 132.852 17.8828 135.135 17.5547L138.252 17.1138C138.252 15.6167 137.541 14.8682 136.12 14.8682 134.869 14.8682 133.741 15.2988 132.736 16.1602L132.736 14.0786C133.843 13.4224 135.121 13.0942 136.571 13.0942ZM117.571 13.0942C120.223 13.0942 121.549 14.3999 121.549 17.0112L121.549 23.8403 119.242 23.8403 119.242 22.1997 119.201 22.1997C118.476 23.4575 117.413 24.0864 116.012 24.0864 114.98 24.0864 114.172 23.8062 113.587 23.2456 113.003 22.6851 112.71 21.9434 112.71 21.0205 112.71 19.0381 113.852 17.8828 116.135 17.5547L119.252 17.1138C119.252 15.6167 118.541 14.8682 117.12 14.8682 115.869 14.8682 114.741 15.2988 113.736 16.1602L113.736 14.0786C114.843 13.4224 116.121 13.0942 117.571 13.0942ZM72.8681 13.0942C74.3036 13.0942 75.4145 13.5557 76.2006 14.4785 76.9867 15.4014 77.3798 16.6831 77.3798 18.3237L77.3798 19.2363 70.2226 19.2363C70.2499 20.207 70.549 20.9556 71.1198 21.4819 71.6906 22.0083 72.475 22.2715 73.4731 22.2715 74.5942 22.2715 75.623 21.9365 76.5595 21.2666L76.5595 23.1841C75.6024 23.7857 74.3378 24.0864 72.7655 24.0864 71.2206 24.0864 70.009 23.6096 69.1305 22.656 68.2521 21.7024 67.8129 20.3608 67.8129 18.6314 67.8129 16.9976 68.2966 15.6663 69.2638 14.6375 70.2311 13.6086 71.4325 13.0942 72.8681 13.0942ZM53.4013 13.0942C55.0419 13.0942 56.3202 13.5762 57.2363 14.54 58.1523 15.5039 58.6103 16.8403 58.6103 18.5493 58.6103 20.2241 58.1164 21.5657 57.1286 22.574 56.1408 23.5823 54.8129 24.0864 53.145 24.0864 51.5248 24.0864 50.2311 23.596 49.2638 22.615 48.2965 21.634 47.8129 20.3335 47.8129 18.7134 47.8129 16.9497 48.3171 15.5723 49.3254 14.5811 50.3337 13.5898 51.6923 13.0942 53.4013 13.0942ZM101.186 11.2075 101.186 21.7793 103.135 21.7793C104.851 21.7793 106.185 21.3076 107.139 20.3643 108.092 19.4209 108.569 18.0879 108.569 16.3652 108.569 12.9268 106.788 11.2075 103.227 11.2075ZM127.515 10.2334 127.515 13.3403 130.027 13.3403 130.027 15.2065 127.515 15.2065 127.515 20.4565C127.515 21.0786 127.627 21.523 127.853 21.7896 128.079 22.0562 128.455 22.1895 128.981 22.1895 129.384 22.1895 129.733 22.0732 130.027 21.8408L130.027 23.7275C129.562 23.96 128.95 24.0762 128.191 24.0762 126.154 24.0762 125.136 23.0986 125.136 21.1436L125.136 15.2065 123.382 15.2065 123.382 13.3403 125.136 13.3403 125.136 10.9102ZM98.7563 9.13624 103.001 9.13624C108.422 9.13624 111.133 11.5254 111.133 16.3037 111.133 18.5732 110.381 20.3967 108.877 21.7742 107.373 23.1516 105.356 23.8403 102.827 23.8403L98.7563 23.8403ZM7.75628 9.13624 11.1913 9.13624 15.0571 18.9287C15.351 19.6807 15.5424 20.2412 15.6313 20.6104L15.6825 20.6104C15.9355 19.8379 16.1405 19.2637 16.2978 18.8877L20.2353 9.13624 23.5473 9.13624 23.5473 23.8403 21.1274 23.8403 21.1274 14.3247C21.1274 13.5454 21.1752 12.5918 21.2709 11.4639L21.2299 11.4639C21.0795 12.1065 20.9462 12.5679 20.83 12.8482L16.4413 23.8403 14.7597 23.8403 10.3608 12.9302C10.2377 12.6089 10.1078 12.1201 9.97112 11.4639L9.9301 11.4639C9.98479 12.0518 10.0121 13.0122 10.0121 14.3452L10.0121 23.8403 7.75628 23.8403ZM28.6894 8.42872C29.0927 8.42872 29.4345 8.5586 29.7148 8.81837 29.995 9.07813 30.1352 9.40284 30.1352 9.79249 30.1352 10.1616 29.995 10.4778 29.7148 10.741 29.4345 11.0042 29.0927 11.1357 28.6894 11.1357 28.2997 11.1357 27.9665 11.0093 27.6896 10.7564 27.4128 10.5034 27.2743 10.1821 27.2743 9.79249 27.2743 9.40284 27.4128 9.07813 27.6896 8.81837 27.9665 8.5586 28.2997 8.42872 28.6894 8.42872ZM143.49 8.29542 145.869 8.29542 145.869 15.186 145.91 15.186C146.723 13.7915 147.913 13.0942 149.478 13.0942 150.804 13.0942 151.841 13.5642 152.59 14.5042 153.339 15.4441 153.713 16.7036 153.713 18.2827 153.713 20.0396 153.292 21.4461 152.452 22.5022 151.611 23.5584 150.462 24.0864 149.006 24.0864 147.639 24.0864 146.607 23.4985 145.91 22.3228L145.869 22.3228 145.869 23.8403 143.49 23.8403ZM86.6572 8.29542 89.0361 8.29542 89.0361 23.8403 86.6572 23.8403 86.6572 22.0562 86.6161 22.0562C85.8505 23.4097 84.6713 24.0864 83.0785 24.0864 81.7865 24.0864 80.7526 23.6165 79.9767 22.6765 79.2009 21.7366 78.8129 20.4565 78.8129 18.8364 78.8129 17.1001 79.2419 15.709 80.0998 14.6631 80.9577 13.6172 82.101 13.0942 83.5297 13.0942 84.9447 13.0942 85.9736 13.6616 86.6161 14.7964L86.6572 14.7964Z" fill="#FF0000" fill-rule="evenodd"/></g></g><path d="M253 182.589C253 174.532 259.532 168 267.589 168L561.411 168C569.468 168 576 174.532 576 182.589L576 195.411C576 203.468 569.468 210 561.411 210L267.589 210C259.532 210 253 203.468 253 195.411Z" fill="url(#fill7)" fill-rule="evenodd"/><path d="M480.538 191.969 478.334 192.276C477.65 192.365 477.136 192.531 476.791 192.774 476.445 193.016 476.273 193.442 476.273 194.05 476.273 194.494 476.432 194.858 476.75 195.142 477.067 195.426 477.493 195.568 478.026 195.568 478.751 195.568 479.351 195.313 479.826 194.804 480.301 194.295 480.538 193.654 480.538 192.881ZM456.538 191.969 454.334 192.276C453.65 192.365 453.136 192.531 452.791 192.774 452.445 193.016 452.273 193.442 452.273 194.05 452.273 194.494 452.432 194.858 452.75 195.142 453.067 195.426 453.493 195.568 454.026 195.568 454.751 195.568 455.351 195.313 455.826 194.804 456.301 194.295 456.538 193.654 456.538 192.881ZM437.538 191.969 435.334 192.276C434.65 192.365 434.136 192.531 433.791 192.774 433.445 193.016 433.273 193.442 433.273 194.05 433.273 194.494 433.432 194.858 433.75 195.142 434.067 195.426 434.493 195.568 435.026 195.568 435.751 195.568 436.351 195.313 436.826 194.804 437.301 194.295 437.538 193.654 437.538 192.881ZM466.954 188.277C466.106 188.277 465.424 188.578 464.908 189.18 464.392 189.781 464.134 190.533 464.134 191.435L464.134 192.738C464.134 193.503 464.378 194.153 464.867 194.686 465.356 195.219 465.976 195.486 466.728 195.486 467.61 195.486 468.302 195.142 468.805 194.455 469.307 193.768 469.558 192.809 469.558 191.579 469.558 190.547 469.324 189.738 468.856 189.154 468.388 188.569 467.754 188.277 466.954 188.277ZM402.39 188.277C401.501 188.277 400.802 188.609 400.293 189.272 399.784 189.935 399.529 190.854 399.529 192.03 399.529 193.097 399.773 193.939 400.262 194.558 400.751 195.176 401.409 195.486 402.236 195.486 403.05 195.486 403.709 195.187 404.215 194.588 404.721 193.99 404.974 193.237 404.974 192.327L404.974 190.953C404.974 190.208 404.731 189.576 404.246 189.056 403.76 188.537 403.142 188.277 402.39 188.277ZM371.544 188.277C370.614 188.277 369.879 188.602 369.339 189.251 368.799 189.901 368.529 190.796 368.529 191.938 368.529 193.038 368.803 193.905 369.349 194.537 369.896 195.17 370.628 195.486 371.544 195.486 372.48 195.486 373.2 195.175 373.702 194.553 374.205 193.93 374.456 193.045 374.456 191.897 374.456 190.742 374.205 189.849 373.702 189.221 373.2 188.592 372.48 188.277 371.544 188.277ZM499.123 188.134C498.44 188.134 497.86 188.383 497.385 188.882 496.91 189.381 496.618 190.034 496.509 190.841L501.369 190.841C501.362 189.986 501.16 189.321 500.764 188.846 500.367 188.371 499.821 188.134 499.123 188.134ZM391.123 188.134C390.44 188.134 389.86 188.383 389.385 188.882 388.91 189.381 388.618 190.034 388.509 190.841L393.369 190.841C393.362 189.986 393.16 189.321 392.764 188.846 392.367 188.371 391.821 188.134 391.123 188.134ZM345.776 186.626 348.155 186.626 348.155 197.126 345.776 197.126ZM383.882 186.442C384.313 186.442 384.641 186.507 384.866 186.637L384.866 188.892C384.579 188.667 384.166 188.554 383.626 188.554 382.922 188.554 382.334 188.872 381.862 189.508 381.39 190.143 381.155 191.008 381.155 192.102L381.155 197.126 378.776 197.126 378.776 186.626 381.155 186.626 381.155 188.79 381.196 188.79C381.428 188.052 381.785 187.476 382.267 187.062 382.749 186.649 383.287 186.442 383.882 186.442ZM363.882 186.442C364.313 186.442 364.641 186.507 364.866 186.637L364.866 188.892C364.579 188.667 364.166 188.554 363.626 188.554 362.922 188.554 362.334 188.872 361.862 189.508 361.39 190.143 361.155 191.008 361.155 192.102L361.155 197.126 358.776 197.126 358.776 186.626 361.155 186.626 361.155 188.79 361.196 188.79C361.428 188.052 361.785 187.476 362.267 187.062 362.749 186.649 363.287 186.442 363.882 186.442ZM355.882 186.442C356.313 186.442 356.641 186.507 356.866 186.637L356.866 188.892C356.579 188.667 356.166 188.554 355.626 188.554 354.922 188.554 354.334 188.872 353.862 189.508 353.39 190.143 353.155 191.008 353.155 192.102L353.155 197.126 350.776 197.126 350.776 186.626 353.155 186.626 353.155 188.79 353.196 188.79C353.428 188.052 353.785 187.476 354.267 187.062 354.749 186.649 355.287 186.442 355.882 186.442ZM499.154 186.38C500.59 186.38 501.7 186.842 502.487 187.764 503.273 188.687 503.666 189.969 503.666 191.61L503.666 192.522 496.509 192.522C496.536 193.493 496.835 194.242 497.406 194.768 497.977 195.294 498.761 195.557 499.759 195.557 500.88 195.557 501.909 195.222 502.845 194.553L502.845 196.47C501.888 197.072 500.624 197.372 499.052 197.372 497.507 197.372 496.295 196.896 495.417 195.942 494.538 194.988 494.099 193.647 494.099 191.917 494.099 190.284 494.583 188.952 495.55 187.923 496.517 186.895 497.719 186.38 499.154 186.38ZM489.416 186.38C490.386 186.38 491.255 186.527 492.02 186.821L492.02 188.903C491.282 188.397 490.434 188.144 489.477 188.144 489.177 188.144 488.905 188.175 488.662 188.236 488.419 188.298 488.213 188.383 488.042 188.493 487.871 188.602 487.738 188.733 487.642 188.887 487.546 189.041 487.498 189.21 487.498 189.395 487.498 189.62 487.546 189.812 487.642 189.969 487.738 190.126 487.879 190.265 488.067 190.384 488.255 190.504 488.481 190.613 488.744 190.712 489.007 190.812 489.31 190.919 489.652 191.035 490.103 191.22 490.508 191.408 490.867 191.599 491.226 191.791 491.531 192.008 491.784 192.251 492.037 192.493 492.232 192.774 492.369 193.091 492.506 193.409 492.574 193.787 492.574 194.224 492.574 194.758 492.451 195.222 492.205 195.619 491.959 196.015 491.631 196.344 491.22 196.603 490.81 196.863 490.337 197.056 489.8 197.183 489.264 197.309 488.698 197.372 488.103 197.372 486.955 197.372 485.96 197.181 485.119 196.798L485.119 194.594C486.008 195.27 486.989 195.609 488.062 195.609 489.498 195.609 490.216 195.185 490.216 194.337 490.216 194.098 490.154 193.895 490.031 193.727 489.908 193.56 489.742 193.411 489.534 193.281 489.325 193.151 489.079 193.035 488.795 192.932 488.512 192.83 488.196 192.714 487.847 192.584 487.416 192.413 487.028 192.232 486.683 192.04 486.338 191.849 486.051 191.632 485.822 191.389 485.593 191.147 485.42 190.871 485.304 190.564 485.188 190.256 485.13 189.897 485.13 189.487 485.13 188.981 485.249 188.535 485.489 188.149 485.728 187.763 486.049 187.438 486.452 187.175 486.856 186.912 487.314 186.713 487.826 186.58 488.339 186.447 488.869 186.38 489.416 186.38ZM478.857 186.38C481.509 186.38 482.835 187.686 482.835 190.297L482.835 197.126 480.528 197.126 480.528 195.486 480.487 195.486C479.762 196.743 478.699 197.372 477.298 197.372 476.266 197.372 475.458 197.092 474.873 196.532 474.289 195.971 473.996 195.229 473.996 194.306 473.996 192.324 475.138 191.169 477.421 190.841L480.538 190.4C480.538 188.903 479.827 188.154 478.406 188.154 477.155 188.154 476.027 188.585 475.022 189.446L475.022 187.365C476.129 186.708 477.407 186.38 478.857 186.38ZM454.857 186.38C457.509 186.38 458.835 187.686 458.835 190.297L458.835 197.126 456.528 197.126 456.528 195.486 456.487 195.486C455.762 196.743 454.699 197.372 453.298 197.372 452.266 197.372 451.458 197.092 450.873 196.532 450.289 195.971 449.996 195.229 449.996 194.306 449.996 192.324 451.138 191.169 453.421 190.841L456.538 190.4C456.538 188.903 455.827 188.154 454.406 188.154 453.155 188.154 452.027 188.585 451.022 189.446L451.022 187.365C452.129 186.708 453.407 186.38 454.857 186.38ZM435.857 186.38C438.509 186.38 439.835 187.686 439.835 190.297L439.835 197.126 437.528 197.126 437.528 195.486 437.487 195.486C436.762 196.743 435.699 197.372 434.298 197.372 433.266 197.372 432.458 197.092 431.873 196.532 431.289 195.971 430.996 195.229 430.996 194.306 430.996 192.324 432.138 191.169 434.421 190.841L437.538 190.4C437.538 188.903 436.827 188.154 435.406 188.154 434.155 188.154 433.027 188.585 432.022 189.446L432.022 187.365C433.129 186.708 434.407 186.38 435.857 186.38ZM391.154 186.38C392.59 186.38 393.7 186.842 394.487 187.764 395.273 188.687 395.666 189.969 395.666 191.61L395.666 192.522 388.509 192.522C388.536 193.493 388.835 194.242 389.406 194.768 389.977 195.294 390.761 195.557 391.759 195.557 392.88 195.557 393.909 195.222 394.845 194.553L394.845 196.47C393.888 197.072 392.624 197.372 391.052 197.372 389.507 197.372 388.295 196.896 387.417 195.942 386.538 194.988 386.099 193.647 386.099 191.917 386.099 190.284 386.583 188.952 387.55 187.923 388.517 186.895 389.719 186.38 391.154 186.38ZM371.687 186.38C373.328 186.38 374.606 186.862 375.522 187.826 376.438 188.79 376.896 190.126 376.896 191.835 376.896 193.51 376.402 194.852 375.415 195.86 374.427 196.868 373.099 197.372 371.431 197.372 369.811 197.372 368.517 196.882 367.55 195.901 366.583 194.92 366.099 193.619 366.099 191.999 366.099 190.236 366.603 188.858 367.611 187.867 368.62 186.876 369.978 186.38 371.687 186.38ZM419.472 184.493 419.472 195.065 421.421 195.065C423.136 195.065 424.471 194.594 425.425 193.65 426.378 192.707 426.855 191.374 426.855 189.651 426.855 186.213 425.074 184.493 421.513 184.493ZM445.801 183.519 445.801 186.626 448.313 186.626 448.313 188.493 445.801 188.493 445.801 193.743C445.801 194.365 445.913 194.809 446.139 195.076 446.365 195.342 446.74 195.475 447.267 195.475 447.67 195.475 448.019 195.359 448.313 195.127L448.313 197.014C447.848 197.246 447.236 197.362 446.477 197.362 444.44 197.362 443.422 196.385 443.422 194.43L443.422 188.493 441.668 188.493 441.668 186.626 443.422 186.626 443.422 184.196ZM417.042 182.422 421.287 182.422C426.708 182.422 429.419 184.811 429.419 189.59 429.419 191.859 428.667 193.683 427.163 195.06 425.659 196.438 423.642 197.126 421.113 197.126L417.042 197.126ZM326.042 182.422 329.477 182.422 333.343 192.215C333.637 192.967 333.828 193.527 333.917 193.896L333.969 193.896C334.221 193.124 334.427 192.55 334.584 192.174L338.521 182.422 341.833 182.422 341.833 197.126 339.413 197.126 339.413 187.611C339.413 186.831 339.461 185.878 339.557 184.75L339.516 184.75C339.365 185.392 339.232 185.854 339.116 186.134L334.727 197.126 333.046 197.126 328.647 186.216C328.524 185.895 328.394 185.406 328.257 184.75L328.216 184.75C328.271 185.338 328.298 186.298 328.298 187.631L328.298 197.126 326.042 197.126ZM346.975 181.715C347.379 181.715 347.72 181.845 348.001 182.104 348.281 182.364 348.421 182.689 348.421 183.078 348.421 183.448 348.281 183.764 348.001 184.027 347.72 184.29 347.379 184.422 346.975 184.422 346.586 184.422 346.252 184.295 345.976 184.042 345.699 183.789 345.56 183.468 345.56 183.078 345.56 182.689 345.699 182.364 345.976 182.104 346.252 181.845 346.586 181.715 346.975 181.715ZM461.776 181.581 464.155 181.581 464.155 188.472 464.196 188.472C465.009 187.077 466.198 186.38 467.764 186.38 469.09 186.38 470.127 186.85 470.876 187.79 471.625 188.73 471.999 189.99 471.999 191.569 471.999 193.326 471.578 194.732 470.738 195.788 469.897 196.844 468.748 197.372 467.292 197.372 465.925 197.372 464.893 196.785 464.196 195.609L464.155 195.609 464.155 197.126 461.776 197.126ZM404.943 181.581 407.322 181.581 407.322 197.126 404.943 197.126 404.943 195.342 404.902 195.342C404.136 196.696 402.957 197.372 401.365 197.372 400.073 197.372 399.039 196.902 398.263 195.962 397.487 195.023 397.099 193.743 397.099 192.122 397.099 190.386 397.528 188.995 398.386 187.949 399.244 186.903 400.387 186.38 401.816 186.38 403.231 186.38 404.26 186.948 404.902 188.082L404.943 188.082Z" fill="url(#fill8)" fill-rule="evenodd"/><text fill-opacity="0" font-family="Arial,Arial_MSFontService,Arial" font-size="15.791" x="326.042" y="195.399">Mirrored Database</text><text fill="#FFFFFF" font-family="Segoe UI,Segoe UI_MSFontService,Arial" font-weight="400" font-size="16" transform="translate(234.185 457)">CDC feed</text><path d="M147 537C147 529.268 153.268 523 161 523L276 523C283.732 523 290 529.268 290 537L290 593C290 600.732 283.732 607 276 607L161 607C153.268 607 147 600.732 147 593Z" fill="#0070C0" fill-rule="evenodd"/><text fill="#FFFFFF" font-family="Segoe Sans Text,Segoe Sans Text_MSFontService,Arial" font-weight="700" font-size="21" transform="translate(198.163 560)">SAP </text><text fill="#FFFFFF" font-family="Segoe Sans Text,Segoe Sans Text_MSFontService,Arial" font-weight="700" font-size="21" transform="translate(161.33 586)">Datasphere</text><path d="M134 274.833C134 268.298 139.298 263 145.833 263L287.167 263C293.702 263 299 268.298 299 274.833L299 322.167C299 328.702 293.702 334 287.167 334L145.833 334C139.298 334 134 328.702 134 322.167Z" fill="#215B61" fill-rule="evenodd"/><text fill="#FFFFFF" font-family="Segoe Sans Text,Segoe Sans Text_MSFontService,Arial" font-weight="400" font-size="19" transform="translate(154.526 283)">Azure </text><text fill="#FFFFFF" font-family="Segoe Sans Text,Segoe Sans Text_MSFontService,Arial" font-weight="400" font-size="19" transform="translate(207.026 283)">Datalake</text><text fill="#FFFFFF" font-family="Segoe Sans Text,Segoe Sans Text_MSFontService,Arial" font-weight="400" font-size="19" transform="translate(195.026 306)">Gen2</text><text fill="#FFFFFF" font-family="Segoe Sans Text,Segoe Sans Text_MSFontService,Arial" font-weight="400" font-size="19" transform="translate(160.112 328)">Landing Zone</text><path d="M214.638 522.554 213.104 346.034 221.104 345.965 222.638 522.484ZM209.139 350.069 217 334 225.139 349.93Z" fill="url(#fill9)"/><path d="M54 633C54 626.925 58.925 622 65.0003 622L197 622C203.075 622 208 626.925 208 633L208 677C208 683.075 203.075 688 197 688L65.0003 688C58.925 688 54 683.075 54 677Z" fill="#0070C0" fill-rule="evenodd"/><text fill="#FFFFFF" font-family="Segoe Sans Text,Segoe Sans Text_MSFontService,Arial" font-weight="400" font-size="19" transform="translate(95.9496 651)">SAP ECC</text><text fill="#FFFFFF" font-family="Segoe Sans Text,Segoe Sans Text_MSFontService,Arial" font-weight="400" font-size="19" transform="translate(72.8629 674)">SAP S/4HANA</text><path d="M217 633C217 626.925 221.925 622 228 622L371 622C377.075 622 382 626.925 382 633L382 677C382 683.075 377.075 688 371 688L228 688C221.925 688 217 683.075 217 677Z" fill="#0070C0" fill-rule="evenodd"/><text fill="#FFFFFF" font-family="Segoe Sans Text,Segoe Sans Text_MSFontService,Arial" font-weight="400" font-size="19" transform="translate(266.347 651)">SAP BW</text><text fill="#FFFFFF" font-family="Segoe Sans Text,Segoe Sans Text_MSFontService,Arial" font-weight="400" font-size="19" transform="translate(232.013 674)">SAP BW/4HANA</text><path d="M391 631.834C391 625.85 395.85 621 401.834 621L545.166 621C551.15 621 556 625.85 556 631.834L556 675.166C556 681.15 551.15 686 545.166 686L401.834 686C395.85 686 391 681.15 391 675.166Z" fill="#0070C0" fill-rule="evenodd"/><text fill="#FFFFFF" font-family="Segoe Sans Text,Segoe Sans Text_MSFontService,Arial" font-weight="400" font-size="16" transform="translate(404.779 641)">SAP </text><text fill="#FFFFFF" font-family="Segoe Sans Text,Segoe Sans Text_MSFontService,Arial" font-weight="400" font-size="16" transform="translate(436.946 641)">Successfactors</text><text fill="#FFFFFF" font-family="Segoe Sans Text,Segoe Sans Text_MSFontService,Arial" font-weight="400" font-size="16" transform="translate(538.779 641)">, </text><text fill="#FFFFFF" font-family="Segoe Sans Text,Segoe Sans Text_MSFontService,Arial" font-weight="400" font-size="16" transform="translate(424.279 660)">Ariba, Concur, </text><text fill="#FFFFFF" font-family="Segoe Sans Text,Segoe Sans Text_MSFontService,Arial" font-weight="400" font-size="16" transform="translate(429.532 679)">Fieldglass, …</text><g><g><g><path d="M200.031 240.734C200.031 238.137 202.137 236.031 204.734 236.031L230.266 236.031C232.863 236.031 234.969 238.137 234.969 240.734L234.969 266.266C234.969 268.863 232.863 270.969 230.266 270.969L204.734 270.969C202.137 270.969 200.031 268.863 200.031 266.266L200.031 240.734Z" fill="url(#fill10)"/><path d="M200.031 240.734C200.031 238.137 202.137 236.031 204.734 236.031L230.266 236.031C232.863 236.031 234.969 238.137 234.969 240.734L234.969 266.266C234.969 268.863 232.863 270.969 230.266 270.969L204.734 270.969C202.137 270.969 200.031 268.863 200.031 266.266L200.031 240.734Z" fill="url(#fill11)"/><path d="M230.266 236.703 204.734 236.703C202.508 236.703 200.703 238.508 200.703 240.734L200.703 266.266C200.703 268.492 202.508 270.297 204.734 270.297L230.266 270.297C232.492 270.297 234.297 268.492 234.297 266.266L234.297 240.734C234.297 238.508 232.492 236.703 230.266 236.703ZM204.734 236.031C202.137 236.031 200.031 238.137 200.031 240.734L200.031 266.266C200.031 268.863 202.137 270.969 204.734 270.969L230.266 270.969C232.863 270.969 234.969 268.863 234.969 266.266L234.969 240.734C234.969 238.137 232.863 236.031 230.266 236.031L204.734 236.031Z" fill="url(#fill12)" fill-rule="evenodd"/><path d="M209.438 253.5C209.438 250.903 211.543 248.797 214.141 248.797L214.98 248.797C215.259 248.797 215.484 249.022 215.484 249.301 215.484 249.579 215.259 249.805 214.98 249.805L214.141 249.805C212.1 249.805 210.445 251.459 210.445 253.5 210.445 255.541 212.1 257.195 214.141 257.195L214.98 257.195C215.259 257.195 215.484 257.421 215.484 257.699 215.484 257.978 215.259 258.203 214.98 258.203L214.141 258.203C211.543 258.203 209.438 256.097 209.438 253.5Z" fill="url(#fill13)"/><path d="M214.812 253.501C214.812 253.222 215.038 252.997 215.316 252.997L219.684 252.997C219.962 252.997 220.188 253.222 220.188 253.501 220.188 253.779 219.962 254.005 219.684 254.005L215.316 254.005C215.038 254.005 214.812 253.779 214.812 253.501Z" fill="url(#fill14)"/><path d="M220.859 258.203C223.457 258.203 225.562 256.097 225.562 253.5 225.562 250.903 223.457 248.797 220.859 248.797L220.02 248.797C219.741 248.797 219.516 249.022 219.516 249.301 219.516 249.579 219.741 249.805 220.02 249.805L220.859 249.805C222.9 249.805 224.555 251.459 224.555 253.5 224.555 255.541 222.9 257.195 220.859 257.195L220.02 257.195C219.741 257.195 219.516 257.421 219.516 257.699 219.516 257.978 219.741 258.203 220.02 258.203L220.859 258.203Z" fill="url(#fill15)"/></g></g></g></g></svg>